G04 #@! TF.GenerationSoftware,KiCad,Pcbnew,5.1.4-e60b266~84~ubuntu19.04.1*
G04 #@! TF.CreationDate,2019-08-29T17:26:57+02:00*
G04 #@! TF.ProjectId,VGABreakout,56474142-7265-4616-9b6f-75742e6b6963,1.0*
G04 #@! TF.SameCoordinates,Original*
G04 #@! TF.FileFunction,Copper,L1,Top*
G04 #@! TF.FilePolarity,Positive*
%FSLAX46Y46*%
G04 Gerber Fmt 4.6, Leading zero omitted, Abs format (unit mm)*
G04 Created by KiCad (PCBNEW 5.1.4-e60b266~84~ubuntu19.04.1) date 2019-08-29 17:26:57*
%MOMM*%
%LPD*%
G04 APERTURE LIST*
%ADD10O,5.550000X2.775000*%
%ADD11C,4.000000*%
%ADD12C,1.600000*%
%ADD13R,1.600000X1.600000*%
%ADD14O,1.700000X1.700000*%
%ADD15R,1.700000X1.700000*%
%ADD16C,0.800000*%
%ADD17C,0.250000*%
%ADD18C,0.254000*%
G04 APERTURE END LIST*
D10*
X154940000Y-108330000D03*
X154940000Y-113030000D03*
X154940000Y-117730000D03*
X144780000Y-117730000D03*
X144780000Y-113030000D03*
X144780000Y-108330000D03*
X134620000Y-117730000D03*
X134620000Y-113030000D03*
X134620000Y-108330000D03*
X124460000Y-117730000D03*
X124460000Y-113030000D03*
X124460000Y-108330000D03*
X114300000Y-108330000D03*
X114300000Y-113030000D03*
X114300000Y-117730000D03*
X100580000Y-117730000D03*
X100580000Y-113030000D03*
X100580000Y-108330000D03*
D11*
X147105000Y-146590538D03*
X122105000Y-146590538D03*
D12*
X129760000Y-149130538D03*
X132050000Y-149130538D03*
X134340000Y-149130538D03*
X136630000Y-149130538D03*
X138920000Y-149130538D03*
X130905000Y-147150538D03*
X133195000Y-147150538D03*
X135485000Y-147150538D03*
X137775000Y-147150538D03*
X140065000Y-147150538D03*
X129760000Y-145170538D03*
X132050000Y-145170538D03*
X134340000Y-145170538D03*
X136630000Y-145170538D03*
D13*
X138920000Y-145170538D03*
D14*
X101845000Y-131231200D03*
D15*
X99305000Y-131231200D03*
X129545000Y-131231200D03*
D14*
X132085000Y-131231200D03*
X134625000Y-131231200D03*
X137165000Y-131231200D03*
X139705000Y-131231200D03*
D15*
X129545000Y-94828800D03*
D14*
X132085000Y-94828800D03*
X134625000Y-94828800D03*
X137165000Y-94828800D03*
X139705000Y-94828800D03*
D11*
X122135000Y-79039462D03*
X147135000Y-79039462D03*
D12*
X139480000Y-76499462D03*
X137190000Y-76499462D03*
X134900000Y-76499462D03*
X132610000Y-76499462D03*
X130320000Y-76499462D03*
X138335000Y-78479462D03*
X136045000Y-78479462D03*
X133755000Y-78479462D03*
X131465000Y-78479462D03*
X129175000Y-78479462D03*
X139480000Y-80459462D03*
X137190000Y-80459462D03*
X134900000Y-80459462D03*
X132610000Y-80459462D03*
D13*
X130320000Y-80459462D03*
D16*
X145796000Y-73914000D03*
X133858000Y-137414000D03*
X138938000Y-151638000D03*
X137922000Y-87122000D03*
D17*
X129760000Y-149130538D02*
X123791731Y-143162269D01*
X123791731Y-143162269D02*
X109982000Y-129352538D01*
X109982000Y-129352538D02*
X109982000Y-113538646D01*
X109982000Y-113538646D02*
X109982000Y-112522000D01*
X109982000Y-112522000D02*
X111760000Y-110744000D01*
X111760000Y-110744000D02*
X156463354Y-110744000D01*
X156463354Y-110744000D02*
X158242000Y-110744000D01*
X158242000Y-110744000D02*
X160020000Y-108966000D01*
X160020000Y-81788000D02*
X152146000Y-73914000D01*
X160020000Y-108966000D02*
X160020000Y-81788000D01*
X152146000Y-73914000D02*
X145796000Y-73914000D01*
X143392500Y-113030000D02*
X139700000Y-116722500D01*
X144780000Y-113030000D02*
X143392500Y-113030000D01*
X139700000Y-128696200D02*
X137165000Y-131231200D01*
X139700000Y-116722500D02*
X139700000Y-128696200D01*
X133858000Y-134538200D02*
X137165000Y-131231200D01*
X133858000Y-137414000D02*
X133858000Y-134538200D01*
X150114000Y-129032000D02*
X147914800Y-131231200D01*
X147914800Y-131231200D02*
X139705000Y-131231200D01*
X153552500Y-113030000D02*
X150114000Y-116722500D01*
X150114000Y-116722500D02*
X150114000Y-129032000D01*
X154940000Y-113030000D02*
X153552500Y-113030000D01*
X139705000Y-131231200D02*
X139705000Y-136657000D01*
X139705000Y-136657000D02*
X143510000Y-140462000D01*
X143510000Y-140462000D02*
X143510000Y-148082000D01*
X143510000Y-148082000D02*
X140970000Y-150622000D01*
X135831462Y-150622000D02*
X134340000Y-149130538D01*
X140970000Y-150622000D02*
X135831462Y-150622000D01*
X128242538Y-74422000D02*
X130320000Y-76499462D01*
X112776000Y-74422000D02*
X128242538Y-74422000D01*
X136652000Y-153924000D02*
X125997460Y-153924000D01*
X125997460Y-153924000D02*
X108966000Y-136892540D01*
X138938000Y-151638000D02*
X136652000Y-153924000D01*
X108966000Y-136892540D02*
X108966000Y-78232000D01*
X108966000Y-78232000D02*
X112776000Y-74422000D01*
X99305000Y-131231200D02*
X99305000Y-124451000D01*
X99305000Y-124451000D02*
X95504000Y-120650000D01*
X99192500Y-113030000D02*
X100580000Y-113030000D01*
X95504000Y-116718500D02*
X99192500Y-113030000D01*
X95504000Y-120650000D02*
X95504000Y-116718500D01*
X133232500Y-113030000D02*
X131064000Y-115198500D01*
X134620000Y-113030000D02*
X133232500Y-113030000D01*
X131064000Y-127670200D02*
X134625000Y-131231200D01*
X131064000Y-115198500D02*
X131064000Y-127670200D01*
X132933462Y-132922738D02*
X133775001Y-132081199D01*
X132933462Y-143764000D02*
X132933462Y-132922738D01*
X133775001Y-132081199D02*
X134625000Y-131231200D01*
X134340000Y-145170538D02*
X132933462Y-143764000D01*
X125847500Y-113030000D02*
X129794000Y-116976500D01*
X124460000Y-113030000D02*
X125847500Y-113030000D01*
X129794000Y-128940200D02*
X132085000Y-131231200D01*
X129794000Y-116976500D02*
X129794000Y-128940200D01*
X115687500Y-113030000D02*
X119380000Y-116722500D01*
X114300000Y-113030000D02*
X115687500Y-113030000D01*
X119380000Y-116722500D02*
X119380000Y-129032000D01*
X121579200Y-131231200D02*
X129545000Y-131231200D01*
X119380000Y-129032000D02*
X121579200Y-131231200D01*
X152486800Y-94828800D02*
X139705000Y-94828800D01*
X134900000Y-74904000D02*
X134900000Y-76499462D01*
X139705000Y-94828800D02*
X143510000Y-91023800D01*
X143510000Y-75946000D02*
X140970000Y-73406000D01*
X140970000Y-73406000D02*
X136398000Y-73406000D01*
X143510000Y-91023800D02*
X143510000Y-75946000D01*
X136398000Y-73406000D02*
X134900000Y-74904000D01*
X154940000Y-106692500D02*
X154940000Y-97282000D01*
X152486800Y-94828800D02*
X154940000Y-97282000D01*
X154940000Y-106692500D02*
X154940000Y-108330000D01*
X137165000Y-94828800D02*
X137165000Y-98293000D01*
X144780000Y-105908000D02*
X144780000Y-108330000D01*
X137165000Y-98293000D02*
X144780000Y-105908000D01*
X141986000Y-90007800D02*
X137165000Y-94828800D01*
X137190000Y-75368092D02*
X138136092Y-74422000D01*
X137190000Y-76499462D02*
X137190000Y-75368092D01*
X138136092Y-74422000D02*
X140462000Y-74422000D01*
X140462000Y-74422000D02*
X141986000Y-75946000D01*
X141986000Y-75946000D02*
X141986000Y-90007800D01*
X134620000Y-94833800D02*
X134625000Y-94828800D01*
X134620000Y-108330000D02*
X134620000Y-94833800D01*
X134900000Y-94553800D02*
X134625000Y-94828800D01*
X134900000Y-80459462D02*
X134900000Y-94553800D01*
X132085000Y-94828800D02*
X132085000Y-98293000D01*
X124460000Y-105918000D02*
X124460000Y-108330000D01*
X132085000Y-98293000D02*
X124460000Y-105918000D01*
X132610000Y-80459462D02*
X132610000Y-83544000D01*
X132085000Y-84069000D02*
X132085000Y-94828800D01*
X132610000Y-83544000D02*
X132085000Y-84069000D01*
X114300000Y-108330000D02*
X114300000Y-97282000D01*
X116753200Y-94828800D02*
X129545000Y-94828800D01*
X114300000Y-97282000D02*
X116753200Y-94828800D01*
X129545000Y-81234462D02*
X130320000Y-80459462D01*
X129545000Y-94828800D02*
X129545000Y-81234462D01*
X133755000Y-78479462D02*
X131465000Y-78479462D01*
X131465000Y-78479462D02*
X129175000Y-78479462D01*
X138335000Y-79314462D02*
X139480000Y-80459462D01*
X138335000Y-78479462D02*
X138335000Y-79314462D01*
X135485000Y-147150538D02*
X140065000Y-147150538D01*
X130905000Y-146315538D02*
X129760000Y-145170538D01*
X130905000Y-147150538D02*
X130905000Y-146315538D01*
D18*
G36*
X160608500Y-81307095D02*
G01*
X160583799Y-81276997D01*
X160560001Y-81247999D01*
X160531003Y-81224201D01*
X152709804Y-73403003D01*
X152686001Y-73373999D01*
X152570276Y-73279026D01*
X152438247Y-73208454D01*
X152294986Y-73164997D01*
X152183333Y-73154000D01*
X152183322Y-73154000D01*
X152146000Y-73150324D01*
X152108678Y-73154000D01*
X146499711Y-73154000D01*
X146455774Y-73110063D01*
X146286256Y-72996795D01*
X146097898Y-72918774D01*
X145897939Y-72879000D01*
X145694061Y-72879000D01*
X145494102Y-72918774D01*
X145305744Y-72996795D01*
X145136226Y-73110063D01*
X144992063Y-73254226D01*
X144878795Y-73423744D01*
X144800774Y-73612102D01*
X144761000Y-73812061D01*
X144761000Y-74015939D01*
X144800774Y-74215898D01*
X144878795Y-74404256D01*
X144992063Y-74573774D01*
X145136226Y-74717937D01*
X145305744Y-74831205D01*
X145494102Y-74909226D01*
X145694061Y-74949000D01*
X145897939Y-74949000D01*
X146097898Y-74909226D01*
X146286256Y-74831205D01*
X146455774Y-74717937D01*
X146499711Y-74674000D01*
X151831199Y-74674000D01*
X159260001Y-82102803D01*
X159260000Y-108651198D01*
X157927199Y-109984000D01*
X157500181Y-109984000D01*
X157764543Y-109767043D01*
X158017284Y-109459078D01*
X158205087Y-109107722D01*
X158320736Y-108726479D01*
X158359786Y-108330000D01*
X158320736Y-107933521D01*
X158205087Y-107552278D01*
X158017284Y-107200922D01*
X157764543Y-106892957D01*
X157456578Y-106640216D01*
X157105222Y-106452413D01*
X156723979Y-106336764D01*
X156426858Y-106307500D01*
X155700000Y-106307500D01*
X155700000Y-97319325D01*
X155703676Y-97282000D01*
X155700000Y-97244675D01*
X155700000Y-97244667D01*
X155689003Y-97133014D01*
X155645546Y-96989753D01*
X155574974Y-96857724D01*
X155480001Y-96741999D01*
X155451003Y-96718201D01*
X153050604Y-94317803D01*
X153026801Y-94288799D01*
X152911076Y-94193826D01*
X152779047Y-94123254D01*
X152635786Y-94079797D01*
X152524133Y-94068800D01*
X152524122Y-94068800D01*
X152486800Y-94065124D01*
X152449478Y-94068800D01*
X141539801Y-94068800D01*
X144021004Y-91587598D01*
X144050001Y-91563801D01*
X144144974Y-91448076D01*
X144215546Y-91316047D01*
X144259003Y-91172786D01*
X144270000Y-91061133D01*
X144270000Y-91061132D01*
X144273677Y-91023800D01*
X144270000Y-90986467D01*
X144270000Y-78779937D01*
X144500000Y-78779937D01*
X144500000Y-79298987D01*
X144601261Y-79808063D01*
X144799893Y-80287603D01*
X145088262Y-80719177D01*
X145455285Y-81086200D01*
X145886859Y-81374569D01*
X146366399Y-81573201D01*
X146875475Y-81674462D01*
X147394525Y-81674462D01*
X147903601Y-81573201D01*
X148383141Y-81374569D01*
X148814715Y-81086200D01*
X149181738Y-80719177D01*
X149470107Y-80287603D01*
X149668739Y-79808063D01*
X149770000Y-79298987D01*
X149770000Y-78779937D01*
X149668739Y-78270861D01*
X149470107Y-77791321D01*
X149181738Y-77359747D01*
X148814715Y-76992724D01*
X148383141Y-76704355D01*
X147903601Y-76505723D01*
X147394525Y-76404462D01*
X146875475Y-76404462D01*
X146366399Y-76505723D01*
X145886859Y-76704355D01*
X145455285Y-76992724D01*
X145088262Y-77359747D01*
X144799893Y-77791321D01*
X144601261Y-78270861D01*
X144500000Y-78779937D01*
X144270000Y-78779937D01*
X144270000Y-75983322D01*
X144273676Y-75945999D01*
X144270000Y-75908676D01*
X144270000Y-75908667D01*
X144259003Y-75797014D01*
X144215546Y-75653753D01*
X144144974Y-75521724D01*
X144100719Y-75467799D01*
X144073799Y-75434996D01*
X144073795Y-75434992D01*
X144050001Y-75405999D01*
X144021008Y-75382205D01*
X141533804Y-72895003D01*
X141510001Y-72865999D01*
X141394276Y-72771026D01*
X141262247Y-72700454D01*
X141118986Y-72656997D01*
X141007333Y-72646000D01*
X141007322Y-72646000D01*
X140970000Y-72642324D01*
X140932678Y-72646000D01*
X136435323Y-72646000D01*
X136398000Y-72642324D01*
X136360677Y-72646000D01*
X136360667Y-72646000D01*
X136249014Y-72656997D01*
X136105753Y-72700454D01*
X135973723Y-72771026D01*
X135890083Y-72839668D01*
X135857999Y-72865999D01*
X135834201Y-72894997D01*
X134389003Y-74340196D01*
X134359999Y-74363999D01*
X134309936Y-74425002D01*
X134265026Y-74479724D01*
X134228011Y-74548974D01*
X134194454Y-74611754D01*
X134150997Y-74755015D01*
X134140000Y-74866668D01*
X134140000Y-74866678D01*
X134136324Y-74904000D01*
X134140000Y-74941323D01*
X134140000Y-75281418D01*
X133985241Y-75384825D01*
X133785363Y-75584703D01*
X133755000Y-75630145D01*
X133724637Y-75584703D01*
X133524759Y-75384825D01*
X133289727Y-75227782D01*
X133028574Y-75119609D01*
X132751335Y-75064462D01*
X132468665Y-75064462D01*
X132191426Y-75119609D01*
X131930273Y-75227782D01*
X131695241Y-75384825D01*
X131495363Y-75584703D01*
X131465000Y-75630145D01*
X131434637Y-75584703D01*
X131234759Y-75384825D01*
X130999727Y-75227782D01*
X130738574Y-75119609D01*
X130461335Y-75064462D01*
X130178665Y-75064462D01*
X129996114Y-75100774D01*
X128806342Y-73911003D01*
X128782539Y-73881999D01*
X128666814Y-73787026D01*
X128534785Y-73716454D01*
X128391524Y-73672997D01*
X128279871Y-73662000D01*
X128279860Y-73662000D01*
X128242538Y-73658324D01*
X128205216Y-73662000D01*
X112813325Y-73662000D01*
X112776000Y-73658324D01*
X112738675Y-73662000D01*
X112738667Y-73662000D01*
X112627014Y-73672997D01*
X112483753Y-73716454D01*
X112351724Y-73787026D01*
X112235999Y-73881999D01*
X112212201Y-73910997D01*
X108454998Y-77668201D01*
X108426000Y-77691999D01*
X108402202Y-77720997D01*
X108402201Y-77720998D01*
X108331026Y-77807724D01*
X108260454Y-77939754D01*
X108216998Y-78083015D01*
X108202324Y-78232000D01*
X108206001Y-78269333D01*
X108206000Y-136855218D01*
X108202324Y-136892540D01*
X108206000Y-136929862D01*
X108206000Y-136929872D01*
X108216997Y-137041525D01*
X108238406Y-137112102D01*
X108260454Y-137184786D01*
X108331026Y-137316816D01*
X108368556Y-137362546D01*
X108425999Y-137432541D01*
X108455003Y-137456344D01*
X125433661Y-154435003D01*
X125457459Y-154464001D01*
X125573184Y-154558974D01*
X125705213Y-154629546D01*
X125848474Y-154673003D01*
X125960127Y-154684000D01*
X125960135Y-154684000D01*
X125997460Y-154687676D01*
X126034785Y-154684000D01*
X136614678Y-154684000D01*
X136652000Y-154687676D01*
X136689322Y-154684000D01*
X136689333Y-154684000D01*
X136800986Y-154673003D01*
X136944247Y-154629546D01*
X137076276Y-154558974D01*
X137192001Y-154464001D01*
X137215804Y-154434997D01*
X137882735Y-153768066D01*
X154598938Y-153768066D01*
X154598938Y-154193010D01*
X154681840Y-154609788D01*
X154844459Y-155002385D01*
X155080545Y-155355712D01*
X155381026Y-155656193D01*
X155734353Y-155892279D01*
X156126950Y-156054898D01*
X156543728Y-156137800D01*
X156968672Y-156137800D01*
X157385450Y-156054898D01*
X157778047Y-155892279D01*
X158131374Y-155656193D01*
X158431855Y-155355712D01*
X158667941Y-155002385D01*
X158830560Y-154609788D01*
X158913462Y-154193010D01*
X158913462Y-153768066D01*
X158830560Y-153351288D01*
X158667941Y-152958691D01*
X158431855Y-152605364D01*
X158131374Y-152304883D01*
X157778047Y-152068797D01*
X157385450Y-151906178D01*
X156968672Y-151823276D01*
X156543728Y-151823276D01*
X156126950Y-151906178D01*
X155734353Y-152068797D01*
X155381026Y-152304883D01*
X155080545Y-152605364D01*
X154844459Y-152958691D01*
X154681840Y-153351288D01*
X154598938Y-153768066D01*
X137882735Y-153768066D01*
X138977802Y-152673000D01*
X139039939Y-152673000D01*
X139239898Y-152633226D01*
X139428256Y-152555205D01*
X139597774Y-152441937D01*
X139741937Y-152297774D01*
X139855205Y-152128256D01*
X139933226Y-151939898D01*
X139973000Y-151739939D01*
X139973000Y-151536061D01*
X139942356Y-151382000D01*
X140932678Y-151382000D01*
X140970000Y-151385676D01*
X141007322Y-151382000D01*
X141007333Y-151382000D01*
X141118986Y-151371003D01*
X141262247Y-151327546D01*
X141394276Y-151256974D01*
X141510001Y-151162001D01*
X141533804Y-151132997D01*
X144021008Y-148645795D01*
X144050001Y-148622001D01*
X144073795Y-148593008D01*
X144073799Y-148593004D01*
X144144973Y-148506277D01*
X144144974Y-148506276D01*
X144215546Y-148374247D01*
X144259003Y-148230986D01*
X144270000Y-148119333D01*
X144270000Y-148119324D01*
X144273676Y-148082001D01*
X144270000Y-148044678D01*
X144270000Y-146331013D01*
X144470000Y-146331013D01*
X144470000Y-146850063D01*
X144571261Y-147359139D01*
X144769893Y-147838679D01*
X145058262Y-148270253D01*
X145425285Y-148637276D01*
X145856859Y-148925645D01*
X146336399Y-149124277D01*
X146845475Y-149225538D01*
X147364525Y-149225538D01*
X147873601Y-149124277D01*
X148353141Y-148925645D01*
X148784715Y-148637276D01*
X149151738Y-148270253D01*
X149440107Y-147838679D01*
X149638739Y-147359139D01*
X149740000Y-146850063D01*
X149740000Y-146331013D01*
X149638739Y-145821937D01*
X149440107Y-145342397D01*
X149151738Y-144910823D01*
X148784715Y-144543800D01*
X148353141Y-144255431D01*
X147873601Y-144056799D01*
X147364525Y-143955538D01*
X146845475Y-143955538D01*
X146336399Y-144056799D01*
X145856859Y-144255431D01*
X145425285Y-144543800D01*
X145058262Y-144910823D01*
X144769893Y-145342397D01*
X144571261Y-145821937D01*
X144470000Y-146331013D01*
X144270000Y-146331013D01*
X144270000Y-140499333D01*
X144273677Y-140462000D01*
X144259003Y-140313014D01*
X144215546Y-140169753D01*
X144144974Y-140037724D01*
X144073799Y-139950997D01*
X144050001Y-139921999D01*
X144021004Y-139898202D01*
X140465000Y-136342199D01*
X140465000Y-132508795D01*
X140534014Y-132471906D01*
X140760134Y-132286334D01*
X140945706Y-132060214D01*
X140982595Y-131991200D01*
X147877478Y-131991200D01*
X147914800Y-131994876D01*
X147952122Y-131991200D01*
X147952133Y-131991200D01*
X148063786Y-131980203D01*
X148207047Y-131936746D01*
X148339076Y-131866174D01*
X148454801Y-131771201D01*
X148478604Y-131742198D01*
X150625008Y-129595795D01*
X150654001Y-129572001D01*
X150677795Y-129543008D01*
X150677799Y-129543004D01*
X150748973Y-129456277D01*
X150751686Y-129451202D01*
X150819546Y-129324247D01*
X150863003Y-129180986D01*
X150874000Y-129069333D01*
X150874000Y-129069324D01*
X150877676Y-129032001D01*
X150874000Y-128994678D01*
X150874000Y-117730000D01*
X151520214Y-117730000D01*
X151559264Y-118126479D01*
X151674913Y-118507722D01*
X151862716Y-118859078D01*
X152115457Y-119167043D01*
X152423422Y-119419784D01*
X152774778Y-119607587D01*
X153156021Y-119723236D01*
X153453142Y-119752500D01*
X156426858Y-119752500D01*
X156723979Y-119723236D01*
X157105222Y-119607587D01*
X157456578Y-119419784D01*
X157764543Y-119167043D01*
X158017284Y-118859078D01*
X158205087Y-118507722D01*
X158320736Y-118126479D01*
X158359786Y-117730000D01*
X158320736Y-117333521D01*
X158205087Y-116952278D01*
X158017284Y-116600922D01*
X157764543Y-116292957D01*
X157456578Y-116040216D01*
X157105222Y-115852413D01*
X156723979Y-115736764D01*
X156426858Y-115707500D01*
X153453142Y-115707500D01*
X153156021Y-115736764D01*
X152774778Y-115852413D01*
X152423422Y-116040216D01*
X152115457Y-116292957D01*
X151862716Y-116600922D01*
X151674913Y-116952278D01*
X151559264Y-117333521D01*
X151520214Y-117730000D01*
X150874000Y-117730000D01*
X150874000Y-117021565D01*
X152827632Y-114923620D01*
X153156021Y-115023236D01*
X153453142Y-115052500D01*
X156426858Y-115052500D01*
X156723979Y-115023236D01*
X157105222Y-114907587D01*
X157456578Y-114719784D01*
X157764543Y-114467043D01*
X158017284Y-114159078D01*
X158205087Y-113807722D01*
X158320736Y-113426479D01*
X158359786Y-113030000D01*
X158320736Y-112633521D01*
X158205087Y-112252278D01*
X158017284Y-111900922D01*
X157764543Y-111592957D01*
X157656149Y-111504000D01*
X158204678Y-111504000D01*
X158242000Y-111507676D01*
X158279322Y-111504000D01*
X158279333Y-111504000D01*
X158390986Y-111493003D01*
X158534247Y-111449546D01*
X158666276Y-111378974D01*
X158782001Y-111284001D01*
X158805804Y-111254997D01*
X160531004Y-109529798D01*
X160560001Y-109506001D01*
X160608500Y-109446904D01*
X160608501Y-157832838D01*
X94911500Y-157832838D01*
X94911500Y-153768066D01*
X96606538Y-153768066D01*
X96606538Y-154193010D01*
X96689440Y-154609788D01*
X96852059Y-155002385D01*
X97088145Y-155355712D01*
X97388626Y-155656193D01*
X97741953Y-155892279D01*
X98134550Y-156054898D01*
X98551328Y-156137800D01*
X98976272Y-156137800D01*
X99393050Y-156054898D01*
X99785647Y-155892279D01*
X100138974Y-155656193D01*
X100439455Y-155355712D01*
X100675541Y-155002385D01*
X100838160Y-154609788D01*
X100921062Y-154193010D01*
X100921062Y-153768066D01*
X100838160Y-153351288D01*
X100675541Y-152958691D01*
X100439455Y-152605364D01*
X100138974Y-152304883D01*
X99785647Y-152068797D01*
X99393050Y-151906178D01*
X98976272Y-151823276D01*
X98551328Y-151823276D01*
X98134550Y-151906178D01*
X97741953Y-152068797D01*
X97388626Y-152304883D01*
X97088145Y-152605364D01*
X96852059Y-152958691D01*
X96689440Y-153351288D01*
X96606538Y-153768066D01*
X94911500Y-153768066D01*
X94911500Y-121126030D01*
X94963999Y-121190001D01*
X94993003Y-121213804D01*
X98545001Y-124765803D01*
X98545000Y-129743128D01*
X98455000Y-129743128D01*
X98330518Y-129755388D01*
X98210820Y-129791698D01*
X98100506Y-129850663D01*
X98003815Y-129930015D01*
X97924463Y-130026706D01*
X97865498Y-130137020D01*
X97829188Y-130256718D01*
X97816928Y-130381200D01*
X97816928Y-132081200D01*
X97829188Y-132205682D01*
X97865498Y-132325380D01*
X97924463Y-132435694D01*
X98003815Y-132532385D01*
X98100506Y-132611737D01*
X98210820Y-132670702D01*
X98330518Y-132707012D01*
X98455000Y-132719272D01*
X100155000Y-132719272D01*
X100279482Y-132707012D01*
X100399180Y-132670702D01*
X100509494Y-132611737D01*
X100606185Y-132532385D01*
X100685537Y-132435694D01*
X100744502Y-132325380D01*
X100768966Y-132244734D01*
X100844731Y-132328788D01*
X101078080Y-132502841D01*
X101340901Y-132628025D01*
X101488110Y-132672676D01*
X101718000Y-132551355D01*
X101718000Y-131358200D01*
X101972000Y-131358200D01*
X101972000Y-132551355D01*
X102201890Y-132672676D01*
X102349099Y-132628025D01*
X102611920Y-132502841D01*
X102845269Y-132328788D01*
X103040178Y-132112555D01*
X103189157Y-131862452D01*
X103286481Y-131588091D01*
X103165814Y-131358200D01*
X101972000Y-131358200D01*
X101718000Y-131358200D01*
X101698000Y-131358200D01*
X101698000Y-131104200D01*
X101718000Y-131104200D01*
X101718000Y-129911045D01*
X101972000Y-129911045D01*
X101972000Y-131104200D01*
X103165814Y-131104200D01*
X103286481Y-130874309D01*
X103189157Y-130599948D01*
X103040178Y-130349845D01*
X102845269Y-130133612D01*
X102611920Y-129959559D01*
X102349099Y-129834375D01*
X102201890Y-129789724D01*
X101972000Y-129911045D01*
X101718000Y-129911045D01*
X101488110Y-129789724D01*
X101340901Y-129834375D01*
X101078080Y-129959559D01*
X100844731Y-130133612D01*
X100768966Y-130217666D01*
X100744502Y-130137020D01*
X100685537Y-130026706D01*
X100606185Y-129930015D01*
X100509494Y-129850663D01*
X100399180Y-129791698D01*
X100279482Y-129755388D01*
X100155000Y-129743128D01*
X100065000Y-129743128D01*
X100065000Y-124488325D01*
X100068676Y-124451000D01*
X100065000Y-124413675D01*
X100065000Y-124413667D01*
X100054003Y-124302014D01*
X100010546Y-124158753D01*
X99939974Y-124026724D01*
X99845001Y-123910999D01*
X99816003Y-123887201D01*
X96264000Y-120335199D01*
X96264000Y-117730000D01*
X97160214Y-117730000D01*
X97199264Y-118126479D01*
X97314913Y-118507722D01*
X97502716Y-118859078D01*
X97755457Y-119167043D01*
X98063422Y-119419784D01*
X98414778Y-119607587D01*
X98796021Y-119723236D01*
X99093142Y-119752500D01*
X102066858Y-119752500D01*
X102363979Y-119723236D01*
X102745222Y-119607587D01*
X103096578Y-119419784D01*
X103404543Y-119167043D01*
X103657284Y-118859078D01*
X103845087Y-118507722D01*
X103960736Y-118126479D01*
X103999786Y-117730000D01*
X103960736Y-117333521D01*
X103845087Y-116952278D01*
X103657284Y-116600922D01*
X103404543Y-116292957D01*
X103096578Y-116040216D01*
X102745222Y-115852413D01*
X102363979Y-115736764D01*
X102066858Y-115707500D01*
X99093142Y-115707500D01*
X98796021Y-115736764D01*
X98414778Y-115852413D01*
X98063422Y-116040216D01*
X97755457Y-116292957D01*
X97502716Y-116600922D01*
X97314913Y-116952278D01*
X97199264Y-117333521D01*
X97160214Y-117730000D01*
X96264000Y-117730000D01*
X96264000Y-117033301D01*
X98398445Y-114898857D01*
X98414778Y-114907587D01*
X98796021Y-115023236D01*
X99093142Y-115052500D01*
X102066858Y-115052500D01*
X102363979Y-115023236D01*
X102745222Y-114907587D01*
X103096578Y-114719784D01*
X103404543Y-114467043D01*
X103657284Y-114159078D01*
X103845087Y-113807722D01*
X103960736Y-113426479D01*
X103999786Y-113030000D01*
X103960736Y-112633521D01*
X103845087Y-112252278D01*
X103657284Y-111900922D01*
X103404543Y-111592957D01*
X103096578Y-111340216D01*
X102745222Y-111152413D01*
X102363979Y-111036764D01*
X102066858Y-111007500D01*
X99093142Y-111007500D01*
X98796021Y-111036764D01*
X98414778Y-111152413D01*
X98063422Y-111340216D01*
X97755457Y-111592957D01*
X97502716Y-111900922D01*
X97314913Y-112252278D01*
X97199264Y-112633521D01*
X97160214Y-113030000D01*
X97199264Y-113426479D01*
X97314913Y-113807722D01*
X97323643Y-113824055D01*
X94992998Y-116154701D01*
X94964000Y-116178499D01*
X94940202Y-116207497D01*
X94940201Y-116207498D01*
X94911500Y-116242470D01*
X94911500Y-108330000D01*
X97160214Y-108330000D01*
X97199264Y-108726479D01*
X97314913Y-109107722D01*
X97502716Y-109459078D01*
X97755457Y-109767043D01*
X98063422Y-110019784D01*
X98414778Y-110207587D01*
X98796021Y-110323236D01*
X99093142Y-110352500D01*
X102066858Y-110352500D01*
X102363979Y-110323236D01*
X102745222Y-110207587D01*
X103096578Y-110019784D01*
X103404543Y-109767043D01*
X103657284Y-109459078D01*
X103845087Y-109107722D01*
X103960736Y-108726479D01*
X103999786Y-108330000D01*
X103960736Y-107933521D01*
X103845087Y-107552278D01*
X103657284Y-107200922D01*
X103404543Y-106892957D01*
X103096578Y-106640216D01*
X102745222Y-106452413D01*
X102363979Y-106336764D01*
X102066858Y-106307500D01*
X99093142Y-106307500D01*
X98796021Y-106336764D01*
X98414778Y-106452413D01*
X98063422Y-106640216D01*
X97755457Y-106892957D01*
X97502716Y-107200922D01*
X97314913Y-107552278D01*
X97199264Y-107933521D01*
X97160214Y-108330000D01*
X94911500Y-108330000D01*
X94911500Y-71496990D01*
X96606538Y-71496990D01*
X96606538Y-71921934D01*
X96689440Y-72338712D01*
X96852059Y-72731309D01*
X97088145Y-73084636D01*
X97388626Y-73385117D01*
X97741953Y-73621203D01*
X98134550Y-73783822D01*
X98551328Y-73866724D01*
X98976272Y-73866724D01*
X99393050Y-73783822D01*
X99785647Y-73621203D01*
X100138974Y-73385117D01*
X100439455Y-73084636D01*
X100675541Y-72731309D01*
X100838160Y-72338712D01*
X100921062Y-71921934D01*
X100921062Y-71496990D01*
X154598938Y-71496990D01*
X154598938Y-71921934D01*
X154681840Y-72338712D01*
X154844459Y-72731309D01*
X155080545Y-73084636D01*
X155381026Y-73385117D01*
X155734353Y-73621203D01*
X156126950Y-73783822D01*
X156543728Y-73866724D01*
X156968672Y-73866724D01*
X157385450Y-73783822D01*
X157778047Y-73621203D01*
X158131374Y-73385117D01*
X158431855Y-73084636D01*
X158667941Y-72731309D01*
X158830560Y-72338712D01*
X158913462Y-71921934D01*
X158913462Y-71496990D01*
X158830560Y-71080212D01*
X158667941Y-70687615D01*
X158431855Y-70334288D01*
X158131374Y-70033807D01*
X157778047Y-69797721D01*
X157385450Y-69635102D01*
X156968672Y-69552200D01*
X156543728Y-69552200D01*
X156126950Y-69635102D01*
X155734353Y-69797721D01*
X155381026Y-70033807D01*
X155080545Y-70334288D01*
X154844459Y-70687615D01*
X154681840Y-71080212D01*
X154598938Y-71496990D01*
X100921062Y-71496990D01*
X100838160Y-71080212D01*
X100675541Y-70687615D01*
X100439455Y-70334288D01*
X100138974Y-70033807D01*
X99785647Y-69797721D01*
X99393050Y-69635102D01*
X98976272Y-69552200D01*
X98551328Y-69552200D01*
X98134550Y-69635102D01*
X97741953Y-69797721D01*
X97388626Y-70033807D01*
X97088145Y-70334288D01*
X96852059Y-70687615D01*
X96689440Y-71080212D01*
X96606538Y-71496990D01*
X94911500Y-71496990D01*
X94911500Y-67857162D01*
X160608500Y-67857162D01*
X160608500Y-81307095D01*
X160608500Y-81307095D01*
G37*
X160608500Y-81307095D02*
X160583799Y-81276997D01*
X160560001Y-81247999D01*
X160531003Y-81224201D01*
X152709804Y-73403003D01*
X152686001Y-73373999D01*
X152570276Y-73279026D01*
X152438247Y-73208454D01*
X152294986Y-73164997D01*
X152183333Y-73154000D01*
X152183322Y-73154000D01*
X152146000Y-73150324D01*
X152108678Y-73154000D01*
X146499711Y-73154000D01*
X146455774Y-73110063D01*
X146286256Y-72996795D01*
X146097898Y-72918774D01*
X145897939Y-72879000D01*
X145694061Y-72879000D01*
X145494102Y-72918774D01*
X145305744Y-72996795D01*
X145136226Y-73110063D01*
X144992063Y-73254226D01*
X144878795Y-73423744D01*
X144800774Y-73612102D01*
X144761000Y-73812061D01*
X144761000Y-74015939D01*
X144800774Y-74215898D01*
X144878795Y-74404256D01*
X144992063Y-74573774D01*
X145136226Y-74717937D01*
X145305744Y-74831205D01*
X145494102Y-74909226D01*
X145694061Y-74949000D01*
X145897939Y-74949000D01*
X146097898Y-74909226D01*
X146286256Y-74831205D01*
X146455774Y-74717937D01*
X146499711Y-74674000D01*
X151831199Y-74674000D01*
X159260001Y-82102803D01*
X159260000Y-108651198D01*
X157927199Y-109984000D01*
X157500181Y-109984000D01*
X157764543Y-109767043D01*
X158017284Y-109459078D01*
X158205087Y-109107722D01*
X158320736Y-108726479D01*
X158359786Y-108330000D01*
X158320736Y-107933521D01*
X158205087Y-107552278D01*
X158017284Y-107200922D01*
X157764543Y-106892957D01*
X157456578Y-106640216D01*
X157105222Y-106452413D01*
X156723979Y-106336764D01*
X156426858Y-106307500D01*
X155700000Y-106307500D01*
X155700000Y-97319325D01*
X155703676Y-97282000D01*
X155700000Y-97244675D01*
X155700000Y-97244667D01*
X155689003Y-97133014D01*
X155645546Y-96989753D01*
X155574974Y-96857724D01*
X155480001Y-96741999D01*
X155451003Y-96718201D01*
X153050604Y-94317803D01*
X153026801Y-94288799D01*
X152911076Y-94193826D01*
X152779047Y-94123254D01*
X152635786Y-94079797D01*
X152524133Y-94068800D01*
X152524122Y-94068800D01*
X152486800Y-94065124D01*
X152449478Y-94068800D01*
X141539801Y-94068800D01*
X144021004Y-91587598D01*
X144050001Y-91563801D01*
X144144974Y-91448076D01*
X144215546Y-91316047D01*
X144259003Y-91172786D01*
X144270000Y-91061133D01*
X144270000Y-91061132D01*
X144273677Y-91023800D01*
X144270000Y-90986467D01*
X144270000Y-78779937D01*
X144500000Y-78779937D01*
X144500000Y-79298987D01*
X144601261Y-79808063D01*
X144799893Y-80287603D01*
X145088262Y-80719177D01*
X145455285Y-81086200D01*
X145886859Y-81374569D01*
X146366399Y-81573201D01*
X146875475Y-81674462D01*
X147394525Y-81674462D01*
X147903601Y-81573201D01*
X148383141Y-81374569D01*
X148814715Y-81086200D01*
X149181738Y-80719177D01*
X149470107Y-80287603D01*
X149668739Y-79808063D01*
X149770000Y-79298987D01*
X149770000Y-78779937D01*
X149668739Y-78270861D01*
X149470107Y-77791321D01*
X149181738Y-77359747D01*
X148814715Y-76992724D01*
X148383141Y-76704355D01*
X147903601Y-76505723D01*
X147394525Y-76404462D01*
X146875475Y-76404462D01*
X146366399Y-76505723D01*
X145886859Y-76704355D01*
X145455285Y-76992724D01*
X145088262Y-77359747D01*
X144799893Y-77791321D01*
X144601261Y-78270861D01*
X144500000Y-78779937D01*
X144270000Y-78779937D01*
X144270000Y-75983322D01*
X144273676Y-75945999D01*
X144270000Y-75908676D01*
X144270000Y-75908667D01*
X144259003Y-75797014D01*
X144215546Y-75653753D01*
X144144974Y-75521724D01*
X144100719Y-75467799D01*
X144073799Y-75434996D01*
X144073795Y-75434992D01*
X144050001Y-75405999D01*
X144021008Y-75382205D01*
X141533804Y-72895003D01*
X141510001Y-72865999D01*
X141394276Y-72771026D01*
X141262247Y-72700454D01*
X141118986Y-72656997D01*
X141007333Y-72646000D01*
X141007322Y-72646000D01*
X140970000Y-72642324D01*
X140932678Y-72646000D01*
X136435323Y-72646000D01*
X136398000Y-72642324D01*
X136360677Y-72646000D01*
X136360667Y-72646000D01*
X136249014Y-72656997D01*
X136105753Y-72700454D01*
X135973723Y-72771026D01*
X135890083Y-72839668D01*
X135857999Y-72865999D01*
X135834201Y-72894997D01*
X134389003Y-74340196D01*
X134359999Y-74363999D01*
X134309936Y-74425002D01*
X134265026Y-74479724D01*
X134228011Y-74548974D01*
X134194454Y-74611754D01*
X134150997Y-74755015D01*
X134140000Y-74866668D01*
X134140000Y-74866678D01*
X134136324Y-74904000D01*
X134140000Y-74941323D01*
X134140000Y-75281418D01*
X133985241Y-75384825D01*
X133785363Y-75584703D01*
X133755000Y-75630145D01*
X133724637Y-75584703D01*
X133524759Y-75384825D01*
X133289727Y-75227782D01*
X133028574Y-75119609D01*
X132751335Y-75064462D01*
X132468665Y-75064462D01*
X132191426Y-75119609D01*
X131930273Y-75227782D01*
X131695241Y-75384825D01*
X131495363Y-75584703D01*
X131465000Y-75630145D01*
X131434637Y-75584703D01*
X131234759Y-75384825D01*
X130999727Y-75227782D01*
X130738574Y-75119609D01*
X130461335Y-75064462D01*
X130178665Y-75064462D01*
X129996114Y-75100774D01*
X128806342Y-73911003D01*
X128782539Y-73881999D01*
X128666814Y-73787026D01*
X128534785Y-73716454D01*
X128391524Y-73672997D01*
X128279871Y-73662000D01*
X128279860Y-73662000D01*
X128242538Y-73658324D01*
X128205216Y-73662000D01*
X112813325Y-73662000D01*
X112776000Y-73658324D01*
X112738675Y-73662000D01*
X112738667Y-73662000D01*
X112627014Y-73672997D01*
X112483753Y-73716454D01*
X112351724Y-73787026D01*
X112235999Y-73881999D01*
X112212201Y-73910997D01*
X108454998Y-77668201D01*
X108426000Y-77691999D01*
X108402202Y-77720997D01*
X108402201Y-77720998D01*
X108331026Y-77807724D01*
X108260454Y-77939754D01*
X108216998Y-78083015D01*
X108202324Y-78232000D01*
X108206001Y-78269333D01*
X108206000Y-136855218D01*
X108202324Y-136892540D01*
X108206000Y-136929862D01*
X108206000Y-136929872D01*
X108216997Y-137041525D01*
X108238406Y-137112102D01*
X108260454Y-137184786D01*
X108331026Y-137316816D01*
X108368556Y-137362546D01*
X108425999Y-137432541D01*
X108455003Y-137456344D01*
X125433661Y-154435003D01*
X125457459Y-154464001D01*
X125573184Y-154558974D01*
X125705213Y-154629546D01*
X125848474Y-154673003D01*
X125960127Y-154684000D01*
X125960135Y-154684000D01*
X125997460Y-154687676D01*
X126034785Y-154684000D01*
X136614678Y-154684000D01*
X136652000Y-154687676D01*
X136689322Y-154684000D01*
X136689333Y-154684000D01*
X136800986Y-154673003D01*
X136944247Y-154629546D01*
X137076276Y-154558974D01*
X137192001Y-154464001D01*
X137215804Y-154434997D01*
X137882735Y-153768066D01*
X154598938Y-153768066D01*
X154598938Y-154193010D01*
X154681840Y-154609788D01*
X154844459Y-155002385D01*
X155080545Y-155355712D01*
X155381026Y-155656193D01*
X155734353Y-155892279D01*
X156126950Y-156054898D01*
X156543728Y-156137800D01*
X156968672Y-156137800D01*
X157385450Y-156054898D01*
X157778047Y-155892279D01*
X158131374Y-155656193D01*
X158431855Y-155355712D01*
X158667941Y-155002385D01*
X158830560Y-154609788D01*
X158913462Y-154193010D01*
X158913462Y-153768066D01*
X158830560Y-153351288D01*
X158667941Y-152958691D01*
X158431855Y-152605364D01*
X158131374Y-152304883D01*
X157778047Y-152068797D01*
X157385450Y-151906178D01*
X156968672Y-151823276D01*
X156543728Y-151823276D01*
X156126950Y-151906178D01*
X155734353Y-152068797D01*
X155381026Y-152304883D01*
X155080545Y-152605364D01*
X154844459Y-152958691D01*
X154681840Y-153351288D01*
X154598938Y-153768066D01*
X137882735Y-153768066D01*
X138977802Y-152673000D01*
X139039939Y-152673000D01*
X139239898Y-152633226D01*
X139428256Y-152555205D01*
X139597774Y-152441937D01*
X139741937Y-152297774D01*
X139855205Y-152128256D01*
X139933226Y-151939898D01*
X139973000Y-151739939D01*
X139973000Y-151536061D01*
X139942356Y-151382000D01*
X140932678Y-151382000D01*
X140970000Y-151385676D01*
X141007322Y-151382000D01*
X141007333Y-151382000D01*
X141118986Y-151371003D01*
X141262247Y-151327546D01*
X141394276Y-151256974D01*
X141510001Y-151162001D01*
X141533804Y-151132997D01*
X144021008Y-148645795D01*
X144050001Y-148622001D01*
X144073795Y-148593008D01*
X144073799Y-148593004D01*
X144144973Y-148506277D01*
X144144974Y-148506276D01*
X144215546Y-148374247D01*
X144259003Y-148230986D01*
X144270000Y-148119333D01*
X144270000Y-148119324D01*
X144273676Y-148082001D01*
X144270000Y-148044678D01*
X144270000Y-146331013D01*
X144470000Y-146331013D01*
X144470000Y-146850063D01*
X144571261Y-147359139D01*
X144769893Y-147838679D01*
X145058262Y-148270253D01*
X145425285Y-148637276D01*
X145856859Y-148925645D01*
X146336399Y-149124277D01*
X146845475Y-149225538D01*
X147364525Y-149225538D01*
X147873601Y-149124277D01*
X148353141Y-148925645D01*
X148784715Y-148637276D01*
X149151738Y-148270253D01*
X149440107Y-147838679D01*
X149638739Y-147359139D01*
X149740000Y-146850063D01*
X149740000Y-146331013D01*
X149638739Y-145821937D01*
X149440107Y-145342397D01*
X149151738Y-144910823D01*
X148784715Y-144543800D01*
X148353141Y-144255431D01*
X147873601Y-144056799D01*
X147364525Y-143955538D01*
X146845475Y-143955538D01*
X146336399Y-144056799D01*
X145856859Y-144255431D01*
X145425285Y-144543800D01*
X145058262Y-144910823D01*
X144769893Y-145342397D01*
X144571261Y-145821937D01*
X144470000Y-146331013D01*
X144270000Y-146331013D01*
X144270000Y-140499333D01*
X144273677Y-140462000D01*
X144259003Y-140313014D01*
X144215546Y-140169753D01*
X144144974Y-140037724D01*
X144073799Y-139950997D01*
X144050001Y-139921999D01*
X144021004Y-139898202D01*
X140465000Y-136342199D01*
X140465000Y-132508795D01*
X140534014Y-132471906D01*
X140760134Y-132286334D01*
X140945706Y-132060214D01*
X140982595Y-131991200D01*
X147877478Y-131991200D01*
X147914800Y-131994876D01*
X147952122Y-131991200D01*
X147952133Y-131991200D01*
X148063786Y-131980203D01*
X148207047Y-131936746D01*
X148339076Y-131866174D01*
X148454801Y-131771201D01*
X148478604Y-131742198D01*
X150625008Y-129595795D01*
X150654001Y-129572001D01*
X150677795Y-129543008D01*
X150677799Y-129543004D01*
X150748973Y-129456277D01*
X150751686Y-129451202D01*
X150819546Y-129324247D01*
X150863003Y-129180986D01*
X150874000Y-129069333D01*
X150874000Y-129069324D01*
X150877676Y-129032001D01*
X150874000Y-128994678D01*
X150874000Y-117730000D01*
X151520214Y-117730000D01*
X151559264Y-118126479D01*
X151674913Y-118507722D01*
X151862716Y-118859078D01*
X152115457Y-119167043D01*
X152423422Y-119419784D01*
X152774778Y-119607587D01*
X153156021Y-119723236D01*
X153453142Y-119752500D01*
X156426858Y-119752500D01*
X156723979Y-119723236D01*
X157105222Y-119607587D01*
X157456578Y-119419784D01*
X157764543Y-119167043D01*
X158017284Y-118859078D01*
X158205087Y-118507722D01*
X158320736Y-118126479D01*
X158359786Y-117730000D01*
X158320736Y-117333521D01*
X158205087Y-116952278D01*
X158017284Y-116600922D01*
X157764543Y-116292957D01*
X157456578Y-116040216D01*
X157105222Y-115852413D01*
X156723979Y-115736764D01*
X156426858Y-115707500D01*
X153453142Y-115707500D01*
X153156021Y-115736764D01*
X152774778Y-115852413D01*
X152423422Y-116040216D01*
X152115457Y-116292957D01*
X151862716Y-116600922D01*
X151674913Y-116952278D01*
X151559264Y-117333521D01*
X151520214Y-117730000D01*
X150874000Y-117730000D01*
X150874000Y-117021565D01*
X152827632Y-114923620D01*
X153156021Y-115023236D01*
X153453142Y-115052500D01*
X156426858Y-115052500D01*
X156723979Y-115023236D01*
X157105222Y-114907587D01*
X157456578Y-114719784D01*
X157764543Y-114467043D01*
X158017284Y-114159078D01*
X158205087Y-113807722D01*
X158320736Y-113426479D01*
X158359786Y-113030000D01*
X158320736Y-112633521D01*
X158205087Y-112252278D01*
X158017284Y-111900922D01*
X157764543Y-111592957D01*
X157656149Y-111504000D01*
X158204678Y-111504000D01*
X158242000Y-111507676D01*
X158279322Y-111504000D01*
X158279333Y-111504000D01*
X158390986Y-111493003D01*
X158534247Y-111449546D01*
X158666276Y-111378974D01*
X158782001Y-111284001D01*
X158805804Y-111254997D01*
X160531004Y-109529798D01*
X160560001Y-109506001D01*
X160608500Y-109446904D01*
X160608501Y-157832838D01*
X94911500Y-157832838D01*
X94911500Y-153768066D01*
X96606538Y-153768066D01*
X96606538Y-154193010D01*
X96689440Y-154609788D01*
X96852059Y-155002385D01*
X97088145Y-155355712D01*
X97388626Y-155656193D01*
X97741953Y-155892279D01*
X98134550Y-156054898D01*
X98551328Y-156137800D01*
X98976272Y-156137800D01*
X99393050Y-156054898D01*
X99785647Y-155892279D01*
X100138974Y-155656193D01*
X100439455Y-155355712D01*
X100675541Y-155002385D01*
X100838160Y-154609788D01*
X100921062Y-154193010D01*
X100921062Y-153768066D01*
X100838160Y-153351288D01*
X100675541Y-152958691D01*
X100439455Y-152605364D01*
X100138974Y-152304883D01*
X99785647Y-152068797D01*
X99393050Y-151906178D01*
X98976272Y-151823276D01*
X98551328Y-151823276D01*
X98134550Y-151906178D01*
X97741953Y-152068797D01*
X97388626Y-152304883D01*
X97088145Y-152605364D01*
X96852059Y-152958691D01*
X96689440Y-153351288D01*
X96606538Y-153768066D01*
X94911500Y-153768066D01*
X94911500Y-121126030D01*
X94963999Y-121190001D01*
X94993003Y-121213804D01*
X98545001Y-124765803D01*
X98545000Y-129743128D01*
X98455000Y-129743128D01*
X98330518Y-129755388D01*
X98210820Y-129791698D01*
X98100506Y-129850663D01*
X98003815Y-129930015D01*
X97924463Y-130026706D01*
X97865498Y-130137020D01*
X97829188Y-130256718D01*
X97816928Y-130381200D01*
X97816928Y-132081200D01*
X97829188Y-132205682D01*
X97865498Y-132325380D01*
X97924463Y-132435694D01*
X98003815Y-132532385D01*
X98100506Y-132611737D01*
X98210820Y-132670702D01*
X98330518Y-132707012D01*
X98455000Y-132719272D01*
X100155000Y-132719272D01*
X100279482Y-132707012D01*
X100399180Y-132670702D01*
X100509494Y-132611737D01*
X100606185Y-132532385D01*
X100685537Y-132435694D01*
X100744502Y-132325380D01*
X100768966Y-132244734D01*
X100844731Y-132328788D01*
X101078080Y-132502841D01*
X101340901Y-132628025D01*
X101488110Y-132672676D01*
X101718000Y-132551355D01*
X101718000Y-131358200D01*
X101972000Y-131358200D01*
X101972000Y-132551355D01*
X102201890Y-132672676D01*
X102349099Y-132628025D01*
X102611920Y-132502841D01*
X102845269Y-132328788D01*
X103040178Y-132112555D01*
X103189157Y-131862452D01*
X103286481Y-131588091D01*
X103165814Y-131358200D01*
X101972000Y-131358200D01*
X101718000Y-131358200D01*
X101698000Y-131358200D01*
X101698000Y-131104200D01*
X101718000Y-131104200D01*
X101718000Y-129911045D01*
X101972000Y-129911045D01*
X101972000Y-131104200D01*
X103165814Y-131104200D01*
X103286481Y-130874309D01*
X103189157Y-130599948D01*
X103040178Y-130349845D01*
X102845269Y-130133612D01*
X102611920Y-129959559D01*
X102349099Y-129834375D01*
X102201890Y-129789724D01*
X101972000Y-129911045D01*
X101718000Y-129911045D01*
X101488110Y-129789724D01*
X101340901Y-129834375D01*
X101078080Y-129959559D01*
X100844731Y-130133612D01*
X100768966Y-130217666D01*
X100744502Y-130137020D01*
X100685537Y-130026706D01*
X100606185Y-129930015D01*
X100509494Y-129850663D01*
X100399180Y-129791698D01*
X100279482Y-129755388D01*
X100155000Y-129743128D01*
X100065000Y-129743128D01*
X100065000Y-124488325D01*
X100068676Y-124451000D01*
X100065000Y-124413675D01*
X100065000Y-124413667D01*
X100054003Y-124302014D01*
X100010546Y-124158753D01*
X99939974Y-124026724D01*
X99845001Y-123910999D01*
X99816003Y-123887201D01*
X96264000Y-120335199D01*
X96264000Y-117730000D01*
X97160214Y-117730000D01*
X97199264Y-118126479D01*
X97314913Y-118507722D01*
X97502716Y-118859078D01*
X97755457Y-119167043D01*
X98063422Y-119419784D01*
X98414778Y-119607587D01*
X98796021Y-119723236D01*
X99093142Y-119752500D01*
X102066858Y-119752500D01*
X102363979Y-119723236D01*
X102745222Y-119607587D01*
X103096578Y-119419784D01*
X103404543Y-119167043D01*
X103657284Y-118859078D01*
X103845087Y-118507722D01*
X103960736Y-118126479D01*
X103999786Y-117730000D01*
X103960736Y-117333521D01*
X103845087Y-116952278D01*
X103657284Y-116600922D01*
X103404543Y-116292957D01*
X103096578Y-116040216D01*
X102745222Y-115852413D01*
X102363979Y-115736764D01*
X102066858Y-115707500D01*
X99093142Y-115707500D01*
X98796021Y-115736764D01*
X98414778Y-115852413D01*
X98063422Y-116040216D01*
X97755457Y-116292957D01*
X97502716Y-116600922D01*
X97314913Y-116952278D01*
X97199264Y-117333521D01*
X97160214Y-117730000D01*
X96264000Y-117730000D01*
X96264000Y-117033301D01*
X98398445Y-114898857D01*
X98414778Y-114907587D01*
X98796021Y-115023236D01*
X99093142Y-115052500D01*
X102066858Y-115052500D01*
X102363979Y-115023236D01*
X102745222Y-114907587D01*
X103096578Y-114719784D01*
X103404543Y-114467043D01*
X103657284Y-114159078D01*
X103845087Y-113807722D01*
X103960736Y-113426479D01*
X103999786Y-113030000D01*
X103960736Y-112633521D01*
X103845087Y-112252278D01*
X103657284Y-111900922D01*
X103404543Y-111592957D01*
X103096578Y-111340216D01*
X102745222Y-111152413D01*
X102363979Y-111036764D01*
X102066858Y-111007500D01*
X99093142Y-111007500D01*
X98796021Y-111036764D01*
X98414778Y-111152413D01*
X98063422Y-111340216D01*
X97755457Y-111592957D01*
X97502716Y-111900922D01*
X97314913Y-112252278D01*
X97199264Y-112633521D01*
X97160214Y-113030000D01*
X97199264Y-113426479D01*
X97314913Y-113807722D01*
X97323643Y-113824055D01*
X94992998Y-116154701D01*
X94964000Y-116178499D01*
X94940202Y-116207497D01*
X94940201Y-116207498D01*
X94911500Y-116242470D01*
X94911500Y-108330000D01*
X97160214Y-108330000D01*
X97199264Y-108726479D01*
X97314913Y-109107722D01*
X97502716Y-109459078D01*
X97755457Y-109767043D01*
X98063422Y-110019784D01*
X98414778Y-110207587D01*
X98796021Y-110323236D01*
X99093142Y-110352500D01*
X102066858Y-110352500D01*
X102363979Y-110323236D01*
X102745222Y-110207587D01*
X103096578Y-110019784D01*
X103404543Y-109767043D01*
X103657284Y-109459078D01*
X103845087Y-109107722D01*
X103960736Y-108726479D01*
X103999786Y-108330000D01*
X103960736Y-107933521D01*
X103845087Y-107552278D01*
X103657284Y-107200922D01*
X103404543Y-106892957D01*
X103096578Y-106640216D01*
X102745222Y-106452413D01*
X102363979Y-106336764D01*
X102066858Y-106307500D01*
X99093142Y-106307500D01*
X98796021Y-106336764D01*
X98414778Y-106452413D01*
X98063422Y-106640216D01*
X97755457Y-106892957D01*
X97502716Y-107200922D01*
X97314913Y-107552278D01*
X97199264Y-107933521D01*
X97160214Y-108330000D01*
X94911500Y-108330000D01*
X94911500Y-71496990D01*
X96606538Y-71496990D01*
X96606538Y-71921934D01*
X96689440Y-72338712D01*
X96852059Y-72731309D01*
X97088145Y-73084636D01*
X97388626Y-73385117D01*
X97741953Y-73621203D01*
X98134550Y-73783822D01*
X98551328Y-73866724D01*
X98976272Y-73866724D01*
X99393050Y-73783822D01*
X99785647Y-73621203D01*
X100138974Y-73385117D01*
X100439455Y-73084636D01*
X100675541Y-72731309D01*
X100838160Y-72338712D01*
X100921062Y-71921934D01*
X100921062Y-71496990D01*
X154598938Y-71496990D01*
X154598938Y-71921934D01*
X154681840Y-72338712D01*
X154844459Y-72731309D01*
X155080545Y-73084636D01*
X155381026Y-73385117D01*
X155734353Y-73621203D01*
X156126950Y-73783822D01*
X156543728Y-73866724D01*
X156968672Y-73866724D01*
X157385450Y-73783822D01*
X157778047Y-73621203D01*
X158131374Y-73385117D01*
X158431855Y-73084636D01*
X158667941Y-72731309D01*
X158830560Y-72338712D01*
X158913462Y-71921934D01*
X158913462Y-71496990D01*
X158830560Y-71080212D01*
X158667941Y-70687615D01*
X158431855Y-70334288D01*
X158131374Y-70033807D01*
X157778047Y-69797721D01*
X157385450Y-69635102D01*
X156968672Y-69552200D01*
X156543728Y-69552200D01*
X156126950Y-69635102D01*
X155734353Y-69797721D01*
X155381026Y-70033807D01*
X155080545Y-70334288D01*
X154844459Y-70687615D01*
X154681840Y-71080212D01*
X154598938Y-71496990D01*
X100921062Y-71496990D01*
X100838160Y-71080212D01*
X100675541Y-70687615D01*
X100439455Y-70334288D01*
X100138974Y-70033807D01*
X99785647Y-69797721D01*
X99393050Y-69635102D01*
X98976272Y-69552200D01*
X98551328Y-69552200D01*
X98134550Y-69635102D01*
X97741953Y-69797721D01*
X97388626Y-70033807D01*
X97088145Y-70334288D01*
X96852059Y-70687615D01*
X96689440Y-71080212D01*
X96606538Y-71496990D01*
X94911500Y-71496990D01*
X94911500Y-67857162D01*
X160608500Y-67857162D01*
X160608500Y-81307095D01*
G36*
X138464294Y-132060214D02*
G01*
X138649866Y-132286334D01*
X138875986Y-132471906D01*
X138945000Y-132508795D01*
X138945001Y-136619668D01*
X138941324Y-136657000D01*
X138955998Y-136805985D01*
X138999454Y-136949246D01*
X139070026Y-137081276D01*
X139095325Y-137112102D01*
X139165000Y-137197001D01*
X139193998Y-137220799D01*
X142750000Y-140776802D01*
X142750001Y-147767196D01*
X140655199Y-149862000D01*
X140157112Y-149862000D01*
X140191680Y-149810265D01*
X140299853Y-149549112D01*
X140355000Y-149271873D01*
X140355000Y-148989203D01*
X140299853Y-148711964D01*
X140243047Y-148574822D01*
X140415130Y-148549325D01*
X140681292Y-148454141D01*
X140806514Y-148387209D01*
X140878097Y-148143240D01*
X140065000Y-147330143D01*
X140050858Y-147344286D01*
X139871253Y-147164681D01*
X139885395Y-147150538D01*
X140244605Y-147150538D01*
X141057702Y-147963635D01*
X141301671Y-147892052D01*
X141422571Y-147636542D01*
X141491300Y-147362354D01*
X141505217Y-147080026D01*
X141463787Y-146800408D01*
X141368603Y-146534246D01*
X141301671Y-146409024D01*
X141057702Y-146337441D01*
X140244605Y-147150538D01*
X139885395Y-147150538D01*
X139871253Y-147136396D01*
X140050858Y-146956791D01*
X140065000Y-146970933D01*
X140878097Y-146157836D01*
X140806514Y-145913867D01*
X140551004Y-145792967D01*
X140358072Y-145744606D01*
X140358072Y-144370538D01*
X140345812Y-144246056D01*
X140309502Y-144126358D01*
X140250537Y-144016044D01*
X140171185Y-143919353D01*
X140074494Y-143840001D01*
X139964180Y-143781036D01*
X139844482Y-143744726D01*
X139720000Y-143732466D01*
X138120000Y-143732466D01*
X137995518Y-143744726D01*
X137875820Y-143781036D01*
X137765506Y-143840001D01*
X137668815Y-143919353D01*
X137589463Y-144016044D01*
X137560008Y-144071150D01*
X137544759Y-144055901D01*
X137309727Y-143898858D01*
X137048574Y-143790685D01*
X136771335Y-143735538D01*
X136488665Y-143735538D01*
X136211426Y-143790685D01*
X135950273Y-143898858D01*
X135715241Y-144055901D01*
X135515363Y-144255779D01*
X135485000Y-144301221D01*
X135454637Y-144255779D01*
X135254759Y-144055901D01*
X135019727Y-143898858D01*
X134758574Y-143790685D01*
X134481335Y-143735538D01*
X134198665Y-143735538D01*
X134016114Y-143771850D01*
X133693462Y-143449199D01*
X133693462Y-138436548D01*
X133756061Y-138449000D01*
X133959939Y-138449000D01*
X134159898Y-138409226D01*
X134348256Y-138331205D01*
X134517774Y-138217937D01*
X134661937Y-138073774D01*
X134775205Y-137904256D01*
X134853226Y-137715898D01*
X134893000Y-137515939D01*
X134893000Y-137312061D01*
X134853226Y-137112102D01*
X134775205Y-136923744D01*
X134661937Y-136754226D01*
X134618000Y-136710289D01*
X134618000Y-134853001D01*
X136799005Y-132671997D01*
X136873889Y-132694713D01*
X137092050Y-132716200D01*
X137237950Y-132716200D01*
X137456111Y-132694713D01*
X137736034Y-132609799D01*
X137994014Y-132471906D01*
X138220134Y-132286334D01*
X138405706Y-132060214D01*
X138435000Y-132005409D01*
X138464294Y-132060214D01*
X138464294Y-132060214D01*
G37*
X138464294Y-132060214D02*
X138649866Y-132286334D01*
X138875986Y-132471906D01*
X138945000Y-132508795D01*
X138945001Y-136619668D01*
X138941324Y-136657000D01*
X138955998Y-136805985D01*
X138999454Y-136949246D01*
X139070026Y-137081276D01*
X139095325Y-137112102D01*
X139165000Y-137197001D01*
X139193998Y-137220799D01*
X142750000Y-140776802D01*
X142750001Y-147767196D01*
X140655199Y-149862000D01*
X140157112Y-149862000D01*
X140191680Y-149810265D01*
X140299853Y-149549112D01*
X140355000Y-149271873D01*
X140355000Y-148989203D01*
X140299853Y-148711964D01*
X140243047Y-148574822D01*
X140415130Y-148549325D01*
X140681292Y-148454141D01*
X140806514Y-148387209D01*
X140878097Y-148143240D01*
X140065000Y-147330143D01*
X140050858Y-147344286D01*
X139871253Y-147164681D01*
X139885395Y-147150538D01*
X140244605Y-147150538D01*
X141057702Y-147963635D01*
X141301671Y-147892052D01*
X141422571Y-147636542D01*
X141491300Y-147362354D01*
X141505217Y-147080026D01*
X141463787Y-146800408D01*
X141368603Y-146534246D01*
X141301671Y-146409024D01*
X141057702Y-146337441D01*
X140244605Y-147150538D01*
X139885395Y-147150538D01*
X139871253Y-147136396D01*
X140050858Y-146956791D01*
X140065000Y-146970933D01*
X140878097Y-146157836D01*
X140806514Y-145913867D01*
X140551004Y-145792967D01*
X140358072Y-145744606D01*
X140358072Y-144370538D01*
X140345812Y-144246056D01*
X140309502Y-144126358D01*
X140250537Y-144016044D01*
X140171185Y-143919353D01*
X140074494Y-143840001D01*
X139964180Y-143781036D01*
X139844482Y-143744726D01*
X139720000Y-143732466D01*
X138120000Y-143732466D01*
X137995518Y-143744726D01*
X137875820Y-143781036D01*
X137765506Y-143840001D01*
X137668815Y-143919353D01*
X137589463Y-144016044D01*
X137560008Y-144071150D01*
X137544759Y-144055901D01*
X137309727Y-143898858D01*
X137048574Y-143790685D01*
X136771335Y-143735538D01*
X136488665Y-143735538D01*
X136211426Y-143790685D01*
X135950273Y-143898858D01*
X135715241Y-144055901D01*
X135515363Y-144255779D01*
X135485000Y-144301221D01*
X135454637Y-144255779D01*
X135254759Y-144055901D01*
X135019727Y-143898858D01*
X134758574Y-143790685D01*
X134481335Y-143735538D01*
X134198665Y-143735538D01*
X134016114Y-143771850D01*
X133693462Y-143449199D01*
X133693462Y-138436548D01*
X133756061Y-138449000D01*
X133959939Y-138449000D01*
X134159898Y-138409226D01*
X134348256Y-138331205D01*
X134517774Y-138217937D01*
X134661937Y-138073774D01*
X134775205Y-137904256D01*
X134853226Y-137715898D01*
X134893000Y-137515939D01*
X134893000Y-137312061D01*
X134853226Y-137112102D01*
X134775205Y-136923744D01*
X134661937Y-136754226D01*
X134618000Y-136710289D01*
X134618000Y-134853001D01*
X136799005Y-132671997D01*
X136873889Y-132694713D01*
X137092050Y-132716200D01*
X137237950Y-132716200D01*
X137456111Y-132694713D01*
X137736034Y-132609799D01*
X137994014Y-132471906D01*
X138220134Y-132286334D01*
X138405706Y-132060214D01*
X138435000Y-132005409D01*
X138464294Y-132060214D01*
G36*
X110880214Y-113030000D02*
G01*
X110919264Y-113426479D01*
X111034913Y-113807722D01*
X111222716Y-114159078D01*
X111475457Y-114467043D01*
X111783422Y-114719784D01*
X112134778Y-114907587D01*
X112516021Y-115023236D01*
X112813142Y-115052500D01*
X115786858Y-115052500D01*
X116083979Y-115023236D01*
X116465222Y-114907587D01*
X116481555Y-114898857D01*
X118620000Y-117037302D01*
X118620001Y-128994668D01*
X118616324Y-129032000D01*
X118620001Y-129069333D01*
X118630998Y-129180986D01*
X118637844Y-129203553D01*
X118674454Y-129324246D01*
X118745026Y-129456276D01*
X118816201Y-129543002D01*
X118840000Y-129572001D01*
X118868998Y-129595799D01*
X121015405Y-131742208D01*
X121039199Y-131771201D01*
X121068192Y-131794995D01*
X121068196Y-131794999D01*
X121138885Y-131853011D01*
X121154924Y-131866174D01*
X121286953Y-131936746D01*
X121430214Y-131980203D01*
X121541867Y-131991200D01*
X121541876Y-131991200D01*
X121579199Y-131994876D01*
X121616522Y-131991200D01*
X128056928Y-131991200D01*
X128056928Y-132081200D01*
X128069188Y-132205682D01*
X128105498Y-132325380D01*
X128164463Y-132435694D01*
X128243815Y-132532385D01*
X128340506Y-132611737D01*
X128450820Y-132670702D01*
X128570518Y-132707012D01*
X128695000Y-132719272D01*
X130395000Y-132719272D01*
X130519482Y-132707012D01*
X130639180Y-132670702D01*
X130749494Y-132611737D01*
X130846185Y-132532385D01*
X130925537Y-132435694D01*
X130984502Y-132325380D01*
X131005393Y-132256513D01*
X131029866Y-132286334D01*
X131255986Y-132471906D01*
X131513966Y-132609799D01*
X131793889Y-132694713D01*
X132012050Y-132716200D01*
X132157950Y-132716200D01*
X132203272Y-132711736D01*
X132184460Y-132773753D01*
X132169786Y-132922738D01*
X132173463Y-132960070D01*
X132173462Y-143726678D01*
X132172589Y-143735538D01*
X131908665Y-143735538D01*
X131631426Y-143790685D01*
X131370273Y-143898858D01*
X131135241Y-144055901D01*
X130935363Y-144255779D01*
X130848628Y-144385587D01*
X130752702Y-144357441D01*
X129939605Y-145170538D01*
X129953748Y-145184681D01*
X129774143Y-145364286D01*
X129760000Y-145350143D01*
X128946903Y-146163240D01*
X129018486Y-146407209D01*
X129273996Y-146528109D01*
X129548184Y-146596838D01*
X129578748Y-146598345D01*
X129547429Y-146664534D01*
X129478700Y-146938722D01*
X129464783Y-147221050D01*
X129506213Y-147500668D01*
X129578742Y-147703479D01*
X129436114Y-147731850D01*
X126945314Y-145241050D01*
X128319783Y-145241050D01*
X128361213Y-145520668D01*
X128456397Y-145786830D01*
X128523329Y-145912052D01*
X128767298Y-145983635D01*
X129580395Y-145170538D01*
X128767298Y-144357441D01*
X128523329Y-144429024D01*
X128402429Y-144684534D01*
X128333700Y-144958722D01*
X128319783Y-145241050D01*
X126945314Y-145241050D01*
X125882100Y-144177836D01*
X128946903Y-144177836D01*
X129760000Y-144990933D01*
X130573097Y-144177836D01*
X130501514Y-143933867D01*
X130246004Y-143812967D01*
X129971816Y-143744238D01*
X129689488Y-143730321D01*
X129409870Y-143771751D01*
X129143708Y-143866935D01*
X129018486Y-143933867D01*
X128946903Y-144177836D01*
X125882100Y-144177836D01*
X124355535Y-142651272D01*
X124355530Y-142651266D01*
X110742000Y-129037737D01*
X110742000Y-117730000D01*
X110880214Y-117730000D01*
X110919264Y-118126479D01*
X111034913Y-118507722D01*
X111222716Y-118859078D01*
X111475457Y-119167043D01*
X111783422Y-119419784D01*
X112134778Y-119607587D01*
X112516021Y-119723236D01*
X112813142Y-119752500D01*
X115786858Y-119752500D01*
X116083979Y-119723236D01*
X116465222Y-119607587D01*
X116816578Y-119419784D01*
X117124543Y-119167043D01*
X117377284Y-118859078D01*
X117565087Y-118507722D01*
X117680736Y-118126479D01*
X117719786Y-117730000D01*
X117680736Y-117333521D01*
X117565087Y-116952278D01*
X117377284Y-116600922D01*
X117124543Y-116292957D01*
X116816578Y-116040216D01*
X116465222Y-115852413D01*
X116083979Y-115736764D01*
X115786858Y-115707500D01*
X112813142Y-115707500D01*
X112516021Y-115736764D01*
X112134778Y-115852413D01*
X111783422Y-116040216D01*
X111475457Y-116292957D01*
X111222716Y-116600922D01*
X111034913Y-116952278D01*
X110919264Y-117333521D01*
X110880214Y-117730000D01*
X110742000Y-117730000D01*
X110742000Y-112836801D01*
X110916422Y-112662380D01*
X110880214Y-113030000D01*
X110880214Y-113030000D01*
G37*
X110880214Y-113030000D02*
X110919264Y-113426479D01*
X111034913Y-113807722D01*
X111222716Y-114159078D01*
X111475457Y-114467043D01*
X111783422Y-114719784D01*
X112134778Y-114907587D01*
X112516021Y-115023236D01*
X112813142Y-115052500D01*
X115786858Y-115052500D01*
X116083979Y-115023236D01*
X116465222Y-114907587D01*
X116481555Y-114898857D01*
X118620000Y-117037302D01*
X118620001Y-128994668D01*
X118616324Y-129032000D01*
X118620001Y-129069333D01*
X118630998Y-129180986D01*
X118637844Y-129203553D01*
X118674454Y-129324246D01*
X118745026Y-129456276D01*
X118816201Y-129543002D01*
X118840000Y-129572001D01*
X118868998Y-129595799D01*
X121015405Y-131742208D01*
X121039199Y-131771201D01*
X121068192Y-131794995D01*
X121068196Y-131794999D01*
X121138885Y-131853011D01*
X121154924Y-131866174D01*
X121286953Y-131936746D01*
X121430214Y-131980203D01*
X121541867Y-131991200D01*
X121541876Y-131991200D01*
X121579199Y-131994876D01*
X121616522Y-131991200D01*
X128056928Y-131991200D01*
X128056928Y-132081200D01*
X128069188Y-132205682D01*
X128105498Y-132325380D01*
X128164463Y-132435694D01*
X128243815Y-132532385D01*
X128340506Y-132611737D01*
X128450820Y-132670702D01*
X128570518Y-132707012D01*
X128695000Y-132719272D01*
X130395000Y-132719272D01*
X130519482Y-132707012D01*
X130639180Y-132670702D01*
X130749494Y-132611737D01*
X130846185Y-132532385D01*
X130925537Y-132435694D01*
X130984502Y-132325380D01*
X131005393Y-132256513D01*
X131029866Y-132286334D01*
X131255986Y-132471906D01*
X131513966Y-132609799D01*
X131793889Y-132694713D01*
X132012050Y-132716200D01*
X132157950Y-132716200D01*
X132203272Y-132711736D01*
X132184460Y-132773753D01*
X132169786Y-132922738D01*
X132173463Y-132960070D01*
X132173462Y-143726678D01*
X132172589Y-143735538D01*
X131908665Y-143735538D01*
X131631426Y-143790685D01*
X131370273Y-143898858D01*
X131135241Y-144055901D01*
X130935363Y-144255779D01*
X130848628Y-144385587D01*
X130752702Y-144357441D01*
X129939605Y-145170538D01*
X129953748Y-145184681D01*
X129774143Y-145364286D01*
X129760000Y-145350143D01*
X128946903Y-146163240D01*
X129018486Y-146407209D01*
X129273996Y-146528109D01*
X129548184Y-146596838D01*
X129578748Y-146598345D01*
X129547429Y-146664534D01*
X129478700Y-146938722D01*
X129464783Y-147221050D01*
X129506213Y-147500668D01*
X129578742Y-147703479D01*
X129436114Y-147731850D01*
X126945314Y-145241050D01*
X128319783Y-145241050D01*
X128361213Y-145520668D01*
X128456397Y-145786830D01*
X128523329Y-145912052D01*
X128767298Y-145983635D01*
X129580395Y-145170538D01*
X128767298Y-144357441D01*
X128523329Y-144429024D01*
X128402429Y-144684534D01*
X128333700Y-144958722D01*
X128319783Y-145241050D01*
X126945314Y-145241050D01*
X125882100Y-144177836D01*
X128946903Y-144177836D01*
X129760000Y-144990933D01*
X130573097Y-144177836D01*
X130501514Y-143933867D01*
X130246004Y-143812967D01*
X129971816Y-143744238D01*
X129689488Y-143730321D01*
X129409870Y-143771751D01*
X129143708Y-143866935D01*
X129018486Y-143933867D01*
X128946903Y-144177836D01*
X125882100Y-144177836D01*
X124355535Y-142651272D01*
X124355530Y-142651266D01*
X110742000Y-129037737D01*
X110742000Y-117730000D01*
X110880214Y-117730000D01*
X110919264Y-118126479D01*
X111034913Y-118507722D01*
X111222716Y-118859078D01*
X111475457Y-119167043D01*
X111783422Y-119419784D01*
X112134778Y-119607587D01*
X112516021Y-119723236D01*
X112813142Y-119752500D01*
X115786858Y-119752500D01*
X116083979Y-119723236D01*
X116465222Y-119607587D01*
X116816578Y-119419784D01*
X117124543Y-119167043D01*
X117377284Y-118859078D01*
X117565087Y-118507722D01*
X117680736Y-118126479D01*
X117719786Y-117730000D01*
X117680736Y-117333521D01*
X117565087Y-116952278D01*
X117377284Y-116600922D01*
X117124543Y-116292957D01*
X116816578Y-116040216D01*
X116465222Y-115852413D01*
X116083979Y-115736764D01*
X115786858Y-115707500D01*
X112813142Y-115707500D01*
X112516021Y-115736764D01*
X112134778Y-115852413D01*
X111783422Y-116040216D01*
X111475457Y-116292957D01*
X111222716Y-116600922D01*
X111034913Y-116952278D01*
X110919264Y-117333521D01*
X110880214Y-117730000D01*
X110742000Y-117730000D01*
X110742000Y-112836801D01*
X110916422Y-112662380D01*
X110880214Y-113030000D01*
G36*
X137968748Y-147136396D02*
G01*
X137954605Y-147150538D01*
X137968748Y-147164681D01*
X137789143Y-147344286D01*
X137775000Y-147330143D01*
X137760858Y-147344286D01*
X137581253Y-147164681D01*
X137595395Y-147150538D01*
X137581253Y-147136396D01*
X137760858Y-146956791D01*
X137775000Y-146970933D01*
X137789143Y-146956791D01*
X137968748Y-147136396D01*
X137968748Y-147136396D01*
G37*
X137968748Y-147136396D02*
X137954605Y-147150538D01*
X137968748Y-147164681D01*
X137789143Y-147344286D01*
X137775000Y-147330143D01*
X137760858Y-147344286D01*
X137581253Y-147164681D01*
X137595395Y-147150538D01*
X137581253Y-147136396D01*
X137760858Y-146956791D01*
X137775000Y-146970933D01*
X137789143Y-146956791D01*
X137968748Y-147136396D01*
G36*
X131098748Y-147136396D02*
G01*
X131084605Y-147150538D01*
X131098748Y-147164681D01*
X130919143Y-147344286D01*
X130905000Y-147330143D01*
X130890858Y-147344286D01*
X130711253Y-147164681D01*
X130725395Y-147150538D01*
X130711253Y-147136396D01*
X130890858Y-146956791D01*
X130905000Y-146970933D01*
X130919143Y-146956791D01*
X131098748Y-147136396D01*
X131098748Y-147136396D01*
G37*
X131098748Y-147136396D02*
X131084605Y-147150538D01*
X131098748Y-147164681D01*
X130919143Y-147344286D01*
X130905000Y-147330143D01*
X130890858Y-147344286D01*
X130711253Y-147164681D01*
X130725395Y-147150538D01*
X130711253Y-147136396D01*
X130890858Y-146956791D01*
X130905000Y-146970933D01*
X130919143Y-146956791D01*
X131098748Y-147136396D01*
G36*
X135678748Y-147136396D02*
G01*
X135664605Y-147150538D01*
X135678748Y-147164681D01*
X135499143Y-147344286D01*
X135485000Y-147330143D01*
X135470858Y-147344286D01*
X135291253Y-147164681D01*
X135305395Y-147150538D01*
X135291253Y-147136396D01*
X135470858Y-146956791D01*
X135485000Y-146970933D01*
X135499143Y-146956791D01*
X135678748Y-147136396D01*
X135678748Y-147136396D01*
G37*
X135678748Y-147136396D02*
X135664605Y-147150538D01*
X135678748Y-147164681D01*
X135499143Y-147344286D01*
X135485000Y-147330143D01*
X135470858Y-147344286D01*
X135291253Y-147164681D01*
X135305395Y-147150538D01*
X135291253Y-147136396D01*
X135470858Y-146956791D01*
X135485000Y-146970933D01*
X135499143Y-146956791D01*
X135678748Y-147136396D01*
G36*
X128921312Y-76175576D02*
G01*
X128885000Y-76358127D01*
X128885000Y-76640797D01*
X128940147Y-76918036D01*
X128996953Y-77055178D01*
X128824870Y-77080675D01*
X128558708Y-77175859D01*
X128433486Y-77242791D01*
X128361903Y-77486760D01*
X129175000Y-78299857D01*
X129189143Y-78285715D01*
X129368748Y-78465320D01*
X129354605Y-78479462D01*
X129368748Y-78493605D01*
X129189143Y-78673210D01*
X129175000Y-78659067D01*
X128361903Y-79472164D01*
X128433486Y-79716133D01*
X128688996Y-79837033D01*
X128881928Y-79885394D01*
X128881928Y-80862753D01*
X128839454Y-80942216D01*
X128795998Y-81085477D01*
X128781324Y-81234462D01*
X128785001Y-81271794D01*
X128785000Y-93340728D01*
X128695000Y-93340728D01*
X128570518Y-93352988D01*
X128450820Y-93389298D01*
X128340506Y-93448263D01*
X128243815Y-93527615D01*
X128164463Y-93624306D01*
X128105498Y-93734620D01*
X128069188Y-93854318D01*
X128056928Y-93978800D01*
X128056928Y-94068800D01*
X116790525Y-94068800D01*
X116753200Y-94065124D01*
X116715875Y-94068800D01*
X116715867Y-94068800D01*
X116604214Y-94079797D01*
X116460953Y-94123254D01*
X116328924Y-94193826D01*
X116213199Y-94288799D01*
X116189401Y-94317797D01*
X113788998Y-96718201D01*
X113760000Y-96741999D01*
X113736202Y-96770997D01*
X113736201Y-96770998D01*
X113665026Y-96857724D01*
X113594454Y-96989754D01*
X113550998Y-97133015D01*
X113536324Y-97282000D01*
X113540001Y-97319332D01*
X113540000Y-106307500D01*
X112813142Y-106307500D01*
X112516021Y-106336764D01*
X112134778Y-106452413D01*
X111783422Y-106640216D01*
X111475457Y-106892957D01*
X111222716Y-107200922D01*
X111034913Y-107552278D01*
X110919264Y-107933521D01*
X110880214Y-108330000D01*
X110919264Y-108726479D01*
X111034913Y-109107722D01*
X111222716Y-109459078D01*
X111475457Y-109767043D01*
X111737982Y-109982492D01*
X111722675Y-109984000D01*
X111722667Y-109984000D01*
X111611014Y-109994997D01*
X111467753Y-110038454D01*
X111335724Y-110109026D01*
X111219999Y-110203999D01*
X111196201Y-110232997D01*
X109726000Y-111703199D01*
X109726000Y-78779937D01*
X119500000Y-78779937D01*
X119500000Y-79298987D01*
X119601261Y-79808063D01*
X119799893Y-80287603D01*
X120088262Y-80719177D01*
X120455285Y-81086200D01*
X120886859Y-81374569D01*
X121366399Y-81573201D01*
X121875475Y-81674462D01*
X122394525Y-81674462D01*
X122903601Y-81573201D01*
X123383141Y-81374569D01*
X123814715Y-81086200D01*
X124181738Y-80719177D01*
X124470107Y-80287603D01*
X124668739Y-79808063D01*
X124770000Y-79298987D01*
X124770000Y-78779937D01*
X124724258Y-78549974D01*
X127734783Y-78549974D01*
X127776213Y-78829592D01*
X127871397Y-79095754D01*
X127938329Y-79220976D01*
X128182298Y-79292559D01*
X128995395Y-78479462D01*
X128182298Y-77666365D01*
X127938329Y-77737948D01*
X127817429Y-77993458D01*
X127748700Y-78267646D01*
X127734783Y-78549974D01*
X124724258Y-78549974D01*
X124668739Y-78270861D01*
X124470107Y-77791321D01*
X124181738Y-77359747D01*
X123814715Y-76992724D01*
X123383141Y-76704355D01*
X122903601Y-76505723D01*
X122394525Y-76404462D01*
X121875475Y-76404462D01*
X121366399Y-76505723D01*
X120886859Y-76704355D01*
X120455285Y-76992724D01*
X120088262Y-77359747D01*
X119799893Y-77791321D01*
X119601261Y-78270861D01*
X119500000Y-78779937D01*
X109726000Y-78779937D01*
X109726000Y-78546801D01*
X113090802Y-75182000D01*
X127927737Y-75182000D01*
X128921312Y-76175576D01*
X128921312Y-76175576D01*
G37*
X128921312Y-76175576D02*
X128885000Y-76358127D01*
X128885000Y-76640797D01*
X128940147Y-76918036D01*
X128996953Y-77055178D01*
X128824870Y-77080675D01*
X128558708Y-77175859D01*
X128433486Y-77242791D01*
X128361903Y-77486760D01*
X129175000Y-78299857D01*
X129189143Y-78285715D01*
X129368748Y-78465320D01*
X129354605Y-78479462D01*
X129368748Y-78493605D01*
X129189143Y-78673210D01*
X129175000Y-78659067D01*
X128361903Y-79472164D01*
X128433486Y-79716133D01*
X128688996Y-79837033D01*
X128881928Y-79885394D01*
X128881928Y-80862753D01*
X128839454Y-80942216D01*
X128795998Y-81085477D01*
X128781324Y-81234462D01*
X128785001Y-81271794D01*
X128785000Y-93340728D01*
X128695000Y-93340728D01*
X128570518Y-93352988D01*
X128450820Y-93389298D01*
X128340506Y-93448263D01*
X128243815Y-93527615D01*
X128164463Y-93624306D01*
X128105498Y-93734620D01*
X128069188Y-93854318D01*
X128056928Y-93978800D01*
X128056928Y-94068800D01*
X116790525Y-94068800D01*
X116753200Y-94065124D01*
X116715875Y-94068800D01*
X116715867Y-94068800D01*
X116604214Y-94079797D01*
X116460953Y-94123254D01*
X116328924Y-94193826D01*
X116213199Y-94288799D01*
X116189401Y-94317797D01*
X113788998Y-96718201D01*
X113760000Y-96741999D01*
X113736202Y-96770997D01*
X113736201Y-96770998D01*
X113665026Y-96857724D01*
X113594454Y-96989754D01*
X113550998Y-97133015D01*
X113536324Y-97282000D01*
X113540001Y-97319332D01*
X113540000Y-106307500D01*
X112813142Y-106307500D01*
X112516021Y-106336764D01*
X112134778Y-106452413D01*
X111783422Y-106640216D01*
X111475457Y-106892957D01*
X111222716Y-107200922D01*
X111034913Y-107552278D01*
X110919264Y-107933521D01*
X110880214Y-108330000D01*
X110919264Y-108726479D01*
X111034913Y-109107722D01*
X111222716Y-109459078D01*
X111475457Y-109767043D01*
X111737982Y-109982492D01*
X111722675Y-109984000D01*
X111722667Y-109984000D01*
X111611014Y-109994997D01*
X111467753Y-110038454D01*
X111335724Y-110109026D01*
X111219999Y-110203999D01*
X111196201Y-110232997D01*
X109726000Y-111703199D01*
X109726000Y-78779937D01*
X119500000Y-78779937D01*
X119500000Y-79298987D01*
X119601261Y-79808063D01*
X119799893Y-80287603D01*
X120088262Y-80719177D01*
X120455285Y-81086200D01*
X120886859Y-81374569D01*
X121366399Y-81573201D01*
X121875475Y-81674462D01*
X122394525Y-81674462D01*
X122903601Y-81573201D01*
X123383141Y-81374569D01*
X123814715Y-81086200D01*
X124181738Y-80719177D01*
X124470107Y-80287603D01*
X124668739Y-79808063D01*
X124770000Y-79298987D01*
X124770000Y-78779937D01*
X124724258Y-78549974D01*
X127734783Y-78549974D01*
X127776213Y-78829592D01*
X127871397Y-79095754D01*
X127938329Y-79220976D01*
X128182298Y-79292559D01*
X128995395Y-78479462D01*
X128182298Y-77666365D01*
X127938329Y-77737948D01*
X127817429Y-77993458D01*
X127748700Y-78267646D01*
X127734783Y-78549974D01*
X124724258Y-78549974D01*
X124668739Y-78270861D01*
X124470107Y-77791321D01*
X124181738Y-77359747D01*
X123814715Y-76992724D01*
X123383141Y-76704355D01*
X122903601Y-76505723D01*
X122394525Y-76404462D01*
X121875475Y-76404462D01*
X121366399Y-76505723D01*
X120886859Y-76704355D01*
X120455285Y-76992724D01*
X120088262Y-77359747D01*
X119799893Y-77791321D01*
X119601261Y-78270861D01*
X119500000Y-78779937D01*
X109726000Y-78779937D01*
X109726000Y-78546801D01*
X113090802Y-75182000D01*
X127927737Y-75182000D01*
X128921312Y-76175576D01*
G36*
X141226000Y-76260803D02*
G01*
X141226001Y-89692997D01*
X137530996Y-93388003D01*
X137456111Y-93365287D01*
X137237950Y-93343800D01*
X137092050Y-93343800D01*
X136873889Y-93365287D01*
X136593966Y-93450201D01*
X136335986Y-93588094D01*
X136109866Y-93773666D01*
X135924294Y-93999786D01*
X135895000Y-94054591D01*
X135865706Y-93999786D01*
X135680134Y-93773666D01*
X135660000Y-93757142D01*
X135660000Y-81677505D01*
X135814759Y-81574099D01*
X136014637Y-81374221D01*
X136045000Y-81328779D01*
X136075363Y-81374221D01*
X136275241Y-81574099D01*
X136510273Y-81731142D01*
X136771426Y-81839315D01*
X137048665Y-81894462D01*
X137331335Y-81894462D01*
X137608574Y-81839315D01*
X137869727Y-81731142D01*
X138104759Y-81574099D01*
X138226694Y-81452164D01*
X138666903Y-81452164D01*
X138738486Y-81696133D01*
X138993996Y-81817033D01*
X139268184Y-81885762D01*
X139550512Y-81899679D01*
X139830130Y-81858249D01*
X140096292Y-81763065D01*
X140221514Y-81696133D01*
X140293097Y-81452164D01*
X139480000Y-80639067D01*
X138666903Y-81452164D01*
X138226694Y-81452164D01*
X138304637Y-81374221D01*
X138391372Y-81244413D01*
X138487298Y-81272559D01*
X139300395Y-80459462D01*
X139659605Y-80459462D01*
X140472702Y-81272559D01*
X140716671Y-81200976D01*
X140837571Y-80945466D01*
X140906300Y-80671278D01*
X140920217Y-80388950D01*
X140878787Y-80109332D01*
X140783603Y-79843170D01*
X140716671Y-79717948D01*
X140472702Y-79646365D01*
X139659605Y-80459462D01*
X139300395Y-80459462D01*
X139286253Y-80445320D01*
X139465858Y-80265715D01*
X139480000Y-80279857D01*
X140293097Y-79466760D01*
X140221514Y-79222791D01*
X139966004Y-79101891D01*
X139691816Y-79033162D01*
X139661252Y-79031655D01*
X139692571Y-78965466D01*
X139761300Y-78691278D01*
X139775217Y-78408950D01*
X139733787Y-78129332D01*
X139661258Y-77926521D01*
X139898574Y-77879315D01*
X140159727Y-77771142D01*
X140394759Y-77614099D01*
X140594637Y-77414221D01*
X140751680Y-77179189D01*
X140859853Y-76918036D01*
X140915000Y-76640797D01*
X140915000Y-76358127D01*
X140859853Y-76080888D01*
X140751680Y-75819735D01*
X140684720Y-75719522D01*
X141226000Y-76260803D01*
X141226000Y-76260803D01*
G37*
X141226000Y-76260803D02*
X141226001Y-89692997D01*
X137530996Y-93388003D01*
X137456111Y-93365287D01*
X137237950Y-93343800D01*
X137092050Y-93343800D01*
X136873889Y-93365287D01*
X136593966Y-93450201D01*
X136335986Y-93588094D01*
X136109866Y-93773666D01*
X135924294Y-93999786D01*
X135895000Y-94054591D01*
X135865706Y-93999786D01*
X135680134Y-93773666D01*
X135660000Y-93757142D01*
X135660000Y-81677505D01*
X135814759Y-81574099D01*
X136014637Y-81374221D01*
X136045000Y-81328779D01*
X136075363Y-81374221D01*
X136275241Y-81574099D01*
X136510273Y-81731142D01*
X136771426Y-81839315D01*
X137048665Y-81894462D01*
X137331335Y-81894462D01*
X137608574Y-81839315D01*
X137869727Y-81731142D01*
X138104759Y-81574099D01*
X138226694Y-81452164D01*
X138666903Y-81452164D01*
X138738486Y-81696133D01*
X138993996Y-81817033D01*
X139268184Y-81885762D01*
X139550512Y-81899679D01*
X139830130Y-81858249D01*
X140096292Y-81763065D01*
X140221514Y-81696133D01*
X140293097Y-81452164D01*
X139480000Y-80639067D01*
X138666903Y-81452164D01*
X138226694Y-81452164D01*
X138304637Y-81374221D01*
X138391372Y-81244413D01*
X138487298Y-81272559D01*
X139300395Y-80459462D01*
X139659605Y-80459462D01*
X140472702Y-81272559D01*
X140716671Y-81200976D01*
X140837571Y-80945466D01*
X140906300Y-80671278D01*
X140920217Y-80388950D01*
X140878787Y-80109332D01*
X140783603Y-79843170D01*
X140716671Y-79717948D01*
X140472702Y-79646365D01*
X139659605Y-80459462D01*
X139300395Y-80459462D01*
X139286253Y-80445320D01*
X139465858Y-80265715D01*
X139480000Y-80279857D01*
X140293097Y-79466760D01*
X140221514Y-79222791D01*
X139966004Y-79101891D01*
X139691816Y-79033162D01*
X139661252Y-79031655D01*
X139692571Y-78965466D01*
X139761300Y-78691278D01*
X139775217Y-78408950D01*
X139733787Y-78129332D01*
X139661258Y-77926521D01*
X139898574Y-77879315D01*
X140159727Y-77771142D01*
X140394759Y-77614099D01*
X140594637Y-77414221D01*
X140751680Y-77179189D01*
X140859853Y-76918036D01*
X140915000Y-76640797D01*
X140915000Y-76358127D01*
X140859853Y-76080888D01*
X140751680Y-75819735D01*
X140684720Y-75719522D01*
X141226000Y-76260803D01*
G36*
X131658748Y-78465320D02*
G01*
X131644605Y-78479462D01*
X131658748Y-78493605D01*
X131479143Y-78673210D01*
X131465000Y-78659067D01*
X131450858Y-78673210D01*
X131271253Y-78493605D01*
X131285395Y-78479462D01*
X131271253Y-78465320D01*
X131450858Y-78285715D01*
X131465000Y-78299857D01*
X131479143Y-78285715D01*
X131658748Y-78465320D01*
X131658748Y-78465320D01*
G37*
X131658748Y-78465320D02*
X131644605Y-78479462D01*
X131658748Y-78493605D01*
X131479143Y-78673210D01*
X131465000Y-78659067D01*
X131450858Y-78673210D01*
X131271253Y-78493605D01*
X131285395Y-78479462D01*
X131271253Y-78465320D01*
X131450858Y-78285715D01*
X131465000Y-78299857D01*
X131479143Y-78285715D01*
X131658748Y-78465320D01*
G36*
X138528748Y-78465320D02*
G01*
X138514605Y-78479462D01*
X138528748Y-78493605D01*
X138349143Y-78673210D01*
X138335000Y-78659067D01*
X138320858Y-78673210D01*
X138141253Y-78493605D01*
X138155395Y-78479462D01*
X138141253Y-78465320D01*
X138320858Y-78285715D01*
X138335000Y-78299857D01*
X138349143Y-78285715D01*
X138528748Y-78465320D01*
X138528748Y-78465320D01*
G37*
X138528748Y-78465320D02*
X138514605Y-78479462D01*
X138528748Y-78493605D01*
X138349143Y-78673210D01*
X138335000Y-78659067D01*
X138320858Y-78673210D01*
X138141253Y-78493605D01*
X138155395Y-78479462D01*
X138141253Y-78465320D01*
X138320858Y-78285715D01*
X138335000Y-78299857D01*
X138349143Y-78285715D01*
X138528748Y-78465320D01*
G36*
X133948748Y-78465320D02*
G01*
X133934605Y-78479462D01*
X133948748Y-78493605D01*
X133769143Y-78673210D01*
X133755000Y-78659067D01*
X133740858Y-78673210D01*
X133561253Y-78493605D01*
X133575395Y-78479462D01*
X133561253Y-78465320D01*
X133740858Y-78285715D01*
X133755000Y-78299857D01*
X133769143Y-78285715D01*
X133948748Y-78465320D01*
X133948748Y-78465320D01*
G37*
X133948748Y-78465320D02*
X133934605Y-78479462D01*
X133948748Y-78493605D01*
X133769143Y-78673210D01*
X133755000Y-78659067D01*
X133740858Y-78673210D01*
X133561253Y-78493605D01*
X133575395Y-78479462D01*
X133561253Y-78465320D01*
X133740858Y-78285715D01*
X133755000Y-78299857D01*
X133769143Y-78285715D01*
X133948748Y-78465320D01*
M02*
