G04 #@! TF.GenerationSoftware,KiCad,Pcbnew,5.1.4-e60b266~84~ubuntu19.04.1*
G04 #@! TF.CreationDate,2019-08-29T17:26:57+02:00*
G04 #@! TF.ProjectId,VGABreakout,56474142-7265-4616-9b6f-75742e6b6963,1.0*
G04 #@! TF.SameCoordinates,Original*
G04 #@! TF.FileFunction,Soldermask,Bot*
G04 #@! TF.FilePolarity,Negative*
%FSLAX46Y46*%
G04 Gerber Fmt 4.6, Leading zero omitted, Abs format (unit mm)*
G04 Created by KiCad (PCBNEW 5.1.4-e60b266~84~ubuntu19.04.1) date 2019-08-29 17:26:57*
%MOMM*%
%LPD*%
G04 APERTURE LIST*
%ADD10C,0.100000*%
G04 APERTURE END LIST*
D10*
G36*
X134588228Y-148312241D02*
G01*
X134743100Y-148376391D01*
X134882481Y-148469523D01*
X135001015Y-148588057D01*
X135094147Y-148727438D01*
X135158297Y-148882310D01*
X135191000Y-149046722D01*
X135191000Y-149214354D01*
X135158297Y-149378766D01*
X135094147Y-149533638D01*
X135001015Y-149673019D01*
X134882481Y-149791553D01*
X134743100Y-149884685D01*
X134588228Y-149948835D01*
X134423816Y-149981538D01*
X134256184Y-149981538D01*
X134091772Y-149948835D01*
X133936900Y-149884685D01*
X133797519Y-149791553D01*
X133678985Y-149673019D01*
X133585853Y-149533638D01*
X133521703Y-149378766D01*
X133489000Y-149214354D01*
X133489000Y-149046722D01*
X133521703Y-148882310D01*
X133585853Y-148727438D01*
X133678985Y-148588057D01*
X133797519Y-148469523D01*
X133936900Y-148376391D01*
X134091772Y-148312241D01*
X134256184Y-148279538D01*
X134423816Y-148279538D01*
X134588228Y-148312241D01*
X134588228Y-148312241D01*
G37*
G36*
X136878228Y-148312241D02*
G01*
X137033100Y-148376391D01*
X137172481Y-148469523D01*
X137291015Y-148588057D01*
X137384147Y-148727438D01*
X137448297Y-148882310D01*
X137481000Y-149046722D01*
X137481000Y-149214354D01*
X137448297Y-149378766D01*
X137384147Y-149533638D01*
X137291015Y-149673019D01*
X137172481Y-149791553D01*
X137033100Y-149884685D01*
X136878228Y-149948835D01*
X136713816Y-149981538D01*
X136546184Y-149981538D01*
X136381772Y-149948835D01*
X136226900Y-149884685D01*
X136087519Y-149791553D01*
X135968985Y-149673019D01*
X135875853Y-149533638D01*
X135811703Y-149378766D01*
X135779000Y-149214354D01*
X135779000Y-149046722D01*
X135811703Y-148882310D01*
X135875853Y-148727438D01*
X135968985Y-148588057D01*
X136087519Y-148469523D01*
X136226900Y-148376391D01*
X136381772Y-148312241D01*
X136546184Y-148279538D01*
X136713816Y-148279538D01*
X136878228Y-148312241D01*
X136878228Y-148312241D01*
G37*
G36*
X139168228Y-148312241D02*
G01*
X139323100Y-148376391D01*
X139462481Y-148469523D01*
X139581015Y-148588057D01*
X139674147Y-148727438D01*
X139738297Y-148882310D01*
X139771000Y-149046722D01*
X139771000Y-149214354D01*
X139738297Y-149378766D01*
X139674147Y-149533638D01*
X139581015Y-149673019D01*
X139462481Y-149791553D01*
X139323100Y-149884685D01*
X139168228Y-149948835D01*
X139003816Y-149981538D01*
X138836184Y-149981538D01*
X138671772Y-149948835D01*
X138516900Y-149884685D01*
X138377519Y-149791553D01*
X138258985Y-149673019D01*
X138165853Y-149533638D01*
X138101703Y-149378766D01*
X138069000Y-149214354D01*
X138069000Y-149046722D01*
X138101703Y-148882310D01*
X138165853Y-148727438D01*
X138258985Y-148588057D01*
X138377519Y-148469523D01*
X138516900Y-148376391D01*
X138671772Y-148312241D01*
X138836184Y-148279538D01*
X139003816Y-148279538D01*
X139168228Y-148312241D01*
X139168228Y-148312241D01*
G37*
G36*
X132298228Y-148312241D02*
G01*
X132453100Y-148376391D01*
X132592481Y-148469523D01*
X132711015Y-148588057D01*
X132804147Y-148727438D01*
X132868297Y-148882310D01*
X132901000Y-149046722D01*
X132901000Y-149214354D01*
X132868297Y-149378766D01*
X132804147Y-149533638D01*
X132711015Y-149673019D01*
X132592481Y-149791553D01*
X132453100Y-149884685D01*
X132298228Y-149948835D01*
X132133816Y-149981538D01*
X131966184Y-149981538D01*
X131801772Y-149948835D01*
X131646900Y-149884685D01*
X131507519Y-149791553D01*
X131388985Y-149673019D01*
X131295853Y-149533638D01*
X131231703Y-149378766D01*
X131199000Y-149214354D01*
X131199000Y-149046722D01*
X131231703Y-148882310D01*
X131295853Y-148727438D01*
X131388985Y-148588057D01*
X131507519Y-148469523D01*
X131646900Y-148376391D01*
X131801772Y-148312241D01*
X131966184Y-148279538D01*
X132133816Y-148279538D01*
X132298228Y-148312241D01*
X132298228Y-148312241D01*
G37*
G36*
X130008228Y-148312241D02*
G01*
X130163100Y-148376391D01*
X130302481Y-148469523D01*
X130421015Y-148588057D01*
X130514147Y-148727438D01*
X130578297Y-148882310D01*
X130611000Y-149046722D01*
X130611000Y-149214354D01*
X130578297Y-149378766D01*
X130514147Y-149533638D01*
X130421015Y-149673019D01*
X130302481Y-149791553D01*
X130163100Y-149884685D01*
X130008228Y-149948835D01*
X129843816Y-149981538D01*
X129676184Y-149981538D01*
X129511772Y-149948835D01*
X129356900Y-149884685D01*
X129217519Y-149791553D01*
X129098985Y-149673019D01*
X129005853Y-149533638D01*
X128941703Y-149378766D01*
X128909000Y-149214354D01*
X128909000Y-149046722D01*
X128941703Y-148882310D01*
X129005853Y-148727438D01*
X129098985Y-148588057D01*
X129217519Y-148469523D01*
X129356900Y-148376391D01*
X129511772Y-148312241D01*
X129676184Y-148279538D01*
X129843816Y-148279538D01*
X130008228Y-148312241D01*
X130008228Y-148312241D01*
G37*
G36*
X122703254Y-144618356D02*
G01*
X123063170Y-144767438D01*
X123076513Y-144772965D01*
X123412436Y-144997422D01*
X123698116Y-145283102D01*
X123788765Y-145418767D01*
X123922574Y-145619027D01*
X124077182Y-145992284D01*
X124156000Y-146388531D01*
X124156000Y-146792545D01*
X124077182Y-147188792D01*
X123926059Y-147553635D01*
X123922573Y-147562051D01*
X123698116Y-147897974D01*
X123412436Y-148183654D01*
X123076513Y-148408111D01*
X123076512Y-148408112D01*
X123076511Y-148408112D01*
X122703254Y-148562720D01*
X122307007Y-148641538D01*
X121902993Y-148641538D01*
X121506746Y-148562720D01*
X121133489Y-148408112D01*
X121133488Y-148408112D01*
X121133487Y-148408111D01*
X120797564Y-148183654D01*
X120511884Y-147897974D01*
X120287427Y-147562051D01*
X120283941Y-147553635D01*
X120132818Y-147188792D01*
X120054000Y-146792545D01*
X120054000Y-146388531D01*
X120132818Y-145992284D01*
X120287426Y-145619027D01*
X120421236Y-145418767D01*
X120511884Y-145283102D01*
X120797564Y-144997422D01*
X121133487Y-144772965D01*
X121146830Y-144767438D01*
X121506746Y-144618356D01*
X121902993Y-144539538D01*
X122307007Y-144539538D01*
X122703254Y-144618356D01*
X122703254Y-144618356D01*
G37*
G36*
X147703254Y-144618356D02*
G01*
X148063170Y-144767438D01*
X148076513Y-144772965D01*
X148412436Y-144997422D01*
X148698116Y-145283102D01*
X148788765Y-145418767D01*
X148922574Y-145619027D01*
X149077182Y-145992284D01*
X149156000Y-146388531D01*
X149156000Y-146792545D01*
X149077182Y-147188792D01*
X148926059Y-147553635D01*
X148922573Y-147562051D01*
X148698116Y-147897974D01*
X148412436Y-148183654D01*
X148076513Y-148408111D01*
X148076512Y-148408112D01*
X148076511Y-148408112D01*
X147703254Y-148562720D01*
X147307007Y-148641538D01*
X146902993Y-148641538D01*
X146506746Y-148562720D01*
X146133489Y-148408112D01*
X146133488Y-148408112D01*
X146133487Y-148408111D01*
X145797564Y-148183654D01*
X145511884Y-147897974D01*
X145287427Y-147562051D01*
X145283941Y-147553635D01*
X145132818Y-147188792D01*
X145054000Y-146792545D01*
X145054000Y-146388531D01*
X145132818Y-145992284D01*
X145287426Y-145619027D01*
X145421236Y-145418767D01*
X145511884Y-145283102D01*
X145797564Y-144997422D01*
X146133487Y-144772965D01*
X146146830Y-144767438D01*
X146506746Y-144618356D01*
X146902993Y-144539538D01*
X147307007Y-144539538D01*
X147703254Y-144618356D01*
X147703254Y-144618356D01*
G37*
G36*
X138023228Y-146332241D02*
G01*
X138178100Y-146396391D01*
X138317481Y-146489523D01*
X138436015Y-146608057D01*
X138529147Y-146747438D01*
X138593297Y-146902310D01*
X138626000Y-147066722D01*
X138626000Y-147234354D01*
X138593297Y-147398766D01*
X138529147Y-147553638D01*
X138436015Y-147693019D01*
X138317481Y-147811553D01*
X138178100Y-147904685D01*
X138023228Y-147968835D01*
X137858816Y-148001538D01*
X137691184Y-148001538D01*
X137526772Y-147968835D01*
X137371900Y-147904685D01*
X137232519Y-147811553D01*
X137113985Y-147693019D01*
X137020853Y-147553638D01*
X136956703Y-147398766D01*
X136924000Y-147234354D01*
X136924000Y-147066722D01*
X136956703Y-146902310D01*
X137020853Y-146747438D01*
X137113985Y-146608057D01*
X137232519Y-146489523D01*
X137371900Y-146396391D01*
X137526772Y-146332241D01*
X137691184Y-146299538D01*
X137858816Y-146299538D01*
X138023228Y-146332241D01*
X138023228Y-146332241D01*
G37*
G36*
X140313228Y-146332241D02*
G01*
X140468100Y-146396391D01*
X140607481Y-146489523D01*
X140726015Y-146608057D01*
X140819147Y-146747438D01*
X140883297Y-146902310D01*
X140916000Y-147066722D01*
X140916000Y-147234354D01*
X140883297Y-147398766D01*
X140819147Y-147553638D01*
X140726015Y-147693019D01*
X140607481Y-147811553D01*
X140468100Y-147904685D01*
X140313228Y-147968835D01*
X140148816Y-148001538D01*
X139981184Y-148001538D01*
X139816772Y-147968835D01*
X139661900Y-147904685D01*
X139522519Y-147811553D01*
X139403985Y-147693019D01*
X139310853Y-147553638D01*
X139246703Y-147398766D01*
X139214000Y-147234354D01*
X139214000Y-147066722D01*
X139246703Y-146902310D01*
X139310853Y-146747438D01*
X139403985Y-146608057D01*
X139522519Y-146489523D01*
X139661900Y-146396391D01*
X139816772Y-146332241D01*
X139981184Y-146299538D01*
X140148816Y-146299538D01*
X140313228Y-146332241D01*
X140313228Y-146332241D01*
G37*
G36*
X135733228Y-146332241D02*
G01*
X135888100Y-146396391D01*
X136027481Y-146489523D01*
X136146015Y-146608057D01*
X136239147Y-146747438D01*
X136303297Y-146902310D01*
X136336000Y-147066722D01*
X136336000Y-147234354D01*
X136303297Y-147398766D01*
X136239147Y-147553638D01*
X136146015Y-147693019D01*
X136027481Y-147811553D01*
X135888100Y-147904685D01*
X135733228Y-147968835D01*
X135568816Y-148001538D01*
X135401184Y-148001538D01*
X135236772Y-147968835D01*
X135081900Y-147904685D01*
X134942519Y-147811553D01*
X134823985Y-147693019D01*
X134730853Y-147553638D01*
X134666703Y-147398766D01*
X134634000Y-147234354D01*
X134634000Y-147066722D01*
X134666703Y-146902310D01*
X134730853Y-146747438D01*
X134823985Y-146608057D01*
X134942519Y-146489523D01*
X135081900Y-146396391D01*
X135236772Y-146332241D01*
X135401184Y-146299538D01*
X135568816Y-146299538D01*
X135733228Y-146332241D01*
X135733228Y-146332241D01*
G37*
G36*
X133443228Y-146332241D02*
G01*
X133598100Y-146396391D01*
X133737481Y-146489523D01*
X133856015Y-146608057D01*
X133949147Y-146747438D01*
X134013297Y-146902310D01*
X134046000Y-147066722D01*
X134046000Y-147234354D01*
X134013297Y-147398766D01*
X133949147Y-147553638D01*
X133856015Y-147693019D01*
X133737481Y-147811553D01*
X133598100Y-147904685D01*
X133443228Y-147968835D01*
X133278816Y-148001538D01*
X133111184Y-148001538D01*
X132946772Y-147968835D01*
X132791900Y-147904685D01*
X132652519Y-147811553D01*
X132533985Y-147693019D01*
X132440853Y-147553638D01*
X132376703Y-147398766D01*
X132344000Y-147234354D01*
X132344000Y-147066722D01*
X132376703Y-146902310D01*
X132440853Y-146747438D01*
X132533985Y-146608057D01*
X132652519Y-146489523D01*
X132791900Y-146396391D01*
X132946772Y-146332241D01*
X133111184Y-146299538D01*
X133278816Y-146299538D01*
X133443228Y-146332241D01*
X133443228Y-146332241D01*
G37*
G36*
X131153228Y-146332241D02*
G01*
X131308100Y-146396391D01*
X131447481Y-146489523D01*
X131566015Y-146608057D01*
X131659147Y-146747438D01*
X131723297Y-146902310D01*
X131756000Y-147066722D01*
X131756000Y-147234354D01*
X131723297Y-147398766D01*
X131659147Y-147553638D01*
X131566015Y-147693019D01*
X131447481Y-147811553D01*
X131308100Y-147904685D01*
X131153228Y-147968835D01*
X130988816Y-148001538D01*
X130821184Y-148001538D01*
X130656772Y-147968835D01*
X130501900Y-147904685D01*
X130362519Y-147811553D01*
X130243985Y-147693019D01*
X130150853Y-147553638D01*
X130086703Y-147398766D01*
X130054000Y-147234354D01*
X130054000Y-147066722D01*
X130086703Y-146902310D01*
X130150853Y-146747438D01*
X130243985Y-146608057D01*
X130362519Y-146489523D01*
X130501900Y-146396391D01*
X130656772Y-146332241D01*
X130821184Y-146299538D01*
X130988816Y-146299538D01*
X131153228Y-146332241D01*
X131153228Y-146332241D01*
G37*
G36*
X136878228Y-144352241D02*
G01*
X137033100Y-144416391D01*
X137172481Y-144509523D01*
X137291015Y-144628057D01*
X137384147Y-144767438D01*
X137448297Y-144922310D01*
X137481000Y-145086722D01*
X137481000Y-145254354D01*
X137448297Y-145418766D01*
X137384147Y-145573638D01*
X137291015Y-145713019D01*
X137172481Y-145831553D01*
X137033100Y-145924685D01*
X136878228Y-145988835D01*
X136713816Y-146021538D01*
X136546184Y-146021538D01*
X136381772Y-145988835D01*
X136226900Y-145924685D01*
X136087519Y-145831553D01*
X135968985Y-145713019D01*
X135875853Y-145573638D01*
X135811703Y-145418766D01*
X135779000Y-145254354D01*
X135779000Y-145086722D01*
X135811703Y-144922310D01*
X135875853Y-144767438D01*
X135968985Y-144628057D01*
X136087519Y-144509523D01*
X136226900Y-144416391D01*
X136381772Y-144352241D01*
X136546184Y-144319538D01*
X136713816Y-144319538D01*
X136878228Y-144352241D01*
X136878228Y-144352241D01*
G37*
G36*
X139771000Y-146021538D02*
G01*
X138069000Y-146021538D01*
X138069000Y-144319538D01*
X139771000Y-144319538D01*
X139771000Y-146021538D01*
X139771000Y-146021538D01*
G37*
G36*
X134588228Y-144352241D02*
G01*
X134743100Y-144416391D01*
X134882481Y-144509523D01*
X135001015Y-144628057D01*
X135094147Y-144767438D01*
X135158297Y-144922310D01*
X135191000Y-145086722D01*
X135191000Y-145254354D01*
X135158297Y-145418766D01*
X135094147Y-145573638D01*
X135001015Y-145713019D01*
X134882481Y-145831553D01*
X134743100Y-145924685D01*
X134588228Y-145988835D01*
X134423816Y-146021538D01*
X134256184Y-146021538D01*
X134091772Y-145988835D01*
X133936900Y-145924685D01*
X133797519Y-145831553D01*
X133678985Y-145713019D01*
X133585853Y-145573638D01*
X133521703Y-145418766D01*
X133489000Y-145254354D01*
X133489000Y-145086722D01*
X133521703Y-144922310D01*
X133585853Y-144767438D01*
X133678985Y-144628057D01*
X133797519Y-144509523D01*
X133936900Y-144416391D01*
X134091772Y-144352241D01*
X134256184Y-144319538D01*
X134423816Y-144319538D01*
X134588228Y-144352241D01*
X134588228Y-144352241D01*
G37*
G36*
X132298228Y-144352241D02*
G01*
X132453100Y-144416391D01*
X132592481Y-144509523D01*
X132711015Y-144628057D01*
X132804147Y-144767438D01*
X132868297Y-144922310D01*
X132901000Y-145086722D01*
X132901000Y-145254354D01*
X132868297Y-145418766D01*
X132804147Y-145573638D01*
X132711015Y-145713019D01*
X132592481Y-145831553D01*
X132453100Y-145924685D01*
X132298228Y-145988835D01*
X132133816Y-146021538D01*
X131966184Y-146021538D01*
X131801772Y-145988835D01*
X131646900Y-145924685D01*
X131507519Y-145831553D01*
X131388985Y-145713019D01*
X131295853Y-145573638D01*
X131231703Y-145418766D01*
X131199000Y-145254354D01*
X131199000Y-145086722D01*
X131231703Y-144922310D01*
X131295853Y-144767438D01*
X131388985Y-144628057D01*
X131507519Y-144509523D01*
X131646900Y-144416391D01*
X131801772Y-144352241D01*
X131966184Y-144319538D01*
X132133816Y-144319538D01*
X132298228Y-144352241D01*
X132298228Y-144352241D01*
G37*
G36*
X130008228Y-144352241D02*
G01*
X130163100Y-144416391D01*
X130302481Y-144509523D01*
X130421015Y-144628057D01*
X130514147Y-144767438D01*
X130578297Y-144922310D01*
X130611000Y-145086722D01*
X130611000Y-145254354D01*
X130578297Y-145418766D01*
X130514147Y-145573638D01*
X130421015Y-145713019D01*
X130302481Y-145831553D01*
X130163100Y-145924685D01*
X130008228Y-145988835D01*
X129843816Y-146021538D01*
X129676184Y-146021538D01*
X129511772Y-145988835D01*
X129356900Y-145924685D01*
X129217519Y-145831553D01*
X129098985Y-145713019D01*
X129005853Y-145573638D01*
X128941703Y-145418766D01*
X128909000Y-145254354D01*
X128909000Y-145086722D01*
X128941703Y-144922310D01*
X129005853Y-144767438D01*
X129098985Y-144628057D01*
X129217519Y-144509523D01*
X129356900Y-144416391D01*
X129511772Y-144352241D01*
X129676184Y-144319538D01*
X129843816Y-144319538D01*
X130008228Y-144352241D01*
X130008228Y-144352241D01*
G37*
G36*
X139815442Y-130336718D02*
G01*
X139881627Y-130343237D01*
X140051466Y-130394757D01*
X140207991Y-130478422D01*
X140243729Y-130507752D01*
X140345186Y-130591014D01*
X140428448Y-130692471D01*
X140457778Y-130728209D01*
X140541443Y-130884734D01*
X140592963Y-131054573D01*
X140610359Y-131231200D01*
X140592963Y-131407827D01*
X140541443Y-131577666D01*
X140457778Y-131734191D01*
X140428448Y-131769929D01*
X140345186Y-131871386D01*
X140243729Y-131954648D01*
X140207991Y-131983978D01*
X140051466Y-132067643D01*
X139881627Y-132119163D01*
X139815442Y-132125682D01*
X139749260Y-132132200D01*
X139660740Y-132132200D01*
X139594558Y-132125682D01*
X139528373Y-132119163D01*
X139358534Y-132067643D01*
X139202009Y-131983978D01*
X139166271Y-131954648D01*
X139064814Y-131871386D01*
X138981552Y-131769929D01*
X138952222Y-131734191D01*
X138868557Y-131577666D01*
X138817037Y-131407827D01*
X138799641Y-131231200D01*
X138817037Y-131054573D01*
X138868557Y-130884734D01*
X138952222Y-130728209D01*
X138981552Y-130692471D01*
X139064814Y-130591014D01*
X139166271Y-130507752D01*
X139202009Y-130478422D01*
X139358534Y-130394757D01*
X139528373Y-130343237D01*
X139594558Y-130336718D01*
X139660740Y-130330200D01*
X139749260Y-130330200D01*
X139815442Y-130336718D01*
X139815442Y-130336718D01*
G37*
G36*
X101955442Y-130336718D02*
G01*
X102021627Y-130343237D01*
X102191466Y-130394757D01*
X102347991Y-130478422D01*
X102383729Y-130507752D01*
X102485186Y-130591014D01*
X102568448Y-130692471D01*
X102597778Y-130728209D01*
X102681443Y-130884734D01*
X102732963Y-131054573D01*
X102750359Y-131231200D01*
X102732963Y-131407827D01*
X102681443Y-131577666D01*
X102597778Y-131734191D01*
X102568448Y-131769929D01*
X102485186Y-131871386D01*
X102383729Y-131954648D01*
X102347991Y-131983978D01*
X102191466Y-132067643D01*
X102021627Y-132119163D01*
X101955442Y-132125682D01*
X101889260Y-132132200D01*
X101800740Y-132132200D01*
X101734558Y-132125682D01*
X101668373Y-132119163D01*
X101498534Y-132067643D01*
X101342009Y-131983978D01*
X101306271Y-131954648D01*
X101204814Y-131871386D01*
X101121552Y-131769929D01*
X101092222Y-131734191D01*
X101008557Y-131577666D01*
X100957037Y-131407827D01*
X100939641Y-131231200D01*
X100957037Y-131054573D01*
X101008557Y-130884734D01*
X101092222Y-130728209D01*
X101121552Y-130692471D01*
X101204814Y-130591014D01*
X101306271Y-130507752D01*
X101342009Y-130478422D01*
X101498534Y-130394757D01*
X101668373Y-130343237D01*
X101734558Y-130336718D01*
X101800740Y-130330200D01*
X101889260Y-130330200D01*
X101955442Y-130336718D01*
X101955442Y-130336718D01*
G37*
G36*
X134735442Y-130336718D02*
G01*
X134801627Y-130343237D01*
X134971466Y-130394757D01*
X135127991Y-130478422D01*
X135163729Y-130507752D01*
X135265186Y-130591014D01*
X135348448Y-130692471D01*
X135377778Y-130728209D01*
X135461443Y-130884734D01*
X135512963Y-131054573D01*
X135530359Y-131231200D01*
X135512963Y-131407827D01*
X135461443Y-131577666D01*
X135377778Y-131734191D01*
X135348448Y-131769929D01*
X135265186Y-131871386D01*
X135163729Y-131954648D01*
X135127991Y-131983978D01*
X134971466Y-132067643D01*
X134801627Y-132119163D01*
X134735442Y-132125682D01*
X134669260Y-132132200D01*
X134580740Y-132132200D01*
X134514558Y-132125682D01*
X134448373Y-132119163D01*
X134278534Y-132067643D01*
X134122009Y-131983978D01*
X134086271Y-131954648D01*
X133984814Y-131871386D01*
X133901552Y-131769929D01*
X133872222Y-131734191D01*
X133788557Y-131577666D01*
X133737037Y-131407827D01*
X133719641Y-131231200D01*
X133737037Y-131054573D01*
X133788557Y-130884734D01*
X133872222Y-130728209D01*
X133901552Y-130692471D01*
X133984814Y-130591014D01*
X134086271Y-130507752D01*
X134122009Y-130478422D01*
X134278534Y-130394757D01*
X134448373Y-130343237D01*
X134514558Y-130336718D01*
X134580740Y-130330200D01*
X134669260Y-130330200D01*
X134735442Y-130336718D01*
X134735442Y-130336718D01*
G37*
G36*
X132195442Y-130336718D02*
G01*
X132261627Y-130343237D01*
X132431466Y-130394757D01*
X132587991Y-130478422D01*
X132623729Y-130507752D01*
X132725186Y-130591014D01*
X132808448Y-130692471D01*
X132837778Y-130728209D01*
X132921443Y-130884734D01*
X132972963Y-131054573D01*
X132990359Y-131231200D01*
X132972963Y-131407827D01*
X132921443Y-131577666D01*
X132837778Y-131734191D01*
X132808448Y-131769929D01*
X132725186Y-131871386D01*
X132623729Y-131954648D01*
X132587991Y-131983978D01*
X132431466Y-132067643D01*
X132261627Y-132119163D01*
X132195442Y-132125682D01*
X132129260Y-132132200D01*
X132040740Y-132132200D01*
X131974558Y-132125682D01*
X131908373Y-132119163D01*
X131738534Y-132067643D01*
X131582009Y-131983978D01*
X131546271Y-131954648D01*
X131444814Y-131871386D01*
X131361552Y-131769929D01*
X131332222Y-131734191D01*
X131248557Y-131577666D01*
X131197037Y-131407827D01*
X131179641Y-131231200D01*
X131197037Y-131054573D01*
X131248557Y-130884734D01*
X131332222Y-130728209D01*
X131361552Y-130692471D01*
X131444814Y-130591014D01*
X131546271Y-130507752D01*
X131582009Y-130478422D01*
X131738534Y-130394757D01*
X131908373Y-130343237D01*
X131974558Y-130336718D01*
X132040740Y-130330200D01*
X132129260Y-130330200D01*
X132195442Y-130336718D01*
X132195442Y-130336718D01*
G37*
G36*
X130446000Y-132132200D02*
G01*
X128644000Y-132132200D01*
X128644000Y-130330200D01*
X130446000Y-130330200D01*
X130446000Y-132132200D01*
X130446000Y-132132200D01*
G37*
G36*
X100206000Y-132132200D02*
G01*
X98404000Y-132132200D01*
X98404000Y-130330200D01*
X100206000Y-130330200D01*
X100206000Y-132132200D01*
X100206000Y-132132200D01*
G37*
G36*
X137275442Y-130336718D02*
G01*
X137341627Y-130343237D01*
X137511466Y-130394757D01*
X137667991Y-130478422D01*
X137703729Y-130507752D01*
X137805186Y-130591014D01*
X137888448Y-130692471D01*
X137917778Y-130728209D01*
X138001443Y-130884734D01*
X138052963Y-131054573D01*
X138070359Y-131231200D01*
X138052963Y-131407827D01*
X138001443Y-131577666D01*
X137917778Y-131734191D01*
X137888448Y-131769929D01*
X137805186Y-131871386D01*
X137703729Y-131954648D01*
X137667991Y-131983978D01*
X137511466Y-132067643D01*
X137341627Y-132119163D01*
X137275442Y-132125682D01*
X137209260Y-132132200D01*
X137120740Y-132132200D01*
X137054558Y-132125682D01*
X136988373Y-132119163D01*
X136818534Y-132067643D01*
X136662009Y-131983978D01*
X136626271Y-131954648D01*
X136524814Y-131871386D01*
X136441552Y-131769929D01*
X136412222Y-131734191D01*
X136328557Y-131577666D01*
X136277037Y-131407827D01*
X136259641Y-131231200D01*
X136277037Y-131054573D01*
X136328557Y-130884734D01*
X136412222Y-130728209D01*
X136441552Y-130692471D01*
X136524814Y-130591014D01*
X136626271Y-130507752D01*
X136662009Y-130478422D01*
X136818534Y-130394757D01*
X136988373Y-130343237D01*
X137054558Y-130336718D01*
X137120740Y-130330200D01*
X137209260Y-130330200D01*
X137275442Y-130336718D01*
X137275442Y-130336718D01*
G37*
G36*
X102143830Y-116301907D02*
G01*
X102249495Y-116312314D01*
X102520654Y-116394569D01*
X102770555Y-116528144D01*
X102989595Y-116707905D01*
X103169356Y-116926945D01*
X103302931Y-117176846D01*
X103385186Y-117448005D01*
X103412960Y-117730000D01*
X103385186Y-118011995D01*
X103302931Y-118283154D01*
X103169356Y-118533055D01*
X102989595Y-118752095D01*
X102770555Y-118931856D01*
X102520654Y-119065431D01*
X102249495Y-119147686D01*
X102143831Y-119158093D01*
X102038168Y-119168500D01*
X99121832Y-119168500D01*
X99016169Y-119158093D01*
X98910505Y-119147686D01*
X98639346Y-119065431D01*
X98389445Y-118931856D01*
X98170405Y-118752095D01*
X97990644Y-118533055D01*
X97857069Y-118283154D01*
X97774814Y-118011995D01*
X97747040Y-117730000D01*
X97774814Y-117448005D01*
X97857069Y-117176846D01*
X97990644Y-116926945D01*
X98170405Y-116707905D01*
X98389445Y-116528144D01*
X98639346Y-116394569D01*
X98910505Y-116312314D01*
X99016170Y-116301907D01*
X99121832Y-116291500D01*
X102038168Y-116291500D01*
X102143830Y-116301907D01*
X102143830Y-116301907D01*
G37*
G36*
X115863830Y-116301907D02*
G01*
X115969495Y-116312314D01*
X116240654Y-116394569D01*
X116490555Y-116528144D01*
X116709595Y-116707905D01*
X116889356Y-116926945D01*
X117022931Y-117176846D01*
X117105186Y-117448005D01*
X117132960Y-117730000D01*
X117105186Y-118011995D01*
X117022931Y-118283154D01*
X116889356Y-118533055D01*
X116709595Y-118752095D01*
X116490555Y-118931856D01*
X116240654Y-119065431D01*
X115969495Y-119147686D01*
X115863831Y-119158093D01*
X115758168Y-119168500D01*
X112841832Y-119168500D01*
X112736169Y-119158093D01*
X112630505Y-119147686D01*
X112359346Y-119065431D01*
X112109445Y-118931856D01*
X111890405Y-118752095D01*
X111710644Y-118533055D01*
X111577069Y-118283154D01*
X111494814Y-118011995D01*
X111467040Y-117730000D01*
X111494814Y-117448005D01*
X111577069Y-117176846D01*
X111710644Y-116926945D01*
X111890405Y-116707905D01*
X112109445Y-116528144D01*
X112359346Y-116394569D01*
X112630505Y-116312314D01*
X112736170Y-116301907D01*
X112841832Y-116291500D01*
X115758168Y-116291500D01*
X115863830Y-116301907D01*
X115863830Y-116301907D01*
G37*
G36*
X156503830Y-116301907D02*
G01*
X156609495Y-116312314D01*
X156880654Y-116394569D01*
X157130555Y-116528144D01*
X157349595Y-116707905D01*
X157529356Y-116926945D01*
X157662931Y-117176846D01*
X157745186Y-117448005D01*
X157772960Y-117730000D01*
X157745186Y-118011995D01*
X157662931Y-118283154D01*
X157529356Y-118533055D01*
X157349595Y-118752095D01*
X157130555Y-118931856D01*
X156880654Y-119065431D01*
X156609495Y-119147686D01*
X156503831Y-119158093D01*
X156398168Y-119168500D01*
X153481832Y-119168500D01*
X153376169Y-119158093D01*
X153270505Y-119147686D01*
X152999346Y-119065431D01*
X152749445Y-118931856D01*
X152530405Y-118752095D01*
X152350644Y-118533055D01*
X152217069Y-118283154D01*
X152134814Y-118011995D01*
X152107040Y-117730000D01*
X152134814Y-117448005D01*
X152217069Y-117176846D01*
X152350644Y-116926945D01*
X152530405Y-116707905D01*
X152749445Y-116528144D01*
X152999346Y-116394569D01*
X153270505Y-116312314D01*
X153376170Y-116301907D01*
X153481832Y-116291500D01*
X156398168Y-116291500D01*
X156503830Y-116301907D01*
X156503830Y-116301907D01*
G37*
G36*
X126023830Y-116301907D02*
G01*
X126129495Y-116312314D01*
X126400654Y-116394569D01*
X126650555Y-116528144D01*
X126869595Y-116707905D01*
X127049356Y-116926945D01*
X127182931Y-117176846D01*
X127265186Y-117448005D01*
X127292960Y-117730000D01*
X127265186Y-118011995D01*
X127182931Y-118283154D01*
X127049356Y-118533055D01*
X126869595Y-118752095D01*
X126650555Y-118931856D01*
X126400654Y-119065431D01*
X126129495Y-119147686D01*
X126023831Y-119158093D01*
X125918168Y-119168500D01*
X123001832Y-119168500D01*
X122896169Y-119158093D01*
X122790505Y-119147686D01*
X122519346Y-119065431D01*
X122269445Y-118931856D01*
X122050405Y-118752095D01*
X121870644Y-118533055D01*
X121737069Y-118283154D01*
X121654814Y-118011995D01*
X121627040Y-117730000D01*
X121654814Y-117448005D01*
X121737069Y-117176846D01*
X121870644Y-116926945D01*
X122050405Y-116707905D01*
X122269445Y-116528144D01*
X122519346Y-116394569D01*
X122790505Y-116312314D01*
X122896170Y-116301907D01*
X123001832Y-116291500D01*
X125918168Y-116291500D01*
X126023830Y-116301907D01*
X126023830Y-116301907D01*
G37*
G36*
X136183830Y-116301907D02*
G01*
X136289495Y-116312314D01*
X136560654Y-116394569D01*
X136810555Y-116528144D01*
X137029595Y-116707905D01*
X137209356Y-116926945D01*
X137342931Y-117176846D01*
X137425186Y-117448005D01*
X137452960Y-117730000D01*
X137425186Y-118011995D01*
X137342931Y-118283154D01*
X137209356Y-118533055D01*
X137029595Y-118752095D01*
X136810555Y-118931856D01*
X136560654Y-119065431D01*
X136289495Y-119147686D01*
X136183831Y-119158093D01*
X136078168Y-119168500D01*
X133161832Y-119168500D01*
X133056169Y-119158093D01*
X132950505Y-119147686D01*
X132679346Y-119065431D01*
X132429445Y-118931856D01*
X132210405Y-118752095D01*
X132030644Y-118533055D01*
X131897069Y-118283154D01*
X131814814Y-118011995D01*
X131787040Y-117730000D01*
X131814814Y-117448005D01*
X131897069Y-117176846D01*
X132030644Y-116926945D01*
X132210405Y-116707905D01*
X132429445Y-116528144D01*
X132679346Y-116394569D01*
X132950505Y-116312314D01*
X133056170Y-116301907D01*
X133161832Y-116291500D01*
X136078168Y-116291500D01*
X136183830Y-116301907D01*
X136183830Y-116301907D01*
G37*
G36*
X146343830Y-116301907D02*
G01*
X146449495Y-116312314D01*
X146720654Y-116394569D01*
X146970555Y-116528144D01*
X147189595Y-116707905D01*
X147369356Y-116926945D01*
X147502931Y-117176846D01*
X147585186Y-117448005D01*
X147612960Y-117730000D01*
X147585186Y-118011995D01*
X147502931Y-118283154D01*
X147369356Y-118533055D01*
X147189595Y-118752095D01*
X146970555Y-118931856D01*
X146720654Y-119065431D01*
X146449495Y-119147686D01*
X146343831Y-119158093D01*
X146238168Y-119168500D01*
X143321832Y-119168500D01*
X143216169Y-119158093D01*
X143110505Y-119147686D01*
X142839346Y-119065431D01*
X142589445Y-118931856D01*
X142370405Y-118752095D01*
X142190644Y-118533055D01*
X142057069Y-118283154D01*
X141974814Y-118011995D01*
X141947040Y-117730000D01*
X141974814Y-117448005D01*
X142057069Y-117176846D01*
X142190644Y-116926945D01*
X142370405Y-116707905D01*
X142589445Y-116528144D01*
X142839346Y-116394569D01*
X143110505Y-116312314D01*
X143216170Y-116301907D01*
X143321832Y-116291500D01*
X146238168Y-116291500D01*
X146343830Y-116301907D01*
X146343830Y-116301907D01*
G37*
G36*
X102143830Y-111601907D02*
G01*
X102249495Y-111612314D01*
X102520654Y-111694569D01*
X102770555Y-111828144D01*
X102989595Y-112007905D01*
X103169356Y-112226945D01*
X103302931Y-112476846D01*
X103385186Y-112748005D01*
X103412960Y-113030000D01*
X103385186Y-113311995D01*
X103302931Y-113583154D01*
X103169356Y-113833055D01*
X102989595Y-114052095D01*
X102770555Y-114231856D01*
X102520654Y-114365431D01*
X102249495Y-114447686D01*
X102143830Y-114458093D01*
X102038168Y-114468500D01*
X99121832Y-114468500D01*
X99016170Y-114458093D01*
X98910505Y-114447686D01*
X98639346Y-114365431D01*
X98389445Y-114231856D01*
X98170405Y-114052095D01*
X97990644Y-113833055D01*
X97857069Y-113583154D01*
X97774814Y-113311995D01*
X97747040Y-113030000D01*
X97774814Y-112748005D01*
X97857069Y-112476846D01*
X97990644Y-112226945D01*
X98170405Y-112007905D01*
X98389445Y-111828144D01*
X98639346Y-111694569D01*
X98910505Y-111612314D01*
X99016170Y-111601907D01*
X99121832Y-111591500D01*
X102038168Y-111591500D01*
X102143830Y-111601907D01*
X102143830Y-111601907D01*
G37*
G36*
X126023830Y-111601907D02*
G01*
X126129495Y-111612314D01*
X126400654Y-111694569D01*
X126650555Y-111828144D01*
X126869595Y-112007905D01*
X127049356Y-112226945D01*
X127182931Y-112476846D01*
X127265186Y-112748005D01*
X127292960Y-113030000D01*
X127265186Y-113311995D01*
X127182931Y-113583154D01*
X127049356Y-113833055D01*
X126869595Y-114052095D01*
X126650555Y-114231856D01*
X126400654Y-114365431D01*
X126129495Y-114447686D01*
X126023830Y-114458093D01*
X125918168Y-114468500D01*
X123001832Y-114468500D01*
X122896170Y-114458093D01*
X122790505Y-114447686D01*
X122519346Y-114365431D01*
X122269445Y-114231856D01*
X122050405Y-114052095D01*
X121870644Y-113833055D01*
X121737069Y-113583154D01*
X121654814Y-113311995D01*
X121627040Y-113030000D01*
X121654814Y-112748005D01*
X121737069Y-112476846D01*
X121870644Y-112226945D01*
X122050405Y-112007905D01*
X122269445Y-111828144D01*
X122519346Y-111694569D01*
X122790505Y-111612314D01*
X122896170Y-111601907D01*
X123001832Y-111591500D01*
X125918168Y-111591500D01*
X126023830Y-111601907D01*
X126023830Y-111601907D01*
G37*
G36*
X136183830Y-111601907D02*
G01*
X136289495Y-111612314D01*
X136560654Y-111694569D01*
X136810555Y-111828144D01*
X137029595Y-112007905D01*
X137209356Y-112226945D01*
X137342931Y-112476846D01*
X137425186Y-112748005D01*
X137452960Y-113030000D01*
X137425186Y-113311995D01*
X137342931Y-113583154D01*
X137209356Y-113833055D01*
X137029595Y-114052095D01*
X136810555Y-114231856D01*
X136560654Y-114365431D01*
X136289495Y-114447686D01*
X136183830Y-114458093D01*
X136078168Y-114468500D01*
X133161832Y-114468500D01*
X133056170Y-114458093D01*
X132950505Y-114447686D01*
X132679346Y-114365431D01*
X132429445Y-114231856D01*
X132210405Y-114052095D01*
X132030644Y-113833055D01*
X131897069Y-113583154D01*
X131814814Y-113311995D01*
X131787040Y-113030000D01*
X131814814Y-112748005D01*
X131897069Y-112476846D01*
X132030644Y-112226945D01*
X132210405Y-112007905D01*
X132429445Y-111828144D01*
X132679346Y-111694569D01*
X132950505Y-111612314D01*
X133056170Y-111601907D01*
X133161832Y-111591500D01*
X136078168Y-111591500D01*
X136183830Y-111601907D01*
X136183830Y-111601907D01*
G37*
G36*
X115863830Y-111601907D02*
G01*
X115969495Y-111612314D01*
X116240654Y-111694569D01*
X116490555Y-111828144D01*
X116709595Y-112007905D01*
X116889356Y-112226945D01*
X117022931Y-112476846D01*
X117105186Y-112748005D01*
X117132960Y-113030000D01*
X117105186Y-113311995D01*
X117022931Y-113583154D01*
X116889356Y-113833055D01*
X116709595Y-114052095D01*
X116490555Y-114231856D01*
X116240654Y-114365431D01*
X115969495Y-114447686D01*
X115863830Y-114458093D01*
X115758168Y-114468500D01*
X112841832Y-114468500D01*
X112736170Y-114458093D01*
X112630505Y-114447686D01*
X112359346Y-114365431D01*
X112109445Y-114231856D01*
X111890405Y-114052095D01*
X111710644Y-113833055D01*
X111577069Y-113583154D01*
X111494814Y-113311995D01*
X111467040Y-113030000D01*
X111494814Y-112748005D01*
X111577069Y-112476846D01*
X111710644Y-112226945D01*
X111890405Y-112007905D01*
X112109445Y-111828144D01*
X112359346Y-111694569D01*
X112630505Y-111612314D01*
X112736170Y-111601907D01*
X112841832Y-111591500D01*
X115758168Y-111591500D01*
X115863830Y-111601907D01*
X115863830Y-111601907D01*
G37*
G36*
X146343830Y-111601907D02*
G01*
X146449495Y-111612314D01*
X146720654Y-111694569D01*
X146970555Y-111828144D01*
X147189595Y-112007905D01*
X147369356Y-112226945D01*
X147502931Y-112476846D01*
X147585186Y-112748005D01*
X147612960Y-113030000D01*
X147585186Y-113311995D01*
X147502931Y-113583154D01*
X147369356Y-113833055D01*
X147189595Y-114052095D01*
X146970555Y-114231856D01*
X146720654Y-114365431D01*
X146449495Y-114447686D01*
X146343830Y-114458093D01*
X146238168Y-114468500D01*
X143321832Y-114468500D01*
X143216170Y-114458093D01*
X143110505Y-114447686D01*
X142839346Y-114365431D01*
X142589445Y-114231856D01*
X142370405Y-114052095D01*
X142190644Y-113833055D01*
X142057069Y-113583154D01*
X141974814Y-113311995D01*
X141947040Y-113030000D01*
X141974814Y-112748005D01*
X142057069Y-112476846D01*
X142190644Y-112226945D01*
X142370405Y-112007905D01*
X142589445Y-111828144D01*
X142839346Y-111694569D01*
X143110505Y-111612314D01*
X143216170Y-111601907D01*
X143321832Y-111591500D01*
X146238168Y-111591500D01*
X146343830Y-111601907D01*
X146343830Y-111601907D01*
G37*
G36*
X156503830Y-111601907D02*
G01*
X156609495Y-111612314D01*
X156880654Y-111694569D01*
X157130555Y-111828144D01*
X157349595Y-112007905D01*
X157529356Y-112226945D01*
X157662931Y-112476846D01*
X157745186Y-112748005D01*
X157772960Y-113030000D01*
X157745186Y-113311995D01*
X157662931Y-113583154D01*
X157529356Y-113833055D01*
X157349595Y-114052095D01*
X157130555Y-114231856D01*
X156880654Y-114365431D01*
X156609495Y-114447686D01*
X156503830Y-114458093D01*
X156398168Y-114468500D01*
X153481832Y-114468500D01*
X153376170Y-114458093D01*
X153270505Y-114447686D01*
X152999346Y-114365431D01*
X152749445Y-114231856D01*
X152530405Y-114052095D01*
X152350644Y-113833055D01*
X152217069Y-113583154D01*
X152134814Y-113311995D01*
X152107040Y-113030000D01*
X152134814Y-112748005D01*
X152217069Y-112476846D01*
X152350644Y-112226945D01*
X152530405Y-112007905D01*
X152749445Y-111828144D01*
X152999346Y-111694569D01*
X153270505Y-111612314D01*
X153376170Y-111601907D01*
X153481832Y-111591500D01*
X156398168Y-111591500D01*
X156503830Y-111601907D01*
X156503830Y-111601907D01*
G37*
G36*
X126023830Y-106901907D02*
G01*
X126129495Y-106912314D01*
X126400654Y-106994569D01*
X126650555Y-107128144D01*
X126869595Y-107307905D01*
X127049356Y-107526945D01*
X127182931Y-107776846D01*
X127265186Y-108048005D01*
X127292960Y-108330000D01*
X127265186Y-108611995D01*
X127182931Y-108883154D01*
X127049356Y-109133055D01*
X126869595Y-109352095D01*
X126650555Y-109531856D01*
X126400654Y-109665431D01*
X126129495Y-109747686D01*
X126023830Y-109758093D01*
X125918168Y-109768500D01*
X123001832Y-109768500D01*
X122896170Y-109758093D01*
X122790505Y-109747686D01*
X122519346Y-109665431D01*
X122269445Y-109531856D01*
X122050405Y-109352095D01*
X121870644Y-109133055D01*
X121737069Y-108883154D01*
X121654814Y-108611995D01*
X121627040Y-108330000D01*
X121654814Y-108048005D01*
X121737069Y-107776846D01*
X121870644Y-107526945D01*
X122050405Y-107307905D01*
X122269445Y-107128144D01*
X122519346Y-106994569D01*
X122790505Y-106912314D01*
X122896170Y-106901907D01*
X123001832Y-106891500D01*
X125918168Y-106891500D01*
X126023830Y-106901907D01*
X126023830Y-106901907D01*
G37*
G36*
X146343830Y-106901907D02*
G01*
X146449495Y-106912314D01*
X146720654Y-106994569D01*
X146970555Y-107128144D01*
X147189595Y-107307905D01*
X147369356Y-107526945D01*
X147502931Y-107776846D01*
X147585186Y-108048005D01*
X147612960Y-108330000D01*
X147585186Y-108611995D01*
X147502931Y-108883154D01*
X147369356Y-109133055D01*
X147189595Y-109352095D01*
X146970555Y-109531856D01*
X146720654Y-109665431D01*
X146449495Y-109747686D01*
X146343830Y-109758093D01*
X146238168Y-109768500D01*
X143321832Y-109768500D01*
X143216170Y-109758093D01*
X143110505Y-109747686D01*
X142839346Y-109665431D01*
X142589445Y-109531856D01*
X142370405Y-109352095D01*
X142190644Y-109133055D01*
X142057069Y-108883154D01*
X141974814Y-108611995D01*
X141947040Y-108330000D01*
X141974814Y-108048005D01*
X142057069Y-107776846D01*
X142190644Y-107526945D01*
X142370405Y-107307905D01*
X142589445Y-107128144D01*
X142839346Y-106994569D01*
X143110505Y-106912314D01*
X143216170Y-106901907D01*
X143321832Y-106891500D01*
X146238168Y-106891500D01*
X146343830Y-106901907D01*
X146343830Y-106901907D01*
G37*
G36*
X136183830Y-106901907D02*
G01*
X136289495Y-106912314D01*
X136560654Y-106994569D01*
X136810555Y-107128144D01*
X137029595Y-107307905D01*
X137209356Y-107526945D01*
X137342931Y-107776846D01*
X137425186Y-108048005D01*
X137452960Y-108330000D01*
X137425186Y-108611995D01*
X137342931Y-108883154D01*
X137209356Y-109133055D01*
X137029595Y-109352095D01*
X136810555Y-109531856D01*
X136560654Y-109665431D01*
X136289495Y-109747686D01*
X136183830Y-109758093D01*
X136078168Y-109768500D01*
X133161832Y-109768500D01*
X133056170Y-109758093D01*
X132950505Y-109747686D01*
X132679346Y-109665431D01*
X132429445Y-109531856D01*
X132210405Y-109352095D01*
X132030644Y-109133055D01*
X131897069Y-108883154D01*
X131814814Y-108611995D01*
X131787040Y-108330000D01*
X131814814Y-108048005D01*
X131897069Y-107776846D01*
X132030644Y-107526945D01*
X132210405Y-107307905D01*
X132429445Y-107128144D01*
X132679346Y-106994569D01*
X132950505Y-106912314D01*
X133056170Y-106901907D01*
X133161832Y-106891500D01*
X136078168Y-106891500D01*
X136183830Y-106901907D01*
X136183830Y-106901907D01*
G37*
G36*
X156503830Y-106901907D02*
G01*
X156609495Y-106912314D01*
X156880654Y-106994569D01*
X157130555Y-107128144D01*
X157349595Y-107307905D01*
X157529356Y-107526945D01*
X157662931Y-107776846D01*
X157745186Y-108048005D01*
X157772960Y-108330000D01*
X157745186Y-108611995D01*
X157662931Y-108883154D01*
X157529356Y-109133055D01*
X157349595Y-109352095D01*
X157130555Y-109531856D01*
X156880654Y-109665431D01*
X156609495Y-109747686D01*
X156503830Y-109758093D01*
X156398168Y-109768500D01*
X153481832Y-109768500D01*
X153376170Y-109758093D01*
X153270505Y-109747686D01*
X152999346Y-109665431D01*
X152749445Y-109531856D01*
X152530405Y-109352095D01*
X152350644Y-109133055D01*
X152217069Y-108883154D01*
X152134814Y-108611995D01*
X152107040Y-108330000D01*
X152134814Y-108048005D01*
X152217069Y-107776846D01*
X152350644Y-107526945D01*
X152530405Y-107307905D01*
X152749445Y-107128144D01*
X152999346Y-106994569D01*
X153270505Y-106912314D01*
X153376170Y-106901907D01*
X153481832Y-106891500D01*
X156398168Y-106891500D01*
X156503830Y-106901907D01*
X156503830Y-106901907D01*
G37*
G36*
X115863830Y-106901907D02*
G01*
X115969495Y-106912314D01*
X116240654Y-106994569D01*
X116490555Y-107128144D01*
X116709595Y-107307905D01*
X116889356Y-107526945D01*
X117022931Y-107776846D01*
X117105186Y-108048005D01*
X117132960Y-108330000D01*
X117105186Y-108611995D01*
X117022931Y-108883154D01*
X116889356Y-109133055D01*
X116709595Y-109352095D01*
X116490555Y-109531856D01*
X116240654Y-109665431D01*
X115969495Y-109747686D01*
X115863830Y-109758093D01*
X115758168Y-109768500D01*
X112841832Y-109768500D01*
X112736170Y-109758093D01*
X112630505Y-109747686D01*
X112359346Y-109665431D01*
X112109445Y-109531856D01*
X111890405Y-109352095D01*
X111710644Y-109133055D01*
X111577069Y-108883154D01*
X111494814Y-108611995D01*
X111467040Y-108330000D01*
X111494814Y-108048005D01*
X111577069Y-107776846D01*
X111710644Y-107526945D01*
X111890405Y-107307905D01*
X112109445Y-107128144D01*
X112359346Y-106994569D01*
X112630505Y-106912314D01*
X112736170Y-106901907D01*
X112841832Y-106891500D01*
X115758168Y-106891500D01*
X115863830Y-106901907D01*
X115863830Y-106901907D01*
G37*
G36*
X102143830Y-106901907D02*
G01*
X102249495Y-106912314D01*
X102520654Y-106994569D01*
X102770555Y-107128144D01*
X102989595Y-107307905D01*
X103169356Y-107526945D01*
X103302931Y-107776846D01*
X103385186Y-108048005D01*
X103412960Y-108330000D01*
X103385186Y-108611995D01*
X103302931Y-108883154D01*
X103169356Y-109133055D01*
X102989595Y-109352095D01*
X102770555Y-109531856D01*
X102520654Y-109665431D01*
X102249495Y-109747686D01*
X102143830Y-109758093D01*
X102038168Y-109768500D01*
X99121832Y-109768500D01*
X99016170Y-109758093D01*
X98910505Y-109747686D01*
X98639346Y-109665431D01*
X98389445Y-109531856D01*
X98170405Y-109352095D01*
X97990644Y-109133055D01*
X97857069Y-108883154D01*
X97774814Y-108611995D01*
X97747040Y-108330000D01*
X97774814Y-108048005D01*
X97857069Y-107776846D01*
X97990644Y-107526945D01*
X98170405Y-107307905D01*
X98389445Y-107128144D01*
X98639346Y-106994569D01*
X98910505Y-106912314D01*
X99016170Y-106901907D01*
X99121832Y-106891500D01*
X102038168Y-106891500D01*
X102143830Y-106901907D01*
X102143830Y-106901907D01*
G37*
G36*
X132195443Y-93934319D02*
G01*
X132261627Y-93940837D01*
X132431466Y-93992357D01*
X132587991Y-94076022D01*
X132623729Y-94105352D01*
X132725186Y-94188614D01*
X132808448Y-94290071D01*
X132837778Y-94325809D01*
X132921443Y-94482334D01*
X132972963Y-94652173D01*
X132990359Y-94828800D01*
X132972963Y-95005427D01*
X132921443Y-95175266D01*
X132837778Y-95331791D01*
X132808448Y-95367529D01*
X132725186Y-95468986D01*
X132623729Y-95552248D01*
X132587991Y-95581578D01*
X132431466Y-95665243D01*
X132261627Y-95716763D01*
X132195443Y-95723281D01*
X132129260Y-95729800D01*
X132040740Y-95729800D01*
X131974558Y-95723282D01*
X131908373Y-95716763D01*
X131738534Y-95665243D01*
X131582009Y-95581578D01*
X131546271Y-95552248D01*
X131444814Y-95468986D01*
X131361552Y-95367529D01*
X131332222Y-95331791D01*
X131248557Y-95175266D01*
X131197037Y-95005427D01*
X131179641Y-94828800D01*
X131197037Y-94652173D01*
X131248557Y-94482334D01*
X131332222Y-94325809D01*
X131361552Y-94290071D01*
X131444814Y-94188614D01*
X131546271Y-94105352D01*
X131582009Y-94076022D01*
X131738534Y-93992357D01*
X131908373Y-93940837D01*
X131974557Y-93934319D01*
X132040740Y-93927800D01*
X132129260Y-93927800D01*
X132195443Y-93934319D01*
X132195443Y-93934319D01*
G37*
G36*
X137275443Y-93934319D02*
G01*
X137341627Y-93940837D01*
X137511466Y-93992357D01*
X137667991Y-94076022D01*
X137703729Y-94105352D01*
X137805186Y-94188614D01*
X137888448Y-94290071D01*
X137917778Y-94325809D01*
X138001443Y-94482334D01*
X138052963Y-94652173D01*
X138070359Y-94828800D01*
X138052963Y-95005427D01*
X138001443Y-95175266D01*
X137917778Y-95331791D01*
X137888448Y-95367529D01*
X137805186Y-95468986D01*
X137703729Y-95552248D01*
X137667991Y-95581578D01*
X137511466Y-95665243D01*
X137341627Y-95716763D01*
X137275443Y-95723281D01*
X137209260Y-95729800D01*
X137120740Y-95729800D01*
X137054558Y-95723282D01*
X136988373Y-95716763D01*
X136818534Y-95665243D01*
X136662009Y-95581578D01*
X136626271Y-95552248D01*
X136524814Y-95468986D01*
X136441552Y-95367529D01*
X136412222Y-95331791D01*
X136328557Y-95175266D01*
X136277037Y-95005427D01*
X136259641Y-94828800D01*
X136277037Y-94652173D01*
X136328557Y-94482334D01*
X136412222Y-94325809D01*
X136441552Y-94290071D01*
X136524814Y-94188614D01*
X136626271Y-94105352D01*
X136662009Y-94076022D01*
X136818534Y-93992357D01*
X136988373Y-93940837D01*
X137054557Y-93934319D01*
X137120740Y-93927800D01*
X137209260Y-93927800D01*
X137275443Y-93934319D01*
X137275443Y-93934319D01*
G37*
G36*
X134735443Y-93934319D02*
G01*
X134801627Y-93940837D01*
X134971466Y-93992357D01*
X135127991Y-94076022D01*
X135163729Y-94105352D01*
X135265186Y-94188614D01*
X135348448Y-94290071D01*
X135377778Y-94325809D01*
X135461443Y-94482334D01*
X135512963Y-94652173D01*
X135530359Y-94828800D01*
X135512963Y-95005427D01*
X135461443Y-95175266D01*
X135377778Y-95331791D01*
X135348448Y-95367529D01*
X135265186Y-95468986D01*
X135163729Y-95552248D01*
X135127991Y-95581578D01*
X134971466Y-95665243D01*
X134801627Y-95716763D01*
X134735443Y-95723281D01*
X134669260Y-95729800D01*
X134580740Y-95729800D01*
X134514558Y-95723282D01*
X134448373Y-95716763D01*
X134278534Y-95665243D01*
X134122009Y-95581578D01*
X134086271Y-95552248D01*
X133984814Y-95468986D01*
X133901552Y-95367529D01*
X133872222Y-95331791D01*
X133788557Y-95175266D01*
X133737037Y-95005427D01*
X133719641Y-94828800D01*
X133737037Y-94652173D01*
X133788557Y-94482334D01*
X133872222Y-94325809D01*
X133901552Y-94290071D01*
X133984814Y-94188614D01*
X134086271Y-94105352D01*
X134122009Y-94076022D01*
X134278534Y-93992357D01*
X134448373Y-93940837D01*
X134514557Y-93934319D01*
X134580740Y-93927800D01*
X134669260Y-93927800D01*
X134735443Y-93934319D01*
X134735443Y-93934319D01*
G37*
G36*
X130446000Y-95729800D02*
G01*
X128644000Y-95729800D01*
X128644000Y-93927800D01*
X130446000Y-93927800D01*
X130446000Y-95729800D01*
X130446000Y-95729800D01*
G37*
G36*
X139815443Y-93934319D02*
G01*
X139881627Y-93940837D01*
X140051466Y-93992357D01*
X140207991Y-94076022D01*
X140243729Y-94105352D01*
X140345186Y-94188614D01*
X140428448Y-94290071D01*
X140457778Y-94325809D01*
X140541443Y-94482334D01*
X140592963Y-94652173D01*
X140610359Y-94828800D01*
X140592963Y-95005427D01*
X140541443Y-95175266D01*
X140457778Y-95331791D01*
X140428448Y-95367529D01*
X140345186Y-95468986D01*
X140243729Y-95552248D01*
X140207991Y-95581578D01*
X140051466Y-95665243D01*
X139881627Y-95716763D01*
X139815443Y-95723281D01*
X139749260Y-95729800D01*
X139660740Y-95729800D01*
X139594558Y-95723282D01*
X139528373Y-95716763D01*
X139358534Y-95665243D01*
X139202009Y-95581578D01*
X139166271Y-95552248D01*
X139064814Y-95468986D01*
X138981552Y-95367529D01*
X138952222Y-95331791D01*
X138868557Y-95175266D01*
X138817037Y-95005427D01*
X138799641Y-94828800D01*
X138817037Y-94652173D01*
X138868557Y-94482334D01*
X138952222Y-94325809D01*
X138981552Y-94290071D01*
X139064814Y-94188614D01*
X139166271Y-94105352D01*
X139202009Y-94076022D01*
X139358534Y-93992357D01*
X139528373Y-93940837D01*
X139594557Y-93934319D01*
X139660740Y-93927800D01*
X139749260Y-93927800D01*
X139815443Y-93934319D01*
X139815443Y-93934319D01*
G37*
G36*
X139728228Y-79641165D02*
G01*
X139883100Y-79705315D01*
X140022481Y-79798447D01*
X140141015Y-79916981D01*
X140234147Y-80056362D01*
X140298297Y-80211234D01*
X140331000Y-80375646D01*
X140331000Y-80543278D01*
X140298297Y-80707690D01*
X140234147Y-80862562D01*
X140141015Y-81001943D01*
X140022481Y-81120477D01*
X139883100Y-81213609D01*
X139728228Y-81277759D01*
X139563816Y-81310462D01*
X139396184Y-81310462D01*
X139231772Y-81277759D01*
X139076900Y-81213609D01*
X138937519Y-81120477D01*
X138818985Y-81001943D01*
X138725853Y-80862562D01*
X138661703Y-80707690D01*
X138629000Y-80543278D01*
X138629000Y-80375646D01*
X138661703Y-80211234D01*
X138725853Y-80056362D01*
X138818985Y-79916981D01*
X138937519Y-79798447D01*
X139076900Y-79705315D01*
X139231772Y-79641165D01*
X139396184Y-79608462D01*
X139563816Y-79608462D01*
X139728228Y-79641165D01*
X139728228Y-79641165D01*
G37*
G36*
X132858228Y-79641165D02*
G01*
X133013100Y-79705315D01*
X133152481Y-79798447D01*
X133271015Y-79916981D01*
X133364147Y-80056362D01*
X133428297Y-80211234D01*
X133461000Y-80375646D01*
X133461000Y-80543278D01*
X133428297Y-80707690D01*
X133364147Y-80862562D01*
X133271015Y-81001943D01*
X133152481Y-81120477D01*
X133013100Y-81213609D01*
X132858228Y-81277759D01*
X132693816Y-81310462D01*
X132526184Y-81310462D01*
X132361772Y-81277759D01*
X132206900Y-81213609D01*
X132067519Y-81120477D01*
X131948985Y-81001943D01*
X131855853Y-80862562D01*
X131791703Y-80707690D01*
X131759000Y-80543278D01*
X131759000Y-80375646D01*
X131791703Y-80211234D01*
X131855853Y-80056362D01*
X131948985Y-79916981D01*
X132067519Y-79798447D01*
X132206900Y-79705315D01*
X132361772Y-79641165D01*
X132526184Y-79608462D01*
X132693816Y-79608462D01*
X132858228Y-79641165D01*
X132858228Y-79641165D01*
G37*
G36*
X135148228Y-79641165D02*
G01*
X135303100Y-79705315D01*
X135442481Y-79798447D01*
X135561015Y-79916981D01*
X135654147Y-80056362D01*
X135718297Y-80211234D01*
X135751000Y-80375646D01*
X135751000Y-80543278D01*
X135718297Y-80707690D01*
X135654147Y-80862562D01*
X135561015Y-81001943D01*
X135442481Y-81120477D01*
X135303100Y-81213609D01*
X135148228Y-81277759D01*
X134983816Y-81310462D01*
X134816184Y-81310462D01*
X134651772Y-81277759D01*
X134496900Y-81213609D01*
X134357519Y-81120477D01*
X134238985Y-81001943D01*
X134145853Y-80862562D01*
X134081703Y-80707690D01*
X134049000Y-80543278D01*
X134049000Y-80375646D01*
X134081703Y-80211234D01*
X134145853Y-80056362D01*
X134238985Y-79916981D01*
X134357519Y-79798447D01*
X134496900Y-79705315D01*
X134651772Y-79641165D01*
X134816184Y-79608462D01*
X134983816Y-79608462D01*
X135148228Y-79641165D01*
X135148228Y-79641165D01*
G37*
G36*
X137438228Y-79641165D02*
G01*
X137593100Y-79705315D01*
X137732481Y-79798447D01*
X137851015Y-79916981D01*
X137944147Y-80056362D01*
X138008297Y-80211234D01*
X138041000Y-80375646D01*
X138041000Y-80543278D01*
X138008297Y-80707690D01*
X137944147Y-80862562D01*
X137851015Y-81001943D01*
X137732481Y-81120477D01*
X137593100Y-81213609D01*
X137438228Y-81277759D01*
X137273816Y-81310462D01*
X137106184Y-81310462D01*
X136941772Y-81277759D01*
X136786900Y-81213609D01*
X136647519Y-81120477D01*
X136528985Y-81001943D01*
X136435853Y-80862562D01*
X136371703Y-80707690D01*
X136339000Y-80543278D01*
X136339000Y-80375646D01*
X136371703Y-80211234D01*
X136435853Y-80056362D01*
X136528985Y-79916981D01*
X136647519Y-79798447D01*
X136786900Y-79705315D01*
X136941772Y-79641165D01*
X137106184Y-79608462D01*
X137273816Y-79608462D01*
X137438228Y-79641165D01*
X137438228Y-79641165D01*
G37*
G36*
X131171000Y-81310462D02*
G01*
X129469000Y-81310462D01*
X129469000Y-79608462D01*
X131171000Y-79608462D01*
X131171000Y-81310462D01*
X131171000Y-81310462D01*
G37*
G36*
X147733254Y-77067280D02*
G01*
X148106511Y-77221888D01*
X148106513Y-77221889D01*
X148249989Y-77317757D01*
X148442436Y-77446346D01*
X148728116Y-77732026D01*
X148952574Y-78067951D01*
X149107182Y-78441208D01*
X149186000Y-78837455D01*
X149186000Y-79241469D01*
X149107182Y-79637716D01*
X148991506Y-79916982D01*
X148952573Y-80010975D01*
X148728116Y-80346898D01*
X148442436Y-80632578D01*
X148106513Y-80857035D01*
X148106512Y-80857036D01*
X148106511Y-80857036D01*
X147733254Y-81011644D01*
X147337007Y-81090462D01*
X146932993Y-81090462D01*
X146536746Y-81011644D01*
X146163489Y-80857036D01*
X146163488Y-80857036D01*
X146163487Y-80857035D01*
X145827564Y-80632578D01*
X145541884Y-80346898D01*
X145317427Y-80010975D01*
X145278494Y-79916982D01*
X145162818Y-79637716D01*
X145084000Y-79241469D01*
X145084000Y-78837455D01*
X145162818Y-78441208D01*
X145317426Y-78067951D01*
X145541884Y-77732026D01*
X145827564Y-77446346D01*
X146020011Y-77317757D01*
X146163487Y-77221889D01*
X146163489Y-77221888D01*
X146536746Y-77067280D01*
X146932993Y-76988462D01*
X147337007Y-76988462D01*
X147733254Y-77067280D01*
X147733254Y-77067280D01*
G37*
G36*
X122733254Y-77067280D02*
G01*
X123106511Y-77221888D01*
X123106513Y-77221889D01*
X123249989Y-77317757D01*
X123442436Y-77446346D01*
X123728116Y-77732026D01*
X123952574Y-78067951D01*
X124107182Y-78441208D01*
X124186000Y-78837455D01*
X124186000Y-79241469D01*
X124107182Y-79637716D01*
X123991506Y-79916982D01*
X123952573Y-80010975D01*
X123728116Y-80346898D01*
X123442436Y-80632578D01*
X123106513Y-80857035D01*
X123106512Y-80857036D01*
X123106511Y-80857036D01*
X122733254Y-81011644D01*
X122337007Y-81090462D01*
X121932993Y-81090462D01*
X121536746Y-81011644D01*
X121163489Y-80857036D01*
X121163488Y-80857036D01*
X121163487Y-80857035D01*
X120827564Y-80632578D01*
X120541884Y-80346898D01*
X120317427Y-80010975D01*
X120278494Y-79916982D01*
X120162818Y-79637716D01*
X120084000Y-79241469D01*
X120084000Y-78837455D01*
X120162818Y-78441208D01*
X120317426Y-78067951D01*
X120541884Y-77732026D01*
X120827564Y-77446346D01*
X121020011Y-77317757D01*
X121163487Y-77221889D01*
X121163489Y-77221888D01*
X121536746Y-77067280D01*
X121932993Y-76988462D01*
X122337007Y-76988462D01*
X122733254Y-77067280D01*
X122733254Y-77067280D01*
G37*
G36*
X136293228Y-77661165D02*
G01*
X136448100Y-77725315D01*
X136587481Y-77818447D01*
X136706015Y-77936981D01*
X136799147Y-78076362D01*
X136863297Y-78231234D01*
X136896000Y-78395646D01*
X136896000Y-78563278D01*
X136863297Y-78727690D01*
X136799147Y-78882562D01*
X136706015Y-79021943D01*
X136587481Y-79140477D01*
X136448100Y-79233609D01*
X136293228Y-79297759D01*
X136128816Y-79330462D01*
X135961184Y-79330462D01*
X135796772Y-79297759D01*
X135641900Y-79233609D01*
X135502519Y-79140477D01*
X135383985Y-79021943D01*
X135290853Y-78882562D01*
X135226703Y-78727690D01*
X135194000Y-78563278D01*
X135194000Y-78395646D01*
X135226703Y-78231234D01*
X135290853Y-78076362D01*
X135383985Y-77936981D01*
X135502519Y-77818447D01*
X135641900Y-77725315D01*
X135796772Y-77661165D01*
X135961184Y-77628462D01*
X136128816Y-77628462D01*
X136293228Y-77661165D01*
X136293228Y-77661165D01*
G37*
G36*
X138583228Y-77661165D02*
G01*
X138738100Y-77725315D01*
X138877481Y-77818447D01*
X138996015Y-77936981D01*
X139089147Y-78076362D01*
X139153297Y-78231234D01*
X139186000Y-78395646D01*
X139186000Y-78563278D01*
X139153297Y-78727690D01*
X139089147Y-78882562D01*
X138996015Y-79021943D01*
X138877481Y-79140477D01*
X138738100Y-79233609D01*
X138583228Y-79297759D01*
X138418816Y-79330462D01*
X138251184Y-79330462D01*
X138086772Y-79297759D01*
X137931900Y-79233609D01*
X137792519Y-79140477D01*
X137673985Y-79021943D01*
X137580853Y-78882562D01*
X137516703Y-78727690D01*
X137484000Y-78563278D01*
X137484000Y-78395646D01*
X137516703Y-78231234D01*
X137580853Y-78076362D01*
X137673985Y-77936981D01*
X137792519Y-77818447D01*
X137931900Y-77725315D01*
X138086772Y-77661165D01*
X138251184Y-77628462D01*
X138418816Y-77628462D01*
X138583228Y-77661165D01*
X138583228Y-77661165D01*
G37*
G36*
X134003228Y-77661165D02*
G01*
X134158100Y-77725315D01*
X134297481Y-77818447D01*
X134416015Y-77936981D01*
X134509147Y-78076362D01*
X134573297Y-78231234D01*
X134606000Y-78395646D01*
X134606000Y-78563278D01*
X134573297Y-78727690D01*
X134509147Y-78882562D01*
X134416015Y-79021943D01*
X134297481Y-79140477D01*
X134158100Y-79233609D01*
X134003228Y-79297759D01*
X133838816Y-79330462D01*
X133671184Y-79330462D01*
X133506772Y-79297759D01*
X133351900Y-79233609D01*
X133212519Y-79140477D01*
X133093985Y-79021943D01*
X133000853Y-78882562D01*
X132936703Y-78727690D01*
X132904000Y-78563278D01*
X132904000Y-78395646D01*
X132936703Y-78231234D01*
X133000853Y-78076362D01*
X133093985Y-77936981D01*
X133212519Y-77818447D01*
X133351900Y-77725315D01*
X133506772Y-77661165D01*
X133671184Y-77628462D01*
X133838816Y-77628462D01*
X134003228Y-77661165D01*
X134003228Y-77661165D01*
G37*
G36*
X131713228Y-77661165D02*
G01*
X131868100Y-77725315D01*
X132007481Y-77818447D01*
X132126015Y-77936981D01*
X132219147Y-78076362D01*
X132283297Y-78231234D01*
X132316000Y-78395646D01*
X132316000Y-78563278D01*
X132283297Y-78727690D01*
X132219147Y-78882562D01*
X132126015Y-79021943D01*
X132007481Y-79140477D01*
X131868100Y-79233609D01*
X131713228Y-79297759D01*
X131548816Y-79330462D01*
X131381184Y-79330462D01*
X131216772Y-79297759D01*
X131061900Y-79233609D01*
X130922519Y-79140477D01*
X130803985Y-79021943D01*
X130710853Y-78882562D01*
X130646703Y-78727690D01*
X130614000Y-78563278D01*
X130614000Y-78395646D01*
X130646703Y-78231234D01*
X130710853Y-78076362D01*
X130803985Y-77936981D01*
X130922519Y-77818447D01*
X131061900Y-77725315D01*
X131216772Y-77661165D01*
X131381184Y-77628462D01*
X131548816Y-77628462D01*
X131713228Y-77661165D01*
X131713228Y-77661165D01*
G37*
G36*
X129423228Y-77661165D02*
G01*
X129578100Y-77725315D01*
X129717481Y-77818447D01*
X129836015Y-77936981D01*
X129929147Y-78076362D01*
X129993297Y-78231234D01*
X130026000Y-78395646D01*
X130026000Y-78563278D01*
X129993297Y-78727690D01*
X129929147Y-78882562D01*
X129836015Y-79021943D01*
X129717481Y-79140477D01*
X129578100Y-79233609D01*
X129423228Y-79297759D01*
X129258816Y-79330462D01*
X129091184Y-79330462D01*
X128926772Y-79297759D01*
X128771900Y-79233609D01*
X128632519Y-79140477D01*
X128513985Y-79021943D01*
X128420853Y-78882562D01*
X128356703Y-78727690D01*
X128324000Y-78563278D01*
X128324000Y-78395646D01*
X128356703Y-78231234D01*
X128420853Y-78076362D01*
X128513985Y-77936981D01*
X128632519Y-77818447D01*
X128771900Y-77725315D01*
X128926772Y-77661165D01*
X129091184Y-77628462D01*
X129258816Y-77628462D01*
X129423228Y-77661165D01*
X129423228Y-77661165D01*
G37*
G36*
X139728228Y-75681165D02*
G01*
X139883100Y-75745315D01*
X140022481Y-75838447D01*
X140141015Y-75956981D01*
X140234147Y-76096362D01*
X140298297Y-76251234D01*
X140331000Y-76415646D01*
X140331000Y-76583278D01*
X140298297Y-76747690D01*
X140234147Y-76902562D01*
X140141015Y-77041943D01*
X140022481Y-77160477D01*
X139883100Y-77253609D01*
X139728228Y-77317759D01*
X139563816Y-77350462D01*
X139396184Y-77350462D01*
X139231772Y-77317759D01*
X139076900Y-77253609D01*
X138937519Y-77160477D01*
X138818985Y-77041943D01*
X138725853Y-76902562D01*
X138661703Y-76747690D01*
X138629000Y-76583278D01*
X138629000Y-76415646D01*
X138661703Y-76251234D01*
X138725853Y-76096362D01*
X138818985Y-75956981D01*
X138937519Y-75838447D01*
X139076900Y-75745315D01*
X139231772Y-75681165D01*
X139396184Y-75648462D01*
X139563816Y-75648462D01*
X139728228Y-75681165D01*
X139728228Y-75681165D01*
G37*
G36*
X130568228Y-75681165D02*
G01*
X130723100Y-75745315D01*
X130862481Y-75838447D01*
X130981015Y-75956981D01*
X131074147Y-76096362D01*
X131138297Y-76251234D01*
X131171000Y-76415646D01*
X131171000Y-76583278D01*
X131138297Y-76747690D01*
X131074147Y-76902562D01*
X130981015Y-77041943D01*
X130862481Y-77160477D01*
X130723100Y-77253609D01*
X130568228Y-77317759D01*
X130403816Y-77350462D01*
X130236184Y-77350462D01*
X130071772Y-77317759D01*
X129916900Y-77253609D01*
X129777519Y-77160477D01*
X129658985Y-77041943D01*
X129565853Y-76902562D01*
X129501703Y-76747690D01*
X129469000Y-76583278D01*
X129469000Y-76415646D01*
X129501703Y-76251234D01*
X129565853Y-76096362D01*
X129658985Y-75956981D01*
X129777519Y-75838447D01*
X129916900Y-75745315D01*
X130071772Y-75681165D01*
X130236184Y-75648462D01*
X130403816Y-75648462D01*
X130568228Y-75681165D01*
X130568228Y-75681165D01*
G37*
G36*
X132858228Y-75681165D02*
G01*
X133013100Y-75745315D01*
X133152481Y-75838447D01*
X133271015Y-75956981D01*
X133364147Y-76096362D01*
X133428297Y-76251234D01*
X133461000Y-76415646D01*
X133461000Y-76583278D01*
X133428297Y-76747690D01*
X133364147Y-76902562D01*
X133271015Y-77041943D01*
X133152481Y-77160477D01*
X133013100Y-77253609D01*
X132858228Y-77317759D01*
X132693816Y-77350462D01*
X132526184Y-77350462D01*
X132361772Y-77317759D01*
X132206900Y-77253609D01*
X132067519Y-77160477D01*
X131948985Y-77041943D01*
X131855853Y-76902562D01*
X131791703Y-76747690D01*
X131759000Y-76583278D01*
X131759000Y-76415646D01*
X131791703Y-76251234D01*
X131855853Y-76096362D01*
X131948985Y-75956981D01*
X132067519Y-75838447D01*
X132206900Y-75745315D01*
X132361772Y-75681165D01*
X132526184Y-75648462D01*
X132693816Y-75648462D01*
X132858228Y-75681165D01*
X132858228Y-75681165D01*
G37*
G36*
X135148228Y-75681165D02*
G01*
X135303100Y-75745315D01*
X135442481Y-75838447D01*
X135561015Y-75956981D01*
X135654147Y-76096362D01*
X135718297Y-76251234D01*
X135751000Y-76415646D01*
X135751000Y-76583278D01*
X135718297Y-76747690D01*
X135654147Y-76902562D01*
X135561015Y-77041943D01*
X135442481Y-77160477D01*
X135303100Y-77253609D01*
X135148228Y-77317759D01*
X134983816Y-77350462D01*
X134816184Y-77350462D01*
X134651772Y-77317759D01*
X134496900Y-77253609D01*
X134357519Y-77160477D01*
X134238985Y-77041943D01*
X134145853Y-76902562D01*
X134081703Y-76747690D01*
X134049000Y-76583278D01*
X134049000Y-76415646D01*
X134081703Y-76251234D01*
X134145853Y-76096362D01*
X134238985Y-75956981D01*
X134357519Y-75838447D01*
X134496900Y-75745315D01*
X134651772Y-75681165D01*
X134816184Y-75648462D01*
X134983816Y-75648462D01*
X135148228Y-75681165D01*
X135148228Y-75681165D01*
G37*
G36*
X137438228Y-75681165D02*
G01*
X137593100Y-75745315D01*
X137732481Y-75838447D01*
X137851015Y-75956981D01*
X137944147Y-76096362D01*
X138008297Y-76251234D01*
X138041000Y-76415646D01*
X138041000Y-76583278D01*
X138008297Y-76747690D01*
X137944147Y-76902562D01*
X137851015Y-77041943D01*
X137732481Y-77160477D01*
X137593100Y-77253609D01*
X137438228Y-77317759D01*
X137273816Y-77350462D01*
X137106184Y-77350462D01*
X136941772Y-77317759D01*
X136786900Y-77253609D01*
X136647519Y-77160477D01*
X136528985Y-77041943D01*
X136435853Y-76902562D01*
X136371703Y-76747690D01*
X136339000Y-76583278D01*
X136339000Y-76415646D01*
X136371703Y-76251234D01*
X136435853Y-76096362D01*
X136528985Y-75956981D01*
X136647519Y-75838447D01*
X136786900Y-75745315D01*
X136941772Y-75681165D01*
X137106184Y-75648462D01*
X137273816Y-75648462D01*
X137438228Y-75681165D01*
X137438228Y-75681165D01*
G37*
M02*
