M48
; DRILL file {KiCad 5.1.4-e60b266~84~ubuntu19.04.1} date Čt 12. září 2019, 00:49:52 CEST
; FORMAT={-:-/ absolute / inch / decimal}
; #@! TF.CreationDate,2019-09-12T00:49:52+02:00
; #@! TF.GenerationSoftware,Kicad,Pcbnew,5.1.4-e60b266~84~ubuntu19.04.1
; #@! TF.FileFunction,Plated,1,2,PTH
FMAT,2
INCH
T1C0.0157
T2C0.0394
T3C0.0728
T4C0.1260
%
G90
G05
T1
X4.2655Y-4.0856
X4.8255Y-3.8856
X6.8055Y-4.0456
X7.3255Y-4.3556
T2
X5.0689Y-2.5252
X5.0689Y-2.6252
X7.0678Y-3.7463
X7.0678Y-3.8365
X7.0678Y-3.9266
X7.0678Y-4.0168
X7.0678Y-4.1069
X7.1458Y-3.7012
X7.1458Y-3.7914
X7.1458Y-3.8815
X7.1458Y-3.9717
X7.1458Y-4.0619
X7.2237Y-3.7463
X7.2237Y-3.8365
X7.2237Y-3.9266
X7.2237Y-4.0168
X7.2237Y-4.1069
X5.0689Y-3.7158
X5.0689Y-3.8158
X5.0689Y-3.9158
X5.0689Y-4.0158
X5.0689Y-4.1158
X6.5021Y-3.7158
X6.5021Y-3.8158
X6.5021Y-3.9158
X6.5021Y-4.0158
X6.5021Y-4.1158
X4.3642Y-3.7243
X4.3642Y-3.8144
X4.3642Y-3.9046
X4.3642Y-3.9947
X4.3642Y-4.0849
X4.4422Y-3.7693
X4.4422Y-3.8595
X4.4422Y-3.9497
X4.4422Y-4.0398
X4.4422Y-4.13
X4.5201Y-3.7243
X4.5201Y-3.8144
X4.5201Y-3.9046
X4.5201Y-3.9947
X4.5201Y-4.0849
T3
X5.6005Y-3.1156
X5.7855Y-3.1156
X5.9705Y-3.1156
X5.6005Y-4.3156
X5.7855Y-4.3156
X5.9705Y-4.3156
X5.6005Y-3.9156
X5.7855Y-3.9156
X5.9705Y-3.9156
X5.6005Y-3.5156
X5.7855Y-3.5156
X5.9705Y-3.5156
X5.6005Y-4.7156
X5.7855Y-4.7156
X5.9705Y-4.7156
X5.6005Y-2.5754
X5.7855Y-2.5754
X5.9705Y-2.5754
T4
X7.1237Y-3.4241
X7.1237Y-4.4083
X4.4642Y-3.4229
X4.4642Y-4.4071
T0
M30
