G04 #@! TF.GenerationSoftware,KiCad,Pcbnew,5.1.4-e60b266~84~ubuntu19.04.1*
G04 #@! TF.CreationDate,2019-09-12T00:49:54+02:00*
G04 #@! TF.ProjectId,VGABreakout,56474142-7265-4616-9b6f-75742e6b6963,1.0.2*
G04 #@! TF.SameCoordinates,Original*
G04 #@! TF.FileFunction,Soldermask,Top*
G04 #@! TF.FilePolarity,Negative*
%FSLAX46Y46*%
G04 Gerber Fmt 4.6, Leading zero omitted, Abs format (unit mm)*
G04 Created by KiCad (PCBNEW 5.1.4-e60b266~84~ubuntu19.04.1) date 2019-09-12 00:49:54*
%MOMM*%
%LPD*%
G04 APERTURE LIST*
%ADD10C,0.100000*%
G04 APERTURE END LIST*
D10*
G36*
X142533695Y-116971054D02*
G01*
X142804854Y-117053309D01*
X143054755Y-117186884D01*
X143273795Y-117366645D01*
X143453556Y-117585685D01*
X143587131Y-117835586D01*
X143669386Y-118106745D01*
X143690200Y-118318074D01*
X143690200Y-121234406D01*
X143669386Y-121445735D01*
X143587131Y-121716894D01*
X143453556Y-121966795D01*
X143383315Y-122052384D01*
X143273795Y-122185835D01*
X143150840Y-122286740D01*
X143054754Y-122365596D01*
X142804853Y-122499171D01*
X142533694Y-122581426D01*
X142251700Y-122609200D01*
X141969705Y-122581426D01*
X141698546Y-122499171D01*
X141448645Y-122365596D01*
X141363056Y-122295355D01*
X141229605Y-122185835D01*
X141049845Y-121966795D01*
X141049844Y-121966794D01*
X140916269Y-121716893D01*
X140834014Y-121445734D01*
X140813200Y-121234405D01*
X140813201Y-118318074D01*
X140834015Y-118106745D01*
X140916270Y-117835586D01*
X141049845Y-117585685D01*
X141229606Y-117366645D01*
X141448646Y-117186884D01*
X141698547Y-117053309D01*
X141969706Y-116971054D01*
X142251700Y-116943280D01*
X142533695Y-116971054D01*
X142533695Y-116971054D01*
G37*
G36*
X147233695Y-116971054D02*
G01*
X147504854Y-117053309D01*
X147754755Y-117186884D01*
X147973795Y-117366645D01*
X148153556Y-117585685D01*
X148287131Y-117835586D01*
X148369386Y-118106745D01*
X148390200Y-118318074D01*
X148390200Y-121234406D01*
X148369386Y-121445735D01*
X148287131Y-121716894D01*
X148153556Y-121966795D01*
X148083315Y-122052384D01*
X147973795Y-122185835D01*
X147850840Y-122286740D01*
X147754754Y-122365596D01*
X147504853Y-122499171D01*
X147233694Y-122581426D01*
X146951700Y-122609200D01*
X146669705Y-122581426D01*
X146398546Y-122499171D01*
X146148645Y-122365596D01*
X146063056Y-122295355D01*
X145929605Y-122185835D01*
X145749845Y-121966795D01*
X145749844Y-121966794D01*
X145616269Y-121716893D01*
X145534014Y-121445734D01*
X145513200Y-121234405D01*
X145513201Y-118318074D01*
X145534015Y-118106745D01*
X145616270Y-117835586D01*
X145749845Y-117585685D01*
X145929606Y-117366645D01*
X146148646Y-117186884D01*
X146398547Y-117053309D01*
X146669706Y-116971054D01*
X146951700Y-116943280D01*
X147233695Y-116971054D01*
X147233695Y-116971054D01*
G37*
G36*
X151933695Y-116971054D02*
G01*
X152204854Y-117053309D01*
X152454755Y-117186884D01*
X152673795Y-117366645D01*
X152853556Y-117585685D01*
X152987131Y-117835586D01*
X153069386Y-118106745D01*
X153090200Y-118318074D01*
X153090200Y-121234406D01*
X153069386Y-121445735D01*
X152987131Y-121716894D01*
X152853556Y-121966795D01*
X152783315Y-122052384D01*
X152673795Y-122185835D01*
X152550840Y-122286740D01*
X152454754Y-122365596D01*
X152204853Y-122499171D01*
X151933694Y-122581426D01*
X151651700Y-122609200D01*
X151369705Y-122581426D01*
X151098546Y-122499171D01*
X150848645Y-122365596D01*
X150763056Y-122295355D01*
X150629605Y-122185835D01*
X150449845Y-121966795D01*
X150449844Y-121966794D01*
X150316269Y-121716893D01*
X150234014Y-121445734D01*
X150213200Y-121234405D01*
X150213201Y-118318074D01*
X150234015Y-118106745D01*
X150316270Y-117835586D01*
X150449845Y-117585685D01*
X150629606Y-117366645D01*
X150848646Y-117186884D01*
X151098547Y-117053309D01*
X151369706Y-116971054D01*
X151651700Y-116943280D01*
X151933695Y-116971054D01*
X151933695Y-116971054D01*
G37*
G36*
X181540492Y-109999058D02*
G01*
X181913749Y-110153666D01*
X181913751Y-110153667D01*
X182249674Y-110378124D01*
X182535354Y-110663804D01*
X182739766Y-110969727D01*
X182759812Y-110999729D01*
X182914420Y-111372986D01*
X182993238Y-111769233D01*
X182993238Y-112173247D01*
X182914420Y-112569494D01*
X182759812Y-112942751D01*
X182759811Y-112942753D01*
X182535354Y-113278676D01*
X182249674Y-113564356D01*
X181913751Y-113788813D01*
X181913750Y-113788814D01*
X181913749Y-113788814D01*
X181540492Y-113943422D01*
X181144245Y-114022240D01*
X180740231Y-114022240D01*
X180343984Y-113943422D01*
X179970727Y-113788814D01*
X179970726Y-113788814D01*
X179970725Y-113788813D01*
X179634802Y-113564356D01*
X179349122Y-113278676D01*
X179124665Y-112942753D01*
X179124664Y-112942751D01*
X178970056Y-112569494D01*
X178891238Y-112173247D01*
X178891238Y-111769233D01*
X178970056Y-111372986D01*
X179124664Y-110999729D01*
X179144711Y-110969727D01*
X179349122Y-110663804D01*
X179634802Y-110378124D01*
X179970725Y-110153667D01*
X179970727Y-110153666D01*
X180343984Y-109999058D01*
X180740231Y-109920240D01*
X181144245Y-109920240D01*
X181540492Y-109999058D01*
X181540492Y-109999058D01*
G37*
G36*
X113989416Y-109969058D02*
G01*
X114362673Y-110123666D01*
X114362675Y-110123667D01*
X114407573Y-110153667D01*
X114698598Y-110348124D01*
X114984278Y-110633804D01*
X115208736Y-110969729D01*
X115363344Y-111342986D01*
X115442162Y-111739233D01*
X115442162Y-112143247D01*
X115363344Y-112539494D01*
X115350917Y-112569495D01*
X115208735Y-112912753D01*
X114984278Y-113248676D01*
X114698598Y-113534356D01*
X114362675Y-113758813D01*
X114362674Y-113758814D01*
X114362673Y-113758814D01*
X113989416Y-113913422D01*
X113593169Y-113992240D01*
X113189155Y-113992240D01*
X112792908Y-113913422D01*
X112419651Y-113758814D01*
X112419650Y-113758814D01*
X112419649Y-113758813D01*
X112083726Y-113534356D01*
X111798046Y-113248676D01*
X111573589Y-112912753D01*
X111431407Y-112569495D01*
X111418980Y-112539494D01*
X111340162Y-112143247D01*
X111340162Y-111739233D01*
X111418980Y-111342986D01*
X111573588Y-110969729D01*
X111798046Y-110633804D01*
X112083726Y-110348124D01*
X112374751Y-110153667D01*
X112419649Y-110123667D01*
X112419651Y-110123666D01*
X112792908Y-109969058D01*
X113189155Y-109890240D01*
X113593169Y-109890240D01*
X113989416Y-109969058D01*
X113989416Y-109969058D01*
G37*
G36*
X142533695Y-106811054D02*
G01*
X142804854Y-106893309D01*
X143054755Y-107026884D01*
X143273795Y-107206645D01*
X143453556Y-107425685D01*
X143587131Y-107675586D01*
X143669386Y-107946745D01*
X143690200Y-108158074D01*
X143690200Y-111074406D01*
X143669386Y-111285735D01*
X143587131Y-111556894D01*
X143453556Y-111806795D01*
X143383315Y-111892384D01*
X143273795Y-112025835D01*
X143150840Y-112126740D01*
X143054754Y-112205596D01*
X142804853Y-112339171D01*
X142533694Y-112421426D01*
X142251700Y-112449200D01*
X141969705Y-112421426D01*
X141698546Y-112339171D01*
X141448645Y-112205596D01*
X141363056Y-112135355D01*
X141229605Y-112025835D01*
X141049845Y-111806795D01*
X141049844Y-111806794D01*
X140916269Y-111556893D01*
X140834014Y-111285734D01*
X140813200Y-111074405D01*
X140813201Y-108158074D01*
X140834015Y-107946745D01*
X140916270Y-107675586D01*
X141049845Y-107425685D01*
X141229606Y-107206645D01*
X141448646Y-107026884D01*
X141698547Y-106893309D01*
X141969706Y-106811054D01*
X142251700Y-106783280D01*
X142533695Y-106811054D01*
X142533695Y-106811054D01*
G37*
G36*
X151933695Y-106811054D02*
G01*
X152204854Y-106893309D01*
X152454755Y-107026884D01*
X152673795Y-107206645D01*
X152853556Y-107425685D01*
X152987131Y-107675586D01*
X153069386Y-107946745D01*
X153090200Y-108158074D01*
X153090200Y-111074406D01*
X153069386Y-111285735D01*
X152987131Y-111556894D01*
X152853556Y-111806795D01*
X152783315Y-111892384D01*
X152673795Y-112025835D01*
X152550840Y-112126740D01*
X152454754Y-112205596D01*
X152204853Y-112339171D01*
X151933694Y-112421426D01*
X151651700Y-112449200D01*
X151369705Y-112421426D01*
X151098546Y-112339171D01*
X150848645Y-112205596D01*
X150763056Y-112135355D01*
X150629605Y-112025835D01*
X150449845Y-111806795D01*
X150449844Y-111806794D01*
X150316269Y-111556893D01*
X150234014Y-111285734D01*
X150213200Y-111074405D01*
X150213201Y-108158074D01*
X150234015Y-107946745D01*
X150316270Y-107675586D01*
X150449845Y-107425685D01*
X150629606Y-107206645D01*
X150848646Y-107026884D01*
X151098547Y-106893309D01*
X151369706Y-106811054D01*
X151651700Y-106783280D01*
X151933695Y-106811054D01*
X151933695Y-106811054D01*
G37*
G36*
X147233695Y-106811054D02*
G01*
X147504854Y-106893309D01*
X147754755Y-107026884D01*
X147973795Y-107206645D01*
X148153556Y-107425685D01*
X148287131Y-107675586D01*
X148369386Y-107946745D01*
X148390200Y-108158074D01*
X148390200Y-111074406D01*
X148369386Y-111285735D01*
X148287131Y-111556894D01*
X148153556Y-111806795D01*
X148083315Y-111892384D01*
X147973795Y-112025835D01*
X147850840Y-112126740D01*
X147754754Y-112205596D01*
X147504853Y-112339171D01*
X147233694Y-112421426D01*
X146951700Y-112449200D01*
X146669705Y-112421426D01*
X146398546Y-112339171D01*
X146148645Y-112205596D01*
X146063056Y-112135355D01*
X145929605Y-112025835D01*
X145749845Y-111806795D01*
X145749844Y-111806794D01*
X145616269Y-111556893D01*
X145534014Y-111285734D01*
X145513200Y-111074405D01*
X145513201Y-108158074D01*
X145534015Y-107946745D01*
X145616270Y-107675586D01*
X145749845Y-107425685D01*
X145929606Y-107206645D01*
X146148646Y-107026884D01*
X146398547Y-106893309D01*
X146669706Y-106811054D01*
X146951700Y-106783280D01*
X147233695Y-106811054D01*
X147233695Y-106811054D01*
G37*
G36*
X113079390Y-104082943D02*
G01*
X113234262Y-104147093D01*
X113373643Y-104240225D01*
X113492177Y-104358759D01*
X113585309Y-104498140D01*
X113649459Y-104653012D01*
X113682162Y-104817424D01*
X113682162Y-104985056D01*
X113649459Y-105149468D01*
X113585309Y-105304340D01*
X113492177Y-105443721D01*
X113373643Y-105562255D01*
X113234262Y-105655387D01*
X113079390Y-105719537D01*
X112914978Y-105752240D01*
X112747346Y-105752240D01*
X112582934Y-105719537D01*
X112428062Y-105655387D01*
X112288681Y-105562255D01*
X112170147Y-105443721D01*
X112077015Y-105304340D01*
X112012865Y-105149468D01*
X111980162Y-104985056D01*
X111980162Y-104817424D01*
X112012865Y-104653012D01*
X112077015Y-104498140D01*
X112170147Y-104358759D01*
X112288681Y-104240225D01*
X112428062Y-104147093D01*
X112582934Y-104082943D01*
X112747346Y-104050240D01*
X112914978Y-104050240D01*
X113079390Y-104082943D01*
X113079390Y-104082943D01*
G37*
G36*
X128860943Y-103646759D02*
G01*
X128927127Y-103653277D01*
X129096966Y-103704797D01*
X129253491Y-103788462D01*
X129289229Y-103817792D01*
X129390686Y-103901054D01*
X129463299Y-103989535D01*
X129503278Y-104038249D01*
X129586943Y-104194774D01*
X129638463Y-104364613D01*
X129655859Y-104541240D01*
X129638463Y-104717867D01*
X129586943Y-104887706D01*
X129503278Y-105044231D01*
X129481812Y-105070387D01*
X129390686Y-105181426D01*
X129289229Y-105264688D01*
X129253491Y-105294018D01*
X129096966Y-105377683D01*
X128927127Y-105429203D01*
X128860942Y-105435722D01*
X128794760Y-105442240D01*
X128706240Y-105442240D01*
X128640057Y-105435721D01*
X128573873Y-105429203D01*
X128404034Y-105377683D01*
X128247509Y-105294018D01*
X128211771Y-105264688D01*
X128110314Y-105181426D01*
X128019188Y-105070387D01*
X127997722Y-105044231D01*
X127914057Y-104887706D01*
X127862537Y-104717867D01*
X127845141Y-104541240D01*
X127862537Y-104364613D01*
X127914057Y-104194774D01*
X127997722Y-104038249D01*
X128037701Y-103989535D01*
X128110314Y-103901054D01*
X128211771Y-103817792D01*
X128247509Y-103788462D01*
X128404034Y-103704797D01*
X128573873Y-103653277D01*
X128640058Y-103646758D01*
X128706240Y-103640240D01*
X128794760Y-103640240D01*
X128860943Y-103646759D01*
X128860943Y-103646759D01*
G37*
G36*
X165263343Y-103646759D02*
G01*
X165329527Y-103653277D01*
X165499366Y-103704797D01*
X165655891Y-103788462D01*
X165691629Y-103817792D01*
X165793086Y-103901054D01*
X165865699Y-103989535D01*
X165905678Y-104038249D01*
X165989343Y-104194774D01*
X166040863Y-104364613D01*
X166058259Y-104541240D01*
X166040863Y-104717867D01*
X165989343Y-104887706D01*
X165905678Y-105044231D01*
X165884212Y-105070387D01*
X165793086Y-105181426D01*
X165691629Y-105264688D01*
X165655891Y-105294018D01*
X165499366Y-105377683D01*
X165329527Y-105429203D01*
X165263342Y-105435722D01*
X165197160Y-105442240D01*
X165108640Y-105442240D01*
X165042457Y-105435721D01*
X164976273Y-105429203D01*
X164806434Y-105377683D01*
X164649909Y-105294018D01*
X164614171Y-105264688D01*
X164512714Y-105181426D01*
X164421588Y-105070387D01*
X164400122Y-105044231D01*
X164316457Y-104887706D01*
X164264937Y-104717867D01*
X164247541Y-104541240D01*
X164264937Y-104364613D01*
X164316457Y-104194774D01*
X164400122Y-104038249D01*
X164440101Y-103989535D01*
X164512714Y-103901054D01*
X164614171Y-103817792D01*
X164649909Y-103788462D01*
X164806434Y-103704797D01*
X164976273Y-103653277D01*
X165042458Y-103646758D01*
X165108640Y-103640240D01*
X165197160Y-103640240D01*
X165263343Y-103646759D01*
X165263343Y-103646759D01*
G37*
G36*
X179770466Y-103497943D02*
G01*
X179925338Y-103562093D01*
X180064719Y-103655225D01*
X180183253Y-103773759D01*
X180276385Y-103913140D01*
X180340535Y-104068012D01*
X180373238Y-104232424D01*
X180373238Y-104400056D01*
X180340535Y-104564468D01*
X180276385Y-104719340D01*
X180183253Y-104858721D01*
X180064719Y-104977255D01*
X179925338Y-105070387D01*
X179770466Y-105134537D01*
X179606054Y-105167240D01*
X179438422Y-105167240D01*
X179274010Y-105134537D01*
X179119138Y-105070387D01*
X178979757Y-104977255D01*
X178861223Y-104858721D01*
X178768091Y-104719340D01*
X178703941Y-104564468D01*
X178671238Y-104400056D01*
X178671238Y-104232424D01*
X178703941Y-104068012D01*
X178768091Y-103913140D01*
X178861223Y-103773759D01*
X178979757Y-103655225D01*
X179119138Y-103562093D01*
X179274010Y-103497943D01*
X179438422Y-103465240D01*
X179606054Y-103465240D01*
X179770466Y-103497943D01*
X179770466Y-103497943D01*
G37*
G36*
X183730466Y-103497943D02*
G01*
X183885338Y-103562093D01*
X184024719Y-103655225D01*
X184143253Y-103773759D01*
X184236385Y-103913140D01*
X184300535Y-104068012D01*
X184333238Y-104232424D01*
X184333238Y-104400056D01*
X184300535Y-104564468D01*
X184236385Y-104719340D01*
X184143253Y-104858721D01*
X184024719Y-104977255D01*
X183885338Y-105070387D01*
X183730466Y-105134537D01*
X183566054Y-105167240D01*
X183398422Y-105167240D01*
X183234010Y-105134537D01*
X183079138Y-105070387D01*
X182939757Y-104977255D01*
X182821223Y-104858721D01*
X182728091Y-104719340D01*
X182663941Y-104564468D01*
X182631238Y-104400056D01*
X182631238Y-104232424D01*
X182663941Y-104068012D01*
X182728091Y-103913140D01*
X182821223Y-103773759D01*
X182939757Y-103655225D01*
X183079138Y-103562093D01*
X183234010Y-103497943D01*
X183398422Y-103465240D01*
X183566054Y-103465240D01*
X183730466Y-103497943D01*
X183730466Y-103497943D01*
G37*
G36*
X115662162Y-104607240D02*
G01*
X113960162Y-104607240D01*
X113960162Y-102905240D01*
X115662162Y-102905240D01*
X115662162Y-104607240D01*
X115662162Y-104607240D01*
G37*
G36*
X111099390Y-102937943D02*
G01*
X111254262Y-103002093D01*
X111393643Y-103095225D01*
X111512177Y-103213759D01*
X111605309Y-103353140D01*
X111669459Y-103508012D01*
X111702162Y-103672424D01*
X111702162Y-103840056D01*
X111669459Y-104004468D01*
X111605309Y-104159340D01*
X111512177Y-104298721D01*
X111393643Y-104417255D01*
X111254262Y-104510387D01*
X111099390Y-104574537D01*
X110934978Y-104607240D01*
X110767346Y-104607240D01*
X110602934Y-104574537D01*
X110448062Y-104510387D01*
X110308681Y-104417255D01*
X110190147Y-104298721D01*
X110097015Y-104159340D01*
X110032865Y-104004468D01*
X110000162Y-103840056D01*
X110000162Y-103672424D01*
X110032865Y-103508012D01*
X110097015Y-103353140D01*
X110190147Y-103213759D01*
X110308681Y-103095225D01*
X110448062Y-103002093D01*
X110602934Y-102937943D01*
X110767346Y-102905240D01*
X110934978Y-102905240D01*
X111099390Y-102937943D01*
X111099390Y-102937943D01*
G37*
G36*
X181750466Y-102352943D02*
G01*
X181905338Y-102417093D01*
X182044719Y-102510225D01*
X182163253Y-102628759D01*
X182256385Y-102768140D01*
X182320535Y-102923012D01*
X182353238Y-103087424D01*
X182353238Y-103255056D01*
X182320535Y-103419468D01*
X182256385Y-103574340D01*
X182163253Y-103713721D01*
X182044719Y-103832255D01*
X181905338Y-103925387D01*
X181750466Y-103989537D01*
X181586054Y-104022240D01*
X181418422Y-104022240D01*
X181254010Y-103989537D01*
X181099138Y-103925387D01*
X180959757Y-103832255D01*
X180841223Y-103713721D01*
X180748091Y-103574340D01*
X180683941Y-103419468D01*
X180651238Y-103255056D01*
X180651238Y-103087424D01*
X180683941Y-102923012D01*
X180748091Y-102768140D01*
X180841223Y-102628759D01*
X180959757Y-102510225D01*
X181099138Y-102417093D01*
X181254010Y-102352943D01*
X181418422Y-102320240D01*
X181586054Y-102320240D01*
X181750466Y-102352943D01*
X181750466Y-102352943D01*
G37*
G36*
X113079390Y-101792943D02*
G01*
X113234262Y-101857093D01*
X113373643Y-101950225D01*
X113492177Y-102068759D01*
X113585309Y-102208140D01*
X113649459Y-102363012D01*
X113682162Y-102527424D01*
X113682162Y-102695056D01*
X113649459Y-102859468D01*
X113585309Y-103014340D01*
X113492177Y-103153721D01*
X113373643Y-103272255D01*
X113234262Y-103365387D01*
X113079390Y-103429537D01*
X112914978Y-103462240D01*
X112747346Y-103462240D01*
X112582934Y-103429537D01*
X112428062Y-103365387D01*
X112288681Y-103272255D01*
X112170147Y-103153721D01*
X112077015Y-103014340D01*
X112012865Y-102859468D01*
X111980162Y-102695056D01*
X111980162Y-102527424D01*
X112012865Y-102363012D01*
X112077015Y-102208140D01*
X112170147Y-102068759D01*
X112288681Y-101950225D01*
X112428062Y-101857093D01*
X112582934Y-101792943D01*
X112747346Y-101760240D01*
X112914978Y-101760240D01*
X113079390Y-101792943D01*
X113079390Y-101792943D01*
G37*
G36*
X128860942Y-101106758D02*
G01*
X128927127Y-101113277D01*
X129096966Y-101164797D01*
X129253491Y-101248462D01*
X129282284Y-101272092D01*
X129390686Y-101361054D01*
X129473948Y-101462511D01*
X129503278Y-101498249D01*
X129503279Y-101498251D01*
X129582677Y-101646792D01*
X129586943Y-101654774D01*
X129638463Y-101824613D01*
X129655859Y-102001240D01*
X129638463Y-102177867D01*
X129586943Y-102347706D01*
X129503278Y-102504231D01*
X129484244Y-102527424D01*
X129390686Y-102641426D01*
X129289229Y-102724688D01*
X129253491Y-102754018D01*
X129096966Y-102837683D01*
X128927127Y-102889203D01*
X128860942Y-102895722D01*
X128794760Y-102902240D01*
X128706240Y-102902240D01*
X128640058Y-102895722D01*
X128573873Y-102889203D01*
X128404034Y-102837683D01*
X128247509Y-102754018D01*
X128211771Y-102724688D01*
X128110314Y-102641426D01*
X128016756Y-102527424D01*
X127997722Y-102504231D01*
X127914057Y-102347706D01*
X127862537Y-102177867D01*
X127845141Y-102001240D01*
X127862537Y-101824613D01*
X127914057Y-101654774D01*
X127918324Y-101646792D01*
X127997721Y-101498251D01*
X127997722Y-101498249D01*
X128027052Y-101462511D01*
X128110314Y-101361054D01*
X128218716Y-101272092D01*
X128247509Y-101248462D01*
X128404034Y-101164797D01*
X128573873Y-101113277D01*
X128640057Y-101106759D01*
X128706240Y-101100240D01*
X128794760Y-101100240D01*
X128860942Y-101106758D01*
X128860942Y-101106758D01*
G37*
G36*
X165263342Y-101106758D02*
G01*
X165329527Y-101113277D01*
X165499366Y-101164797D01*
X165655891Y-101248462D01*
X165684684Y-101272092D01*
X165793086Y-101361054D01*
X165876348Y-101462511D01*
X165905678Y-101498249D01*
X165905679Y-101498251D01*
X165985077Y-101646792D01*
X165989343Y-101654774D01*
X166040863Y-101824613D01*
X166058259Y-102001240D01*
X166040863Y-102177867D01*
X165989343Y-102347706D01*
X165905678Y-102504231D01*
X165886644Y-102527424D01*
X165793086Y-102641426D01*
X165691629Y-102724688D01*
X165655891Y-102754018D01*
X165499366Y-102837683D01*
X165329527Y-102889203D01*
X165263342Y-102895722D01*
X165197160Y-102902240D01*
X165108640Y-102902240D01*
X165042458Y-102895722D01*
X164976273Y-102889203D01*
X164806434Y-102837683D01*
X164649909Y-102754018D01*
X164614171Y-102724688D01*
X164512714Y-102641426D01*
X164419156Y-102527424D01*
X164400122Y-102504231D01*
X164316457Y-102347706D01*
X164264937Y-102177867D01*
X164247541Y-102001240D01*
X164264937Y-101824613D01*
X164316457Y-101654774D01*
X164320724Y-101646792D01*
X164400121Y-101498251D01*
X164400122Y-101498249D01*
X164429452Y-101462511D01*
X164512714Y-101361054D01*
X164621116Y-101272092D01*
X164649909Y-101248462D01*
X164806434Y-101164797D01*
X164976273Y-101113277D01*
X165042457Y-101106759D01*
X165108640Y-101100240D01*
X165197160Y-101100240D01*
X165263342Y-101106758D01*
X165263342Y-101106758D01*
G37*
G36*
X183730466Y-101207943D02*
G01*
X183885338Y-101272093D01*
X184024719Y-101365225D01*
X184143253Y-101483759D01*
X184236385Y-101623140D01*
X184300535Y-101778012D01*
X184333238Y-101942424D01*
X184333238Y-102110056D01*
X184300535Y-102274468D01*
X184236385Y-102429340D01*
X184143253Y-102568721D01*
X184024719Y-102687255D01*
X183885338Y-102780387D01*
X183730466Y-102844537D01*
X183566054Y-102877240D01*
X183398422Y-102877240D01*
X183234010Y-102844537D01*
X183079138Y-102780387D01*
X182939757Y-102687255D01*
X182821223Y-102568721D01*
X182728091Y-102429340D01*
X182663941Y-102274468D01*
X182631238Y-102110056D01*
X182631238Y-101942424D01*
X182663941Y-101778012D01*
X182728091Y-101623140D01*
X182821223Y-101483759D01*
X182939757Y-101365225D01*
X183079138Y-101272093D01*
X183234010Y-101207943D01*
X183398422Y-101175240D01*
X183566054Y-101175240D01*
X183730466Y-101207943D01*
X183730466Y-101207943D01*
G37*
G36*
X179770466Y-101207943D02*
G01*
X179925338Y-101272093D01*
X180064719Y-101365225D01*
X180183253Y-101483759D01*
X180276385Y-101623140D01*
X180340535Y-101778012D01*
X180373238Y-101942424D01*
X180373238Y-102110056D01*
X180340535Y-102274468D01*
X180276385Y-102429340D01*
X180183253Y-102568721D01*
X180064719Y-102687255D01*
X179925338Y-102780387D01*
X179770466Y-102844537D01*
X179606054Y-102877240D01*
X179438422Y-102877240D01*
X179274010Y-102844537D01*
X179119138Y-102780387D01*
X178979757Y-102687255D01*
X178861223Y-102568721D01*
X178768091Y-102429340D01*
X178703941Y-102274468D01*
X178671238Y-102110056D01*
X178671238Y-101942424D01*
X178703941Y-101778012D01*
X178768091Y-101623140D01*
X178861223Y-101483759D01*
X178979757Y-101365225D01*
X179119138Y-101272093D01*
X179274010Y-101207943D01*
X179438422Y-101175240D01*
X179606054Y-101175240D01*
X179770466Y-101207943D01*
X179770466Y-101207943D01*
G37*
G36*
X115059390Y-100647943D02*
G01*
X115214262Y-100712093D01*
X115353643Y-100805225D01*
X115472177Y-100923759D01*
X115565309Y-101063140D01*
X115629459Y-101218012D01*
X115662162Y-101382424D01*
X115662162Y-101550056D01*
X115629459Y-101714468D01*
X115565309Y-101869340D01*
X115472177Y-102008721D01*
X115353643Y-102127255D01*
X115214262Y-102220387D01*
X115059390Y-102284537D01*
X114894978Y-102317240D01*
X114727346Y-102317240D01*
X114562934Y-102284537D01*
X114408062Y-102220387D01*
X114268681Y-102127255D01*
X114150147Y-102008721D01*
X114057015Y-101869340D01*
X113992865Y-101714468D01*
X113960162Y-101550056D01*
X113960162Y-101382424D01*
X113992865Y-101218012D01*
X114057015Y-101063140D01*
X114150147Y-100923759D01*
X114268681Y-100805225D01*
X114408062Y-100712093D01*
X114562934Y-100647943D01*
X114727346Y-100615240D01*
X114894978Y-100615240D01*
X115059390Y-100647943D01*
X115059390Y-100647943D01*
G37*
G36*
X111099390Y-100647943D02*
G01*
X111254262Y-100712093D01*
X111393643Y-100805225D01*
X111512177Y-100923759D01*
X111605309Y-101063140D01*
X111669459Y-101218012D01*
X111702162Y-101382424D01*
X111702162Y-101550056D01*
X111669459Y-101714468D01*
X111605309Y-101869340D01*
X111512177Y-102008721D01*
X111393643Y-102127255D01*
X111254262Y-102220387D01*
X111099390Y-102284537D01*
X110934978Y-102317240D01*
X110767346Y-102317240D01*
X110602934Y-102284537D01*
X110448062Y-102220387D01*
X110308681Y-102127255D01*
X110190147Y-102008721D01*
X110097015Y-101869340D01*
X110032865Y-101714468D01*
X110000162Y-101550056D01*
X110000162Y-101382424D01*
X110032865Y-101218012D01*
X110097015Y-101063140D01*
X110190147Y-100923759D01*
X110308681Y-100805225D01*
X110448062Y-100712093D01*
X110602934Y-100647943D01*
X110767346Y-100615240D01*
X110934978Y-100615240D01*
X111099390Y-100647943D01*
X111099390Y-100647943D01*
G37*
G36*
X142533695Y-96651054D02*
G01*
X142804854Y-96733309D01*
X143054755Y-96866884D01*
X143273795Y-97046645D01*
X143453556Y-97265685D01*
X143587131Y-97515586D01*
X143669386Y-97786745D01*
X143669386Y-97786747D01*
X143690200Y-97998072D01*
X143690200Y-100914408D01*
X143679793Y-101020070D01*
X143669386Y-101125735D01*
X143587131Y-101396894D01*
X143453556Y-101646795D01*
X143398018Y-101714468D01*
X143273795Y-101865835D01*
X143180470Y-101942424D01*
X143054754Y-102045596D01*
X142804853Y-102179171D01*
X142533694Y-102261426D01*
X142251700Y-102289200D01*
X141969705Y-102261426D01*
X141698546Y-102179171D01*
X141448645Y-102045596D01*
X141322930Y-101942424D01*
X141229605Y-101865835D01*
X141105383Y-101714469D01*
X141049844Y-101646794D01*
X140916269Y-101396893D01*
X140834014Y-101125734D01*
X140818189Y-100965056D01*
X140813200Y-100914407D01*
X140813201Y-97998072D01*
X140834015Y-97786747D01*
X140834015Y-97786745D01*
X140916270Y-97515586D01*
X141049845Y-97265685D01*
X141229606Y-97046645D01*
X141448646Y-96866884D01*
X141698547Y-96733309D01*
X141969706Y-96651054D01*
X142251700Y-96623280D01*
X142533695Y-96651054D01*
X142533695Y-96651054D01*
G37*
G36*
X151933695Y-96651054D02*
G01*
X152204854Y-96733309D01*
X152454755Y-96866884D01*
X152673795Y-97046645D01*
X152853556Y-97265685D01*
X152987131Y-97515586D01*
X153069386Y-97786745D01*
X153069386Y-97786747D01*
X153090200Y-97998072D01*
X153090200Y-100914408D01*
X153079793Y-101020070D01*
X153069386Y-101125735D01*
X152987131Y-101396894D01*
X152853556Y-101646795D01*
X152798018Y-101714468D01*
X152673795Y-101865835D01*
X152580470Y-101942424D01*
X152454754Y-102045596D01*
X152204853Y-102179171D01*
X151933694Y-102261426D01*
X151651700Y-102289200D01*
X151369705Y-102261426D01*
X151098546Y-102179171D01*
X150848645Y-102045596D01*
X150722930Y-101942424D01*
X150629605Y-101865835D01*
X150505383Y-101714469D01*
X150449844Y-101646794D01*
X150316269Y-101396893D01*
X150234014Y-101125734D01*
X150218189Y-100965056D01*
X150213200Y-100914407D01*
X150213201Y-97998072D01*
X150234015Y-97786747D01*
X150234015Y-97786745D01*
X150316270Y-97515586D01*
X150449845Y-97265685D01*
X150629606Y-97046645D01*
X150848646Y-96866884D01*
X151098547Y-96733309D01*
X151369706Y-96651054D01*
X151651700Y-96623280D01*
X151933695Y-96651054D01*
X151933695Y-96651054D01*
G37*
G36*
X147233695Y-96651054D02*
G01*
X147504854Y-96733309D01*
X147754755Y-96866884D01*
X147973795Y-97046645D01*
X148153556Y-97265685D01*
X148287131Y-97515586D01*
X148369386Y-97786745D01*
X148369386Y-97786747D01*
X148390200Y-97998072D01*
X148390200Y-100914408D01*
X148379793Y-101020070D01*
X148369386Y-101125735D01*
X148287131Y-101396894D01*
X148153556Y-101646795D01*
X148098018Y-101714468D01*
X147973795Y-101865835D01*
X147880470Y-101942424D01*
X147754754Y-102045596D01*
X147504853Y-102179171D01*
X147233694Y-102261426D01*
X146951700Y-102289200D01*
X146669705Y-102261426D01*
X146398546Y-102179171D01*
X146148645Y-102045596D01*
X146022930Y-101942424D01*
X145929605Y-101865835D01*
X145805383Y-101714469D01*
X145749844Y-101646794D01*
X145616269Y-101396893D01*
X145534014Y-101125734D01*
X145518189Y-100965056D01*
X145513200Y-100914407D01*
X145513201Y-97998072D01*
X145534015Y-97786747D01*
X145534015Y-97786745D01*
X145616270Y-97515586D01*
X145749845Y-97265685D01*
X145929606Y-97046645D01*
X146148646Y-96866884D01*
X146398547Y-96733309D01*
X146669706Y-96651054D01*
X146951700Y-96623280D01*
X147233695Y-96651054D01*
X147233695Y-96651054D01*
G37*
G36*
X181750466Y-100062943D02*
G01*
X181905338Y-100127093D01*
X182044719Y-100220225D01*
X182163253Y-100338759D01*
X182256385Y-100478140D01*
X182320535Y-100633012D01*
X182353238Y-100797424D01*
X182353238Y-100965056D01*
X182320535Y-101129468D01*
X182256385Y-101284340D01*
X182163253Y-101423721D01*
X182044719Y-101542255D01*
X181905338Y-101635387D01*
X181750466Y-101699537D01*
X181586054Y-101732240D01*
X181418422Y-101732240D01*
X181254010Y-101699537D01*
X181099138Y-101635387D01*
X180959757Y-101542255D01*
X180841223Y-101423721D01*
X180748091Y-101284340D01*
X180683941Y-101129468D01*
X180651238Y-100965056D01*
X180651238Y-100797424D01*
X180683941Y-100633012D01*
X180748091Y-100478140D01*
X180841223Y-100338759D01*
X180959757Y-100220225D01*
X181099138Y-100127093D01*
X181254010Y-100062943D01*
X181418422Y-100030240D01*
X181586054Y-100030240D01*
X181750466Y-100062943D01*
X181750466Y-100062943D01*
G37*
G36*
X113079390Y-99502943D02*
G01*
X113234262Y-99567093D01*
X113373643Y-99660225D01*
X113492177Y-99778759D01*
X113585309Y-99918140D01*
X113649459Y-100073012D01*
X113682162Y-100237424D01*
X113682162Y-100405056D01*
X113649459Y-100569468D01*
X113585309Y-100724340D01*
X113492177Y-100863721D01*
X113373643Y-100982255D01*
X113234262Y-101075387D01*
X113079390Y-101139537D01*
X112914978Y-101172240D01*
X112747346Y-101172240D01*
X112582934Y-101139537D01*
X112428062Y-101075387D01*
X112288681Y-100982255D01*
X112170147Y-100863721D01*
X112077015Y-100724340D01*
X112012865Y-100569468D01*
X111980162Y-100405056D01*
X111980162Y-100237424D01*
X112012865Y-100073012D01*
X112077015Y-99918140D01*
X112170147Y-99778759D01*
X112288681Y-99660225D01*
X112428062Y-99567093D01*
X112582934Y-99502943D01*
X112747346Y-99470240D01*
X112914978Y-99470240D01*
X113079390Y-99502943D01*
X113079390Y-99502943D01*
G37*
G36*
X179770466Y-98917943D02*
G01*
X179925338Y-98982093D01*
X180064719Y-99075225D01*
X180183253Y-99193759D01*
X180276385Y-99333140D01*
X180340535Y-99488012D01*
X180373238Y-99652424D01*
X180373238Y-99820056D01*
X180340535Y-99984468D01*
X180276385Y-100139340D01*
X180183253Y-100278721D01*
X180064719Y-100397255D01*
X179925338Y-100490387D01*
X179770466Y-100554537D01*
X179606054Y-100587240D01*
X179438422Y-100587240D01*
X179274010Y-100554537D01*
X179119138Y-100490387D01*
X178979757Y-100397255D01*
X178861223Y-100278721D01*
X178768091Y-100139340D01*
X178703941Y-99984468D01*
X178671238Y-99820056D01*
X178671238Y-99652424D01*
X178703941Y-99488012D01*
X178768091Y-99333140D01*
X178861223Y-99193759D01*
X178979757Y-99075225D01*
X179119138Y-98982093D01*
X179274010Y-98917943D01*
X179438422Y-98885240D01*
X179606054Y-98885240D01*
X179770466Y-98917943D01*
X179770466Y-98917943D01*
G37*
G36*
X183730466Y-98917943D02*
G01*
X183885338Y-98982093D01*
X184024719Y-99075225D01*
X184143253Y-99193759D01*
X184236385Y-99333140D01*
X184300535Y-99488012D01*
X184333238Y-99652424D01*
X184333238Y-99820056D01*
X184300535Y-99984468D01*
X184236385Y-100139340D01*
X184143253Y-100278721D01*
X184024719Y-100397255D01*
X183885338Y-100490387D01*
X183730466Y-100554537D01*
X183566054Y-100587240D01*
X183398422Y-100587240D01*
X183234010Y-100554537D01*
X183079138Y-100490387D01*
X182939757Y-100397255D01*
X182821223Y-100278721D01*
X182728091Y-100139340D01*
X182663941Y-99984468D01*
X182631238Y-99820056D01*
X182631238Y-99652424D01*
X182663941Y-99488012D01*
X182728091Y-99333140D01*
X182821223Y-99193759D01*
X182939757Y-99075225D01*
X183079138Y-98982093D01*
X183234010Y-98917943D01*
X183398422Y-98885240D01*
X183566054Y-98885240D01*
X183730466Y-98917943D01*
X183730466Y-98917943D01*
G37*
G36*
X128860943Y-98566759D02*
G01*
X128927127Y-98573277D01*
X129096966Y-98624797D01*
X129096968Y-98624798D01*
X129175229Y-98666630D01*
X129253491Y-98708462D01*
X129289229Y-98737792D01*
X129390686Y-98821054D01*
X129470201Y-98917945D01*
X129503278Y-98958249D01*
X129586943Y-99114774D01*
X129638463Y-99284613D01*
X129655859Y-99461240D01*
X129638463Y-99637867D01*
X129586943Y-99807706D01*
X129503278Y-99964231D01*
X129486670Y-99984468D01*
X129390686Y-100101426D01*
X129289229Y-100184688D01*
X129253491Y-100214018D01*
X129096966Y-100297683D01*
X128927127Y-100349203D01*
X128860943Y-100355721D01*
X128794760Y-100362240D01*
X128706240Y-100362240D01*
X128640057Y-100355721D01*
X128573873Y-100349203D01*
X128404034Y-100297683D01*
X128247509Y-100214018D01*
X128211771Y-100184688D01*
X128110314Y-100101426D01*
X128014330Y-99984468D01*
X127997722Y-99964231D01*
X127914057Y-99807706D01*
X127862537Y-99637867D01*
X127845141Y-99461240D01*
X127862537Y-99284613D01*
X127914057Y-99114774D01*
X127997722Y-98958249D01*
X128030799Y-98917945D01*
X128110314Y-98821054D01*
X128211771Y-98737792D01*
X128247509Y-98708462D01*
X128325771Y-98666630D01*
X128404032Y-98624798D01*
X128404034Y-98624797D01*
X128573873Y-98573277D01*
X128640057Y-98566759D01*
X128706240Y-98560240D01*
X128794760Y-98560240D01*
X128860943Y-98566759D01*
X128860943Y-98566759D01*
G37*
G36*
X165263343Y-98566759D02*
G01*
X165329527Y-98573277D01*
X165499366Y-98624797D01*
X165499368Y-98624798D01*
X165577629Y-98666630D01*
X165655891Y-98708462D01*
X165691629Y-98737792D01*
X165793086Y-98821054D01*
X165872601Y-98917945D01*
X165905678Y-98958249D01*
X165989343Y-99114774D01*
X166040863Y-99284613D01*
X166058259Y-99461240D01*
X166040863Y-99637867D01*
X165989343Y-99807706D01*
X165905678Y-99964231D01*
X165889070Y-99984468D01*
X165793086Y-100101426D01*
X165691629Y-100184688D01*
X165655891Y-100214018D01*
X165499366Y-100297683D01*
X165329527Y-100349203D01*
X165263343Y-100355721D01*
X165197160Y-100362240D01*
X165108640Y-100362240D01*
X165042457Y-100355721D01*
X164976273Y-100349203D01*
X164806434Y-100297683D01*
X164649909Y-100214018D01*
X164614171Y-100184688D01*
X164512714Y-100101426D01*
X164416730Y-99984468D01*
X164400122Y-99964231D01*
X164316457Y-99807706D01*
X164264937Y-99637867D01*
X164247541Y-99461240D01*
X164264937Y-99284613D01*
X164316457Y-99114774D01*
X164400122Y-98958249D01*
X164433199Y-98917945D01*
X164512714Y-98821054D01*
X164614171Y-98737792D01*
X164649909Y-98708462D01*
X164728171Y-98666630D01*
X164806432Y-98624798D01*
X164806434Y-98624797D01*
X164976273Y-98573277D01*
X165042457Y-98566759D01*
X165108640Y-98560240D01*
X165197160Y-98560240D01*
X165263343Y-98566759D01*
X165263343Y-98566759D01*
G37*
G36*
X115059390Y-98357943D02*
G01*
X115214262Y-98422093D01*
X115353643Y-98515225D01*
X115472177Y-98633759D01*
X115565309Y-98773140D01*
X115629459Y-98928012D01*
X115662162Y-99092424D01*
X115662162Y-99260056D01*
X115629459Y-99424468D01*
X115565309Y-99579340D01*
X115472177Y-99718721D01*
X115353643Y-99837255D01*
X115214262Y-99930387D01*
X115059390Y-99994537D01*
X114894978Y-100027240D01*
X114727346Y-100027240D01*
X114562934Y-99994537D01*
X114408062Y-99930387D01*
X114268681Y-99837255D01*
X114150147Y-99718721D01*
X114057015Y-99579340D01*
X113992865Y-99424468D01*
X113960162Y-99260056D01*
X113960162Y-99092424D01*
X113992865Y-98928012D01*
X114057015Y-98773140D01*
X114150147Y-98633759D01*
X114268681Y-98515225D01*
X114408062Y-98422093D01*
X114562934Y-98357943D01*
X114727346Y-98325240D01*
X114894978Y-98325240D01*
X115059390Y-98357943D01*
X115059390Y-98357943D01*
G37*
G36*
X111099390Y-98357943D02*
G01*
X111254262Y-98422093D01*
X111393643Y-98515225D01*
X111512177Y-98633759D01*
X111605309Y-98773140D01*
X111669459Y-98928012D01*
X111702162Y-99092424D01*
X111702162Y-99260056D01*
X111669459Y-99424468D01*
X111605309Y-99579340D01*
X111512177Y-99718721D01*
X111393643Y-99837255D01*
X111254262Y-99930387D01*
X111099390Y-99994537D01*
X110934978Y-100027240D01*
X110767346Y-100027240D01*
X110602934Y-99994537D01*
X110448062Y-99930387D01*
X110308681Y-99837255D01*
X110190147Y-99718721D01*
X110097015Y-99579340D01*
X110032865Y-99424468D01*
X110000162Y-99260056D01*
X110000162Y-99092424D01*
X110032865Y-98928012D01*
X110097015Y-98773140D01*
X110190147Y-98633759D01*
X110308681Y-98515225D01*
X110448062Y-98422093D01*
X110602934Y-98357943D01*
X110767346Y-98325240D01*
X110934978Y-98325240D01*
X111099390Y-98357943D01*
X111099390Y-98357943D01*
G37*
G36*
X181750466Y-97772943D02*
G01*
X181905338Y-97837093D01*
X182044719Y-97930225D01*
X182163253Y-98048759D01*
X182256385Y-98188140D01*
X182320535Y-98343012D01*
X182353238Y-98507424D01*
X182353238Y-98675056D01*
X182320535Y-98839468D01*
X182256385Y-98994340D01*
X182163253Y-99133721D01*
X182044719Y-99252255D01*
X181905338Y-99345387D01*
X181750466Y-99409537D01*
X181586054Y-99442240D01*
X181418422Y-99442240D01*
X181254010Y-99409537D01*
X181099138Y-99345387D01*
X180959757Y-99252255D01*
X180841223Y-99133721D01*
X180748091Y-98994340D01*
X180683941Y-98839468D01*
X180651238Y-98675056D01*
X180651238Y-98507424D01*
X180683941Y-98343012D01*
X180748091Y-98188140D01*
X180841223Y-98048759D01*
X180959757Y-97930225D01*
X181099138Y-97837093D01*
X181254010Y-97772943D01*
X181418422Y-97740240D01*
X181586054Y-97740240D01*
X181750466Y-97772943D01*
X181750466Y-97772943D01*
G37*
G36*
X113079390Y-97212943D02*
G01*
X113234262Y-97277093D01*
X113373643Y-97370225D01*
X113492177Y-97488759D01*
X113585309Y-97628140D01*
X113649459Y-97783012D01*
X113682162Y-97947424D01*
X113682162Y-98115056D01*
X113649459Y-98279468D01*
X113585309Y-98434340D01*
X113492177Y-98573721D01*
X113373643Y-98692255D01*
X113234262Y-98785387D01*
X113079390Y-98849537D01*
X112914978Y-98882240D01*
X112747346Y-98882240D01*
X112582934Y-98849537D01*
X112428062Y-98785387D01*
X112288681Y-98692255D01*
X112170147Y-98573721D01*
X112077015Y-98434340D01*
X112012865Y-98279468D01*
X111980162Y-98115056D01*
X111980162Y-97947424D01*
X112012865Y-97783012D01*
X112077015Y-97628140D01*
X112170147Y-97488759D01*
X112288681Y-97370225D01*
X112428062Y-97277093D01*
X112582934Y-97212943D01*
X112747346Y-97180240D01*
X112914978Y-97180240D01*
X113079390Y-97212943D01*
X113079390Y-97212943D01*
G37*
G36*
X179770466Y-96627943D02*
G01*
X179925338Y-96692093D01*
X180064719Y-96785225D01*
X180183253Y-96903759D01*
X180276385Y-97043140D01*
X180340535Y-97198012D01*
X180373238Y-97362424D01*
X180373238Y-97530056D01*
X180340535Y-97694468D01*
X180276385Y-97849340D01*
X180183253Y-97988721D01*
X180064719Y-98107255D01*
X179925338Y-98200387D01*
X179770466Y-98264537D01*
X179606054Y-98297240D01*
X179438422Y-98297240D01*
X179274010Y-98264537D01*
X179119138Y-98200387D01*
X178979757Y-98107255D01*
X178861223Y-97988721D01*
X178768091Y-97849340D01*
X178703941Y-97694468D01*
X178671238Y-97530056D01*
X178671238Y-97362424D01*
X178703941Y-97198012D01*
X178768091Y-97043140D01*
X178861223Y-96903759D01*
X178979757Y-96785225D01*
X179119138Y-96692093D01*
X179274010Y-96627943D01*
X179438422Y-96595240D01*
X179606054Y-96595240D01*
X179770466Y-96627943D01*
X179770466Y-96627943D01*
G37*
G36*
X183730466Y-96627943D02*
G01*
X183885338Y-96692093D01*
X184024719Y-96785225D01*
X184143253Y-96903759D01*
X184236385Y-97043140D01*
X184300535Y-97198012D01*
X184333238Y-97362424D01*
X184333238Y-97530056D01*
X184300535Y-97694468D01*
X184236385Y-97849340D01*
X184143253Y-97988721D01*
X184024719Y-98107255D01*
X183885338Y-98200387D01*
X183730466Y-98264537D01*
X183566054Y-98297240D01*
X183398422Y-98297240D01*
X183234010Y-98264537D01*
X183079138Y-98200387D01*
X182939757Y-98107255D01*
X182821223Y-97988721D01*
X182728091Y-97849340D01*
X182663941Y-97694468D01*
X182631238Y-97530056D01*
X182631238Y-97362424D01*
X182663941Y-97198012D01*
X182728091Y-97043140D01*
X182821223Y-96903759D01*
X182939757Y-96785225D01*
X183079138Y-96692093D01*
X183234010Y-96627943D01*
X183398422Y-96595240D01*
X183566054Y-96595240D01*
X183730466Y-96627943D01*
X183730466Y-96627943D01*
G37*
G36*
X165263342Y-96026758D02*
G01*
X165329527Y-96033277D01*
X165499366Y-96084797D01*
X165655891Y-96168462D01*
X165691629Y-96197792D01*
X165793086Y-96281054D01*
X165876348Y-96382511D01*
X165905678Y-96418249D01*
X165989343Y-96574774D01*
X166040863Y-96744613D01*
X166058259Y-96921240D01*
X166040863Y-97097867D01*
X165989343Y-97267706D01*
X165905678Y-97424231D01*
X165901993Y-97428721D01*
X165793086Y-97561426D01*
X165696870Y-97640387D01*
X165655891Y-97674018D01*
X165499366Y-97757683D01*
X165329527Y-97809203D01*
X165263342Y-97815722D01*
X165197160Y-97822240D01*
X165108640Y-97822240D01*
X165042457Y-97815721D01*
X164976273Y-97809203D01*
X164806434Y-97757683D01*
X164649909Y-97674018D01*
X164608930Y-97640387D01*
X164512714Y-97561426D01*
X164403807Y-97428721D01*
X164400122Y-97424231D01*
X164316457Y-97267706D01*
X164264937Y-97097867D01*
X164247541Y-96921240D01*
X164264937Y-96744613D01*
X164316457Y-96574774D01*
X164400122Y-96418249D01*
X164429452Y-96382511D01*
X164512714Y-96281054D01*
X164614171Y-96197792D01*
X164649909Y-96168462D01*
X164806434Y-96084797D01*
X164976273Y-96033277D01*
X165042458Y-96026758D01*
X165108640Y-96020240D01*
X165197160Y-96020240D01*
X165263342Y-96026758D01*
X165263342Y-96026758D01*
G37*
G36*
X128860942Y-96026758D02*
G01*
X128927127Y-96033277D01*
X129096966Y-96084797D01*
X129253491Y-96168462D01*
X129289229Y-96197792D01*
X129390686Y-96281054D01*
X129473948Y-96382511D01*
X129503278Y-96418249D01*
X129586943Y-96574774D01*
X129638463Y-96744613D01*
X129655859Y-96921240D01*
X129638463Y-97097867D01*
X129586943Y-97267706D01*
X129503278Y-97424231D01*
X129499593Y-97428721D01*
X129390686Y-97561426D01*
X129294470Y-97640387D01*
X129253491Y-97674018D01*
X129096966Y-97757683D01*
X128927127Y-97809203D01*
X128860942Y-97815722D01*
X128794760Y-97822240D01*
X128706240Y-97822240D01*
X128640057Y-97815721D01*
X128573873Y-97809203D01*
X128404034Y-97757683D01*
X128247509Y-97674018D01*
X128206530Y-97640387D01*
X128110314Y-97561426D01*
X128001407Y-97428721D01*
X127997722Y-97424231D01*
X127914057Y-97267706D01*
X127862537Y-97097867D01*
X127845141Y-96921240D01*
X127862537Y-96744613D01*
X127914057Y-96574774D01*
X127997722Y-96418249D01*
X128027052Y-96382511D01*
X128110314Y-96281054D01*
X128211771Y-96197792D01*
X128247509Y-96168462D01*
X128404034Y-96084797D01*
X128573873Y-96033277D01*
X128640058Y-96026758D01*
X128706240Y-96020240D01*
X128794760Y-96020240D01*
X128860942Y-96026758D01*
X128860942Y-96026758D01*
G37*
G36*
X115059390Y-96067943D02*
G01*
X115214262Y-96132093D01*
X115353643Y-96225225D01*
X115472177Y-96343759D01*
X115565309Y-96483140D01*
X115629459Y-96638012D01*
X115662162Y-96802424D01*
X115662162Y-96970056D01*
X115629459Y-97134468D01*
X115565309Y-97289340D01*
X115472177Y-97428721D01*
X115353643Y-97547255D01*
X115214262Y-97640387D01*
X115059390Y-97704537D01*
X114894978Y-97737240D01*
X114727346Y-97737240D01*
X114562934Y-97704537D01*
X114408062Y-97640387D01*
X114268681Y-97547255D01*
X114150147Y-97428721D01*
X114057015Y-97289340D01*
X113992865Y-97134468D01*
X113960162Y-96970056D01*
X113960162Y-96802424D01*
X113992865Y-96638012D01*
X114057015Y-96483140D01*
X114150147Y-96343759D01*
X114268681Y-96225225D01*
X114408062Y-96132093D01*
X114562934Y-96067943D01*
X114727346Y-96035240D01*
X114894978Y-96035240D01*
X115059390Y-96067943D01*
X115059390Y-96067943D01*
G37*
G36*
X111099390Y-96067943D02*
G01*
X111254262Y-96132093D01*
X111393643Y-96225225D01*
X111512177Y-96343759D01*
X111605309Y-96483140D01*
X111669459Y-96638012D01*
X111702162Y-96802424D01*
X111702162Y-96970056D01*
X111669459Y-97134468D01*
X111605309Y-97289340D01*
X111512177Y-97428721D01*
X111393643Y-97547255D01*
X111254262Y-97640387D01*
X111099390Y-97704537D01*
X110934978Y-97737240D01*
X110767346Y-97737240D01*
X110602934Y-97704537D01*
X110448062Y-97640387D01*
X110308681Y-97547255D01*
X110190147Y-97428721D01*
X110097015Y-97289340D01*
X110032865Y-97134468D01*
X110000162Y-96970056D01*
X110000162Y-96802424D01*
X110032865Y-96638012D01*
X110097015Y-96483140D01*
X110190147Y-96343759D01*
X110308681Y-96225225D01*
X110448062Y-96132093D01*
X110602934Y-96067943D01*
X110767346Y-96035240D01*
X110934978Y-96035240D01*
X111099390Y-96067943D01*
X111099390Y-96067943D01*
G37*
G36*
X181750466Y-95482943D02*
G01*
X181905338Y-95547093D01*
X182044719Y-95640225D01*
X182163253Y-95758759D01*
X182256385Y-95898140D01*
X182320535Y-96053012D01*
X182353238Y-96217424D01*
X182353238Y-96385056D01*
X182320535Y-96549468D01*
X182256385Y-96704340D01*
X182163253Y-96843721D01*
X182044719Y-96962255D01*
X181905338Y-97055387D01*
X181750466Y-97119537D01*
X181586054Y-97152240D01*
X181418422Y-97152240D01*
X181254010Y-97119537D01*
X181099138Y-97055387D01*
X180959757Y-96962255D01*
X180841223Y-96843721D01*
X180748091Y-96704340D01*
X180683941Y-96549468D01*
X180651238Y-96385056D01*
X180651238Y-96217424D01*
X180683941Y-96053012D01*
X180748091Y-95898140D01*
X180841223Y-95758759D01*
X180959757Y-95640225D01*
X181099138Y-95547093D01*
X181254010Y-95482943D01*
X181418422Y-95450240D01*
X181586054Y-95450240D01*
X181750466Y-95482943D01*
X181750466Y-95482943D01*
G37*
G36*
X113079390Y-94922943D02*
G01*
X113234262Y-94987093D01*
X113373643Y-95080225D01*
X113492177Y-95198759D01*
X113585309Y-95338140D01*
X113649459Y-95493012D01*
X113682162Y-95657424D01*
X113682162Y-95825056D01*
X113649459Y-95989468D01*
X113585309Y-96144340D01*
X113492177Y-96283721D01*
X113373643Y-96402255D01*
X113234262Y-96495387D01*
X113079390Y-96559537D01*
X112914978Y-96592240D01*
X112747346Y-96592240D01*
X112582934Y-96559537D01*
X112428062Y-96495387D01*
X112288681Y-96402255D01*
X112170147Y-96283721D01*
X112077015Y-96144340D01*
X112012865Y-95989468D01*
X111980162Y-95825056D01*
X111980162Y-95657424D01*
X112012865Y-95493012D01*
X112077015Y-95338140D01*
X112170147Y-95198759D01*
X112288681Y-95080225D01*
X112428062Y-94987093D01*
X112582934Y-94922943D01*
X112747346Y-94890240D01*
X112914978Y-94890240D01*
X113079390Y-94922943D01*
X113079390Y-94922943D01*
G37*
G36*
X183730466Y-94337943D02*
G01*
X183885338Y-94402093D01*
X184024719Y-94495225D01*
X184143253Y-94613759D01*
X184236385Y-94753140D01*
X184300535Y-94908012D01*
X184333238Y-95072424D01*
X184333238Y-95240056D01*
X184300535Y-95404468D01*
X184236385Y-95559340D01*
X184143253Y-95698721D01*
X184024719Y-95817255D01*
X183885338Y-95910387D01*
X183730466Y-95974537D01*
X183566054Y-96007240D01*
X183398422Y-96007240D01*
X183234010Y-95974537D01*
X183079138Y-95910387D01*
X182939757Y-95817255D01*
X182821223Y-95698721D01*
X182728091Y-95559340D01*
X182663941Y-95404468D01*
X182631238Y-95240056D01*
X182631238Y-95072424D01*
X182663941Y-94908012D01*
X182728091Y-94753140D01*
X182821223Y-94613759D01*
X182939757Y-94495225D01*
X183079138Y-94402093D01*
X183234010Y-94337943D01*
X183398422Y-94305240D01*
X183566054Y-94305240D01*
X183730466Y-94337943D01*
X183730466Y-94337943D01*
G37*
G36*
X180373238Y-96007240D02*
G01*
X178671238Y-96007240D01*
X178671238Y-94305240D01*
X180373238Y-94305240D01*
X180373238Y-96007240D01*
X180373238Y-96007240D01*
G37*
G36*
X111099390Y-93777943D02*
G01*
X111254262Y-93842093D01*
X111393643Y-93935225D01*
X111512177Y-94053759D01*
X111605309Y-94193140D01*
X111669459Y-94348012D01*
X111702162Y-94512424D01*
X111702162Y-94680056D01*
X111669459Y-94844468D01*
X111605309Y-94999340D01*
X111512177Y-95138721D01*
X111393643Y-95257255D01*
X111254262Y-95350387D01*
X111099390Y-95414537D01*
X110934978Y-95447240D01*
X110767346Y-95447240D01*
X110602934Y-95414537D01*
X110448062Y-95350387D01*
X110308681Y-95257255D01*
X110190147Y-95138721D01*
X110097015Y-94999340D01*
X110032865Y-94844468D01*
X110000162Y-94680056D01*
X110000162Y-94512424D01*
X110032865Y-94348012D01*
X110097015Y-94193140D01*
X110190147Y-94053759D01*
X110308681Y-93935225D01*
X110448062Y-93842093D01*
X110602934Y-93777943D01*
X110767346Y-93745240D01*
X110934978Y-93745240D01*
X111099390Y-93777943D01*
X111099390Y-93777943D01*
G37*
G36*
X115059390Y-93777943D02*
G01*
X115214262Y-93842093D01*
X115353643Y-93935225D01*
X115472177Y-94053759D01*
X115565309Y-94193140D01*
X115629459Y-94348012D01*
X115662162Y-94512424D01*
X115662162Y-94680056D01*
X115629459Y-94844468D01*
X115565309Y-94999340D01*
X115472177Y-95138721D01*
X115353643Y-95257255D01*
X115214262Y-95350387D01*
X115059390Y-95414537D01*
X114894978Y-95447240D01*
X114727346Y-95447240D01*
X114562934Y-95414537D01*
X114408062Y-95350387D01*
X114268681Y-95257255D01*
X114150147Y-95138721D01*
X114057015Y-94999340D01*
X113992865Y-94844468D01*
X113960162Y-94680056D01*
X113960162Y-94512424D01*
X113992865Y-94348012D01*
X114057015Y-94193140D01*
X114150147Y-94053759D01*
X114268681Y-93935225D01*
X114408062Y-93842093D01*
X114562934Y-93777943D01*
X114727346Y-93745240D01*
X114894978Y-93745240D01*
X115059390Y-93777943D01*
X115059390Y-93777943D01*
G37*
G36*
X129651500Y-95282240D02*
G01*
X127849500Y-95282240D01*
X127849500Y-93480240D01*
X129651500Y-93480240D01*
X129651500Y-95282240D01*
X129651500Y-95282240D01*
G37*
G36*
X166053900Y-95282240D02*
G01*
X164251900Y-95282240D01*
X164251900Y-93480240D01*
X166053900Y-93480240D01*
X166053900Y-95282240D01*
X166053900Y-95282240D01*
G37*
G36*
X181750466Y-93192943D02*
G01*
X181905338Y-93257093D01*
X182044719Y-93350225D01*
X182163253Y-93468759D01*
X182256385Y-93608140D01*
X182320535Y-93763012D01*
X182353238Y-93927424D01*
X182353238Y-94095056D01*
X182320535Y-94259468D01*
X182256385Y-94414340D01*
X182163253Y-94553721D01*
X182044719Y-94672255D01*
X181905338Y-94765387D01*
X181750466Y-94829537D01*
X181586054Y-94862240D01*
X181418422Y-94862240D01*
X181254010Y-94829537D01*
X181099138Y-94765387D01*
X180959757Y-94672255D01*
X180841223Y-94553721D01*
X180748091Y-94414340D01*
X180683941Y-94259468D01*
X180651238Y-94095056D01*
X180651238Y-93927424D01*
X180683941Y-93763012D01*
X180748091Y-93608140D01*
X180841223Y-93468759D01*
X180959757Y-93350225D01*
X181099138Y-93257093D01*
X181254010Y-93192943D01*
X181418422Y-93160240D01*
X181586054Y-93160240D01*
X181750466Y-93192943D01*
X181750466Y-93192943D01*
G37*
G36*
X151933695Y-86491054D02*
G01*
X152204854Y-86573309D01*
X152454755Y-86706884D01*
X152673795Y-86886645D01*
X152853556Y-87105685D01*
X152987131Y-87355586D01*
X153069386Y-87626745D01*
X153090200Y-87838074D01*
X153090200Y-90754406D01*
X153069386Y-90965735D01*
X152987131Y-91236894D01*
X152853556Y-91486795D01*
X152783315Y-91572384D01*
X152673795Y-91705835D01*
X152550840Y-91806740D01*
X152454754Y-91885596D01*
X152204853Y-92019171D01*
X151933694Y-92101426D01*
X151651700Y-92129200D01*
X151369705Y-92101426D01*
X151098546Y-92019171D01*
X150848645Y-91885596D01*
X150763056Y-91815355D01*
X150629605Y-91705835D01*
X150449845Y-91486795D01*
X150449844Y-91486794D01*
X150316269Y-91236893D01*
X150234014Y-90965734D01*
X150213200Y-90754405D01*
X150213201Y-87838074D01*
X150234015Y-87626745D01*
X150316270Y-87355586D01*
X150449845Y-87105685D01*
X150629606Y-86886645D01*
X150848646Y-86706884D01*
X151098547Y-86573309D01*
X151369706Y-86491054D01*
X151651700Y-86463280D01*
X151933695Y-86491054D01*
X151933695Y-86491054D01*
G37*
G36*
X147233695Y-86491054D02*
G01*
X147504854Y-86573309D01*
X147754755Y-86706884D01*
X147973795Y-86886645D01*
X148153556Y-87105685D01*
X148287131Y-87355586D01*
X148369386Y-87626745D01*
X148390200Y-87838074D01*
X148390200Y-90754406D01*
X148369386Y-90965735D01*
X148287131Y-91236894D01*
X148153556Y-91486795D01*
X148083315Y-91572384D01*
X147973795Y-91705835D01*
X147850840Y-91806740D01*
X147754754Y-91885596D01*
X147504853Y-92019171D01*
X147233694Y-92101426D01*
X146951700Y-92129200D01*
X146669705Y-92101426D01*
X146398546Y-92019171D01*
X146148645Y-91885596D01*
X146063056Y-91815355D01*
X145929605Y-91705835D01*
X145749845Y-91486795D01*
X145749844Y-91486794D01*
X145616269Y-91236893D01*
X145534014Y-90965734D01*
X145513200Y-90754405D01*
X145513201Y-87838074D01*
X145534015Y-87626745D01*
X145616270Y-87355586D01*
X145749845Y-87105685D01*
X145929606Y-86886645D01*
X146148646Y-86706884D01*
X146398547Y-86573309D01*
X146669706Y-86491054D01*
X146951700Y-86463280D01*
X147233695Y-86491054D01*
X147233695Y-86491054D01*
G37*
G36*
X142533695Y-86491054D02*
G01*
X142804854Y-86573309D01*
X143054755Y-86706884D01*
X143273795Y-86886645D01*
X143453556Y-87105685D01*
X143587131Y-87355586D01*
X143669386Y-87626745D01*
X143690200Y-87838074D01*
X143690200Y-90754406D01*
X143669386Y-90965735D01*
X143587131Y-91236894D01*
X143453556Y-91486795D01*
X143383315Y-91572384D01*
X143273795Y-91705835D01*
X143150840Y-91806740D01*
X143054754Y-91885596D01*
X142804853Y-92019171D01*
X142533694Y-92101426D01*
X142251700Y-92129200D01*
X141969705Y-92101426D01*
X141698546Y-92019171D01*
X141448645Y-91885596D01*
X141363056Y-91815355D01*
X141229605Y-91705835D01*
X141049845Y-91486795D01*
X141049844Y-91486794D01*
X140916269Y-91236893D01*
X140834014Y-90965734D01*
X140813200Y-90754405D01*
X140813201Y-87838074D01*
X140834015Y-87626745D01*
X140916270Y-87355586D01*
X141049845Y-87105685D01*
X141229606Y-86886645D01*
X141448646Y-86706884D01*
X141698547Y-86573309D01*
X141969706Y-86491054D01*
X142251700Y-86463280D01*
X142533695Y-86491054D01*
X142533695Y-86491054D01*
G37*
G36*
X181540492Y-84999058D02*
G01*
X181913749Y-85153666D01*
X181913751Y-85153667D01*
X182249674Y-85378124D01*
X182535354Y-85663804D01*
X182739766Y-85969727D01*
X182759812Y-85999729D01*
X182914420Y-86372986D01*
X182993238Y-86769233D01*
X182993238Y-87173247D01*
X182914420Y-87569494D01*
X182759812Y-87942751D01*
X182759811Y-87942753D01*
X182535354Y-88278676D01*
X182249674Y-88564356D01*
X181913751Y-88788813D01*
X181913750Y-88788814D01*
X181913749Y-88788814D01*
X181540492Y-88943422D01*
X181144245Y-89022240D01*
X180740231Y-89022240D01*
X180343984Y-88943422D01*
X179970727Y-88788814D01*
X179970726Y-88788814D01*
X179970725Y-88788813D01*
X179634802Y-88564356D01*
X179349122Y-88278676D01*
X179124665Y-87942753D01*
X179124664Y-87942751D01*
X178970056Y-87569494D01*
X178891238Y-87173247D01*
X178891238Y-86769233D01*
X178970056Y-86372986D01*
X179124664Y-85999729D01*
X179144711Y-85969727D01*
X179349122Y-85663804D01*
X179634802Y-85378124D01*
X179970725Y-85153667D01*
X179970727Y-85153666D01*
X180343984Y-84999058D01*
X180740231Y-84920240D01*
X181144245Y-84920240D01*
X181540492Y-84999058D01*
X181540492Y-84999058D01*
G37*
G36*
X113989416Y-84969058D02*
G01*
X114362673Y-85123666D01*
X114362675Y-85123667D01*
X114407573Y-85153667D01*
X114698598Y-85348124D01*
X114984278Y-85633804D01*
X115208736Y-85969729D01*
X115363344Y-86342986D01*
X115442162Y-86739233D01*
X115442162Y-87143247D01*
X115363344Y-87539494D01*
X115239669Y-87838072D01*
X115208735Y-87912753D01*
X114984278Y-88248676D01*
X114698598Y-88534356D01*
X114362675Y-88758813D01*
X114362674Y-88758814D01*
X114362673Y-88758814D01*
X113989416Y-88913422D01*
X113593169Y-88992240D01*
X113189155Y-88992240D01*
X112792908Y-88913422D01*
X112419651Y-88758814D01*
X112419650Y-88758814D01*
X112419649Y-88758813D01*
X112083726Y-88534356D01*
X111798046Y-88248676D01*
X111573589Y-87912753D01*
X111542655Y-87838072D01*
X111418980Y-87539494D01*
X111340162Y-87143247D01*
X111340162Y-86739233D01*
X111418980Y-86342986D01*
X111573588Y-85969729D01*
X111798046Y-85633804D01*
X112083726Y-85348124D01*
X112374751Y-85153667D01*
X112419649Y-85123667D01*
X112419651Y-85123666D01*
X112792908Y-84969058D01*
X113189155Y-84890240D01*
X113593169Y-84890240D01*
X113989416Y-84969058D01*
X113989416Y-84969058D01*
G37*
G36*
X142533695Y-76331054D02*
G01*
X142804854Y-76413309D01*
X143054755Y-76546884D01*
X143273795Y-76726645D01*
X143453556Y-76945685D01*
X143587131Y-77195586D01*
X143669386Y-77466745D01*
X143690200Y-77678074D01*
X143690200Y-80594406D01*
X143669386Y-80805735D01*
X143587131Y-81076894D01*
X143453556Y-81326795D01*
X143383315Y-81412384D01*
X143273795Y-81545835D01*
X143150840Y-81646740D01*
X143054754Y-81725596D01*
X142804853Y-81859171D01*
X142533694Y-81941426D01*
X142251700Y-81969200D01*
X141969705Y-81941426D01*
X141698546Y-81859171D01*
X141448645Y-81725596D01*
X141363056Y-81655355D01*
X141229605Y-81545835D01*
X141049845Y-81326795D01*
X141049844Y-81326794D01*
X140916269Y-81076893D01*
X140834014Y-80805734D01*
X140813200Y-80594405D01*
X140813201Y-77678074D01*
X140834015Y-77466745D01*
X140916270Y-77195586D01*
X141049845Y-76945685D01*
X141229606Y-76726645D01*
X141448646Y-76546884D01*
X141698547Y-76413309D01*
X141969706Y-76331054D01*
X142251700Y-76303280D01*
X142533695Y-76331054D01*
X142533695Y-76331054D01*
G37*
G36*
X147233695Y-76331054D02*
G01*
X147504854Y-76413309D01*
X147754755Y-76546884D01*
X147973795Y-76726645D01*
X148153556Y-76945685D01*
X148287131Y-77195586D01*
X148369386Y-77466745D01*
X148390200Y-77678074D01*
X148390200Y-80594406D01*
X148369386Y-80805735D01*
X148287131Y-81076894D01*
X148153556Y-81326795D01*
X148083315Y-81412384D01*
X147973795Y-81545835D01*
X147850840Y-81646740D01*
X147754754Y-81725596D01*
X147504853Y-81859171D01*
X147233694Y-81941426D01*
X146951700Y-81969200D01*
X146669705Y-81941426D01*
X146398546Y-81859171D01*
X146148645Y-81725596D01*
X146063056Y-81655355D01*
X145929605Y-81545835D01*
X145749845Y-81326795D01*
X145749844Y-81326794D01*
X145616269Y-81076893D01*
X145534014Y-80805734D01*
X145513200Y-80594405D01*
X145513201Y-77678074D01*
X145534015Y-77466745D01*
X145616270Y-77195586D01*
X145749845Y-76945685D01*
X145929606Y-76726645D01*
X146148646Y-76546884D01*
X146398547Y-76413309D01*
X146669706Y-76331054D01*
X146951700Y-76303280D01*
X147233695Y-76331054D01*
X147233695Y-76331054D01*
G37*
G36*
X151933695Y-76331054D02*
G01*
X152204854Y-76413309D01*
X152454755Y-76546884D01*
X152673795Y-76726645D01*
X152853556Y-76945685D01*
X152987131Y-77195586D01*
X153069386Y-77466745D01*
X153090200Y-77678074D01*
X153090200Y-80594406D01*
X153069386Y-80805735D01*
X152987131Y-81076894D01*
X152853556Y-81326795D01*
X152783315Y-81412384D01*
X152673795Y-81545835D01*
X152550840Y-81646740D01*
X152454754Y-81725596D01*
X152204853Y-81859171D01*
X151933694Y-81941426D01*
X151651700Y-81969200D01*
X151369705Y-81941426D01*
X151098546Y-81859171D01*
X150848645Y-81725596D01*
X150763056Y-81655355D01*
X150629605Y-81545835D01*
X150449845Y-81326795D01*
X150449844Y-81326794D01*
X150316269Y-81076893D01*
X150234014Y-80805734D01*
X150213200Y-80594405D01*
X150213201Y-77678074D01*
X150234015Y-77466745D01*
X150316270Y-77195586D01*
X150449845Y-76945685D01*
X150629606Y-76726645D01*
X150848646Y-76546884D01*
X151098547Y-76413309D01*
X151369706Y-76331054D01*
X151651700Y-76303280D01*
X151933695Y-76331054D01*
X151933695Y-76331054D01*
G37*
G36*
X151933695Y-62611054D02*
G01*
X152204854Y-62693309D01*
X152454755Y-62826884D01*
X152673795Y-63006645D01*
X152853556Y-63225685D01*
X152987131Y-63475586D01*
X153069386Y-63746745D01*
X153090200Y-63958074D01*
X153090200Y-66874406D01*
X153069386Y-67085735D01*
X152987131Y-67356894D01*
X152853556Y-67606795D01*
X152783315Y-67692384D01*
X152673795Y-67825835D01*
X152550840Y-67926740D01*
X152454754Y-68005596D01*
X152204853Y-68139171D01*
X151933694Y-68221426D01*
X151651700Y-68249200D01*
X151369705Y-68221426D01*
X151098546Y-68139171D01*
X150848645Y-68005596D01*
X150763056Y-67935355D01*
X150629605Y-67825835D01*
X150449845Y-67606795D01*
X150449844Y-67606794D01*
X150316269Y-67356893D01*
X150234014Y-67085734D01*
X150213200Y-66874405D01*
X150213201Y-63958074D01*
X150234015Y-63746745D01*
X150316270Y-63475586D01*
X150449845Y-63225685D01*
X150629606Y-63006645D01*
X150848646Y-62826884D01*
X151098547Y-62693309D01*
X151369706Y-62611054D01*
X151651700Y-62583280D01*
X151933695Y-62611054D01*
X151933695Y-62611054D01*
G37*
G36*
X142533695Y-62611054D02*
G01*
X142804854Y-62693309D01*
X143054755Y-62826884D01*
X143273795Y-63006645D01*
X143453556Y-63225685D01*
X143587131Y-63475586D01*
X143669386Y-63746745D01*
X143690200Y-63958074D01*
X143690200Y-66874406D01*
X143669386Y-67085735D01*
X143587131Y-67356894D01*
X143453556Y-67606795D01*
X143383315Y-67692384D01*
X143273795Y-67825835D01*
X143150840Y-67926740D01*
X143054754Y-68005596D01*
X142804853Y-68139171D01*
X142533694Y-68221426D01*
X142251700Y-68249200D01*
X141969705Y-68221426D01*
X141698546Y-68139171D01*
X141448645Y-68005596D01*
X141363056Y-67935355D01*
X141229605Y-67825835D01*
X141049845Y-67606795D01*
X141049844Y-67606794D01*
X140916269Y-67356893D01*
X140834014Y-67085734D01*
X140813200Y-66874405D01*
X140813201Y-63958074D01*
X140834015Y-63746745D01*
X140916270Y-63475586D01*
X141049845Y-63225685D01*
X141229606Y-63006645D01*
X141448646Y-62826884D01*
X141698547Y-62693309D01*
X141969706Y-62611054D01*
X142251700Y-62583280D01*
X142533695Y-62611054D01*
X142533695Y-62611054D01*
G37*
G36*
X147233695Y-62611054D02*
G01*
X147504854Y-62693309D01*
X147754755Y-62826884D01*
X147973795Y-63006645D01*
X148153556Y-63225685D01*
X148287131Y-63475586D01*
X148369386Y-63746745D01*
X148390200Y-63958074D01*
X148390200Y-66874406D01*
X148369386Y-67085735D01*
X148287131Y-67356894D01*
X148153556Y-67606795D01*
X148083315Y-67692384D01*
X147973795Y-67825835D01*
X147850840Y-67926740D01*
X147754754Y-68005596D01*
X147504853Y-68139171D01*
X147233694Y-68221426D01*
X146951700Y-68249200D01*
X146669705Y-68221426D01*
X146398546Y-68139171D01*
X146148645Y-68005596D01*
X146063056Y-67935355D01*
X145929605Y-67825835D01*
X145749845Y-67606795D01*
X145749844Y-67606794D01*
X145616269Y-67356893D01*
X145534014Y-67085734D01*
X145513200Y-66874405D01*
X145513201Y-63958074D01*
X145534015Y-63746745D01*
X145616270Y-63475586D01*
X145749845Y-63225685D01*
X145929606Y-63006645D01*
X146148646Y-62826884D01*
X146398547Y-62693309D01*
X146669706Y-62611054D01*
X146951700Y-62583280D01*
X147233695Y-62611054D01*
X147233695Y-62611054D01*
G37*
G36*
X128860943Y-65786759D02*
G01*
X128927127Y-65793277D01*
X129096966Y-65844797D01*
X129253491Y-65928462D01*
X129289229Y-65957792D01*
X129390686Y-66041054D01*
X129473948Y-66142511D01*
X129503278Y-66178249D01*
X129586943Y-66334774D01*
X129638463Y-66504613D01*
X129655859Y-66681240D01*
X129638463Y-66857867D01*
X129586943Y-67027706D01*
X129503278Y-67184231D01*
X129473948Y-67219969D01*
X129390686Y-67321426D01*
X129289229Y-67404688D01*
X129253491Y-67434018D01*
X129096966Y-67517683D01*
X128927127Y-67569203D01*
X128860943Y-67575721D01*
X128794760Y-67582240D01*
X128706240Y-67582240D01*
X128640057Y-67575721D01*
X128573873Y-67569203D01*
X128404034Y-67517683D01*
X128247509Y-67434018D01*
X128211771Y-67404688D01*
X128110314Y-67321426D01*
X128027052Y-67219969D01*
X127997722Y-67184231D01*
X127914057Y-67027706D01*
X127862537Y-66857867D01*
X127845141Y-66681240D01*
X127862537Y-66504613D01*
X127914057Y-66334774D01*
X127997722Y-66178249D01*
X128027052Y-66142511D01*
X128110314Y-66041054D01*
X128211771Y-65957792D01*
X128247509Y-65928462D01*
X128404034Y-65844797D01*
X128573873Y-65793277D01*
X128640057Y-65786759D01*
X128706240Y-65780240D01*
X128794760Y-65780240D01*
X128860943Y-65786759D01*
X128860943Y-65786759D01*
G37*
G36*
X129651500Y-65042240D02*
G01*
X127849500Y-65042240D01*
X127849500Y-63240240D01*
X129651500Y-63240240D01*
X129651500Y-65042240D01*
X129651500Y-65042240D01*
G37*
M02*
