G04 #@! TF.GenerationSoftware,KiCad,Pcbnew,5.1.4-e60b266~84~ubuntu19.04.1*
G04 #@! TF.CreationDate,2019-08-29T17:26:57+02:00*
G04 #@! TF.ProjectId,VGABreakout,56474142-7265-4616-9b6f-75742e6b6963,1.0*
G04 #@! TF.SameCoordinates,Original*
G04 #@! TF.FileFunction,Copper,L2,Bot*
G04 #@! TF.FilePolarity,Positive*
%FSLAX46Y46*%
G04 Gerber Fmt 4.6, Leading zero omitted, Abs format (unit mm)*
G04 Created by KiCad (PCBNEW 5.1.4-e60b266~84~ubuntu19.04.1) date 2019-08-29 17:26:57*
%MOMM*%
%LPD*%
G04 APERTURE LIST*
%ADD10O,5.550000X2.775000*%
%ADD11C,4.000000*%
%ADD12C,1.600000*%
%ADD13R,1.600000X1.600000*%
%ADD14O,1.700000X1.700000*%
%ADD15R,1.700000X1.700000*%
%ADD16C,0.800000*%
%ADD17C,0.250000*%
%ADD18C,0.254000*%
G04 APERTURE END LIST*
D10*
X154940000Y-108330000D03*
X154940000Y-113030000D03*
X154940000Y-117730000D03*
X144780000Y-117730000D03*
X144780000Y-113030000D03*
X144780000Y-108330000D03*
X134620000Y-117730000D03*
X134620000Y-113030000D03*
X134620000Y-108330000D03*
X124460000Y-117730000D03*
X124460000Y-113030000D03*
X124460000Y-108330000D03*
X114300000Y-108330000D03*
X114300000Y-113030000D03*
X114300000Y-117730000D03*
X100580000Y-117730000D03*
X100580000Y-113030000D03*
X100580000Y-108330000D03*
D11*
X147105000Y-146590538D03*
X122105000Y-146590538D03*
D12*
X129760000Y-149130538D03*
X132050000Y-149130538D03*
X134340000Y-149130538D03*
X136630000Y-149130538D03*
X138920000Y-149130538D03*
X130905000Y-147150538D03*
X133195000Y-147150538D03*
X135485000Y-147150538D03*
X137775000Y-147150538D03*
X140065000Y-147150538D03*
X129760000Y-145170538D03*
X132050000Y-145170538D03*
X134340000Y-145170538D03*
X136630000Y-145170538D03*
D13*
X138920000Y-145170538D03*
D14*
X101845000Y-131231200D03*
D15*
X99305000Y-131231200D03*
X129545000Y-131231200D03*
D14*
X132085000Y-131231200D03*
X134625000Y-131231200D03*
X137165000Y-131231200D03*
X139705000Y-131231200D03*
D15*
X129545000Y-94828800D03*
D14*
X132085000Y-94828800D03*
X134625000Y-94828800D03*
X137165000Y-94828800D03*
X139705000Y-94828800D03*
D11*
X122135000Y-79039462D03*
X147135000Y-79039462D03*
D12*
X139480000Y-76499462D03*
X137190000Y-76499462D03*
X134900000Y-76499462D03*
X132610000Y-76499462D03*
X130320000Y-76499462D03*
X138335000Y-78479462D03*
X136045000Y-78479462D03*
X133755000Y-78479462D03*
X131465000Y-78479462D03*
X129175000Y-78479462D03*
X139480000Y-80459462D03*
X137190000Y-80459462D03*
X134900000Y-80459462D03*
X132610000Y-80459462D03*
D13*
X130320000Y-80459462D03*
D16*
X145796000Y-73914000D03*
X133858000Y-137414000D03*
X138938000Y-151638000D03*
X137922000Y-87122000D03*
D17*
X142065462Y-73914000D02*
X139480000Y-76499462D01*
X145796000Y-73914000D02*
X142065462Y-73914000D01*
X127508000Y-140970000D02*
X131064000Y-137414000D01*
X132050000Y-151100000D02*
X131512000Y-151638000D01*
X131512000Y-151638000D02*
X129032000Y-151638000D01*
X132050000Y-149130538D02*
X132050000Y-151100000D01*
X129032000Y-151638000D02*
X127508000Y-150114000D01*
X131064000Y-137414000D02*
X133858000Y-137414000D01*
X127508000Y-150114000D02*
X127508000Y-140970000D01*
X149860000Y-120904000D02*
X149860000Y-74168000D01*
X149860000Y-74168000D02*
X148082000Y-72390000D01*
X148082000Y-72390000D02*
X136719462Y-72390000D01*
X136719462Y-72390000D02*
X132610000Y-76499462D01*
X136630000Y-149130538D02*
X136630000Y-151108000D01*
X141732000Y-152908000D02*
X144018000Y-150622000D01*
X144018000Y-150622000D02*
X144018000Y-126746000D01*
X138430000Y-152908000D02*
X141732000Y-152908000D01*
X136630000Y-151108000D02*
X138430000Y-152908000D01*
X149860000Y-120904000D02*
X144018000Y-126746000D01*
X138920000Y-149130538D02*
X138920000Y-151620000D01*
X138920000Y-151620000D02*
X138938000Y-151638000D01*
X108712000Y-152654000D02*
X99305000Y-143247000D01*
X132080000Y-152654000D02*
X108712000Y-152654000D01*
X133195000Y-147150538D02*
X133195000Y-151539000D01*
X99305000Y-143247000D02*
X99305000Y-131231200D01*
X133195000Y-151539000D02*
X132080000Y-152654000D01*
X149098000Y-92367462D02*
X137190000Y-80459462D01*
X132050000Y-145170538D02*
X132050000Y-142016000D01*
X133604000Y-134112000D02*
X127254000Y-134112000D01*
X129794000Y-124460000D02*
X144526000Y-124460000D01*
X132050000Y-142016000D02*
X135890000Y-138176000D01*
X127254000Y-134112000D02*
X125476000Y-132334000D01*
X125476000Y-132334000D02*
X125476000Y-128778000D01*
X144526000Y-124460000D02*
X149098000Y-119888000D01*
X135890000Y-138176000D02*
X135890000Y-136398000D01*
X125476000Y-128778000D02*
X129794000Y-124460000D01*
X135890000Y-136398000D02*
X133604000Y-134112000D01*
X149098000Y-119888000D02*
X149098000Y-92367462D01*
X136630000Y-135776200D02*
X132085000Y-131231200D01*
X136630000Y-145170538D02*
X136630000Y-135776200D01*
X129545000Y-130131200D02*
X129545000Y-131231200D01*
X138920000Y-145170538D02*
X138920000Y-144120538D01*
X142748000Y-140292538D02*
X142748000Y-128778000D01*
X138920000Y-144120538D02*
X142748000Y-140292538D01*
X142748000Y-128778000D02*
X141732000Y-127762000D01*
X131914200Y-127762000D02*
X129545000Y-130131200D01*
X141732000Y-127762000D02*
X131914200Y-127762000D01*
X136045000Y-78479462D02*
X136045000Y-82649000D01*
X136045000Y-82649000D02*
X128778000Y-89916000D01*
X128778000Y-89916000D02*
X104648000Y-89916000D01*
X100580000Y-93984000D02*
X100580000Y-108330000D01*
X104648000Y-89916000D02*
X100580000Y-93984000D01*
X139480000Y-80459462D02*
X141673462Y-80459462D01*
X135485000Y-147150538D02*
X135485000Y-150368000D01*
D18*
G36*
X160608501Y-157832838D02*
G01*
X94911500Y-157832838D01*
X94911500Y-153768066D01*
X96606538Y-153768066D01*
X96606538Y-154193010D01*
X96689440Y-154609788D01*
X96852059Y-155002385D01*
X97088145Y-155355712D01*
X97388626Y-155656193D01*
X97741953Y-155892279D01*
X98134550Y-156054898D01*
X98551328Y-156137800D01*
X98976272Y-156137800D01*
X99393050Y-156054898D01*
X99785647Y-155892279D01*
X100138974Y-155656193D01*
X100439455Y-155355712D01*
X100675541Y-155002385D01*
X100838160Y-154609788D01*
X100921062Y-154193010D01*
X100921062Y-153768066D01*
X154598938Y-153768066D01*
X154598938Y-154193010D01*
X154681840Y-154609788D01*
X154844459Y-155002385D01*
X155080545Y-155355712D01*
X155381026Y-155656193D01*
X155734353Y-155892279D01*
X156126950Y-156054898D01*
X156543728Y-156137800D01*
X156968672Y-156137800D01*
X157385450Y-156054898D01*
X157778047Y-155892279D01*
X158131374Y-155656193D01*
X158431855Y-155355712D01*
X158667941Y-155002385D01*
X158830560Y-154609788D01*
X158913462Y-154193010D01*
X158913462Y-153768066D01*
X158830560Y-153351288D01*
X158667941Y-152958691D01*
X158431855Y-152605364D01*
X158131374Y-152304883D01*
X157778047Y-152068797D01*
X157385450Y-151906178D01*
X156968672Y-151823276D01*
X156543728Y-151823276D01*
X156126950Y-151906178D01*
X155734353Y-152068797D01*
X155381026Y-152304883D01*
X155080545Y-152605364D01*
X154844459Y-152958691D01*
X154681840Y-153351288D01*
X154598938Y-153768066D01*
X100921062Y-153768066D01*
X100838160Y-153351288D01*
X100675541Y-152958691D01*
X100439455Y-152605364D01*
X100138974Y-152304883D01*
X99785647Y-152068797D01*
X99393050Y-151906178D01*
X98976272Y-151823276D01*
X98551328Y-151823276D01*
X98134550Y-151906178D01*
X97741953Y-152068797D01*
X97388626Y-152304883D01*
X97088145Y-152605364D01*
X96852059Y-152958691D01*
X96689440Y-153351288D01*
X96606538Y-153768066D01*
X94911500Y-153768066D01*
X94911500Y-117730000D01*
X97160214Y-117730000D01*
X97199264Y-118126479D01*
X97314913Y-118507722D01*
X97502716Y-118859078D01*
X97755457Y-119167043D01*
X98063422Y-119419784D01*
X98414778Y-119607587D01*
X98796021Y-119723236D01*
X99093142Y-119752500D01*
X102066858Y-119752500D01*
X102363979Y-119723236D01*
X102745222Y-119607587D01*
X103096578Y-119419784D01*
X103404543Y-119167043D01*
X103657284Y-118859078D01*
X103845087Y-118507722D01*
X103960736Y-118126479D01*
X103999786Y-117730000D01*
X110880214Y-117730000D01*
X110919264Y-118126479D01*
X111034913Y-118507722D01*
X111222716Y-118859078D01*
X111475457Y-119167043D01*
X111783422Y-119419784D01*
X112134778Y-119607587D01*
X112516021Y-119723236D01*
X112813142Y-119752500D01*
X115786858Y-119752500D01*
X116083979Y-119723236D01*
X116465222Y-119607587D01*
X116816578Y-119419784D01*
X117124543Y-119167043D01*
X117377284Y-118859078D01*
X117565087Y-118507722D01*
X117680736Y-118126479D01*
X117719786Y-117730000D01*
X121040214Y-117730000D01*
X121079264Y-118126479D01*
X121194913Y-118507722D01*
X121382716Y-118859078D01*
X121635457Y-119167043D01*
X121943422Y-119419784D01*
X122294778Y-119607587D01*
X122676021Y-119723236D01*
X122973142Y-119752500D01*
X125946858Y-119752500D01*
X126243979Y-119723236D01*
X126625222Y-119607587D01*
X126976578Y-119419784D01*
X127284543Y-119167043D01*
X127537284Y-118859078D01*
X127725087Y-118507722D01*
X127840736Y-118126479D01*
X127879786Y-117730000D01*
X131200214Y-117730000D01*
X131239264Y-118126479D01*
X131354913Y-118507722D01*
X131542716Y-118859078D01*
X131795457Y-119167043D01*
X132103422Y-119419784D01*
X132454778Y-119607587D01*
X132836021Y-119723236D01*
X133133142Y-119752500D01*
X136106858Y-119752500D01*
X136403979Y-119723236D01*
X136785222Y-119607587D01*
X137136578Y-119419784D01*
X137444543Y-119167043D01*
X137697284Y-118859078D01*
X137885087Y-118507722D01*
X138000736Y-118126479D01*
X138039786Y-117730000D01*
X141360214Y-117730000D01*
X141399264Y-118126479D01*
X141514913Y-118507722D01*
X141702716Y-118859078D01*
X141955457Y-119167043D01*
X142263422Y-119419784D01*
X142614778Y-119607587D01*
X142996021Y-119723236D01*
X143293142Y-119752500D01*
X146266858Y-119752500D01*
X146563979Y-119723236D01*
X146945222Y-119607587D01*
X147296578Y-119419784D01*
X147604543Y-119167043D01*
X147857284Y-118859078D01*
X148045087Y-118507722D01*
X148160736Y-118126479D01*
X148199786Y-117730000D01*
X148160736Y-117333521D01*
X148045087Y-116952278D01*
X147857284Y-116600922D01*
X147604543Y-116292957D01*
X147296578Y-116040216D01*
X146945222Y-115852413D01*
X146563979Y-115736764D01*
X146266858Y-115707500D01*
X143293142Y-115707500D01*
X142996021Y-115736764D01*
X142614778Y-115852413D01*
X142263422Y-116040216D01*
X141955457Y-116292957D01*
X141702716Y-116600922D01*
X141514913Y-116952278D01*
X141399264Y-117333521D01*
X141360214Y-117730000D01*
X138039786Y-117730000D01*
X138000736Y-117333521D01*
X137885087Y-116952278D01*
X137697284Y-116600922D01*
X137444543Y-116292957D01*
X137136578Y-116040216D01*
X136785222Y-115852413D01*
X136403979Y-115736764D01*
X136106858Y-115707500D01*
X133133142Y-115707500D01*
X132836021Y-115736764D01*
X132454778Y-115852413D01*
X132103422Y-116040216D01*
X131795457Y-116292957D01*
X131542716Y-116600922D01*
X131354913Y-116952278D01*
X131239264Y-117333521D01*
X131200214Y-117730000D01*
X127879786Y-117730000D01*
X127840736Y-117333521D01*
X127725087Y-116952278D01*
X127537284Y-116600922D01*
X127284543Y-116292957D01*
X126976578Y-116040216D01*
X126625222Y-115852413D01*
X126243979Y-115736764D01*
X125946858Y-115707500D01*
X122973142Y-115707500D01*
X122676021Y-115736764D01*
X122294778Y-115852413D01*
X121943422Y-116040216D01*
X121635457Y-116292957D01*
X121382716Y-116600922D01*
X121194913Y-116952278D01*
X121079264Y-117333521D01*
X121040214Y-117730000D01*
X117719786Y-117730000D01*
X117680736Y-117333521D01*
X117565087Y-116952278D01*
X117377284Y-116600922D01*
X117124543Y-116292957D01*
X116816578Y-116040216D01*
X116465222Y-115852413D01*
X116083979Y-115736764D01*
X115786858Y-115707500D01*
X112813142Y-115707500D01*
X112516021Y-115736764D01*
X112134778Y-115852413D01*
X111783422Y-116040216D01*
X111475457Y-116292957D01*
X111222716Y-116600922D01*
X111034913Y-116952278D01*
X110919264Y-117333521D01*
X110880214Y-117730000D01*
X103999786Y-117730000D01*
X103960736Y-117333521D01*
X103845087Y-116952278D01*
X103657284Y-116600922D01*
X103404543Y-116292957D01*
X103096578Y-116040216D01*
X102745222Y-115852413D01*
X102363979Y-115736764D01*
X102066858Y-115707500D01*
X99093142Y-115707500D01*
X98796021Y-115736764D01*
X98414778Y-115852413D01*
X98063422Y-116040216D01*
X97755457Y-116292957D01*
X97502716Y-116600922D01*
X97314913Y-116952278D01*
X97199264Y-117333521D01*
X97160214Y-117730000D01*
X94911500Y-117730000D01*
X94911500Y-113030000D01*
X97160214Y-113030000D01*
X97199264Y-113426479D01*
X97314913Y-113807722D01*
X97502716Y-114159078D01*
X97755457Y-114467043D01*
X98063422Y-114719784D01*
X98414778Y-114907587D01*
X98796021Y-115023236D01*
X99093142Y-115052500D01*
X102066858Y-115052500D01*
X102363979Y-115023236D01*
X102745222Y-114907587D01*
X103096578Y-114719784D01*
X103404543Y-114467043D01*
X103657284Y-114159078D01*
X103845087Y-113807722D01*
X103960736Y-113426479D01*
X103999786Y-113030000D01*
X110880214Y-113030000D01*
X110919264Y-113426479D01*
X111034913Y-113807722D01*
X111222716Y-114159078D01*
X111475457Y-114467043D01*
X111783422Y-114719784D01*
X112134778Y-114907587D01*
X112516021Y-115023236D01*
X112813142Y-115052500D01*
X115786858Y-115052500D01*
X116083979Y-115023236D01*
X116465222Y-114907587D01*
X116816578Y-114719784D01*
X117124543Y-114467043D01*
X117377284Y-114159078D01*
X117565087Y-113807722D01*
X117680736Y-113426479D01*
X117719786Y-113030000D01*
X121040214Y-113030000D01*
X121079264Y-113426479D01*
X121194913Y-113807722D01*
X121382716Y-114159078D01*
X121635457Y-114467043D01*
X121943422Y-114719784D01*
X122294778Y-114907587D01*
X122676021Y-115023236D01*
X122973142Y-115052500D01*
X125946858Y-115052500D01*
X126243979Y-115023236D01*
X126625222Y-114907587D01*
X126976578Y-114719784D01*
X127284543Y-114467043D01*
X127537284Y-114159078D01*
X127725087Y-113807722D01*
X127840736Y-113426479D01*
X127879786Y-113030000D01*
X131200214Y-113030000D01*
X131239264Y-113426479D01*
X131354913Y-113807722D01*
X131542716Y-114159078D01*
X131795457Y-114467043D01*
X132103422Y-114719784D01*
X132454778Y-114907587D01*
X132836021Y-115023236D01*
X133133142Y-115052500D01*
X136106858Y-115052500D01*
X136403979Y-115023236D01*
X136785222Y-114907587D01*
X137136578Y-114719784D01*
X137444543Y-114467043D01*
X137697284Y-114159078D01*
X137885087Y-113807722D01*
X138000736Y-113426479D01*
X138039786Y-113030000D01*
X141360214Y-113030000D01*
X141399264Y-113426479D01*
X141514913Y-113807722D01*
X141702716Y-114159078D01*
X141955457Y-114467043D01*
X142263422Y-114719784D01*
X142614778Y-114907587D01*
X142996021Y-115023236D01*
X143293142Y-115052500D01*
X146266858Y-115052500D01*
X146563979Y-115023236D01*
X146945222Y-114907587D01*
X147296578Y-114719784D01*
X147604543Y-114467043D01*
X147857284Y-114159078D01*
X148045087Y-113807722D01*
X148160736Y-113426479D01*
X148199786Y-113030000D01*
X148160736Y-112633521D01*
X148045087Y-112252278D01*
X147857284Y-111900922D01*
X147604543Y-111592957D01*
X147296578Y-111340216D01*
X146945222Y-111152413D01*
X146563979Y-111036764D01*
X146266858Y-111007500D01*
X143293142Y-111007500D01*
X142996021Y-111036764D01*
X142614778Y-111152413D01*
X142263422Y-111340216D01*
X141955457Y-111592957D01*
X141702716Y-111900922D01*
X141514913Y-112252278D01*
X141399264Y-112633521D01*
X141360214Y-113030000D01*
X138039786Y-113030000D01*
X138000736Y-112633521D01*
X137885087Y-112252278D01*
X137697284Y-111900922D01*
X137444543Y-111592957D01*
X137136578Y-111340216D01*
X136785222Y-111152413D01*
X136403979Y-111036764D01*
X136106858Y-111007500D01*
X133133142Y-111007500D01*
X132836021Y-111036764D01*
X132454778Y-111152413D01*
X132103422Y-111340216D01*
X131795457Y-111592957D01*
X131542716Y-111900922D01*
X131354913Y-112252278D01*
X131239264Y-112633521D01*
X131200214Y-113030000D01*
X127879786Y-113030000D01*
X127840736Y-112633521D01*
X127725087Y-112252278D01*
X127537284Y-111900922D01*
X127284543Y-111592957D01*
X126976578Y-111340216D01*
X126625222Y-111152413D01*
X126243979Y-111036764D01*
X125946858Y-111007500D01*
X122973142Y-111007500D01*
X122676021Y-111036764D01*
X122294778Y-111152413D01*
X121943422Y-111340216D01*
X121635457Y-111592957D01*
X121382716Y-111900922D01*
X121194913Y-112252278D01*
X121079264Y-112633521D01*
X121040214Y-113030000D01*
X117719786Y-113030000D01*
X117680736Y-112633521D01*
X117565087Y-112252278D01*
X117377284Y-111900922D01*
X117124543Y-111592957D01*
X116816578Y-111340216D01*
X116465222Y-111152413D01*
X116083979Y-111036764D01*
X115786858Y-111007500D01*
X112813142Y-111007500D01*
X112516021Y-111036764D01*
X112134778Y-111152413D01*
X111783422Y-111340216D01*
X111475457Y-111592957D01*
X111222716Y-111900922D01*
X111034913Y-112252278D01*
X110919264Y-112633521D01*
X110880214Y-113030000D01*
X103999786Y-113030000D01*
X103960736Y-112633521D01*
X103845087Y-112252278D01*
X103657284Y-111900922D01*
X103404543Y-111592957D01*
X103096578Y-111340216D01*
X102745222Y-111152413D01*
X102363979Y-111036764D01*
X102066858Y-111007500D01*
X99093142Y-111007500D01*
X98796021Y-111036764D01*
X98414778Y-111152413D01*
X98063422Y-111340216D01*
X97755457Y-111592957D01*
X97502716Y-111900922D01*
X97314913Y-112252278D01*
X97199264Y-112633521D01*
X97160214Y-113030000D01*
X94911500Y-113030000D01*
X94911500Y-108330000D01*
X97160214Y-108330000D01*
X97199264Y-108726479D01*
X97314913Y-109107722D01*
X97502716Y-109459078D01*
X97755457Y-109767043D01*
X98063422Y-110019784D01*
X98414778Y-110207587D01*
X98796021Y-110323236D01*
X99093142Y-110352500D01*
X102066858Y-110352500D01*
X102363979Y-110323236D01*
X102745222Y-110207587D01*
X103096578Y-110019784D01*
X103404543Y-109767043D01*
X103657284Y-109459078D01*
X103845087Y-109107722D01*
X103960736Y-108726479D01*
X103999786Y-108330000D01*
X110880214Y-108330000D01*
X110919264Y-108726479D01*
X111034913Y-109107722D01*
X111222716Y-109459078D01*
X111475457Y-109767043D01*
X111783422Y-110019784D01*
X112134778Y-110207587D01*
X112516021Y-110323236D01*
X112813142Y-110352500D01*
X115786858Y-110352500D01*
X116083979Y-110323236D01*
X116465222Y-110207587D01*
X116816578Y-110019784D01*
X117124543Y-109767043D01*
X117377284Y-109459078D01*
X117565087Y-109107722D01*
X117680736Y-108726479D01*
X117719786Y-108330000D01*
X121040214Y-108330000D01*
X121079264Y-108726479D01*
X121194913Y-109107722D01*
X121382716Y-109459078D01*
X121635457Y-109767043D01*
X121943422Y-110019784D01*
X122294778Y-110207587D01*
X122676021Y-110323236D01*
X122973142Y-110352500D01*
X125946858Y-110352500D01*
X126243979Y-110323236D01*
X126625222Y-110207587D01*
X126976578Y-110019784D01*
X127284543Y-109767043D01*
X127537284Y-109459078D01*
X127725087Y-109107722D01*
X127840736Y-108726479D01*
X127879786Y-108330000D01*
X131200214Y-108330000D01*
X131239264Y-108726479D01*
X131354913Y-109107722D01*
X131542716Y-109459078D01*
X131795457Y-109767043D01*
X132103422Y-110019784D01*
X132454778Y-110207587D01*
X132836021Y-110323236D01*
X133133142Y-110352500D01*
X136106858Y-110352500D01*
X136403979Y-110323236D01*
X136785222Y-110207587D01*
X137136578Y-110019784D01*
X137444543Y-109767043D01*
X137697284Y-109459078D01*
X137885087Y-109107722D01*
X138000736Y-108726479D01*
X138039786Y-108330000D01*
X141360214Y-108330000D01*
X141399264Y-108726479D01*
X141514913Y-109107722D01*
X141702716Y-109459078D01*
X141955457Y-109767043D01*
X142263422Y-110019784D01*
X142614778Y-110207587D01*
X142996021Y-110323236D01*
X143293142Y-110352500D01*
X146266858Y-110352500D01*
X146563979Y-110323236D01*
X146945222Y-110207587D01*
X147296578Y-110019784D01*
X147604543Y-109767043D01*
X147857284Y-109459078D01*
X148045087Y-109107722D01*
X148160736Y-108726479D01*
X148199786Y-108330000D01*
X148160736Y-107933521D01*
X148045087Y-107552278D01*
X147857284Y-107200922D01*
X147604543Y-106892957D01*
X147296578Y-106640216D01*
X146945222Y-106452413D01*
X146563979Y-106336764D01*
X146266858Y-106307500D01*
X143293142Y-106307500D01*
X142996021Y-106336764D01*
X142614778Y-106452413D01*
X142263422Y-106640216D01*
X141955457Y-106892957D01*
X141702716Y-107200922D01*
X141514913Y-107552278D01*
X141399264Y-107933521D01*
X141360214Y-108330000D01*
X138039786Y-108330000D01*
X138000736Y-107933521D01*
X137885087Y-107552278D01*
X137697284Y-107200922D01*
X137444543Y-106892957D01*
X137136578Y-106640216D01*
X136785222Y-106452413D01*
X136403979Y-106336764D01*
X136106858Y-106307500D01*
X133133142Y-106307500D01*
X132836021Y-106336764D01*
X132454778Y-106452413D01*
X132103422Y-106640216D01*
X131795457Y-106892957D01*
X131542716Y-107200922D01*
X131354913Y-107552278D01*
X131239264Y-107933521D01*
X131200214Y-108330000D01*
X127879786Y-108330000D01*
X127840736Y-107933521D01*
X127725087Y-107552278D01*
X127537284Y-107200922D01*
X127284543Y-106892957D01*
X126976578Y-106640216D01*
X126625222Y-106452413D01*
X126243979Y-106336764D01*
X125946858Y-106307500D01*
X122973142Y-106307500D01*
X122676021Y-106336764D01*
X122294778Y-106452413D01*
X121943422Y-106640216D01*
X121635457Y-106892957D01*
X121382716Y-107200922D01*
X121194913Y-107552278D01*
X121079264Y-107933521D01*
X121040214Y-108330000D01*
X117719786Y-108330000D01*
X117680736Y-107933521D01*
X117565087Y-107552278D01*
X117377284Y-107200922D01*
X117124543Y-106892957D01*
X116816578Y-106640216D01*
X116465222Y-106452413D01*
X116083979Y-106336764D01*
X115786858Y-106307500D01*
X112813142Y-106307500D01*
X112516021Y-106336764D01*
X112134778Y-106452413D01*
X111783422Y-106640216D01*
X111475457Y-106892957D01*
X111222716Y-107200922D01*
X111034913Y-107552278D01*
X110919264Y-107933521D01*
X110880214Y-108330000D01*
X103999786Y-108330000D01*
X103960736Y-107933521D01*
X103845087Y-107552278D01*
X103657284Y-107200922D01*
X103404543Y-106892957D01*
X103096578Y-106640216D01*
X102745222Y-106452413D01*
X102363979Y-106336764D01*
X102066858Y-106307500D01*
X101340000Y-106307500D01*
X101340000Y-94298801D01*
X101660001Y-93978800D01*
X128056928Y-93978800D01*
X128056928Y-95678800D01*
X128069188Y-95803282D01*
X128105498Y-95922980D01*
X128164463Y-96033294D01*
X128243815Y-96129985D01*
X128340506Y-96209337D01*
X128450820Y-96268302D01*
X128570518Y-96304612D01*
X128695000Y-96316872D01*
X130395000Y-96316872D01*
X130519482Y-96304612D01*
X130639180Y-96268302D01*
X130749494Y-96209337D01*
X130846185Y-96129985D01*
X130925537Y-96033294D01*
X130984502Y-95922980D01*
X131005393Y-95854113D01*
X131029866Y-95883934D01*
X131255986Y-96069506D01*
X131513966Y-96207399D01*
X131793889Y-96292313D01*
X132012050Y-96313800D01*
X132157950Y-96313800D01*
X132376111Y-96292313D01*
X132656034Y-96207399D01*
X132914014Y-96069506D01*
X133140134Y-95883934D01*
X133325706Y-95657814D01*
X133355000Y-95603009D01*
X133384294Y-95657814D01*
X133569866Y-95883934D01*
X133795986Y-96069506D01*
X134053966Y-96207399D01*
X134333889Y-96292313D01*
X134552050Y-96313800D01*
X134697950Y-96313800D01*
X134916111Y-96292313D01*
X135196034Y-96207399D01*
X135454014Y-96069506D01*
X135680134Y-95883934D01*
X135865706Y-95657814D01*
X135895000Y-95603009D01*
X135924294Y-95657814D01*
X136109866Y-95883934D01*
X136335986Y-96069506D01*
X136593966Y-96207399D01*
X136873889Y-96292313D01*
X137092050Y-96313800D01*
X137237950Y-96313800D01*
X137456111Y-96292313D01*
X137736034Y-96207399D01*
X137994014Y-96069506D01*
X138220134Y-95883934D01*
X138405706Y-95657814D01*
X138435000Y-95603009D01*
X138464294Y-95657814D01*
X138649866Y-95883934D01*
X138875986Y-96069506D01*
X139133966Y-96207399D01*
X139413889Y-96292313D01*
X139632050Y-96313800D01*
X139777950Y-96313800D01*
X139996111Y-96292313D01*
X140276034Y-96207399D01*
X140534014Y-96069506D01*
X140760134Y-95883934D01*
X140945706Y-95657814D01*
X141083599Y-95399834D01*
X141168513Y-95119911D01*
X141197185Y-94828800D01*
X141168513Y-94537689D01*
X141083599Y-94257766D01*
X140945706Y-93999786D01*
X140760134Y-93773666D01*
X140534014Y-93588094D01*
X140276034Y-93450201D01*
X139996111Y-93365287D01*
X139777950Y-93343800D01*
X139632050Y-93343800D01*
X139413889Y-93365287D01*
X139133966Y-93450201D01*
X138875986Y-93588094D01*
X138649866Y-93773666D01*
X138464294Y-93999786D01*
X138435000Y-94054591D01*
X138405706Y-93999786D01*
X138220134Y-93773666D01*
X137994014Y-93588094D01*
X137736034Y-93450201D01*
X137456111Y-93365287D01*
X137237950Y-93343800D01*
X137092050Y-93343800D01*
X136873889Y-93365287D01*
X136593966Y-93450201D01*
X136335986Y-93588094D01*
X136109866Y-93773666D01*
X135924294Y-93999786D01*
X135895000Y-94054591D01*
X135865706Y-93999786D01*
X135680134Y-93773666D01*
X135454014Y-93588094D01*
X135196034Y-93450201D01*
X134916111Y-93365287D01*
X134697950Y-93343800D01*
X134552050Y-93343800D01*
X134333889Y-93365287D01*
X134053966Y-93450201D01*
X133795986Y-93588094D01*
X133569866Y-93773666D01*
X133384294Y-93999786D01*
X133355000Y-94054591D01*
X133325706Y-93999786D01*
X133140134Y-93773666D01*
X132914014Y-93588094D01*
X132656034Y-93450201D01*
X132376111Y-93365287D01*
X132157950Y-93343800D01*
X132012050Y-93343800D01*
X131793889Y-93365287D01*
X131513966Y-93450201D01*
X131255986Y-93588094D01*
X131029866Y-93773666D01*
X131005393Y-93803487D01*
X130984502Y-93734620D01*
X130925537Y-93624306D01*
X130846185Y-93527615D01*
X130749494Y-93448263D01*
X130639180Y-93389298D01*
X130519482Y-93352988D01*
X130395000Y-93340728D01*
X128695000Y-93340728D01*
X128570518Y-93352988D01*
X128450820Y-93389298D01*
X128340506Y-93448263D01*
X128243815Y-93527615D01*
X128164463Y-93624306D01*
X128105498Y-93734620D01*
X128069188Y-93854318D01*
X128056928Y-93978800D01*
X101660001Y-93978800D01*
X104962802Y-90676000D01*
X128740678Y-90676000D01*
X128778000Y-90679676D01*
X128815322Y-90676000D01*
X128815333Y-90676000D01*
X128926986Y-90665003D01*
X129070247Y-90621546D01*
X129202276Y-90550974D01*
X129318001Y-90456001D01*
X129341804Y-90426997D01*
X136556003Y-83212799D01*
X136585001Y-83189001D01*
X136611332Y-83156917D01*
X136679974Y-83073277D01*
X136750546Y-82941247D01*
X136794003Y-82797986D01*
X136805000Y-82686333D01*
X136805000Y-82686323D01*
X136808676Y-82649000D01*
X136805000Y-82611677D01*
X136805000Y-81845993D01*
X137048665Y-81894462D01*
X137331335Y-81894462D01*
X137513887Y-81858150D01*
X148338001Y-92682265D01*
X148338000Y-119573197D01*
X144211199Y-123700000D01*
X129831322Y-123700000D01*
X129793999Y-123696324D01*
X129756676Y-123700000D01*
X129756667Y-123700000D01*
X129645014Y-123710997D01*
X129501753Y-123754454D01*
X129369724Y-123825026D01*
X129253999Y-123919999D01*
X129230201Y-123948997D01*
X124964998Y-128214201D01*
X124936000Y-128237999D01*
X124912202Y-128266997D01*
X124912201Y-128266998D01*
X124841026Y-128353724D01*
X124770454Y-128485754D01*
X124726998Y-128629015D01*
X124712324Y-128778000D01*
X124716001Y-128815332D01*
X124716000Y-132296677D01*
X124712324Y-132334000D01*
X124716000Y-132371322D01*
X124716000Y-132371332D01*
X124726997Y-132482985D01*
X124765465Y-132609799D01*
X124770454Y-132626246D01*
X124841026Y-132758276D01*
X124880871Y-132806826D01*
X124935999Y-132874001D01*
X124965003Y-132897804D01*
X126690200Y-134623002D01*
X126713999Y-134652001D01*
X126829724Y-134746974D01*
X126961753Y-134817546D01*
X127105014Y-134861003D01*
X127216667Y-134872000D01*
X127216675Y-134872000D01*
X127254000Y-134875676D01*
X127291325Y-134872000D01*
X133289199Y-134872000D01*
X135130001Y-136712803D01*
X135130000Y-137861198D01*
X131538998Y-141452201D01*
X131510000Y-141475999D01*
X131486202Y-141504997D01*
X131486201Y-141504998D01*
X131415026Y-141591724D01*
X131344454Y-141723754D01*
X131300998Y-141867015D01*
X131286324Y-142016000D01*
X131290001Y-142053332D01*
X131290000Y-143952494D01*
X131135241Y-144055901D01*
X130935363Y-144255779D01*
X130848628Y-144385587D01*
X130752702Y-144357441D01*
X129939605Y-145170538D01*
X129953748Y-145184681D01*
X129774143Y-145364286D01*
X129760000Y-145350143D01*
X128946903Y-146163240D01*
X129018486Y-146407209D01*
X129273996Y-146528109D01*
X129548184Y-146596838D01*
X129578748Y-146598345D01*
X129547429Y-146664534D01*
X129478700Y-146938722D01*
X129464783Y-147221050D01*
X129506213Y-147500668D01*
X129578742Y-147703479D01*
X129341426Y-147750685D01*
X129080273Y-147858858D01*
X128845241Y-148015901D01*
X128645363Y-148215779D01*
X128488320Y-148450811D01*
X128380147Y-148711964D01*
X128325000Y-148989203D01*
X128325000Y-149271873D01*
X128380147Y-149549112D01*
X128488320Y-149810265D01*
X128645363Y-150045297D01*
X128845241Y-150245175D01*
X129080273Y-150402218D01*
X129341426Y-150510391D01*
X129618665Y-150565538D01*
X129901335Y-150565538D01*
X130178574Y-150510391D01*
X130439727Y-150402218D01*
X130674759Y-150245175D01*
X130874637Y-150045297D01*
X130905000Y-149999855D01*
X130935363Y-150045297D01*
X131135241Y-150245175D01*
X131290001Y-150348582D01*
X131290001Y-150785198D01*
X131197199Y-150878000D01*
X129346803Y-150878000D01*
X128268000Y-149799199D01*
X128268000Y-145241050D01*
X128319783Y-145241050D01*
X128361213Y-145520668D01*
X128456397Y-145786830D01*
X128523329Y-145912052D01*
X128767298Y-145983635D01*
X129580395Y-145170538D01*
X128767298Y-144357441D01*
X128523329Y-144429024D01*
X128402429Y-144684534D01*
X128333700Y-144958722D01*
X128319783Y-145241050D01*
X128268000Y-145241050D01*
X128268000Y-144177836D01*
X128946903Y-144177836D01*
X129760000Y-144990933D01*
X130573097Y-144177836D01*
X130501514Y-143933867D01*
X130246004Y-143812967D01*
X129971816Y-143744238D01*
X129689488Y-143730321D01*
X129409870Y-143771751D01*
X129143708Y-143866935D01*
X129018486Y-143933867D01*
X128946903Y-144177836D01*
X128268000Y-144177836D01*
X128268000Y-141284801D01*
X131378803Y-138174000D01*
X133154289Y-138174000D01*
X133198226Y-138217937D01*
X133367744Y-138331205D01*
X133556102Y-138409226D01*
X133756061Y-138449000D01*
X133959939Y-138449000D01*
X134159898Y-138409226D01*
X134348256Y-138331205D01*
X134517774Y-138217937D01*
X134661937Y-138073774D01*
X134775205Y-137904256D01*
X134853226Y-137715898D01*
X134893000Y-137515939D01*
X134893000Y-137312061D01*
X134853226Y-137112102D01*
X134775205Y-136923744D01*
X134661937Y-136754226D01*
X134517774Y-136610063D01*
X134348256Y-136496795D01*
X134159898Y-136418774D01*
X133959939Y-136379000D01*
X133756061Y-136379000D01*
X133556102Y-136418774D01*
X133367744Y-136496795D01*
X133198226Y-136610063D01*
X133154289Y-136654000D01*
X131101322Y-136654000D01*
X131063999Y-136650324D01*
X131026676Y-136654000D01*
X131026667Y-136654000D01*
X130915014Y-136664997D01*
X130771753Y-136708454D01*
X130639724Y-136779026D01*
X130639722Y-136779027D01*
X130639723Y-136779027D01*
X130552996Y-136850201D01*
X130552992Y-136850205D01*
X130523999Y-136873999D01*
X130500205Y-136902992D01*
X126996998Y-140406201D01*
X126968000Y-140429999D01*
X126944202Y-140458997D01*
X126944201Y-140458998D01*
X126873026Y-140545724D01*
X126802454Y-140677754D01*
X126758998Y-140821015D01*
X126744324Y-140970000D01*
X126748001Y-141007332D01*
X126748000Y-150076678D01*
X126744324Y-150114000D01*
X126748000Y-150151322D01*
X126748000Y-150151332D01*
X126758997Y-150262985D01*
X126785695Y-150350998D01*
X126802454Y-150406246D01*
X126873026Y-150538276D01*
X126912871Y-150586826D01*
X126967999Y-150654001D01*
X126997002Y-150677803D01*
X128213197Y-151894000D01*
X109026802Y-151894000D01*
X103463815Y-146331013D01*
X119470000Y-146331013D01*
X119470000Y-146850063D01*
X119571261Y-147359139D01*
X119769893Y-147838679D01*
X120058262Y-148270253D01*
X120425285Y-148637276D01*
X120856859Y-148925645D01*
X121336399Y-149124277D01*
X121845475Y-149225538D01*
X122364525Y-149225538D01*
X122873601Y-149124277D01*
X123353141Y-148925645D01*
X123784715Y-148637276D01*
X124151738Y-148270253D01*
X124440107Y-147838679D01*
X124638739Y-147359139D01*
X124740000Y-146850063D01*
X124740000Y-146331013D01*
X124638739Y-145821937D01*
X124440107Y-145342397D01*
X124151738Y-144910823D01*
X123784715Y-144543800D01*
X123353141Y-144255431D01*
X122873601Y-144056799D01*
X122364525Y-143955538D01*
X121845475Y-143955538D01*
X121336399Y-144056799D01*
X120856859Y-144255431D01*
X120425285Y-144543800D01*
X120058262Y-144910823D01*
X119769893Y-145342397D01*
X119571261Y-145821937D01*
X119470000Y-146331013D01*
X103463815Y-146331013D01*
X100065000Y-142932199D01*
X100065000Y-132719272D01*
X100155000Y-132719272D01*
X100279482Y-132707012D01*
X100399180Y-132670702D01*
X100509494Y-132611737D01*
X100606185Y-132532385D01*
X100685537Y-132435694D01*
X100744502Y-132325380D01*
X100768966Y-132244734D01*
X100844731Y-132328788D01*
X101078080Y-132502841D01*
X101340901Y-132628025D01*
X101488110Y-132672676D01*
X101718000Y-132551355D01*
X101718000Y-131358200D01*
X101972000Y-131358200D01*
X101972000Y-132551355D01*
X102201890Y-132672676D01*
X102349099Y-132628025D01*
X102611920Y-132502841D01*
X102845269Y-132328788D01*
X103040178Y-132112555D01*
X103189157Y-131862452D01*
X103286481Y-131588091D01*
X103165814Y-131358200D01*
X101972000Y-131358200D01*
X101718000Y-131358200D01*
X101698000Y-131358200D01*
X101698000Y-131104200D01*
X101718000Y-131104200D01*
X101718000Y-129911045D01*
X101972000Y-129911045D01*
X101972000Y-131104200D01*
X103165814Y-131104200D01*
X103286481Y-130874309D01*
X103189157Y-130599948D01*
X103040178Y-130349845D01*
X102845269Y-130133612D01*
X102611920Y-129959559D01*
X102349099Y-129834375D01*
X102201890Y-129789724D01*
X101972000Y-129911045D01*
X101718000Y-129911045D01*
X101488110Y-129789724D01*
X101340901Y-129834375D01*
X101078080Y-129959559D01*
X100844731Y-130133612D01*
X100768966Y-130217666D01*
X100744502Y-130137020D01*
X100685537Y-130026706D01*
X100606185Y-129930015D01*
X100509494Y-129850663D01*
X100399180Y-129791698D01*
X100279482Y-129755388D01*
X100155000Y-129743128D01*
X98455000Y-129743128D01*
X98330518Y-129755388D01*
X98210820Y-129791698D01*
X98100506Y-129850663D01*
X98003815Y-129930015D01*
X97924463Y-130026706D01*
X97865498Y-130137020D01*
X97829188Y-130256718D01*
X97816928Y-130381200D01*
X97816928Y-132081200D01*
X97829188Y-132205682D01*
X97865498Y-132325380D01*
X97924463Y-132435694D01*
X98003815Y-132532385D01*
X98100506Y-132611737D01*
X98210820Y-132670702D01*
X98330518Y-132707012D01*
X98455000Y-132719272D01*
X98545001Y-132719272D01*
X98545000Y-143209678D01*
X98541324Y-143247000D01*
X98545000Y-143284322D01*
X98545000Y-143284332D01*
X98555997Y-143395985D01*
X98561763Y-143414992D01*
X98599454Y-143539246D01*
X98670026Y-143671276D01*
X98690532Y-143696262D01*
X98764999Y-143787001D01*
X98794003Y-143810804D01*
X108148201Y-153165003D01*
X108171999Y-153194001D01*
X108200997Y-153217799D01*
X108287723Y-153288974D01*
X108419753Y-153359546D01*
X108563014Y-153403003D01*
X108674667Y-153414000D01*
X108674677Y-153414000D01*
X108712000Y-153417676D01*
X108749322Y-153414000D01*
X132042678Y-153414000D01*
X132080000Y-153417676D01*
X132117322Y-153414000D01*
X132117333Y-153414000D01*
X132228986Y-153403003D01*
X132372247Y-153359546D01*
X132504276Y-153288974D01*
X132620001Y-153194001D01*
X132643804Y-153164998D01*
X133706003Y-152102799D01*
X133735001Y-152079001D01*
X133784221Y-152019026D01*
X133829974Y-151963277D01*
X133900546Y-151831247D01*
X133919432Y-151768986D01*
X133944003Y-151687986D01*
X133955000Y-151576333D01*
X133955000Y-151576324D01*
X133958676Y-151539001D01*
X133955000Y-151501678D01*
X133955000Y-150517069D01*
X134198665Y-150565538D01*
X134481335Y-150565538D01*
X134758574Y-150510391D01*
X135019727Y-150402218D01*
X135254759Y-150245175D01*
X135454637Y-150045297D01*
X135485000Y-149999855D01*
X135515363Y-150045297D01*
X135715241Y-150245175D01*
X135870001Y-150348582D01*
X135870001Y-151070668D01*
X135866324Y-151108000D01*
X135870001Y-151145333D01*
X135870239Y-151147744D01*
X135880998Y-151256985D01*
X135924454Y-151400246D01*
X135995026Y-151532276D01*
X136066201Y-151619002D01*
X136090000Y-151648001D01*
X136118998Y-151671799D01*
X137866205Y-153419008D01*
X137889999Y-153448001D01*
X137918992Y-153471795D01*
X137918996Y-153471799D01*
X137989685Y-153529811D01*
X138005724Y-153542974D01*
X138137753Y-153613546D01*
X138281014Y-153657003D01*
X138392667Y-153668000D01*
X138392676Y-153668000D01*
X138429999Y-153671676D01*
X138467322Y-153668000D01*
X141694678Y-153668000D01*
X141732000Y-153671676D01*
X141769322Y-153668000D01*
X141769333Y-153668000D01*
X141880986Y-153657003D01*
X142024247Y-153613546D01*
X142156276Y-153542974D01*
X142272001Y-153448001D01*
X142295804Y-153418997D01*
X144529004Y-151185798D01*
X144558001Y-151162001D01*
X144652974Y-151046276D01*
X144723546Y-150914247D01*
X144767003Y-150770986D01*
X144778000Y-150659333D01*
X144778000Y-150659324D01*
X144781676Y-150622001D01*
X144778000Y-150584678D01*
X144778000Y-147850812D01*
X145058262Y-148270253D01*
X145425285Y-148637276D01*
X145856859Y-148925645D01*
X146336399Y-149124277D01*
X146845475Y-149225538D01*
X147364525Y-149225538D01*
X147873601Y-149124277D01*
X148353141Y-148925645D01*
X148784715Y-148637276D01*
X149151738Y-148270253D01*
X149440107Y-147838679D01*
X149638739Y-147359139D01*
X149740000Y-146850063D01*
X149740000Y-146331013D01*
X149638739Y-145821937D01*
X149440107Y-145342397D01*
X149151738Y-144910823D01*
X148784715Y-144543800D01*
X148353141Y-144255431D01*
X147873601Y-144056799D01*
X147364525Y-143955538D01*
X146845475Y-143955538D01*
X146336399Y-144056799D01*
X145856859Y-144255431D01*
X145425285Y-144543800D01*
X145058262Y-144910823D01*
X144778000Y-145330264D01*
X144778000Y-127060801D01*
X150371004Y-121467798D01*
X150400001Y-121444001D01*
X150494974Y-121328276D01*
X150565546Y-121196247D01*
X150609003Y-121052986D01*
X150620000Y-120941333D01*
X150620000Y-120941325D01*
X150623676Y-120904000D01*
X150620000Y-120866675D01*
X150620000Y-117730000D01*
X151520214Y-117730000D01*
X151559264Y-118126479D01*
X151674913Y-118507722D01*
X151862716Y-118859078D01*
X152115457Y-119167043D01*
X152423422Y-119419784D01*
X152774778Y-119607587D01*
X153156021Y-119723236D01*
X153453142Y-119752500D01*
X156426858Y-119752500D01*
X156723979Y-119723236D01*
X157105222Y-119607587D01*
X157456578Y-119419784D01*
X157764543Y-119167043D01*
X158017284Y-118859078D01*
X158205087Y-118507722D01*
X158320736Y-118126479D01*
X158359786Y-117730000D01*
X158320736Y-117333521D01*
X158205087Y-116952278D01*
X158017284Y-116600922D01*
X157764543Y-116292957D01*
X157456578Y-116040216D01*
X157105222Y-115852413D01*
X156723979Y-115736764D01*
X156426858Y-115707500D01*
X153453142Y-115707500D01*
X153156021Y-115736764D01*
X152774778Y-115852413D01*
X152423422Y-116040216D01*
X152115457Y-116292957D01*
X151862716Y-116600922D01*
X151674913Y-116952278D01*
X151559264Y-117333521D01*
X151520214Y-117730000D01*
X150620000Y-117730000D01*
X150620000Y-113030000D01*
X151520214Y-113030000D01*
X151559264Y-113426479D01*
X151674913Y-113807722D01*
X151862716Y-114159078D01*
X152115457Y-114467043D01*
X152423422Y-114719784D01*
X152774778Y-114907587D01*
X153156021Y-115023236D01*
X153453142Y-115052500D01*
X156426858Y-115052500D01*
X156723979Y-115023236D01*
X157105222Y-114907587D01*
X157456578Y-114719784D01*
X157764543Y-114467043D01*
X158017284Y-114159078D01*
X158205087Y-113807722D01*
X158320736Y-113426479D01*
X158359786Y-113030000D01*
X158320736Y-112633521D01*
X158205087Y-112252278D01*
X158017284Y-111900922D01*
X157764543Y-111592957D01*
X157456578Y-111340216D01*
X157105222Y-111152413D01*
X156723979Y-111036764D01*
X156426858Y-111007500D01*
X153453142Y-111007500D01*
X153156021Y-111036764D01*
X152774778Y-111152413D01*
X152423422Y-111340216D01*
X152115457Y-111592957D01*
X151862716Y-111900922D01*
X151674913Y-112252278D01*
X151559264Y-112633521D01*
X151520214Y-113030000D01*
X150620000Y-113030000D01*
X150620000Y-108330000D01*
X151520214Y-108330000D01*
X151559264Y-108726479D01*
X151674913Y-109107722D01*
X151862716Y-109459078D01*
X152115457Y-109767043D01*
X152423422Y-110019784D01*
X152774778Y-110207587D01*
X153156021Y-110323236D01*
X153453142Y-110352500D01*
X156426858Y-110352500D01*
X156723979Y-110323236D01*
X157105222Y-110207587D01*
X157456578Y-110019784D01*
X157764543Y-109767043D01*
X158017284Y-109459078D01*
X158205087Y-109107722D01*
X158320736Y-108726479D01*
X158359786Y-108330000D01*
X158320736Y-107933521D01*
X158205087Y-107552278D01*
X158017284Y-107200922D01*
X157764543Y-106892957D01*
X157456578Y-106640216D01*
X157105222Y-106452413D01*
X156723979Y-106336764D01*
X156426858Y-106307500D01*
X153453142Y-106307500D01*
X153156021Y-106336764D01*
X152774778Y-106452413D01*
X152423422Y-106640216D01*
X152115457Y-106892957D01*
X151862716Y-107200922D01*
X151674913Y-107552278D01*
X151559264Y-107933521D01*
X151520214Y-108330000D01*
X150620000Y-108330000D01*
X150620000Y-74205325D01*
X150623676Y-74168000D01*
X150620000Y-74130675D01*
X150620000Y-74130667D01*
X150609003Y-74019014D01*
X150565546Y-73875753D01*
X150494974Y-73743724D01*
X150400001Y-73627999D01*
X150371003Y-73604201D01*
X148645804Y-71879003D01*
X148622001Y-71849999D01*
X148506276Y-71755026D01*
X148374247Y-71684454D01*
X148230986Y-71640997D01*
X148119333Y-71630000D01*
X148119322Y-71630000D01*
X148082000Y-71626324D01*
X148044678Y-71630000D01*
X136756785Y-71630000D01*
X136719462Y-71626324D01*
X136682139Y-71630000D01*
X136682129Y-71630000D01*
X136570476Y-71640997D01*
X136427215Y-71684454D01*
X136295185Y-71755026D01*
X136248912Y-71793002D01*
X136179461Y-71849999D01*
X136155663Y-71878997D01*
X132933887Y-75100774D01*
X132751335Y-75064462D01*
X132468665Y-75064462D01*
X132191426Y-75119609D01*
X131930273Y-75227782D01*
X131695241Y-75384825D01*
X131495363Y-75584703D01*
X131465000Y-75630145D01*
X131434637Y-75584703D01*
X131234759Y-75384825D01*
X130999727Y-75227782D01*
X130738574Y-75119609D01*
X130461335Y-75064462D01*
X130178665Y-75064462D01*
X129901426Y-75119609D01*
X129640273Y-75227782D01*
X129405241Y-75384825D01*
X129205363Y-75584703D01*
X129048320Y-75819735D01*
X128940147Y-76080888D01*
X128885000Y-76358127D01*
X128885000Y-76640797D01*
X128940147Y-76918036D01*
X128996953Y-77055178D01*
X128824870Y-77080675D01*
X128558708Y-77175859D01*
X128433486Y-77242791D01*
X128361903Y-77486760D01*
X129175000Y-78299857D01*
X129189143Y-78285715D01*
X129368748Y-78465320D01*
X129354605Y-78479462D01*
X129368748Y-78493605D01*
X129189143Y-78673210D01*
X129175000Y-78659067D01*
X128361903Y-79472164D01*
X128433486Y-79716133D01*
X128688996Y-79837033D01*
X128881928Y-79885394D01*
X128881928Y-81259462D01*
X128894188Y-81383944D01*
X128930498Y-81503642D01*
X128989463Y-81613956D01*
X129068815Y-81710647D01*
X129165506Y-81789999D01*
X129275820Y-81848964D01*
X129395518Y-81885274D01*
X129520000Y-81897534D01*
X131120000Y-81897534D01*
X131244482Y-81885274D01*
X131364180Y-81848964D01*
X131474494Y-81789999D01*
X131571185Y-81710647D01*
X131650537Y-81613956D01*
X131679992Y-81558850D01*
X131695241Y-81574099D01*
X131930273Y-81731142D01*
X132191426Y-81839315D01*
X132468665Y-81894462D01*
X132751335Y-81894462D01*
X133028574Y-81839315D01*
X133289727Y-81731142D01*
X133524759Y-81574099D01*
X133724637Y-81374221D01*
X133755000Y-81328779D01*
X133785363Y-81374221D01*
X133985241Y-81574099D01*
X134220273Y-81731142D01*
X134481426Y-81839315D01*
X134758665Y-81894462D01*
X135041335Y-81894462D01*
X135285001Y-81845993D01*
X135285001Y-82334197D01*
X128463199Y-89156000D01*
X104685325Y-89156000D01*
X104648000Y-89152324D01*
X104610675Y-89156000D01*
X104610667Y-89156000D01*
X104499014Y-89166997D01*
X104355753Y-89210454D01*
X104223724Y-89281026D01*
X104107999Y-89375999D01*
X104084201Y-89404997D01*
X100069003Y-93420196D01*
X100039999Y-93443999D01*
X99984871Y-93511174D01*
X99945026Y-93559724D01*
X99929862Y-93588094D01*
X99874454Y-93691754D01*
X99830997Y-93835015D01*
X99820000Y-93946668D01*
X99820000Y-93946678D01*
X99816324Y-93984000D01*
X99820000Y-94021322D01*
X99820001Y-106307500D01*
X99093142Y-106307500D01*
X98796021Y-106336764D01*
X98414778Y-106452413D01*
X98063422Y-106640216D01*
X97755457Y-106892957D01*
X97502716Y-107200922D01*
X97314913Y-107552278D01*
X97199264Y-107933521D01*
X97160214Y-108330000D01*
X94911500Y-108330000D01*
X94911500Y-78779937D01*
X119500000Y-78779937D01*
X119500000Y-79298987D01*
X119601261Y-79808063D01*
X119799893Y-80287603D01*
X120088262Y-80719177D01*
X120455285Y-81086200D01*
X120886859Y-81374569D01*
X121366399Y-81573201D01*
X121875475Y-81674462D01*
X122394525Y-81674462D01*
X122903601Y-81573201D01*
X123383141Y-81374569D01*
X123814715Y-81086200D01*
X124181738Y-80719177D01*
X124470107Y-80287603D01*
X124668739Y-79808063D01*
X124770000Y-79298987D01*
X124770000Y-78779937D01*
X124724258Y-78549974D01*
X127734783Y-78549974D01*
X127776213Y-78829592D01*
X127871397Y-79095754D01*
X127938329Y-79220976D01*
X128182298Y-79292559D01*
X128995395Y-78479462D01*
X128182298Y-77666365D01*
X127938329Y-77737948D01*
X127817429Y-77993458D01*
X127748700Y-78267646D01*
X127734783Y-78549974D01*
X124724258Y-78549974D01*
X124668739Y-78270861D01*
X124470107Y-77791321D01*
X124181738Y-77359747D01*
X123814715Y-76992724D01*
X123383141Y-76704355D01*
X122903601Y-76505723D01*
X122394525Y-76404462D01*
X121875475Y-76404462D01*
X121366399Y-76505723D01*
X120886859Y-76704355D01*
X120455285Y-76992724D01*
X120088262Y-77359747D01*
X119799893Y-77791321D01*
X119601261Y-78270861D01*
X119500000Y-78779937D01*
X94911500Y-78779937D01*
X94911500Y-71496990D01*
X96606538Y-71496990D01*
X96606538Y-71921934D01*
X96689440Y-72338712D01*
X96852059Y-72731309D01*
X97088145Y-73084636D01*
X97388626Y-73385117D01*
X97741953Y-73621203D01*
X98134550Y-73783822D01*
X98551328Y-73866724D01*
X98976272Y-73866724D01*
X99393050Y-73783822D01*
X99785647Y-73621203D01*
X100138974Y-73385117D01*
X100439455Y-73084636D01*
X100675541Y-72731309D01*
X100838160Y-72338712D01*
X100921062Y-71921934D01*
X100921062Y-71496990D01*
X154598938Y-71496990D01*
X154598938Y-71921934D01*
X154681840Y-72338712D01*
X154844459Y-72731309D01*
X155080545Y-73084636D01*
X155381026Y-73385117D01*
X155734353Y-73621203D01*
X156126950Y-73783822D01*
X156543728Y-73866724D01*
X156968672Y-73866724D01*
X157385450Y-73783822D01*
X157778047Y-73621203D01*
X158131374Y-73385117D01*
X158431855Y-73084636D01*
X158667941Y-72731309D01*
X158830560Y-72338712D01*
X158913462Y-71921934D01*
X158913462Y-71496990D01*
X158830560Y-71080212D01*
X158667941Y-70687615D01*
X158431855Y-70334288D01*
X158131374Y-70033807D01*
X157778047Y-69797721D01*
X157385450Y-69635102D01*
X156968672Y-69552200D01*
X156543728Y-69552200D01*
X156126950Y-69635102D01*
X155734353Y-69797721D01*
X155381026Y-70033807D01*
X155080545Y-70334288D01*
X154844459Y-70687615D01*
X154681840Y-71080212D01*
X154598938Y-71496990D01*
X100921062Y-71496990D01*
X100838160Y-71080212D01*
X100675541Y-70687615D01*
X100439455Y-70334288D01*
X100138974Y-70033807D01*
X99785647Y-69797721D01*
X99393050Y-69635102D01*
X98976272Y-69552200D01*
X98551328Y-69552200D01*
X98134550Y-69635102D01*
X97741953Y-69797721D01*
X97388626Y-70033807D01*
X97088145Y-70334288D01*
X96852059Y-70687615D01*
X96689440Y-71080212D01*
X96606538Y-71496990D01*
X94911500Y-71496990D01*
X94911500Y-67857162D01*
X160608500Y-67857162D01*
X160608501Y-157832838D01*
X160608501Y-157832838D01*
G37*
X160608501Y-157832838D02*
X94911500Y-157832838D01*
X94911500Y-153768066D01*
X96606538Y-153768066D01*
X96606538Y-154193010D01*
X96689440Y-154609788D01*
X96852059Y-155002385D01*
X97088145Y-155355712D01*
X97388626Y-155656193D01*
X97741953Y-155892279D01*
X98134550Y-156054898D01*
X98551328Y-156137800D01*
X98976272Y-156137800D01*
X99393050Y-156054898D01*
X99785647Y-155892279D01*
X100138974Y-155656193D01*
X100439455Y-155355712D01*
X100675541Y-155002385D01*
X100838160Y-154609788D01*
X100921062Y-154193010D01*
X100921062Y-153768066D01*
X154598938Y-153768066D01*
X154598938Y-154193010D01*
X154681840Y-154609788D01*
X154844459Y-155002385D01*
X155080545Y-155355712D01*
X155381026Y-155656193D01*
X155734353Y-155892279D01*
X156126950Y-156054898D01*
X156543728Y-156137800D01*
X156968672Y-156137800D01*
X157385450Y-156054898D01*
X157778047Y-155892279D01*
X158131374Y-155656193D01*
X158431855Y-155355712D01*
X158667941Y-155002385D01*
X158830560Y-154609788D01*
X158913462Y-154193010D01*
X158913462Y-153768066D01*
X158830560Y-153351288D01*
X158667941Y-152958691D01*
X158431855Y-152605364D01*
X158131374Y-152304883D01*
X157778047Y-152068797D01*
X157385450Y-151906178D01*
X156968672Y-151823276D01*
X156543728Y-151823276D01*
X156126950Y-151906178D01*
X155734353Y-152068797D01*
X155381026Y-152304883D01*
X155080545Y-152605364D01*
X154844459Y-152958691D01*
X154681840Y-153351288D01*
X154598938Y-153768066D01*
X100921062Y-153768066D01*
X100838160Y-153351288D01*
X100675541Y-152958691D01*
X100439455Y-152605364D01*
X100138974Y-152304883D01*
X99785647Y-152068797D01*
X99393050Y-151906178D01*
X98976272Y-151823276D01*
X98551328Y-151823276D01*
X98134550Y-151906178D01*
X97741953Y-152068797D01*
X97388626Y-152304883D01*
X97088145Y-152605364D01*
X96852059Y-152958691D01*
X96689440Y-153351288D01*
X96606538Y-153768066D01*
X94911500Y-153768066D01*
X94911500Y-117730000D01*
X97160214Y-117730000D01*
X97199264Y-118126479D01*
X97314913Y-118507722D01*
X97502716Y-118859078D01*
X97755457Y-119167043D01*
X98063422Y-119419784D01*
X98414778Y-119607587D01*
X98796021Y-119723236D01*
X99093142Y-119752500D01*
X102066858Y-119752500D01*
X102363979Y-119723236D01*
X102745222Y-119607587D01*
X103096578Y-119419784D01*
X103404543Y-119167043D01*
X103657284Y-118859078D01*
X103845087Y-118507722D01*
X103960736Y-118126479D01*
X103999786Y-117730000D01*
X110880214Y-117730000D01*
X110919264Y-118126479D01*
X111034913Y-118507722D01*
X111222716Y-118859078D01*
X111475457Y-119167043D01*
X111783422Y-119419784D01*
X112134778Y-119607587D01*
X112516021Y-119723236D01*
X112813142Y-119752500D01*
X115786858Y-119752500D01*
X116083979Y-119723236D01*
X116465222Y-119607587D01*
X116816578Y-119419784D01*
X117124543Y-119167043D01*
X117377284Y-118859078D01*
X117565087Y-118507722D01*
X117680736Y-118126479D01*
X117719786Y-117730000D01*
X121040214Y-117730000D01*
X121079264Y-118126479D01*
X121194913Y-118507722D01*
X121382716Y-118859078D01*
X121635457Y-119167043D01*
X121943422Y-119419784D01*
X122294778Y-119607587D01*
X122676021Y-119723236D01*
X122973142Y-119752500D01*
X125946858Y-119752500D01*
X126243979Y-119723236D01*
X126625222Y-119607587D01*
X126976578Y-119419784D01*
X127284543Y-119167043D01*
X127537284Y-118859078D01*
X127725087Y-118507722D01*
X127840736Y-118126479D01*
X127879786Y-117730000D01*
X131200214Y-117730000D01*
X131239264Y-118126479D01*
X131354913Y-118507722D01*
X131542716Y-118859078D01*
X131795457Y-119167043D01*
X132103422Y-119419784D01*
X132454778Y-119607587D01*
X132836021Y-119723236D01*
X133133142Y-119752500D01*
X136106858Y-119752500D01*
X136403979Y-119723236D01*
X136785222Y-119607587D01*
X137136578Y-119419784D01*
X137444543Y-119167043D01*
X137697284Y-118859078D01*
X137885087Y-118507722D01*
X138000736Y-118126479D01*
X138039786Y-117730000D01*
X141360214Y-117730000D01*
X141399264Y-118126479D01*
X141514913Y-118507722D01*
X141702716Y-118859078D01*
X141955457Y-119167043D01*
X142263422Y-119419784D01*
X142614778Y-119607587D01*
X142996021Y-119723236D01*
X143293142Y-119752500D01*
X146266858Y-119752500D01*
X146563979Y-119723236D01*
X146945222Y-119607587D01*
X147296578Y-119419784D01*
X147604543Y-119167043D01*
X147857284Y-118859078D01*
X148045087Y-118507722D01*
X148160736Y-118126479D01*
X148199786Y-117730000D01*
X148160736Y-117333521D01*
X148045087Y-116952278D01*
X147857284Y-116600922D01*
X147604543Y-116292957D01*
X147296578Y-116040216D01*
X146945222Y-115852413D01*
X146563979Y-115736764D01*
X146266858Y-115707500D01*
X143293142Y-115707500D01*
X142996021Y-115736764D01*
X142614778Y-115852413D01*
X142263422Y-116040216D01*
X141955457Y-116292957D01*
X141702716Y-116600922D01*
X141514913Y-116952278D01*
X141399264Y-117333521D01*
X141360214Y-117730000D01*
X138039786Y-117730000D01*
X138000736Y-117333521D01*
X137885087Y-116952278D01*
X137697284Y-116600922D01*
X137444543Y-116292957D01*
X137136578Y-116040216D01*
X136785222Y-115852413D01*
X136403979Y-115736764D01*
X136106858Y-115707500D01*
X133133142Y-115707500D01*
X132836021Y-115736764D01*
X132454778Y-115852413D01*
X132103422Y-116040216D01*
X131795457Y-116292957D01*
X131542716Y-116600922D01*
X131354913Y-116952278D01*
X131239264Y-117333521D01*
X131200214Y-117730000D01*
X127879786Y-117730000D01*
X127840736Y-117333521D01*
X127725087Y-116952278D01*
X127537284Y-116600922D01*
X127284543Y-116292957D01*
X126976578Y-116040216D01*
X126625222Y-115852413D01*
X126243979Y-115736764D01*
X125946858Y-115707500D01*
X122973142Y-115707500D01*
X122676021Y-115736764D01*
X122294778Y-115852413D01*
X121943422Y-116040216D01*
X121635457Y-116292957D01*
X121382716Y-116600922D01*
X121194913Y-116952278D01*
X121079264Y-117333521D01*
X121040214Y-117730000D01*
X117719786Y-117730000D01*
X117680736Y-117333521D01*
X117565087Y-116952278D01*
X117377284Y-116600922D01*
X117124543Y-116292957D01*
X116816578Y-116040216D01*
X116465222Y-115852413D01*
X116083979Y-115736764D01*
X115786858Y-115707500D01*
X112813142Y-115707500D01*
X112516021Y-115736764D01*
X112134778Y-115852413D01*
X111783422Y-116040216D01*
X111475457Y-116292957D01*
X111222716Y-116600922D01*
X111034913Y-116952278D01*
X110919264Y-117333521D01*
X110880214Y-117730000D01*
X103999786Y-117730000D01*
X103960736Y-117333521D01*
X103845087Y-116952278D01*
X103657284Y-116600922D01*
X103404543Y-116292957D01*
X103096578Y-116040216D01*
X102745222Y-115852413D01*
X102363979Y-115736764D01*
X102066858Y-115707500D01*
X99093142Y-115707500D01*
X98796021Y-115736764D01*
X98414778Y-115852413D01*
X98063422Y-116040216D01*
X97755457Y-116292957D01*
X97502716Y-116600922D01*
X97314913Y-116952278D01*
X97199264Y-117333521D01*
X97160214Y-117730000D01*
X94911500Y-117730000D01*
X94911500Y-113030000D01*
X97160214Y-113030000D01*
X97199264Y-113426479D01*
X97314913Y-113807722D01*
X97502716Y-114159078D01*
X97755457Y-114467043D01*
X98063422Y-114719784D01*
X98414778Y-114907587D01*
X98796021Y-115023236D01*
X99093142Y-115052500D01*
X102066858Y-115052500D01*
X102363979Y-115023236D01*
X102745222Y-114907587D01*
X103096578Y-114719784D01*
X103404543Y-114467043D01*
X103657284Y-114159078D01*
X103845087Y-113807722D01*
X103960736Y-113426479D01*
X103999786Y-113030000D01*
X110880214Y-113030000D01*
X110919264Y-113426479D01*
X111034913Y-113807722D01*
X111222716Y-114159078D01*
X111475457Y-114467043D01*
X111783422Y-114719784D01*
X112134778Y-114907587D01*
X112516021Y-115023236D01*
X112813142Y-115052500D01*
X115786858Y-115052500D01*
X116083979Y-115023236D01*
X116465222Y-114907587D01*
X116816578Y-114719784D01*
X117124543Y-114467043D01*
X117377284Y-114159078D01*
X117565087Y-113807722D01*
X117680736Y-113426479D01*
X117719786Y-113030000D01*
X121040214Y-113030000D01*
X121079264Y-113426479D01*
X121194913Y-113807722D01*
X121382716Y-114159078D01*
X121635457Y-114467043D01*
X121943422Y-114719784D01*
X122294778Y-114907587D01*
X122676021Y-115023236D01*
X122973142Y-115052500D01*
X125946858Y-115052500D01*
X126243979Y-115023236D01*
X126625222Y-114907587D01*
X126976578Y-114719784D01*
X127284543Y-114467043D01*
X127537284Y-114159078D01*
X127725087Y-113807722D01*
X127840736Y-113426479D01*
X127879786Y-113030000D01*
X131200214Y-113030000D01*
X131239264Y-113426479D01*
X131354913Y-113807722D01*
X131542716Y-114159078D01*
X131795457Y-114467043D01*
X132103422Y-114719784D01*
X132454778Y-114907587D01*
X132836021Y-115023236D01*
X133133142Y-115052500D01*
X136106858Y-115052500D01*
X136403979Y-115023236D01*
X136785222Y-114907587D01*
X137136578Y-114719784D01*
X137444543Y-114467043D01*
X137697284Y-114159078D01*
X137885087Y-113807722D01*
X138000736Y-113426479D01*
X138039786Y-113030000D01*
X141360214Y-113030000D01*
X141399264Y-113426479D01*
X141514913Y-113807722D01*
X141702716Y-114159078D01*
X141955457Y-114467043D01*
X142263422Y-114719784D01*
X142614778Y-114907587D01*
X142996021Y-115023236D01*
X143293142Y-115052500D01*
X146266858Y-115052500D01*
X146563979Y-115023236D01*
X146945222Y-114907587D01*
X147296578Y-114719784D01*
X147604543Y-114467043D01*
X147857284Y-114159078D01*
X148045087Y-113807722D01*
X148160736Y-113426479D01*
X148199786Y-113030000D01*
X148160736Y-112633521D01*
X148045087Y-112252278D01*
X147857284Y-111900922D01*
X147604543Y-111592957D01*
X147296578Y-111340216D01*
X146945222Y-111152413D01*
X146563979Y-111036764D01*
X146266858Y-111007500D01*
X143293142Y-111007500D01*
X142996021Y-111036764D01*
X142614778Y-111152413D01*
X142263422Y-111340216D01*
X141955457Y-111592957D01*
X141702716Y-111900922D01*
X141514913Y-112252278D01*
X141399264Y-112633521D01*
X141360214Y-113030000D01*
X138039786Y-113030000D01*
X138000736Y-112633521D01*
X137885087Y-112252278D01*
X137697284Y-111900922D01*
X137444543Y-111592957D01*
X137136578Y-111340216D01*
X136785222Y-111152413D01*
X136403979Y-111036764D01*
X136106858Y-111007500D01*
X133133142Y-111007500D01*
X132836021Y-111036764D01*
X132454778Y-111152413D01*
X132103422Y-111340216D01*
X131795457Y-111592957D01*
X131542716Y-111900922D01*
X131354913Y-112252278D01*
X131239264Y-112633521D01*
X131200214Y-113030000D01*
X127879786Y-113030000D01*
X127840736Y-112633521D01*
X127725087Y-112252278D01*
X127537284Y-111900922D01*
X127284543Y-111592957D01*
X126976578Y-111340216D01*
X126625222Y-111152413D01*
X126243979Y-111036764D01*
X125946858Y-111007500D01*
X122973142Y-111007500D01*
X122676021Y-111036764D01*
X122294778Y-111152413D01*
X121943422Y-111340216D01*
X121635457Y-111592957D01*
X121382716Y-111900922D01*
X121194913Y-112252278D01*
X121079264Y-112633521D01*
X121040214Y-113030000D01*
X117719786Y-113030000D01*
X117680736Y-112633521D01*
X117565087Y-112252278D01*
X117377284Y-111900922D01*
X117124543Y-111592957D01*
X116816578Y-111340216D01*
X116465222Y-111152413D01*
X116083979Y-111036764D01*
X115786858Y-111007500D01*
X112813142Y-111007500D01*
X112516021Y-111036764D01*
X112134778Y-111152413D01*
X111783422Y-111340216D01*
X111475457Y-111592957D01*
X111222716Y-111900922D01*
X111034913Y-112252278D01*
X110919264Y-112633521D01*
X110880214Y-113030000D01*
X103999786Y-113030000D01*
X103960736Y-112633521D01*
X103845087Y-112252278D01*
X103657284Y-111900922D01*
X103404543Y-111592957D01*
X103096578Y-111340216D01*
X102745222Y-111152413D01*
X102363979Y-111036764D01*
X102066858Y-111007500D01*
X99093142Y-111007500D01*
X98796021Y-111036764D01*
X98414778Y-111152413D01*
X98063422Y-111340216D01*
X97755457Y-111592957D01*
X97502716Y-111900922D01*
X97314913Y-112252278D01*
X97199264Y-112633521D01*
X97160214Y-113030000D01*
X94911500Y-113030000D01*
X94911500Y-108330000D01*
X97160214Y-108330000D01*
X97199264Y-108726479D01*
X97314913Y-109107722D01*
X97502716Y-109459078D01*
X97755457Y-109767043D01*
X98063422Y-110019784D01*
X98414778Y-110207587D01*
X98796021Y-110323236D01*
X99093142Y-110352500D01*
X102066858Y-110352500D01*
X102363979Y-110323236D01*
X102745222Y-110207587D01*
X103096578Y-110019784D01*
X103404543Y-109767043D01*
X103657284Y-109459078D01*
X103845087Y-109107722D01*
X103960736Y-108726479D01*
X103999786Y-108330000D01*
X110880214Y-108330000D01*
X110919264Y-108726479D01*
X111034913Y-109107722D01*
X111222716Y-109459078D01*
X111475457Y-109767043D01*
X111783422Y-110019784D01*
X112134778Y-110207587D01*
X112516021Y-110323236D01*
X112813142Y-110352500D01*
X115786858Y-110352500D01*
X116083979Y-110323236D01*
X116465222Y-110207587D01*
X116816578Y-110019784D01*
X117124543Y-109767043D01*
X117377284Y-109459078D01*
X117565087Y-109107722D01*
X117680736Y-108726479D01*
X117719786Y-108330000D01*
X121040214Y-108330000D01*
X121079264Y-108726479D01*
X121194913Y-109107722D01*
X121382716Y-109459078D01*
X121635457Y-109767043D01*
X121943422Y-110019784D01*
X122294778Y-110207587D01*
X122676021Y-110323236D01*
X122973142Y-110352500D01*
X125946858Y-110352500D01*
X126243979Y-110323236D01*
X126625222Y-110207587D01*
X126976578Y-110019784D01*
X127284543Y-109767043D01*
X127537284Y-109459078D01*
X127725087Y-109107722D01*
X127840736Y-108726479D01*
X127879786Y-108330000D01*
X131200214Y-108330000D01*
X131239264Y-108726479D01*
X131354913Y-109107722D01*
X131542716Y-109459078D01*
X131795457Y-109767043D01*
X132103422Y-110019784D01*
X132454778Y-110207587D01*
X132836021Y-110323236D01*
X133133142Y-110352500D01*
X136106858Y-110352500D01*
X136403979Y-110323236D01*
X136785222Y-110207587D01*
X137136578Y-110019784D01*
X137444543Y-109767043D01*
X137697284Y-109459078D01*
X137885087Y-109107722D01*
X138000736Y-108726479D01*
X138039786Y-108330000D01*
X141360214Y-108330000D01*
X141399264Y-108726479D01*
X141514913Y-109107722D01*
X141702716Y-109459078D01*
X141955457Y-109767043D01*
X142263422Y-110019784D01*
X142614778Y-110207587D01*
X142996021Y-110323236D01*
X143293142Y-110352500D01*
X146266858Y-110352500D01*
X146563979Y-110323236D01*
X146945222Y-110207587D01*
X147296578Y-110019784D01*
X147604543Y-109767043D01*
X147857284Y-109459078D01*
X148045087Y-109107722D01*
X148160736Y-108726479D01*
X148199786Y-108330000D01*
X148160736Y-107933521D01*
X148045087Y-107552278D01*
X147857284Y-107200922D01*
X147604543Y-106892957D01*
X147296578Y-106640216D01*
X146945222Y-106452413D01*
X146563979Y-106336764D01*
X146266858Y-106307500D01*
X143293142Y-106307500D01*
X142996021Y-106336764D01*
X142614778Y-106452413D01*
X142263422Y-106640216D01*
X141955457Y-106892957D01*
X141702716Y-107200922D01*
X141514913Y-107552278D01*
X141399264Y-107933521D01*
X141360214Y-108330000D01*
X138039786Y-108330000D01*
X138000736Y-107933521D01*
X137885087Y-107552278D01*
X137697284Y-107200922D01*
X137444543Y-106892957D01*
X137136578Y-106640216D01*
X136785222Y-106452413D01*
X136403979Y-106336764D01*
X136106858Y-106307500D01*
X133133142Y-106307500D01*
X132836021Y-106336764D01*
X132454778Y-106452413D01*
X132103422Y-106640216D01*
X131795457Y-106892957D01*
X131542716Y-107200922D01*
X131354913Y-107552278D01*
X131239264Y-107933521D01*
X131200214Y-108330000D01*
X127879786Y-108330000D01*
X127840736Y-107933521D01*
X127725087Y-107552278D01*
X127537284Y-107200922D01*
X127284543Y-106892957D01*
X126976578Y-106640216D01*
X126625222Y-106452413D01*
X126243979Y-106336764D01*
X125946858Y-106307500D01*
X122973142Y-106307500D01*
X122676021Y-106336764D01*
X122294778Y-106452413D01*
X121943422Y-106640216D01*
X121635457Y-106892957D01*
X121382716Y-107200922D01*
X121194913Y-107552278D01*
X121079264Y-107933521D01*
X121040214Y-108330000D01*
X117719786Y-108330000D01*
X117680736Y-107933521D01*
X117565087Y-107552278D01*
X117377284Y-107200922D01*
X117124543Y-106892957D01*
X116816578Y-106640216D01*
X116465222Y-106452413D01*
X116083979Y-106336764D01*
X115786858Y-106307500D01*
X112813142Y-106307500D01*
X112516021Y-106336764D01*
X112134778Y-106452413D01*
X111783422Y-106640216D01*
X111475457Y-106892957D01*
X111222716Y-107200922D01*
X111034913Y-107552278D01*
X110919264Y-107933521D01*
X110880214Y-108330000D01*
X103999786Y-108330000D01*
X103960736Y-107933521D01*
X103845087Y-107552278D01*
X103657284Y-107200922D01*
X103404543Y-106892957D01*
X103096578Y-106640216D01*
X102745222Y-106452413D01*
X102363979Y-106336764D01*
X102066858Y-106307500D01*
X101340000Y-106307500D01*
X101340000Y-94298801D01*
X101660001Y-93978800D01*
X128056928Y-93978800D01*
X128056928Y-95678800D01*
X128069188Y-95803282D01*
X128105498Y-95922980D01*
X128164463Y-96033294D01*
X128243815Y-96129985D01*
X128340506Y-96209337D01*
X128450820Y-96268302D01*
X128570518Y-96304612D01*
X128695000Y-96316872D01*
X130395000Y-96316872D01*
X130519482Y-96304612D01*
X130639180Y-96268302D01*
X130749494Y-96209337D01*
X130846185Y-96129985D01*
X130925537Y-96033294D01*
X130984502Y-95922980D01*
X131005393Y-95854113D01*
X131029866Y-95883934D01*
X131255986Y-96069506D01*
X131513966Y-96207399D01*
X131793889Y-96292313D01*
X132012050Y-96313800D01*
X132157950Y-96313800D01*
X132376111Y-96292313D01*
X132656034Y-96207399D01*
X132914014Y-96069506D01*
X133140134Y-95883934D01*
X133325706Y-95657814D01*
X133355000Y-95603009D01*
X133384294Y-95657814D01*
X133569866Y-95883934D01*
X133795986Y-96069506D01*
X134053966Y-96207399D01*
X134333889Y-96292313D01*
X134552050Y-96313800D01*
X134697950Y-96313800D01*
X134916111Y-96292313D01*
X135196034Y-96207399D01*
X135454014Y-96069506D01*
X135680134Y-95883934D01*
X135865706Y-95657814D01*
X135895000Y-95603009D01*
X135924294Y-95657814D01*
X136109866Y-95883934D01*
X136335986Y-96069506D01*
X136593966Y-96207399D01*
X136873889Y-96292313D01*
X137092050Y-96313800D01*
X137237950Y-96313800D01*
X137456111Y-96292313D01*
X137736034Y-96207399D01*
X137994014Y-96069506D01*
X138220134Y-95883934D01*
X138405706Y-95657814D01*
X138435000Y-95603009D01*
X138464294Y-95657814D01*
X138649866Y-95883934D01*
X138875986Y-96069506D01*
X139133966Y-96207399D01*
X139413889Y-96292313D01*
X139632050Y-96313800D01*
X139777950Y-96313800D01*
X139996111Y-96292313D01*
X140276034Y-96207399D01*
X140534014Y-96069506D01*
X140760134Y-95883934D01*
X140945706Y-95657814D01*
X141083599Y-95399834D01*
X141168513Y-95119911D01*
X141197185Y-94828800D01*
X141168513Y-94537689D01*
X141083599Y-94257766D01*
X140945706Y-93999786D01*
X140760134Y-93773666D01*
X140534014Y-93588094D01*
X140276034Y-93450201D01*
X139996111Y-93365287D01*
X139777950Y-93343800D01*
X139632050Y-93343800D01*
X139413889Y-93365287D01*
X139133966Y-93450201D01*
X138875986Y-93588094D01*
X138649866Y-93773666D01*
X138464294Y-93999786D01*
X138435000Y-94054591D01*
X138405706Y-93999786D01*
X138220134Y-93773666D01*
X137994014Y-93588094D01*
X137736034Y-93450201D01*
X137456111Y-93365287D01*
X137237950Y-93343800D01*
X137092050Y-93343800D01*
X136873889Y-93365287D01*
X136593966Y-93450201D01*
X136335986Y-93588094D01*
X136109866Y-93773666D01*
X135924294Y-93999786D01*
X135895000Y-94054591D01*
X135865706Y-93999786D01*
X135680134Y-93773666D01*
X135454014Y-93588094D01*
X135196034Y-93450201D01*
X134916111Y-93365287D01*
X134697950Y-93343800D01*
X134552050Y-93343800D01*
X134333889Y-93365287D01*
X134053966Y-93450201D01*
X133795986Y-93588094D01*
X133569866Y-93773666D01*
X133384294Y-93999786D01*
X133355000Y-94054591D01*
X133325706Y-93999786D01*
X133140134Y-93773666D01*
X132914014Y-93588094D01*
X132656034Y-93450201D01*
X132376111Y-93365287D01*
X132157950Y-93343800D01*
X132012050Y-93343800D01*
X131793889Y-93365287D01*
X131513966Y-93450201D01*
X131255986Y-93588094D01*
X131029866Y-93773666D01*
X131005393Y-93803487D01*
X130984502Y-93734620D01*
X130925537Y-93624306D01*
X130846185Y-93527615D01*
X130749494Y-93448263D01*
X130639180Y-93389298D01*
X130519482Y-93352988D01*
X130395000Y-93340728D01*
X128695000Y-93340728D01*
X128570518Y-93352988D01*
X128450820Y-93389298D01*
X128340506Y-93448263D01*
X128243815Y-93527615D01*
X128164463Y-93624306D01*
X128105498Y-93734620D01*
X128069188Y-93854318D01*
X128056928Y-93978800D01*
X101660001Y-93978800D01*
X104962802Y-90676000D01*
X128740678Y-90676000D01*
X128778000Y-90679676D01*
X128815322Y-90676000D01*
X128815333Y-90676000D01*
X128926986Y-90665003D01*
X129070247Y-90621546D01*
X129202276Y-90550974D01*
X129318001Y-90456001D01*
X129341804Y-90426997D01*
X136556003Y-83212799D01*
X136585001Y-83189001D01*
X136611332Y-83156917D01*
X136679974Y-83073277D01*
X136750546Y-82941247D01*
X136794003Y-82797986D01*
X136805000Y-82686333D01*
X136805000Y-82686323D01*
X136808676Y-82649000D01*
X136805000Y-82611677D01*
X136805000Y-81845993D01*
X137048665Y-81894462D01*
X137331335Y-81894462D01*
X137513887Y-81858150D01*
X148338001Y-92682265D01*
X148338000Y-119573197D01*
X144211199Y-123700000D01*
X129831322Y-123700000D01*
X129793999Y-123696324D01*
X129756676Y-123700000D01*
X129756667Y-123700000D01*
X129645014Y-123710997D01*
X129501753Y-123754454D01*
X129369724Y-123825026D01*
X129253999Y-123919999D01*
X129230201Y-123948997D01*
X124964998Y-128214201D01*
X124936000Y-128237999D01*
X124912202Y-128266997D01*
X124912201Y-128266998D01*
X124841026Y-128353724D01*
X124770454Y-128485754D01*
X124726998Y-128629015D01*
X124712324Y-128778000D01*
X124716001Y-128815332D01*
X124716000Y-132296677D01*
X124712324Y-132334000D01*
X124716000Y-132371322D01*
X124716000Y-132371332D01*
X124726997Y-132482985D01*
X124765465Y-132609799D01*
X124770454Y-132626246D01*
X124841026Y-132758276D01*
X124880871Y-132806826D01*
X124935999Y-132874001D01*
X124965003Y-132897804D01*
X126690200Y-134623002D01*
X126713999Y-134652001D01*
X126829724Y-134746974D01*
X126961753Y-134817546D01*
X127105014Y-134861003D01*
X127216667Y-134872000D01*
X127216675Y-134872000D01*
X127254000Y-134875676D01*
X127291325Y-134872000D01*
X133289199Y-134872000D01*
X135130001Y-136712803D01*
X135130000Y-137861198D01*
X131538998Y-141452201D01*
X131510000Y-141475999D01*
X131486202Y-141504997D01*
X131486201Y-141504998D01*
X131415026Y-141591724D01*
X131344454Y-141723754D01*
X131300998Y-141867015D01*
X131286324Y-142016000D01*
X131290001Y-142053332D01*
X131290000Y-143952494D01*
X131135241Y-144055901D01*
X130935363Y-144255779D01*
X130848628Y-144385587D01*
X130752702Y-144357441D01*
X129939605Y-145170538D01*
X129953748Y-145184681D01*
X129774143Y-145364286D01*
X129760000Y-145350143D01*
X128946903Y-146163240D01*
X129018486Y-146407209D01*
X129273996Y-146528109D01*
X129548184Y-146596838D01*
X129578748Y-146598345D01*
X129547429Y-146664534D01*
X129478700Y-146938722D01*
X129464783Y-147221050D01*
X129506213Y-147500668D01*
X129578742Y-147703479D01*
X129341426Y-147750685D01*
X129080273Y-147858858D01*
X128845241Y-148015901D01*
X128645363Y-148215779D01*
X128488320Y-148450811D01*
X128380147Y-148711964D01*
X128325000Y-148989203D01*
X128325000Y-149271873D01*
X128380147Y-149549112D01*
X128488320Y-149810265D01*
X128645363Y-150045297D01*
X128845241Y-150245175D01*
X129080273Y-150402218D01*
X129341426Y-150510391D01*
X129618665Y-150565538D01*
X129901335Y-150565538D01*
X130178574Y-150510391D01*
X130439727Y-150402218D01*
X130674759Y-150245175D01*
X130874637Y-150045297D01*
X130905000Y-149999855D01*
X130935363Y-150045297D01*
X131135241Y-150245175D01*
X131290001Y-150348582D01*
X131290001Y-150785198D01*
X131197199Y-150878000D01*
X129346803Y-150878000D01*
X128268000Y-149799199D01*
X128268000Y-145241050D01*
X128319783Y-145241050D01*
X128361213Y-145520668D01*
X128456397Y-145786830D01*
X128523329Y-145912052D01*
X128767298Y-145983635D01*
X129580395Y-145170538D01*
X128767298Y-144357441D01*
X128523329Y-144429024D01*
X128402429Y-144684534D01*
X128333700Y-144958722D01*
X128319783Y-145241050D01*
X128268000Y-145241050D01*
X128268000Y-144177836D01*
X128946903Y-144177836D01*
X129760000Y-144990933D01*
X130573097Y-144177836D01*
X130501514Y-143933867D01*
X130246004Y-143812967D01*
X129971816Y-143744238D01*
X129689488Y-143730321D01*
X129409870Y-143771751D01*
X129143708Y-143866935D01*
X129018486Y-143933867D01*
X128946903Y-144177836D01*
X128268000Y-144177836D01*
X128268000Y-141284801D01*
X131378803Y-138174000D01*
X133154289Y-138174000D01*
X133198226Y-138217937D01*
X133367744Y-138331205D01*
X133556102Y-138409226D01*
X133756061Y-138449000D01*
X133959939Y-138449000D01*
X134159898Y-138409226D01*
X134348256Y-138331205D01*
X134517774Y-138217937D01*
X134661937Y-138073774D01*
X134775205Y-137904256D01*
X134853226Y-137715898D01*
X134893000Y-137515939D01*
X134893000Y-137312061D01*
X134853226Y-137112102D01*
X134775205Y-136923744D01*
X134661937Y-136754226D01*
X134517774Y-136610063D01*
X134348256Y-136496795D01*
X134159898Y-136418774D01*
X133959939Y-136379000D01*
X133756061Y-136379000D01*
X133556102Y-136418774D01*
X133367744Y-136496795D01*
X133198226Y-136610063D01*
X133154289Y-136654000D01*
X131101322Y-136654000D01*
X131063999Y-136650324D01*
X131026676Y-136654000D01*
X131026667Y-136654000D01*
X130915014Y-136664997D01*
X130771753Y-136708454D01*
X130639724Y-136779026D01*
X130639722Y-136779027D01*
X130639723Y-136779027D01*
X130552996Y-136850201D01*
X130552992Y-136850205D01*
X130523999Y-136873999D01*
X130500205Y-136902992D01*
X126996998Y-140406201D01*
X126968000Y-140429999D01*
X126944202Y-140458997D01*
X126944201Y-140458998D01*
X126873026Y-140545724D01*
X126802454Y-140677754D01*
X126758998Y-140821015D01*
X126744324Y-140970000D01*
X126748001Y-141007332D01*
X126748000Y-150076678D01*
X126744324Y-150114000D01*
X126748000Y-150151322D01*
X126748000Y-150151332D01*
X126758997Y-150262985D01*
X126785695Y-150350998D01*
X126802454Y-150406246D01*
X126873026Y-150538276D01*
X126912871Y-150586826D01*
X126967999Y-150654001D01*
X126997002Y-150677803D01*
X128213197Y-151894000D01*
X109026802Y-151894000D01*
X103463815Y-146331013D01*
X119470000Y-146331013D01*
X119470000Y-146850063D01*
X119571261Y-147359139D01*
X119769893Y-147838679D01*
X120058262Y-148270253D01*
X120425285Y-148637276D01*
X120856859Y-148925645D01*
X121336399Y-149124277D01*
X121845475Y-149225538D01*
X122364525Y-149225538D01*
X122873601Y-149124277D01*
X123353141Y-148925645D01*
X123784715Y-148637276D01*
X124151738Y-148270253D01*
X124440107Y-147838679D01*
X124638739Y-147359139D01*
X124740000Y-146850063D01*
X124740000Y-146331013D01*
X124638739Y-145821937D01*
X124440107Y-145342397D01*
X124151738Y-144910823D01*
X123784715Y-144543800D01*
X123353141Y-144255431D01*
X122873601Y-144056799D01*
X122364525Y-143955538D01*
X121845475Y-143955538D01*
X121336399Y-144056799D01*
X120856859Y-144255431D01*
X120425285Y-144543800D01*
X120058262Y-144910823D01*
X119769893Y-145342397D01*
X119571261Y-145821937D01*
X119470000Y-146331013D01*
X103463815Y-146331013D01*
X100065000Y-142932199D01*
X100065000Y-132719272D01*
X100155000Y-132719272D01*
X100279482Y-132707012D01*
X100399180Y-132670702D01*
X100509494Y-132611737D01*
X100606185Y-132532385D01*
X100685537Y-132435694D01*
X100744502Y-132325380D01*
X100768966Y-132244734D01*
X100844731Y-132328788D01*
X101078080Y-132502841D01*
X101340901Y-132628025D01*
X101488110Y-132672676D01*
X101718000Y-132551355D01*
X101718000Y-131358200D01*
X101972000Y-131358200D01*
X101972000Y-132551355D01*
X102201890Y-132672676D01*
X102349099Y-132628025D01*
X102611920Y-132502841D01*
X102845269Y-132328788D01*
X103040178Y-132112555D01*
X103189157Y-131862452D01*
X103286481Y-131588091D01*
X103165814Y-131358200D01*
X101972000Y-131358200D01*
X101718000Y-131358200D01*
X101698000Y-131358200D01*
X101698000Y-131104200D01*
X101718000Y-131104200D01*
X101718000Y-129911045D01*
X101972000Y-129911045D01*
X101972000Y-131104200D01*
X103165814Y-131104200D01*
X103286481Y-130874309D01*
X103189157Y-130599948D01*
X103040178Y-130349845D01*
X102845269Y-130133612D01*
X102611920Y-129959559D01*
X102349099Y-129834375D01*
X102201890Y-129789724D01*
X101972000Y-129911045D01*
X101718000Y-129911045D01*
X101488110Y-129789724D01*
X101340901Y-129834375D01*
X101078080Y-129959559D01*
X100844731Y-130133612D01*
X100768966Y-130217666D01*
X100744502Y-130137020D01*
X100685537Y-130026706D01*
X100606185Y-129930015D01*
X100509494Y-129850663D01*
X100399180Y-129791698D01*
X100279482Y-129755388D01*
X100155000Y-129743128D01*
X98455000Y-129743128D01*
X98330518Y-129755388D01*
X98210820Y-129791698D01*
X98100506Y-129850663D01*
X98003815Y-129930015D01*
X97924463Y-130026706D01*
X97865498Y-130137020D01*
X97829188Y-130256718D01*
X97816928Y-130381200D01*
X97816928Y-132081200D01*
X97829188Y-132205682D01*
X97865498Y-132325380D01*
X97924463Y-132435694D01*
X98003815Y-132532385D01*
X98100506Y-132611737D01*
X98210820Y-132670702D01*
X98330518Y-132707012D01*
X98455000Y-132719272D01*
X98545001Y-132719272D01*
X98545000Y-143209678D01*
X98541324Y-143247000D01*
X98545000Y-143284322D01*
X98545000Y-143284332D01*
X98555997Y-143395985D01*
X98561763Y-143414992D01*
X98599454Y-143539246D01*
X98670026Y-143671276D01*
X98690532Y-143696262D01*
X98764999Y-143787001D01*
X98794003Y-143810804D01*
X108148201Y-153165003D01*
X108171999Y-153194001D01*
X108200997Y-153217799D01*
X108287723Y-153288974D01*
X108419753Y-153359546D01*
X108563014Y-153403003D01*
X108674667Y-153414000D01*
X108674677Y-153414000D01*
X108712000Y-153417676D01*
X108749322Y-153414000D01*
X132042678Y-153414000D01*
X132080000Y-153417676D01*
X132117322Y-153414000D01*
X132117333Y-153414000D01*
X132228986Y-153403003D01*
X132372247Y-153359546D01*
X132504276Y-153288974D01*
X132620001Y-153194001D01*
X132643804Y-153164998D01*
X133706003Y-152102799D01*
X133735001Y-152079001D01*
X133784221Y-152019026D01*
X133829974Y-151963277D01*
X133900546Y-151831247D01*
X133919432Y-151768986D01*
X133944003Y-151687986D01*
X133955000Y-151576333D01*
X133955000Y-151576324D01*
X133958676Y-151539001D01*
X133955000Y-151501678D01*
X133955000Y-150517069D01*
X134198665Y-150565538D01*
X134481335Y-150565538D01*
X134758574Y-150510391D01*
X135019727Y-150402218D01*
X135254759Y-150245175D01*
X135454637Y-150045297D01*
X135485000Y-149999855D01*
X135515363Y-150045297D01*
X135715241Y-150245175D01*
X135870001Y-150348582D01*
X135870001Y-151070668D01*
X135866324Y-151108000D01*
X135870001Y-151145333D01*
X135870239Y-151147744D01*
X135880998Y-151256985D01*
X135924454Y-151400246D01*
X135995026Y-151532276D01*
X136066201Y-151619002D01*
X136090000Y-151648001D01*
X136118998Y-151671799D01*
X137866205Y-153419008D01*
X137889999Y-153448001D01*
X137918992Y-153471795D01*
X137918996Y-153471799D01*
X137989685Y-153529811D01*
X138005724Y-153542974D01*
X138137753Y-153613546D01*
X138281014Y-153657003D01*
X138392667Y-153668000D01*
X138392676Y-153668000D01*
X138429999Y-153671676D01*
X138467322Y-153668000D01*
X141694678Y-153668000D01*
X141732000Y-153671676D01*
X141769322Y-153668000D01*
X141769333Y-153668000D01*
X141880986Y-153657003D01*
X142024247Y-153613546D01*
X142156276Y-153542974D01*
X142272001Y-153448001D01*
X142295804Y-153418997D01*
X144529004Y-151185798D01*
X144558001Y-151162001D01*
X144652974Y-151046276D01*
X144723546Y-150914247D01*
X144767003Y-150770986D01*
X144778000Y-150659333D01*
X144778000Y-150659324D01*
X144781676Y-150622001D01*
X144778000Y-150584678D01*
X144778000Y-147850812D01*
X145058262Y-148270253D01*
X145425285Y-148637276D01*
X145856859Y-148925645D01*
X146336399Y-149124277D01*
X146845475Y-149225538D01*
X147364525Y-149225538D01*
X147873601Y-149124277D01*
X148353141Y-148925645D01*
X148784715Y-148637276D01*
X149151738Y-148270253D01*
X149440107Y-147838679D01*
X149638739Y-147359139D01*
X149740000Y-146850063D01*
X149740000Y-146331013D01*
X149638739Y-145821937D01*
X149440107Y-145342397D01*
X149151738Y-144910823D01*
X148784715Y-144543800D01*
X148353141Y-144255431D01*
X147873601Y-144056799D01*
X147364525Y-143955538D01*
X146845475Y-143955538D01*
X146336399Y-144056799D01*
X145856859Y-144255431D01*
X145425285Y-144543800D01*
X145058262Y-144910823D01*
X144778000Y-145330264D01*
X144778000Y-127060801D01*
X150371004Y-121467798D01*
X150400001Y-121444001D01*
X150494974Y-121328276D01*
X150565546Y-121196247D01*
X150609003Y-121052986D01*
X150620000Y-120941333D01*
X150620000Y-120941325D01*
X150623676Y-120904000D01*
X150620000Y-120866675D01*
X150620000Y-117730000D01*
X151520214Y-117730000D01*
X151559264Y-118126479D01*
X151674913Y-118507722D01*
X151862716Y-118859078D01*
X152115457Y-119167043D01*
X152423422Y-119419784D01*
X152774778Y-119607587D01*
X153156021Y-119723236D01*
X153453142Y-119752500D01*
X156426858Y-119752500D01*
X156723979Y-119723236D01*
X157105222Y-119607587D01*
X157456578Y-119419784D01*
X157764543Y-119167043D01*
X158017284Y-118859078D01*
X158205087Y-118507722D01*
X158320736Y-118126479D01*
X158359786Y-117730000D01*
X158320736Y-117333521D01*
X158205087Y-116952278D01*
X158017284Y-116600922D01*
X157764543Y-116292957D01*
X157456578Y-116040216D01*
X157105222Y-115852413D01*
X156723979Y-115736764D01*
X156426858Y-115707500D01*
X153453142Y-115707500D01*
X153156021Y-115736764D01*
X152774778Y-115852413D01*
X152423422Y-116040216D01*
X152115457Y-116292957D01*
X151862716Y-116600922D01*
X151674913Y-116952278D01*
X151559264Y-117333521D01*
X151520214Y-117730000D01*
X150620000Y-117730000D01*
X150620000Y-113030000D01*
X151520214Y-113030000D01*
X151559264Y-113426479D01*
X151674913Y-113807722D01*
X151862716Y-114159078D01*
X152115457Y-114467043D01*
X152423422Y-114719784D01*
X152774778Y-114907587D01*
X153156021Y-115023236D01*
X153453142Y-115052500D01*
X156426858Y-115052500D01*
X156723979Y-115023236D01*
X157105222Y-114907587D01*
X157456578Y-114719784D01*
X157764543Y-114467043D01*
X158017284Y-114159078D01*
X158205087Y-113807722D01*
X158320736Y-113426479D01*
X158359786Y-113030000D01*
X158320736Y-112633521D01*
X158205087Y-112252278D01*
X158017284Y-111900922D01*
X157764543Y-111592957D01*
X157456578Y-111340216D01*
X157105222Y-111152413D01*
X156723979Y-111036764D01*
X156426858Y-111007500D01*
X153453142Y-111007500D01*
X153156021Y-111036764D01*
X152774778Y-111152413D01*
X152423422Y-111340216D01*
X152115457Y-111592957D01*
X151862716Y-111900922D01*
X151674913Y-112252278D01*
X151559264Y-112633521D01*
X151520214Y-113030000D01*
X150620000Y-113030000D01*
X150620000Y-108330000D01*
X151520214Y-108330000D01*
X151559264Y-108726479D01*
X151674913Y-109107722D01*
X151862716Y-109459078D01*
X152115457Y-109767043D01*
X152423422Y-110019784D01*
X152774778Y-110207587D01*
X153156021Y-110323236D01*
X153453142Y-110352500D01*
X156426858Y-110352500D01*
X156723979Y-110323236D01*
X157105222Y-110207587D01*
X157456578Y-110019784D01*
X157764543Y-109767043D01*
X158017284Y-109459078D01*
X158205087Y-109107722D01*
X158320736Y-108726479D01*
X158359786Y-108330000D01*
X158320736Y-107933521D01*
X158205087Y-107552278D01*
X158017284Y-107200922D01*
X157764543Y-106892957D01*
X157456578Y-106640216D01*
X157105222Y-106452413D01*
X156723979Y-106336764D01*
X156426858Y-106307500D01*
X153453142Y-106307500D01*
X153156021Y-106336764D01*
X152774778Y-106452413D01*
X152423422Y-106640216D01*
X152115457Y-106892957D01*
X151862716Y-107200922D01*
X151674913Y-107552278D01*
X151559264Y-107933521D01*
X151520214Y-108330000D01*
X150620000Y-108330000D01*
X150620000Y-74205325D01*
X150623676Y-74168000D01*
X150620000Y-74130675D01*
X150620000Y-74130667D01*
X150609003Y-74019014D01*
X150565546Y-73875753D01*
X150494974Y-73743724D01*
X150400001Y-73627999D01*
X150371003Y-73604201D01*
X148645804Y-71879003D01*
X148622001Y-71849999D01*
X148506276Y-71755026D01*
X148374247Y-71684454D01*
X148230986Y-71640997D01*
X148119333Y-71630000D01*
X148119322Y-71630000D01*
X148082000Y-71626324D01*
X148044678Y-71630000D01*
X136756785Y-71630000D01*
X136719462Y-71626324D01*
X136682139Y-71630000D01*
X136682129Y-71630000D01*
X136570476Y-71640997D01*
X136427215Y-71684454D01*
X136295185Y-71755026D01*
X136248912Y-71793002D01*
X136179461Y-71849999D01*
X136155663Y-71878997D01*
X132933887Y-75100774D01*
X132751335Y-75064462D01*
X132468665Y-75064462D01*
X132191426Y-75119609D01*
X131930273Y-75227782D01*
X131695241Y-75384825D01*
X131495363Y-75584703D01*
X131465000Y-75630145D01*
X131434637Y-75584703D01*
X131234759Y-75384825D01*
X130999727Y-75227782D01*
X130738574Y-75119609D01*
X130461335Y-75064462D01*
X130178665Y-75064462D01*
X129901426Y-75119609D01*
X129640273Y-75227782D01*
X129405241Y-75384825D01*
X129205363Y-75584703D01*
X129048320Y-75819735D01*
X128940147Y-76080888D01*
X128885000Y-76358127D01*
X128885000Y-76640797D01*
X128940147Y-76918036D01*
X128996953Y-77055178D01*
X128824870Y-77080675D01*
X128558708Y-77175859D01*
X128433486Y-77242791D01*
X128361903Y-77486760D01*
X129175000Y-78299857D01*
X129189143Y-78285715D01*
X129368748Y-78465320D01*
X129354605Y-78479462D01*
X129368748Y-78493605D01*
X129189143Y-78673210D01*
X129175000Y-78659067D01*
X128361903Y-79472164D01*
X128433486Y-79716133D01*
X128688996Y-79837033D01*
X128881928Y-79885394D01*
X128881928Y-81259462D01*
X128894188Y-81383944D01*
X128930498Y-81503642D01*
X128989463Y-81613956D01*
X129068815Y-81710647D01*
X129165506Y-81789999D01*
X129275820Y-81848964D01*
X129395518Y-81885274D01*
X129520000Y-81897534D01*
X131120000Y-81897534D01*
X131244482Y-81885274D01*
X131364180Y-81848964D01*
X131474494Y-81789999D01*
X131571185Y-81710647D01*
X131650537Y-81613956D01*
X131679992Y-81558850D01*
X131695241Y-81574099D01*
X131930273Y-81731142D01*
X132191426Y-81839315D01*
X132468665Y-81894462D01*
X132751335Y-81894462D01*
X133028574Y-81839315D01*
X133289727Y-81731142D01*
X133524759Y-81574099D01*
X133724637Y-81374221D01*
X133755000Y-81328779D01*
X133785363Y-81374221D01*
X133985241Y-81574099D01*
X134220273Y-81731142D01*
X134481426Y-81839315D01*
X134758665Y-81894462D01*
X135041335Y-81894462D01*
X135285001Y-81845993D01*
X135285001Y-82334197D01*
X128463199Y-89156000D01*
X104685325Y-89156000D01*
X104648000Y-89152324D01*
X104610675Y-89156000D01*
X104610667Y-89156000D01*
X104499014Y-89166997D01*
X104355753Y-89210454D01*
X104223724Y-89281026D01*
X104107999Y-89375999D01*
X104084201Y-89404997D01*
X100069003Y-93420196D01*
X100039999Y-93443999D01*
X99984871Y-93511174D01*
X99945026Y-93559724D01*
X99929862Y-93588094D01*
X99874454Y-93691754D01*
X99830997Y-93835015D01*
X99820000Y-93946668D01*
X99820000Y-93946678D01*
X99816324Y-93984000D01*
X99820000Y-94021322D01*
X99820001Y-106307500D01*
X99093142Y-106307500D01*
X98796021Y-106336764D01*
X98414778Y-106452413D01*
X98063422Y-106640216D01*
X97755457Y-106892957D01*
X97502716Y-107200922D01*
X97314913Y-107552278D01*
X97199264Y-107933521D01*
X97160214Y-108330000D01*
X94911500Y-108330000D01*
X94911500Y-78779937D01*
X119500000Y-78779937D01*
X119500000Y-79298987D01*
X119601261Y-79808063D01*
X119799893Y-80287603D01*
X120088262Y-80719177D01*
X120455285Y-81086200D01*
X120886859Y-81374569D01*
X121366399Y-81573201D01*
X121875475Y-81674462D01*
X122394525Y-81674462D01*
X122903601Y-81573201D01*
X123383141Y-81374569D01*
X123814715Y-81086200D01*
X124181738Y-80719177D01*
X124470107Y-80287603D01*
X124668739Y-79808063D01*
X124770000Y-79298987D01*
X124770000Y-78779937D01*
X124724258Y-78549974D01*
X127734783Y-78549974D01*
X127776213Y-78829592D01*
X127871397Y-79095754D01*
X127938329Y-79220976D01*
X128182298Y-79292559D01*
X128995395Y-78479462D01*
X128182298Y-77666365D01*
X127938329Y-77737948D01*
X127817429Y-77993458D01*
X127748700Y-78267646D01*
X127734783Y-78549974D01*
X124724258Y-78549974D01*
X124668739Y-78270861D01*
X124470107Y-77791321D01*
X124181738Y-77359747D01*
X123814715Y-76992724D01*
X123383141Y-76704355D01*
X122903601Y-76505723D01*
X122394525Y-76404462D01*
X121875475Y-76404462D01*
X121366399Y-76505723D01*
X120886859Y-76704355D01*
X120455285Y-76992724D01*
X120088262Y-77359747D01*
X119799893Y-77791321D01*
X119601261Y-78270861D01*
X119500000Y-78779937D01*
X94911500Y-78779937D01*
X94911500Y-71496990D01*
X96606538Y-71496990D01*
X96606538Y-71921934D01*
X96689440Y-72338712D01*
X96852059Y-72731309D01*
X97088145Y-73084636D01*
X97388626Y-73385117D01*
X97741953Y-73621203D01*
X98134550Y-73783822D01*
X98551328Y-73866724D01*
X98976272Y-73866724D01*
X99393050Y-73783822D01*
X99785647Y-73621203D01*
X100138974Y-73385117D01*
X100439455Y-73084636D01*
X100675541Y-72731309D01*
X100838160Y-72338712D01*
X100921062Y-71921934D01*
X100921062Y-71496990D01*
X154598938Y-71496990D01*
X154598938Y-71921934D01*
X154681840Y-72338712D01*
X154844459Y-72731309D01*
X155080545Y-73084636D01*
X155381026Y-73385117D01*
X155734353Y-73621203D01*
X156126950Y-73783822D01*
X156543728Y-73866724D01*
X156968672Y-73866724D01*
X157385450Y-73783822D01*
X157778047Y-73621203D01*
X158131374Y-73385117D01*
X158431855Y-73084636D01*
X158667941Y-72731309D01*
X158830560Y-72338712D01*
X158913462Y-71921934D01*
X158913462Y-71496990D01*
X158830560Y-71080212D01*
X158667941Y-70687615D01*
X158431855Y-70334288D01*
X158131374Y-70033807D01*
X157778047Y-69797721D01*
X157385450Y-69635102D01*
X156968672Y-69552200D01*
X156543728Y-69552200D01*
X156126950Y-69635102D01*
X155734353Y-69797721D01*
X155381026Y-70033807D01*
X155080545Y-70334288D01*
X154844459Y-70687615D01*
X154681840Y-71080212D01*
X154598938Y-71496990D01*
X100921062Y-71496990D01*
X100838160Y-71080212D01*
X100675541Y-70687615D01*
X100439455Y-70334288D01*
X100138974Y-70033807D01*
X99785647Y-69797721D01*
X99393050Y-69635102D01*
X98976272Y-69552200D01*
X98551328Y-69552200D01*
X98134550Y-69635102D01*
X97741953Y-69797721D01*
X97388626Y-70033807D01*
X97088145Y-70334288D01*
X96852059Y-70687615D01*
X96689440Y-71080212D01*
X96606538Y-71496990D01*
X94911500Y-71496990D01*
X94911500Y-67857162D01*
X160608500Y-67857162D01*
X160608501Y-157832838D01*
G36*
X143258000Y-150307198D02*
G01*
X141417199Y-152148000D01*
X139842013Y-152148000D01*
X139855205Y-152128256D01*
X139933226Y-151939898D01*
X139973000Y-151739939D01*
X139973000Y-151536061D01*
X139933226Y-151336102D01*
X139855205Y-151147744D01*
X139741937Y-150978226D01*
X139680000Y-150916289D01*
X139680000Y-150348581D01*
X139834759Y-150245175D01*
X140034637Y-150045297D01*
X140191680Y-149810265D01*
X140299853Y-149549112D01*
X140355000Y-149271873D01*
X140355000Y-148989203D01*
X140299853Y-148711964D01*
X140243047Y-148574822D01*
X140415130Y-148549325D01*
X140681292Y-148454141D01*
X140806514Y-148387209D01*
X140878097Y-148143240D01*
X140065000Y-147330143D01*
X140050858Y-147344286D01*
X139871253Y-147164681D01*
X139885395Y-147150538D01*
X140244605Y-147150538D01*
X141057702Y-147963635D01*
X141301671Y-147892052D01*
X141422571Y-147636542D01*
X141491300Y-147362354D01*
X141505217Y-147080026D01*
X141463787Y-146800408D01*
X141368603Y-146534246D01*
X141301671Y-146409024D01*
X141057702Y-146337441D01*
X140244605Y-147150538D01*
X139885395Y-147150538D01*
X139871253Y-147136396D01*
X140050858Y-146956791D01*
X140065000Y-146970933D01*
X140878097Y-146157836D01*
X140806514Y-145913867D01*
X140551004Y-145792967D01*
X140358072Y-145744606D01*
X140358072Y-144370538D01*
X140345812Y-144246056D01*
X140309502Y-144126358D01*
X140250537Y-144016044D01*
X140182364Y-143932975D01*
X143258000Y-140857340D01*
X143258000Y-150307198D01*
X143258000Y-150307198D01*
G37*
X143258000Y-150307198D02*
X141417199Y-152148000D01*
X139842013Y-152148000D01*
X139855205Y-152128256D01*
X139933226Y-151939898D01*
X139973000Y-151739939D01*
X139973000Y-151536061D01*
X139933226Y-151336102D01*
X139855205Y-151147744D01*
X139741937Y-150978226D01*
X139680000Y-150916289D01*
X139680000Y-150348581D01*
X139834759Y-150245175D01*
X140034637Y-150045297D01*
X140191680Y-149810265D01*
X140299853Y-149549112D01*
X140355000Y-149271873D01*
X140355000Y-148989203D01*
X140299853Y-148711964D01*
X140243047Y-148574822D01*
X140415130Y-148549325D01*
X140681292Y-148454141D01*
X140806514Y-148387209D01*
X140878097Y-148143240D01*
X140065000Y-147330143D01*
X140050858Y-147344286D01*
X139871253Y-147164681D01*
X139885395Y-147150538D01*
X140244605Y-147150538D01*
X141057702Y-147963635D01*
X141301671Y-147892052D01*
X141422571Y-147636542D01*
X141491300Y-147362354D01*
X141505217Y-147080026D01*
X141463787Y-146800408D01*
X141368603Y-146534246D01*
X141301671Y-146409024D01*
X141057702Y-146337441D01*
X140244605Y-147150538D01*
X139885395Y-147150538D01*
X139871253Y-147136396D01*
X140050858Y-146956791D01*
X140065000Y-146970933D01*
X140878097Y-146157836D01*
X140806514Y-145913867D01*
X140551004Y-145792967D01*
X140358072Y-145744606D01*
X140358072Y-144370538D01*
X140345812Y-144246056D01*
X140309502Y-144126358D01*
X140250537Y-144016044D01*
X140182364Y-143932975D01*
X143258000Y-140857340D01*
X143258000Y-150307198D01*
G36*
X137968748Y-147136396D02*
G01*
X137954605Y-147150538D01*
X137968748Y-147164681D01*
X137789143Y-147344286D01*
X137775000Y-147330143D01*
X137760858Y-147344286D01*
X137581253Y-147164681D01*
X137595395Y-147150538D01*
X137581253Y-147136396D01*
X137760858Y-146956791D01*
X137775000Y-146970933D01*
X137789143Y-146956791D01*
X137968748Y-147136396D01*
X137968748Y-147136396D01*
G37*
X137968748Y-147136396D02*
X137954605Y-147150538D01*
X137968748Y-147164681D01*
X137789143Y-147344286D01*
X137775000Y-147330143D01*
X137760858Y-147344286D01*
X137581253Y-147164681D01*
X137595395Y-147150538D01*
X137581253Y-147136396D01*
X137760858Y-146956791D01*
X137775000Y-146970933D01*
X137789143Y-146956791D01*
X137968748Y-147136396D01*
G36*
X135678748Y-147136396D02*
G01*
X135664605Y-147150538D01*
X135678748Y-147164681D01*
X135499143Y-147344286D01*
X135485000Y-147330143D01*
X135470858Y-147344286D01*
X135291253Y-147164681D01*
X135305395Y-147150538D01*
X135291253Y-147136396D01*
X135470858Y-146956791D01*
X135485000Y-146970933D01*
X135499143Y-146956791D01*
X135678748Y-147136396D01*
X135678748Y-147136396D01*
G37*
X135678748Y-147136396D02*
X135664605Y-147150538D01*
X135678748Y-147164681D01*
X135499143Y-147344286D01*
X135485000Y-147330143D01*
X135470858Y-147344286D01*
X135291253Y-147164681D01*
X135305395Y-147150538D01*
X135291253Y-147136396D01*
X135470858Y-146956791D01*
X135485000Y-146970933D01*
X135499143Y-146956791D01*
X135678748Y-147136396D01*
G36*
X131098748Y-147136396D02*
G01*
X131084605Y-147150538D01*
X131098748Y-147164681D01*
X130919143Y-147344286D01*
X130905000Y-147330143D01*
X130890858Y-147344286D01*
X130711253Y-147164681D01*
X130725395Y-147150538D01*
X130711253Y-147136396D01*
X130890858Y-146956791D01*
X130905000Y-146970933D01*
X130919143Y-146956791D01*
X131098748Y-147136396D01*
X131098748Y-147136396D01*
G37*
X131098748Y-147136396D02*
X131084605Y-147150538D01*
X131098748Y-147164681D01*
X130919143Y-147344286D01*
X130905000Y-147330143D01*
X130890858Y-147344286D01*
X130711253Y-147164681D01*
X130725395Y-147150538D01*
X130711253Y-147136396D01*
X130890858Y-146956791D01*
X130905000Y-146970933D01*
X130919143Y-146956791D01*
X131098748Y-147136396D01*
G36*
X149100001Y-74482803D02*
G01*
X149100001Y-77278010D01*
X148814715Y-76992724D01*
X148383141Y-76704355D01*
X147903601Y-76505723D01*
X147394525Y-76404462D01*
X146875475Y-76404462D01*
X146366399Y-76505723D01*
X145886859Y-76704355D01*
X145455285Y-76992724D01*
X145088262Y-77359747D01*
X144799893Y-77791321D01*
X144601261Y-78270861D01*
X144500000Y-78779937D01*
X144500000Y-79298987D01*
X144601261Y-79808063D01*
X144799893Y-80287603D01*
X145088262Y-80719177D01*
X145455285Y-81086200D01*
X145886859Y-81374569D01*
X146366399Y-81573201D01*
X146875475Y-81674462D01*
X147394525Y-81674462D01*
X147903601Y-81573201D01*
X148383141Y-81374569D01*
X148814715Y-81086200D01*
X149100001Y-80800914D01*
X149100001Y-91294661D01*
X139685080Y-81879741D01*
X139830130Y-81858249D01*
X140096292Y-81763065D01*
X140221514Y-81696133D01*
X140293097Y-81452164D01*
X139480000Y-80639067D01*
X139465858Y-80653210D01*
X139286253Y-80473605D01*
X139300395Y-80459462D01*
X139659605Y-80459462D01*
X140472702Y-81272559D01*
X140716671Y-81200976D01*
X140837571Y-80945466D01*
X140906300Y-80671278D01*
X140920217Y-80388950D01*
X140878787Y-80109332D01*
X140783603Y-79843170D01*
X140716671Y-79717948D01*
X140472702Y-79646365D01*
X139659605Y-80459462D01*
X139300395Y-80459462D01*
X139286253Y-80445320D01*
X139465858Y-80265715D01*
X139480000Y-80279857D01*
X140293097Y-79466760D01*
X140221514Y-79222791D01*
X139966004Y-79101891D01*
X139691816Y-79033162D01*
X139661252Y-79031655D01*
X139692571Y-78965466D01*
X139761300Y-78691278D01*
X139775217Y-78408950D01*
X139733787Y-78129332D01*
X139661258Y-77926521D01*
X139898574Y-77879315D01*
X140159727Y-77771142D01*
X140394759Y-77614099D01*
X140594637Y-77414221D01*
X140751680Y-77179189D01*
X140859853Y-76918036D01*
X140915000Y-76640797D01*
X140915000Y-76358127D01*
X140878688Y-76175576D01*
X142380265Y-74674000D01*
X145092289Y-74674000D01*
X145136226Y-74717937D01*
X145305744Y-74831205D01*
X145494102Y-74909226D01*
X145694061Y-74949000D01*
X145897939Y-74949000D01*
X146097898Y-74909226D01*
X146286256Y-74831205D01*
X146455774Y-74717937D01*
X146599937Y-74573774D01*
X146713205Y-74404256D01*
X146791226Y-74215898D01*
X146831000Y-74015939D01*
X146831000Y-73812061D01*
X146791226Y-73612102D01*
X146713205Y-73423744D01*
X146599937Y-73254226D01*
X146495711Y-73150000D01*
X147767199Y-73150000D01*
X149100001Y-74482803D01*
X149100001Y-74482803D01*
G37*
X149100001Y-74482803D02*
X149100001Y-77278010D01*
X148814715Y-76992724D01*
X148383141Y-76704355D01*
X147903601Y-76505723D01*
X147394525Y-76404462D01*
X146875475Y-76404462D01*
X146366399Y-76505723D01*
X145886859Y-76704355D01*
X145455285Y-76992724D01*
X145088262Y-77359747D01*
X144799893Y-77791321D01*
X144601261Y-78270861D01*
X144500000Y-78779937D01*
X144500000Y-79298987D01*
X144601261Y-79808063D01*
X144799893Y-80287603D01*
X145088262Y-80719177D01*
X145455285Y-81086200D01*
X145886859Y-81374569D01*
X146366399Y-81573201D01*
X146875475Y-81674462D01*
X147394525Y-81674462D01*
X147903601Y-81573201D01*
X148383141Y-81374569D01*
X148814715Y-81086200D01*
X149100001Y-80800914D01*
X149100001Y-91294661D01*
X139685080Y-81879741D01*
X139830130Y-81858249D01*
X140096292Y-81763065D01*
X140221514Y-81696133D01*
X140293097Y-81452164D01*
X139480000Y-80639067D01*
X139465858Y-80653210D01*
X139286253Y-80473605D01*
X139300395Y-80459462D01*
X139659605Y-80459462D01*
X140472702Y-81272559D01*
X140716671Y-81200976D01*
X140837571Y-80945466D01*
X140906300Y-80671278D01*
X140920217Y-80388950D01*
X140878787Y-80109332D01*
X140783603Y-79843170D01*
X140716671Y-79717948D01*
X140472702Y-79646365D01*
X139659605Y-80459462D01*
X139300395Y-80459462D01*
X139286253Y-80445320D01*
X139465858Y-80265715D01*
X139480000Y-80279857D01*
X140293097Y-79466760D01*
X140221514Y-79222791D01*
X139966004Y-79101891D01*
X139691816Y-79033162D01*
X139661252Y-79031655D01*
X139692571Y-78965466D01*
X139761300Y-78691278D01*
X139775217Y-78408950D01*
X139733787Y-78129332D01*
X139661258Y-77926521D01*
X139898574Y-77879315D01*
X140159727Y-77771142D01*
X140394759Y-77614099D01*
X140594637Y-77414221D01*
X140751680Y-77179189D01*
X140859853Y-76918036D01*
X140915000Y-76640797D01*
X140915000Y-76358127D01*
X140878688Y-76175576D01*
X142380265Y-74674000D01*
X145092289Y-74674000D01*
X145136226Y-74717937D01*
X145305744Y-74831205D01*
X145494102Y-74909226D01*
X145694061Y-74949000D01*
X145897939Y-74949000D01*
X146097898Y-74909226D01*
X146286256Y-74831205D01*
X146455774Y-74717937D01*
X146599937Y-74573774D01*
X146713205Y-74404256D01*
X146791226Y-74215898D01*
X146831000Y-74015939D01*
X146831000Y-73812061D01*
X146791226Y-73612102D01*
X146713205Y-73423744D01*
X146599937Y-73254226D01*
X146495711Y-73150000D01*
X147767199Y-73150000D01*
X149100001Y-74482803D01*
G36*
X133948748Y-78465320D02*
G01*
X133934605Y-78479462D01*
X133948748Y-78493605D01*
X133769143Y-78673210D01*
X133755000Y-78659067D01*
X133740858Y-78673210D01*
X133561253Y-78493605D01*
X133575395Y-78479462D01*
X133561253Y-78465320D01*
X133740858Y-78285715D01*
X133755000Y-78299857D01*
X133769143Y-78285715D01*
X133948748Y-78465320D01*
X133948748Y-78465320D01*
G37*
X133948748Y-78465320D02*
X133934605Y-78479462D01*
X133948748Y-78493605D01*
X133769143Y-78673210D01*
X133755000Y-78659067D01*
X133740858Y-78673210D01*
X133561253Y-78493605D01*
X133575395Y-78479462D01*
X133561253Y-78465320D01*
X133740858Y-78285715D01*
X133755000Y-78299857D01*
X133769143Y-78285715D01*
X133948748Y-78465320D01*
G36*
X131658748Y-78465320D02*
G01*
X131644605Y-78479462D01*
X131658748Y-78493605D01*
X131479143Y-78673210D01*
X131465000Y-78659067D01*
X131450858Y-78673210D01*
X131271253Y-78493605D01*
X131285395Y-78479462D01*
X131271253Y-78465320D01*
X131450858Y-78285715D01*
X131465000Y-78299857D01*
X131479143Y-78285715D01*
X131658748Y-78465320D01*
X131658748Y-78465320D01*
G37*
X131658748Y-78465320D02*
X131644605Y-78479462D01*
X131658748Y-78493605D01*
X131479143Y-78673210D01*
X131465000Y-78659067D01*
X131450858Y-78673210D01*
X131271253Y-78493605D01*
X131285395Y-78479462D01*
X131271253Y-78465320D01*
X131450858Y-78285715D01*
X131465000Y-78299857D01*
X131479143Y-78285715D01*
X131658748Y-78465320D01*
G36*
X138528748Y-78465320D02*
G01*
X138514605Y-78479462D01*
X138528748Y-78493605D01*
X138349143Y-78673210D01*
X138335000Y-78659067D01*
X138320858Y-78673210D01*
X138141253Y-78493605D01*
X138155395Y-78479462D01*
X138141253Y-78465320D01*
X138320858Y-78285715D01*
X138335000Y-78299857D01*
X138349143Y-78285715D01*
X138528748Y-78465320D01*
X138528748Y-78465320D01*
G37*
X138528748Y-78465320D02*
X138514605Y-78479462D01*
X138528748Y-78493605D01*
X138349143Y-78673210D01*
X138335000Y-78659067D01*
X138320858Y-78673210D01*
X138141253Y-78493605D01*
X138155395Y-78479462D01*
X138141253Y-78465320D01*
X138320858Y-78285715D01*
X138335000Y-78299857D01*
X138349143Y-78285715D01*
X138528748Y-78465320D01*
M02*
