M48
; DRILL file {KiCad 5.1.4-e60b266~84~ubuntu19.04.1} date Čt 29. srpna 2019, 17:26:54 CEST
; FORMAT={-:-/ absolute / inch / decimal}
; #@! TF.CreationDate,2019-08-29T17:26:54+02:00
; #@! TF.GenerationSoftware,Kicad,Pcbnew,5.1.4-e60b266~84~ubuntu19.04.1
; #@! TF.FileFunction,Plated,1,2,PTH
FMAT,2
INCH
T1C0.0157
T2C0.0394
T3C0.0728
T4C0.1260
%
G90
G05
T1
X5.27Y-5.41
X5.43Y-3.43
X5.47Y-5.97
X5.74Y-2.91
T2
X5.1002Y-5.1666
X5.2002Y-5.1666
X5.3002Y-5.1666
X5.4002Y-5.1666
X5.5002Y-5.1666
X5.1002Y-3.7334
X5.2002Y-3.7334
X5.3002Y-3.7334
X5.4002Y-3.7334
X5.5002Y-3.7334
X5.1087Y-5.7154
X5.1087Y-5.8713
X5.1537Y-5.7933
X5.1988Y-5.7154
X5.1988Y-5.8713
X5.2439Y-5.7933
X5.289Y-5.7154
X5.289Y-5.8713
X5.3341Y-5.7933
X5.3791Y-5.7154
X5.3791Y-5.8713
X5.4242Y-5.7933
X5.4693Y-5.7154
X5.4693Y-5.8713
X5.5144Y-5.7933
X3.9096Y-5.1666
X4.0096Y-5.1666
X5.0856Y-3.0897
X5.1307Y-3.0118
X5.1307Y-3.1677
X5.1758Y-3.0897
X5.2209Y-3.0118
X5.2209Y-3.1677
X5.2659Y-3.0897
X5.311Y-3.0118
X5.311Y-3.1677
X5.3561Y-3.0897
X5.4012Y-3.0118
X5.4012Y-3.1677
X5.4463Y-3.0897
X5.4913Y-3.0118
X5.4913Y-3.1677
T3
X5.3Y-4.265
X5.3Y-4.45
X5.3Y-4.635
X4.5Y-4.265
X4.5Y-4.45
X4.5Y-4.635
X4.9Y-4.265
X4.9Y-4.45
X4.9Y-4.635
X3.9598Y-4.265
X3.9598Y-4.45
X3.9598Y-4.635
X5.7Y-4.265
X5.7Y-4.45
X5.7Y-4.635
X6.1Y-4.265
X6.1Y-4.45
X6.1Y-4.635
T4
X4.8073Y-5.7713
X5.7915Y-5.7713
X4.8085Y-3.1118
X5.7927Y-3.1118
T0
M30
