G04 #@! TF.GenerationSoftware,KiCad,Pcbnew,5.1.4-e60b266~84~ubuntu19.04.1*
G04 #@! TF.CreationDate,2019-09-02T11:35:18+02:00*
G04 #@! TF.ProjectId,VGABreakout,56474142-7265-4616-9b6f-75742e6b6963,1.0.1*
G04 #@! TF.SameCoordinates,Original*
G04 #@! TF.FileFunction,Copper,L1,Top*
G04 #@! TF.FilePolarity,Positive*
%FSLAX46Y46*%
G04 Gerber Fmt 4.6, Leading zero omitted, Abs format (unit mm)*
G04 Created by KiCad (PCBNEW 5.1.4-e60b266~84~ubuntu19.04.1) date 2019-09-02 11:35:18*
%MOMM*%
%LPD*%
G04 APERTURE LIST*
%ADD10O,2.775000X5.550000*%
%ADD11C,4.000000*%
%ADD12C,1.600000*%
%ADD13R,1.600000X1.600000*%
%ADD14O,1.700000X1.700000*%
%ADD15R,1.700000X1.700000*%
%ADD16C,0.800000*%
%ADD17C,0.250000*%
%ADD18C,0.254000*%
G04 APERTURE END LIST*
D10*
X151651700Y-119776240D03*
X146951700Y-119776240D03*
X142251700Y-119776240D03*
X142251700Y-109616240D03*
X146951700Y-109616240D03*
X151651700Y-109616240D03*
X142251700Y-99456240D03*
X146951700Y-99456240D03*
X151651700Y-99456240D03*
X142251700Y-89296240D03*
X146951700Y-89296240D03*
X151651700Y-89296240D03*
X151651700Y-79136240D03*
X146951700Y-79136240D03*
X142251700Y-79136240D03*
X142251700Y-65416240D03*
X146951700Y-65416240D03*
X151651700Y-65416240D03*
D11*
X113391162Y-111941240D03*
X113391162Y-86941240D03*
D12*
X110851162Y-94596240D03*
X110851162Y-96886240D03*
X110851162Y-99176240D03*
X110851162Y-101466240D03*
X110851162Y-103756240D03*
X112831162Y-95741240D03*
X112831162Y-98031240D03*
X112831162Y-100321240D03*
X112831162Y-102611240D03*
X112831162Y-104901240D03*
X114811162Y-94596240D03*
X114811162Y-96886240D03*
X114811162Y-99176240D03*
X114811162Y-101466240D03*
D13*
X114811162Y-103756240D03*
D14*
X128750500Y-66681240D03*
D15*
X128750500Y-64141240D03*
X128750500Y-94381240D03*
D14*
X128750500Y-96921240D03*
X128750500Y-99461240D03*
X128750500Y-102001240D03*
X128750500Y-104541240D03*
D15*
X165152900Y-94381240D03*
D14*
X165152900Y-96921240D03*
X165152900Y-99461240D03*
X165152900Y-102001240D03*
X165152900Y-104541240D03*
D11*
X180942238Y-86971240D03*
X180942238Y-111971240D03*
D12*
X183482238Y-104316240D03*
X183482238Y-102026240D03*
X183482238Y-99736240D03*
X183482238Y-97446240D03*
X183482238Y-95156240D03*
X181502238Y-103171240D03*
X181502238Y-100881240D03*
X181502238Y-98591240D03*
X181502238Y-96301240D03*
X181502238Y-94011240D03*
X179522238Y-104316240D03*
X179522238Y-102026240D03*
X179522238Y-99736240D03*
X179522238Y-97446240D03*
D13*
X179522238Y-95156240D03*
D16*
X186067700Y-110632240D03*
X122567700Y-98694240D03*
X108343700Y-103774240D03*
X172859700Y-102758240D03*
D17*
X110851162Y-94596240D02*
X116819431Y-88627971D01*
X116819431Y-88627971D02*
X130629162Y-74818240D01*
X130629162Y-74818240D02*
X146443054Y-74818240D01*
X146443054Y-74818240D02*
X147459700Y-74818240D01*
X147459700Y-74818240D02*
X149237700Y-76596240D01*
X149237700Y-76596240D02*
X149237700Y-121299594D01*
X149237700Y-121299594D02*
X149237700Y-123078240D01*
X149237700Y-123078240D02*
X151015700Y-124856240D01*
X178193700Y-124856240D02*
X186067700Y-116982240D01*
X151015700Y-124856240D02*
X178193700Y-124856240D01*
X186067700Y-116982240D02*
X186067700Y-110632240D01*
X146951700Y-108228740D02*
X143259200Y-104536240D01*
X146951700Y-109616240D02*
X146951700Y-108228740D01*
X131285500Y-104536240D02*
X128750500Y-102001240D01*
X143259200Y-104536240D02*
X131285500Y-104536240D01*
X125443500Y-98694240D02*
X128750500Y-102001240D01*
X122567700Y-98694240D02*
X125443500Y-98694240D01*
X130949700Y-114950240D02*
X128750500Y-112751040D01*
X128750500Y-112751040D02*
X128750500Y-104541240D01*
X146951700Y-118388740D02*
X143259200Y-114950240D01*
X143259200Y-114950240D02*
X130949700Y-114950240D01*
X146951700Y-119776240D02*
X146951700Y-118388740D01*
X128750500Y-104541240D02*
X123324700Y-104541240D01*
X123324700Y-104541240D02*
X119519700Y-108346240D01*
X119519700Y-108346240D02*
X111899700Y-108346240D01*
X111899700Y-108346240D02*
X109359700Y-105806240D01*
X109359700Y-100667702D02*
X110851162Y-99176240D01*
X109359700Y-105806240D02*
X109359700Y-100667702D01*
X185559700Y-93078778D02*
X183482238Y-95156240D01*
X185559700Y-77612240D02*
X185559700Y-93078778D01*
X106057700Y-101488240D02*
X106057700Y-90833700D01*
X106057700Y-90833700D02*
X123089160Y-73802240D01*
X108343700Y-103774240D02*
X106057700Y-101488240D01*
X123089160Y-73802240D02*
X181749700Y-73802240D01*
X181749700Y-73802240D02*
X185559700Y-77612240D01*
X128750500Y-64141240D02*
X135530700Y-64141240D01*
X135530700Y-64141240D02*
X139331700Y-60340240D01*
X146951700Y-64028740D02*
X146951700Y-65416240D01*
X143263200Y-60340240D02*
X146951700Y-64028740D01*
X139331700Y-60340240D02*
X143263200Y-60340240D01*
X146951700Y-98068740D02*
X144783200Y-95900240D01*
X146951700Y-99456240D02*
X146951700Y-98068740D01*
X132311500Y-95900240D02*
X128750500Y-99461240D01*
X144783200Y-95900240D02*
X132311500Y-95900240D01*
X127058962Y-97769702D02*
X127900501Y-98611241D01*
X116217700Y-97769702D02*
X127058962Y-97769702D01*
X127900501Y-98611241D02*
X128750500Y-99461240D01*
X114811162Y-99176240D02*
X116217700Y-97769702D01*
X146951700Y-90683740D02*
X143005200Y-94630240D01*
X146951700Y-89296240D02*
X146951700Y-90683740D01*
X131041500Y-94630240D02*
X128750500Y-96921240D01*
X143005200Y-94630240D02*
X131041500Y-94630240D01*
X146951700Y-80523740D02*
X143259200Y-84216240D01*
X146951700Y-79136240D02*
X146951700Y-80523740D01*
X143259200Y-84216240D02*
X130949700Y-84216240D01*
X128750500Y-86415440D02*
X128750500Y-94381240D01*
X130949700Y-84216240D02*
X128750500Y-86415440D01*
X165152900Y-117323040D02*
X165152900Y-104541240D01*
X185077700Y-99736240D02*
X183482238Y-99736240D01*
X165152900Y-104541240D02*
X168957900Y-108346240D01*
X184035700Y-108346240D02*
X186575700Y-105806240D01*
X186575700Y-105806240D02*
X186575700Y-101234240D01*
X168957900Y-108346240D02*
X184035700Y-108346240D01*
X186575700Y-101234240D02*
X185077700Y-99736240D01*
X153289200Y-119776240D02*
X162699700Y-119776240D01*
X165152900Y-117323040D02*
X162699700Y-119776240D01*
X153289200Y-119776240D02*
X151651700Y-119776240D01*
X165152900Y-102001240D02*
X161688700Y-102001240D01*
X154073700Y-109616240D02*
X151651700Y-109616240D01*
X161688700Y-102001240D02*
X154073700Y-109616240D01*
X169973900Y-106822240D02*
X165152900Y-102001240D01*
X184613608Y-102026240D02*
X185559700Y-102972332D01*
X183482238Y-102026240D02*
X184613608Y-102026240D01*
X185559700Y-102972332D02*
X185559700Y-105298240D01*
X185559700Y-105298240D02*
X184035700Y-106822240D01*
X184035700Y-106822240D02*
X169973900Y-106822240D01*
X165147900Y-99456240D02*
X165152900Y-99461240D01*
X151651700Y-99456240D02*
X165147900Y-99456240D01*
X165427900Y-99736240D02*
X165152900Y-99461240D01*
X179522238Y-99736240D02*
X165427900Y-99736240D01*
X165152900Y-96921240D02*
X161688700Y-96921240D01*
X154063700Y-89296240D02*
X151651700Y-89296240D01*
X161688700Y-96921240D02*
X154063700Y-89296240D01*
X179522238Y-97446240D02*
X176437700Y-97446240D01*
X175912700Y-96921240D02*
X165152900Y-96921240D01*
X176437700Y-97446240D02*
X175912700Y-96921240D01*
X151651700Y-79136240D02*
X162699700Y-79136240D01*
X165152900Y-81589440D02*
X165152900Y-94381240D01*
X162699700Y-79136240D02*
X165152900Y-81589440D01*
X178747238Y-94381240D02*
X179522238Y-95156240D01*
X165152900Y-94381240D02*
X178747238Y-94381240D01*
X181502238Y-98591240D02*
X181502238Y-96301240D01*
X181502238Y-96301240D02*
X181502238Y-94011240D01*
X180667238Y-103171240D02*
X179522238Y-104316240D01*
X181502238Y-103171240D02*
X180667238Y-103171240D01*
X112831162Y-100321240D02*
X112831162Y-104901240D01*
X113666162Y-95741240D02*
X114811162Y-94596240D01*
X112831162Y-95741240D02*
X113666162Y-95741240D01*
D18*
G36*
X138791699Y-59800239D02*
G01*
X138767901Y-59829237D01*
X135215899Y-63381240D01*
X130238572Y-63381240D01*
X130238572Y-63291240D01*
X130226312Y-63166758D01*
X130190002Y-63047060D01*
X130131037Y-62936746D01*
X130051685Y-62840055D01*
X129954994Y-62760703D01*
X129844680Y-62701738D01*
X129724982Y-62665428D01*
X129600500Y-62653168D01*
X127900500Y-62653168D01*
X127776018Y-62665428D01*
X127656320Y-62701738D01*
X127546006Y-62760703D01*
X127449315Y-62840055D01*
X127369963Y-62936746D01*
X127310998Y-63047060D01*
X127274688Y-63166758D01*
X127262428Y-63291240D01*
X127262428Y-64991240D01*
X127274688Y-65115722D01*
X127310998Y-65235420D01*
X127369963Y-65345734D01*
X127449315Y-65442425D01*
X127546006Y-65521777D01*
X127656320Y-65580742D01*
X127736966Y-65605206D01*
X127652912Y-65680971D01*
X127478859Y-65914320D01*
X127353675Y-66177141D01*
X127309024Y-66324350D01*
X127430345Y-66554240D01*
X128623500Y-66554240D01*
X128623500Y-66534240D01*
X128877500Y-66534240D01*
X128877500Y-66554240D01*
X130070655Y-66554240D01*
X130191976Y-66324350D01*
X130147325Y-66177141D01*
X130022141Y-65914320D01*
X129848088Y-65680971D01*
X129764034Y-65605206D01*
X129844680Y-65580742D01*
X129954994Y-65521777D01*
X130051685Y-65442425D01*
X130131037Y-65345734D01*
X130190002Y-65235420D01*
X130226312Y-65115722D01*
X130238572Y-64991240D01*
X130238572Y-64901240D01*
X135493378Y-64901240D01*
X135530700Y-64904916D01*
X135568022Y-64901240D01*
X135568033Y-64901240D01*
X135679686Y-64890243D01*
X135822947Y-64846786D01*
X135954976Y-64776214D01*
X136070701Y-64681241D01*
X136094504Y-64652237D01*
X139646502Y-61100240D01*
X142948399Y-61100240D01*
X145082844Y-63234686D01*
X145074114Y-63251018D01*
X144958465Y-63632261D01*
X144929201Y-63929382D01*
X144929200Y-66903097D01*
X144958464Y-67200218D01*
X145074113Y-67581461D01*
X145261916Y-67932818D01*
X145514657Y-68240783D01*
X145822622Y-68493524D01*
X146173978Y-68681327D01*
X146555221Y-68796976D01*
X146951700Y-68836026D01*
X147348178Y-68796976D01*
X147729421Y-68681327D01*
X148080778Y-68493524D01*
X148388743Y-68240783D01*
X148641484Y-67932818D01*
X148829287Y-67581462D01*
X148944936Y-67200219D01*
X148974200Y-66903098D01*
X148974200Y-66903097D01*
X149629200Y-66903097D01*
X149658464Y-67200218D01*
X149774113Y-67581461D01*
X149961916Y-67932818D01*
X150214657Y-68240783D01*
X150522622Y-68493524D01*
X150873978Y-68681327D01*
X151255221Y-68796976D01*
X151651700Y-68836026D01*
X152048178Y-68796976D01*
X152429421Y-68681327D01*
X152780778Y-68493524D01*
X153088743Y-68240783D01*
X153341484Y-67932818D01*
X153529287Y-67581462D01*
X153644936Y-67200219D01*
X153674200Y-66903098D01*
X153674200Y-63929382D01*
X153644936Y-63632261D01*
X153570710Y-63387568D01*
X186114976Y-63387568D01*
X186114976Y-63812512D01*
X186197878Y-64229290D01*
X186360497Y-64621887D01*
X186596583Y-64975214D01*
X186897064Y-65275695D01*
X187250391Y-65511781D01*
X187642988Y-65674400D01*
X188059766Y-65757302D01*
X188484710Y-65757302D01*
X188901488Y-65674400D01*
X189294085Y-65511781D01*
X189647412Y-65275695D01*
X189947893Y-64975214D01*
X190183979Y-64621887D01*
X190346598Y-64229290D01*
X190429500Y-63812512D01*
X190429500Y-63387568D01*
X190346598Y-62970790D01*
X190183979Y-62578193D01*
X189947893Y-62224866D01*
X189647412Y-61924385D01*
X189294085Y-61688299D01*
X188901488Y-61525680D01*
X188484710Y-61442778D01*
X188059766Y-61442778D01*
X187642988Y-61525680D01*
X187250391Y-61688299D01*
X186897064Y-61924385D01*
X186596583Y-62224866D01*
X186360497Y-62578193D01*
X186197878Y-62970790D01*
X186114976Y-63387568D01*
X153570710Y-63387568D01*
X153529287Y-63251018D01*
X153341484Y-62899662D01*
X153088743Y-62591697D01*
X152780778Y-62338956D01*
X152429422Y-62151153D01*
X152048179Y-62035504D01*
X151651700Y-61996454D01*
X151255222Y-62035504D01*
X150873979Y-62151153D01*
X150522623Y-62338956D01*
X150214658Y-62591697D01*
X149961917Y-62899662D01*
X149774114Y-63251018D01*
X149658465Y-63632261D01*
X149629201Y-63929382D01*
X149629200Y-66903097D01*
X148974200Y-66903097D01*
X148974200Y-63929382D01*
X148944936Y-63632261D01*
X148829287Y-63251018D01*
X148641484Y-62899662D01*
X148388743Y-62591697D01*
X148080778Y-62338956D01*
X147729422Y-62151153D01*
X147348179Y-62035504D01*
X146951700Y-61996454D01*
X146555222Y-62035504D01*
X146173979Y-62151153D01*
X146157645Y-62159884D01*
X143827004Y-59829243D01*
X143803201Y-59800239D01*
X143739231Y-59747740D01*
X192124538Y-59747740D01*
X192124539Y-125444740D01*
X178674605Y-125444740D01*
X178733701Y-125396241D01*
X178757504Y-125367237D01*
X182744773Y-121379968D01*
X186114976Y-121379968D01*
X186114976Y-121804912D01*
X186197878Y-122221690D01*
X186360497Y-122614287D01*
X186596583Y-122967614D01*
X186897064Y-123268095D01*
X187250391Y-123504181D01*
X187642988Y-123666800D01*
X188059766Y-123749702D01*
X188484710Y-123749702D01*
X188901488Y-123666800D01*
X189294085Y-123504181D01*
X189647412Y-123268095D01*
X189947893Y-122967614D01*
X190183979Y-122614287D01*
X190346598Y-122221690D01*
X190429500Y-121804912D01*
X190429500Y-121379968D01*
X190346598Y-120963190D01*
X190183979Y-120570593D01*
X189947893Y-120217266D01*
X189647412Y-119916785D01*
X189294085Y-119680699D01*
X188901488Y-119518080D01*
X188484710Y-119435178D01*
X188059766Y-119435178D01*
X187642988Y-119518080D01*
X187250391Y-119680699D01*
X186897064Y-119916785D01*
X186596583Y-120217266D01*
X186360497Y-120570593D01*
X186197878Y-120963190D01*
X186114976Y-121379968D01*
X182744773Y-121379968D01*
X186578704Y-117546038D01*
X186607701Y-117522241D01*
X186702674Y-117406516D01*
X186773246Y-117274487D01*
X186816703Y-117131226D01*
X186827700Y-117019573D01*
X186827700Y-117019572D01*
X186831377Y-116982240D01*
X186827700Y-116944907D01*
X186827700Y-111335951D01*
X186871637Y-111292014D01*
X186984905Y-111122496D01*
X187062926Y-110934138D01*
X187102700Y-110734179D01*
X187102700Y-110530301D01*
X187062926Y-110330342D01*
X186984905Y-110141984D01*
X186871637Y-109972466D01*
X186727474Y-109828303D01*
X186557956Y-109715035D01*
X186369598Y-109637014D01*
X186169639Y-109597240D01*
X185965761Y-109597240D01*
X185765802Y-109637014D01*
X185577444Y-109715035D01*
X185407926Y-109828303D01*
X185263763Y-109972466D01*
X185150495Y-110141984D01*
X185072474Y-110330342D01*
X185032700Y-110530301D01*
X185032700Y-110734179D01*
X185072474Y-110934138D01*
X185150495Y-111122496D01*
X185263763Y-111292014D01*
X185307701Y-111335952D01*
X185307700Y-116667438D01*
X177878899Y-124096240D01*
X151330502Y-124096240D01*
X149997700Y-122763439D01*
X149997700Y-122336421D01*
X150214657Y-122600783D01*
X150522622Y-122853524D01*
X150873978Y-123041327D01*
X151255221Y-123156976D01*
X151651700Y-123196026D01*
X152048178Y-123156976D01*
X152429421Y-123041327D01*
X152780778Y-122853524D01*
X153088743Y-122600783D01*
X153341484Y-122292818D01*
X153529287Y-121941462D01*
X153644936Y-121560219D01*
X153674200Y-121263098D01*
X153674200Y-120536240D01*
X162662378Y-120536240D01*
X162699700Y-120539916D01*
X162737022Y-120536240D01*
X162737033Y-120536240D01*
X162848686Y-120525243D01*
X162991947Y-120481786D01*
X163123976Y-120411214D01*
X163239701Y-120316241D01*
X163263504Y-120287237D01*
X165663904Y-117886838D01*
X165692901Y-117863041D01*
X165787874Y-117747316D01*
X165858446Y-117615287D01*
X165901903Y-117472026D01*
X165912900Y-117360373D01*
X165912900Y-117360365D01*
X165916576Y-117323040D01*
X165912900Y-117285715D01*
X165912900Y-111711715D01*
X178307238Y-111711715D01*
X178307238Y-112230765D01*
X178408499Y-112739841D01*
X178607131Y-113219381D01*
X178895500Y-113650955D01*
X179262523Y-114017978D01*
X179694097Y-114306347D01*
X180173637Y-114504979D01*
X180682713Y-114606240D01*
X181201763Y-114606240D01*
X181710839Y-114504979D01*
X182190379Y-114306347D01*
X182621953Y-114017978D01*
X182988976Y-113650955D01*
X183277345Y-113219381D01*
X183475977Y-112739841D01*
X183577238Y-112230765D01*
X183577238Y-111711715D01*
X183475977Y-111202639D01*
X183277345Y-110723099D01*
X182988976Y-110291525D01*
X182621953Y-109924502D01*
X182190379Y-109636133D01*
X181710839Y-109437501D01*
X181201763Y-109336240D01*
X180682713Y-109336240D01*
X180173637Y-109437501D01*
X179694097Y-109636133D01*
X179262523Y-109924502D01*
X178895500Y-110291525D01*
X178607131Y-110723099D01*
X178408499Y-111202639D01*
X178307238Y-111711715D01*
X165912900Y-111711715D01*
X165912900Y-106376041D01*
X168394101Y-108857243D01*
X168417899Y-108886241D01*
X168446897Y-108910039D01*
X168533624Y-108981214D01*
X168665653Y-109051786D01*
X168808914Y-109095243D01*
X168957900Y-109109917D01*
X168995233Y-109106240D01*
X183998378Y-109106240D01*
X184035700Y-109109916D01*
X184073022Y-109106240D01*
X184073033Y-109106240D01*
X184184686Y-109095243D01*
X184327947Y-109051786D01*
X184459976Y-108981214D01*
X184575701Y-108886241D01*
X184599504Y-108857237D01*
X187086709Y-106370034D01*
X187115701Y-106346241D01*
X187139495Y-106317248D01*
X187139499Y-106317244D01*
X187210673Y-106230517D01*
X187210674Y-106230516D01*
X187281246Y-106098487D01*
X187324703Y-105955226D01*
X187335700Y-105843573D01*
X187335700Y-105843564D01*
X187339376Y-105806241D01*
X187335700Y-105768918D01*
X187335700Y-101271563D01*
X187339376Y-101234240D01*
X187335700Y-101196917D01*
X187335700Y-101196907D01*
X187324703Y-101085254D01*
X187281246Y-100941993D01*
X187214268Y-100816687D01*
X187210674Y-100809963D01*
X187139499Y-100723237D01*
X187115701Y-100694239D01*
X187086703Y-100670441D01*
X185641504Y-99225243D01*
X185617701Y-99196239D01*
X185501976Y-99101266D01*
X185369947Y-99030694D01*
X185226686Y-98987237D01*
X185115033Y-98976240D01*
X185115022Y-98976240D01*
X185077700Y-98972564D01*
X185040378Y-98976240D01*
X184700281Y-98976240D01*
X184596875Y-98821481D01*
X184396997Y-98621603D01*
X184351555Y-98591240D01*
X184396997Y-98560877D01*
X184596875Y-98360999D01*
X184753918Y-98125967D01*
X184862091Y-97864814D01*
X184917238Y-97587575D01*
X184917238Y-97304905D01*
X184862091Y-97027666D01*
X184753918Y-96766513D01*
X184596875Y-96531481D01*
X184396997Y-96331603D01*
X184351555Y-96301240D01*
X184396997Y-96270877D01*
X184596875Y-96070999D01*
X184753918Y-95835967D01*
X184862091Y-95574814D01*
X184917238Y-95297575D01*
X184917238Y-95014905D01*
X184880926Y-94832354D01*
X186070703Y-93642577D01*
X186099701Y-93618779D01*
X186126032Y-93586695D01*
X186194674Y-93503055D01*
X186265246Y-93371025D01*
X186268721Y-93359569D01*
X186308703Y-93227764D01*
X186319700Y-93116111D01*
X186319700Y-93116101D01*
X186323376Y-93078778D01*
X186319700Y-93041455D01*
X186319700Y-77649565D01*
X186323376Y-77612240D01*
X186319700Y-77574915D01*
X186319700Y-77574907D01*
X186308703Y-77463254D01*
X186265246Y-77319993D01*
X186194674Y-77187964D01*
X186099701Y-77072239D01*
X186070704Y-77048442D01*
X182313504Y-73291243D01*
X182289701Y-73262239D01*
X182173976Y-73167266D01*
X182041947Y-73096694D01*
X181898686Y-73053237D01*
X181787033Y-73042240D01*
X181787022Y-73042240D01*
X181749700Y-73038564D01*
X181712378Y-73042240D01*
X123126485Y-73042240D01*
X123089160Y-73038564D01*
X123051835Y-73042240D01*
X123051827Y-73042240D01*
X122940174Y-73053237D01*
X122796913Y-73096694D01*
X122664884Y-73167266D01*
X122549159Y-73262239D01*
X122525361Y-73291237D01*
X105546698Y-90269901D01*
X105517700Y-90293699D01*
X105493902Y-90322697D01*
X105493901Y-90322698D01*
X105422726Y-90409424D01*
X105352154Y-90541454D01*
X105321880Y-90641258D01*
X105308994Y-90683740D01*
X105308698Y-90684715D01*
X105294024Y-90833700D01*
X105297701Y-90871032D01*
X105297700Y-101450918D01*
X105294024Y-101488240D01*
X105297700Y-101525562D01*
X105297700Y-101525572D01*
X105308697Y-101637225D01*
X105342160Y-101747540D01*
X105352154Y-101780486D01*
X105422726Y-101912516D01*
X105462571Y-101961066D01*
X105517699Y-102028241D01*
X105546703Y-102052044D01*
X107308700Y-103814042D01*
X107308700Y-103876179D01*
X107348474Y-104076138D01*
X107426495Y-104264496D01*
X107539763Y-104434014D01*
X107683926Y-104578177D01*
X107853444Y-104691445D01*
X108041802Y-104769466D01*
X108241761Y-104809240D01*
X108445639Y-104809240D01*
X108599700Y-104778596D01*
X108599700Y-105768917D01*
X108596024Y-105806240D01*
X108599700Y-105843562D01*
X108599700Y-105843572D01*
X108610697Y-105955225D01*
X108632239Y-106026240D01*
X108654154Y-106098486D01*
X108724726Y-106230516D01*
X108764571Y-106279066D01*
X108819699Y-106346241D01*
X108848703Y-106370044D01*
X111335905Y-108857248D01*
X111359699Y-108886241D01*
X111388692Y-108910035D01*
X111388696Y-108910039D01*
X111459385Y-108968051D01*
X111475424Y-108981214D01*
X111607453Y-109051786D01*
X111750714Y-109095243D01*
X111862367Y-109106240D01*
X111862376Y-109106240D01*
X111899699Y-109109916D01*
X111937022Y-109106240D01*
X119482378Y-109106240D01*
X119519700Y-109109916D01*
X119557022Y-109106240D01*
X119557033Y-109106240D01*
X119668686Y-109095243D01*
X119811947Y-109051786D01*
X119943976Y-108981214D01*
X120059701Y-108886241D01*
X120083504Y-108857237D01*
X123639502Y-105301240D01*
X127472905Y-105301240D01*
X127509794Y-105370254D01*
X127695366Y-105596374D01*
X127921486Y-105781946D01*
X127990501Y-105818835D01*
X127990500Y-112713718D01*
X127986824Y-112751040D01*
X127990500Y-112788362D01*
X127990500Y-112788372D01*
X128001497Y-112900025D01*
X128042752Y-113036026D01*
X128044954Y-113043286D01*
X128115526Y-113175316D01*
X128151690Y-113219381D01*
X128210499Y-113291041D01*
X128239502Y-113314844D01*
X130385905Y-115461248D01*
X130409699Y-115490241D01*
X130438692Y-115514035D01*
X130438696Y-115514039D01*
X130509385Y-115572051D01*
X130525424Y-115585214D01*
X130657453Y-115655786D01*
X130800714Y-115699243D01*
X130912367Y-115710240D01*
X130912376Y-115710240D01*
X130949699Y-115713916D01*
X130987022Y-115710240D01*
X142960135Y-115710240D01*
X145058081Y-117663873D01*
X144958465Y-117992261D01*
X144929201Y-118289382D01*
X144929200Y-121263097D01*
X144958464Y-121560218D01*
X145074113Y-121941461D01*
X145261916Y-122292818D01*
X145514657Y-122600783D01*
X145822622Y-122853524D01*
X146173978Y-123041327D01*
X146555221Y-123156976D01*
X146951700Y-123196026D01*
X147348178Y-123156976D01*
X147729421Y-123041327D01*
X148080778Y-122853524D01*
X148388743Y-122600783D01*
X148477701Y-122492388D01*
X148477701Y-123040908D01*
X148474024Y-123078240D01*
X148488698Y-123227225D01*
X148532154Y-123370486D01*
X148602726Y-123502516D01*
X148673901Y-123589242D01*
X148697700Y-123618241D01*
X148726698Y-123642039D01*
X150451901Y-125367243D01*
X150475699Y-125396241D01*
X150534795Y-125444740D01*
X102148862Y-125444740D01*
X102148862Y-121379968D01*
X103843900Y-121379968D01*
X103843900Y-121804912D01*
X103926802Y-122221690D01*
X104089421Y-122614287D01*
X104325507Y-122967614D01*
X104625988Y-123268095D01*
X104979315Y-123504181D01*
X105371912Y-123666800D01*
X105788690Y-123749702D01*
X106213634Y-123749702D01*
X106630412Y-123666800D01*
X107023009Y-123504181D01*
X107376336Y-123268095D01*
X107676817Y-122967614D01*
X107912903Y-122614287D01*
X108075522Y-122221690D01*
X108158424Y-121804912D01*
X108158424Y-121379968D01*
X108135177Y-121263097D01*
X140229200Y-121263097D01*
X140258464Y-121560218D01*
X140374113Y-121941461D01*
X140561916Y-122292818D01*
X140814657Y-122600783D01*
X141122622Y-122853524D01*
X141473978Y-123041327D01*
X141855221Y-123156976D01*
X142251700Y-123196026D01*
X142648178Y-123156976D01*
X143029421Y-123041327D01*
X143380778Y-122853524D01*
X143688743Y-122600783D01*
X143941484Y-122292818D01*
X144129287Y-121941462D01*
X144244936Y-121560219D01*
X144274200Y-121263098D01*
X144274200Y-118289382D01*
X144244936Y-117992261D01*
X144129287Y-117611018D01*
X143941484Y-117259662D01*
X143688743Y-116951697D01*
X143380778Y-116698956D01*
X143029422Y-116511153D01*
X142648179Y-116395504D01*
X142251700Y-116356454D01*
X141855222Y-116395504D01*
X141473979Y-116511153D01*
X141122623Y-116698956D01*
X140814658Y-116951697D01*
X140561917Y-117259662D01*
X140374114Y-117611018D01*
X140258465Y-117992261D01*
X140229201Y-118289382D01*
X140229200Y-121263097D01*
X108135177Y-121263097D01*
X108075522Y-120963190D01*
X107912903Y-120570593D01*
X107676817Y-120217266D01*
X107376336Y-119916785D01*
X107023009Y-119680699D01*
X106630412Y-119518080D01*
X106213634Y-119435178D01*
X105788690Y-119435178D01*
X105371912Y-119518080D01*
X104979315Y-119680699D01*
X104625988Y-119916785D01*
X104325507Y-120217266D01*
X104089421Y-120570593D01*
X103926802Y-120963190D01*
X103843900Y-121379968D01*
X102148862Y-121379968D01*
X102148862Y-111681715D01*
X110756162Y-111681715D01*
X110756162Y-112200765D01*
X110857423Y-112709841D01*
X111056055Y-113189381D01*
X111344424Y-113620955D01*
X111711447Y-113987978D01*
X112143021Y-114276347D01*
X112622561Y-114474979D01*
X113131637Y-114576240D01*
X113650687Y-114576240D01*
X114159763Y-114474979D01*
X114639303Y-114276347D01*
X115070877Y-113987978D01*
X115437900Y-113620955D01*
X115726269Y-113189381D01*
X115924901Y-112709841D01*
X116026162Y-112200765D01*
X116026162Y-111681715D01*
X115924901Y-111172639D01*
X115726269Y-110693099D01*
X115437900Y-110261525D01*
X115070877Y-109894502D01*
X114639303Y-109606133D01*
X114159763Y-109407501D01*
X113650687Y-109306240D01*
X113131637Y-109306240D01*
X112622561Y-109407501D01*
X112143021Y-109606133D01*
X111711447Y-109894502D01*
X111344424Y-110261525D01*
X111056055Y-110693099D01*
X110857423Y-111172639D01*
X110756162Y-111681715D01*
X102148862Y-111681715D01*
X102148862Y-67038130D01*
X127309024Y-67038130D01*
X127353675Y-67185339D01*
X127478859Y-67448160D01*
X127652912Y-67681509D01*
X127869145Y-67876418D01*
X128119248Y-68025397D01*
X128393609Y-68122721D01*
X128623500Y-68002054D01*
X128623500Y-66808240D01*
X128877500Y-66808240D01*
X128877500Y-68002054D01*
X129107391Y-68122721D01*
X129381752Y-68025397D01*
X129631855Y-67876418D01*
X129848088Y-67681509D01*
X130022141Y-67448160D01*
X130147325Y-67185339D01*
X130191976Y-67038130D01*
X130120715Y-66903097D01*
X140229200Y-66903097D01*
X140258464Y-67200218D01*
X140374113Y-67581461D01*
X140561916Y-67932818D01*
X140814657Y-68240783D01*
X141122622Y-68493524D01*
X141473978Y-68681327D01*
X141855221Y-68796976D01*
X142251700Y-68836026D01*
X142648178Y-68796976D01*
X143029421Y-68681327D01*
X143380778Y-68493524D01*
X143688743Y-68240783D01*
X143941484Y-67932818D01*
X144129287Y-67581462D01*
X144244936Y-67200219D01*
X144274200Y-66903098D01*
X144274200Y-63929382D01*
X144244936Y-63632261D01*
X144129287Y-63251018D01*
X143941484Y-62899662D01*
X143688743Y-62591697D01*
X143380778Y-62338956D01*
X143029422Y-62151153D01*
X142648179Y-62035504D01*
X142251700Y-61996454D01*
X141855222Y-62035504D01*
X141473979Y-62151153D01*
X141122623Y-62338956D01*
X140814658Y-62591697D01*
X140561917Y-62899662D01*
X140374114Y-63251018D01*
X140258465Y-63632261D01*
X140229201Y-63929382D01*
X140229200Y-66903097D01*
X130120715Y-66903097D01*
X130070655Y-66808240D01*
X128877500Y-66808240D01*
X128623500Y-66808240D01*
X127430345Y-66808240D01*
X127309024Y-67038130D01*
X102148862Y-67038130D01*
X102148862Y-63387568D01*
X103843900Y-63387568D01*
X103843900Y-63812512D01*
X103926802Y-64229290D01*
X104089421Y-64621887D01*
X104325507Y-64975214D01*
X104625988Y-65275695D01*
X104979315Y-65511781D01*
X105371912Y-65674400D01*
X105788690Y-65757302D01*
X106213634Y-65757302D01*
X106630412Y-65674400D01*
X107023009Y-65511781D01*
X107376336Y-65275695D01*
X107676817Y-64975214D01*
X107912903Y-64621887D01*
X108075522Y-64229290D01*
X108158424Y-63812512D01*
X108158424Y-63387568D01*
X108075522Y-62970790D01*
X107912903Y-62578193D01*
X107676817Y-62224866D01*
X107376336Y-61924385D01*
X107023009Y-61688299D01*
X106630412Y-61525680D01*
X106213634Y-61442778D01*
X105788690Y-61442778D01*
X105371912Y-61525680D01*
X104979315Y-61688299D01*
X104625988Y-61924385D01*
X104325507Y-62224866D01*
X104089421Y-62578193D01*
X103926802Y-62970790D01*
X103843900Y-63387568D01*
X102148862Y-63387568D01*
X102148862Y-59747740D01*
X138855669Y-59747740D01*
X138791699Y-59800239D01*
X138791699Y-59800239D01*
G37*
X138791699Y-59800239D02*
X138767901Y-59829237D01*
X135215899Y-63381240D01*
X130238572Y-63381240D01*
X130238572Y-63291240D01*
X130226312Y-63166758D01*
X130190002Y-63047060D01*
X130131037Y-62936746D01*
X130051685Y-62840055D01*
X129954994Y-62760703D01*
X129844680Y-62701738D01*
X129724982Y-62665428D01*
X129600500Y-62653168D01*
X127900500Y-62653168D01*
X127776018Y-62665428D01*
X127656320Y-62701738D01*
X127546006Y-62760703D01*
X127449315Y-62840055D01*
X127369963Y-62936746D01*
X127310998Y-63047060D01*
X127274688Y-63166758D01*
X127262428Y-63291240D01*
X127262428Y-64991240D01*
X127274688Y-65115722D01*
X127310998Y-65235420D01*
X127369963Y-65345734D01*
X127449315Y-65442425D01*
X127546006Y-65521777D01*
X127656320Y-65580742D01*
X127736966Y-65605206D01*
X127652912Y-65680971D01*
X127478859Y-65914320D01*
X127353675Y-66177141D01*
X127309024Y-66324350D01*
X127430345Y-66554240D01*
X128623500Y-66554240D01*
X128623500Y-66534240D01*
X128877500Y-66534240D01*
X128877500Y-66554240D01*
X130070655Y-66554240D01*
X130191976Y-66324350D01*
X130147325Y-66177141D01*
X130022141Y-65914320D01*
X129848088Y-65680971D01*
X129764034Y-65605206D01*
X129844680Y-65580742D01*
X129954994Y-65521777D01*
X130051685Y-65442425D01*
X130131037Y-65345734D01*
X130190002Y-65235420D01*
X130226312Y-65115722D01*
X130238572Y-64991240D01*
X130238572Y-64901240D01*
X135493378Y-64901240D01*
X135530700Y-64904916D01*
X135568022Y-64901240D01*
X135568033Y-64901240D01*
X135679686Y-64890243D01*
X135822947Y-64846786D01*
X135954976Y-64776214D01*
X136070701Y-64681241D01*
X136094504Y-64652237D01*
X139646502Y-61100240D01*
X142948399Y-61100240D01*
X145082844Y-63234686D01*
X145074114Y-63251018D01*
X144958465Y-63632261D01*
X144929201Y-63929382D01*
X144929200Y-66903097D01*
X144958464Y-67200218D01*
X145074113Y-67581461D01*
X145261916Y-67932818D01*
X145514657Y-68240783D01*
X145822622Y-68493524D01*
X146173978Y-68681327D01*
X146555221Y-68796976D01*
X146951700Y-68836026D01*
X147348178Y-68796976D01*
X147729421Y-68681327D01*
X148080778Y-68493524D01*
X148388743Y-68240783D01*
X148641484Y-67932818D01*
X148829287Y-67581462D01*
X148944936Y-67200219D01*
X148974200Y-66903098D01*
X148974200Y-66903097D01*
X149629200Y-66903097D01*
X149658464Y-67200218D01*
X149774113Y-67581461D01*
X149961916Y-67932818D01*
X150214657Y-68240783D01*
X150522622Y-68493524D01*
X150873978Y-68681327D01*
X151255221Y-68796976D01*
X151651700Y-68836026D01*
X152048178Y-68796976D01*
X152429421Y-68681327D01*
X152780778Y-68493524D01*
X153088743Y-68240783D01*
X153341484Y-67932818D01*
X153529287Y-67581462D01*
X153644936Y-67200219D01*
X153674200Y-66903098D01*
X153674200Y-63929382D01*
X153644936Y-63632261D01*
X153570710Y-63387568D01*
X186114976Y-63387568D01*
X186114976Y-63812512D01*
X186197878Y-64229290D01*
X186360497Y-64621887D01*
X186596583Y-64975214D01*
X186897064Y-65275695D01*
X187250391Y-65511781D01*
X187642988Y-65674400D01*
X188059766Y-65757302D01*
X188484710Y-65757302D01*
X188901488Y-65674400D01*
X189294085Y-65511781D01*
X189647412Y-65275695D01*
X189947893Y-64975214D01*
X190183979Y-64621887D01*
X190346598Y-64229290D01*
X190429500Y-63812512D01*
X190429500Y-63387568D01*
X190346598Y-62970790D01*
X190183979Y-62578193D01*
X189947893Y-62224866D01*
X189647412Y-61924385D01*
X189294085Y-61688299D01*
X188901488Y-61525680D01*
X188484710Y-61442778D01*
X188059766Y-61442778D01*
X187642988Y-61525680D01*
X187250391Y-61688299D01*
X186897064Y-61924385D01*
X186596583Y-62224866D01*
X186360497Y-62578193D01*
X186197878Y-62970790D01*
X186114976Y-63387568D01*
X153570710Y-63387568D01*
X153529287Y-63251018D01*
X153341484Y-62899662D01*
X153088743Y-62591697D01*
X152780778Y-62338956D01*
X152429422Y-62151153D01*
X152048179Y-62035504D01*
X151651700Y-61996454D01*
X151255222Y-62035504D01*
X150873979Y-62151153D01*
X150522623Y-62338956D01*
X150214658Y-62591697D01*
X149961917Y-62899662D01*
X149774114Y-63251018D01*
X149658465Y-63632261D01*
X149629201Y-63929382D01*
X149629200Y-66903097D01*
X148974200Y-66903097D01*
X148974200Y-63929382D01*
X148944936Y-63632261D01*
X148829287Y-63251018D01*
X148641484Y-62899662D01*
X148388743Y-62591697D01*
X148080778Y-62338956D01*
X147729422Y-62151153D01*
X147348179Y-62035504D01*
X146951700Y-61996454D01*
X146555222Y-62035504D01*
X146173979Y-62151153D01*
X146157645Y-62159884D01*
X143827004Y-59829243D01*
X143803201Y-59800239D01*
X143739231Y-59747740D01*
X192124538Y-59747740D01*
X192124539Y-125444740D01*
X178674605Y-125444740D01*
X178733701Y-125396241D01*
X178757504Y-125367237D01*
X182744773Y-121379968D01*
X186114976Y-121379968D01*
X186114976Y-121804912D01*
X186197878Y-122221690D01*
X186360497Y-122614287D01*
X186596583Y-122967614D01*
X186897064Y-123268095D01*
X187250391Y-123504181D01*
X187642988Y-123666800D01*
X188059766Y-123749702D01*
X188484710Y-123749702D01*
X188901488Y-123666800D01*
X189294085Y-123504181D01*
X189647412Y-123268095D01*
X189947893Y-122967614D01*
X190183979Y-122614287D01*
X190346598Y-122221690D01*
X190429500Y-121804912D01*
X190429500Y-121379968D01*
X190346598Y-120963190D01*
X190183979Y-120570593D01*
X189947893Y-120217266D01*
X189647412Y-119916785D01*
X189294085Y-119680699D01*
X188901488Y-119518080D01*
X188484710Y-119435178D01*
X188059766Y-119435178D01*
X187642988Y-119518080D01*
X187250391Y-119680699D01*
X186897064Y-119916785D01*
X186596583Y-120217266D01*
X186360497Y-120570593D01*
X186197878Y-120963190D01*
X186114976Y-121379968D01*
X182744773Y-121379968D01*
X186578704Y-117546038D01*
X186607701Y-117522241D01*
X186702674Y-117406516D01*
X186773246Y-117274487D01*
X186816703Y-117131226D01*
X186827700Y-117019573D01*
X186827700Y-117019572D01*
X186831377Y-116982240D01*
X186827700Y-116944907D01*
X186827700Y-111335951D01*
X186871637Y-111292014D01*
X186984905Y-111122496D01*
X187062926Y-110934138D01*
X187102700Y-110734179D01*
X187102700Y-110530301D01*
X187062926Y-110330342D01*
X186984905Y-110141984D01*
X186871637Y-109972466D01*
X186727474Y-109828303D01*
X186557956Y-109715035D01*
X186369598Y-109637014D01*
X186169639Y-109597240D01*
X185965761Y-109597240D01*
X185765802Y-109637014D01*
X185577444Y-109715035D01*
X185407926Y-109828303D01*
X185263763Y-109972466D01*
X185150495Y-110141984D01*
X185072474Y-110330342D01*
X185032700Y-110530301D01*
X185032700Y-110734179D01*
X185072474Y-110934138D01*
X185150495Y-111122496D01*
X185263763Y-111292014D01*
X185307701Y-111335952D01*
X185307700Y-116667438D01*
X177878899Y-124096240D01*
X151330502Y-124096240D01*
X149997700Y-122763439D01*
X149997700Y-122336421D01*
X150214657Y-122600783D01*
X150522622Y-122853524D01*
X150873978Y-123041327D01*
X151255221Y-123156976D01*
X151651700Y-123196026D01*
X152048178Y-123156976D01*
X152429421Y-123041327D01*
X152780778Y-122853524D01*
X153088743Y-122600783D01*
X153341484Y-122292818D01*
X153529287Y-121941462D01*
X153644936Y-121560219D01*
X153674200Y-121263098D01*
X153674200Y-120536240D01*
X162662378Y-120536240D01*
X162699700Y-120539916D01*
X162737022Y-120536240D01*
X162737033Y-120536240D01*
X162848686Y-120525243D01*
X162991947Y-120481786D01*
X163123976Y-120411214D01*
X163239701Y-120316241D01*
X163263504Y-120287237D01*
X165663904Y-117886838D01*
X165692901Y-117863041D01*
X165787874Y-117747316D01*
X165858446Y-117615287D01*
X165901903Y-117472026D01*
X165912900Y-117360373D01*
X165912900Y-117360365D01*
X165916576Y-117323040D01*
X165912900Y-117285715D01*
X165912900Y-111711715D01*
X178307238Y-111711715D01*
X178307238Y-112230765D01*
X178408499Y-112739841D01*
X178607131Y-113219381D01*
X178895500Y-113650955D01*
X179262523Y-114017978D01*
X179694097Y-114306347D01*
X180173637Y-114504979D01*
X180682713Y-114606240D01*
X181201763Y-114606240D01*
X181710839Y-114504979D01*
X182190379Y-114306347D01*
X182621953Y-114017978D01*
X182988976Y-113650955D01*
X183277345Y-113219381D01*
X183475977Y-112739841D01*
X183577238Y-112230765D01*
X183577238Y-111711715D01*
X183475977Y-111202639D01*
X183277345Y-110723099D01*
X182988976Y-110291525D01*
X182621953Y-109924502D01*
X182190379Y-109636133D01*
X181710839Y-109437501D01*
X181201763Y-109336240D01*
X180682713Y-109336240D01*
X180173637Y-109437501D01*
X179694097Y-109636133D01*
X179262523Y-109924502D01*
X178895500Y-110291525D01*
X178607131Y-110723099D01*
X178408499Y-111202639D01*
X178307238Y-111711715D01*
X165912900Y-111711715D01*
X165912900Y-106376041D01*
X168394101Y-108857243D01*
X168417899Y-108886241D01*
X168446897Y-108910039D01*
X168533624Y-108981214D01*
X168665653Y-109051786D01*
X168808914Y-109095243D01*
X168957900Y-109109917D01*
X168995233Y-109106240D01*
X183998378Y-109106240D01*
X184035700Y-109109916D01*
X184073022Y-109106240D01*
X184073033Y-109106240D01*
X184184686Y-109095243D01*
X184327947Y-109051786D01*
X184459976Y-108981214D01*
X184575701Y-108886241D01*
X184599504Y-108857237D01*
X187086709Y-106370034D01*
X187115701Y-106346241D01*
X187139495Y-106317248D01*
X187139499Y-106317244D01*
X187210673Y-106230517D01*
X187210674Y-106230516D01*
X187281246Y-106098487D01*
X187324703Y-105955226D01*
X187335700Y-105843573D01*
X187335700Y-105843564D01*
X187339376Y-105806241D01*
X187335700Y-105768918D01*
X187335700Y-101271563D01*
X187339376Y-101234240D01*
X187335700Y-101196917D01*
X187335700Y-101196907D01*
X187324703Y-101085254D01*
X187281246Y-100941993D01*
X187214268Y-100816687D01*
X187210674Y-100809963D01*
X187139499Y-100723237D01*
X187115701Y-100694239D01*
X187086703Y-100670441D01*
X185641504Y-99225243D01*
X185617701Y-99196239D01*
X185501976Y-99101266D01*
X185369947Y-99030694D01*
X185226686Y-98987237D01*
X185115033Y-98976240D01*
X185115022Y-98976240D01*
X185077700Y-98972564D01*
X185040378Y-98976240D01*
X184700281Y-98976240D01*
X184596875Y-98821481D01*
X184396997Y-98621603D01*
X184351555Y-98591240D01*
X184396997Y-98560877D01*
X184596875Y-98360999D01*
X184753918Y-98125967D01*
X184862091Y-97864814D01*
X184917238Y-97587575D01*
X184917238Y-97304905D01*
X184862091Y-97027666D01*
X184753918Y-96766513D01*
X184596875Y-96531481D01*
X184396997Y-96331603D01*
X184351555Y-96301240D01*
X184396997Y-96270877D01*
X184596875Y-96070999D01*
X184753918Y-95835967D01*
X184862091Y-95574814D01*
X184917238Y-95297575D01*
X184917238Y-95014905D01*
X184880926Y-94832354D01*
X186070703Y-93642577D01*
X186099701Y-93618779D01*
X186126032Y-93586695D01*
X186194674Y-93503055D01*
X186265246Y-93371025D01*
X186268721Y-93359569D01*
X186308703Y-93227764D01*
X186319700Y-93116111D01*
X186319700Y-93116101D01*
X186323376Y-93078778D01*
X186319700Y-93041455D01*
X186319700Y-77649565D01*
X186323376Y-77612240D01*
X186319700Y-77574915D01*
X186319700Y-77574907D01*
X186308703Y-77463254D01*
X186265246Y-77319993D01*
X186194674Y-77187964D01*
X186099701Y-77072239D01*
X186070704Y-77048442D01*
X182313504Y-73291243D01*
X182289701Y-73262239D01*
X182173976Y-73167266D01*
X182041947Y-73096694D01*
X181898686Y-73053237D01*
X181787033Y-73042240D01*
X181787022Y-73042240D01*
X181749700Y-73038564D01*
X181712378Y-73042240D01*
X123126485Y-73042240D01*
X123089160Y-73038564D01*
X123051835Y-73042240D01*
X123051827Y-73042240D01*
X122940174Y-73053237D01*
X122796913Y-73096694D01*
X122664884Y-73167266D01*
X122549159Y-73262239D01*
X122525361Y-73291237D01*
X105546698Y-90269901D01*
X105517700Y-90293699D01*
X105493902Y-90322697D01*
X105493901Y-90322698D01*
X105422726Y-90409424D01*
X105352154Y-90541454D01*
X105321880Y-90641258D01*
X105308994Y-90683740D01*
X105308698Y-90684715D01*
X105294024Y-90833700D01*
X105297701Y-90871032D01*
X105297700Y-101450918D01*
X105294024Y-101488240D01*
X105297700Y-101525562D01*
X105297700Y-101525572D01*
X105308697Y-101637225D01*
X105342160Y-101747540D01*
X105352154Y-101780486D01*
X105422726Y-101912516D01*
X105462571Y-101961066D01*
X105517699Y-102028241D01*
X105546703Y-102052044D01*
X107308700Y-103814042D01*
X107308700Y-103876179D01*
X107348474Y-104076138D01*
X107426495Y-104264496D01*
X107539763Y-104434014D01*
X107683926Y-104578177D01*
X107853444Y-104691445D01*
X108041802Y-104769466D01*
X108241761Y-104809240D01*
X108445639Y-104809240D01*
X108599700Y-104778596D01*
X108599700Y-105768917D01*
X108596024Y-105806240D01*
X108599700Y-105843562D01*
X108599700Y-105843572D01*
X108610697Y-105955225D01*
X108632239Y-106026240D01*
X108654154Y-106098486D01*
X108724726Y-106230516D01*
X108764571Y-106279066D01*
X108819699Y-106346241D01*
X108848703Y-106370044D01*
X111335905Y-108857248D01*
X111359699Y-108886241D01*
X111388692Y-108910035D01*
X111388696Y-108910039D01*
X111459385Y-108968051D01*
X111475424Y-108981214D01*
X111607453Y-109051786D01*
X111750714Y-109095243D01*
X111862367Y-109106240D01*
X111862376Y-109106240D01*
X111899699Y-109109916D01*
X111937022Y-109106240D01*
X119482378Y-109106240D01*
X119519700Y-109109916D01*
X119557022Y-109106240D01*
X119557033Y-109106240D01*
X119668686Y-109095243D01*
X119811947Y-109051786D01*
X119943976Y-108981214D01*
X120059701Y-108886241D01*
X120083504Y-108857237D01*
X123639502Y-105301240D01*
X127472905Y-105301240D01*
X127509794Y-105370254D01*
X127695366Y-105596374D01*
X127921486Y-105781946D01*
X127990501Y-105818835D01*
X127990500Y-112713718D01*
X127986824Y-112751040D01*
X127990500Y-112788362D01*
X127990500Y-112788372D01*
X128001497Y-112900025D01*
X128042752Y-113036026D01*
X128044954Y-113043286D01*
X128115526Y-113175316D01*
X128151690Y-113219381D01*
X128210499Y-113291041D01*
X128239502Y-113314844D01*
X130385905Y-115461248D01*
X130409699Y-115490241D01*
X130438692Y-115514035D01*
X130438696Y-115514039D01*
X130509385Y-115572051D01*
X130525424Y-115585214D01*
X130657453Y-115655786D01*
X130800714Y-115699243D01*
X130912367Y-115710240D01*
X130912376Y-115710240D01*
X130949699Y-115713916D01*
X130987022Y-115710240D01*
X142960135Y-115710240D01*
X145058081Y-117663873D01*
X144958465Y-117992261D01*
X144929201Y-118289382D01*
X144929200Y-121263097D01*
X144958464Y-121560218D01*
X145074113Y-121941461D01*
X145261916Y-122292818D01*
X145514657Y-122600783D01*
X145822622Y-122853524D01*
X146173978Y-123041327D01*
X146555221Y-123156976D01*
X146951700Y-123196026D01*
X147348178Y-123156976D01*
X147729421Y-123041327D01*
X148080778Y-122853524D01*
X148388743Y-122600783D01*
X148477701Y-122492388D01*
X148477701Y-123040908D01*
X148474024Y-123078240D01*
X148488698Y-123227225D01*
X148532154Y-123370486D01*
X148602726Y-123502516D01*
X148673901Y-123589242D01*
X148697700Y-123618241D01*
X148726698Y-123642039D01*
X150451901Y-125367243D01*
X150475699Y-125396241D01*
X150534795Y-125444740D01*
X102148862Y-125444740D01*
X102148862Y-121379968D01*
X103843900Y-121379968D01*
X103843900Y-121804912D01*
X103926802Y-122221690D01*
X104089421Y-122614287D01*
X104325507Y-122967614D01*
X104625988Y-123268095D01*
X104979315Y-123504181D01*
X105371912Y-123666800D01*
X105788690Y-123749702D01*
X106213634Y-123749702D01*
X106630412Y-123666800D01*
X107023009Y-123504181D01*
X107376336Y-123268095D01*
X107676817Y-122967614D01*
X107912903Y-122614287D01*
X108075522Y-122221690D01*
X108158424Y-121804912D01*
X108158424Y-121379968D01*
X108135177Y-121263097D01*
X140229200Y-121263097D01*
X140258464Y-121560218D01*
X140374113Y-121941461D01*
X140561916Y-122292818D01*
X140814657Y-122600783D01*
X141122622Y-122853524D01*
X141473978Y-123041327D01*
X141855221Y-123156976D01*
X142251700Y-123196026D01*
X142648178Y-123156976D01*
X143029421Y-123041327D01*
X143380778Y-122853524D01*
X143688743Y-122600783D01*
X143941484Y-122292818D01*
X144129287Y-121941462D01*
X144244936Y-121560219D01*
X144274200Y-121263098D01*
X144274200Y-118289382D01*
X144244936Y-117992261D01*
X144129287Y-117611018D01*
X143941484Y-117259662D01*
X143688743Y-116951697D01*
X143380778Y-116698956D01*
X143029422Y-116511153D01*
X142648179Y-116395504D01*
X142251700Y-116356454D01*
X141855222Y-116395504D01*
X141473979Y-116511153D01*
X141122623Y-116698956D01*
X140814658Y-116951697D01*
X140561917Y-117259662D01*
X140374114Y-117611018D01*
X140258465Y-117992261D01*
X140229201Y-118289382D01*
X140229200Y-121263097D01*
X108135177Y-121263097D01*
X108075522Y-120963190D01*
X107912903Y-120570593D01*
X107676817Y-120217266D01*
X107376336Y-119916785D01*
X107023009Y-119680699D01*
X106630412Y-119518080D01*
X106213634Y-119435178D01*
X105788690Y-119435178D01*
X105371912Y-119518080D01*
X104979315Y-119680699D01*
X104625988Y-119916785D01*
X104325507Y-120217266D01*
X104089421Y-120570593D01*
X103926802Y-120963190D01*
X103843900Y-121379968D01*
X102148862Y-121379968D01*
X102148862Y-111681715D01*
X110756162Y-111681715D01*
X110756162Y-112200765D01*
X110857423Y-112709841D01*
X111056055Y-113189381D01*
X111344424Y-113620955D01*
X111711447Y-113987978D01*
X112143021Y-114276347D01*
X112622561Y-114474979D01*
X113131637Y-114576240D01*
X113650687Y-114576240D01*
X114159763Y-114474979D01*
X114639303Y-114276347D01*
X115070877Y-113987978D01*
X115437900Y-113620955D01*
X115726269Y-113189381D01*
X115924901Y-112709841D01*
X116026162Y-112200765D01*
X116026162Y-111681715D01*
X115924901Y-111172639D01*
X115726269Y-110693099D01*
X115437900Y-110261525D01*
X115070877Y-109894502D01*
X114639303Y-109606133D01*
X114159763Y-109407501D01*
X113650687Y-109306240D01*
X113131637Y-109306240D01*
X112622561Y-109407501D01*
X112143021Y-109606133D01*
X111711447Y-109894502D01*
X111344424Y-110261525D01*
X111056055Y-110693099D01*
X110857423Y-111172639D01*
X110756162Y-111681715D01*
X102148862Y-111681715D01*
X102148862Y-67038130D01*
X127309024Y-67038130D01*
X127353675Y-67185339D01*
X127478859Y-67448160D01*
X127652912Y-67681509D01*
X127869145Y-67876418D01*
X128119248Y-68025397D01*
X128393609Y-68122721D01*
X128623500Y-68002054D01*
X128623500Y-66808240D01*
X128877500Y-66808240D01*
X128877500Y-68002054D01*
X129107391Y-68122721D01*
X129381752Y-68025397D01*
X129631855Y-67876418D01*
X129848088Y-67681509D01*
X130022141Y-67448160D01*
X130147325Y-67185339D01*
X130191976Y-67038130D01*
X130120715Y-66903097D01*
X140229200Y-66903097D01*
X140258464Y-67200218D01*
X140374113Y-67581461D01*
X140561916Y-67932818D01*
X140814657Y-68240783D01*
X141122622Y-68493524D01*
X141473978Y-68681327D01*
X141855221Y-68796976D01*
X142251700Y-68836026D01*
X142648178Y-68796976D01*
X143029421Y-68681327D01*
X143380778Y-68493524D01*
X143688743Y-68240783D01*
X143941484Y-67932818D01*
X144129287Y-67581462D01*
X144244936Y-67200219D01*
X144274200Y-66903098D01*
X144274200Y-63929382D01*
X144244936Y-63632261D01*
X144129287Y-63251018D01*
X143941484Y-62899662D01*
X143688743Y-62591697D01*
X143380778Y-62338956D01*
X143029422Y-62151153D01*
X142648179Y-62035504D01*
X142251700Y-61996454D01*
X141855222Y-62035504D01*
X141473979Y-62151153D01*
X141122623Y-62338956D01*
X140814658Y-62591697D01*
X140561917Y-62899662D01*
X140374114Y-63251018D01*
X140258465Y-63632261D01*
X140229201Y-63929382D01*
X140229200Y-66903097D01*
X130120715Y-66903097D01*
X130070655Y-66808240D01*
X128877500Y-66808240D01*
X128623500Y-66808240D01*
X127430345Y-66808240D01*
X127309024Y-67038130D01*
X102148862Y-67038130D01*
X102148862Y-63387568D01*
X103843900Y-63387568D01*
X103843900Y-63812512D01*
X103926802Y-64229290D01*
X104089421Y-64621887D01*
X104325507Y-64975214D01*
X104625988Y-65275695D01*
X104979315Y-65511781D01*
X105371912Y-65674400D01*
X105788690Y-65757302D01*
X106213634Y-65757302D01*
X106630412Y-65674400D01*
X107023009Y-65511781D01*
X107376336Y-65275695D01*
X107676817Y-64975214D01*
X107912903Y-64621887D01*
X108075522Y-64229290D01*
X108158424Y-63812512D01*
X108158424Y-63387568D01*
X108075522Y-62970790D01*
X107912903Y-62578193D01*
X107676817Y-62224866D01*
X107376336Y-61924385D01*
X107023009Y-61688299D01*
X106630412Y-61525680D01*
X106213634Y-61442778D01*
X105788690Y-61442778D01*
X105371912Y-61525680D01*
X104979315Y-61688299D01*
X104625988Y-61924385D01*
X104325507Y-62224866D01*
X104089421Y-62578193D01*
X103926802Y-62970790D01*
X103843900Y-63387568D01*
X102148862Y-63387568D01*
X102148862Y-59747740D01*
X138855669Y-59747740D01*
X138791699Y-59800239D01*
G36*
X121532700Y-98592301D02*
G01*
X121532700Y-98796179D01*
X121572474Y-98996138D01*
X121650495Y-99184496D01*
X121763763Y-99354014D01*
X121907926Y-99498177D01*
X122077444Y-99611445D01*
X122265802Y-99689466D01*
X122465761Y-99729240D01*
X122669639Y-99729240D01*
X122869598Y-99689466D01*
X123057956Y-99611445D01*
X123227474Y-99498177D01*
X123271411Y-99454240D01*
X125128699Y-99454240D01*
X127309703Y-101635245D01*
X127286987Y-101710129D01*
X127258315Y-102001240D01*
X127286987Y-102292351D01*
X127371901Y-102572274D01*
X127509794Y-102830254D01*
X127695366Y-103056374D01*
X127921486Y-103241946D01*
X127976291Y-103271240D01*
X127921486Y-103300534D01*
X127695366Y-103486106D01*
X127509794Y-103712226D01*
X127472905Y-103781240D01*
X123362033Y-103781240D01*
X123324700Y-103777563D01*
X123287367Y-103781240D01*
X123175714Y-103792237D01*
X123032453Y-103835694D01*
X122900424Y-103906266D01*
X122784699Y-104001239D01*
X122760901Y-104030237D01*
X119204899Y-107586240D01*
X112214503Y-107586240D01*
X110522204Y-105893942D01*
X112018065Y-105893942D01*
X112089648Y-106137911D01*
X112345158Y-106258811D01*
X112619346Y-106327540D01*
X112901674Y-106341457D01*
X113181292Y-106300027D01*
X113447454Y-106204843D01*
X113572676Y-106137911D01*
X113644259Y-105893942D01*
X112831162Y-105080845D01*
X112018065Y-105893942D01*
X110522204Y-105893942D01*
X110119700Y-105491439D01*
X110119700Y-104993352D01*
X110171435Y-105027920D01*
X110432588Y-105136093D01*
X110709827Y-105191240D01*
X110992497Y-105191240D01*
X111269736Y-105136093D01*
X111406878Y-105079287D01*
X111432375Y-105251370D01*
X111527559Y-105517532D01*
X111594491Y-105642754D01*
X111838460Y-105714337D01*
X112651557Y-104901240D01*
X112637415Y-104887098D01*
X112817020Y-104707493D01*
X112831162Y-104721635D01*
X112845305Y-104707493D01*
X113024910Y-104887098D01*
X113010767Y-104901240D01*
X113823864Y-105714337D01*
X114067833Y-105642754D01*
X114188733Y-105387244D01*
X114237094Y-105194312D01*
X115611162Y-105194312D01*
X115735644Y-105182052D01*
X115855342Y-105145742D01*
X115965656Y-105086777D01*
X116062347Y-105007425D01*
X116141699Y-104910734D01*
X116200664Y-104800420D01*
X116236974Y-104680722D01*
X116249234Y-104556240D01*
X116249234Y-102956240D01*
X116236974Y-102831758D01*
X116200664Y-102712060D01*
X116141699Y-102601746D01*
X116062347Y-102505055D01*
X115965656Y-102425703D01*
X115910550Y-102396248D01*
X115925799Y-102380999D01*
X116082842Y-102145967D01*
X116191015Y-101884814D01*
X116246162Y-101607575D01*
X116246162Y-101324905D01*
X116191015Y-101047666D01*
X116082842Y-100786513D01*
X115925799Y-100551481D01*
X115725921Y-100351603D01*
X115680479Y-100321240D01*
X115725921Y-100290877D01*
X115925799Y-100090999D01*
X116082842Y-99855967D01*
X116191015Y-99594814D01*
X116246162Y-99317575D01*
X116246162Y-99034905D01*
X116209850Y-98852354D01*
X116532502Y-98529702D01*
X121545152Y-98529702D01*
X121532700Y-98592301D01*
X121532700Y-98592301D01*
G37*
X121532700Y-98592301D02*
X121532700Y-98796179D01*
X121572474Y-98996138D01*
X121650495Y-99184496D01*
X121763763Y-99354014D01*
X121907926Y-99498177D01*
X122077444Y-99611445D01*
X122265802Y-99689466D01*
X122465761Y-99729240D01*
X122669639Y-99729240D01*
X122869598Y-99689466D01*
X123057956Y-99611445D01*
X123227474Y-99498177D01*
X123271411Y-99454240D01*
X125128699Y-99454240D01*
X127309703Y-101635245D01*
X127286987Y-101710129D01*
X127258315Y-102001240D01*
X127286987Y-102292351D01*
X127371901Y-102572274D01*
X127509794Y-102830254D01*
X127695366Y-103056374D01*
X127921486Y-103241946D01*
X127976291Y-103271240D01*
X127921486Y-103300534D01*
X127695366Y-103486106D01*
X127509794Y-103712226D01*
X127472905Y-103781240D01*
X123362033Y-103781240D01*
X123324700Y-103777563D01*
X123287367Y-103781240D01*
X123175714Y-103792237D01*
X123032453Y-103835694D01*
X122900424Y-103906266D01*
X122784699Y-104001239D01*
X122760901Y-104030237D01*
X119204899Y-107586240D01*
X112214503Y-107586240D01*
X110522204Y-105893942D01*
X112018065Y-105893942D01*
X112089648Y-106137911D01*
X112345158Y-106258811D01*
X112619346Y-106327540D01*
X112901674Y-106341457D01*
X113181292Y-106300027D01*
X113447454Y-106204843D01*
X113572676Y-106137911D01*
X113644259Y-105893942D01*
X112831162Y-105080845D01*
X112018065Y-105893942D01*
X110522204Y-105893942D01*
X110119700Y-105491439D01*
X110119700Y-104993352D01*
X110171435Y-105027920D01*
X110432588Y-105136093D01*
X110709827Y-105191240D01*
X110992497Y-105191240D01*
X111269736Y-105136093D01*
X111406878Y-105079287D01*
X111432375Y-105251370D01*
X111527559Y-105517532D01*
X111594491Y-105642754D01*
X111838460Y-105714337D01*
X112651557Y-104901240D01*
X112637415Y-104887098D01*
X112817020Y-104707493D01*
X112831162Y-104721635D01*
X112845305Y-104707493D01*
X113024910Y-104887098D01*
X113010767Y-104901240D01*
X113823864Y-105714337D01*
X114067833Y-105642754D01*
X114188733Y-105387244D01*
X114237094Y-105194312D01*
X115611162Y-105194312D01*
X115735644Y-105182052D01*
X115855342Y-105145742D01*
X115965656Y-105086777D01*
X116062347Y-105007425D01*
X116141699Y-104910734D01*
X116200664Y-104800420D01*
X116236974Y-104680722D01*
X116249234Y-104556240D01*
X116249234Y-102956240D01*
X116236974Y-102831758D01*
X116200664Y-102712060D01*
X116141699Y-102601746D01*
X116062347Y-102505055D01*
X115965656Y-102425703D01*
X115910550Y-102396248D01*
X115925799Y-102380999D01*
X116082842Y-102145967D01*
X116191015Y-101884814D01*
X116246162Y-101607575D01*
X116246162Y-101324905D01*
X116191015Y-101047666D01*
X116082842Y-100786513D01*
X115925799Y-100551481D01*
X115725921Y-100351603D01*
X115680479Y-100321240D01*
X115725921Y-100290877D01*
X115925799Y-100090999D01*
X116082842Y-99855967D01*
X116191015Y-99594814D01*
X116246162Y-99317575D01*
X116246162Y-99034905D01*
X116209850Y-98852354D01*
X116532502Y-98529702D01*
X121545152Y-98529702D01*
X121532700Y-98592301D01*
G36*
X178407601Y-100650999D02*
G01*
X178607479Y-100850877D01*
X178652921Y-100881240D01*
X178607479Y-100911603D01*
X178407601Y-101111481D01*
X178250558Y-101346513D01*
X178142385Y-101607666D01*
X178087238Y-101884905D01*
X178087238Y-102167575D01*
X178142385Y-102444814D01*
X178250558Y-102705967D01*
X178407601Y-102940999D01*
X178607479Y-103140877D01*
X178737287Y-103227612D01*
X178709141Y-103323538D01*
X179522238Y-104136635D01*
X179536381Y-104122493D01*
X179715986Y-104302098D01*
X179701843Y-104316240D01*
X180514940Y-105129337D01*
X180758909Y-105057754D01*
X180879809Y-104802244D01*
X180948538Y-104528056D01*
X180950045Y-104497492D01*
X181016234Y-104528811D01*
X181290422Y-104597540D01*
X181572750Y-104611457D01*
X181852368Y-104570027D01*
X182055179Y-104497498D01*
X182102385Y-104734814D01*
X182210558Y-104995967D01*
X182367601Y-105230999D01*
X182567479Y-105430877D01*
X182802511Y-105587920D01*
X183063664Y-105696093D01*
X183340903Y-105751240D01*
X183623573Y-105751240D01*
X183900812Y-105696093D01*
X184161965Y-105587920D01*
X184262178Y-105520960D01*
X183720899Y-106062240D01*
X170288702Y-106062240D01*
X169535404Y-105308942D01*
X178709141Y-105308942D01*
X178780724Y-105552911D01*
X179036234Y-105673811D01*
X179310422Y-105742540D01*
X179592750Y-105756457D01*
X179872368Y-105715027D01*
X180138530Y-105619843D01*
X180263752Y-105552911D01*
X180335335Y-105308942D01*
X179522238Y-104495845D01*
X178709141Y-105308942D01*
X169535404Y-105308942D01*
X168613214Y-104386752D01*
X178082021Y-104386752D01*
X178123451Y-104666370D01*
X178218635Y-104932532D01*
X178285567Y-105057754D01*
X178529536Y-105129337D01*
X179342633Y-104316240D01*
X178529536Y-103503143D01*
X178285567Y-103574726D01*
X178164667Y-103830236D01*
X178095938Y-104104424D01*
X178082021Y-104386752D01*
X168613214Y-104386752D01*
X166593697Y-102367236D01*
X166616413Y-102292351D01*
X166645085Y-102001240D01*
X166616413Y-101710129D01*
X166531499Y-101430206D01*
X166393606Y-101172226D01*
X166208034Y-100946106D01*
X165981914Y-100760534D01*
X165927109Y-100731240D01*
X165981914Y-100701946D01*
X166208034Y-100516374D01*
X166224558Y-100496240D01*
X178304195Y-100496240D01*
X178407601Y-100650999D01*
X178407601Y-100650999D01*
G37*
X178407601Y-100650999D02*
X178607479Y-100850877D01*
X178652921Y-100881240D01*
X178607479Y-100911603D01*
X178407601Y-101111481D01*
X178250558Y-101346513D01*
X178142385Y-101607666D01*
X178087238Y-101884905D01*
X178087238Y-102167575D01*
X178142385Y-102444814D01*
X178250558Y-102705967D01*
X178407601Y-102940999D01*
X178607479Y-103140877D01*
X178737287Y-103227612D01*
X178709141Y-103323538D01*
X179522238Y-104136635D01*
X179536381Y-104122493D01*
X179715986Y-104302098D01*
X179701843Y-104316240D01*
X180514940Y-105129337D01*
X180758909Y-105057754D01*
X180879809Y-104802244D01*
X180948538Y-104528056D01*
X180950045Y-104497492D01*
X181016234Y-104528811D01*
X181290422Y-104597540D01*
X181572750Y-104611457D01*
X181852368Y-104570027D01*
X182055179Y-104497498D01*
X182102385Y-104734814D01*
X182210558Y-104995967D01*
X182367601Y-105230999D01*
X182567479Y-105430877D01*
X182802511Y-105587920D01*
X183063664Y-105696093D01*
X183340903Y-105751240D01*
X183623573Y-105751240D01*
X183900812Y-105696093D01*
X184161965Y-105587920D01*
X184262178Y-105520960D01*
X183720899Y-106062240D01*
X170288702Y-106062240D01*
X169535404Y-105308942D01*
X178709141Y-105308942D01*
X178780724Y-105552911D01*
X179036234Y-105673811D01*
X179310422Y-105742540D01*
X179592750Y-105756457D01*
X179872368Y-105715027D01*
X180138530Y-105619843D01*
X180263752Y-105552911D01*
X180335335Y-105308942D01*
X179522238Y-104495845D01*
X178709141Y-105308942D01*
X169535404Y-105308942D01*
X168613214Y-104386752D01*
X178082021Y-104386752D01*
X178123451Y-104666370D01*
X178218635Y-104932532D01*
X178285567Y-105057754D01*
X178529536Y-105129337D01*
X179342633Y-104316240D01*
X178529536Y-103503143D01*
X178285567Y-103574726D01*
X178164667Y-103830236D01*
X178095938Y-104104424D01*
X178082021Y-104386752D01*
X168613214Y-104386752D01*
X166593697Y-102367236D01*
X166616413Y-102292351D01*
X166645085Y-102001240D01*
X166616413Y-101710129D01*
X166531499Y-101430206D01*
X166393606Y-101172226D01*
X166208034Y-100946106D01*
X165981914Y-100760534D01*
X165927109Y-100731240D01*
X165981914Y-100701946D01*
X166208034Y-100516374D01*
X166224558Y-100496240D01*
X178304195Y-100496240D01*
X178407601Y-100650999D01*
G36*
X181695986Y-103157098D02*
G01*
X181681843Y-103171240D01*
X181695986Y-103185383D01*
X181516381Y-103364988D01*
X181502238Y-103350845D01*
X181488096Y-103364988D01*
X181308491Y-103185383D01*
X181322633Y-103171240D01*
X181308491Y-103157098D01*
X181488096Y-102977493D01*
X181502238Y-102991635D01*
X181516381Y-102977493D01*
X181695986Y-103157098D01*
X181695986Y-103157098D01*
G37*
X181695986Y-103157098D02*
X181681843Y-103171240D01*
X181695986Y-103185383D01*
X181516381Y-103364988D01*
X181502238Y-103350845D01*
X181488096Y-103364988D01*
X181308491Y-103185383D01*
X181322633Y-103171240D01*
X181308491Y-103157098D01*
X181488096Y-102977493D01*
X181502238Y-102991635D01*
X181516381Y-102977493D01*
X181695986Y-103157098D01*
G36*
X113024910Y-102597098D02*
G01*
X113010767Y-102611240D01*
X113024910Y-102625383D01*
X112845305Y-102804988D01*
X112831162Y-102790845D01*
X112817020Y-102804988D01*
X112637415Y-102625383D01*
X112651557Y-102611240D01*
X112637415Y-102597098D01*
X112817020Y-102417493D01*
X112831162Y-102431635D01*
X112845305Y-102417493D01*
X113024910Y-102597098D01*
X113024910Y-102597098D01*
G37*
X113024910Y-102597098D02*
X113010767Y-102611240D01*
X113024910Y-102625383D01*
X112845305Y-102804988D01*
X112831162Y-102790845D01*
X112817020Y-102804988D01*
X112637415Y-102625383D01*
X112651557Y-102611240D01*
X112637415Y-102597098D01*
X112817020Y-102417493D01*
X112831162Y-102431635D01*
X112845305Y-102417493D01*
X113024910Y-102597098D01*
G36*
X113024910Y-100307098D02*
G01*
X113010767Y-100321240D01*
X113024910Y-100335383D01*
X112845305Y-100514988D01*
X112831162Y-100500845D01*
X112817020Y-100514988D01*
X112637415Y-100335383D01*
X112651557Y-100321240D01*
X112637415Y-100307098D01*
X112817020Y-100127493D01*
X112831162Y-100141635D01*
X112845305Y-100127493D01*
X113024910Y-100307098D01*
X113024910Y-100307098D01*
G37*
X113024910Y-100307098D02*
X113010767Y-100321240D01*
X113024910Y-100335383D01*
X112845305Y-100514988D01*
X112831162Y-100500845D01*
X112817020Y-100514988D01*
X112637415Y-100335383D01*
X112651557Y-100321240D01*
X112637415Y-100307098D01*
X112817020Y-100127493D01*
X112831162Y-100141635D01*
X112845305Y-100127493D01*
X113024910Y-100307098D01*
G36*
X181695986Y-98577098D02*
G01*
X181681843Y-98591240D01*
X181695986Y-98605383D01*
X181516381Y-98784988D01*
X181502238Y-98770845D01*
X181488096Y-98784988D01*
X181308491Y-98605383D01*
X181322633Y-98591240D01*
X181308491Y-98577098D01*
X181488096Y-98397493D01*
X181502238Y-98411635D01*
X181516381Y-98397493D01*
X181695986Y-98577098D01*
X181695986Y-98577098D01*
G37*
X181695986Y-98577098D02*
X181681843Y-98591240D01*
X181695986Y-98605383D01*
X181516381Y-98784988D01*
X181502238Y-98770845D01*
X181488096Y-98784988D01*
X181308491Y-98605383D01*
X181322633Y-98591240D01*
X181308491Y-98577098D01*
X181488096Y-98397493D01*
X181502238Y-98411635D01*
X181516381Y-98397493D01*
X181695986Y-98577098D01*
G36*
X147319320Y-75752662D02*
G01*
X146951700Y-75716454D01*
X146555222Y-75755504D01*
X146173979Y-75871153D01*
X145822623Y-76058956D01*
X145514658Y-76311697D01*
X145261917Y-76619662D01*
X145074114Y-76971018D01*
X144958465Y-77352261D01*
X144929201Y-77649382D01*
X144929200Y-80623097D01*
X144958464Y-80920218D01*
X145074113Y-81301461D01*
X145082844Y-81317795D01*
X142944399Y-83456240D01*
X130987022Y-83456240D01*
X130949699Y-83452564D01*
X130912376Y-83456240D01*
X130912367Y-83456240D01*
X130800714Y-83467237D01*
X130657453Y-83510694D01*
X130525424Y-83581266D01*
X130525422Y-83581267D01*
X130525423Y-83581267D01*
X130438696Y-83652441D01*
X130438692Y-83652445D01*
X130409699Y-83676239D01*
X130385905Y-83705232D01*
X128239502Y-85851636D01*
X128210499Y-85875439D01*
X128177619Y-85915504D01*
X128115526Y-85991164D01*
X128044955Y-86123193D01*
X128044954Y-86123194D01*
X128001497Y-86266455D01*
X127990500Y-86378108D01*
X127990500Y-86378118D01*
X127986824Y-86415440D01*
X127990500Y-86452762D01*
X127990501Y-92893168D01*
X127900500Y-92893168D01*
X127776018Y-92905428D01*
X127656320Y-92941738D01*
X127546006Y-93000703D01*
X127449315Y-93080055D01*
X127369963Y-93176746D01*
X127310998Y-93287060D01*
X127274688Y-93406758D01*
X127262428Y-93531240D01*
X127262428Y-95231240D01*
X127274688Y-95355722D01*
X127310998Y-95475420D01*
X127369963Y-95585734D01*
X127449315Y-95682425D01*
X127546006Y-95761777D01*
X127656320Y-95820742D01*
X127725187Y-95841633D01*
X127695366Y-95866106D01*
X127509794Y-96092226D01*
X127371901Y-96350206D01*
X127286987Y-96630129D01*
X127258315Y-96921240D01*
X127269964Y-97039511D01*
X127207948Y-97020699D01*
X127096295Y-97009702D01*
X127096284Y-97009702D01*
X127058962Y-97006026D01*
X127021640Y-97009702D01*
X116255022Y-97009702D01*
X116246162Y-97008829D01*
X116246162Y-96744905D01*
X116191015Y-96467666D01*
X116082842Y-96206513D01*
X115925799Y-95971481D01*
X115725921Y-95771603D01*
X115596113Y-95684868D01*
X115624259Y-95588942D01*
X114811162Y-94775845D01*
X114797020Y-94789988D01*
X114617415Y-94610383D01*
X114631557Y-94596240D01*
X114990767Y-94596240D01*
X115803864Y-95409337D01*
X116047833Y-95337754D01*
X116168733Y-95082244D01*
X116237462Y-94808056D01*
X116251379Y-94525728D01*
X116209949Y-94246110D01*
X116114765Y-93979948D01*
X116047833Y-93854726D01*
X115803864Y-93783143D01*
X114990767Y-94596240D01*
X114631557Y-94596240D01*
X113818460Y-93783143D01*
X113574491Y-93854726D01*
X113453591Y-94110236D01*
X113384862Y-94384424D01*
X113383355Y-94414988D01*
X113317166Y-94383669D01*
X113042978Y-94314940D01*
X112760650Y-94301023D01*
X112481032Y-94342453D01*
X112278221Y-94414982D01*
X112249850Y-94272353D01*
X112918665Y-93603538D01*
X113998065Y-93603538D01*
X114811162Y-94416635D01*
X115624259Y-93603538D01*
X115552676Y-93359569D01*
X115297166Y-93238669D01*
X115022978Y-93169940D01*
X114740650Y-93156023D01*
X114461032Y-93197453D01*
X114194870Y-93292637D01*
X114069648Y-93359569D01*
X113998065Y-93603538D01*
X112918665Y-93603538D01*
X117383230Y-89138974D01*
X117383235Y-89138968D01*
X125899106Y-80623097D01*
X140229200Y-80623097D01*
X140258464Y-80920218D01*
X140374113Y-81301461D01*
X140561916Y-81652818D01*
X140814657Y-81960783D01*
X141122622Y-82213524D01*
X141473978Y-82401327D01*
X141855221Y-82516976D01*
X142251700Y-82556026D01*
X142648178Y-82516976D01*
X143029421Y-82401327D01*
X143380778Y-82213524D01*
X143688743Y-81960783D01*
X143941484Y-81652818D01*
X144129287Y-81301462D01*
X144244936Y-80920219D01*
X144274200Y-80623098D01*
X144274200Y-77649382D01*
X144244936Y-77352261D01*
X144129287Y-76971018D01*
X143941484Y-76619662D01*
X143688743Y-76311697D01*
X143380778Y-76058956D01*
X143029422Y-75871153D01*
X142648179Y-75755504D01*
X142251700Y-75716454D01*
X141855222Y-75755504D01*
X141473979Y-75871153D01*
X141122623Y-76058956D01*
X140814658Y-76311697D01*
X140561917Y-76619662D01*
X140374114Y-76971018D01*
X140258465Y-77352261D01*
X140229201Y-77649382D01*
X140229200Y-80623097D01*
X125899106Y-80623097D01*
X130943964Y-75578240D01*
X147144899Y-75578240D01*
X147319320Y-75752662D01*
X147319320Y-75752662D01*
G37*
X147319320Y-75752662D02*
X146951700Y-75716454D01*
X146555222Y-75755504D01*
X146173979Y-75871153D01*
X145822623Y-76058956D01*
X145514658Y-76311697D01*
X145261917Y-76619662D01*
X145074114Y-76971018D01*
X144958465Y-77352261D01*
X144929201Y-77649382D01*
X144929200Y-80623097D01*
X144958464Y-80920218D01*
X145074113Y-81301461D01*
X145082844Y-81317795D01*
X142944399Y-83456240D01*
X130987022Y-83456240D01*
X130949699Y-83452564D01*
X130912376Y-83456240D01*
X130912367Y-83456240D01*
X130800714Y-83467237D01*
X130657453Y-83510694D01*
X130525424Y-83581266D01*
X130525422Y-83581267D01*
X130525423Y-83581267D01*
X130438696Y-83652441D01*
X130438692Y-83652445D01*
X130409699Y-83676239D01*
X130385905Y-83705232D01*
X128239502Y-85851636D01*
X128210499Y-85875439D01*
X128177619Y-85915504D01*
X128115526Y-85991164D01*
X128044955Y-86123193D01*
X128044954Y-86123194D01*
X128001497Y-86266455D01*
X127990500Y-86378108D01*
X127990500Y-86378118D01*
X127986824Y-86415440D01*
X127990500Y-86452762D01*
X127990501Y-92893168D01*
X127900500Y-92893168D01*
X127776018Y-92905428D01*
X127656320Y-92941738D01*
X127546006Y-93000703D01*
X127449315Y-93080055D01*
X127369963Y-93176746D01*
X127310998Y-93287060D01*
X127274688Y-93406758D01*
X127262428Y-93531240D01*
X127262428Y-95231240D01*
X127274688Y-95355722D01*
X127310998Y-95475420D01*
X127369963Y-95585734D01*
X127449315Y-95682425D01*
X127546006Y-95761777D01*
X127656320Y-95820742D01*
X127725187Y-95841633D01*
X127695366Y-95866106D01*
X127509794Y-96092226D01*
X127371901Y-96350206D01*
X127286987Y-96630129D01*
X127258315Y-96921240D01*
X127269964Y-97039511D01*
X127207948Y-97020699D01*
X127096295Y-97009702D01*
X127096284Y-97009702D01*
X127058962Y-97006026D01*
X127021640Y-97009702D01*
X116255022Y-97009702D01*
X116246162Y-97008829D01*
X116246162Y-96744905D01*
X116191015Y-96467666D01*
X116082842Y-96206513D01*
X115925799Y-95971481D01*
X115725921Y-95771603D01*
X115596113Y-95684868D01*
X115624259Y-95588942D01*
X114811162Y-94775845D01*
X114797020Y-94789988D01*
X114617415Y-94610383D01*
X114631557Y-94596240D01*
X114990767Y-94596240D01*
X115803864Y-95409337D01*
X116047833Y-95337754D01*
X116168733Y-95082244D01*
X116237462Y-94808056D01*
X116251379Y-94525728D01*
X116209949Y-94246110D01*
X116114765Y-93979948D01*
X116047833Y-93854726D01*
X115803864Y-93783143D01*
X114990767Y-94596240D01*
X114631557Y-94596240D01*
X113818460Y-93783143D01*
X113574491Y-93854726D01*
X113453591Y-94110236D01*
X113384862Y-94384424D01*
X113383355Y-94414988D01*
X113317166Y-94383669D01*
X113042978Y-94314940D01*
X112760650Y-94301023D01*
X112481032Y-94342453D01*
X112278221Y-94414982D01*
X112249850Y-94272353D01*
X112918665Y-93603538D01*
X113998065Y-93603538D01*
X114811162Y-94416635D01*
X115624259Y-93603538D01*
X115552676Y-93359569D01*
X115297166Y-93238669D01*
X115022978Y-93169940D01*
X114740650Y-93156023D01*
X114461032Y-93197453D01*
X114194870Y-93292637D01*
X114069648Y-93359569D01*
X113998065Y-93603538D01*
X112918665Y-93603538D01*
X117383230Y-89138974D01*
X117383235Y-89138968D01*
X125899106Y-80623097D01*
X140229200Y-80623097D01*
X140258464Y-80920218D01*
X140374113Y-81301461D01*
X140561916Y-81652818D01*
X140814657Y-81960783D01*
X141122622Y-82213524D01*
X141473978Y-82401327D01*
X141855221Y-82516976D01*
X142251700Y-82556026D01*
X142648178Y-82516976D01*
X143029421Y-82401327D01*
X143380778Y-82213524D01*
X143688743Y-81960783D01*
X143941484Y-81652818D01*
X144129287Y-81301462D01*
X144244936Y-80920219D01*
X144274200Y-80623098D01*
X144274200Y-77649382D01*
X144244936Y-77352261D01*
X144129287Y-76971018D01*
X143941484Y-76619662D01*
X143688743Y-76311697D01*
X143380778Y-76058956D01*
X143029422Y-75871153D01*
X142648179Y-75755504D01*
X142251700Y-75716454D01*
X141855222Y-75755504D01*
X141473979Y-75871153D01*
X141122623Y-76058956D01*
X140814658Y-76311697D01*
X140561917Y-76619662D01*
X140374114Y-76971018D01*
X140258465Y-77352261D01*
X140229201Y-77649382D01*
X140229200Y-80623097D01*
X125899106Y-80623097D01*
X130943964Y-75578240D01*
X147144899Y-75578240D01*
X147319320Y-75752662D01*
G36*
X181695986Y-96287098D02*
G01*
X181681843Y-96301240D01*
X181695986Y-96315383D01*
X181516381Y-96494988D01*
X181502238Y-96480845D01*
X181488096Y-96494988D01*
X181308491Y-96315383D01*
X181322633Y-96301240D01*
X181308491Y-96287098D01*
X181488096Y-96107493D01*
X181502238Y-96121635D01*
X181516381Y-96107493D01*
X181695986Y-96287098D01*
X181695986Y-96287098D01*
G37*
X181695986Y-96287098D02*
X181681843Y-96301240D01*
X181695986Y-96315383D01*
X181516381Y-96494988D01*
X181502238Y-96480845D01*
X181488096Y-96494988D01*
X181308491Y-96315383D01*
X181322633Y-96301240D01*
X181308491Y-96287098D01*
X181488096Y-96107493D01*
X181502238Y-96121635D01*
X181516381Y-96107493D01*
X181695986Y-96287098D01*
G36*
X113024910Y-95727098D02*
G01*
X113010767Y-95741240D01*
X113024910Y-95755383D01*
X112845305Y-95934988D01*
X112831162Y-95920845D01*
X112817020Y-95934988D01*
X112637415Y-95755383D01*
X112651557Y-95741240D01*
X112637415Y-95727098D01*
X112817020Y-95547493D01*
X112831162Y-95561635D01*
X112845305Y-95547493D01*
X113024910Y-95727098D01*
X113024910Y-95727098D01*
G37*
X113024910Y-95727098D02*
X113010767Y-95741240D01*
X113024910Y-95755383D01*
X112845305Y-95934988D01*
X112831162Y-95920845D01*
X112817020Y-95934988D01*
X112637415Y-95755383D01*
X112651557Y-95741240D01*
X112637415Y-95727098D01*
X112817020Y-95547493D01*
X112831162Y-95561635D01*
X112845305Y-95547493D01*
X113024910Y-95727098D01*
G36*
X184799700Y-77927042D02*
G01*
X184799701Y-92763975D01*
X183806124Y-93757552D01*
X183623573Y-93721240D01*
X183340903Y-93721240D01*
X183063664Y-93776387D01*
X182926522Y-93833193D01*
X182901025Y-93661110D01*
X182805841Y-93394948D01*
X182738909Y-93269726D01*
X182494940Y-93198143D01*
X181681843Y-94011240D01*
X181695986Y-94025383D01*
X181516381Y-94204988D01*
X181502238Y-94190845D01*
X181488096Y-94204988D01*
X181308491Y-94025383D01*
X181322633Y-94011240D01*
X180509536Y-93198143D01*
X180265567Y-93269726D01*
X180144667Y-93525236D01*
X180096306Y-93718168D01*
X179118947Y-93718168D01*
X179039485Y-93675694D01*
X178896224Y-93632237D01*
X178784571Y-93621240D01*
X178784560Y-93621240D01*
X178747238Y-93617564D01*
X178709916Y-93621240D01*
X166640972Y-93621240D01*
X166640972Y-93531240D01*
X166628712Y-93406758D01*
X166592402Y-93287060D01*
X166533437Y-93176746D01*
X166454085Y-93080055D01*
X166379127Y-93018538D01*
X180689141Y-93018538D01*
X181502238Y-93831635D01*
X182315335Y-93018538D01*
X182243752Y-92774569D01*
X181988242Y-92653669D01*
X181714054Y-92584940D01*
X181431726Y-92571023D01*
X181152108Y-92612453D01*
X180885946Y-92707637D01*
X180760724Y-92774569D01*
X180689141Y-93018538D01*
X166379127Y-93018538D01*
X166357394Y-93000703D01*
X166247080Y-92941738D01*
X166127382Y-92905428D01*
X166002900Y-92893168D01*
X165912900Y-92893168D01*
X165912900Y-86711715D01*
X178307238Y-86711715D01*
X178307238Y-87230765D01*
X178408499Y-87739841D01*
X178607131Y-88219381D01*
X178895500Y-88650955D01*
X179262523Y-89017978D01*
X179694097Y-89306347D01*
X180173637Y-89504979D01*
X180682713Y-89606240D01*
X181201763Y-89606240D01*
X181710839Y-89504979D01*
X182190379Y-89306347D01*
X182621953Y-89017978D01*
X182988976Y-88650955D01*
X183277345Y-88219381D01*
X183475977Y-87739841D01*
X183577238Y-87230765D01*
X183577238Y-86711715D01*
X183475977Y-86202639D01*
X183277345Y-85723099D01*
X182988976Y-85291525D01*
X182621953Y-84924502D01*
X182190379Y-84636133D01*
X181710839Y-84437501D01*
X181201763Y-84336240D01*
X180682713Y-84336240D01*
X180173637Y-84437501D01*
X179694097Y-84636133D01*
X179262523Y-84924502D01*
X178895500Y-85291525D01*
X178607131Y-85723099D01*
X178408499Y-86202639D01*
X178307238Y-86711715D01*
X165912900Y-86711715D01*
X165912900Y-81626765D01*
X165916576Y-81589440D01*
X165912900Y-81552115D01*
X165912900Y-81552107D01*
X165901903Y-81440454D01*
X165858446Y-81297193D01*
X165787874Y-81165164D01*
X165692901Y-81049439D01*
X165663904Y-81025642D01*
X163263504Y-78625243D01*
X163239701Y-78596239D01*
X163123976Y-78501266D01*
X162991947Y-78430694D01*
X162848686Y-78387237D01*
X162737033Y-78376240D01*
X162737022Y-78376240D01*
X162699700Y-78372564D01*
X162662378Y-78376240D01*
X153674200Y-78376240D01*
X153674200Y-77649382D01*
X153644936Y-77352261D01*
X153529287Y-76971018D01*
X153341484Y-76619662D01*
X153088743Y-76311697D01*
X152780778Y-76058956D01*
X152429422Y-75871153D01*
X152048179Y-75755504D01*
X151651700Y-75716454D01*
X151255222Y-75755504D01*
X150873979Y-75871153D01*
X150522623Y-76058956D01*
X150214658Y-76311697D01*
X149999208Y-76574223D01*
X149997700Y-76558915D01*
X149997700Y-76558907D01*
X149986703Y-76447254D01*
X149943246Y-76303993D01*
X149872674Y-76171964D01*
X149777701Y-76056239D01*
X149748704Y-76032442D01*
X148278501Y-74562240D01*
X181434899Y-74562240D01*
X184799700Y-77927042D01*
X184799700Y-77927042D01*
G37*
X184799700Y-77927042D02*
X184799701Y-92763975D01*
X183806124Y-93757552D01*
X183623573Y-93721240D01*
X183340903Y-93721240D01*
X183063664Y-93776387D01*
X182926522Y-93833193D01*
X182901025Y-93661110D01*
X182805841Y-93394948D01*
X182738909Y-93269726D01*
X182494940Y-93198143D01*
X181681843Y-94011240D01*
X181695986Y-94025383D01*
X181516381Y-94204988D01*
X181502238Y-94190845D01*
X181488096Y-94204988D01*
X181308491Y-94025383D01*
X181322633Y-94011240D01*
X180509536Y-93198143D01*
X180265567Y-93269726D01*
X180144667Y-93525236D01*
X180096306Y-93718168D01*
X179118947Y-93718168D01*
X179039485Y-93675694D01*
X178896224Y-93632237D01*
X178784571Y-93621240D01*
X178784560Y-93621240D01*
X178747238Y-93617564D01*
X178709916Y-93621240D01*
X166640972Y-93621240D01*
X166640972Y-93531240D01*
X166628712Y-93406758D01*
X166592402Y-93287060D01*
X166533437Y-93176746D01*
X166454085Y-93080055D01*
X166379127Y-93018538D01*
X180689141Y-93018538D01*
X181502238Y-93831635D01*
X182315335Y-93018538D01*
X182243752Y-92774569D01*
X181988242Y-92653669D01*
X181714054Y-92584940D01*
X181431726Y-92571023D01*
X181152108Y-92612453D01*
X180885946Y-92707637D01*
X180760724Y-92774569D01*
X180689141Y-93018538D01*
X166379127Y-93018538D01*
X166357394Y-93000703D01*
X166247080Y-92941738D01*
X166127382Y-92905428D01*
X166002900Y-92893168D01*
X165912900Y-92893168D01*
X165912900Y-86711715D01*
X178307238Y-86711715D01*
X178307238Y-87230765D01*
X178408499Y-87739841D01*
X178607131Y-88219381D01*
X178895500Y-88650955D01*
X179262523Y-89017978D01*
X179694097Y-89306347D01*
X180173637Y-89504979D01*
X180682713Y-89606240D01*
X181201763Y-89606240D01*
X181710839Y-89504979D01*
X182190379Y-89306347D01*
X182621953Y-89017978D01*
X182988976Y-88650955D01*
X183277345Y-88219381D01*
X183475977Y-87739841D01*
X183577238Y-87230765D01*
X183577238Y-86711715D01*
X183475977Y-86202639D01*
X183277345Y-85723099D01*
X182988976Y-85291525D01*
X182621953Y-84924502D01*
X182190379Y-84636133D01*
X181710839Y-84437501D01*
X181201763Y-84336240D01*
X180682713Y-84336240D01*
X180173637Y-84437501D01*
X179694097Y-84636133D01*
X179262523Y-84924502D01*
X178895500Y-85291525D01*
X178607131Y-85723099D01*
X178408499Y-86202639D01*
X178307238Y-86711715D01*
X165912900Y-86711715D01*
X165912900Y-81626765D01*
X165916576Y-81589440D01*
X165912900Y-81552115D01*
X165912900Y-81552107D01*
X165901903Y-81440454D01*
X165858446Y-81297193D01*
X165787874Y-81165164D01*
X165692901Y-81049439D01*
X165663904Y-81025642D01*
X163263504Y-78625243D01*
X163239701Y-78596239D01*
X163123976Y-78501266D01*
X162991947Y-78430694D01*
X162848686Y-78387237D01*
X162737033Y-78376240D01*
X162737022Y-78376240D01*
X162699700Y-78372564D01*
X162662378Y-78376240D01*
X153674200Y-78376240D01*
X153674200Y-77649382D01*
X153644936Y-77352261D01*
X153529287Y-76971018D01*
X153341484Y-76619662D01*
X153088743Y-76311697D01*
X152780778Y-76058956D01*
X152429422Y-75871153D01*
X152048179Y-75755504D01*
X151651700Y-75716454D01*
X151255222Y-75755504D01*
X150873979Y-75871153D01*
X150522623Y-76058956D01*
X150214658Y-76311697D01*
X149999208Y-76574223D01*
X149997700Y-76558915D01*
X149997700Y-76558907D01*
X149986703Y-76447254D01*
X149943246Y-76303993D01*
X149872674Y-76171964D01*
X149777701Y-76056239D01*
X149748704Y-76032442D01*
X148278501Y-74562240D01*
X181434899Y-74562240D01*
X184799700Y-77927042D01*
M02*
