G04 #@! TF.GenerationSoftware,KiCad,Pcbnew,5.1.4-e60b266~84~ubuntu19.04.1*
G04 #@! TF.CreationDate,2019-09-04T21:57:40+02:00*
G04 #@! TF.ProjectId,PixelSlasher,50697865-6c53-46c6-9173-6865722e6b69,2.0.1*
G04 #@! TF.SameCoordinates,Original*
G04 #@! TF.FileFunction,Copper,L1,Top*
G04 #@! TF.FilePolarity,Positive*
%FSLAX46Y46*%
G04 Gerber Fmt 4.6, Leading zero omitted, Abs format (unit mm)*
G04 Created by KiCad (PCBNEW 5.1.4-e60b266~84~ubuntu19.04.1) date 2019-09-04 21:57:40*
%MOMM*%
%LPD*%
G04 APERTURE LIST*
%ADD10R,1.750000X1.750000*%
%ADD11C,1.750000*%
%ADD12C,2.700000*%
%ADD13R,1.700000X1.700000*%
%ADD14O,1.700000X1.700000*%
%ADD15O,1.500000X1.050000*%
%ADD16R,1.500000X1.050000*%
%ADD17R,1.050000X1.500000*%
%ADD18O,1.050000X1.500000*%
%ADD19O,1.600000X1.600000*%
%ADD20C,1.600000*%
%ADD21R,1.600000X1.600000*%
%ADD22O,5.550000X2.775000*%
%ADD23C,0.250000*%
%ADD24C,0.254000*%
G04 APERTURE END LIST*
D10*
X111026000Y-166655420D03*
D11*
X114526000Y-166655420D03*
X111026000Y-108155420D03*
D12*
X108576000Y-161305420D03*
X108576000Y-113505420D03*
X116976000Y-162505420D03*
X116976000Y-112305420D03*
D13*
X124945000Y-66030000D03*
D14*
X127485000Y-66030000D03*
X130025000Y-66030000D03*
X132565000Y-66030000D03*
X135105000Y-66030000D03*
D15*
X112345001Y-55880000D03*
X112345001Y-57150000D03*
D16*
X112345001Y-54610000D03*
D17*
X131290000Y-55520000D03*
D18*
X128750000Y-55520000D03*
X130020000Y-55520000D03*
D15*
X148160000Y-55880000D03*
X148160000Y-54610000D03*
D16*
X148160000Y-57150000D03*
D19*
X116515001Y-76200000D03*
D20*
X108895001Y-76200000D03*
X116515001Y-49530000D03*
D19*
X108895001Y-49530000D03*
D20*
X126210000Y-76200000D03*
D19*
X133830000Y-76200000D03*
X133830000Y-49530000D03*
D20*
X126210000Y-49530000D03*
X143990000Y-76200000D03*
D19*
X151610000Y-76200000D03*
D20*
X143990000Y-49530000D03*
D19*
X151610000Y-49530000D03*
D10*
X128270000Y-166655420D03*
D11*
X131770000Y-166655420D03*
X128270000Y-108155420D03*
D12*
X125820000Y-161305420D03*
X125820000Y-113505420D03*
X134220000Y-162505420D03*
X134220000Y-112305420D03*
X152000000Y-112305420D03*
X152000000Y-162505420D03*
X143600000Y-113505420D03*
X143600000Y-161305420D03*
D11*
X146050000Y-108155420D03*
X149550000Y-166655420D03*
D10*
X146050000Y-166655420D03*
D19*
X116525001Y-62230000D03*
X108905001Y-69850000D03*
X116525001Y-64770000D03*
X108905001Y-67310000D03*
X116525001Y-67310000D03*
X108905001Y-64770000D03*
X116525001Y-69850000D03*
D21*
X108905001Y-62230000D03*
D19*
X151620000Y-62230000D03*
X144000000Y-69850000D03*
X151620000Y-64770000D03*
X144000000Y-67310000D03*
X151620000Y-67310000D03*
X144000000Y-64770000D03*
X151620000Y-69850000D03*
D21*
X144000000Y-62230000D03*
D13*
X112705001Y-82810100D03*
X130020000Y-82810100D03*
X147800000Y-82810100D03*
D22*
X112776000Y-89325720D03*
X112776000Y-94025720D03*
X112776000Y-98725720D03*
X130020000Y-89325720D03*
X130020000Y-94025720D03*
X130020000Y-98725720D03*
X147800000Y-98725720D03*
X147800000Y-94025720D03*
X147800000Y-89325720D03*
D23*
X108105002Y-66510001D02*
X108039001Y-66510001D01*
X108905001Y-67310000D02*
X108105002Y-66510001D01*
X108039001Y-66510001D02*
X105679240Y-64150240D01*
X105679240Y-64150240D02*
X105679240Y-57505600D01*
X108574840Y-54610000D02*
X112345001Y-54610000D01*
X105679240Y-57505600D02*
X108574840Y-54610000D01*
X123665000Y-69850000D02*
X116525001Y-69850000D01*
X127485000Y-66030000D02*
X123665000Y-69850000D01*
X131290000Y-61022919D02*
X131290000Y-56520000D01*
X131290000Y-56520000D02*
X131290000Y-55520000D01*
X127485000Y-64827919D02*
X131290000Y-61022919D01*
X127485000Y-66030000D02*
X127485000Y-64827919D01*
X148160000Y-63150000D02*
X144318205Y-66991795D01*
X148160000Y-57150000D02*
X148160000Y-63150000D01*
X130025000Y-66030000D02*
X132433080Y-63621920D01*
X140311920Y-63621920D02*
X144000000Y-67310000D01*
X132433080Y-63621920D02*
X140311920Y-63621920D01*
X126210000Y-49530000D02*
X116515001Y-49530000D01*
X116515001Y-62220000D02*
X116525001Y-62230000D01*
X116515001Y-49530000D02*
X116515001Y-62220000D01*
X112522000Y-72573001D02*
X108895001Y-76200000D01*
X112522000Y-63881000D02*
X112522000Y-72573001D01*
X116525001Y-62230000D02*
X114173000Y-62230000D01*
X114173000Y-62230000D02*
X112522000Y-63881000D01*
X150820001Y-63029999D02*
X150711001Y-63029999D01*
X151620000Y-62230000D02*
X150820001Y-63029999D01*
X150711001Y-63029999D02*
X147701000Y-66040000D01*
X147701000Y-72489000D02*
X143990000Y-76200000D01*
X147701000Y-66040000D02*
X147701000Y-72489000D01*
X146911000Y-46609000D02*
X143990000Y-49530000D01*
X152908000Y-46609000D02*
X146911000Y-46609000D01*
X154686000Y-48387000D02*
X152908000Y-46609000D01*
X151620000Y-62230000D02*
X154686000Y-59164000D01*
X154686000Y-59164000D02*
X154686000Y-48387000D01*
X135105000Y-67305000D02*
X126210000Y-76200000D01*
X135105000Y-66030000D02*
X135105000Y-67305000D01*
X135105000Y-67315000D02*
X143990000Y-76200000D01*
X135105000Y-66030000D02*
X135105000Y-67315000D01*
X113345001Y-55880000D02*
X112345001Y-55880000D01*
X114935000Y-54290001D02*
X113345001Y-55880000D01*
X114935000Y-52070000D02*
X114935000Y-54290001D01*
X112395000Y-49530000D02*
X114935000Y-52070000D01*
X108895001Y-49530000D02*
X112395000Y-49530000D01*
X112120001Y-55880000D02*
X112345001Y-55880000D01*
X108905001Y-59095000D02*
X112120001Y-55880000D01*
X108905001Y-62230000D02*
X108905001Y-59095000D01*
X130020000Y-53340000D02*
X133830000Y-49530000D01*
X130020000Y-55520000D02*
X130020000Y-53340000D01*
X116525001Y-64770000D02*
X122483880Y-64770000D01*
X130020000Y-57233880D02*
X130020000Y-55520000D01*
X122483880Y-64770000D02*
X130020000Y-57233880D01*
X151610000Y-50661370D02*
X151610000Y-49530000D01*
X151610000Y-53430000D02*
X151610000Y-50661370D01*
X149160000Y-55880000D02*
X151610000Y-53430000D01*
X148160000Y-55880000D02*
X149160000Y-55880000D01*
X147160000Y-55880000D02*
X148160000Y-55880000D01*
X145462905Y-55880000D02*
X147160000Y-55880000D01*
X144000000Y-57342905D02*
X145462905Y-55880000D01*
X144000000Y-62230000D02*
X144000000Y-57342905D01*
X116515001Y-76200000D02*
X119245501Y-78930500D01*
X110932141Y-166655420D02*
X110932141Y-125513919D01*
X118557142Y-117888918D02*
X118559682Y-117888918D01*
X110932141Y-125513919D02*
X118557142Y-117888918D01*
X119245501Y-117203099D02*
X119245501Y-78930500D01*
X118559682Y-117888918D02*
X119245501Y-117203099D01*
X133830000Y-76200000D02*
X136588500Y-78958500D01*
X136588500Y-78958500D02*
X136588500Y-105531920D01*
X128247140Y-113873280D02*
X128247140Y-166655420D01*
X136588500Y-105531920D02*
X128247140Y-113873280D01*
X152409999Y-76999999D02*
X152412599Y-76999999D01*
X151610000Y-76200000D02*
X152409999Y-76999999D01*
X152412599Y-76999999D02*
X153327100Y-77914500D01*
X153327100Y-77914500D02*
X153327100Y-105524300D01*
X146027140Y-112824260D02*
X146027140Y-166655420D01*
X153327100Y-105524300D02*
X146027140Y-112824260D01*
X111388500Y-98725720D02*
X112776000Y-98725720D01*
X114432141Y-166655420D02*
X111052341Y-170035220D01*
X111052341Y-170035220D02*
X109075220Y-170035220D01*
X109075220Y-170035220D02*
X105410000Y-166370000D01*
X105410000Y-104704220D02*
X106327110Y-103787110D01*
X105410000Y-166370000D02*
X105410000Y-104704220D01*
X105796080Y-104318140D02*
X106327110Y-103787110D01*
X106327110Y-103787110D02*
X111388500Y-98725720D01*
X130020000Y-100363220D02*
X123245880Y-107137340D01*
X130020000Y-98725720D02*
X130020000Y-100363220D01*
X123245880Y-107137340D02*
X123245880Y-166405560D01*
X123245880Y-166405560D02*
X126570740Y-169730420D01*
X128672140Y-169730420D02*
X131747140Y-166655420D01*
X126570740Y-169730420D02*
X128672140Y-169730420D01*
X142660640Y-98725720D02*
X147800000Y-98725720D01*
X140594080Y-100792280D02*
X142660640Y-98725720D01*
X140594080Y-165994080D02*
X144213580Y-169613580D01*
X140594080Y-100792280D02*
X140594080Y-165994080D01*
X146568980Y-169613580D02*
X144213580Y-169613580D01*
X149527140Y-166655420D02*
X146568980Y-169613580D01*
X112705001Y-89254721D02*
X112776000Y-89325720D01*
X112705001Y-82810100D02*
X112705001Y-89254721D01*
X130020000Y-82810100D02*
X130020000Y-89325720D01*
X147800000Y-82810100D02*
X147800000Y-89325720D01*
X109705000Y-65569999D02*
X109705000Y-65572500D01*
X108905001Y-64770000D02*
X109705000Y-65569999D01*
X111388500Y-94025720D02*
X107256580Y-89893800D01*
X112776000Y-94025720D02*
X111388500Y-94025720D01*
X107256580Y-89893800D02*
X107256580Y-75059540D01*
X107256580Y-75059540D02*
X111043720Y-71272400D01*
X111043720Y-66908719D02*
X108905001Y-64770000D01*
X111043720Y-71272400D02*
X111043720Y-66908719D01*
X128632500Y-94025720D02*
X121831100Y-87224320D01*
X130020000Y-94025720D02*
X128632500Y-94025720D01*
X121831100Y-87224320D02*
X121831100Y-77630020D01*
X116525001Y-67310000D02*
X115331240Y-67310000D01*
X115331240Y-67310000D02*
X113908840Y-68732400D01*
X113908840Y-69707760D02*
X121831100Y-77630020D01*
X113908840Y-68732400D02*
X113908840Y-69707760D01*
D24*
G36*
X155965001Y-179773346D02*
G01*
X155923115Y-179672224D01*
X155763560Y-179433434D01*
X155560486Y-179230360D01*
X155321696Y-179070805D01*
X155056367Y-178960902D01*
X154774695Y-178904874D01*
X154487505Y-178904874D01*
X154205833Y-178960902D01*
X153940504Y-179070805D01*
X153701714Y-179230360D01*
X153498640Y-179433434D01*
X153339085Y-179672224D01*
X153229182Y-179937553D01*
X153173154Y-180219225D01*
X153173154Y-180506415D01*
X153229182Y-180788087D01*
X153339085Y-181053416D01*
X153498640Y-181292206D01*
X153701714Y-181495280D01*
X153940504Y-181654835D01*
X153971853Y-181667820D01*
X106480347Y-181667820D01*
X106511696Y-181654835D01*
X106750486Y-181495280D01*
X106953560Y-181292206D01*
X107113115Y-181053416D01*
X107223018Y-180788087D01*
X107279046Y-180506415D01*
X107279046Y-180219225D01*
X107223018Y-179937553D01*
X107113115Y-179672224D01*
X106953560Y-179433434D01*
X106750486Y-179230360D01*
X106511696Y-179070805D01*
X106246367Y-178960902D01*
X105964695Y-178904874D01*
X105677505Y-178904874D01*
X105395833Y-178960902D01*
X105130504Y-179070805D01*
X104891714Y-179230360D01*
X104688640Y-179433434D01*
X104545000Y-179648406D01*
X104545000Y-104704220D01*
X104646324Y-104704220D01*
X104650001Y-104741553D01*
X104650000Y-166332678D01*
X104646324Y-166370000D01*
X104650000Y-166407322D01*
X104650000Y-166407332D01*
X104660997Y-166518985D01*
X104702383Y-166655420D01*
X104704454Y-166662246D01*
X104775026Y-166794276D01*
X104783339Y-166804405D01*
X104869999Y-166910001D01*
X104899003Y-166933804D01*
X108511421Y-170546223D01*
X108535219Y-170575221D01*
X108650944Y-170670194D01*
X108782973Y-170740766D01*
X108926234Y-170784223D01*
X109037887Y-170795220D01*
X109037897Y-170795220D01*
X109075220Y-170798896D01*
X109112543Y-170795220D01*
X111015019Y-170795220D01*
X111052341Y-170798896D01*
X111089663Y-170795220D01*
X111089674Y-170795220D01*
X111201327Y-170784223D01*
X111344588Y-170740766D01*
X111476617Y-170670194D01*
X111592342Y-170575221D01*
X111616145Y-170546217D01*
X114063928Y-168098435D01*
X114085549Y-168107391D01*
X114377278Y-168165420D01*
X114674722Y-168165420D01*
X114966451Y-168107391D01*
X115241253Y-167993564D01*
X115488569Y-167828313D01*
X115698893Y-167617989D01*
X115864144Y-167370673D01*
X115977971Y-167095871D01*
X116036000Y-166804142D01*
X116036000Y-166506698D01*
X115977971Y-166214969D01*
X115864144Y-165940167D01*
X115698893Y-165692851D01*
X115488569Y-165482527D01*
X115241253Y-165317276D01*
X114966451Y-165203449D01*
X114674722Y-165145420D01*
X114377278Y-165145420D01*
X114085549Y-165203449D01*
X113810747Y-165317276D01*
X113563431Y-165482527D01*
X113353107Y-165692851D01*
X113187856Y-165940167D01*
X113074029Y-166214969D01*
X113016000Y-166506698D01*
X113016000Y-166804142D01*
X113047957Y-166964802D01*
X112539072Y-167473687D01*
X112539072Y-165780420D01*
X112526812Y-165655938D01*
X112490502Y-165536240D01*
X112431537Y-165425926D01*
X112352185Y-165329235D01*
X112255494Y-165249883D01*
X112145180Y-165190918D01*
X112025482Y-165154608D01*
X111901000Y-165142348D01*
X111692141Y-165142348D01*
X111692141Y-162309915D01*
X114991000Y-162309915D01*
X114991000Y-162700925D01*
X115067282Y-163084423D01*
X115216915Y-163445670D01*
X115434149Y-163770784D01*
X115710636Y-164047271D01*
X116035750Y-164264505D01*
X116396997Y-164414138D01*
X116780495Y-164490420D01*
X117171505Y-164490420D01*
X117555003Y-164414138D01*
X117916250Y-164264505D01*
X118241364Y-164047271D01*
X118517851Y-163770784D01*
X118735085Y-163445670D01*
X118884718Y-163084423D01*
X118961000Y-162700925D01*
X118961000Y-162309915D01*
X118884718Y-161926417D01*
X118735085Y-161565170D01*
X118517851Y-161240056D01*
X118241364Y-160963569D01*
X117916250Y-160746335D01*
X117555003Y-160596702D01*
X117171505Y-160520420D01*
X116780495Y-160520420D01*
X116396997Y-160596702D01*
X116035750Y-160746335D01*
X115710636Y-160963569D01*
X115434149Y-161240056D01*
X115216915Y-161565170D01*
X115067282Y-161926417D01*
X114991000Y-162309915D01*
X111692141Y-162309915D01*
X111692141Y-125828720D01*
X119056520Y-118464342D01*
X119099683Y-118428919D01*
X119123485Y-118399916D01*
X119756505Y-117766897D01*
X119785502Y-117743100D01*
X119880475Y-117627375D01*
X119951047Y-117495346D01*
X119994504Y-117352085D01*
X120005501Y-117240432D01*
X120005501Y-117240431D01*
X120009178Y-117203099D01*
X120005501Y-117165766D01*
X120005501Y-107137340D01*
X122482204Y-107137340D01*
X122485880Y-107174662D01*
X122485881Y-166368227D01*
X122482204Y-166405560D01*
X122496878Y-166554545D01*
X122540334Y-166697806D01*
X122610906Y-166829836D01*
X122682081Y-166916562D01*
X122705880Y-166945561D01*
X122734878Y-166969359D01*
X126006941Y-170241423D01*
X126030739Y-170270421D01*
X126059737Y-170294219D01*
X126146463Y-170365394D01*
X126278493Y-170435966D01*
X126421754Y-170479423D01*
X126533407Y-170490420D01*
X126533416Y-170490420D01*
X126570739Y-170494096D01*
X126608062Y-170490420D01*
X128634818Y-170490420D01*
X128672140Y-170494096D01*
X128709462Y-170490420D01*
X128709473Y-170490420D01*
X128821126Y-170479423D01*
X128964387Y-170435966D01*
X129096416Y-170365394D01*
X129212141Y-170270421D01*
X129235944Y-170241417D01*
X131363264Y-168114097D01*
X131621278Y-168165420D01*
X131918722Y-168165420D01*
X132210451Y-168107391D01*
X132485253Y-167993564D01*
X132732569Y-167828313D01*
X132942893Y-167617989D01*
X133108144Y-167370673D01*
X133221971Y-167095871D01*
X133280000Y-166804142D01*
X133280000Y-166506698D01*
X133221971Y-166214969D01*
X133108144Y-165940167D01*
X132942893Y-165692851D01*
X132732569Y-165482527D01*
X132485253Y-165317276D01*
X132210451Y-165203449D01*
X131918722Y-165145420D01*
X131621278Y-165145420D01*
X131329549Y-165203449D01*
X131054747Y-165317276D01*
X130807431Y-165482527D01*
X130597107Y-165692851D01*
X130431856Y-165940167D01*
X130318029Y-166214969D01*
X130260000Y-166506698D01*
X130260000Y-166804142D01*
X130303737Y-167024021D01*
X129781513Y-167546245D01*
X129783072Y-167530420D01*
X129783072Y-165780420D01*
X129770812Y-165655938D01*
X129734502Y-165536240D01*
X129675537Y-165425926D01*
X129596185Y-165329235D01*
X129499494Y-165249883D01*
X129389180Y-165190918D01*
X129269482Y-165154608D01*
X129145000Y-165142348D01*
X129007140Y-165142348D01*
X129007140Y-162309915D01*
X132235000Y-162309915D01*
X132235000Y-162700925D01*
X132311282Y-163084423D01*
X132460915Y-163445670D01*
X132678149Y-163770784D01*
X132954636Y-164047271D01*
X133279750Y-164264505D01*
X133640997Y-164414138D01*
X134024495Y-164490420D01*
X134415505Y-164490420D01*
X134799003Y-164414138D01*
X135160250Y-164264505D01*
X135485364Y-164047271D01*
X135761851Y-163770784D01*
X135979085Y-163445670D01*
X136128718Y-163084423D01*
X136205000Y-162700925D01*
X136205000Y-162309915D01*
X136128718Y-161926417D01*
X135979085Y-161565170D01*
X135761851Y-161240056D01*
X135485364Y-160963569D01*
X135160250Y-160746335D01*
X134799003Y-160596702D01*
X134415505Y-160520420D01*
X134024495Y-160520420D01*
X133640997Y-160596702D01*
X133279750Y-160746335D01*
X132954636Y-160963569D01*
X132678149Y-161240056D01*
X132460915Y-161565170D01*
X132311282Y-161926417D01*
X132235000Y-162309915D01*
X129007140Y-162309915D01*
X129007140Y-114188081D01*
X131085306Y-112109915D01*
X132235000Y-112109915D01*
X132235000Y-112500925D01*
X132311282Y-112884423D01*
X132460915Y-113245670D01*
X132678149Y-113570784D01*
X132954636Y-113847271D01*
X133279750Y-114064505D01*
X133640997Y-114214138D01*
X134024495Y-114290420D01*
X134415505Y-114290420D01*
X134799003Y-114214138D01*
X135160250Y-114064505D01*
X135485364Y-113847271D01*
X135761851Y-113570784D01*
X135979085Y-113245670D01*
X136128718Y-112884423D01*
X136205000Y-112500925D01*
X136205000Y-112109915D01*
X136128718Y-111726417D01*
X135979085Y-111365170D01*
X135761851Y-111040056D01*
X135485364Y-110763569D01*
X135160250Y-110546335D01*
X134799003Y-110396702D01*
X134415505Y-110320420D01*
X134024495Y-110320420D01*
X133640997Y-110396702D01*
X133279750Y-110546335D01*
X132954636Y-110763569D01*
X132678149Y-111040056D01*
X132460915Y-111365170D01*
X132311282Y-111726417D01*
X132235000Y-112109915D01*
X131085306Y-112109915D01*
X137099508Y-106095715D01*
X137128501Y-106071921D01*
X137152295Y-106042928D01*
X137152299Y-106042924D01*
X137223473Y-105956197D01*
X137227547Y-105948576D01*
X137294046Y-105824167D01*
X137337503Y-105680906D01*
X137348500Y-105569253D01*
X137348500Y-105569244D01*
X137352176Y-105531921D01*
X137348500Y-105494598D01*
X137348500Y-100792280D01*
X139830404Y-100792280D01*
X139834080Y-100829602D01*
X139834081Y-165956747D01*
X139830404Y-165994080D01*
X139845078Y-166143065D01*
X139888534Y-166286326D01*
X139959106Y-166418356D01*
X140030281Y-166505082D01*
X140054080Y-166534081D01*
X140083078Y-166557879D01*
X143649781Y-170124583D01*
X143673579Y-170153581D01*
X143702577Y-170177379D01*
X143789303Y-170248554D01*
X143874736Y-170294219D01*
X143921333Y-170319126D01*
X144064594Y-170362583D01*
X144176247Y-170373580D01*
X144176257Y-170373580D01*
X144213580Y-170377256D01*
X144250902Y-170373580D01*
X146531658Y-170373580D01*
X146568980Y-170377256D01*
X146606302Y-170373580D01*
X146606313Y-170373580D01*
X146717966Y-170362583D01*
X146861227Y-170319126D01*
X146993256Y-170248554D01*
X147108981Y-170153581D01*
X147132784Y-170124577D01*
X149143264Y-168114097D01*
X149401278Y-168165420D01*
X149698722Y-168165420D01*
X149990451Y-168107391D01*
X150265253Y-167993564D01*
X150512569Y-167828313D01*
X150722893Y-167617989D01*
X150888144Y-167370673D01*
X151001971Y-167095871D01*
X151060000Y-166804142D01*
X151060000Y-166506698D01*
X151001971Y-166214969D01*
X150888144Y-165940167D01*
X150722893Y-165692851D01*
X150512569Y-165482527D01*
X150265253Y-165317276D01*
X149990451Y-165203449D01*
X149698722Y-165145420D01*
X149401278Y-165145420D01*
X149109549Y-165203449D01*
X148834747Y-165317276D01*
X148587431Y-165482527D01*
X148377107Y-165692851D01*
X148211856Y-165940167D01*
X148098029Y-166214969D01*
X148040000Y-166506698D01*
X148040000Y-166804142D01*
X148083737Y-167024021D01*
X147561513Y-167546245D01*
X147563072Y-167530420D01*
X147563072Y-165780420D01*
X147550812Y-165655938D01*
X147514502Y-165536240D01*
X147455537Y-165425926D01*
X147376185Y-165329235D01*
X147279494Y-165249883D01*
X147169180Y-165190918D01*
X147049482Y-165154608D01*
X146925000Y-165142348D01*
X146787140Y-165142348D01*
X146787140Y-162309915D01*
X150015000Y-162309915D01*
X150015000Y-162700925D01*
X150091282Y-163084423D01*
X150240915Y-163445670D01*
X150458149Y-163770784D01*
X150734636Y-164047271D01*
X151059750Y-164264505D01*
X151420997Y-164414138D01*
X151804495Y-164490420D01*
X152195505Y-164490420D01*
X152579003Y-164414138D01*
X152940250Y-164264505D01*
X153265364Y-164047271D01*
X153541851Y-163770784D01*
X153759085Y-163445670D01*
X153908718Y-163084423D01*
X153985000Y-162700925D01*
X153985000Y-162309915D01*
X153908718Y-161926417D01*
X153759085Y-161565170D01*
X153541851Y-161240056D01*
X153265364Y-160963569D01*
X152940250Y-160746335D01*
X152579003Y-160596702D01*
X152195505Y-160520420D01*
X151804495Y-160520420D01*
X151420997Y-160596702D01*
X151059750Y-160746335D01*
X150734636Y-160963569D01*
X150458149Y-161240056D01*
X150240915Y-161565170D01*
X150091282Y-161926417D01*
X150015000Y-162309915D01*
X146787140Y-162309915D01*
X146787140Y-113139061D01*
X147816286Y-112109915D01*
X150015000Y-112109915D01*
X150015000Y-112500925D01*
X150091282Y-112884423D01*
X150240915Y-113245670D01*
X150458149Y-113570784D01*
X150734636Y-113847271D01*
X151059750Y-114064505D01*
X151420997Y-114214138D01*
X151804495Y-114290420D01*
X152195505Y-114290420D01*
X152579003Y-114214138D01*
X152940250Y-114064505D01*
X153265364Y-113847271D01*
X153541851Y-113570784D01*
X153759085Y-113245670D01*
X153908718Y-112884423D01*
X153985000Y-112500925D01*
X153985000Y-112109915D01*
X153908718Y-111726417D01*
X153759085Y-111365170D01*
X153541851Y-111040056D01*
X153265364Y-110763569D01*
X152940250Y-110546335D01*
X152579003Y-110396702D01*
X152195505Y-110320420D01*
X151804495Y-110320420D01*
X151420997Y-110396702D01*
X151059750Y-110546335D01*
X150734636Y-110763569D01*
X150458149Y-111040056D01*
X150240915Y-111365170D01*
X150091282Y-111726417D01*
X150015000Y-112109915D01*
X147816286Y-112109915D01*
X153838108Y-106088095D01*
X153867101Y-106064301D01*
X153890895Y-106035308D01*
X153890899Y-106035304D01*
X153962073Y-105948577D01*
X153962074Y-105948576D01*
X154032646Y-105816547D01*
X154076103Y-105673286D01*
X154087100Y-105561633D01*
X154087100Y-105561624D01*
X154090776Y-105524301D01*
X154087100Y-105486978D01*
X154087100Y-77951825D01*
X154090776Y-77914500D01*
X154087100Y-77877175D01*
X154087100Y-77877167D01*
X154076103Y-77765514D01*
X154032646Y-77622253D01*
X153962074Y-77490224D01*
X153867101Y-77374499D01*
X153838104Y-77350702D01*
X153011313Y-76523912D01*
X153024236Y-76481309D01*
X153051943Y-76200000D01*
X153024236Y-75918691D01*
X152942182Y-75648192D01*
X152808932Y-75398899D01*
X152629608Y-75180392D01*
X152411101Y-75001068D01*
X152161808Y-74867818D01*
X151891309Y-74785764D01*
X151680492Y-74765000D01*
X151539508Y-74765000D01*
X151328691Y-74785764D01*
X151058192Y-74867818D01*
X150808899Y-75001068D01*
X150590392Y-75180392D01*
X150411068Y-75398899D01*
X150277818Y-75648192D01*
X150195764Y-75918691D01*
X150168057Y-76200000D01*
X150195764Y-76481309D01*
X150277818Y-76751808D01*
X150411068Y-77001101D01*
X150590392Y-77219608D01*
X150808899Y-77398932D01*
X151058192Y-77532182D01*
X151328691Y-77614236D01*
X151539508Y-77635000D01*
X151680492Y-77635000D01*
X151891309Y-77614236D01*
X151937901Y-77600103D01*
X152567100Y-78229302D01*
X152567101Y-105209496D01*
X145516143Y-112260456D01*
X145487139Y-112284259D01*
X145432011Y-112351434D01*
X145392166Y-112399984D01*
X145338212Y-112500925D01*
X145328410Y-112519262D01*
X145141851Y-112240056D01*
X144865364Y-111963569D01*
X144540250Y-111746335D01*
X144179003Y-111596702D01*
X143795505Y-111520420D01*
X143404495Y-111520420D01*
X143020997Y-111596702D01*
X142659750Y-111746335D01*
X142334636Y-111963569D01*
X142058149Y-112240056D01*
X141840915Y-112565170D01*
X141691282Y-112926417D01*
X141615000Y-113309915D01*
X141615000Y-113700925D01*
X141691282Y-114084423D01*
X141840915Y-114445670D01*
X142058149Y-114770784D01*
X142334636Y-115047271D01*
X142659750Y-115264505D01*
X143020997Y-115414138D01*
X143404495Y-115490420D01*
X143795505Y-115490420D01*
X144179003Y-115414138D01*
X144540250Y-115264505D01*
X144865364Y-115047271D01*
X145141851Y-114770784D01*
X145267140Y-114583276D01*
X145267141Y-160227566D01*
X145141851Y-160040056D01*
X144865364Y-159763569D01*
X144540250Y-159546335D01*
X144179003Y-159396702D01*
X143795505Y-159320420D01*
X143404495Y-159320420D01*
X143020997Y-159396702D01*
X142659750Y-159546335D01*
X142334636Y-159763569D01*
X142058149Y-160040056D01*
X141840915Y-160365170D01*
X141691282Y-160726417D01*
X141615000Y-161109915D01*
X141615000Y-161500925D01*
X141691282Y-161884423D01*
X141840915Y-162245670D01*
X142058149Y-162570784D01*
X142334636Y-162847271D01*
X142659750Y-163064505D01*
X143020997Y-163214138D01*
X143404495Y-163290420D01*
X143795505Y-163290420D01*
X144179003Y-163214138D01*
X144540250Y-163064505D01*
X144865364Y-162847271D01*
X145141851Y-162570784D01*
X145267141Y-162383274D01*
X145267141Y-165142348D01*
X145175000Y-165142348D01*
X145050518Y-165154608D01*
X144930820Y-165190918D01*
X144820506Y-165249883D01*
X144723815Y-165329235D01*
X144644463Y-165425926D01*
X144585498Y-165536240D01*
X144549188Y-165655938D01*
X144536928Y-165780420D01*
X144536928Y-167530420D01*
X144549188Y-167654902D01*
X144585498Y-167774600D01*
X144644463Y-167884914D01*
X144723815Y-167981605D01*
X144820506Y-168060957D01*
X144930820Y-168119922D01*
X145050518Y-168156232D01*
X145175000Y-168168492D01*
X146925000Y-168168492D01*
X146940825Y-168166933D01*
X146254179Y-168853580D01*
X144528382Y-168853580D01*
X141354080Y-165679279D01*
X141354080Y-109201660D01*
X145183365Y-109201660D01*
X145264025Y-109453288D01*
X145532329Y-109581687D01*
X145820526Y-109655275D01*
X146117543Y-109671224D01*
X146411963Y-109628921D01*
X146692474Y-109529992D01*
X146835975Y-109453288D01*
X146916635Y-109201660D01*
X146050000Y-108335025D01*
X145183365Y-109201660D01*
X141354080Y-109201660D01*
X141354080Y-108222963D01*
X144534196Y-108222963D01*
X144576499Y-108517383D01*
X144675428Y-108797894D01*
X144752132Y-108941395D01*
X145003760Y-109022055D01*
X145870395Y-108155420D01*
X146229605Y-108155420D01*
X147096240Y-109022055D01*
X147347868Y-108941395D01*
X147476267Y-108673091D01*
X147549855Y-108384894D01*
X147565804Y-108087877D01*
X147523501Y-107793457D01*
X147424572Y-107512946D01*
X147347868Y-107369445D01*
X147096240Y-107288785D01*
X146229605Y-108155420D01*
X145870395Y-108155420D01*
X145003760Y-107288785D01*
X144752132Y-107369445D01*
X144623733Y-107637749D01*
X144550145Y-107925946D01*
X144534196Y-108222963D01*
X141354080Y-108222963D01*
X141354080Y-107109180D01*
X145183365Y-107109180D01*
X146050000Y-107975815D01*
X146916635Y-107109180D01*
X146835975Y-106857552D01*
X146567671Y-106729153D01*
X146279474Y-106655565D01*
X145982457Y-106639616D01*
X145688037Y-106681919D01*
X145407526Y-106780848D01*
X145264025Y-106857552D01*
X145183365Y-107109180D01*
X141354080Y-107109180D01*
X141354080Y-101107081D01*
X142975442Y-99485720D01*
X144529537Y-99485720D01*
X144534913Y-99503442D01*
X144722716Y-99854798D01*
X144975457Y-100162763D01*
X145283422Y-100415504D01*
X145634778Y-100603307D01*
X146016021Y-100718956D01*
X146313142Y-100748220D01*
X149286858Y-100748220D01*
X149583979Y-100718956D01*
X149965222Y-100603307D01*
X150316578Y-100415504D01*
X150624543Y-100162763D01*
X150877284Y-99854798D01*
X151065087Y-99503442D01*
X151180736Y-99122199D01*
X151219786Y-98725720D01*
X151180736Y-98329241D01*
X151065087Y-97947998D01*
X150877284Y-97596642D01*
X150624543Y-97288677D01*
X150316578Y-97035936D01*
X149965222Y-96848133D01*
X149583979Y-96732484D01*
X149286858Y-96703220D01*
X146313142Y-96703220D01*
X146016021Y-96732484D01*
X145634778Y-96848133D01*
X145283422Y-97035936D01*
X144975457Y-97288677D01*
X144722716Y-97596642D01*
X144534913Y-97947998D01*
X144529537Y-97965720D01*
X142697962Y-97965720D01*
X142660639Y-97962044D01*
X142623316Y-97965720D01*
X142623307Y-97965720D01*
X142511654Y-97976717D01*
X142368393Y-98020174D01*
X142236364Y-98090746D01*
X142120639Y-98185719D01*
X142096841Y-98214717D01*
X140083083Y-100228476D01*
X140054079Y-100252279D01*
X139998951Y-100319454D01*
X139959106Y-100368004D01*
X139941708Y-100400553D01*
X139888534Y-100500034D01*
X139845077Y-100643295D01*
X139834080Y-100754948D01*
X139834080Y-100754958D01*
X139830404Y-100792280D01*
X137348500Y-100792280D01*
X137348500Y-94025720D01*
X144380214Y-94025720D01*
X144419264Y-94422199D01*
X144534913Y-94803442D01*
X144722716Y-95154798D01*
X144975457Y-95462763D01*
X145283422Y-95715504D01*
X145634778Y-95903307D01*
X146016021Y-96018956D01*
X146313142Y-96048220D01*
X149286858Y-96048220D01*
X149583979Y-96018956D01*
X149965222Y-95903307D01*
X150316578Y-95715504D01*
X150624543Y-95462763D01*
X150877284Y-95154798D01*
X151065087Y-94803442D01*
X151180736Y-94422199D01*
X151219786Y-94025720D01*
X151180736Y-93629241D01*
X151065087Y-93247998D01*
X150877284Y-92896642D01*
X150624543Y-92588677D01*
X150316578Y-92335936D01*
X149965222Y-92148133D01*
X149583979Y-92032484D01*
X149286858Y-92003220D01*
X146313142Y-92003220D01*
X146016021Y-92032484D01*
X145634778Y-92148133D01*
X145283422Y-92335936D01*
X144975457Y-92588677D01*
X144722716Y-92896642D01*
X144534913Y-93247998D01*
X144419264Y-93629241D01*
X144380214Y-94025720D01*
X137348500Y-94025720D01*
X137348500Y-89325720D01*
X144380214Y-89325720D01*
X144419264Y-89722199D01*
X144534913Y-90103442D01*
X144722716Y-90454798D01*
X144975457Y-90762763D01*
X145283422Y-91015504D01*
X145634778Y-91203307D01*
X146016021Y-91318956D01*
X146313142Y-91348220D01*
X149286858Y-91348220D01*
X149583979Y-91318956D01*
X149965222Y-91203307D01*
X150316578Y-91015504D01*
X150624543Y-90762763D01*
X150877284Y-90454798D01*
X151065087Y-90103442D01*
X151180736Y-89722199D01*
X151219786Y-89325720D01*
X151180736Y-88929241D01*
X151065087Y-88547998D01*
X150877284Y-88196642D01*
X150624543Y-87888677D01*
X150316578Y-87635936D01*
X149965222Y-87448133D01*
X149583979Y-87332484D01*
X149286858Y-87303220D01*
X148560000Y-87303220D01*
X148560000Y-84298172D01*
X148650000Y-84298172D01*
X148774482Y-84285912D01*
X148894180Y-84249602D01*
X149004494Y-84190637D01*
X149101185Y-84111285D01*
X149180537Y-84014594D01*
X149239502Y-83904280D01*
X149275812Y-83784582D01*
X149288072Y-83660100D01*
X149288072Y-81960100D01*
X149275812Y-81835618D01*
X149239502Y-81715920D01*
X149180537Y-81605606D01*
X149101185Y-81508915D01*
X149004494Y-81429563D01*
X148894180Y-81370598D01*
X148774482Y-81334288D01*
X148650000Y-81322028D01*
X146950000Y-81322028D01*
X146825518Y-81334288D01*
X146705820Y-81370598D01*
X146595506Y-81429563D01*
X146498815Y-81508915D01*
X146419463Y-81605606D01*
X146360498Y-81715920D01*
X146324188Y-81835618D01*
X146311928Y-81960100D01*
X146311928Y-83660100D01*
X146324188Y-83784582D01*
X146360498Y-83904280D01*
X146419463Y-84014594D01*
X146498815Y-84111285D01*
X146595506Y-84190637D01*
X146705820Y-84249602D01*
X146825518Y-84285912D01*
X146950000Y-84298172D01*
X147040000Y-84298172D01*
X147040001Y-87303220D01*
X146313142Y-87303220D01*
X146016021Y-87332484D01*
X145634778Y-87448133D01*
X145283422Y-87635936D01*
X144975457Y-87888677D01*
X144722716Y-88196642D01*
X144534913Y-88547998D01*
X144419264Y-88929241D01*
X144380214Y-89325720D01*
X137348500Y-89325720D01*
X137348500Y-78995822D01*
X137352176Y-78958499D01*
X137348500Y-78921176D01*
X137348500Y-78921167D01*
X137337503Y-78809514D01*
X137294046Y-78666253D01*
X137292576Y-78663503D01*
X137223474Y-78534223D01*
X137152299Y-78447497D01*
X137128501Y-78418499D01*
X137099504Y-78394702D01*
X135230708Y-76525906D01*
X135244236Y-76481309D01*
X135271943Y-76200000D01*
X135244236Y-75918691D01*
X135162182Y-75648192D01*
X135028932Y-75398899D01*
X134849608Y-75180392D01*
X134631101Y-75001068D01*
X134381808Y-74867818D01*
X134111309Y-74785764D01*
X133900492Y-74765000D01*
X133759508Y-74765000D01*
X133548691Y-74785764D01*
X133278192Y-74867818D01*
X133028899Y-75001068D01*
X132810392Y-75180392D01*
X132631068Y-75398899D01*
X132497818Y-75648192D01*
X132415764Y-75918691D01*
X132388057Y-76200000D01*
X132415764Y-76481309D01*
X132497818Y-76751808D01*
X132631068Y-77001101D01*
X132810392Y-77219608D01*
X133028899Y-77398932D01*
X133278192Y-77532182D01*
X133548691Y-77614236D01*
X133759508Y-77635000D01*
X133900492Y-77635000D01*
X134111309Y-77614236D01*
X134155906Y-77600708D01*
X135828500Y-79273302D01*
X135828501Y-105217116D01*
X127793503Y-113252116D01*
X127728718Y-112926417D01*
X127579085Y-112565170D01*
X127361851Y-112240056D01*
X127085364Y-111963569D01*
X126760250Y-111746335D01*
X126399003Y-111596702D01*
X126015505Y-111520420D01*
X125624495Y-111520420D01*
X125240997Y-111596702D01*
X124879750Y-111746335D01*
X124554636Y-111963569D01*
X124278149Y-112240056D01*
X124060915Y-112565170D01*
X124005880Y-112698037D01*
X124005880Y-109201660D01*
X127403365Y-109201660D01*
X127484025Y-109453288D01*
X127752329Y-109581687D01*
X128040526Y-109655275D01*
X128337543Y-109671224D01*
X128631963Y-109628921D01*
X128912474Y-109529992D01*
X129055975Y-109453288D01*
X129136635Y-109201660D01*
X128270000Y-108335025D01*
X127403365Y-109201660D01*
X124005880Y-109201660D01*
X124005880Y-108222963D01*
X126754196Y-108222963D01*
X126796499Y-108517383D01*
X126895428Y-108797894D01*
X126972132Y-108941395D01*
X127223760Y-109022055D01*
X128090395Y-108155420D01*
X128449605Y-108155420D01*
X129316240Y-109022055D01*
X129567868Y-108941395D01*
X129696267Y-108673091D01*
X129769855Y-108384894D01*
X129785804Y-108087877D01*
X129743501Y-107793457D01*
X129644572Y-107512946D01*
X129567868Y-107369445D01*
X129316240Y-107288785D01*
X128449605Y-108155420D01*
X128090395Y-108155420D01*
X127223760Y-107288785D01*
X126972132Y-107369445D01*
X126843733Y-107637749D01*
X126770145Y-107925946D01*
X126754196Y-108222963D01*
X124005880Y-108222963D01*
X124005880Y-107452141D01*
X124348841Y-107109180D01*
X127403365Y-107109180D01*
X128270000Y-107975815D01*
X129136635Y-107109180D01*
X129055975Y-106857552D01*
X128787671Y-106729153D01*
X128499474Y-106655565D01*
X128202457Y-106639616D01*
X127908037Y-106681919D01*
X127627526Y-106780848D01*
X127484025Y-106857552D01*
X127403365Y-107109180D01*
X124348841Y-107109180D01*
X130531008Y-100927015D01*
X130560001Y-100903221D01*
X130583795Y-100874228D01*
X130583799Y-100874224D01*
X130654973Y-100787497D01*
X130654974Y-100787496D01*
X130675968Y-100748220D01*
X131506858Y-100748220D01*
X131803979Y-100718956D01*
X132185222Y-100603307D01*
X132536578Y-100415504D01*
X132844543Y-100162763D01*
X133097284Y-99854798D01*
X133285087Y-99503442D01*
X133400736Y-99122199D01*
X133439786Y-98725720D01*
X133400736Y-98329241D01*
X133285087Y-97947998D01*
X133097284Y-97596642D01*
X132844543Y-97288677D01*
X132536578Y-97035936D01*
X132185222Y-96848133D01*
X131803979Y-96732484D01*
X131506858Y-96703220D01*
X128533142Y-96703220D01*
X128236021Y-96732484D01*
X127854778Y-96848133D01*
X127503422Y-97035936D01*
X127195457Y-97288677D01*
X126942716Y-97596642D01*
X126754913Y-97947998D01*
X126639264Y-98329241D01*
X126600214Y-98725720D01*
X126639264Y-99122199D01*
X126754913Y-99503442D01*
X126942716Y-99854798D01*
X127195457Y-100162763D01*
X127503422Y-100415504D01*
X127854778Y-100603307D01*
X128236021Y-100718956D01*
X128533142Y-100748220D01*
X128560197Y-100748220D01*
X122734883Y-106573536D01*
X122705879Y-106597339D01*
X122658095Y-106655565D01*
X122610906Y-106713064D01*
X122540335Y-106845093D01*
X122540334Y-106845094D01*
X122496877Y-106988355D01*
X122485880Y-107100008D01*
X122485880Y-107100018D01*
X122482204Y-107137340D01*
X120005501Y-107137340D01*
X120005501Y-78967822D01*
X120009177Y-78930499D01*
X120005501Y-78893176D01*
X120005501Y-78893167D01*
X119994504Y-78781514D01*
X119951047Y-78638253D01*
X119895441Y-78534223D01*
X119880475Y-78506223D01*
X119809300Y-78419497D01*
X119785502Y-78390499D01*
X119756504Y-78366701D01*
X117915709Y-76525906D01*
X117929237Y-76481309D01*
X117956944Y-76200000D01*
X117929237Y-75918691D01*
X117847183Y-75648192D01*
X117713933Y-75398899D01*
X117534609Y-75180392D01*
X117316102Y-75001068D01*
X117066809Y-74867818D01*
X116796310Y-74785764D01*
X116585493Y-74765000D01*
X116444509Y-74765000D01*
X116233692Y-74785764D01*
X115963193Y-74867818D01*
X115713900Y-75001068D01*
X115495393Y-75180392D01*
X115316069Y-75398899D01*
X115182819Y-75648192D01*
X115100765Y-75918691D01*
X115073058Y-76200000D01*
X115100765Y-76481309D01*
X115182819Y-76751808D01*
X115316069Y-77001101D01*
X115495393Y-77219608D01*
X115713900Y-77398932D01*
X115963193Y-77532182D01*
X116233692Y-77614236D01*
X116444509Y-77635000D01*
X116585493Y-77635000D01*
X116796310Y-77614236D01*
X116840907Y-77600708D01*
X118485502Y-79245303D01*
X118485501Y-111007706D01*
X118241364Y-110763569D01*
X117916250Y-110546335D01*
X117555003Y-110396702D01*
X117171505Y-110320420D01*
X116780495Y-110320420D01*
X116396997Y-110396702D01*
X116035750Y-110546335D01*
X115710636Y-110763569D01*
X115434149Y-111040056D01*
X115216915Y-111365170D01*
X115067282Y-111726417D01*
X114991000Y-112109915D01*
X114991000Y-112500925D01*
X115067282Y-112884423D01*
X115216915Y-113245670D01*
X115434149Y-113570784D01*
X115710636Y-113847271D01*
X116035750Y-114064505D01*
X116396997Y-114214138D01*
X116780495Y-114290420D01*
X117171505Y-114290420D01*
X117555003Y-114214138D01*
X117916250Y-114064505D01*
X118241364Y-113847271D01*
X118485501Y-113603134D01*
X118485501Y-116888297D01*
X118060309Y-117313490D01*
X118017141Y-117348917D01*
X117993343Y-117377915D01*
X110421139Y-124950120D01*
X110392141Y-124973918D01*
X110368343Y-125002916D01*
X110368342Y-125002917D01*
X110297167Y-125089643D01*
X110226595Y-125221673D01*
X110183139Y-125364934D01*
X110168465Y-125513919D01*
X110172142Y-125551252D01*
X110172141Y-160121307D01*
X110117851Y-160040056D01*
X109841364Y-159763569D01*
X109516250Y-159546335D01*
X109155003Y-159396702D01*
X108771505Y-159320420D01*
X108380495Y-159320420D01*
X107996997Y-159396702D01*
X107635750Y-159546335D01*
X107310636Y-159763569D01*
X107034149Y-160040056D01*
X106816915Y-160365170D01*
X106667282Y-160726417D01*
X106591000Y-161109915D01*
X106591000Y-161500925D01*
X106667282Y-161884423D01*
X106816915Y-162245670D01*
X107034149Y-162570784D01*
X107310636Y-162847271D01*
X107635750Y-163064505D01*
X107996997Y-163214138D01*
X108380495Y-163290420D01*
X108771505Y-163290420D01*
X109155003Y-163214138D01*
X109516250Y-163064505D01*
X109841364Y-162847271D01*
X110117851Y-162570784D01*
X110172141Y-162489533D01*
X110172141Y-165142348D01*
X110151000Y-165142348D01*
X110026518Y-165154608D01*
X109906820Y-165190918D01*
X109796506Y-165249883D01*
X109699815Y-165329235D01*
X109620463Y-165425926D01*
X109561498Y-165536240D01*
X109525188Y-165655938D01*
X109512928Y-165780420D01*
X109512928Y-167530420D01*
X109525188Y-167654902D01*
X109561498Y-167774600D01*
X109620463Y-167884914D01*
X109699815Y-167981605D01*
X109796506Y-168060957D01*
X109906820Y-168119922D01*
X110026518Y-168156232D01*
X110151000Y-168168492D01*
X111844268Y-168168492D01*
X110737540Y-169275220D01*
X109390022Y-169275220D01*
X106170000Y-166055199D01*
X106170000Y-113309915D01*
X106591000Y-113309915D01*
X106591000Y-113700925D01*
X106667282Y-114084423D01*
X106816915Y-114445670D01*
X107034149Y-114770784D01*
X107310636Y-115047271D01*
X107635750Y-115264505D01*
X107996997Y-115414138D01*
X108380495Y-115490420D01*
X108771505Y-115490420D01*
X109155003Y-115414138D01*
X109516250Y-115264505D01*
X109841364Y-115047271D01*
X110117851Y-114770784D01*
X110335085Y-114445670D01*
X110484718Y-114084423D01*
X110561000Y-113700925D01*
X110561000Y-113309915D01*
X110484718Y-112926417D01*
X110335085Y-112565170D01*
X110117851Y-112240056D01*
X109841364Y-111963569D01*
X109516250Y-111746335D01*
X109155003Y-111596702D01*
X108771505Y-111520420D01*
X108380495Y-111520420D01*
X107996997Y-111596702D01*
X107635750Y-111746335D01*
X107310636Y-111963569D01*
X107034149Y-112240056D01*
X106816915Y-112565170D01*
X106667282Y-112926417D01*
X106591000Y-113309915D01*
X106170000Y-113309915D01*
X106170000Y-109201660D01*
X110159365Y-109201660D01*
X110240025Y-109453288D01*
X110508329Y-109581687D01*
X110796526Y-109655275D01*
X111093543Y-109671224D01*
X111387963Y-109628921D01*
X111668474Y-109529992D01*
X111811975Y-109453288D01*
X111892635Y-109201660D01*
X111026000Y-108335025D01*
X110159365Y-109201660D01*
X106170000Y-109201660D01*
X106170000Y-108222963D01*
X109510196Y-108222963D01*
X109552499Y-108517383D01*
X109651428Y-108797894D01*
X109728132Y-108941395D01*
X109979760Y-109022055D01*
X110846395Y-108155420D01*
X111205605Y-108155420D01*
X112072240Y-109022055D01*
X112323868Y-108941395D01*
X112452267Y-108673091D01*
X112525855Y-108384894D01*
X112541804Y-108087877D01*
X112499501Y-107793457D01*
X112400572Y-107512946D01*
X112323868Y-107369445D01*
X112072240Y-107288785D01*
X111205605Y-108155420D01*
X110846395Y-108155420D01*
X109979760Y-107288785D01*
X109728132Y-107369445D01*
X109599733Y-107637749D01*
X109526145Y-107925946D01*
X109510196Y-108222963D01*
X106170000Y-108222963D01*
X106170000Y-107109180D01*
X110159365Y-107109180D01*
X111026000Y-107975815D01*
X111892635Y-107109180D01*
X111811975Y-106857552D01*
X111543671Y-106729153D01*
X111255474Y-106655565D01*
X110958457Y-106639616D01*
X110664037Y-106681919D01*
X110383526Y-106780848D01*
X110240025Y-106857552D01*
X110159365Y-107109180D01*
X106170000Y-107109180D01*
X106170000Y-105019022D01*
X106890909Y-104298114D01*
X106890918Y-104298103D01*
X110594445Y-100594577D01*
X110610778Y-100603307D01*
X110992021Y-100718956D01*
X111289142Y-100748220D01*
X114262858Y-100748220D01*
X114559979Y-100718956D01*
X114941222Y-100603307D01*
X115292578Y-100415504D01*
X115600543Y-100162763D01*
X115853284Y-99854798D01*
X116041087Y-99503442D01*
X116156736Y-99122199D01*
X116195786Y-98725720D01*
X116156736Y-98329241D01*
X116041087Y-97947998D01*
X115853284Y-97596642D01*
X115600543Y-97288677D01*
X115292578Y-97035936D01*
X114941222Y-96848133D01*
X114559979Y-96732484D01*
X114262858Y-96703220D01*
X111289142Y-96703220D01*
X110992021Y-96732484D01*
X110610778Y-96848133D01*
X110259422Y-97035936D01*
X109951457Y-97288677D01*
X109698716Y-97596642D01*
X109510913Y-97947998D01*
X109395264Y-98329241D01*
X109356214Y-98725720D01*
X109395264Y-99122199D01*
X109510913Y-99503442D01*
X109519643Y-99519775D01*
X105816117Y-103223302D01*
X105816106Y-103223311D01*
X104898998Y-104140421D01*
X104870000Y-104164219D01*
X104846202Y-104193217D01*
X104846201Y-104193218D01*
X104775026Y-104279944D01*
X104704454Y-104411974D01*
X104674180Y-104511778D01*
X104662348Y-104550786D01*
X104660998Y-104555235D01*
X104646324Y-104704220D01*
X104545000Y-104704220D01*
X104545000Y-70199039D01*
X107513097Y-70199039D01*
X107553755Y-70333087D01*
X107673964Y-70587420D01*
X107841482Y-70813414D01*
X108049870Y-71002385D01*
X108291120Y-71147070D01*
X108555961Y-71241909D01*
X108778001Y-71120624D01*
X108778001Y-69977000D01*
X107635086Y-69977000D01*
X107513097Y-70199039D01*
X104545000Y-70199039D01*
X104545000Y-57505600D01*
X104915564Y-57505600D01*
X104919241Y-57542932D01*
X104919240Y-64112917D01*
X104915564Y-64150240D01*
X104919240Y-64187562D01*
X104919240Y-64187572D01*
X104930237Y-64299225D01*
X104967177Y-64421001D01*
X104973694Y-64442486D01*
X105044266Y-64574516D01*
X105082426Y-64621014D01*
X105139239Y-64690241D01*
X105168243Y-64714044D01*
X107475201Y-67021003D01*
X107489773Y-67038759D01*
X107463058Y-67310000D01*
X107490765Y-67591309D01*
X107572819Y-67861808D01*
X107706069Y-68111101D01*
X107885393Y-68329608D01*
X108103900Y-68508932D01*
X108241683Y-68582579D01*
X108049870Y-68697615D01*
X107841482Y-68886586D01*
X107673964Y-69112580D01*
X107553755Y-69366913D01*
X107513097Y-69500961D01*
X107635086Y-69723000D01*
X108778001Y-69723000D01*
X108778001Y-69703000D01*
X109032001Y-69703000D01*
X109032001Y-69723000D01*
X109052001Y-69723000D01*
X109052001Y-69977000D01*
X109032001Y-69977000D01*
X109032001Y-71120624D01*
X109254041Y-71241909D01*
X109518882Y-71147070D01*
X109760132Y-71002385D01*
X109968520Y-70813414D01*
X110136038Y-70587420D01*
X110256247Y-70333087D01*
X110283720Y-70242509D01*
X110283720Y-70957598D01*
X106745578Y-74495741D01*
X106716580Y-74519539D01*
X106692782Y-74548537D01*
X106692781Y-74548538D01*
X106621606Y-74635264D01*
X106551034Y-74767294D01*
X106507578Y-74910555D01*
X106492904Y-75059540D01*
X106496581Y-75096872D01*
X106496580Y-89856478D01*
X106492904Y-89893800D01*
X106496580Y-89931122D01*
X106496580Y-89931132D01*
X106507577Y-90042785D01*
X106525977Y-90103442D01*
X106551034Y-90186046D01*
X106621606Y-90318076D01*
X106661451Y-90366626D01*
X106716579Y-90433801D01*
X106745583Y-90457604D01*
X109519643Y-93231665D01*
X109510913Y-93247998D01*
X109395264Y-93629241D01*
X109356214Y-94025720D01*
X109395264Y-94422199D01*
X109510913Y-94803442D01*
X109698716Y-95154798D01*
X109951457Y-95462763D01*
X110259422Y-95715504D01*
X110610778Y-95903307D01*
X110992021Y-96018956D01*
X111289142Y-96048220D01*
X114262858Y-96048220D01*
X114559979Y-96018956D01*
X114941222Y-95903307D01*
X115292578Y-95715504D01*
X115600543Y-95462763D01*
X115853284Y-95154798D01*
X116041087Y-94803442D01*
X116156736Y-94422199D01*
X116195786Y-94025720D01*
X116156736Y-93629241D01*
X116041087Y-93247998D01*
X115853284Y-92896642D01*
X115600543Y-92588677D01*
X115292578Y-92335936D01*
X114941222Y-92148133D01*
X114559979Y-92032484D01*
X114262858Y-92003220D01*
X111289142Y-92003220D01*
X110992021Y-92032484D01*
X110610778Y-92148133D01*
X110594445Y-92156863D01*
X108016580Y-89578999D01*
X108016580Y-89325720D01*
X109356214Y-89325720D01*
X109395264Y-89722199D01*
X109510913Y-90103442D01*
X109698716Y-90454798D01*
X109951457Y-90762763D01*
X110259422Y-91015504D01*
X110610778Y-91203307D01*
X110992021Y-91318956D01*
X111289142Y-91348220D01*
X114262858Y-91348220D01*
X114559979Y-91318956D01*
X114941222Y-91203307D01*
X115292578Y-91015504D01*
X115600543Y-90762763D01*
X115853284Y-90454798D01*
X116041087Y-90103442D01*
X116156736Y-89722199D01*
X116195786Y-89325720D01*
X116156736Y-88929241D01*
X116041087Y-88547998D01*
X115853284Y-88196642D01*
X115600543Y-87888677D01*
X115292578Y-87635936D01*
X114941222Y-87448133D01*
X114559979Y-87332484D01*
X114262858Y-87303220D01*
X113465001Y-87303220D01*
X113465001Y-84298172D01*
X113555001Y-84298172D01*
X113679483Y-84285912D01*
X113799181Y-84249602D01*
X113909495Y-84190637D01*
X114006186Y-84111285D01*
X114085538Y-84014594D01*
X114144503Y-83904280D01*
X114180813Y-83784582D01*
X114193073Y-83660100D01*
X114193073Y-81960100D01*
X114180813Y-81835618D01*
X114144503Y-81715920D01*
X114085538Y-81605606D01*
X114006186Y-81508915D01*
X113909495Y-81429563D01*
X113799181Y-81370598D01*
X113679483Y-81334288D01*
X113555001Y-81322028D01*
X111855001Y-81322028D01*
X111730519Y-81334288D01*
X111610821Y-81370598D01*
X111500507Y-81429563D01*
X111403816Y-81508915D01*
X111324464Y-81605606D01*
X111265499Y-81715920D01*
X111229189Y-81835618D01*
X111216929Y-81960100D01*
X111216929Y-83660100D01*
X111229189Y-83784582D01*
X111265499Y-83904280D01*
X111324464Y-84014594D01*
X111403816Y-84111285D01*
X111500507Y-84190637D01*
X111610821Y-84249602D01*
X111730519Y-84285912D01*
X111855001Y-84298172D01*
X111945001Y-84298172D01*
X111945002Y-87303220D01*
X111289142Y-87303220D01*
X110992021Y-87332484D01*
X110610778Y-87448133D01*
X110259422Y-87635936D01*
X109951457Y-87888677D01*
X109698716Y-88196642D01*
X109510913Y-88547998D01*
X109395264Y-88929241D01*
X109356214Y-89325720D01*
X108016580Y-89325720D01*
X108016580Y-77338917D01*
X108215274Y-77471680D01*
X108476427Y-77579853D01*
X108753666Y-77635000D01*
X109036336Y-77635000D01*
X109313575Y-77579853D01*
X109574728Y-77471680D01*
X109809760Y-77314637D01*
X110009638Y-77114759D01*
X110166681Y-76879727D01*
X110274854Y-76618574D01*
X110330001Y-76341335D01*
X110330001Y-76058665D01*
X110293689Y-75876113D01*
X113033003Y-73136800D01*
X113062001Y-73113002D01*
X113156974Y-72997277D01*
X113227546Y-72865248D01*
X113271003Y-72721987D01*
X113282000Y-72610334D01*
X113282000Y-72610325D01*
X113285676Y-72573002D01*
X113282000Y-72535679D01*
X113282000Y-70141947D01*
X113328855Y-70199039D01*
X113368840Y-70247761D01*
X113397838Y-70271559D01*
X121071101Y-77944823D01*
X121071100Y-87186998D01*
X121067424Y-87224320D01*
X121071100Y-87261642D01*
X121071100Y-87261652D01*
X121082097Y-87373305D01*
X121125554Y-87516566D01*
X121196126Y-87648596D01*
X121235971Y-87697146D01*
X121291099Y-87764321D01*
X121320103Y-87788124D01*
X126763643Y-93231665D01*
X126754913Y-93247998D01*
X126639264Y-93629241D01*
X126600214Y-94025720D01*
X126639264Y-94422199D01*
X126754913Y-94803442D01*
X126942716Y-95154798D01*
X127195457Y-95462763D01*
X127503422Y-95715504D01*
X127854778Y-95903307D01*
X128236021Y-96018956D01*
X128533142Y-96048220D01*
X131506858Y-96048220D01*
X131803979Y-96018956D01*
X132185222Y-95903307D01*
X132536578Y-95715504D01*
X132844543Y-95462763D01*
X133097284Y-95154798D01*
X133285087Y-94803442D01*
X133400736Y-94422199D01*
X133439786Y-94025720D01*
X133400736Y-93629241D01*
X133285087Y-93247998D01*
X133097284Y-92896642D01*
X132844543Y-92588677D01*
X132536578Y-92335936D01*
X132185222Y-92148133D01*
X131803979Y-92032484D01*
X131506858Y-92003220D01*
X128533142Y-92003220D01*
X128236021Y-92032484D01*
X127854778Y-92148133D01*
X127838445Y-92156863D01*
X125007302Y-89325720D01*
X126600214Y-89325720D01*
X126639264Y-89722199D01*
X126754913Y-90103442D01*
X126942716Y-90454798D01*
X127195457Y-90762763D01*
X127503422Y-91015504D01*
X127854778Y-91203307D01*
X128236021Y-91318956D01*
X128533142Y-91348220D01*
X131506858Y-91348220D01*
X131803979Y-91318956D01*
X132185222Y-91203307D01*
X132536578Y-91015504D01*
X132844543Y-90762763D01*
X133097284Y-90454798D01*
X133285087Y-90103442D01*
X133400736Y-89722199D01*
X133439786Y-89325720D01*
X133400736Y-88929241D01*
X133285087Y-88547998D01*
X133097284Y-88196642D01*
X132844543Y-87888677D01*
X132536578Y-87635936D01*
X132185222Y-87448133D01*
X131803979Y-87332484D01*
X131506858Y-87303220D01*
X130780000Y-87303220D01*
X130780000Y-84298172D01*
X130870000Y-84298172D01*
X130994482Y-84285912D01*
X131114180Y-84249602D01*
X131224494Y-84190637D01*
X131321185Y-84111285D01*
X131400537Y-84014594D01*
X131459502Y-83904280D01*
X131495812Y-83784582D01*
X131508072Y-83660100D01*
X131508072Y-81960100D01*
X131495812Y-81835618D01*
X131459502Y-81715920D01*
X131400537Y-81605606D01*
X131321185Y-81508915D01*
X131224494Y-81429563D01*
X131114180Y-81370598D01*
X130994482Y-81334288D01*
X130870000Y-81322028D01*
X129170000Y-81322028D01*
X129045518Y-81334288D01*
X128925820Y-81370598D01*
X128815506Y-81429563D01*
X128718815Y-81508915D01*
X128639463Y-81605606D01*
X128580498Y-81715920D01*
X128544188Y-81835618D01*
X128531928Y-81960100D01*
X128531928Y-83660100D01*
X128544188Y-83784582D01*
X128580498Y-83904280D01*
X128639463Y-84014594D01*
X128718815Y-84111285D01*
X128815506Y-84190637D01*
X128925820Y-84249602D01*
X129045518Y-84285912D01*
X129170000Y-84298172D01*
X129260000Y-84298172D01*
X129260001Y-87303220D01*
X128533142Y-87303220D01*
X128236021Y-87332484D01*
X127854778Y-87448133D01*
X127503422Y-87635936D01*
X127195457Y-87888677D01*
X126942716Y-88196642D01*
X126754913Y-88547998D01*
X126639264Y-88929241D01*
X126600214Y-89325720D01*
X125007302Y-89325720D01*
X122591100Y-86909519D01*
X122591100Y-77667353D01*
X122594777Y-77630020D01*
X122580103Y-77481034D01*
X122536646Y-77337773D01*
X122466074Y-77205744D01*
X122394899Y-77119017D01*
X122371101Y-77090019D01*
X122342103Y-77066221D01*
X116560881Y-71285000D01*
X116595493Y-71285000D01*
X116806310Y-71264236D01*
X117076809Y-71182182D01*
X117326102Y-71048932D01*
X117544609Y-70869608D01*
X117723933Y-70651101D01*
X117745902Y-70610000D01*
X123627678Y-70610000D01*
X123665000Y-70613676D01*
X123702322Y-70610000D01*
X123702333Y-70610000D01*
X123813986Y-70599003D01*
X123957247Y-70555546D01*
X124089276Y-70484974D01*
X124205001Y-70390001D01*
X124228804Y-70360997D01*
X127119005Y-67470797D01*
X127193889Y-67493513D01*
X127412050Y-67515000D01*
X127557950Y-67515000D01*
X127776111Y-67493513D01*
X128056034Y-67408599D01*
X128314014Y-67270706D01*
X128540134Y-67085134D01*
X128725706Y-66859014D01*
X128755000Y-66804209D01*
X128784294Y-66859014D01*
X128969866Y-67085134D01*
X129195986Y-67270706D01*
X129453966Y-67408599D01*
X129733889Y-67493513D01*
X129952050Y-67515000D01*
X130097950Y-67515000D01*
X130316111Y-67493513D01*
X130596034Y-67408599D01*
X130854014Y-67270706D01*
X131080134Y-67085134D01*
X131265706Y-66859014D01*
X131300201Y-66794477D01*
X131369822Y-66911355D01*
X131564731Y-67127588D01*
X131798080Y-67301641D01*
X132060901Y-67426825D01*
X132208110Y-67471476D01*
X132438000Y-67350155D01*
X132438000Y-66157000D01*
X132418000Y-66157000D01*
X132418000Y-65903000D01*
X132438000Y-65903000D01*
X132438000Y-65883000D01*
X132692000Y-65883000D01*
X132692000Y-65903000D01*
X132712000Y-65903000D01*
X132712000Y-66157000D01*
X132692000Y-66157000D01*
X132692000Y-67350155D01*
X132921890Y-67471476D01*
X133069099Y-67426825D01*
X133331920Y-67301641D01*
X133565269Y-67127588D01*
X133760178Y-66911355D01*
X133829799Y-66794477D01*
X133864294Y-66859014D01*
X134049866Y-67085134D01*
X134159824Y-67175374D01*
X126533887Y-74801312D01*
X126351335Y-74765000D01*
X126068665Y-74765000D01*
X125791426Y-74820147D01*
X125530273Y-74928320D01*
X125295241Y-75085363D01*
X125095363Y-75285241D01*
X124938320Y-75520273D01*
X124830147Y-75781426D01*
X124775000Y-76058665D01*
X124775000Y-76341335D01*
X124830147Y-76618574D01*
X124938320Y-76879727D01*
X125095363Y-77114759D01*
X125295241Y-77314637D01*
X125530273Y-77471680D01*
X125791426Y-77579853D01*
X126068665Y-77635000D01*
X126351335Y-77635000D01*
X126628574Y-77579853D01*
X126889727Y-77471680D01*
X127124759Y-77314637D01*
X127324637Y-77114759D01*
X127481680Y-76879727D01*
X127589853Y-76618574D01*
X127645000Y-76341335D01*
X127645000Y-76058665D01*
X127608688Y-75876113D01*
X135100000Y-68384801D01*
X142591312Y-75876114D01*
X142555000Y-76058665D01*
X142555000Y-76341335D01*
X142610147Y-76618574D01*
X142718320Y-76879727D01*
X142875363Y-77114759D01*
X143075241Y-77314637D01*
X143310273Y-77471680D01*
X143571426Y-77579853D01*
X143848665Y-77635000D01*
X144131335Y-77635000D01*
X144408574Y-77579853D01*
X144669727Y-77471680D01*
X144904759Y-77314637D01*
X145104637Y-77114759D01*
X145261680Y-76879727D01*
X145369853Y-76618574D01*
X145425000Y-76341335D01*
X145425000Y-76058665D01*
X145388688Y-75876113D01*
X148212003Y-73052799D01*
X148241001Y-73029001D01*
X148335974Y-72913276D01*
X148406546Y-72781247D01*
X148450003Y-72637986D01*
X148461000Y-72526333D01*
X148464677Y-72489000D01*
X148461000Y-72451667D01*
X148461000Y-66354801D01*
X150192506Y-64623295D01*
X150178057Y-64770000D01*
X150205764Y-65051309D01*
X150287818Y-65321808D01*
X150421068Y-65571101D01*
X150600392Y-65789608D01*
X150818899Y-65968932D01*
X150951858Y-66040000D01*
X150818899Y-66111068D01*
X150600392Y-66290392D01*
X150421068Y-66508899D01*
X150287818Y-66758192D01*
X150205764Y-67028691D01*
X150178057Y-67310000D01*
X150205764Y-67591309D01*
X150287818Y-67861808D01*
X150421068Y-68111101D01*
X150600392Y-68329608D01*
X150818899Y-68508932D01*
X150951858Y-68580000D01*
X150818899Y-68651068D01*
X150600392Y-68830392D01*
X150421068Y-69048899D01*
X150287818Y-69298192D01*
X150205764Y-69568691D01*
X150178057Y-69850000D01*
X150205764Y-70131309D01*
X150287818Y-70401808D01*
X150421068Y-70651101D01*
X150600392Y-70869608D01*
X150818899Y-71048932D01*
X151068192Y-71182182D01*
X151338691Y-71264236D01*
X151549508Y-71285000D01*
X151690492Y-71285000D01*
X151901309Y-71264236D01*
X152171808Y-71182182D01*
X152421101Y-71048932D01*
X152639608Y-70869608D01*
X152818932Y-70651101D01*
X152952182Y-70401808D01*
X153034236Y-70131309D01*
X153061943Y-69850000D01*
X153034236Y-69568691D01*
X152952182Y-69298192D01*
X152818932Y-69048899D01*
X152639608Y-68830392D01*
X152421101Y-68651068D01*
X152288142Y-68580000D01*
X152421101Y-68508932D01*
X152639608Y-68329608D01*
X152818932Y-68111101D01*
X152952182Y-67861808D01*
X153034236Y-67591309D01*
X153061943Y-67310000D01*
X153034236Y-67028691D01*
X152952182Y-66758192D01*
X152818932Y-66508899D01*
X152639608Y-66290392D01*
X152421101Y-66111068D01*
X152288142Y-66040000D01*
X152421101Y-65968932D01*
X152639608Y-65789608D01*
X152818932Y-65571101D01*
X152952182Y-65321808D01*
X153034236Y-65051309D01*
X153061943Y-64770000D01*
X153034236Y-64488691D01*
X152952182Y-64218192D01*
X152818932Y-63968899D01*
X152639608Y-63750392D01*
X152421101Y-63571068D01*
X152288142Y-63500000D01*
X152421101Y-63428932D01*
X152639608Y-63249608D01*
X152818932Y-63031101D01*
X152952182Y-62781808D01*
X153034236Y-62511309D01*
X153061943Y-62230000D01*
X153034236Y-61948691D01*
X153020708Y-61904094D01*
X155197004Y-59727798D01*
X155226001Y-59704001D01*
X155320974Y-59588276D01*
X155391546Y-59456247D01*
X155435003Y-59312986D01*
X155446000Y-59201333D01*
X155446000Y-59201325D01*
X155449676Y-59164000D01*
X155446000Y-59126675D01*
X155446000Y-48424325D01*
X155449676Y-48387000D01*
X155446000Y-48349675D01*
X155446000Y-48349667D01*
X155435003Y-48238014D01*
X155391546Y-48094753D01*
X155320974Y-47962724D01*
X155226001Y-47846999D01*
X155197003Y-47823201D01*
X153471804Y-46098003D01*
X153448001Y-46068999D01*
X153332276Y-45974026D01*
X153200247Y-45903454D01*
X153056986Y-45859997D01*
X152945333Y-45849000D01*
X152945322Y-45849000D01*
X152908000Y-45845324D01*
X152870678Y-45849000D01*
X146948323Y-45849000D01*
X146911000Y-45845324D01*
X146873677Y-45849000D01*
X146873667Y-45849000D01*
X146762014Y-45859997D01*
X146618753Y-45903454D01*
X146486724Y-45974026D01*
X146370999Y-46068999D01*
X146347201Y-46097997D01*
X144313886Y-48131312D01*
X144131335Y-48095000D01*
X143848665Y-48095000D01*
X143571426Y-48150147D01*
X143310273Y-48258320D01*
X143075241Y-48415363D01*
X142875363Y-48615241D01*
X142718320Y-48850273D01*
X142610147Y-49111426D01*
X142555000Y-49388665D01*
X142555000Y-49671335D01*
X142610147Y-49948574D01*
X142718320Y-50209727D01*
X142875363Y-50444759D01*
X143075241Y-50644637D01*
X143310273Y-50801680D01*
X143571426Y-50909853D01*
X143848665Y-50965000D01*
X144131335Y-50965000D01*
X144408574Y-50909853D01*
X144669727Y-50801680D01*
X144904759Y-50644637D01*
X145104637Y-50444759D01*
X145261680Y-50209727D01*
X145369853Y-49948574D01*
X145425000Y-49671335D01*
X145425000Y-49388665D01*
X145388688Y-49206114D01*
X147225802Y-47369000D01*
X152593199Y-47369000D01*
X153926001Y-48701803D01*
X153926000Y-58849198D01*
X151945906Y-60829292D01*
X151901309Y-60815764D01*
X151690492Y-60795000D01*
X151549508Y-60795000D01*
X151338691Y-60815764D01*
X151068192Y-60897818D01*
X150818899Y-61031068D01*
X150600392Y-61210392D01*
X150421068Y-61428899D01*
X150287818Y-61678192D01*
X150205764Y-61948691D01*
X150178057Y-62230000D01*
X150201222Y-62465195D01*
X150171000Y-62489998D01*
X150147202Y-62518996D01*
X147190003Y-65476196D01*
X147160999Y-65499999D01*
X147105871Y-65567174D01*
X147066026Y-65615724D01*
X146996218Y-65746325D01*
X146995454Y-65747754D01*
X146951997Y-65891015D01*
X146941000Y-66002668D01*
X146941000Y-66002678D01*
X146937324Y-66040000D01*
X146941000Y-66077323D01*
X146941001Y-72174197D01*
X144313887Y-74801312D01*
X144131335Y-74765000D01*
X143848665Y-74765000D01*
X143666114Y-74801312D01*
X139063841Y-70199039D01*
X142608096Y-70199039D01*
X142648754Y-70333087D01*
X142768963Y-70587420D01*
X142936481Y-70813414D01*
X143144869Y-71002385D01*
X143386119Y-71147070D01*
X143650960Y-71241909D01*
X143873000Y-71120624D01*
X143873000Y-69977000D01*
X144127000Y-69977000D01*
X144127000Y-71120624D01*
X144349040Y-71241909D01*
X144613881Y-71147070D01*
X144855131Y-71002385D01*
X145063519Y-70813414D01*
X145231037Y-70587420D01*
X145351246Y-70333087D01*
X145391904Y-70199039D01*
X145269915Y-69977000D01*
X144127000Y-69977000D01*
X143873000Y-69977000D01*
X142730085Y-69977000D01*
X142608096Y-70199039D01*
X139063841Y-70199039D01*
X136044683Y-67179882D01*
X136160134Y-67085134D01*
X136345706Y-66859014D01*
X136483599Y-66601034D01*
X136568513Y-66321111D01*
X136597185Y-66030000D01*
X136568513Y-65738889D01*
X136483599Y-65458966D01*
X136345706Y-65200986D01*
X136160134Y-64974866D01*
X135934014Y-64789294D01*
X135676034Y-64651401D01*
X135396111Y-64566487D01*
X135177950Y-64545000D01*
X135032050Y-64545000D01*
X134813889Y-64566487D01*
X134533966Y-64651401D01*
X134275986Y-64789294D01*
X134049866Y-64974866D01*
X133864294Y-65200986D01*
X133829799Y-65265523D01*
X133760178Y-65148645D01*
X133565269Y-64932412D01*
X133331920Y-64758359D01*
X133069099Y-64633175D01*
X132921890Y-64588524D01*
X132692002Y-64709844D01*
X132692002Y-64545000D01*
X132584802Y-64545000D01*
X132747883Y-64381920D01*
X139997119Y-64381920D01*
X142599292Y-66984094D01*
X142585764Y-67028691D01*
X142558057Y-67310000D01*
X142585764Y-67591309D01*
X142667818Y-67861808D01*
X142801068Y-68111101D01*
X142980392Y-68329608D01*
X143198899Y-68508932D01*
X143336682Y-68582579D01*
X143144869Y-68697615D01*
X142936481Y-68886586D01*
X142768963Y-69112580D01*
X142648754Y-69366913D01*
X142608096Y-69500961D01*
X142730085Y-69723000D01*
X143873000Y-69723000D01*
X143873000Y-69703000D01*
X144127000Y-69703000D01*
X144127000Y-69723000D01*
X145269915Y-69723000D01*
X145391904Y-69500961D01*
X145351246Y-69366913D01*
X145231037Y-69112580D01*
X145063519Y-68886586D01*
X144855131Y-68697615D01*
X144663318Y-68582579D01*
X144801101Y-68508932D01*
X145019608Y-68329608D01*
X145198932Y-68111101D01*
X145332182Y-67861808D01*
X145414236Y-67591309D01*
X145441943Y-67310000D01*
X145414236Y-67028691D01*
X145400708Y-66984093D01*
X148671003Y-63713799D01*
X148700001Y-63690001D01*
X148794974Y-63574276D01*
X148865546Y-63442247D01*
X148909003Y-63298986D01*
X148920000Y-63187333D01*
X148923677Y-63150000D01*
X148920000Y-63112667D01*
X148920000Y-58312087D01*
X149034482Y-58300812D01*
X149154180Y-58264502D01*
X149264494Y-58205537D01*
X149361185Y-58126185D01*
X149440537Y-58029494D01*
X149499502Y-57919180D01*
X149535812Y-57799482D01*
X149548072Y-57675000D01*
X149548072Y-56625000D01*
X149539588Y-56538860D01*
X149584276Y-56514974D01*
X149700001Y-56420001D01*
X149723804Y-56390997D01*
X152121004Y-53993798D01*
X152150001Y-53970001D01*
X152244974Y-53854276D01*
X152315546Y-53722247D01*
X152359003Y-53578986D01*
X152370000Y-53467333D01*
X152370000Y-53467324D01*
X152373676Y-53430001D01*
X152370000Y-53392678D01*
X152370000Y-50750901D01*
X152411101Y-50728932D01*
X152629608Y-50549608D01*
X152808932Y-50331101D01*
X152942182Y-50081808D01*
X153024236Y-49811309D01*
X153051943Y-49530000D01*
X153024236Y-49248691D01*
X152942182Y-48978192D01*
X152808932Y-48728899D01*
X152629608Y-48510392D01*
X152411101Y-48331068D01*
X152161808Y-48197818D01*
X151891309Y-48115764D01*
X151680492Y-48095000D01*
X151539508Y-48095000D01*
X151328691Y-48115764D01*
X151058192Y-48197818D01*
X150808899Y-48331068D01*
X150590392Y-48510392D01*
X150411068Y-48728899D01*
X150277818Y-48978192D01*
X150195764Y-49248691D01*
X150168057Y-49530000D01*
X150195764Y-49811309D01*
X150277818Y-50081808D01*
X150411068Y-50331101D01*
X150590392Y-50549608D01*
X150808899Y-50728932D01*
X150850001Y-50750901D01*
X150850000Y-53115198D01*
X149482201Y-54482998D01*
X149378164Y-54482998D01*
X149503964Y-54304190D01*
X149495272Y-54242663D01*
X149402275Y-54033118D01*
X149270184Y-53845742D01*
X149104076Y-53687736D01*
X148910334Y-53565172D01*
X148696404Y-53482761D01*
X148470507Y-53443669D01*
X148287000Y-53603402D01*
X148287000Y-54483000D01*
X148307000Y-54483000D01*
X148307000Y-54720000D01*
X147878021Y-54720000D01*
X147707600Y-54736785D01*
X147706891Y-54737000D01*
X146941837Y-54737000D01*
X146816036Y-54915810D01*
X146824728Y-54977337D01*
X146888042Y-55120000D01*
X145500227Y-55120000D01*
X145462904Y-55116324D01*
X145425581Y-55120000D01*
X145425572Y-55120000D01*
X145313919Y-55130997D01*
X145170658Y-55174454D01*
X145038628Y-55245026D01*
X145021014Y-55259482D01*
X144922904Y-55339999D01*
X144899106Y-55368997D01*
X143488998Y-56779106D01*
X143460000Y-56802904D01*
X143436202Y-56831902D01*
X143436201Y-56831903D01*
X143365026Y-56918629D01*
X143294454Y-57050659D01*
X143284069Y-57084895D01*
X143250998Y-57193919D01*
X143240001Y-57305572D01*
X143236324Y-57342905D01*
X143240001Y-57380237D01*
X143240000Y-60791928D01*
X143200000Y-60791928D01*
X143075518Y-60804188D01*
X142955820Y-60840498D01*
X142845506Y-60899463D01*
X142748815Y-60978815D01*
X142669463Y-61075506D01*
X142610498Y-61185820D01*
X142574188Y-61305518D01*
X142561928Y-61430000D01*
X142561928Y-63030000D01*
X142574188Y-63154482D01*
X142610498Y-63274180D01*
X142669463Y-63384494D01*
X142748815Y-63481185D01*
X142845506Y-63560537D01*
X142955820Y-63619502D01*
X143075518Y-63655812D01*
X143093482Y-63657581D01*
X142980392Y-63750392D01*
X142801068Y-63968899D01*
X142667818Y-64218192D01*
X142585764Y-64488691D01*
X142558057Y-64770000D01*
X142560598Y-64795796D01*
X140875724Y-63110923D01*
X140851921Y-63081919D01*
X140736196Y-62986946D01*
X140604167Y-62916374D01*
X140460906Y-62872917D01*
X140349253Y-62861920D01*
X140349242Y-62861920D01*
X140311920Y-62858244D01*
X140274598Y-62861920D01*
X132470402Y-62861920D01*
X132433079Y-62858244D01*
X132395756Y-62861920D01*
X132395747Y-62861920D01*
X132284094Y-62872917D01*
X132140833Y-62916374D01*
X132008804Y-62986946D01*
X132000602Y-62993677D01*
X131922076Y-63058121D01*
X131922072Y-63058125D01*
X131893079Y-63081919D01*
X131869285Y-63110912D01*
X130390995Y-64589203D01*
X130316111Y-64566487D01*
X130097950Y-64545000D01*
X129952050Y-64545000D01*
X129733889Y-64566487D01*
X129453966Y-64651401D01*
X129195986Y-64789294D01*
X128969866Y-64974866D01*
X128784294Y-65200986D01*
X128755000Y-65255791D01*
X128725706Y-65200986D01*
X128540134Y-64974866D01*
X128470226Y-64917494D01*
X131801004Y-61586717D01*
X131830001Y-61562920D01*
X131924974Y-61447195D01*
X131995546Y-61315166D01*
X132039003Y-61171905D01*
X132050000Y-61060252D01*
X132050000Y-61060251D01*
X132053677Y-61022919D01*
X132050000Y-60985586D01*
X132050000Y-56862287D01*
X132059180Y-56859502D01*
X132169494Y-56800537D01*
X132266185Y-56721185D01*
X132345537Y-56624494D01*
X132404502Y-56514180D01*
X132440812Y-56394482D01*
X132453072Y-56270000D01*
X132453072Y-54770000D01*
X132440812Y-54645518D01*
X132404502Y-54525820D01*
X132345537Y-54415506D01*
X132266185Y-54318815D01*
X132248365Y-54304190D01*
X146816036Y-54304190D01*
X146941837Y-54483000D01*
X148033000Y-54483000D01*
X148033000Y-53603402D01*
X147849493Y-53443669D01*
X147623596Y-53482761D01*
X147409666Y-53565172D01*
X147215924Y-53687736D01*
X147049816Y-53845742D01*
X146917725Y-54033118D01*
X146824728Y-54242663D01*
X146816036Y-54304190D01*
X132248365Y-54304190D01*
X132169494Y-54239463D01*
X132059180Y-54180498D01*
X131939482Y-54144188D01*
X131815000Y-54131928D01*
X130780000Y-54131928D01*
X130780000Y-53654801D01*
X133504094Y-50930708D01*
X133548691Y-50944236D01*
X133759508Y-50965000D01*
X133900492Y-50965000D01*
X134111309Y-50944236D01*
X134381808Y-50862182D01*
X134631101Y-50728932D01*
X134849608Y-50549608D01*
X135028932Y-50331101D01*
X135162182Y-50081808D01*
X135244236Y-49811309D01*
X135271943Y-49530000D01*
X135244236Y-49248691D01*
X135162182Y-48978192D01*
X135028932Y-48728899D01*
X134849608Y-48510392D01*
X134631101Y-48331068D01*
X134381808Y-48197818D01*
X134111309Y-48115764D01*
X133900492Y-48095000D01*
X133759508Y-48095000D01*
X133548691Y-48115764D01*
X133278192Y-48197818D01*
X133028899Y-48331068D01*
X132810392Y-48510392D01*
X132631068Y-48728899D01*
X132497818Y-48978192D01*
X132415764Y-49248691D01*
X132388057Y-49530000D01*
X132415764Y-49811309D01*
X132429292Y-49855906D01*
X129508998Y-52776201D01*
X129480000Y-52799999D01*
X129456202Y-52828997D01*
X129456201Y-52828998D01*
X129385026Y-52915724D01*
X129314454Y-53047754D01*
X129270998Y-53191015D01*
X129256324Y-53340000D01*
X129260001Y-53377332D01*
X129260001Y-54248043D01*
X129117337Y-54184728D01*
X129055810Y-54176036D01*
X128877000Y-54301837D01*
X128877000Y-55066891D01*
X128876785Y-55067600D01*
X128860000Y-55238021D01*
X128860000Y-55801978D01*
X128876785Y-55972399D01*
X128877000Y-55973108D01*
X128877000Y-56738163D01*
X129055810Y-56863964D01*
X129117337Y-56855272D01*
X129260000Y-56791957D01*
X129260000Y-56919078D01*
X122169079Y-64010000D01*
X117745902Y-64010000D01*
X117723933Y-63968899D01*
X117544609Y-63750392D01*
X117326102Y-63571068D01*
X117193143Y-63500000D01*
X117326102Y-63428932D01*
X117544609Y-63249608D01*
X117723933Y-63031101D01*
X117857183Y-62781808D01*
X117939237Y-62511309D01*
X117966944Y-62230000D01*
X117939237Y-61948691D01*
X117857183Y-61678192D01*
X117723933Y-61428899D01*
X117544609Y-61210392D01*
X117326102Y-61031068D01*
X117275001Y-61003754D01*
X117275001Y-55830507D01*
X127583669Y-55830507D01*
X127622761Y-56056404D01*
X127705172Y-56270334D01*
X127827736Y-56464076D01*
X127985742Y-56630184D01*
X128173118Y-56762275D01*
X128382663Y-56855272D01*
X128444190Y-56863964D01*
X128623000Y-56738163D01*
X128623000Y-55647000D01*
X127743402Y-55647000D01*
X127583669Y-55830507D01*
X117275001Y-55830507D01*
X117275001Y-55209493D01*
X127583669Y-55209493D01*
X127743402Y-55393000D01*
X128623000Y-55393000D01*
X128623000Y-54301837D01*
X128444190Y-54176036D01*
X128382663Y-54184728D01*
X128173118Y-54277725D01*
X127985742Y-54409816D01*
X127827736Y-54575924D01*
X127705172Y-54769666D01*
X127622761Y-54983596D01*
X127583669Y-55209493D01*
X117275001Y-55209493D01*
X117275001Y-50748043D01*
X117429760Y-50644637D01*
X117629638Y-50444759D01*
X117733044Y-50290000D01*
X124991957Y-50290000D01*
X125095363Y-50444759D01*
X125295241Y-50644637D01*
X125530273Y-50801680D01*
X125791426Y-50909853D01*
X126068665Y-50965000D01*
X126351335Y-50965000D01*
X126628574Y-50909853D01*
X126889727Y-50801680D01*
X127124759Y-50644637D01*
X127324637Y-50444759D01*
X127481680Y-50209727D01*
X127589853Y-49948574D01*
X127645000Y-49671335D01*
X127645000Y-49388665D01*
X127589853Y-49111426D01*
X127481680Y-48850273D01*
X127324637Y-48615241D01*
X127124759Y-48415363D01*
X126889727Y-48258320D01*
X126628574Y-48150147D01*
X126351335Y-48095000D01*
X126068665Y-48095000D01*
X125791426Y-48150147D01*
X125530273Y-48258320D01*
X125295241Y-48415363D01*
X125095363Y-48615241D01*
X124991957Y-48770000D01*
X117733044Y-48770000D01*
X117629638Y-48615241D01*
X117429760Y-48415363D01*
X117194728Y-48258320D01*
X116933575Y-48150147D01*
X116656336Y-48095000D01*
X116373666Y-48095000D01*
X116096427Y-48150147D01*
X115835274Y-48258320D01*
X115600242Y-48415363D01*
X115400364Y-48615241D01*
X115243321Y-48850273D01*
X115135148Y-49111426D01*
X115080001Y-49388665D01*
X115080001Y-49671335D01*
X115135148Y-49948574D01*
X115243321Y-50209727D01*
X115400364Y-50444759D01*
X115600242Y-50644637D01*
X115755001Y-50748043D01*
X115755002Y-61014444D01*
X115723900Y-61031068D01*
X115505393Y-61210392D01*
X115326069Y-61428899D01*
X115304100Y-61470000D01*
X114210333Y-61470000D01*
X114173000Y-61466323D01*
X114135667Y-61470000D01*
X114024014Y-61480997D01*
X113880753Y-61524454D01*
X113748724Y-61595026D01*
X113632999Y-61689999D01*
X113609201Y-61718997D01*
X112011003Y-63317196D01*
X111981999Y-63340999D01*
X111946304Y-63384494D01*
X111887026Y-63456724D01*
X111824193Y-63574276D01*
X111816454Y-63588754D01*
X111772997Y-63732015D01*
X111762000Y-63843668D01*
X111762000Y-63843678D01*
X111758324Y-63881000D01*
X111762000Y-63918322D01*
X111762000Y-66658452D01*
X111749266Y-66616472D01*
X111678694Y-66484443D01*
X111653936Y-66454275D01*
X111607519Y-66397715D01*
X111607515Y-66397711D01*
X111583721Y-66368718D01*
X111554728Y-66344924D01*
X110305709Y-65095906D01*
X110319237Y-65051309D01*
X110346944Y-64770000D01*
X110319237Y-64488691D01*
X110237183Y-64218192D01*
X110103933Y-63968899D01*
X109924609Y-63750392D01*
X109811519Y-63657581D01*
X109829483Y-63655812D01*
X109949181Y-63619502D01*
X110059495Y-63560537D01*
X110156186Y-63481185D01*
X110235538Y-63384494D01*
X110294503Y-63274180D01*
X110330813Y-63154482D01*
X110343073Y-63030000D01*
X110343073Y-61430000D01*
X110330813Y-61305518D01*
X110294503Y-61185820D01*
X110235538Y-61075506D01*
X110156186Y-60978815D01*
X110059495Y-60899463D01*
X109949181Y-60840498D01*
X109829483Y-60804188D01*
X109705001Y-60791928D01*
X109665001Y-60791928D01*
X109665001Y-59409801D01*
X111204107Y-57870695D01*
X111234817Y-57914258D01*
X111400925Y-58072264D01*
X111594667Y-58194828D01*
X111808597Y-58277239D01*
X112034494Y-58316331D01*
X112218001Y-58156598D01*
X112218001Y-57277000D01*
X112472001Y-57277000D01*
X112472001Y-58156598D01*
X112655508Y-58316331D01*
X112881405Y-58277239D01*
X113095335Y-58194828D01*
X113289077Y-58072264D01*
X113455185Y-57914258D01*
X113587276Y-57726882D01*
X113680273Y-57517337D01*
X113688965Y-57455810D01*
X113563164Y-57277000D01*
X112472001Y-57277000D01*
X112218001Y-57277000D01*
X112198001Y-57277000D01*
X112198001Y-57040000D01*
X112626980Y-57040000D01*
X112797401Y-57023215D01*
X112798110Y-57023000D01*
X113563164Y-57023000D01*
X113688965Y-56844190D01*
X113680273Y-56782663D01*
X113598066Y-56597431D01*
X113637248Y-56585546D01*
X113769277Y-56514974D01*
X113885002Y-56420001D01*
X113908805Y-56390997D01*
X115446003Y-54853800D01*
X115475001Y-54830002D01*
X115523425Y-54770997D01*
X115569974Y-54714278D01*
X115640546Y-54582248D01*
X115677321Y-54461014D01*
X115684003Y-54438987D01*
X115695000Y-54327334D01*
X115695000Y-54327325D01*
X115698676Y-54290002D01*
X115695000Y-54252679D01*
X115695000Y-52107322D01*
X115698676Y-52069999D01*
X115695000Y-52032676D01*
X115695000Y-52032667D01*
X115684003Y-51921014D01*
X115640546Y-51777753D01*
X115569974Y-51645724D01*
X115556811Y-51629685D01*
X115498799Y-51558996D01*
X115498795Y-51558992D01*
X115475001Y-51529999D01*
X115446009Y-51506206D01*
X112958804Y-49019003D01*
X112935001Y-48989999D01*
X112819276Y-48895026D01*
X112687247Y-48824454D01*
X112543986Y-48780997D01*
X112432333Y-48770000D01*
X112432322Y-48770000D01*
X112395000Y-48766324D01*
X112357678Y-48770000D01*
X110115902Y-48770000D01*
X110093933Y-48728899D01*
X109914609Y-48510392D01*
X109696102Y-48331068D01*
X109446809Y-48197818D01*
X109176310Y-48115764D01*
X108965493Y-48095000D01*
X108824509Y-48095000D01*
X108613692Y-48115764D01*
X108343193Y-48197818D01*
X108093900Y-48331068D01*
X107875393Y-48510392D01*
X107696069Y-48728899D01*
X107562819Y-48978192D01*
X107480765Y-49248691D01*
X107453058Y-49530000D01*
X107480765Y-49811309D01*
X107562819Y-50081808D01*
X107696069Y-50331101D01*
X107875393Y-50549608D01*
X108093900Y-50728932D01*
X108343193Y-50862182D01*
X108613692Y-50944236D01*
X108824509Y-50965000D01*
X108965493Y-50965000D01*
X109176310Y-50944236D01*
X109446809Y-50862182D01*
X109696102Y-50728932D01*
X109914609Y-50549608D01*
X110093933Y-50331101D01*
X110115902Y-50290000D01*
X112080199Y-50290000D01*
X114175000Y-52384803D01*
X114175001Y-53975198D01*
X113733073Y-54417126D01*
X113733073Y-54085000D01*
X113720813Y-53960518D01*
X113684503Y-53840820D01*
X113625538Y-53730506D01*
X113546186Y-53633815D01*
X113449495Y-53554463D01*
X113339181Y-53495498D01*
X113219483Y-53459188D01*
X113095001Y-53446928D01*
X111595001Y-53446928D01*
X111470519Y-53459188D01*
X111350821Y-53495498D01*
X111240507Y-53554463D01*
X111143816Y-53633815D01*
X111064464Y-53730506D01*
X111005499Y-53840820D01*
X111002714Y-53850000D01*
X108612165Y-53850000D01*
X108574840Y-53846324D01*
X108537515Y-53850000D01*
X108537507Y-53850000D01*
X108425854Y-53860997D01*
X108282593Y-53904454D01*
X108150564Y-53975026D01*
X108034839Y-54069999D01*
X108011041Y-54098997D01*
X105168238Y-56941801D01*
X105139240Y-56965599D01*
X105115442Y-56994597D01*
X105115441Y-56994598D01*
X105044266Y-57081324D01*
X104973694Y-57213354D01*
X104954388Y-57277000D01*
X104930238Y-57356614D01*
X104927652Y-57382866D01*
X104915564Y-57505600D01*
X104545000Y-57505600D01*
X104545000Y-38439005D01*
X109962054Y-38439005D01*
X109962054Y-38726195D01*
X110018082Y-39007867D01*
X110127985Y-39273196D01*
X110287540Y-39511986D01*
X110490614Y-39715060D01*
X110729404Y-39874615D01*
X110994733Y-39984518D01*
X111276405Y-40040546D01*
X111563595Y-40040546D01*
X111845267Y-39984518D01*
X112110596Y-39874615D01*
X112349386Y-39715060D01*
X112552460Y-39511986D01*
X112712015Y-39273196D01*
X112821918Y-39007867D01*
X112877946Y-38726195D01*
X112877946Y-38439005D01*
X148452854Y-38439005D01*
X148452854Y-38726195D01*
X148508882Y-39007867D01*
X148618785Y-39273196D01*
X148778340Y-39511986D01*
X148981414Y-39715060D01*
X149220204Y-39874615D01*
X149485533Y-39984518D01*
X149767205Y-40040546D01*
X150054395Y-40040546D01*
X150336067Y-39984518D01*
X150601396Y-39874615D01*
X150840186Y-39715060D01*
X151043260Y-39511986D01*
X151202815Y-39273196D01*
X151312718Y-39007867D01*
X151368746Y-38726195D01*
X151368746Y-38439005D01*
X151312718Y-38157333D01*
X151202815Y-37892004D01*
X151043260Y-37653214D01*
X150840186Y-37450140D01*
X150601396Y-37290585D01*
X150336067Y-37180682D01*
X150054395Y-37124654D01*
X149767205Y-37124654D01*
X149485533Y-37180682D01*
X149220204Y-37290585D01*
X148981414Y-37450140D01*
X148778340Y-37653214D01*
X148618785Y-37892004D01*
X148508882Y-38157333D01*
X148452854Y-38439005D01*
X112877946Y-38439005D01*
X112821918Y-38157333D01*
X112712015Y-37892004D01*
X112552460Y-37653214D01*
X112349386Y-37450140D01*
X112110596Y-37290585D01*
X111845267Y-37180682D01*
X111563595Y-37124654D01*
X111276405Y-37124654D01*
X110994733Y-37180682D01*
X110729404Y-37290585D01*
X110490614Y-37450140D01*
X110287540Y-37653214D01*
X110127985Y-37892004D01*
X110018082Y-38157333D01*
X109962054Y-38439005D01*
X104545000Y-38439005D01*
X104545000Y-33760000D01*
X155965000Y-33760000D01*
X155965001Y-179773346D01*
X155965001Y-179773346D01*
G37*
X155965001Y-179773346D02*
X155923115Y-179672224D01*
X155763560Y-179433434D01*
X155560486Y-179230360D01*
X155321696Y-179070805D01*
X155056367Y-178960902D01*
X154774695Y-178904874D01*
X154487505Y-178904874D01*
X154205833Y-178960902D01*
X153940504Y-179070805D01*
X153701714Y-179230360D01*
X153498640Y-179433434D01*
X153339085Y-179672224D01*
X153229182Y-179937553D01*
X153173154Y-180219225D01*
X153173154Y-180506415D01*
X153229182Y-180788087D01*
X153339085Y-181053416D01*
X153498640Y-181292206D01*
X153701714Y-181495280D01*
X153940504Y-181654835D01*
X153971853Y-181667820D01*
X106480347Y-181667820D01*
X106511696Y-181654835D01*
X106750486Y-181495280D01*
X106953560Y-181292206D01*
X107113115Y-181053416D01*
X107223018Y-180788087D01*
X107279046Y-180506415D01*
X107279046Y-180219225D01*
X107223018Y-179937553D01*
X107113115Y-179672224D01*
X106953560Y-179433434D01*
X106750486Y-179230360D01*
X106511696Y-179070805D01*
X106246367Y-178960902D01*
X105964695Y-178904874D01*
X105677505Y-178904874D01*
X105395833Y-178960902D01*
X105130504Y-179070805D01*
X104891714Y-179230360D01*
X104688640Y-179433434D01*
X104545000Y-179648406D01*
X104545000Y-104704220D01*
X104646324Y-104704220D01*
X104650001Y-104741553D01*
X104650000Y-166332678D01*
X104646324Y-166370000D01*
X104650000Y-166407322D01*
X104650000Y-166407332D01*
X104660997Y-166518985D01*
X104702383Y-166655420D01*
X104704454Y-166662246D01*
X104775026Y-166794276D01*
X104783339Y-166804405D01*
X104869999Y-166910001D01*
X104899003Y-166933804D01*
X108511421Y-170546223D01*
X108535219Y-170575221D01*
X108650944Y-170670194D01*
X108782973Y-170740766D01*
X108926234Y-170784223D01*
X109037887Y-170795220D01*
X109037897Y-170795220D01*
X109075220Y-170798896D01*
X109112543Y-170795220D01*
X111015019Y-170795220D01*
X111052341Y-170798896D01*
X111089663Y-170795220D01*
X111089674Y-170795220D01*
X111201327Y-170784223D01*
X111344588Y-170740766D01*
X111476617Y-170670194D01*
X111592342Y-170575221D01*
X111616145Y-170546217D01*
X114063928Y-168098435D01*
X114085549Y-168107391D01*
X114377278Y-168165420D01*
X114674722Y-168165420D01*
X114966451Y-168107391D01*
X115241253Y-167993564D01*
X115488569Y-167828313D01*
X115698893Y-167617989D01*
X115864144Y-167370673D01*
X115977971Y-167095871D01*
X116036000Y-166804142D01*
X116036000Y-166506698D01*
X115977971Y-166214969D01*
X115864144Y-165940167D01*
X115698893Y-165692851D01*
X115488569Y-165482527D01*
X115241253Y-165317276D01*
X114966451Y-165203449D01*
X114674722Y-165145420D01*
X114377278Y-165145420D01*
X114085549Y-165203449D01*
X113810747Y-165317276D01*
X113563431Y-165482527D01*
X113353107Y-165692851D01*
X113187856Y-165940167D01*
X113074029Y-166214969D01*
X113016000Y-166506698D01*
X113016000Y-166804142D01*
X113047957Y-166964802D01*
X112539072Y-167473687D01*
X112539072Y-165780420D01*
X112526812Y-165655938D01*
X112490502Y-165536240D01*
X112431537Y-165425926D01*
X112352185Y-165329235D01*
X112255494Y-165249883D01*
X112145180Y-165190918D01*
X112025482Y-165154608D01*
X111901000Y-165142348D01*
X111692141Y-165142348D01*
X111692141Y-162309915D01*
X114991000Y-162309915D01*
X114991000Y-162700925D01*
X115067282Y-163084423D01*
X115216915Y-163445670D01*
X115434149Y-163770784D01*
X115710636Y-164047271D01*
X116035750Y-164264505D01*
X116396997Y-164414138D01*
X116780495Y-164490420D01*
X117171505Y-164490420D01*
X117555003Y-164414138D01*
X117916250Y-164264505D01*
X118241364Y-164047271D01*
X118517851Y-163770784D01*
X118735085Y-163445670D01*
X118884718Y-163084423D01*
X118961000Y-162700925D01*
X118961000Y-162309915D01*
X118884718Y-161926417D01*
X118735085Y-161565170D01*
X118517851Y-161240056D01*
X118241364Y-160963569D01*
X117916250Y-160746335D01*
X117555003Y-160596702D01*
X117171505Y-160520420D01*
X116780495Y-160520420D01*
X116396997Y-160596702D01*
X116035750Y-160746335D01*
X115710636Y-160963569D01*
X115434149Y-161240056D01*
X115216915Y-161565170D01*
X115067282Y-161926417D01*
X114991000Y-162309915D01*
X111692141Y-162309915D01*
X111692141Y-125828720D01*
X119056520Y-118464342D01*
X119099683Y-118428919D01*
X119123485Y-118399916D01*
X119756505Y-117766897D01*
X119785502Y-117743100D01*
X119880475Y-117627375D01*
X119951047Y-117495346D01*
X119994504Y-117352085D01*
X120005501Y-117240432D01*
X120005501Y-117240431D01*
X120009178Y-117203099D01*
X120005501Y-117165766D01*
X120005501Y-107137340D01*
X122482204Y-107137340D01*
X122485880Y-107174662D01*
X122485881Y-166368227D01*
X122482204Y-166405560D01*
X122496878Y-166554545D01*
X122540334Y-166697806D01*
X122610906Y-166829836D01*
X122682081Y-166916562D01*
X122705880Y-166945561D01*
X122734878Y-166969359D01*
X126006941Y-170241423D01*
X126030739Y-170270421D01*
X126059737Y-170294219D01*
X126146463Y-170365394D01*
X126278493Y-170435966D01*
X126421754Y-170479423D01*
X126533407Y-170490420D01*
X126533416Y-170490420D01*
X126570739Y-170494096D01*
X126608062Y-170490420D01*
X128634818Y-170490420D01*
X128672140Y-170494096D01*
X128709462Y-170490420D01*
X128709473Y-170490420D01*
X128821126Y-170479423D01*
X128964387Y-170435966D01*
X129096416Y-170365394D01*
X129212141Y-170270421D01*
X129235944Y-170241417D01*
X131363264Y-168114097D01*
X131621278Y-168165420D01*
X131918722Y-168165420D01*
X132210451Y-168107391D01*
X132485253Y-167993564D01*
X132732569Y-167828313D01*
X132942893Y-167617989D01*
X133108144Y-167370673D01*
X133221971Y-167095871D01*
X133280000Y-166804142D01*
X133280000Y-166506698D01*
X133221971Y-166214969D01*
X133108144Y-165940167D01*
X132942893Y-165692851D01*
X132732569Y-165482527D01*
X132485253Y-165317276D01*
X132210451Y-165203449D01*
X131918722Y-165145420D01*
X131621278Y-165145420D01*
X131329549Y-165203449D01*
X131054747Y-165317276D01*
X130807431Y-165482527D01*
X130597107Y-165692851D01*
X130431856Y-165940167D01*
X130318029Y-166214969D01*
X130260000Y-166506698D01*
X130260000Y-166804142D01*
X130303737Y-167024021D01*
X129781513Y-167546245D01*
X129783072Y-167530420D01*
X129783072Y-165780420D01*
X129770812Y-165655938D01*
X129734502Y-165536240D01*
X129675537Y-165425926D01*
X129596185Y-165329235D01*
X129499494Y-165249883D01*
X129389180Y-165190918D01*
X129269482Y-165154608D01*
X129145000Y-165142348D01*
X129007140Y-165142348D01*
X129007140Y-162309915D01*
X132235000Y-162309915D01*
X132235000Y-162700925D01*
X132311282Y-163084423D01*
X132460915Y-163445670D01*
X132678149Y-163770784D01*
X132954636Y-164047271D01*
X133279750Y-164264505D01*
X133640997Y-164414138D01*
X134024495Y-164490420D01*
X134415505Y-164490420D01*
X134799003Y-164414138D01*
X135160250Y-164264505D01*
X135485364Y-164047271D01*
X135761851Y-163770784D01*
X135979085Y-163445670D01*
X136128718Y-163084423D01*
X136205000Y-162700925D01*
X136205000Y-162309915D01*
X136128718Y-161926417D01*
X135979085Y-161565170D01*
X135761851Y-161240056D01*
X135485364Y-160963569D01*
X135160250Y-160746335D01*
X134799003Y-160596702D01*
X134415505Y-160520420D01*
X134024495Y-160520420D01*
X133640997Y-160596702D01*
X133279750Y-160746335D01*
X132954636Y-160963569D01*
X132678149Y-161240056D01*
X132460915Y-161565170D01*
X132311282Y-161926417D01*
X132235000Y-162309915D01*
X129007140Y-162309915D01*
X129007140Y-114188081D01*
X131085306Y-112109915D01*
X132235000Y-112109915D01*
X132235000Y-112500925D01*
X132311282Y-112884423D01*
X132460915Y-113245670D01*
X132678149Y-113570784D01*
X132954636Y-113847271D01*
X133279750Y-114064505D01*
X133640997Y-114214138D01*
X134024495Y-114290420D01*
X134415505Y-114290420D01*
X134799003Y-114214138D01*
X135160250Y-114064505D01*
X135485364Y-113847271D01*
X135761851Y-113570784D01*
X135979085Y-113245670D01*
X136128718Y-112884423D01*
X136205000Y-112500925D01*
X136205000Y-112109915D01*
X136128718Y-111726417D01*
X135979085Y-111365170D01*
X135761851Y-111040056D01*
X135485364Y-110763569D01*
X135160250Y-110546335D01*
X134799003Y-110396702D01*
X134415505Y-110320420D01*
X134024495Y-110320420D01*
X133640997Y-110396702D01*
X133279750Y-110546335D01*
X132954636Y-110763569D01*
X132678149Y-111040056D01*
X132460915Y-111365170D01*
X132311282Y-111726417D01*
X132235000Y-112109915D01*
X131085306Y-112109915D01*
X137099508Y-106095715D01*
X137128501Y-106071921D01*
X137152295Y-106042928D01*
X137152299Y-106042924D01*
X137223473Y-105956197D01*
X137227547Y-105948576D01*
X137294046Y-105824167D01*
X137337503Y-105680906D01*
X137348500Y-105569253D01*
X137348500Y-105569244D01*
X137352176Y-105531921D01*
X137348500Y-105494598D01*
X137348500Y-100792280D01*
X139830404Y-100792280D01*
X139834080Y-100829602D01*
X139834081Y-165956747D01*
X139830404Y-165994080D01*
X139845078Y-166143065D01*
X139888534Y-166286326D01*
X139959106Y-166418356D01*
X140030281Y-166505082D01*
X140054080Y-166534081D01*
X140083078Y-166557879D01*
X143649781Y-170124583D01*
X143673579Y-170153581D01*
X143702577Y-170177379D01*
X143789303Y-170248554D01*
X143874736Y-170294219D01*
X143921333Y-170319126D01*
X144064594Y-170362583D01*
X144176247Y-170373580D01*
X144176257Y-170373580D01*
X144213580Y-170377256D01*
X144250902Y-170373580D01*
X146531658Y-170373580D01*
X146568980Y-170377256D01*
X146606302Y-170373580D01*
X146606313Y-170373580D01*
X146717966Y-170362583D01*
X146861227Y-170319126D01*
X146993256Y-170248554D01*
X147108981Y-170153581D01*
X147132784Y-170124577D01*
X149143264Y-168114097D01*
X149401278Y-168165420D01*
X149698722Y-168165420D01*
X149990451Y-168107391D01*
X150265253Y-167993564D01*
X150512569Y-167828313D01*
X150722893Y-167617989D01*
X150888144Y-167370673D01*
X151001971Y-167095871D01*
X151060000Y-166804142D01*
X151060000Y-166506698D01*
X151001971Y-166214969D01*
X150888144Y-165940167D01*
X150722893Y-165692851D01*
X150512569Y-165482527D01*
X150265253Y-165317276D01*
X149990451Y-165203449D01*
X149698722Y-165145420D01*
X149401278Y-165145420D01*
X149109549Y-165203449D01*
X148834747Y-165317276D01*
X148587431Y-165482527D01*
X148377107Y-165692851D01*
X148211856Y-165940167D01*
X148098029Y-166214969D01*
X148040000Y-166506698D01*
X148040000Y-166804142D01*
X148083737Y-167024021D01*
X147561513Y-167546245D01*
X147563072Y-167530420D01*
X147563072Y-165780420D01*
X147550812Y-165655938D01*
X147514502Y-165536240D01*
X147455537Y-165425926D01*
X147376185Y-165329235D01*
X147279494Y-165249883D01*
X147169180Y-165190918D01*
X147049482Y-165154608D01*
X146925000Y-165142348D01*
X146787140Y-165142348D01*
X146787140Y-162309915D01*
X150015000Y-162309915D01*
X150015000Y-162700925D01*
X150091282Y-163084423D01*
X150240915Y-163445670D01*
X150458149Y-163770784D01*
X150734636Y-164047271D01*
X151059750Y-164264505D01*
X151420997Y-164414138D01*
X151804495Y-164490420D01*
X152195505Y-164490420D01*
X152579003Y-164414138D01*
X152940250Y-164264505D01*
X153265364Y-164047271D01*
X153541851Y-163770784D01*
X153759085Y-163445670D01*
X153908718Y-163084423D01*
X153985000Y-162700925D01*
X153985000Y-162309915D01*
X153908718Y-161926417D01*
X153759085Y-161565170D01*
X153541851Y-161240056D01*
X153265364Y-160963569D01*
X152940250Y-160746335D01*
X152579003Y-160596702D01*
X152195505Y-160520420D01*
X151804495Y-160520420D01*
X151420997Y-160596702D01*
X151059750Y-160746335D01*
X150734636Y-160963569D01*
X150458149Y-161240056D01*
X150240915Y-161565170D01*
X150091282Y-161926417D01*
X150015000Y-162309915D01*
X146787140Y-162309915D01*
X146787140Y-113139061D01*
X147816286Y-112109915D01*
X150015000Y-112109915D01*
X150015000Y-112500925D01*
X150091282Y-112884423D01*
X150240915Y-113245670D01*
X150458149Y-113570784D01*
X150734636Y-113847271D01*
X151059750Y-114064505D01*
X151420997Y-114214138D01*
X151804495Y-114290420D01*
X152195505Y-114290420D01*
X152579003Y-114214138D01*
X152940250Y-114064505D01*
X153265364Y-113847271D01*
X153541851Y-113570784D01*
X153759085Y-113245670D01*
X153908718Y-112884423D01*
X153985000Y-112500925D01*
X153985000Y-112109915D01*
X153908718Y-111726417D01*
X153759085Y-111365170D01*
X153541851Y-111040056D01*
X153265364Y-110763569D01*
X152940250Y-110546335D01*
X152579003Y-110396702D01*
X152195505Y-110320420D01*
X151804495Y-110320420D01*
X151420997Y-110396702D01*
X151059750Y-110546335D01*
X150734636Y-110763569D01*
X150458149Y-111040056D01*
X150240915Y-111365170D01*
X150091282Y-111726417D01*
X150015000Y-112109915D01*
X147816286Y-112109915D01*
X153838108Y-106088095D01*
X153867101Y-106064301D01*
X153890895Y-106035308D01*
X153890899Y-106035304D01*
X153962073Y-105948577D01*
X153962074Y-105948576D01*
X154032646Y-105816547D01*
X154076103Y-105673286D01*
X154087100Y-105561633D01*
X154087100Y-105561624D01*
X154090776Y-105524301D01*
X154087100Y-105486978D01*
X154087100Y-77951825D01*
X154090776Y-77914500D01*
X154087100Y-77877175D01*
X154087100Y-77877167D01*
X154076103Y-77765514D01*
X154032646Y-77622253D01*
X153962074Y-77490224D01*
X153867101Y-77374499D01*
X153838104Y-77350702D01*
X153011313Y-76523912D01*
X153024236Y-76481309D01*
X153051943Y-76200000D01*
X153024236Y-75918691D01*
X152942182Y-75648192D01*
X152808932Y-75398899D01*
X152629608Y-75180392D01*
X152411101Y-75001068D01*
X152161808Y-74867818D01*
X151891309Y-74785764D01*
X151680492Y-74765000D01*
X151539508Y-74765000D01*
X151328691Y-74785764D01*
X151058192Y-74867818D01*
X150808899Y-75001068D01*
X150590392Y-75180392D01*
X150411068Y-75398899D01*
X150277818Y-75648192D01*
X150195764Y-75918691D01*
X150168057Y-76200000D01*
X150195764Y-76481309D01*
X150277818Y-76751808D01*
X150411068Y-77001101D01*
X150590392Y-77219608D01*
X150808899Y-77398932D01*
X151058192Y-77532182D01*
X151328691Y-77614236D01*
X151539508Y-77635000D01*
X151680492Y-77635000D01*
X151891309Y-77614236D01*
X151937901Y-77600103D01*
X152567100Y-78229302D01*
X152567101Y-105209496D01*
X145516143Y-112260456D01*
X145487139Y-112284259D01*
X145432011Y-112351434D01*
X145392166Y-112399984D01*
X145338212Y-112500925D01*
X145328410Y-112519262D01*
X145141851Y-112240056D01*
X144865364Y-111963569D01*
X144540250Y-111746335D01*
X144179003Y-111596702D01*
X143795505Y-111520420D01*
X143404495Y-111520420D01*
X143020997Y-111596702D01*
X142659750Y-111746335D01*
X142334636Y-111963569D01*
X142058149Y-112240056D01*
X141840915Y-112565170D01*
X141691282Y-112926417D01*
X141615000Y-113309915D01*
X141615000Y-113700925D01*
X141691282Y-114084423D01*
X141840915Y-114445670D01*
X142058149Y-114770784D01*
X142334636Y-115047271D01*
X142659750Y-115264505D01*
X143020997Y-115414138D01*
X143404495Y-115490420D01*
X143795505Y-115490420D01*
X144179003Y-115414138D01*
X144540250Y-115264505D01*
X144865364Y-115047271D01*
X145141851Y-114770784D01*
X145267140Y-114583276D01*
X145267141Y-160227566D01*
X145141851Y-160040056D01*
X144865364Y-159763569D01*
X144540250Y-159546335D01*
X144179003Y-159396702D01*
X143795505Y-159320420D01*
X143404495Y-159320420D01*
X143020997Y-159396702D01*
X142659750Y-159546335D01*
X142334636Y-159763569D01*
X142058149Y-160040056D01*
X141840915Y-160365170D01*
X141691282Y-160726417D01*
X141615000Y-161109915D01*
X141615000Y-161500925D01*
X141691282Y-161884423D01*
X141840915Y-162245670D01*
X142058149Y-162570784D01*
X142334636Y-162847271D01*
X142659750Y-163064505D01*
X143020997Y-163214138D01*
X143404495Y-163290420D01*
X143795505Y-163290420D01*
X144179003Y-163214138D01*
X144540250Y-163064505D01*
X144865364Y-162847271D01*
X145141851Y-162570784D01*
X145267141Y-162383274D01*
X145267141Y-165142348D01*
X145175000Y-165142348D01*
X145050518Y-165154608D01*
X144930820Y-165190918D01*
X144820506Y-165249883D01*
X144723815Y-165329235D01*
X144644463Y-165425926D01*
X144585498Y-165536240D01*
X144549188Y-165655938D01*
X144536928Y-165780420D01*
X144536928Y-167530420D01*
X144549188Y-167654902D01*
X144585498Y-167774600D01*
X144644463Y-167884914D01*
X144723815Y-167981605D01*
X144820506Y-168060957D01*
X144930820Y-168119922D01*
X145050518Y-168156232D01*
X145175000Y-168168492D01*
X146925000Y-168168492D01*
X146940825Y-168166933D01*
X146254179Y-168853580D01*
X144528382Y-168853580D01*
X141354080Y-165679279D01*
X141354080Y-109201660D01*
X145183365Y-109201660D01*
X145264025Y-109453288D01*
X145532329Y-109581687D01*
X145820526Y-109655275D01*
X146117543Y-109671224D01*
X146411963Y-109628921D01*
X146692474Y-109529992D01*
X146835975Y-109453288D01*
X146916635Y-109201660D01*
X146050000Y-108335025D01*
X145183365Y-109201660D01*
X141354080Y-109201660D01*
X141354080Y-108222963D01*
X144534196Y-108222963D01*
X144576499Y-108517383D01*
X144675428Y-108797894D01*
X144752132Y-108941395D01*
X145003760Y-109022055D01*
X145870395Y-108155420D01*
X146229605Y-108155420D01*
X147096240Y-109022055D01*
X147347868Y-108941395D01*
X147476267Y-108673091D01*
X147549855Y-108384894D01*
X147565804Y-108087877D01*
X147523501Y-107793457D01*
X147424572Y-107512946D01*
X147347868Y-107369445D01*
X147096240Y-107288785D01*
X146229605Y-108155420D01*
X145870395Y-108155420D01*
X145003760Y-107288785D01*
X144752132Y-107369445D01*
X144623733Y-107637749D01*
X144550145Y-107925946D01*
X144534196Y-108222963D01*
X141354080Y-108222963D01*
X141354080Y-107109180D01*
X145183365Y-107109180D01*
X146050000Y-107975815D01*
X146916635Y-107109180D01*
X146835975Y-106857552D01*
X146567671Y-106729153D01*
X146279474Y-106655565D01*
X145982457Y-106639616D01*
X145688037Y-106681919D01*
X145407526Y-106780848D01*
X145264025Y-106857552D01*
X145183365Y-107109180D01*
X141354080Y-107109180D01*
X141354080Y-101107081D01*
X142975442Y-99485720D01*
X144529537Y-99485720D01*
X144534913Y-99503442D01*
X144722716Y-99854798D01*
X144975457Y-100162763D01*
X145283422Y-100415504D01*
X145634778Y-100603307D01*
X146016021Y-100718956D01*
X146313142Y-100748220D01*
X149286858Y-100748220D01*
X149583979Y-100718956D01*
X149965222Y-100603307D01*
X150316578Y-100415504D01*
X150624543Y-100162763D01*
X150877284Y-99854798D01*
X151065087Y-99503442D01*
X151180736Y-99122199D01*
X151219786Y-98725720D01*
X151180736Y-98329241D01*
X151065087Y-97947998D01*
X150877284Y-97596642D01*
X150624543Y-97288677D01*
X150316578Y-97035936D01*
X149965222Y-96848133D01*
X149583979Y-96732484D01*
X149286858Y-96703220D01*
X146313142Y-96703220D01*
X146016021Y-96732484D01*
X145634778Y-96848133D01*
X145283422Y-97035936D01*
X144975457Y-97288677D01*
X144722716Y-97596642D01*
X144534913Y-97947998D01*
X144529537Y-97965720D01*
X142697962Y-97965720D01*
X142660639Y-97962044D01*
X142623316Y-97965720D01*
X142623307Y-97965720D01*
X142511654Y-97976717D01*
X142368393Y-98020174D01*
X142236364Y-98090746D01*
X142120639Y-98185719D01*
X142096841Y-98214717D01*
X140083083Y-100228476D01*
X140054079Y-100252279D01*
X139998951Y-100319454D01*
X139959106Y-100368004D01*
X139941708Y-100400553D01*
X139888534Y-100500034D01*
X139845077Y-100643295D01*
X139834080Y-100754948D01*
X139834080Y-100754958D01*
X139830404Y-100792280D01*
X137348500Y-100792280D01*
X137348500Y-94025720D01*
X144380214Y-94025720D01*
X144419264Y-94422199D01*
X144534913Y-94803442D01*
X144722716Y-95154798D01*
X144975457Y-95462763D01*
X145283422Y-95715504D01*
X145634778Y-95903307D01*
X146016021Y-96018956D01*
X146313142Y-96048220D01*
X149286858Y-96048220D01*
X149583979Y-96018956D01*
X149965222Y-95903307D01*
X150316578Y-95715504D01*
X150624543Y-95462763D01*
X150877284Y-95154798D01*
X151065087Y-94803442D01*
X151180736Y-94422199D01*
X151219786Y-94025720D01*
X151180736Y-93629241D01*
X151065087Y-93247998D01*
X150877284Y-92896642D01*
X150624543Y-92588677D01*
X150316578Y-92335936D01*
X149965222Y-92148133D01*
X149583979Y-92032484D01*
X149286858Y-92003220D01*
X146313142Y-92003220D01*
X146016021Y-92032484D01*
X145634778Y-92148133D01*
X145283422Y-92335936D01*
X144975457Y-92588677D01*
X144722716Y-92896642D01*
X144534913Y-93247998D01*
X144419264Y-93629241D01*
X144380214Y-94025720D01*
X137348500Y-94025720D01*
X137348500Y-89325720D01*
X144380214Y-89325720D01*
X144419264Y-89722199D01*
X144534913Y-90103442D01*
X144722716Y-90454798D01*
X144975457Y-90762763D01*
X145283422Y-91015504D01*
X145634778Y-91203307D01*
X146016021Y-91318956D01*
X146313142Y-91348220D01*
X149286858Y-91348220D01*
X149583979Y-91318956D01*
X149965222Y-91203307D01*
X150316578Y-91015504D01*
X150624543Y-90762763D01*
X150877284Y-90454798D01*
X151065087Y-90103442D01*
X151180736Y-89722199D01*
X151219786Y-89325720D01*
X151180736Y-88929241D01*
X151065087Y-88547998D01*
X150877284Y-88196642D01*
X150624543Y-87888677D01*
X150316578Y-87635936D01*
X149965222Y-87448133D01*
X149583979Y-87332484D01*
X149286858Y-87303220D01*
X148560000Y-87303220D01*
X148560000Y-84298172D01*
X148650000Y-84298172D01*
X148774482Y-84285912D01*
X148894180Y-84249602D01*
X149004494Y-84190637D01*
X149101185Y-84111285D01*
X149180537Y-84014594D01*
X149239502Y-83904280D01*
X149275812Y-83784582D01*
X149288072Y-83660100D01*
X149288072Y-81960100D01*
X149275812Y-81835618D01*
X149239502Y-81715920D01*
X149180537Y-81605606D01*
X149101185Y-81508915D01*
X149004494Y-81429563D01*
X148894180Y-81370598D01*
X148774482Y-81334288D01*
X148650000Y-81322028D01*
X146950000Y-81322028D01*
X146825518Y-81334288D01*
X146705820Y-81370598D01*
X146595506Y-81429563D01*
X146498815Y-81508915D01*
X146419463Y-81605606D01*
X146360498Y-81715920D01*
X146324188Y-81835618D01*
X146311928Y-81960100D01*
X146311928Y-83660100D01*
X146324188Y-83784582D01*
X146360498Y-83904280D01*
X146419463Y-84014594D01*
X146498815Y-84111285D01*
X146595506Y-84190637D01*
X146705820Y-84249602D01*
X146825518Y-84285912D01*
X146950000Y-84298172D01*
X147040000Y-84298172D01*
X147040001Y-87303220D01*
X146313142Y-87303220D01*
X146016021Y-87332484D01*
X145634778Y-87448133D01*
X145283422Y-87635936D01*
X144975457Y-87888677D01*
X144722716Y-88196642D01*
X144534913Y-88547998D01*
X144419264Y-88929241D01*
X144380214Y-89325720D01*
X137348500Y-89325720D01*
X137348500Y-78995822D01*
X137352176Y-78958499D01*
X137348500Y-78921176D01*
X137348500Y-78921167D01*
X137337503Y-78809514D01*
X137294046Y-78666253D01*
X137292576Y-78663503D01*
X137223474Y-78534223D01*
X137152299Y-78447497D01*
X137128501Y-78418499D01*
X137099504Y-78394702D01*
X135230708Y-76525906D01*
X135244236Y-76481309D01*
X135271943Y-76200000D01*
X135244236Y-75918691D01*
X135162182Y-75648192D01*
X135028932Y-75398899D01*
X134849608Y-75180392D01*
X134631101Y-75001068D01*
X134381808Y-74867818D01*
X134111309Y-74785764D01*
X133900492Y-74765000D01*
X133759508Y-74765000D01*
X133548691Y-74785764D01*
X133278192Y-74867818D01*
X133028899Y-75001068D01*
X132810392Y-75180392D01*
X132631068Y-75398899D01*
X132497818Y-75648192D01*
X132415764Y-75918691D01*
X132388057Y-76200000D01*
X132415764Y-76481309D01*
X132497818Y-76751808D01*
X132631068Y-77001101D01*
X132810392Y-77219608D01*
X133028899Y-77398932D01*
X133278192Y-77532182D01*
X133548691Y-77614236D01*
X133759508Y-77635000D01*
X133900492Y-77635000D01*
X134111309Y-77614236D01*
X134155906Y-77600708D01*
X135828500Y-79273302D01*
X135828501Y-105217116D01*
X127793503Y-113252116D01*
X127728718Y-112926417D01*
X127579085Y-112565170D01*
X127361851Y-112240056D01*
X127085364Y-111963569D01*
X126760250Y-111746335D01*
X126399003Y-111596702D01*
X126015505Y-111520420D01*
X125624495Y-111520420D01*
X125240997Y-111596702D01*
X124879750Y-111746335D01*
X124554636Y-111963569D01*
X124278149Y-112240056D01*
X124060915Y-112565170D01*
X124005880Y-112698037D01*
X124005880Y-109201660D01*
X127403365Y-109201660D01*
X127484025Y-109453288D01*
X127752329Y-109581687D01*
X128040526Y-109655275D01*
X128337543Y-109671224D01*
X128631963Y-109628921D01*
X128912474Y-109529992D01*
X129055975Y-109453288D01*
X129136635Y-109201660D01*
X128270000Y-108335025D01*
X127403365Y-109201660D01*
X124005880Y-109201660D01*
X124005880Y-108222963D01*
X126754196Y-108222963D01*
X126796499Y-108517383D01*
X126895428Y-108797894D01*
X126972132Y-108941395D01*
X127223760Y-109022055D01*
X128090395Y-108155420D01*
X128449605Y-108155420D01*
X129316240Y-109022055D01*
X129567868Y-108941395D01*
X129696267Y-108673091D01*
X129769855Y-108384894D01*
X129785804Y-108087877D01*
X129743501Y-107793457D01*
X129644572Y-107512946D01*
X129567868Y-107369445D01*
X129316240Y-107288785D01*
X128449605Y-108155420D01*
X128090395Y-108155420D01*
X127223760Y-107288785D01*
X126972132Y-107369445D01*
X126843733Y-107637749D01*
X126770145Y-107925946D01*
X126754196Y-108222963D01*
X124005880Y-108222963D01*
X124005880Y-107452141D01*
X124348841Y-107109180D01*
X127403365Y-107109180D01*
X128270000Y-107975815D01*
X129136635Y-107109180D01*
X129055975Y-106857552D01*
X128787671Y-106729153D01*
X128499474Y-106655565D01*
X128202457Y-106639616D01*
X127908037Y-106681919D01*
X127627526Y-106780848D01*
X127484025Y-106857552D01*
X127403365Y-107109180D01*
X124348841Y-107109180D01*
X130531008Y-100927015D01*
X130560001Y-100903221D01*
X130583795Y-100874228D01*
X130583799Y-100874224D01*
X130654973Y-100787497D01*
X130654974Y-100787496D01*
X130675968Y-100748220D01*
X131506858Y-100748220D01*
X131803979Y-100718956D01*
X132185222Y-100603307D01*
X132536578Y-100415504D01*
X132844543Y-100162763D01*
X133097284Y-99854798D01*
X133285087Y-99503442D01*
X133400736Y-99122199D01*
X133439786Y-98725720D01*
X133400736Y-98329241D01*
X133285087Y-97947998D01*
X133097284Y-97596642D01*
X132844543Y-97288677D01*
X132536578Y-97035936D01*
X132185222Y-96848133D01*
X131803979Y-96732484D01*
X131506858Y-96703220D01*
X128533142Y-96703220D01*
X128236021Y-96732484D01*
X127854778Y-96848133D01*
X127503422Y-97035936D01*
X127195457Y-97288677D01*
X126942716Y-97596642D01*
X126754913Y-97947998D01*
X126639264Y-98329241D01*
X126600214Y-98725720D01*
X126639264Y-99122199D01*
X126754913Y-99503442D01*
X126942716Y-99854798D01*
X127195457Y-100162763D01*
X127503422Y-100415504D01*
X127854778Y-100603307D01*
X128236021Y-100718956D01*
X128533142Y-100748220D01*
X128560197Y-100748220D01*
X122734883Y-106573536D01*
X122705879Y-106597339D01*
X122658095Y-106655565D01*
X122610906Y-106713064D01*
X122540335Y-106845093D01*
X122540334Y-106845094D01*
X122496877Y-106988355D01*
X122485880Y-107100008D01*
X122485880Y-107100018D01*
X122482204Y-107137340D01*
X120005501Y-107137340D01*
X120005501Y-78967822D01*
X120009177Y-78930499D01*
X120005501Y-78893176D01*
X120005501Y-78893167D01*
X119994504Y-78781514D01*
X119951047Y-78638253D01*
X119895441Y-78534223D01*
X119880475Y-78506223D01*
X119809300Y-78419497D01*
X119785502Y-78390499D01*
X119756504Y-78366701D01*
X117915709Y-76525906D01*
X117929237Y-76481309D01*
X117956944Y-76200000D01*
X117929237Y-75918691D01*
X117847183Y-75648192D01*
X117713933Y-75398899D01*
X117534609Y-75180392D01*
X117316102Y-75001068D01*
X117066809Y-74867818D01*
X116796310Y-74785764D01*
X116585493Y-74765000D01*
X116444509Y-74765000D01*
X116233692Y-74785764D01*
X115963193Y-74867818D01*
X115713900Y-75001068D01*
X115495393Y-75180392D01*
X115316069Y-75398899D01*
X115182819Y-75648192D01*
X115100765Y-75918691D01*
X115073058Y-76200000D01*
X115100765Y-76481309D01*
X115182819Y-76751808D01*
X115316069Y-77001101D01*
X115495393Y-77219608D01*
X115713900Y-77398932D01*
X115963193Y-77532182D01*
X116233692Y-77614236D01*
X116444509Y-77635000D01*
X116585493Y-77635000D01*
X116796310Y-77614236D01*
X116840907Y-77600708D01*
X118485502Y-79245303D01*
X118485501Y-111007706D01*
X118241364Y-110763569D01*
X117916250Y-110546335D01*
X117555003Y-110396702D01*
X117171505Y-110320420D01*
X116780495Y-110320420D01*
X116396997Y-110396702D01*
X116035750Y-110546335D01*
X115710636Y-110763569D01*
X115434149Y-111040056D01*
X115216915Y-111365170D01*
X115067282Y-111726417D01*
X114991000Y-112109915D01*
X114991000Y-112500925D01*
X115067282Y-112884423D01*
X115216915Y-113245670D01*
X115434149Y-113570784D01*
X115710636Y-113847271D01*
X116035750Y-114064505D01*
X116396997Y-114214138D01*
X116780495Y-114290420D01*
X117171505Y-114290420D01*
X117555003Y-114214138D01*
X117916250Y-114064505D01*
X118241364Y-113847271D01*
X118485501Y-113603134D01*
X118485501Y-116888297D01*
X118060309Y-117313490D01*
X118017141Y-117348917D01*
X117993343Y-117377915D01*
X110421139Y-124950120D01*
X110392141Y-124973918D01*
X110368343Y-125002916D01*
X110368342Y-125002917D01*
X110297167Y-125089643D01*
X110226595Y-125221673D01*
X110183139Y-125364934D01*
X110168465Y-125513919D01*
X110172142Y-125551252D01*
X110172141Y-160121307D01*
X110117851Y-160040056D01*
X109841364Y-159763569D01*
X109516250Y-159546335D01*
X109155003Y-159396702D01*
X108771505Y-159320420D01*
X108380495Y-159320420D01*
X107996997Y-159396702D01*
X107635750Y-159546335D01*
X107310636Y-159763569D01*
X107034149Y-160040056D01*
X106816915Y-160365170D01*
X106667282Y-160726417D01*
X106591000Y-161109915D01*
X106591000Y-161500925D01*
X106667282Y-161884423D01*
X106816915Y-162245670D01*
X107034149Y-162570784D01*
X107310636Y-162847271D01*
X107635750Y-163064505D01*
X107996997Y-163214138D01*
X108380495Y-163290420D01*
X108771505Y-163290420D01*
X109155003Y-163214138D01*
X109516250Y-163064505D01*
X109841364Y-162847271D01*
X110117851Y-162570784D01*
X110172141Y-162489533D01*
X110172141Y-165142348D01*
X110151000Y-165142348D01*
X110026518Y-165154608D01*
X109906820Y-165190918D01*
X109796506Y-165249883D01*
X109699815Y-165329235D01*
X109620463Y-165425926D01*
X109561498Y-165536240D01*
X109525188Y-165655938D01*
X109512928Y-165780420D01*
X109512928Y-167530420D01*
X109525188Y-167654902D01*
X109561498Y-167774600D01*
X109620463Y-167884914D01*
X109699815Y-167981605D01*
X109796506Y-168060957D01*
X109906820Y-168119922D01*
X110026518Y-168156232D01*
X110151000Y-168168492D01*
X111844268Y-168168492D01*
X110737540Y-169275220D01*
X109390022Y-169275220D01*
X106170000Y-166055199D01*
X106170000Y-113309915D01*
X106591000Y-113309915D01*
X106591000Y-113700925D01*
X106667282Y-114084423D01*
X106816915Y-114445670D01*
X107034149Y-114770784D01*
X107310636Y-115047271D01*
X107635750Y-115264505D01*
X107996997Y-115414138D01*
X108380495Y-115490420D01*
X108771505Y-115490420D01*
X109155003Y-115414138D01*
X109516250Y-115264505D01*
X109841364Y-115047271D01*
X110117851Y-114770784D01*
X110335085Y-114445670D01*
X110484718Y-114084423D01*
X110561000Y-113700925D01*
X110561000Y-113309915D01*
X110484718Y-112926417D01*
X110335085Y-112565170D01*
X110117851Y-112240056D01*
X109841364Y-111963569D01*
X109516250Y-111746335D01*
X109155003Y-111596702D01*
X108771505Y-111520420D01*
X108380495Y-111520420D01*
X107996997Y-111596702D01*
X107635750Y-111746335D01*
X107310636Y-111963569D01*
X107034149Y-112240056D01*
X106816915Y-112565170D01*
X106667282Y-112926417D01*
X106591000Y-113309915D01*
X106170000Y-113309915D01*
X106170000Y-109201660D01*
X110159365Y-109201660D01*
X110240025Y-109453288D01*
X110508329Y-109581687D01*
X110796526Y-109655275D01*
X111093543Y-109671224D01*
X111387963Y-109628921D01*
X111668474Y-109529992D01*
X111811975Y-109453288D01*
X111892635Y-109201660D01*
X111026000Y-108335025D01*
X110159365Y-109201660D01*
X106170000Y-109201660D01*
X106170000Y-108222963D01*
X109510196Y-108222963D01*
X109552499Y-108517383D01*
X109651428Y-108797894D01*
X109728132Y-108941395D01*
X109979760Y-109022055D01*
X110846395Y-108155420D01*
X111205605Y-108155420D01*
X112072240Y-109022055D01*
X112323868Y-108941395D01*
X112452267Y-108673091D01*
X112525855Y-108384894D01*
X112541804Y-108087877D01*
X112499501Y-107793457D01*
X112400572Y-107512946D01*
X112323868Y-107369445D01*
X112072240Y-107288785D01*
X111205605Y-108155420D01*
X110846395Y-108155420D01*
X109979760Y-107288785D01*
X109728132Y-107369445D01*
X109599733Y-107637749D01*
X109526145Y-107925946D01*
X109510196Y-108222963D01*
X106170000Y-108222963D01*
X106170000Y-107109180D01*
X110159365Y-107109180D01*
X111026000Y-107975815D01*
X111892635Y-107109180D01*
X111811975Y-106857552D01*
X111543671Y-106729153D01*
X111255474Y-106655565D01*
X110958457Y-106639616D01*
X110664037Y-106681919D01*
X110383526Y-106780848D01*
X110240025Y-106857552D01*
X110159365Y-107109180D01*
X106170000Y-107109180D01*
X106170000Y-105019022D01*
X106890909Y-104298114D01*
X106890918Y-104298103D01*
X110594445Y-100594577D01*
X110610778Y-100603307D01*
X110992021Y-100718956D01*
X111289142Y-100748220D01*
X114262858Y-100748220D01*
X114559979Y-100718956D01*
X114941222Y-100603307D01*
X115292578Y-100415504D01*
X115600543Y-100162763D01*
X115853284Y-99854798D01*
X116041087Y-99503442D01*
X116156736Y-99122199D01*
X116195786Y-98725720D01*
X116156736Y-98329241D01*
X116041087Y-97947998D01*
X115853284Y-97596642D01*
X115600543Y-97288677D01*
X115292578Y-97035936D01*
X114941222Y-96848133D01*
X114559979Y-96732484D01*
X114262858Y-96703220D01*
X111289142Y-96703220D01*
X110992021Y-96732484D01*
X110610778Y-96848133D01*
X110259422Y-97035936D01*
X109951457Y-97288677D01*
X109698716Y-97596642D01*
X109510913Y-97947998D01*
X109395264Y-98329241D01*
X109356214Y-98725720D01*
X109395264Y-99122199D01*
X109510913Y-99503442D01*
X109519643Y-99519775D01*
X105816117Y-103223302D01*
X105816106Y-103223311D01*
X104898998Y-104140421D01*
X104870000Y-104164219D01*
X104846202Y-104193217D01*
X104846201Y-104193218D01*
X104775026Y-104279944D01*
X104704454Y-104411974D01*
X104674180Y-104511778D01*
X104662348Y-104550786D01*
X104660998Y-104555235D01*
X104646324Y-104704220D01*
X104545000Y-104704220D01*
X104545000Y-70199039D01*
X107513097Y-70199039D01*
X107553755Y-70333087D01*
X107673964Y-70587420D01*
X107841482Y-70813414D01*
X108049870Y-71002385D01*
X108291120Y-71147070D01*
X108555961Y-71241909D01*
X108778001Y-71120624D01*
X108778001Y-69977000D01*
X107635086Y-69977000D01*
X107513097Y-70199039D01*
X104545000Y-70199039D01*
X104545000Y-57505600D01*
X104915564Y-57505600D01*
X104919241Y-57542932D01*
X104919240Y-64112917D01*
X104915564Y-64150240D01*
X104919240Y-64187562D01*
X104919240Y-64187572D01*
X104930237Y-64299225D01*
X104967177Y-64421001D01*
X104973694Y-64442486D01*
X105044266Y-64574516D01*
X105082426Y-64621014D01*
X105139239Y-64690241D01*
X105168243Y-64714044D01*
X107475201Y-67021003D01*
X107489773Y-67038759D01*
X107463058Y-67310000D01*
X107490765Y-67591309D01*
X107572819Y-67861808D01*
X107706069Y-68111101D01*
X107885393Y-68329608D01*
X108103900Y-68508932D01*
X108241683Y-68582579D01*
X108049870Y-68697615D01*
X107841482Y-68886586D01*
X107673964Y-69112580D01*
X107553755Y-69366913D01*
X107513097Y-69500961D01*
X107635086Y-69723000D01*
X108778001Y-69723000D01*
X108778001Y-69703000D01*
X109032001Y-69703000D01*
X109032001Y-69723000D01*
X109052001Y-69723000D01*
X109052001Y-69977000D01*
X109032001Y-69977000D01*
X109032001Y-71120624D01*
X109254041Y-71241909D01*
X109518882Y-71147070D01*
X109760132Y-71002385D01*
X109968520Y-70813414D01*
X110136038Y-70587420D01*
X110256247Y-70333087D01*
X110283720Y-70242509D01*
X110283720Y-70957598D01*
X106745578Y-74495741D01*
X106716580Y-74519539D01*
X106692782Y-74548537D01*
X106692781Y-74548538D01*
X106621606Y-74635264D01*
X106551034Y-74767294D01*
X106507578Y-74910555D01*
X106492904Y-75059540D01*
X106496581Y-75096872D01*
X106496580Y-89856478D01*
X106492904Y-89893800D01*
X106496580Y-89931122D01*
X106496580Y-89931132D01*
X106507577Y-90042785D01*
X106525977Y-90103442D01*
X106551034Y-90186046D01*
X106621606Y-90318076D01*
X106661451Y-90366626D01*
X106716579Y-90433801D01*
X106745583Y-90457604D01*
X109519643Y-93231665D01*
X109510913Y-93247998D01*
X109395264Y-93629241D01*
X109356214Y-94025720D01*
X109395264Y-94422199D01*
X109510913Y-94803442D01*
X109698716Y-95154798D01*
X109951457Y-95462763D01*
X110259422Y-95715504D01*
X110610778Y-95903307D01*
X110992021Y-96018956D01*
X111289142Y-96048220D01*
X114262858Y-96048220D01*
X114559979Y-96018956D01*
X114941222Y-95903307D01*
X115292578Y-95715504D01*
X115600543Y-95462763D01*
X115853284Y-95154798D01*
X116041087Y-94803442D01*
X116156736Y-94422199D01*
X116195786Y-94025720D01*
X116156736Y-93629241D01*
X116041087Y-93247998D01*
X115853284Y-92896642D01*
X115600543Y-92588677D01*
X115292578Y-92335936D01*
X114941222Y-92148133D01*
X114559979Y-92032484D01*
X114262858Y-92003220D01*
X111289142Y-92003220D01*
X110992021Y-92032484D01*
X110610778Y-92148133D01*
X110594445Y-92156863D01*
X108016580Y-89578999D01*
X108016580Y-89325720D01*
X109356214Y-89325720D01*
X109395264Y-89722199D01*
X109510913Y-90103442D01*
X109698716Y-90454798D01*
X109951457Y-90762763D01*
X110259422Y-91015504D01*
X110610778Y-91203307D01*
X110992021Y-91318956D01*
X111289142Y-91348220D01*
X114262858Y-91348220D01*
X114559979Y-91318956D01*
X114941222Y-91203307D01*
X115292578Y-91015504D01*
X115600543Y-90762763D01*
X115853284Y-90454798D01*
X116041087Y-90103442D01*
X116156736Y-89722199D01*
X116195786Y-89325720D01*
X116156736Y-88929241D01*
X116041087Y-88547998D01*
X115853284Y-88196642D01*
X115600543Y-87888677D01*
X115292578Y-87635936D01*
X114941222Y-87448133D01*
X114559979Y-87332484D01*
X114262858Y-87303220D01*
X113465001Y-87303220D01*
X113465001Y-84298172D01*
X113555001Y-84298172D01*
X113679483Y-84285912D01*
X113799181Y-84249602D01*
X113909495Y-84190637D01*
X114006186Y-84111285D01*
X114085538Y-84014594D01*
X114144503Y-83904280D01*
X114180813Y-83784582D01*
X114193073Y-83660100D01*
X114193073Y-81960100D01*
X114180813Y-81835618D01*
X114144503Y-81715920D01*
X114085538Y-81605606D01*
X114006186Y-81508915D01*
X113909495Y-81429563D01*
X113799181Y-81370598D01*
X113679483Y-81334288D01*
X113555001Y-81322028D01*
X111855001Y-81322028D01*
X111730519Y-81334288D01*
X111610821Y-81370598D01*
X111500507Y-81429563D01*
X111403816Y-81508915D01*
X111324464Y-81605606D01*
X111265499Y-81715920D01*
X111229189Y-81835618D01*
X111216929Y-81960100D01*
X111216929Y-83660100D01*
X111229189Y-83784582D01*
X111265499Y-83904280D01*
X111324464Y-84014594D01*
X111403816Y-84111285D01*
X111500507Y-84190637D01*
X111610821Y-84249602D01*
X111730519Y-84285912D01*
X111855001Y-84298172D01*
X111945001Y-84298172D01*
X111945002Y-87303220D01*
X111289142Y-87303220D01*
X110992021Y-87332484D01*
X110610778Y-87448133D01*
X110259422Y-87635936D01*
X109951457Y-87888677D01*
X109698716Y-88196642D01*
X109510913Y-88547998D01*
X109395264Y-88929241D01*
X109356214Y-89325720D01*
X108016580Y-89325720D01*
X108016580Y-77338917D01*
X108215274Y-77471680D01*
X108476427Y-77579853D01*
X108753666Y-77635000D01*
X109036336Y-77635000D01*
X109313575Y-77579853D01*
X109574728Y-77471680D01*
X109809760Y-77314637D01*
X110009638Y-77114759D01*
X110166681Y-76879727D01*
X110274854Y-76618574D01*
X110330001Y-76341335D01*
X110330001Y-76058665D01*
X110293689Y-75876113D01*
X113033003Y-73136800D01*
X113062001Y-73113002D01*
X113156974Y-72997277D01*
X113227546Y-72865248D01*
X113271003Y-72721987D01*
X113282000Y-72610334D01*
X113282000Y-72610325D01*
X113285676Y-72573002D01*
X113282000Y-72535679D01*
X113282000Y-70141947D01*
X113328855Y-70199039D01*
X113368840Y-70247761D01*
X113397838Y-70271559D01*
X121071101Y-77944823D01*
X121071100Y-87186998D01*
X121067424Y-87224320D01*
X121071100Y-87261642D01*
X121071100Y-87261652D01*
X121082097Y-87373305D01*
X121125554Y-87516566D01*
X121196126Y-87648596D01*
X121235971Y-87697146D01*
X121291099Y-87764321D01*
X121320103Y-87788124D01*
X126763643Y-93231665D01*
X126754913Y-93247998D01*
X126639264Y-93629241D01*
X126600214Y-94025720D01*
X126639264Y-94422199D01*
X126754913Y-94803442D01*
X126942716Y-95154798D01*
X127195457Y-95462763D01*
X127503422Y-95715504D01*
X127854778Y-95903307D01*
X128236021Y-96018956D01*
X128533142Y-96048220D01*
X131506858Y-96048220D01*
X131803979Y-96018956D01*
X132185222Y-95903307D01*
X132536578Y-95715504D01*
X132844543Y-95462763D01*
X133097284Y-95154798D01*
X133285087Y-94803442D01*
X133400736Y-94422199D01*
X133439786Y-94025720D01*
X133400736Y-93629241D01*
X133285087Y-93247998D01*
X133097284Y-92896642D01*
X132844543Y-92588677D01*
X132536578Y-92335936D01*
X132185222Y-92148133D01*
X131803979Y-92032484D01*
X131506858Y-92003220D01*
X128533142Y-92003220D01*
X128236021Y-92032484D01*
X127854778Y-92148133D01*
X127838445Y-92156863D01*
X125007302Y-89325720D01*
X126600214Y-89325720D01*
X126639264Y-89722199D01*
X126754913Y-90103442D01*
X126942716Y-90454798D01*
X127195457Y-90762763D01*
X127503422Y-91015504D01*
X127854778Y-91203307D01*
X128236021Y-91318956D01*
X128533142Y-91348220D01*
X131506858Y-91348220D01*
X131803979Y-91318956D01*
X132185222Y-91203307D01*
X132536578Y-91015504D01*
X132844543Y-90762763D01*
X133097284Y-90454798D01*
X133285087Y-90103442D01*
X133400736Y-89722199D01*
X133439786Y-89325720D01*
X133400736Y-88929241D01*
X133285087Y-88547998D01*
X133097284Y-88196642D01*
X132844543Y-87888677D01*
X132536578Y-87635936D01*
X132185222Y-87448133D01*
X131803979Y-87332484D01*
X131506858Y-87303220D01*
X130780000Y-87303220D01*
X130780000Y-84298172D01*
X130870000Y-84298172D01*
X130994482Y-84285912D01*
X131114180Y-84249602D01*
X131224494Y-84190637D01*
X131321185Y-84111285D01*
X131400537Y-84014594D01*
X131459502Y-83904280D01*
X131495812Y-83784582D01*
X131508072Y-83660100D01*
X131508072Y-81960100D01*
X131495812Y-81835618D01*
X131459502Y-81715920D01*
X131400537Y-81605606D01*
X131321185Y-81508915D01*
X131224494Y-81429563D01*
X131114180Y-81370598D01*
X130994482Y-81334288D01*
X130870000Y-81322028D01*
X129170000Y-81322028D01*
X129045518Y-81334288D01*
X128925820Y-81370598D01*
X128815506Y-81429563D01*
X128718815Y-81508915D01*
X128639463Y-81605606D01*
X128580498Y-81715920D01*
X128544188Y-81835618D01*
X128531928Y-81960100D01*
X128531928Y-83660100D01*
X128544188Y-83784582D01*
X128580498Y-83904280D01*
X128639463Y-84014594D01*
X128718815Y-84111285D01*
X128815506Y-84190637D01*
X128925820Y-84249602D01*
X129045518Y-84285912D01*
X129170000Y-84298172D01*
X129260000Y-84298172D01*
X129260001Y-87303220D01*
X128533142Y-87303220D01*
X128236021Y-87332484D01*
X127854778Y-87448133D01*
X127503422Y-87635936D01*
X127195457Y-87888677D01*
X126942716Y-88196642D01*
X126754913Y-88547998D01*
X126639264Y-88929241D01*
X126600214Y-89325720D01*
X125007302Y-89325720D01*
X122591100Y-86909519D01*
X122591100Y-77667353D01*
X122594777Y-77630020D01*
X122580103Y-77481034D01*
X122536646Y-77337773D01*
X122466074Y-77205744D01*
X122394899Y-77119017D01*
X122371101Y-77090019D01*
X122342103Y-77066221D01*
X116560881Y-71285000D01*
X116595493Y-71285000D01*
X116806310Y-71264236D01*
X117076809Y-71182182D01*
X117326102Y-71048932D01*
X117544609Y-70869608D01*
X117723933Y-70651101D01*
X117745902Y-70610000D01*
X123627678Y-70610000D01*
X123665000Y-70613676D01*
X123702322Y-70610000D01*
X123702333Y-70610000D01*
X123813986Y-70599003D01*
X123957247Y-70555546D01*
X124089276Y-70484974D01*
X124205001Y-70390001D01*
X124228804Y-70360997D01*
X127119005Y-67470797D01*
X127193889Y-67493513D01*
X127412050Y-67515000D01*
X127557950Y-67515000D01*
X127776111Y-67493513D01*
X128056034Y-67408599D01*
X128314014Y-67270706D01*
X128540134Y-67085134D01*
X128725706Y-66859014D01*
X128755000Y-66804209D01*
X128784294Y-66859014D01*
X128969866Y-67085134D01*
X129195986Y-67270706D01*
X129453966Y-67408599D01*
X129733889Y-67493513D01*
X129952050Y-67515000D01*
X130097950Y-67515000D01*
X130316111Y-67493513D01*
X130596034Y-67408599D01*
X130854014Y-67270706D01*
X131080134Y-67085134D01*
X131265706Y-66859014D01*
X131300201Y-66794477D01*
X131369822Y-66911355D01*
X131564731Y-67127588D01*
X131798080Y-67301641D01*
X132060901Y-67426825D01*
X132208110Y-67471476D01*
X132438000Y-67350155D01*
X132438000Y-66157000D01*
X132418000Y-66157000D01*
X132418000Y-65903000D01*
X132438000Y-65903000D01*
X132438000Y-65883000D01*
X132692000Y-65883000D01*
X132692000Y-65903000D01*
X132712000Y-65903000D01*
X132712000Y-66157000D01*
X132692000Y-66157000D01*
X132692000Y-67350155D01*
X132921890Y-67471476D01*
X133069099Y-67426825D01*
X133331920Y-67301641D01*
X133565269Y-67127588D01*
X133760178Y-66911355D01*
X133829799Y-66794477D01*
X133864294Y-66859014D01*
X134049866Y-67085134D01*
X134159824Y-67175374D01*
X126533887Y-74801312D01*
X126351335Y-74765000D01*
X126068665Y-74765000D01*
X125791426Y-74820147D01*
X125530273Y-74928320D01*
X125295241Y-75085363D01*
X125095363Y-75285241D01*
X124938320Y-75520273D01*
X124830147Y-75781426D01*
X124775000Y-76058665D01*
X124775000Y-76341335D01*
X124830147Y-76618574D01*
X124938320Y-76879727D01*
X125095363Y-77114759D01*
X125295241Y-77314637D01*
X125530273Y-77471680D01*
X125791426Y-77579853D01*
X126068665Y-77635000D01*
X126351335Y-77635000D01*
X126628574Y-77579853D01*
X126889727Y-77471680D01*
X127124759Y-77314637D01*
X127324637Y-77114759D01*
X127481680Y-76879727D01*
X127589853Y-76618574D01*
X127645000Y-76341335D01*
X127645000Y-76058665D01*
X127608688Y-75876113D01*
X135100000Y-68384801D01*
X142591312Y-75876114D01*
X142555000Y-76058665D01*
X142555000Y-76341335D01*
X142610147Y-76618574D01*
X142718320Y-76879727D01*
X142875363Y-77114759D01*
X143075241Y-77314637D01*
X143310273Y-77471680D01*
X143571426Y-77579853D01*
X143848665Y-77635000D01*
X144131335Y-77635000D01*
X144408574Y-77579853D01*
X144669727Y-77471680D01*
X144904759Y-77314637D01*
X145104637Y-77114759D01*
X145261680Y-76879727D01*
X145369853Y-76618574D01*
X145425000Y-76341335D01*
X145425000Y-76058665D01*
X145388688Y-75876113D01*
X148212003Y-73052799D01*
X148241001Y-73029001D01*
X148335974Y-72913276D01*
X148406546Y-72781247D01*
X148450003Y-72637986D01*
X148461000Y-72526333D01*
X148464677Y-72489000D01*
X148461000Y-72451667D01*
X148461000Y-66354801D01*
X150192506Y-64623295D01*
X150178057Y-64770000D01*
X150205764Y-65051309D01*
X150287818Y-65321808D01*
X150421068Y-65571101D01*
X150600392Y-65789608D01*
X150818899Y-65968932D01*
X150951858Y-66040000D01*
X150818899Y-66111068D01*
X150600392Y-66290392D01*
X150421068Y-66508899D01*
X150287818Y-66758192D01*
X150205764Y-67028691D01*
X150178057Y-67310000D01*
X150205764Y-67591309D01*
X150287818Y-67861808D01*
X150421068Y-68111101D01*
X150600392Y-68329608D01*
X150818899Y-68508932D01*
X150951858Y-68580000D01*
X150818899Y-68651068D01*
X150600392Y-68830392D01*
X150421068Y-69048899D01*
X150287818Y-69298192D01*
X150205764Y-69568691D01*
X150178057Y-69850000D01*
X150205764Y-70131309D01*
X150287818Y-70401808D01*
X150421068Y-70651101D01*
X150600392Y-70869608D01*
X150818899Y-71048932D01*
X151068192Y-71182182D01*
X151338691Y-71264236D01*
X151549508Y-71285000D01*
X151690492Y-71285000D01*
X151901309Y-71264236D01*
X152171808Y-71182182D01*
X152421101Y-71048932D01*
X152639608Y-70869608D01*
X152818932Y-70651101D01*
X152952182Y-70401808D01*
X153034236Y-70131309D01*
X153061943Y-69850000D01*
X153034236Y-69568691D01*
X152952182Y-69298192D01*
X152818932Y-69048899D01*
X152639608Y-68830392D01*
X152421101Y-68651068D01*
X152288142Y-68580000D01*
X152421101Y-68508932D01*
X152639608Y-68329608D01*
X152818932Y-68111101D01*
X152952182Y-67861808D01*
X153034236Y-67591309D01*
X153061943Y-67310000D01*
X153034236Y-67028691D01*
X152952182Y-66758192D01*
X152818932Y-66508899D01*
X152639608Y-66290392D01*
X152421101Y-66111068D01*
X152288142Y-66040000D01*
X152421101Y-65968932D01*
X152639608Y-65789608D01*
X152818932Y-65571101D01*
X152952182Y-65321808D01*
X153034236Y-65051309D01*
X153061943Y-64770000D01*
X153034236Y-64488691D01*
X152952182Y-64218192D01*
X152818932Y-63968899D01*
X152639608Y-63750392D01*
X152421101Y-63571068D01*
X152288142Y-63500000D01*
X152421101Y-63428932D01*
X152639608Y-63249608D01*
X152818932Y-63031101D01*
X152952182Y-62781808D01*
X153034236Y-62511309D01*
X153061943Y-62230000D01*
X153034236Y-61948691D01*
X153020708Y-61904094D01*
X155197004Y-59727798D01*
X155226001Y-59704001D01*
X155320974Y-59588276D01*
X155391546Y-59456247D01*
X155435003Y-59312986D01*
X155446000Y-59201333D01*
X155446000Y-59201325D01*
X155449676Y-59164000D01*
X155446000Y-59126675D01*
X155446000Y-48424325D01*
X155449676Y-48387000D01*
X155446000Y-48349675D01*
X155446000Y-48349667D01*
X155435003Y-48238014D01*
X155391546Y-48094753D01*
X155320974Y-47962724D01*
X155226001Y-47846999D01*
X155197003Y-47823201D01*
X153471804Y-46098003D01*
X153448001Y-46068999D01*
X153332276Y-45974026D01*
X153200247Y-45903454D01*
X153056986Y-45859997D01*
X152945333Y-45849000D01*
X152945322Y-45849000D01*
X152908000Y-45845324D01*
X152870678Y-45849000D01*
X146948323Y-45849000D01*
X146911000Y-45845324D01*
X146873677Y-45849000D01*
X146873667Y-45849000D01*
X146762014Y-45859997D01*
X146618753Y-45903454D01*
X146486724Y-45974026D01*
X146370999Y-46068999D01*
X146347201Y-46097997D01*
X144313886Y-48131312D01*
X144131335Y-48095000D01*
X143848665Y-48095000D01*
X143571426Y-48150147D01*
X143310273Y-48258320D01*
X143075241Y-48415363D01*
X142875363Y-48615241D01*
X142718320Y-48850273D01*
X142610147Y-49111426D01*
X142555000Y-49388665D01*
X142555000Y-49671335D01*
X142610147Y-49948574D01*
X142718320Y-50209727D01*
X142875363Y-50444759D01*
X143075241Y-50644637D01*
X143310273Y-50801680D01*
X143571426Y-50909853D01*
X143848665Y-50965000D01*
X144131335Y-50965000D01*
X144408574Y-50909853D01*
X144669727Y-50801680D01*
X144904759Y-50644637D01*
X145104637Y-50444759D01*
X145261680Y-50209727D01*
X145369853Y-49948574D01*
X145425000Y-49671335D01*
X145425000Y-49388665D01*
X145388688Y-49206114D01*
X147225802Y-47369000D01*
X152593199Y-47369000D01*
X153926001Y-48701803D01*
X153926000Y-58849198D01*
X151945906Y-60829292D01*
X151901309Y-60815764D01*
X151690492Y-60795000D01*
X151549508Y-60795000D01*
X151338691Y-60815764D01*
X151068192Y-60897818D01*
X150818899Y-61031068D01*
X150600392Y-61210392D01*
X150421068Y-61428899D01*
X150287818Y-61678192D01*
X150205764Y-61948691D01*
X150178057Y-62230000D01*
X150201222Y-62465195D01*
X150171000Y-62489998D01*
X150147202Y-62518996D01*
X147190003Y-65476196D01*
X147160999Y-65499999D01*
X147105871Y-65567174D01*
X147066026Y-65615724D01*
X146996218Y-65746325D01*
X146995454Y-65747754D01*
X146951997Y-65891015D01*
X146941000Y-66002668D01*
X146941000Y-66002678D01*
X146937324Y-66040000D01*
X146941000Y-66077323D01*
X146941001Y-72174197D01*
X144313887Y-74801312D01*
X144131335Y-74765000D01*
X143848665Y-74765000D01*
X143666114Y-74801312D01*
X139063841Y-70199039D01*
X142608096Y-70199039D01*
X142648754Y-70333087D01*
X142768963Y-70587420D01*
X142936481Y-70813414D01*
X143144869Y-71002385D01*
X143386119Y-71147070D01*
X143650960Y-71241909D01*
X143873000Y-71120624D01*
X143873000Y-69977000D01*
X144127000Y-69977000D01*
X144127000Y-71120624D01*
X144349040Y-71241909D01*
X144613881Y-71147070D01*
X144855131Y-71002385D01*
X145063519Y-70813414D01*
X145231037Y-70587420D01*
X145351246Y-70333087D01*
X145391904Y-70199039D01*
X145269915Y-69977000D01*
X144127000Y-69977000D01*
X143873000Y-69977000D01*
X142730085Y-69977000D01*
X142608096Y-70199039D01*
X139063841Y-70199039D01*
X136044683Y-67179882D01*
X136160134Y-67085134D01*
X136345706Y-66859014D01*
X136483599Y-66601034D01*
X136568513Y-66321111D01*
X136597185Y-66030000D01*
X136568513Y-65738889D01*
X136483599Y-65458966D01*
X136345706Y-65200986D01*
X136160134Y-64974866D01*
X135934014Y-64789294D01*
X135676034Y-64651401D01*
X135396111Y-64566487D01*
X135177950Y-64545000D01*
X135032050Y-64545000D01*
X134813889Y-64566487D01*
X134533966Y-64651401D01*
X134275986Y-64789294D01*
X134049866Y-64974866D01*
X133864294Y-65200986D01*
X133829799Y-65265523D01*
X133760178Y-65148645D01*
X133565269Y-64932412D01*
X133331920Y-64758359D01*
X133069099Y-64633175D01*
X132921890Y-64588524D01*
X132692002Y-64709844D01*
X132692002Y-64545000D01*
X132584802Y-64545000D01*
X132747883Y-64381920D01*
X139997119Y-64381920D01*
X142599292Y-66984094D01*
X142585764Y-67028691D01*
X142558057Y-67310000D01*
X142585764Y-67591309D01*
X142667818Y-67861808D01*
X142801068Y-68111101D01*
X142980392Y-68329608D01*
X143198899Y-68508932D01*
X143336682Y-68582579D01*
X143144869Y-68697615D01*
X142936481Y-68886586D01*
X142768963Y-69112580D01*
X142648754Y-69366913D01*
X142608096Y-69500961D01*
X142730085Y-69723000D01*
X143873000Y-69723000D01*
X143873000Y-69703000D01*
X144127000Y-69703000D01*
X144127000Y-69723000D01*
X145269915Y-69723000D01*
X145391904Y-69500961D01*
X145351246Y-69366913D01*
X145231037Y-69112580D01*
X145063519Y-68886586D01*
X144855131Y-68697615D01*
X144663318Y-68582579D01*
X144801101Y-68508932D01*
X145019608Y-68329608D01*
X145198932Y-68111101D01*
X145332182Y-67861808D01*
X145414236Y-67591309D01*
X145441943Y-67310000D01*
X145414236Y-67028691D01*
X145400708Y-66984093D01*
X148671003Y-63713799D01*
X148700001Y-63690001D01*
X148794974Y-63574276D01*
X148865546Y-63442247D01*
X148909003Y-63298986D01*
X148920000Y-63187333D01*
X148923677Y-63150000D01*
X148920000Y-63112667D01*
X148920000Y-58312087D01*
X149034482Y-58300812D01*
X149154180Y-58264502D01*
X149264494Y-58205537D01*
X149361185Y-58126185D01*
X149440537Y-58029494D01*
X149499502Y-57919180D01*
X149535812Y-57799482D01*
X149548072Y-57675000D01*
X149548072Y-56625000D01*
X149539588Y-56538860D01*
X149584276Y-56514974D01*
X149700001Y-56420001D01*
X149723804Y-56390997D01*
X152121004Y-53993798D01*
X152150001Y-53970001D01*
X152244974Y-53854276D01*
X152315546Y-53722247D01*
X152359003Y-53578986D01*
X152370000Y-53467333D01*
X152370000Y-53467324D01*
X152373676Y-53430001D01*
X152370000Y-53392678D01*
X152370000Y-50750901D01*
X152411101Y-50728932D01*
X152629608Y-50549608D01*
X152808932Y-50331101D01*
X152942182Y-50081808D01*
X153024236Y-49811309D01*
X153051943Y-49530000D01*
X153024236Y-49248691D01*
X152942182Y-48978192D01*
X152808932Y-48728899D01*
X152629608Y-48510392D01*
X152411101Y-48331068D01*
X152161808Y-48197818D01*
X151891309Y-48115764D01*
X151680492Y-48095000D01*
X151539508Y-48095000D01*
X151328691Y-48115764D01*
X151058192Y-48197818D01*
X150808899Y-48331068D01*
X150590392Y-48510392D01*
X150411068Y-48728899D01*
X150277818Y-48978192D01*
X150195764Y-49248691D01*
X150168057Y-49530000D01*
X150195764Y-49811309D01*
X150277818Y-50081808D01*
X150411068Y-50331101D01*
X150590392Y-50549608D01*
X150808899Y-50728932D01*
X150850001Y-50750901D01*
X150850000Y-53115198D01*
X149482201Y-54482998D01*
X149378164Y-54482998D01*
X149503964Y-54304190D01*
X149495272Y-54242663D01*
X149402275Y-54033118D01*
X149270184Y-53845742D01*
X149104076Y-53687736D01*
X148910334Y-53565172D01*
X148696404Y-53482761D01*
X148470507Y-53443669D01*
X148287000Y-53603402D01*
X148287000Y-54483000D01*
X148307000Y-54483000D01*
X148307000Y-54720000D01*
X147878021Y-54720000D01*
X147707600Y-54736785D01*
X147706891Y-54737000D01*
X146941837Y-54737000D01*
X146816036Y-54915810D01*
X146824728Y-54977337D01*
X146888042Y-55120000D01*
X145500227Y-55120000D01*
X145462904Y-55116324D01*
X145425581Y-55120000D01*
X145425572Y-55120000D01*
X145313919Y-55130997D01*
X145170658Y-55174454D01*
X145038628Y-55245026D01*
X145021014Y-55259482D01*
X144922904Y-55339999D01*
X144899106Y-55368997D01*
X143488998Y-56779106D01*
X143460000Y-56802904D01*
X143436202Y-56831902D01*
X143436201Y-56831903D01*
X143365026Y-56918629D01*
X143294454Y-57050659D01*
X143284069Y-57084895D01*
X143250998Y-57193919D01*
X143240001Y-57305572D01*
X143236324Y-57342905D01*
X143240001Y-57380237D01*
X143240000Y-60791928D01*
X143200000Y-60791928D01*
X143075518Y-60804188D01*
X142955820Y-60840498D01*
X142845506Y-60899463D01*
X142748815Y-60978815D01*
X142669463Y-61075506D01*
X142610498Y-61185820D01*
X142574188Y-61305518D01*
X142561928Y-61430000D01*
X142561928Y-63030000D01*
X142574188Y-63154482D01*
X142610498Y-63274180D01*
X142669463Y-63384494D01*
X142748815Y-63481185D01*
X142845506Y-63560537D01*
X142955820Y-63619502D01*
X143075518Y-63655812D01*
X143093482Y-63657581D01*
X142980392Y-63750392D01*
X142801068Y-63968899D01*
X142667818Y-64218192D01*
X142585764Y-64488691D01*
X142558057Y-64770000D01*
X142560598Y-64795796D01*
X140875724Y-63110923D01*
X140851921Y-63081919D01*
X140736196Y-62986946D01*
X140604167Y-62916374D01*
X140460906Y-62872917D01*
X140349253Y-62861920D01*
X140349242Y-62861920D01*
X140311920Y-62858244D01*
X140274598Y-62861920D01*
X132470402Y-62861920D01*
X132433079Y-62858244D01*
X132395756Y-62861920D01*
X132395747Y-62861920D01*
X132284094Y-62872917D01*
X132140833Y-62916374D01*
X132008804Y-62986946D01*
X132000602Y-62993677D01*
X131922076Y-63058121D01*
X131922072Y-63058125D01*
X131893079Y-63081919D01*
X131869285Y-63110912D01*
X130390995Y-64589203D01*
X130316111Y-64566487D01*
X130097950Y-64545000D01*
X129952050Y-64545000D01*
X129733889Y-64566487D01*
X129453966Y-64651401D01*
X129195986Y-64789294D01*
X128969866Y-64974866D01*
X128784294Y-65200986D01*
X128755000Y-65255791D01*
X128725706Y-65200986D01*
X128540134Y-64974866D01*
X128470226Y-64917494D01*
X131801004Y-61586717D01*
X131830001Y-61562920D01*
X131924974Y-61447195D01*
X131995546Y-61315166D01*
X132039003Y-61171905D01*
X132050000Y-61060252D01*
X132050000Y-61060251D01*
X132053677Y-61022919D01*
X132050000Y-60985586D01*
X132050000Y-56862287D01*
X132059180Y-56859502D01*
X132169494Y-56800537D01*
X132266185Y-56721185D01*
X132345537Y-56624494D01*
X132404502Y-56514180D01*
X132440812Y-56394482D01*
X132453072Y-56270000D01*
X132453072Y-54770000D01*
X132440812Y-54645518D01*
X132404502Y-54525820D01*
X132345537Y-54415506D01*
X132266185Y-54318815D01*
X132248365Y-54304190D01*
X146816036Y-54304190D01*
X146941837Y-54483000D01*
X148033000Y-54483000D01*
X148033000Y-53603402D01*
X147849493Y-53443669D01*
X147623596Y-53482761D01*
X147409666Y-53565172D01*
X147215924Y-53687736D01*
X147049816Y-53845742D01*
X146917725Y-54033118D01*
X146824728Y-54242663D01*
X146816036Y-54304190D01*
X132248365Y-54304190D01*
X132169494Y-54239463D01*
X132059180Y-54180498D01*
X131939482Y-54144188D01*
X131815000Y-54131928D01*
X130780000Y-54131928D01*
X130780000Y-53654801D01*
X133504094Y-50930708D01*
X133548691Y-50944236D01*
X133759508Y-50965000D01*
X133900492Y-50965000D01*
X134111309Y-50944236D01*
X134381808Y-50862182D01*
X134631101Y-50728932D01*
X134849608Y-50549608D01*
X135028932Y-50331101D01*
X135162182Y-50081808D01*
X135244236Y-49811309D01*
X135271943Y-49530000D01*
X135244236Y-49248691D01*
X135162182Y-48978192D01*
X135028932Y-48728899D01*
X134849608Y-48510392D01*
X134631101Y-48331068D01*
X134381808Y-48197818D01*
X134111309Y-48115764D01*
X133900492Y-48095000D01*
X133759508Y-48095000D01*
X133548691Y-48115764D01*
X133278192Y-48197818D01*
X133028899Y-48331068D01*
X132810392Y-48510392D01*
X132631068Y-48728899D01*
X132497818Y-48978192D01*
X132415764Y-49248691D01*
X132388057Y-49530000D01*
X132415764Y-49811309D01*
X132429292Y-49855906D01*
X129508998Y-52776201D01*
X129480000Y-52799999D01*
X129456202Y-52828997D01*
X129456201Y-52828998D01*
X129385026Y-52915724D01*
X129314454Y-53047754D01*
X129270998Y-53191015D01*
X129256324Y-53340000D01*
X129260001Y-53377332D01*
X129260001Y-54248043D01*
X129117337Y-54184728D01*
X129055810Y-54176036D01*
X128877000Y-54301837D01*
X128877000Y-55066891D01*
X128876785Y-55067600D01*
X128860000Y-55238021D01*
X128860000Y-55801978D01*
X128876785Y-55972399D01*
X128877000Y-55973108D01*
X128877000Y-56738163D01*
X129055810Y-56863964D01*
X129117337Y-56855272D01*
X129260000Y-56791957D01*
X129260000Y-56919078D01*
X122169079Y-64010000D01*
X117745902Y-64010000D01*
X117723933Y-63968899D01*
X117544609Y-63750392D01*
X117326102Y-63571068D01*
X117193143Y-63500000D01*
X117326102Y-63428932D01*
X117544609Y-63249608D01*
X117723933Y-63031101D01*
X117857183Y-62781808D01*
X117939237Y-62511309D01*
X117966944Y-62230000D01*
X117939237Y-61948691D01*
X117857183Y-61678192D01*
X117723933Y-61428899D01*
X117544609Y-61210392D01*
X117326102Y-61031068D01*
X117275001Y-61003754D01*
X117275001Y-55830507D01*
X127583669Y-55830507D01*
X127622761Y-56056404D01*
X127705172Y-56270334D01*
X127827736Y-56464076D01*
X127985742Y-56630184D01*
X128173118Y-56762275D01*
X128382663Y-56855272D01*
X128444190Y-56863964D01*
X128623000Y-56738163D01*
X128623000Y-55647000D01*
X127743402Y-55647000D01*
X127583669Y-55830507D01*
X117275001Y-55830507D01*
X117275001Y-55209493D01*
X127583669Y-55209493D01*
X127743402Y-55393000D01*
X128623000Y-55393000D01*
X128623000Y-54301837D01*
X128444190Y-54176036D01*
X128382663Y-54184728D01*
X128173118Y-54277725D01*
X127985742Y-54409816D01*
X127827736Y-54575924D01*
X127705172Y-54769666D01*
X127622761Y-54983596D01*
X127583669Y-55209493D01*
X117275001Y-55209493D01*
X117275001Y-50748043D01*
X117429760Y-50644637D01*
X117629638Y-50444759D01*
X117733044Y-50290000D01*
X124991957Y-50290000D01*
X125095363Y-50444759D01*
X125295241Y-50644637D01*
X125530273Y-50801680D01*
X125791426Y-50909853D01*
X126068665Y-50965000D01*
X126351335Y-50965000D01*
X126628574Y-50909853D01*
X126889727Y-50801680D01*
X127124759Y-50644637D01*
X127324637Y-50444759D01*
X127481680Y-50209727D01*
X127589853Y-49948574D01*
X127645000Y-49671335D01*
X127645000Y-49388665D01*
X127589853Y-49111426D01*
X127481680Y-48850273D01*
X127324637Y-48615241D01*
X127124759Y-48415363D01*
X126889727Y-48258320D01*
X126628574Y-48150147D01*
X126351335Y-48095000D01*
X126068665Y-48095000D01*
X125791426Y-48150147D01*
X125530273Y-48258320D01*
X125295241Y-48415363D01*
X125095363Y-48615241D01*
X124991957Y-48770000D01*
X117733044Y-48770000D01*
X117629638Y-48615241D01*
X117429760Y-48415363D01*
X117194728Y-48258320D01*
X116933575Y-48150147D01*
X116656336Y-48095000D01*
X116373666Y-48095000D01*
X116096427Y-48150147D01*
X115835274Y-48258320D01*
X115600242Y-48415363D01*
X115400364Y-48615241D01*
X115243321Y-48850273D01*
X115135148Y-49111426D01*
X115080001Y-49388665D01*
X115080001Y-49671335D01*
X115135148Y-49948574D01*
X115243321Y-50209727D01*
X115400364Y-50444759D01*
X115600242Y-50644637D01*
X115755001Y-50748043D01*
X115755002Y-61014444D01*
X115723900Y-61031068D01*
X115505393Y-61210392D01*
X115326069Y-61428899D01*
X115304100Y-61470000D01*
X114210333Y-61470000D01*
X114173000Y-61466323D01*
X114135667Y-61470000D01*
X114024014Y-61480997D01*
X113880753Y-61524454D01*
X113748724Y-61595026D01*
X113632999Y-61689999D01*
X113609201Y-61718997D01*
X112011003Y-63317196D01*
X111981999Y-63340999D01*
X111946304Y-63384494D01*
X111887026Y-63456724D01*
X111824193Y-63574276D01*
X111816454Y-63588754D01*
X111772997Y-63732015D01*
X111762000Y-63843668D01*
X111762000Y-63843678D01*
X111758324Y-63881000D01*
X111762000Y-63918322D01*
X111762000Y-66658452D01*
X111749266Y-66616472D01*
X111678694Y-66484443D01*
X111653936Y-66454275D01*
X111607519Y-66397715D01*
X111607515Y-66397711D01*
X111583721Y-66368718D01*
X111554728Y-66344924D01*
X110305709Y-65095906D01*
X110319237Y-65051309D01*
X110346944Y-64770000D01*
X110319237Y-64488691D01*
X110237183Y-64218192D01*
X110103933Y-63968899D01*
X109924609Y-63750392D01*
X109811519Y-63657581D01*
X109829483Y-63655812D01*
X109949181Y-63619502D01*
X110059495Y-63560537D01*
X110156186Y-63481185D01*
X110235538Y-63384494D01*
X110294503Y-63274180D01*
X110330813Y-63154482D01*
X110343073Y-63030000D01*
X110343073Y-61430000D01*
X110330813Y-61305518D01*
X110294503Y-61185820D01*
X110235538Y-61075506D01*
X110156186Y-60978815D01*
X110059495Y-60899463D01*
X109949181Y-60840498D01*
X109829483Y-60804188D01*
X109705001Y-60791928D01*
X109665001Y-60791928D01*
X109665001Y-59409801D01*
X111204107Y-57870695D01*
X111234817Y-57914258D01*
X111400925Y-58072264D01*
X111594667Y-58194828D01*
X111808597Y-58277239D01*
X112034494Y-58316331D01*
X112218001Y-58156598D01*
X112218001Y-57277000D01*
X112472001Y-57277000D01*
X112472001Y-58156598D01*
X112655508Y-58316331D01*
X112881405Y-58277239D01*
X113095335Y-58194828D01*
X113289077Y-58072264D01*
X113455185Y-57914258D01*
X113587276Y-57726882D01*
X113680273Y-57517337D01*
X113688965Y-57455810D01*
X113563164Y-57277000D01*
X112472001Y-57277000D01*
X112218001Y-57277000D01*
X112198001Y-57277000D01*
X112198001Y-57040000D01*
X112626980Y-57040000D01*
X112797401Y-57023215D01*
X112798110Y-57023000D01*
X113563164Y-57023000D01*
X113688965Y-56844190D01*
X113680273Y-56782663D01*
X113598066Y-56597431D01*
X113637248Y-56585546D01*
X113769277Y-56514974D01*
X113885002Y-56420001D01*
X113908805Y-56390997D01*
X115446003Y-54853800D01*
X115475001Y-54830002D01*
X115523425Y-54770997D01*
X115569974Y-54714278D01*
X115640546Y-54582248D01*
X115677321Y-54461014D01*
X115684003Y-54438987D01*
X115695000Y-54327334D01*
X115695000Y-54327325D01*
X115698676Y-54290002D01*
X115695000Y-54252679D01*
X115695000Y-52107322D01*
X115698676Y-52069999D01*
X115695000Y-52032676D01*
X115695000Y-52032667D01*
X115684003Y-51921014D01*
X115640546Y-51777753D01*
X115569974Y-51645724D01*
X115556811Y-51629685D01*
X115498799Y-51558996D01*
X115498795Y-51558992D01*
X115475001Y-51529999D01*
X115446009Y-51506206D01*
X112958804Y-49019003D01*
X112935001Y-48989999D01*
X112819276Y-48895026D01*
X112687247Y-48824454D01*
X112543986Y-48780997D01*
X112432333Y-48770000D01*
X112432322Y-48770000D01*
X112395000Y-48766324D01*
X112357678Y-48770000D01*
X110115902Y-48770000D01*
X110093933Y-48728899D01*
X109914609Y-48510392D01*
X109696102Y-48331068D01*
X109446809Y-48197818D01*
X109176310Y-48115764D01*
X108965493Y-48095000D01*
X108824509Y-48095000D01*
X108613692Y-48115764D01*
X108343193Y-48197818D01*
X108093900Y-48331068D01*
X107875393Y-48510392D01*
X107696069Y-48728899D01*
X107562819Y-48978192D01*
X107480765Y-49248691D01*
X107453058Y-49530000D01*
X107480765Y-49811309D01*
X107562819Y-50081808D01*
X107696069Y-50331101D01*
X107875393Y-50549608D01*
X108093900Y-50728932D01*
X108343193Y-50862182D01*
X108613692Y-50944236D01*
X108824509Y-50965000D01*
X108965493Y-50965000D01*
X109176310Y-50944236D01*
X109446809Y-50862182D01*
X109696102Y-50728932D01*
X109914609Y-50549608D01*
X110093933Y-50331101D01*
X110115902Y-50290000D01*
X112080199Y-50290000D01*
X114175000Y-52384803D01*
X114175001Y-53975198D01*
X113733073Y-54417126D01*
X113733073Y-54085000D01*
X113720813Y-53960518D01*
X113684503Y-53840820D01*
X113625538Y-53730506D01*
X113546186Y-53633815D01*
X113449495Y-53554463D01*
X113339181Y-53495498D01*
X113219483Y-53459188D01*
X113095001Y-53446928D01*
X111595001Y-53446928D01*
X111470519Y-53459188D01*
X111350821Y-53495498D01*
X111240507Y-53554463D01*
X111143816Y-53633815D01*
X111064464Y-53730506D01*
X111005499Y-53840820D01*
X111002714Y-53850000D01*
X108612165Y-53850000D01*
X108574840Y-53846324D01*
X108537515Y-53850000D01*
X108537507Y-53850000D01*
X108425854Y-53860997D01*
X108282593Y-53904454D01*
X108150564Y-53975026D01*
X108034839Y-54069999D01*
X108011041Y-54098997D01*
X105168238Y-56941801D01*
X105139240Y-56965599D01*
X105115442Y-56994597D01*
X105115441Y-56994598D01*
X105044266Y-57081324D01*
X104973694Y-57213354D01*
X104954388Y-57277000D01*
X104930238Y-57356614D01*
X104927652Y-57382866D01*
X104915564Y-57505600D01*
X104545000Y-57505600D01*
X104545000Y-38439005D01*
X109962054Y-38439005D01*
X109962054Y-38726195D01*
X110018082Y-39007867D01*
X110127985Y-39273196D01*
X110287540Y-39511986D01*
X110490614Y-39715060D01*
X110729404Y-39874615D01*
X110994733Y-39984518D01*
X111276405Y-40040546D01*
X111563595Y-40040546D01*
X111845267Y-39984518D01*
X112110596Y-39874615D01*
X112349386Y-39715060D01*
X112552460Y-39511986D01*
X112712015Y-39273196D01*
X112821918Y-39007867D01*
X112877946Y-38726195D01*
X112877946Y-38439005D01*
X148452854Y-38439005D01*
X148452854Y-38726195D01*
X148508882Y-39007867D01*
X148618785Y-39273196D01*
X148778340Y-39511986D01*
X148981414Y-39715060D01*
X149220204Y-39874615D01*
X149485533Y-39984518D01*
X149767205Y-40040546D01*
X150054395Y-40040546D01*
X150336067Y-39984518D01*
X150601396Y-39874615D01*
X150840186Y-39715060D01*
X151043260Y-39511986D01*
X151202815Y-39273196D01*
X151312718Y-39007867D01*
X151368746Y-38726195D01*
X151368746Y-38439005D01*
X151312718Y-38157333D01*
X151202815Y-37892004D01*
X151043260Y-37653214D01*
X150840186Y-37450140D01*
X150601396Y-37290585D01*
X150336067Y-37180682D01*
X150054395Y-37124654D01*
X149767205Y-37124654D01*
X149485533Y-37180682D01*
X149220204Y-37290585D01*
X148981414Y-37450140D01*
X148778340Y-37653214D01*
X148618785Y-37892004D01*
X148508882Y-38157333D01*
X148452854Y-38439005D01*
X112877946Y-38439005D01*
X112821918Y-38157333D01*
X112712015Y-37892004D01*
X112552460Y-37653214D01*
X112349386Y-37450140D01*
X112110596Y-37290585D01*
X111845267Y-37180682D01*
X111563595Y-37124654D01*
X111276405Y-37124654D01*
X110994733Y-37180682D01*
X110729404Y-37290585D01*
X110490614Y-37450140D01*
X110287540Y-37653214D01*
X110127985Y-37892004D01*
X110018082Y-38157333D01*
X109962054Y-38439005D01*
X104545000Y-38439005D01*
X104545000Y-33760000D01*
X155965000Y-33760000D01*
X155965001Y-179773346D01*
M02*
