M48
; DRILL file {KiCad 5.1.4-e60b266~84~ubuntu19.04.1} date St 4. září 2019, 22:13:07 CEST
; FORMAT={-:-/ absolute / inch / decimal}
; #@! TF.CreationDate,2019-09-04T22:13:07+02:00
; #@! TF.GenerationSoftware,Kicad,Pcbnew,5.1.4-e60b266~84~ubuntu19.04.1
; #@! TF.FileFunction,Plated,1,2,PTH
FMAT,2
INCH
T1C0.0295
T2C0.0315
T3C0.0394
T4C0.0472
T5C0.0669
T6C0.0728
%
G90
G05
T1
X5.0689Y-2.1858
X5.1189Y-2.1858
X5.1689Y-2.1858
X4.423Y-2.15
X4.423Y-2.2
X4.423Y-2.25
X5.8331Y-2.15
X5.8331Y-2.2
X5.8331Y-2.25
T2
X5.6689Y-3.0
X5.9689Y-3.0
X4.9689Y-1.95
X5.2689Y-1.95
X4.2872Y-1.95
X4.5872Y-1.95
X5.6689Y-1.95
X5.9689Y-1.95
X4.2876Y-2.45
X4.2876Y-2.55
X4.2876Y-2.65
X4.2876Y-2.75
X4.5876Y-2.45
X4.5876Y-2.55
X4.5876Y-2.65
X4.5876Y-2.75
X4.9689Y-3.0
X5.2689Y-3.0
X4.2872Y-3.0
X4.5872Y-3.0
X5.6693Y-2.45
X5.6693Y-2.55
X5.6693Y-2.65
X5.6693Y-2.75
X5.9693Y-2.45
X5.9693Y-2.55
X5.9693Y-2.65
X5.9693Y-2.75
T3
X4.4372Y-3.2602
X5.8189Y-3.2602
X4.9191Y-2.5996
X5.0191Y-2.5996
X5.1191Y-2.5996
X5.2191Y-2.5996
X5.3191Y-2.5996
X5.1189Y-3.2602
T4
X5.75Y-4.2581
X5.75Y-6.5612
X5.8878Y-6.5612
X4.3711Y-4.2581
X4.3711Y-6.5612
X4.5089Y-6.5612
X5.05Y-4.2581
X5.05Y-6.5612
X5.1878Y-6.5612
T5
X5.6535Y-4.4687
X5.6535Y-6.3506
X5.9843Y-4.4215
X5.9843Y-6.3979
X4.2746Y-4.4687
X4.2746Y-6.3506
X4.6054Y-4.4215
X4.6054Y-6.3979
X4.9535Y-4.4687
X4.9535Y-6.3506
X5.2843Y-4.4215
X5.2843Y-6.3979
T6
X4.44Y-3.5168
X4.44Y-3.7018
X4.44Y-3.8868
X5.1189Y-3.5168
X5.1189Y-3.7018
X5.1189Y-3.8868
X5.8189Y-3.5168
X5.8189Y-3.7018
X5.8189Y-3.8868
T0
M30
