G04 #@! TF.GenerationSoftware,KiCad,Pcbnew,5.1.4-e60b266~84~ubuntu19.04.1*
G04 #@! TF.CreationDate,2019-09-02T11:32:23+02:00*
G04 #@! TF.ProjectId,PixelSlasher,50697865-6c53-46c6-9173-6865722e6b69,1.0.1*
G04 #@! TF.SameCoordinates,Original*
G04 #@! TF.FileFunction,Copper,L2,Bot*
G04 #@! TF.FilePolarity,Positive*
%FSLAX46Y46*%
G04 Gerber Fmt 4.6, Leading zero omitted, Abs format (unit mm)*
G04 Created by KiCad (PCBNEW 5.1.4-e60b266~84~ubuntu19.04.1) date 2019-09-02 11:32:23*
%MOMM*%
%LPD*%
G04 APERTURE LIST*
%ADD10R,1.700000X1.700000*%
%ADD11O,1.700000X1.700000*%
%ADD12O,1.500000X1.050000*%
%ADD13R,1.500000X1.050000*%
%ADD14R,1.050000X1.500000*%
%ADD15O,1.050000X1.500000*%
%ADD16O,1.600000X1.600000*%
%ADD17C,1.600000*%
%ADD18C,2.700000*%
%ADD19C,1.750000*%
%ADD20R,1.750000X1.750000*%
%ADD21R,1.600000X1.600000*%
%ADD22C,0.250000*%
%ADD23C,0.254000*%
G04 APERTURE END LIST*
D10*
X135095000Y-66030000D03*
D11*
X132555000Y-66030000D03*
X130015000Y-66030000D03*
X127475000Y-66030000D03*
X124935000Y-66030000D03*
D12*
X112345001Y-55880000D03*
X112345001Y-57150000D03*
D13*
X112345001Y-54610000D03*
D14*
X131290000Y-55520000D03*
D15*
X128750000Y-55520000D03*
X130020000Y-55520000D03*
D12*
X148160000Y-55880000D03*
X148160000Y-54610000D03*
D13*
X148160000Y-57150000D03*
D16*
X116515001Y-76200000D03*
D17*
X108895001Y-76200000D03*
X116515001Y-49530000D03*
D16*
X108895001Y-49530000D03*
D17*
X126210000Y-76200000D03*
D16*
X133830000Y-76200000D03*
X133830000Y-49530000D03*
D17*
X126210000Y-49530000D03*
X143990000Y-76200000D03*
D16*
X151610000Y-76200000D03*
D17*
X143990000Y-49530000D03*
D16*
X151610000Y-49530000D03*
D18*
X116905001Y-87104800D03*
X116905001Y-137304800D03*
X108505001Y-88304800D03*
X108505001Y-136104800D03*
D19*
X110955001Y-82954800D03*
X114455001Y-141454800D03*
D20*
X110955001Y-141454800D03*
D18*
X134220000Y-87104800D03*
X134220000Y-137304800D03*
X125820000Y-88304800D03*
X125820000Y-136104800D03*
D19*
X128270000Y-82954800D03*
X131770000Y-141454800D03*
D20*
X128270000Y-141454800D03*
X146050000Y-141454800D03*
D19*
X149550000Y-141454800D03*
X146050000Y-82954800D03*
D18*
X143600000Y-136104800D03*
X143600000Y-88304800D03*
X152000000Y-137304800D03*
X152000000Y-87104800D03*
D16*
X116525001Y-62230000D03*
X108905001Y-69850000D03*
X116525001Y-64770000D03*
X108905001Y-67310000D03*
X116525001Y-67310000D03*
X108905001Y-64770000D03*
X116525001Y-69850000D03*
D21*
X108905001Y-62230000D03*
D16*
X151620000Y-62230000D03*
X144000000Y-69850000D03*
X151620000Y-64770000D03*
X144000000Y-67310000D03*
X151620000Y-67310000D03*
X144000000Y-64770000D03*
X151620000Y-69850000D03*
D21*
X144000000Y-62230000D03*
D22*
X128735000Y-69850000D02*
X116525001Y-69850000D01*
X132555000Y-66030000D02*
X128735000Y-69850000D01*
X117656371Y-64770000D02*
X116525001Y-64770000D01*
X121770000Y-64770000D02*
X117656371Y-64770000D01*
X130020000Y-56520000D02*
X121770000Y-64770000D01*
X130020000Y-55520000D02*
X130020000Y-56520000D01*
X149550000Y-140217364D02*
X149550000Y-141454800D01*
X149550000Y-137333802D02*
X149550000Y-140217364D01*
X141084300Y-128868102D02*
X149550000Y-137333802D01*
X141084300Y-67685700D02*
X141084300Y-128868102D01*
X144000000Y-64770000D02*
X141084300Y-67685700D01*
D23*
G36*
X155965001Y-154045755D02*
G01*
X155952015Y-154014404D01*
X155792460Y-153775614D01*
X155589386Y-153572540D01*
X155350596Y-153412985D01*
X155085267Y-153303082D01*
X154803595Y-153247054D01*
X154516405Y-153247054D01*
X154234733Y-153303082D01*
X153969404Y-153412985D01*
X153730614Y-153572540D01*
X153527540Y-153775614D01*
X153367985Y-154014404D01*
X153258082Y-154279733D01*
X153202054Y-154561405D01*
X153202054Y-154848595D01*
X153258082Y-155130267D01*
X153367985Y-155395596D01*
X153527540Y-155634386D01*
X153730614Y-155837460D01*
X153969404Y-155997015D01*
X154000753Y-156010000D01*
X106509247Y-156010000D01*
X106540596Y-155997015D01*
X106779386Y-155837460D01*
X106982460Y-155634386D01*
X107142015Y-155395596D01*
X107251918Y-155130267D01*
X107307946Y-154848595D01*
X107307946Y-154561405D01*
X107251918Y-154279733D01*
X107142015Y-154014404D01*
X106982460Y-153775614D01*
X106779386Y-153572540D01*
X106540596Y-153412985D01*
X106275267Y-153303082D01*
X105993595Y-153247054D01*
X105706405Y-153247054D01*
X105424733Y-153303082D01*
X105159404Y-153412985D01*
X104920614Y-153572540D01*
X104717540Y-153775614D01*
X104557985Y-154014404D01*
X104545000Y-154045753D01*
X104545000Y-140579800D01*
X109441929Y-140579800D01*
X109441929Y-142329800D01*
X109454189Y-142454282D01*
X109490499Y-142573980D01*
X109549464Y-142684294D01*
X109628816Y-142780985D01*
X109725507Y-142860337D01*
X109835821Y-142919302D01*
X109955519Y-142955612D01*
X110080001Y-142967872D01*
X111830001Y-142967872D01*
X111954483Y-142955612D01*
X112074181Y-142919302D01*
X112184495Y-142860337D01*
X112281186Y-142780985D01*
X112360538Y-142684294D01*
X112419503Y-142573980D01*
X112455813Y-142454282D01*
X112468073Y-142329800D01*
X112468073Y-141306078D01*
X112945001Y-141306078D01*
X112945001Y-141603522D01*
X113003030Y-141895251D01*
X113116857Y-142170053D01*
X113282108Y-142417369D01*
X113492432Y-142627693D01*
X113739748Y-142792944D01*
X114014550Y-142906771D01*
X114306279Y-142964800D01*
X114603723Y-142964800D01*
X114895452Y-142906771D01*
X115170254Y-142792944D01*
X115417570Y-142627693D01*
X115627894Y-142417369D01*
X115793145Y-142170053D01*
X115906972Y-141895251D01*
X115965001Y-141603522D01*
X115965001Y-141306078D01*
X115906972Y-141014349D01*
X115793145Y-140739547D01*
X115686406Y-140579800D01*
X126756928Y-140579800D01*
X126756928Y-142329800D01*
X126769188Y-142454282D01*
X126805498Y-142573980D01*
X126864463Y-142684294D01*
X126943815Y-142780985D01*
X127040506Y-142860337D01*
X127150820Y-142919302D01*
X127270518Y-142955612D01*
X127395000Y-142967872D01*
X129145000Y-142967872D01*
X129269482Y-142955612D01*
X129389180Y-142919302D01*
X129499494Y-142860337D01*
X129596185Y-142780985D01*
X129675537Y-142684294D01*
X129734502Y-142573980D01*
X129770812Y-142454282D01*
X129783072Y-142329800D01*
X129783072Y-141306078D01*
X130260000Y-141306078D01*
X130260000Y-141603522D01*
X130318029Y-141895251D01*
X130431856Y-142170053D01*
X130597107Y-142417369D01*
X130807431Y-142627693D01*
X131054747Y-142792944D01*
X131329549Y-142906771D01*
X131621278Y-142964800D01*
X131918722Y-142964800D01*
X132210451Y-142906771D01*
X132485253Y-142792944D01*
X132732569Y-142627693D01*
X132942893Y-142417369D01*
X133108144Y-142170053D01*
X133221971Y-141895251D01*
X133280000Y-141603522D01*
X133280000Y-141306078D01*
X133221971Y-141014349D01*
X133108144Y-140739547D01*
X133001405Y-140579800D01*
X144536928Y-140579800D01*
X144536928Y-142329800D01*
X144549188Y-142454282D01*
X144585498Y-142573980D01*
X144644463Y-142684294D01*
X144723815Y-142780985D01*
X144820506Y-142860337D01*
X144930820Y-142919302D01*
X145050518Y-142955612D01*
X145175000Y-142967872D01*
X146925000Y-142967872D01*
X147049482Y-142955612D01*
X147169180Y-142919302D01*
X147279494Y-142860337D01*
X147376185Y-142780985D01*
X147455537Y-142684294D01*
X147514502Y-142573980D01*
X147550812Y-142454282D01*
X147563072Y-142329800D01*
X147563072Y-140579800D01*
X147550812Y-140455318D01*
X147514502Y-140335620D01*
X147455537Y-140225306D01*
X147376185Y-140128615D01*
X147279494Y-140049263D01*
X147169180Y-139990298D01*
X147049482Y-139953988D01*
X146925000Y-139941728D01*
X145175000Y-139941728D01*
X145050518Y-139953988D01*
X144930820Y-139990298D01*
X144820506Y-140049263D01*
X144723815Y-140128615D01*
X144644463Y-140225306D01*
X144585498Y-140335620D01*
X144549188Y-140455318D01*
X144536928Y-140579800D01*
X133001405Y-140579800D01*
X132942893Y-140492231D01*
X132732569Y-140281907D01*
X132485253Y-140116656D01*
X132210451Y-140002829D01*
X131918722Y-139944800D01*
X131621278Y-139944800D01*
X131329549Y-140002829D01*
X131054747Y-140116656D01*
X130807431Y-140281907D01*
X130597107Y-140492231D01*
X130431856Y-140739547D01*
X130318029Y-141014349D01*
X130260000Y-141306078D01*
X129783072Y-141306078D01*
X129783072Y-140579800D01*
X129770812Y-140455318D01*
X129734502Y-140335620D01*
X129675537Y-140225306D01*
X129596185Y-140128615D01*
X129499494Y-140049263D01*
X129389180Y-139990298D01*
X129269482Y-139953988D01*
X129145000Y-139941728D01*
X127395000Y-139941728D01*
X127270518Y-139953988D01*
X127150820Y-139990298D01*
X127040506Y-140049263D01*
X126943815Y-140128615D01*
X126864463Y-140225306D01*
X126805498Y-140335620D01*
X126769188Y-140455318D01*
X126756928Y-140579800D01*
X115686406Y-140579800D01*
X115627894Y-140492231D01*
X115417570Y-140281907D01*
X115170254Y-140116656D01*
X114895452Y-140002829D01*
X114603723Y-139944800D01*
X114306279Y-139944800D01*
X114014550Y-140002829D01*
X113739748Y-140116656D01*
X113492432Y-140281907D01*
X113282108Y-140492231D01*
X113116857Y-140739547D01*
X113003030Y-141014349D01*
X112945001Y-141306078D01*
X112468073Y-141306078D01*
X112468073Y-140579800D01*
X112455813Y-140455318D01*
X112419503Y-140335620D01*
X112360538Y-140225306D01*
X112281186Y-140128615D01*
X112184495Y-140049263D01*
X112074181Y-139990298D01*
X111954483Y-139953988D01*
X111830001Y-139941728D01*
X110080001Y-139941728D01*
X109955519Y-139953988D01*
X109835821Y-139990298D01*
X109725507Y-140049263D01*
X109628816Y-140128615D01*
X109549464Y-140225306D01*
X109490499Y-140335620D01*
X109454189Y-140455318D01*
X109441929Y-140579800D01*
X104545000Y-140579800D01*
X104545000Y-135909295D01*
X106520001Y-135909295D01*
X106520001Y-136300305D01*
X106596283Y-136683803D01*
X106745916Y-137045050D01*
X106963150Y-137370164D01*
X107239637Y-137646651D01*
X107564751Y-137863885D01*
X107925998Y-138013518D01*
X108309496Y-138089800D01*
X108700506Y-138089800D01*
X109084004Y-138013518D01*
X109445251Y-137863885D01*
X109770365Y-137646651D01*
X110046852Y-137370164D01*
X110221158Y-137109295D01*
X114920001Y-137109295D01*
X114920001Y-137500305D01*
X114996283Y-137883803D01*
X115145916Y-138245050D01*
X115363150Y-138570164D01*
X115639637Y-138846651D01*
X115964751Y-139063885D01*
X116325998Y-139213518D01*
X116709496Y-139289800D01*
X117100506Y-139289800D01*
X117484004Y-139213518D01*
X117845251Y-139063885D01*
X118170365Y-138846651D01*
X118446852Y-138570164D01*
X118664086Y-138245050D01*
X118813719Y-137883803D01*
X118890001Y-137500305D01*
X118890001Y-137109295D01*
X118813719Y-136725797D01*
X118664086Y-136364550D01*
X118446852Y-136039436D01*
X118316711Y-135909295D01*
X123835000Y-135909295D01*
X123835000Y-136300305D01*
X123911282Y-136683803D01*
X124060915Y-137045050D01*
X124278149Y-137370164D01*
X124554636Y-137646651D01*
X124879750Y-137863885D01*
X125240997Y-138013518D01*
X125624495Y-138089800D01*
X126015505Y-138089800D01*
X126399003Y-138013518D01*
X126760250Y-137863885D01*
X127085364Y-137646651D01*
X127361851Y-137370164D01*
X127536157Y-137109295D01*
X132235000Y-137109295D01*
X132235000Y-137500305D01*
X132311282Y-137883803D01*
X132460915Y-138245050D01*
X132678149Y-138570164D01*
X132954636Y-138846651D01*
X133279750Y-139063885D01*
X133640997Y-139213518D01*
X134024495Y-139289800D01*
X134415505Y-139289800D01*
X134799003Y-139213518D01*
X135160250Y-139063885D01*
X135485364Y-138846651D01*
X135761851Y-138570164D01*
X135979085Y-138245050D01*
X136128718Y-137883803D01*
X136205000Y-137500305D01*
X136205000Y-137109295D01*
X136128718Y-136725797D01*
X135979085Y-136364550D01*
X135761851Y-136039436D01*
X135631710Y-135909295D01*
X141615000Y-135909295D01*
X141615000Y-136300305D01*
X141691282Y-136683803D01*
X141840915Y-137045050D01*
X142058149Y-137370164D01*
X142334636Y-137646651D01*
X142659750Y-137863885D01*
X143020997Y-138013518D01*
X143404495Y-138089800D01*
X143795505Y-138089800D01*
X144179003Y-138013518D01*
X144540250Y-137863885D01*
X144865364Y-137646651D01*
X145141851Y-137370164D01*
X145359085Y-137045050D01*
X145508718Y-136683803D01*
X145585000Y-136300305D01*
X145585000Y-135909295D01*
X145508718Y-135525797D01*
X145359085Y-135164550D01*
X145141851Y-134839436D01*
X144865364Y-134562949D01*
X144540250Y-134345715D01*
X144179003Y-134196082D01*
X143795505Y-134119800D01*
X143404495Y-134119800D01*
X143020997Y-134196082D01*
X142659750Y-134345715D01*
X142334636Y-134562949D01*
X142058149Y-134839436D01*
X141840915Y-135164550D01*
X141691282Y-135525797D01*
X141615000Y-135909295D01*
X135631710Y-135909295D01*
X135485364Y-135762949D01*
X135160250Y-135545715D01*
X134799003Y-135396082D01*
X134415505Y-135319800D01*
X134024495Y-135319800D01*
X133640997Y-135396082D01*
X133279750Y-135545715D01*
X132954636Y-135762949D01*
X132678149Y-136039436D01*
X132460915Y-136364550D01*
X132311282Y-136725797D01*
X132235000Y-137109295D01*
X127536157Y-137109295D01*
X127579085Y-137045050D01*
X127728718Y-136683803D01*
X127805000Y-136300305D01*
X127805000Y-135909295D01*
X127728718Y-135525797D01*
X127579085Y-135164550D01*
X127361851Y-134839436D01*
X127085364Y-134562949D01*
X126760250Y-134345715D01*
X126399003Y-134196082D01*
X126015505Y-134119800D01*
X125624495Y-134119800D01*
X125240997Y-134196082D01*
X124879750Y-134345715D01*
X124554636Y-134562949D01*
X124278149Y-134839436D01*
X124060915Y-135164550D01*
X123911282Y-135525797D01*
X123835000Y-135909295D01*
X118316711Y-135909295D01*
X118170365Y-135762949D01*
X117845251Y-135545715D01*
X117484004Y-135396082D01*
X117100506Y-135319800D01*
X116709496Y-135319800D01*
X116325998Y-135396082D01*
X115964751Y-135545715D01*
X115639637Y-135762949D01*
X115363150Y-136039436D01*
X115145916Y-136364550D01*
X114996283Y-136725797D01*
X114920001Y-137109295D01*
X110221158Y-137109295D01*
X110264086Y-137045050D01*
X110413719Y-136683803D01*
X110490001Y-136300305D01*
X110490001Y-135909295D01*
X110413719Y-135525797D01*
X110264086Y-135164550D01*
X110046852Y-134839436D01*
X109770365Y-134562949D01*
X109445251Y-134345715D01*
X109084004Y-134196082D01*
X108700506Y-134119800D01*
X108309496Y-134119800D01*
X107925998Y-134196082D01*
X107564751Y-134345715D01*
X107239637Y-134562949D01*
X106963150Y-134839436D01*
X106745916Y-135164550D01*
X106596283Y-135525797D01*
X106520001Y-135909295D01*
X104545000Y-135909295D01*
X104545000Y-88109295D01*
X106520001Y-88109295D01*
X106520001Y-88500305D01*
X106596283Y-88883803D01*
X106745916Y-89245050D01*
X106963150Y-89570164D01*
X107239637Y-89846651D01*
X107564751Y-90063885D01*
X107925998Y-90213518D01*
X108309496Y-90289800D01*
X108700506Y-90289800D01*
X109084004Y-90213518D01*
X109445251Y-90063885D01*
X109770365Y-89846651D01*
X110046852Y-89570164D01*
X110264086Y-89245050D01*
X110413719Y-88883803D01*
X110490001Y-88500305D01*
X110490001Y-88109295D01*
X110413719Y-87725797D01*
X110264086Y-87364550D01*
X110046852Y-87039436D01*
X109916711Y-86909295D01*
X114920001Y-86909295D01*
X114920001Y-87300305D01*
X114996283Y-87683803D01*
X115145916Y-88045050D01*
X115363150Y-88370164D01*
X115639637Y-88646651D01*
X115964751Y-88863885D01*
X116325998Y-89013518D01*
X116709496Y-89089800D01*
X117100506Y-89089800D01*
X117484004Y-89013518D01*
X117845251Y-88863885D01*
X118170365Y-88646651D01*
X118446852Y-88370164D01*
X118621158Y-88109295D01*
X123835000Y-88109295D01*
X123835000Y-88500305D01*
X123911282Y-88883803D01*
X124060915Y-89245050D01*
X124278149Y-89570164D01*
X124554636Y-89846651D01*
X124879750Y-90063885D01*
X125240997Y-90213518D01*
X125624495Y-90289800D01*
X126015505Y-90289800D01*
X126399003Y-90213518D01*
X126760250Y-90063885D01*
X127085364Y-89846651D01*
X127361851Y-89570164D01*
X127579085Y-89245050D01*
X127728718Y-88883803D01*
X127805000Y-88500305D01*
X127805000Y-88109295D01*
X127728718Y-87725797D01*
X127579085Y-87364550D01*
X127361851Y-87039436D01*
X127231710Y-86909295D01*
X132235000Y-86909295D01*
X132235000Y-87300305D01*
X132311282Y-87683803D01*
X132460915Y-88045050D01*
X132678149Y-88370164D01*
X132954636Y-88646651D01*
X133279750Y-88863885D01*
X133640997Y-89013518D01*
X134024495Y-89089800D01*
X134415505Y-89089800D01*
X134799003Y-89013518D01*
X135160250Y-88863885D01*
X135485364Y-88646651D01*
X135761851Y-88370164D01*
X135979085Y-88045050D01*
X136128718Y-87683803D01*
X136205000Y-87300305D01*
X136205000Y-86909295D01*
X136128718Y-86525797D01*
X135979085Y-86164550D01*
X135761851Y-85839436D01*
X135485364Y-85562949D01*
X135160250Y-85345715D01*
X134799003Y-85196082D01*
X134415505Y-85119800D01*
X134024495Y-85119800D01*
X133640997Y-85196082D01*
X133279750Y-85345715D01*
X132954636Y-85562949D01*
X132678149Y-85839436D01*
X132460915Y-86164550D01*
X132311282Y-86525797D01*
X132235000Y-86909295D01*
X127231710Y-86909295D01*
X127085364Y-86762949D01*
X126760250Y-86545715D01*
X126399003Y-86396082D01*
X126015505Y-86319800D01*
X125624495Y-86319800D01*
X125240997Y-86396082D01*
X124879750Y-86545715D01*
X124554636Y-86762949D01*
X124278149Y-87039436D01*
X124060915Y-87364550D01*
X123911282Y-87725797D01*
X123835000Y-88109295D01*
X118621158Y-88109295D01*
X118664086Y-88045050D01*
X118813719Y-87683803D01*
X118890001Y-87300305D01*
X118890001Y-86909295D01*
X118813719Y-86525797D01*
X118664086Y-86164550D01*
X118446852Y-85839436D01*
X118170365Y-85562949D01*
X117845251Y-85345715D01*
X117484004Y-85196082D01*
X117100506Y-85119800D01*
X116709496Y-85119800D01*
X116325998Y-85196082D01*
X115964751Y-85345715D01*
X115639637Y-85562949D01*
X115363150Y-85839436D01*
X115145916Y-86164550D01*
X114996283Y-86525797D01*
X114920001Y-86909295D01*
X109916711Y-86909295D01*
X109770365Y-86762949D01*
X109445251Y-86545715D01*
X109084004Y-86396082D01*
X108700506Y-86319800D01*
X108309496Y-86319800D01*
X107925998Y-86396082D01*
X107564751Y-86545715D01*
X107239637Y-86762949D01*
X106963150Y-87039436D01*
X106745916Y-87364550D01*
X106596283Y-87725797D01*
X106520001Y-88109295D01*
X104545000Y-88109295D01*
X104545000Y-84001040D01*
X110088366Y-84001040D01*
X110169026Y-84252668D01*
X110437330Y-84381067D01*
X110725527Y-84454655D01*
X111022544Y-84470604D01*
X111316964Y-84428301D01*
X111597475Y-84329372D01*
X111740976Y-84252668D01*
X111821636Y-84001040D01*
X127403365Y-84001040D01*
X127484025Y-84252668D01*
X127752329Y-84381067D01*
X128040526Y-84454655D01*
X128337543Y-84470604D01*
X128631963Y-84428301D01*
X128912474Y-84329372D01*
X129055975Y-84252668D01*
X129136635Y-84001040D01*
X128270000Y-83134405D01*
X127403365Y-84001040D01*
X111821636Y-84001040D01*
X110955001Y-83134405D01*
X110088366Y-84001040D01*
X104545000Y-84001040D01*
X104545000Y-83022343D01*
X109439197Y-83022343D01*
X109481500Y-83316763D01*
X109580429Y-83597274D01*
X109657133Y-83740775D01*
X109908761Y-83821435D01*
X110775396Y-82954800D01*
X111134606Y-82954800D01*
X112001241Y-83821435D01*
X112252869Y-83740775D01*
X112381268Y-83472471D01*
X112454856Y-83184274D01*
X112463551Y-83022343D01*
X126754196Y-83022343D01*
X126796499Y-83316763D01*
X126895428Y-83597274D01*
X126972132Y-83740775D01*
X127223760Y-83821435D01*
X128090395Y-82954800D01*
X128449605Y-82954800D01*
X129316240Y-83821435D01*
X129567868Y-83740775D01*
X129696267Y-83472471D01*
X129769855Y-83184274D01*
X129785804Y-82887257D01*
X129743501Y-82592837D01*
X129644572Y-82312326D01*
X129567868Y-82168825D01*
X129316240Y-82088165D01*
X128449605Y-82954800D01*
X128090395Y-82954800D01*
X127223760Y-82088165D01*
X126972132Y-82168825D01*
X126843733Y-82437129D01*
X126770145Y-82725326D01*
X126754196Y-83022343D01*
X112463551Y-83022343D01*
X112470805Y-82887257D01*
X112428502Y-82592837D01*
X112329573Y-82312326D01*
X112252869Y-82168825D01*
X112001241Y-82088165D01*
X111134606Y-82954800D01*
X110775396Y-82954800D01*
X109908761Y-82088165D01*
X109657133Y-82168825D01*
X109528734Y-82437129D01*
X109455146Y-82725326D01*
X109439197Y-83022343D01*
X104545000Y-83022343D01*
X104545000Y-81908560D01*
X110088366Y-81908560D01*
X110955001Y-82775195D01*
X111821636Y-81908560D01*
X127403365Y-81908560D01*
X128270000Y-82775195D01*
X129136635Y-81908560D01*
X129055975Y-81656932D01*
X128787671Y-81528533D01*
X128499474Y-81454945D01*
X128202457Y-81438996D01*
X127908037Y-81481299D01*
X127627526Y-81580228D01*
X127484025Y-81656932D01*
X127403365Y-81908560D01*
X111821636Y-81908560D01*
X111740976Y-81656932D01*
X111472672Y-81528533D01*
X111184475Y-81454945D01*
X110887458Y-81438996D01*
X110593038Y-81481299D01*
X110312527Y-81580228D01*
X110169026Y-81656932D01*
X110088366Y-81908560D01*
X104545000Y-81908560D01*
X104545000Y-76058665D01*
X107460001Y-76058665D01*
X107460001Y-76341335D01*
X107515148Y-76618574D01*
X107623321Y-76879727D01*
X107780364Y-77114759D01*
X107980242Y-77314637D01*
X108215274Y-77471680D01*
X108476427Y-77579853D01*
X108753666Y-77635000D01*
X109036336Y-77635000D01*
X109313575Y-77579853D01*
X109574728Y-77471680D01*
X109809760Y-77314637D01*
X110009638Y-77114759D01*
X110166681Y-76879727D01*
X110274854Y-76618574D01*
X110330001Y-76341335D01*
X110330001Y-76200000D01*
X115073058Y-76200000D01*
X115100765Y-76481309D01*
X115182819Y-76751808D01*
X115316069Y-77001101D01*
X115495393Y-77219608D01*
X115713900Y-77398932D01*
X115963193Y-77532182D01*
X116233692Y-77614236D01*
X116444509Y-77635000D01*
X116585493Y-77635000D01*
X116796310Y-77614236D01*
X117066809Y-77532182D01*
X117316102Y-77398932D01*
X117534609Y-77219608D01*
X117713933Y-77001101D01*
X117847183Y-76751808D01*
X117929237Y-76481309D01*
X117956944Y-76200000D01*
X117943024Y-76058665D01*
X124775000Y-76058665D01*
X124775000Y-76341335D01*
X124830147Y-76618574D01*
X124938320Y-76879727D01*
X125095363Y-77114759D01*
X125295241Y-77314637D01*
X125530273Y-77471680D01*
X125791426Y-77579853D01*
X126068665Y-77635000D01*
X126351335Y-77635000D01*
X126628574Y-77579853D01*
X126889727Y-77471680D01*
X127124759Y-77314637D01*
X127324637Y-77114759D01*
X127481680Y-76879727D01*
X127589853Y-76618574D01*
X127645000Y-76341335D01*
X127645000Y-76200000D01*
X132388057Y-76200000D01*
X132415764Y-76481309D01*
X132497818Y-76751808D01*
X132631068Y-77001101D01*
X132810392Y-77219608D01*
X133028899Y-77398932D01*
X133278192Y-77532182D01*
X133548691Y-77614236D01*
X133759508Y-77635000D01*
X133900492Y-77635000D01*
X134111309Y-77614236D01*
X134381808Y-77532182D01*
X134631101Y-77398932D01*
X134849608Y-77219608D01*
X135028932Y-77001101D01*
X135162182Y-76751808D01*
X135244236Y-76481309D01*
X135271943Y-76200000D01*
X135244236Y-75918691D01*
X135162182Y-75648192D01*
X135028932Y-75398899D01*
X134849608Y-75180392D01*
X134631101Y-75001068D01*
X134381808Y-74867818D01*
X134111309Y-74785764D01*
X133900492Y-74765000D01*
X133759508Y-74765000D01*
X133548691Y-74785764D01*
X133278192Y-74867818D01*
X133028899Y-75001068D01*
X132810392Y-75180392D01*
X132631068Y-75398899D01*
X132497818Y-75648192D01*
X132415764Y-75918691D01*
X132388057Y-76200000D01*
X127645000Y-76200000D01*
X127645000Y-76058665D01*
X127589853Y-75781426D01*
X127481680Y-75520273D01*
X127324637Y-75285241D01*
X127124759Y-75085363D01*
X126889727Y-74928320D01*
X126628574Y-74820147D01*
X126351335Y-74765000D01*
X126068665Y-74765000D01*
X125791426Y-74820147D01*
X125530273Y-74928320D01*
X125295241Y-75085363D01*
X125095363Y-75285241D01*
X124938320Y-75520273D01*
X124830147Y-75781426D01*
X124775000Y-76058665D01*
X117943024Y-76058665D01*
X117929237Y-75918691D01*
X117847183Y-75648192D01*
X117713933Y-75398899D01*
X117534609Y-75180392D01*
X117316102Y-75001068D01*
X117066809Y-74867818D01*
X116796310Y-74785764D01*
X116585493Y-74765000D01*
X116444509Y-74765000D01*
X116233692Y-74785764D01*
X115963193Y-74867818D01*
X115713900Y-75001068D01*
X115495393Y-75180392D01*
X115316069Y-75398899D01*
X115182819Y-75648192D01*
X115100765Y-75918691D01*
X115073058Y-76200000D01*
X110330001Y-76200000D01*
X110330001Y-76058665D01*
X110274854Y-75781426D01*
X110166681Y-75520273D01*
X110009638Y-75285241D01*
X109809760Y-75085363D01*
X109574728Y-74928320D01*
X109313575Y-74820147D01*
X109036336Y-74765000D01*
X108753666Y-74765000D01*
X108476427Y-74820147D01*
X108215274Y-74928320D01*
X107980242Y-75085363D01*
X107780364Y-75285241D01*
X107623321Y-75520273D01*
X107515148Y-75781426D01*
X107460001Y-76058665D01*
X104545000Y-76058665D01*
X104545000Y-70199039D01*
X107513097Y-70199039D01*
X107553755Y-70333087D01*
X107673964Y-70587420D01*
X107841482Y-70813414D01*
X108049870Y-71002385D01*
X108291120Y-71147070D01*
X108555961Y-71241909D01*
X108778001Y-71120624D01*
X108778001Y-69977000D01*
X109032001Y-69977000D01*
X109032001Y-71120624D01*
X109254041Y-71241909D01*
X109518882Y-71147070D01*
X109760132Y-71002385D01*
X109968520Y-70813414D01*
X110136038Y-70587420D01*
X110256247Y-70333087D01*
X110296905Y-70199039D01*
X110174916Y-69977000D01*
X109032001Y-69977000D01*
X108778001Y-69977000D01*
X107635086Y-69977000D01*
X107513097Y-70199039D01*
X104545000Y-70199039D01*
X104545000Y-64770000D01*
X107463058Y-64770000D01*
X107490765Y-65051309D01*
X107572819Y-65321808D01*
X107706069Y-65571101D01*
X107885393Y-65789608D01*
X108103900Y-65968932D01*
X108236859Y-66040000D01*
X108103900Y-66111068D01*
X107885393Y-66290392D01*
X107706069Y-66508899D01*
X107572819Y-66758192D01*
X107490765Y-67028691D01*
X107463058Y-67310000D01*
X107490765Y-67591309D01*
X107572819Y-67861808D01*
X107706069Y-68111101D01*
X107885393Y-68329608D01*
X108103900Y-68508932D01*
X108241683Y-68582579D01*
X108049870Y-68697615D01*
X107841482Y-68886586D01*
X107673964Y-69112580D01*
X107553755Y-69366913D01*
X107513097Y-69500961D01*
X107635086Y-69723000D01*
X108778001Y-69723000D01*
X108778001Y-69703000D01*
X109032001Y-69703000D01*
X109032001Y-69723000D01*
X110174916Y-69723000D01*
X110296905Y-69500961D01*
X110256247Y-69366913D01*
X110136038Y-69112580D01*
X109968520Y-68886586D01*
X109760132Y-68697615D01*
X109568319Y-68582579D01*
X109706102Y-68508932D01*
X109924609Y-68329608D01*
X110103933Y-68111101D01*
X110237183Y-67861808D01*
X110319237Y-67591309D01*
X110346944Y-67310000D01*
X110319237Y-67028691D01*
X110237183Y-66758192D01*
X110103933Y-66508899D01*
X109924609Y-66290392D01*
X109706102Y-66111068D01*
X109573143Y-66040000D01*
X109706102Y-65968932D01*
X109924609Y-65789608D01*
X110103933Y-65571101D01*
X110237183Y-65321808D01*
X110319237Y-65051309D01*
X110346944Y-64770000D01*
X110319237Y-64488691D01*
X110237183Y-64218192D01*
X110103933Y-63968899D01*
X109924609Y-63750392D01*
X109811519Y-63657581D01*
X109829483Y-63655812D01*
X109949181Y-63619502D01*
X110059495Y-63560537D01*
X110156186Y-63481185D01*
X110235538Y-63384494D01*
X110294503Y-63274180D01*
X110330813Y-63154482D01*
X110343073Y-63030000D01*
X110343073Y-62230000D01*
X115083058Y-62230000D01*
X115110765Y-62511309D01*
X115192819Y-62781808D01*
X115326069Y-63031101D01*
X115505393Y-63249608D01*
X115723900Y-63428932D01*
X115856859Y-63500000D01*
X115723900Y-63571068D01*
X115505393Y-63750392D01*
X115326069Y-63968899D01*
X115192819Y-64218192D01*
X115110765Y-64488691D01*
X115083058Y-64770000D01*
X115110765Y-65051309D01*
X115192819Y-65321808D01*
X115326069Y-65571101D01*
X115505393Y-65789608D01*
X115723900Y-65968932D01*
X115856859Y-66040000D01*
X115723900Y-66111068D01*
X115505393Y-66290392D01*
X115326069Y-66508899D01*
X115192819Y-66758192D01*
X115110765Y-67028691D01*
X115083058Y-67310000D01*
X115110765Y-67591309D01*
X115192819Y-67861808D01*
X115326069Y-68111101D01*
X115505393Y-68329608D01*
X115723900Y-68508932D01*
X115856859Y-68580000D01*
X115723900Y-68651068D01*
X115505393Y-68830392D01*
X115326069Y-69048899D01*
X115192819Y-69298192D01*
X115110765Y-69568691D01*
X115083058Y-69850000D01*
X115110765Y-70131309D01*
X115192819Y-70401808D01*
X115326069Y-70651101D01*
X115505393Y-70869608D01*
X115723900Y-71048932D01*
X115973193Y-71182182D01*
X116243692Y-71264236D01*
X116454509Y-71285000D01*
X116595493Y-71285000D01*
X116806310Y-71264236D01*
X117076809Y-71182182D01*
X117326102Y-71048932D01*
X117544609Y-70869608D01*
X117723933Y-70651101D01*
X117745902Y-70610000D01*
X128697678Y-70610000D01*
X128735000Y-70613676D01*
X128772322Y-70610000D01*
X128772333Y-70610000D01*
X128883986Y-70599003D01*
X129027247Y-70555546D01*
X129159276Y-70484974D01*
X129275001Y-70390001D01*
X129298804Y-70360997D01*
X131974101Y-67685700D01*
X140320624Y-67685700D01*
X140324300Y-67723022D01*
X140324301Y-128830769D01*
X140320624Y-128868102D01*
X140335298Y-129017087D01*
X140378754Y-129160348D01*
X140449326Y-129292378D01*
X140520501Y-129379104D01*
X140544300Y-129408103D01*
X140573298Y-129431901D01*
X148790000Y-137648604D01*
X148790001Y-140146554D01*
X148587431Y-140281907D01*
X148377107Y-140492231D01*
X148211856Y-140739547D01*
X148098029Y-141014349D01*
X148040000Y-141306078D01*
X148040000Y-141603522D01*
X148098029Y-141895251D01*
X148211856Y-142170053D01*
X148377107Y-142417369D01*
X148587431Y-142627693D01*
X148834747Y-142792944D01*
X149109549Y-142906771D01*
X149401278Y-142964800D01*
X149698722Y-142964800D01*
X149990451Y-142906771D01*
X150265253Y-142792944D01*
X150512569Y-142627693D01*
X150722893Y-142417369D01*
X150888144Y-142170053D01*
X151001971Y-141895251D01*
X151060000Y-141603522D01*
X151060000Y-141306078D01*
X151001971Y-141014349D01*
X150888144Y-140739547D01*
X150722893Y-140492231D01*
X150512569Y-140281907D01*
X150310000Y-140146555D01*
X150310000Y-138348443D01*
X150458149Y-138570164D01*
X150734636Y-138846651D01*
X151059750Y-139063885D01*
X151420997Y-139213518D01*
X151804495Y-139289800D01*
X152195505Y-139289800D01*
X152579003Y-139213518D01*
X152940250Y-139063885D01*
X153265364Y-138846651D01*
X153541851Y-138570164D01*
X153759085Y-138245050D01*
X153908718Y-137883803D01*
X153985000Y-137500305D01*
X153985000Y-137109295D01*
X153908718Y-136725797D01*
X153759085Y-136364550D01*
X153541851Y-136039436D01*
X153265364Y-135762949D01*
X152940250Y-135545715D01*
X152579003Y-135396082D01*
X152195505Y-135319800D01*
X151804495Y-135319800D01*
X151420997Y-135396082D01*
X151059750Y-135545715D01*
X150734636Y-135762949D01*
X150458149Y-136039436D01*
X150240915Y-136364550D01*
X150091282Y-136725797D01*
X150079474Y-136785162D01*
X150061004Y-136770004D01*
X141844300Y-128553301D01*
X141844300Y-89250116D01*
X142058149Y-89570164D01*
X142334636Y-89846651D01*
X142659750Y-90063885D01*
X143020997Y-90213518D01*
X143404495Y-90289800D01*
X143795505Y-90289800D01*
X144179003Y-90213518D01*
X144540250Y-90063885D01*
X144865364Y-89846651D01*
X145141851Y-89570164D01*
X145359085Y-89245050D01*
X145508718Y-88883803D01*
X145585000Y-88500305D01*
X145585000Y-88109295D01*
X145508718Y-87725797D01*
X145359085Y-87364550D01*
X145141851Y-87039436D01*
X145011710Y-86909295D01*
X150015000Y-86909295D01*
X150015000Y-87300305D01*
X150091282Y-87683803D01*
X150240915Y-88045050D01*
X150458149Y-88370164D01*
X150734636Y-88646651D01*
X151059750Y-88863885D01*
X151420997Y-89013518D01*
X151804495Y-89089800D01*
X152195505Y-89089800D01*
X152579003Y-89013518D01*
X152940250Y-88863885D01*
X153265364Y-88646651D01*
X153541851Y-88370164D01*
X153759085Y-88045050D01*
X153908718Y-87683803D01*
X153985000Y-87300305D01*
X153985000Y-86909295D01*
X153908718Y-86525797D01*
X153759085Y-86164550D01*
X153541851Y-85839436D01*
X153265364Y-85562949D01*
X152940250Y-85345715D01*
X152579003Y-85196082D01*
X152195505Y-85119800D01*
X151804495Y-85119800D01*
X151420997Y-85196082D01*
X151059750Y-85345715D01*
X150734636Y-85562949D01*
X150458149Y-85839436D01*
X150240915Y-86164550D01*
X150091282Y-86525797D01*
X150015000Y-86909295D01*
X145011710Y-86909295D01*
X144865364Y-86762949D01*
X144540250Y-86545715D01*
X144179003Y-86396082D01*
X143795505Y-86319800D01*
X143404495Y-86319800D01*
X143020997Y-86396082D01*
X142659750Y-86545715D01*
X142334636Y-86762949D01*
X142058149Y-87039436D01*
X141844300Y-87359484D01*
X141844300Y-84001040D01*
X145183365Y-84001040D01*
X145264025Y-84252668D01*
X145532329Y-84381067D01*
X145820526Y-84454655D01*
X146117543Y-84470604D01*
X146411963Y-84428301D01*
X146692474Y-84329372D01*
X146835975Y-84252668D01*
X146916635Y-84001040D01*
X146050000Y-83134405D01*
X145183365Y-84001040D01*
X141844300Y-84001040D01*
X141844300Y-83022343D01*
X144534196Y-83022343D01*
X144576499Y-83316763D01*
X144675428Y-83597274D01*
X144752132Y-83740775D01*
X145003760Y-83821435D01*
X145870395Y-82954800D01*
X146229605Y-82954800D01*
X147096240Y-83821435D01*
X147347868Y-83740775D01*
X147476267Y-83472471D01*
X147549855Y-83184274D01*
X147565804Y-82887257D01*
X147523501Y-82592837D01*
X147424572Y-82312326D01*
X147347868Y-82168825D01*
X147096240Y-82088165D01*
X146229605Y-82954800D01*
X145870395Y-82954800D01*
X145003760Y-82088165D01*
X144752132Y-82168825D01*
X144623733Y-82437129D01*
X144550145Y-82725326D01*
X144534196Y-83022343D01*
X141844300Y-83022343D01*
X141844300Y-81908560D01*
X145183365Y-81908560D01*
X146050000Y-82775195D01*
X146916635Y-81908560D01*
X146835975Y-81656932D01*
X146567671Y-81528533D01*
X146279474Y-81454945D01*
X145982457Y-81438996D01*
X145688037Y-81481299D01*
X145407526Y-81580228D01*
X145264025Y-81656932D01*
X145183365Y-81908560D01*
X141844300Y-81908560D01*
X141844300Y-76058665D01*
X142555000Y-76058665D01*
X142555000Y-76341335D01*
X142610147Y-76618574D01*
X142718320Y-76879727D01*
X142875363Y-77114759D01*
X143075241Y-77314637D01*
X143310273Y-77471680D01*
X143571426Y-77579853D01*
X143848665Y-77635000D01*
X144131335Y-77635000D01*
X144408574Y-77579853D01*
X144669727Y-77471680D01*
X144904759Y-77314637D01*
X145104637Y-77114759D01*
X145261680Y-76879727D01*
X145369853Y-76618574D01*
X145425000Y-76341335D01*
X145425000Y-76200000D01*
X150168057Y-76200000D01*
X150195764Y-76481309D01*
X150277818Y-76751808D01*
X150411068Y-77001101D01*
X150590392Y-77219608D01*
X150808899Y-77398932D01*
X151058192Y-77532182D01*
X151328691Y-77614236D01*
X151539508Y-77635000D01*
X151680492Y-77635000D01*
X151891309Y-77614236D01*
X152161808Y-77532182D01*
X152411101Y-77398932D01*
X152629608Y-77219608D01*
X152808932Y-77001101D01*
X152942182Y-76751808D01*
X153024236Y-76481309D01*
X153051943Y-76200000D01*
X153024236Y-75918691D01*
X152942182Y-75648192D01*
X152808932Y-75398899D01*
X152629608Y-75180392D01*
X152411101Y-75001068D01*
X152161808Y-74867818D01*
X151891309Y-74785764D01*
X151680492Y-74765000D01*
X151539508Y-74765000D01*
X151328691Y-74785764D01*
X151058192Y-74867818D01*
X150808899Y-75001068D01*
X150590392Y-75180392D01*
X150411068Y-75398899D01*
X150277818Y-75648192D01*
X150195764Y-75918691D01*
X150168057Y-76200000D01*
X145425000Y-76200000D01*
X145425000Y-76058665D01*
X145369853Y-75781426D01*
X145261680Y-75520273D01*
X145104637Y-75285241D01*
X144904759Y-75085363D01*
X144669727Y-74928320D01*
X144408574Y-74820147D01*
X144131335Y-74765000D01*
X143848665Y-74765000D01*
X143571426Y-74820147D01*
X143310273Y-74928320D01*
X143075241Y-75085363D01*
X142875363Y-75285241D01*
X142718320Y-75520273D01*
X142610147Y-75781426D01*
X142555000Y-76058665D01*
X141844300Y-76058665D01*
X141844300Y-70199039D01*
X142608096Y-70199039D01*
X142648754Y-70333087D01*
X142768963Y-70587420D01*
X142936481Y-70813414D01*
X143144869Y-71002385D01*
X143386119Y-71147070D01*
X143650960Y-71241909D01*
X143873000Y-71120624D01*
X143873000Y-69977000D01*
X144127000Y-69977000D01*
X144127000Y-71120624D01*
X144349040Y-71241909D01*
X144613881Y-71147070D01*
X144855131Y-71002385D01*
X145063519Y-70813414D01*
X145231037Y-70587420D01*
X145351246Y-70333087D01*
X145391904Y-70199039D01*
X145269915Y-69977000D01*
X144127000Y-69977000D01*
X143873000Y-69977000D01*
X142730085Y-69977000D01*
X142608096Y-70199039D01*
X141844300Y-70199039D01*
X141844300Y-68000501D01*
X142560598Y-67284204D01*
X142558057Y-67310000D01*
X142585764Y-67591309D01*
X142667818Y-67861808D01*
X142801068Y-68111101D01*
X142980392Y-68329608D01*
X143198899Y-68508932D01*
X143336682Y-68582579D01*
X143144869Y-68697615D01*
X142936481Y-68886586D01*
X142768963Y-69112580D01*
X142648754Y-69366913D01*
X142608096Y-69500961D01*
X142730085Y-69723000D01*
X143873000Y-69723000D01*
X143873000Y-69703000D01*
X144127000Y-69703000D01*
X144127000Y-69723000D01*
X145269915Y-69723000D01*
X145391904Y-69500961D01*
X145351246Y-69366913D01*
X145231037Y-69112580D01*
X145063519Y-68886586D01*
X144855131Y-68697615D01*
X144663318Y-68582579D01*
X144801101Y-68508932D01*
X145019608Y-68329608D01*
X145198932Y-68111101D01*
X145332182Y-67861808D01*
X145414236Y-67591309D01*
X145441943Y-67310000D01*
X145414236Y-67028691D01*
X145332182Y-66758192D01*
X145198932Y-66508899D01*
X145019608Y-66290392D01*
X144801101Y-66111068D01*
X144668142Y-66040000D01*
X144801101Y-65968932D01*
X145019608Y-65789608D01*
X145198932Y-65571101D01*
X145332182Y-65321808D01*
X145414236Y-65051309D01*
X145441943Y-64770000D01*
X145414236Y-64488691D01*
X145332182Y-64218192D01*
X145198932Y-63968899D01*
X145019608Y-63750392D01*
X144906518Y-63657581D01*
X144924482Y-63655812D01*
X145044180Y-63619502D01*
X145154494Y-63560537D01*
X145251185Y-63481185D01*
X145330537Y-63384494D01*
X145389502Y-63274180D01*
X145425812Y-63154482D01*
X145438072Y-63030000D01*
X145438072Y-62230000D01*
X150178057Y-62230000D01*
X150205764Y-62511309D01*
X150287818Y-62781808D01*
X150421068Y-63031101D01*
X150600392Y-63249608D01*
X150818899Y-63428932D01*
X150951858Y-63500000D01*
X150818899Y-63571068D01*
X150600392Y-63750392D01*
X150421068Y-63968899D01*
X150287818Y-64218192D01*
X150205764Y-64488691D01*
X150178057Y-64770000D01*
X150205764Y-65051309D01*
X150287818Y-65321808D01*
X150421068Y-65571101D01*
X150600392Y-65789608D01*
X150818899Y-65968932D01*
X150951858Y-66040000D01*
X150818899Y-66111068D01*
X150600392Y-66290392D01*
X150421068Y-66508899D01*
X150287818Y-66758192D01*
X150205764Y-67028691D01*
X150178057Y-67310000D01*
X150205764Y-67591309D01*
X150287818Y-67861808D01*
X150421068Y-68111101D01*
X150600392Y-68329608D01*
X150818899Y-68508932D01*
X150951858Y-68580000D01*
X150818899Y-68651068D01*
X150600392Y-68830392D01*
X150421068Y-69048899D01*
X150287818Y-69298192D01*
X150205764Y-69568691D01*
X150178057Y-69850000D01*
X150205764Y-70131309D01*
X150287818Y-70401808D01*
X150421068Y-70651101D01*
X150600392Y-70869608D01*
X150818899Y-71048932D01*
X151068192Y-71182182D01*
X151338691Y-71264236D01*
X151549508Y-71285000D01*
X151690492Y-71285000D01*
X151901309Y-71264236D01*
X152171808Y-71182182D01*
X152421101Y-71048932D01*
X152639608Y-70869608D01*
X152818932Y-70651101D01*
X152952182Y-70401808D01*
X153034236Y-70131309D01*
X153061943Y-69850000D01*
X153034236Y-69568691D01*
X152952182Y-69298192D01*
X152818932Y-69048899D01*
X152639608Y-68830392D01*
X152421101Y-68651068D01*
X152288142Y-68580000D01*
X152421101Y-68508932D01*
X152639608Y-68329608D01*
X152818932Y-68111101D01*
X152952182Y-67861808D01*
X153034236Y-67591309D01*
X153061943Y-67310000D01*
X153034236Y-67028691D01*
X152952182Y-66758192D01*
X152818932Y-66508899D01*
X152639608Y-66290392D01*
X152421101Y-66111068D01*
X152288142Y-66040000D01*
X152421101Y-65968932D01*
X152639608Y-65789608D01*
X152818932Y-65571101D01*
X152952182Y-65321808D01*
X153034236Y-65051309D01*
X153061943Y-64770000D01*
X153034236Y-64488691D01*
X152952182Y-64218192D01*
X152818932Y-63968899D01*
X152639608Y-63750392D01*
X152421101Y-63571068D01*
X152288142Y-63500000D01*
X152421101Y-63428932D01*
X152639608Y-63249608D01*
X152818932Y-63031101D01*
X152952182Y-62781808D01*
X153034236Y-62511309D01*
X153061943Y-62230000D01*
X153034236Y-61948691D01*
X152952182Y-61678192D01*
X152818932Y-61428899D01*
X152639608Y-61210392D01*
X152421101Y-61031068D01*
X152171808Y-60897818D01*
X151901309Y-60815764D01*
X151690492Y-60795000D01*
X151549508Y-60795000D01*
X151338691Y-60815764D01*
X151068192Y-60897818D01*
X150818899Y-61031068D01*
X150600392Y-61210392D01*
X150421068Y-61428899D01*
X150287818Y-61678192D01*
X150205764Y-61948691D01*
X150178057Y-62230000D01*
X145438072Y-62230000D01*
X145438072Y-61430000D01*
X145425812Y-61305518D01*
X145389502Y-61185820D01*
X145330537Y-61075506D01*
X145251185Y-60978815D01*
X145154494Y-60899463D01*
X145044180Y-60840498D01*
X144924482Y-60804188D01*
X144800000Y-60791928D01*
X143200000Y-60791928D01*
X143075518Y-60804188D01*
X142955820Y-60840498D01*
X142845506Y-60899463D01*
X142748815Y-60978815D01*
X142669463Y-61075506D01*
X142610498Y-61185820D01*
X142574188Y-61305518D01*
X142561928Y-61430000D01*
X142561928Y-63030000D01*
X142574188Y-63154482D01*
X142610498Y-63274180D01*
X142669463Y-63384494D01*
X142748815Y-63481185D01*
X142845506Y-63560537D01*
X142955820Y-63619502D01*
X143075518Y-63655812D01*
X143093482Y-63657581D01*
X142980392Y-63750392D01*
X142801068Y-63968899D01*
X142667818Y-64218192D01*
X142585764Y-64488691D01*
X142558057Y-64770000D01*
X142585764Y-65051309D01*
X142599292Y-65095906D01*
X140573303Y-67121896D01*
X140544299Y-67145699D01*
X140489171Y-67212874D01*
X140449326Y-67261424D01*
X140412038Y-67331185D01*
X140378754Y-67393454D01*
X140335297Y-67536715D01*
X140324300Y-67648368D01*
X140324300Y-67648378D01*
X140320624Y-67685700D01*
X131974101Y-67685700D01*
X132189005Y-67470797D01*
X132263889Y-67493513D01*
X132482050Y-67515000D01*
X132627950Y-67515000D01*
X132846111Y-67493513D01*
X133126034Y-67408599D01*
X133384014Y-67270706D01*
X133610134Y-67085134D01*
X133634607Y-67055313D01*
X133655498Y-67124180D01*
X133714463Y-67234494D01*
X133793815Y-67331185D01*
X133890506Y-67410537D01*
X134000820Y-67469502D01*
X134120518Y-67505812D01*
X134245000Y-67518072D01*
X135945000Y-67518072D01*
X136069482Y-67505812D01*
X136189180Y-67469502D01*
X136299494Y-67410537D01*
X136396185Y-67331185D01*
X136475537Y-67234494D01*
X136534502Y-67124180D01*
X136570812Y-67004482D01*
X136583072Y-66880000D01*
X136583072Y-65180000D01*
X136570812Y-65055518D01*
X136534502Y-64935820D01*
X136475537Y-64825506D01*
X136396185Y-64728815D01*
X136299494Y-64649463D01*
X136189180Y-64590498D01*
X136069482Y-64554188D01*
X135945000Y-64541928D01*
X134245000Y-64541928D01*
X134120518Y-64554188D01*
X134000820Y-64590498D01*
X133890506Y-64649463D01*
X133793815Y-64728815D01*
X133714463Y-64825506D01*
X133655498Y-64935820D01*
X133634607Y-65004687D01*
X133610134Y-64974866D01*
X133384014Y-64789294D01*
X133126034Y-64651401D01*
X132846111Y-64566487D01*
X132627950Y-64545000D01*
X132482050Y-64545000D01*
X132263889Y-64566487D01*
X131983966Y-64651401D01*
X131725986Y-64789294D01*
X131499866Y-64974866D01*
X131314294Y-65200986D01*
X131285000Y-65255791D01*
X131255706Y-65200986D01*
X131070134Y-64974866D01*
X130844014Y-64789294D01*
X130586034Y-64651401D01*
X130306111Y-64566487D01*
X130087950Y-64545000D01*
X129942050Y-64545000D01*
X129723889Y-64566487D01*
X129443966Y-64651401D01*
X129185986Y-64789294D01*
X128959866Y-64974866D01*
X128774294Y-65200986D01*
X128739799Y-65265523D01*
X128670178Y-65148645D01*
X128475269Y-64932412D01*
X128241920Y-64758359D01*
X127979099Y-64633175D01*
X127831890Y-64588524D01*
X127602000Y-64709845D01*
X127602000Y-65903000D01*
X127622000Y-65903000D01*
X127622000Y-66157000D01*
X127602000Y-66157000D01*
X127602000Y-67350155D01*
X127831890Y-67471476D01*
X127979099Y-67426825D01*
X128241920Y-67301641D01*
X128475269Y-67127588D01*
X128670178Y-66911355D01*
X128739799Y-66794477D01*
X128774294Y-66859014D01*
X128959866Y-67085134D01*
X129185986Y-67270706D01*
X129443966Y-67408599D01*
X129723889Y-67493513D01*
X129942050Y-67515000D01*
X129995199Y-67515000D01*
X128420199Y-69090000D01*
X117745902Y-69090000D01*
X117723933Y-69048899D01*
X117544609Y-68830392D01*
X117326102Y-68651068D01*
X117193143Y-68580000D01*
X117326102Y-68508932D01*
X117544609Y-68329608D01*
X117723933Y-68111101D01*
X117857183Y-67861808D01*
X117939237Y-67591309D01*
X117966944Y-67310000D01*
X117939237Y-67028691D01*
X117857183Y-66758192D01*
X117723933Y-66508899D01*
X117544609Y-66290392D01*
X117326102Y-66111068D01*
X117193143Y-66040000D01*
X117211851Y-66030000D01*
X123442815Y-66030000D01*
X123471487Y-66321111D01*
X123556401Y-66601034D01*
X123694294Y-66859014D01*
X123879866Y-67085134D01*
X124105986Y-67270706D01*
X124363966Y-67408599D01*
X124643889Y-67493513D01*
X124862050Y-67515000D01*
X125007950Y-67515000D01*
X125226111Y-67493513D01*
X125506034Y-67408599D01*
X125764014Y-67270706D01*
X125990134Y-67085134D01*
X126175706Y-66859014D01*
X126210201Y-66794477D01*
X126279822Y-66911355D01*
X126474731Y-67127588D01*
X126708080Y-67301641D01*
X126970901Y-67426825D01*
X127118110Y-67471476D01*
X127348000Y-67350155D01*
X127348000Y-66157000D01*
X127328000Y-66157000D01*
X127328000Y-65903000D01*
X127348000Y-65903000D01*
X127348000Y-64709845D01*
X127118110Y-64588524D01*
X126970901Y-64633175D01*
X126708080Y-64758359D01*
X126474731Y-64932412D01*
X126279822Y-65148645D01*
X126210201Y-65265523D01*
X126175706Y-65200986D01*
X125990134Y-64974866D01*
X125764014Y-64789294D01*
X125506034Y-64651401D01*
X125226111Y-64566487D01*
X125007950Y-64545000D01*
X124862050Y-64545000D01*
X124643889Y-64566487D01*
X124363966Y-64651401D01*
X124105986Y-64789294D01*
X123879866Y-64974866D01*
X123694294Y-65200986D01*
X123556401Y-65458966D01*
X123471487Y-65738889D01*
X123442815Y-66030000D01*
X117211851Y-66030000D01*
X117326102Y-65968932D01*
X117544609Y-65789608D01*
X117723933Y-65571101D01*
X117745902Y-65530000D01*
X121732678Y-65530000D01*
X121770000Y-65533676D01*
X121807322Y-65530000D01*
X121807333Y-65530000D01*
X121918986Y-65519003D01*
X122062247Y-65475546D01*
X122194276Y-65404974D01*
X122310001Y-65310001D01*
X122333804Y-65280997D01*
X130531003Y-57083799D01*
X130560001Y-57060001D01*
X130586332Y-57027917D01*
X130654974Y-56944277D01*
X130678861Y-56899588D01*
X130765000Y-56908072D01*
X131815000Y-56908072D01*
X131939482Y-56895812D01*
X132059180Y-56859502D01*
X132169494Y-56800537D01*
X132266185Y-56721185D01*
X132345537Y-56624494D01*
X132404502Y-56514180D01*
X132440812Y-56394482D01*
X132453072Y-56270000D01*
X132453072Y-55880000D01*
X146769388Y-55880000D01*
X146791785Y-56107400D01*
X146855093Y-56316098D01*
X146820498Y-56380820D01*
X146784188Y-56500518D01*
X146771928Y-56625000D01*
X146771928Y-57675000D01*
X146784188Y-57799482D01*
X146820498Y-57919180D01*
X146879463Y-58029494D01*
X146958815Y-58126185D01*
X147055506Y-58205537D01*
X147165820Y-58264502D01*
X147285518Y-58300812D01*
X147410000Y-58313072D01*
X148910000Y-58313072D01*
X149034482Y-58300812D01*
X149154180Y-58264502D01*
X149264494Y-58205537D01*
X149361185Y-58126185D01*
X149440537Y-58029494D01*
X149499502Y-57919180D01*
X149535812Y-57799482D01*
X149548072Y-57675000D01*
X149548072Y-56625000D01*
X149535812Y-56500518D01*
X149499502Y-56380820D01*
X149464907Y-56316098D01*
X149528215Y-56107400D01*
X149550612Y-55880000D01*
X149528215Y-55652600D01*
X149461885Y-55433940D01*
X149361071Y-55245331D01*
X149402275Y-55186882D01*
X149495272Y-54977337D01*
X149503964Y-54915810D01*
X149378163Y-54737000D01*
X148613109Y-54737000D01*
X148612400Y-54736785D01*
X148441979Y-54720000D01*
X147878021Y-54720000D01*
X147707600Y-54736785D01*
X147706891Y-54737000D01*
X146941837Y-54737000D01*
X146816036Y-54915810D01*
X146824728Y-54977337D01*
X146917725Y-55186882D01*
X146958929Y-55245331D01*
X146858115Y-55433940D01*
X146791785Y-55652600D01*
X146769388Y-55880000D01*
X132453072Y-55880000D01*
X132453072Y-54770000D01*
X132440812Y-54645518D01*
X132404502Y-54525820D01*
X132345537Y-54415506D01*
X132266185Y-54318815D01*
X132248365Y-54304190D01*
X146816036Y-54304190D01*
X146941837Y-54483000D01*
X148033000Y-54483000D01*
X148033000Y-53603402D01*
X148287000Y-53603402D01*
X148287000Y-54483000D01*
X149378163Y-54483000D01*
X149503964Y-54304190D01*
X149495272Y-54242663D01*
X149402275Y-54033118D01*
X149270184Y-53845742D01*
X149104076Y-53687736D01*
X148910334Y-53565172D01*
X148696404Y-53482761D01*
X148470507Y-53443669D01*
X148287000Y-53603402D01*
X148033000Y-53603402D01*
X147849493Y-53443669D01*
X147623596Y-53482761D01*
X147409666Y-53565172D01*
X147215924Y-53687736D01*
X147049816Y-53845742D01*
X146917725Y-54033118D01*
X146824728Y-54242663D01*
X146816036Y-54304190D01*
X132248365Y-54304190D01*
X132169494Y-54239463D01*
X132059180Y-54180498D01*
X131939482Y-54144188D01*
X131815000Y-54131928D01*
X130765000Y-54131928D01*
X130640518Y-54144188D01*
X130520820Y-54180498D01*
X130456098Y-54215093D01*
X130247400Y-54151785D01*
X130020000Y-54129388D01*
X129792601Y-54151785D01*
X129573941Y-54218115D01*
X129385331Y-54318929D01*
X129326882Y-54277725D01*
X129117337Y-54184728D01*
X129055810Y-54176036D01*
X128877000Y-54301837D01*
X128877000Y-55066891D01*
X128876785Y-55067600D01*
X128860000Y-55238021D01*
X128860000Y-55667000D01*
X128623000Y-55667000D01*
X128623000Y-55647000D01*
X127743402Y-55647000D01*
X127583669Y-55830507D01*
X127622761Y-56056404D01*
X127705172Y-56270334D01*
X127827736Y-56464076D01*
X127985742Y-56630184D01*
X128173118Y-56762275D01*
X128382663Y-56855272D01*
X128444190Y-56863964D01*
X128622998Y-56738164D01*
X128622998Y-56842200D01*
X121455199Y-64010000D01*
X117745902Y-64010000D01*
X117723933Y-63968899D01*
X117544609Y-63750392D01*
X117326102Y-63571068D01*
X117193143Y-63500000D01*
X117326102Y-63428932D01*
X117544609Y-63249608D01*
X117723933Y-63031101D01*
X117857183Y-62781808D01*
X117939237Y-62511309D01*
X117966944Y-62230000D01*
X117939237Y-61948691D01*
X117857183Y-61678192D01*
X117723933Y-61428899D01*
X117544609Y-61210392D01*
X117326102Y-61031068D01*
X117076809Y-60897818D01*
X116806310Y-60815764D01*
X116595493Y-60795000D01*
X116454509Y-60795000D01*
X116243692Y-60815764D01*
X115973193Y-60897818D01*
X115723900Y-61031068D01*
X115505393Y-61210392D01*
X115326069Y-61428899D01*
X115192819Y-61678192D01*
X115110765Y-61948691D01*
X115083058Y-62230000D01*
X110343073Y-62230000D01*
X110343073Y-61430000D01*
X110330813Y-61305518D01*
X110294503Y-61185820D01*
X110235538Y-61075506D01*
X110156186Y-60978815D01*
X110059495Y-60899463D01*
X109949181Y-60840498D01*
X109829483Y-60804188D01*
X109705001Y-60791928D01*
X108105001Y-60791928D01*
X107980519Y-60804188D01*
X107860821Y-60840498D01*
X107750507Y-60899463D01*
X107653816Y-60978815D01*
X107574464Y-61075506D01*
X107515499Y-61185820D01*
X107479189Y-61305518D01*
X107466929Y-61430000D01*
X107466929Y-63030000D01*
X107479189Y-63154482D01*
X107515499Y-63274180D01*
X107574464Y-63384494D01*
X107653816Y-63481185D01*
X107750507Y-63560537D01*
X107860821Y-63619502D01*
X107980519Y-63655812D01*
X107998483Y-63657581D01*
X107885393Y-63750392D01*
X107706069Y-63968899D01*
X107572819Y-64218192D01*
X107490765Y-64488691D01*
X107463058Y-64770000D01*
X104545000Y-64770000D01*
X104545000Y-57455810D01*
X111001037Y-57455810D01*
X111009729Y-57517337D01*
X111102726Y-57726882D01*
X111234817Y-57914258D01*
X111400925Y-58072264D01*
X111594667Y-58194828D01*
X111808597Y-58277239D01*
X112034494Y-58316331D01*
X112218001Y-58156598D01*
X112218001Y-57277000D01*
X112472001Y-57277000D01*
X112472001Y-58156598D01*
X112655508Y-58316331D01*
X112881405Y-58277239D01*
X113095335Y-58194828D01*
X113289077Y-58072264D01*
X113455185Y-57914258D01*
X113587276Y-57726882D01*
X113680273Y-57517337D01*
X113688965Y-57455810D01*
X113563164Y-57277000D01*
X112472001Y-57277000D01*
X112218001Y-57277000D01*
X111126838Y-57277000D01*
X111001037Y-57455810D01*
X104545000Y-57455810D01*
X104545000Y-55880000D01*
X110954389Y-55880000D01*
X110976786Y-56107400D01*
X111043116Y-56326060D01*
X111143930Y-56514669D01*
X111102726Y-56573118D01*
X111009729Y-56782663D01*
X111001037Y-56844190D01*
X111126838Y-57023000D01*
X111891892Y-57023000D01*
X111892601Y-57023215D01*
X112063022Y-57040000D01*
X112626980Y-57040000D01*
X112797401Y-57023215D01*
X112798110Y-57023000D01*
X113563164Y-57023000D01*
X113688965Y-56844190D01*
X113680273Y-56782663D01*
X113587276Y-56573118D01*
X113546072Y-56514669D01*
X113646886Y-56326060D01*
X113713216Y-56107400D01*
X113735613Y-55880000D01*
X113713216Y-55652600D01*
X113649908Y-55443902D01*
X113684503Y-55379180D01*
X113720813Y-55259482D01*
X113725736Y-55209493D01*
X127583669Y-55209493D01*
X127743402Y-55393000D01*
X128623000Y-55393000D01*
X128623000Y-54301837D01*
X128444190Y-54176036D01*
X128382663Y-54184728D01*
X128173118Y-54277725D01*
X127985742Y-54409816D01*
X127827736Y-54575924D01*
X127705172Y-54769666D01*
X127622761Y-54983596D01*
X127583669Y-55209493D01*
X113725736Y-55209493D01*
X113733073Y-55135000D01*
X113733073Y-54085000D01*
X113720813Y-53960518D01*
X113684503Y-53840820D01*
X113625538Y-53730506D01*
X113546186Y-53633815D01*
X113449495Y-53554463D01*
X113339181Y-53495498D01*
X113219483Y-53459188D01*
X113095001Y-53446928D01*
X111595001Y-53446928D01*
X111470519Y-53459188D01*
X111350821Y-53495498D01*
X111240507Y-53554463D01*
X111143816Y-53633815D01*
X111064464Y-53730506D01*
X111005499Y-53840820D01*
X110969189Y-53960518D01*
X110956929Y-54085000D01*
X110956929Y-55135000D01*
X110969189Y-55259482D01*
X111005499Y-55379180D01*
X111040094Y-55443902D01*
X110976786Y-55652600D01*
X110954389Y-55880000D01*
X104545000Y-55880000D01*
X104545000Y-49530000D01*
X107453058Y-49530000D01*
X107480765Y-49811309D01*
X107562819Y-50081808D01*
X107696069Y-50331101D01*
X107875393Y-50549608D01*
X108093900Y-50728932D01*
X108343193Y-50862182D01*
X108613692Y-50944236D01*
X108824509Y-50965000D01*
X108965493Y-50965000D01*
X109176310Y-50944236D01*
X109446809Y-50862182D01*
X109696102Y-50728932D01*
X109914609Y-50549608D01*
X110093933Y-50331101D01*
X110227183Y-50081808D01*
X110309237Y-49811309D01*
X110336944Y-49530000D01*
X110323024Y-49388665D01*
X115080001Y-49388665D01*
X115080001Y-49671335D01*
X115135148Y-49948574D01*
X115243321Y-50209727D01*
X115400364Y-50444759D01*
X115600242Y-50644637D01*
X115835274Y-50801680D01*
X116096427Y-50909853D01*
X116373666Y-50965000D01*
X116656336Y-50965000D01*
X116933575Y-50909853D01*
X117194728Y-50801680D01*
X117429760Y-50644637D01*
X117629638Y-50444759D01*
X117786681Y-50209727D01*
X117894854Y-49948574D01*
X117950001Y-49671335D01*
X117950001Y-49388665D01*
X124775000Y-49388665D01*
X124775000Y-49671335D01*
X124830147Y-49948574D01*
X124938320Y-50209727D01*
X125095363Y-50444759D01*
X125295241Y-50644637D01*
X125530273Y-50801680D01*
X125791426Y-50909853D01*
X126068665Y-50965000D01*
X126351335Y-50965000D01*
X126628574Y-50909853D01*
X126889727Y-50801680D01*
X127124759Y-50644637D01*
X127324637Y-50444759D01*
X127481680Y-50209727D01*
X127589853Y-49948574D01*
X127645000Y-49671335D01*
X127645000Y-49530000D01*
X132388057Y-49530000D01*
X132415764Y-49811309D01*
X132497818Y-50081808D01*
X132631068Y-50331101D01*
X132810392Y-50549608D01*
X133028899Y-50728932D01*
X133278192Y-50862182D01*
X133548691Y-50944236D01*
X133759508Y-50965000D01*
X133900492Y-50965000D01*
X134111309Y-50944236D01*
X134381808Y-50862182D01*
X134631101Y-50728932D01*
X134849608Y-50549608D01*
X135028932Y-50331101D01*
X135162182Y-50081808D01*
X135244236Y-49811309D01*
X135271943Y-49530000D01*
X135258023Y-49388665D01*
X142555000Y-49388665D01*
X142555000Y-49671335D01*
X142610147Y-49948574D01*
X142718320Y-50209727D01*
X142875363Y-50444759D01*
X143075241Y-50644637D01*
X143310273Y-50801680D01*
X143571426Y-50909853D01*
X143848665Y-50965000D01*
X144131335Y-50965000D01*
X144408574Y-50909853D01*
X144669727Y-50801680D01*
X144904759Y-50644637D01*
X145104637Y-50444759D01*
X145261680Y-50209727D01*
X145369853Y-49948574D01*
X145425000Y-49671335D01*
X145425000Y-49530000D01*
X150168057Y-49530000D01*
X150195764Y-49811309D01*
X150277818Y-50081808D01*
X150411068Y-50331101D01*
X150590392Y-50549608D01*
X150808899Y-50728932D01*
X151058192Y-50862182D01*
X151328691Y-50944236D01*
X151539508Y-50965000D01*
X151680492Y-50965000D01*
X151891309Y-50944236D01*
X152161808Y-50862182D01*
X152411101Y-50728932D01*
X152629608Y-50549608D01*
X152808932Y-50331101D01*
X152942182Y-50081808D01*
X153024236Y-49811309D01*
X153051943Y-49530000D01*
X153024236Y-49248691D01*
X152942182Y-48978192D01*
X152808932Y-48728899D01*
X152629608Y-48510392D01*
X152411101Y-48331068D01*
X152161808Y-48197818D01*
X151891309Y-48115764D01*
X151680492Y-48095000D01*
X151539508Y-48095000D01*
X151328691Y-48115764D01*
X151058192Y-48197818D01*
X150808899Y-48331068D01*
X150590392Y-48510392D01*
X150411068Y-48728899D01*
X150277818Y-48978192D01*
X150195764Y-49248691D01*
X150168057Y-49530000D01*
X145425000Y-49530000D01*
X145425000Y-49388665D01*
X145369853Y-49111426D01*
X145261680Y-48850273D01*
X145104637Y-48615241D01*
X144904759Y-48415363D01*
X144669727Y-48258320D01*
X144408574Y-48150147D01*
X144131335Y-48095000D01*
X143848665Y-48095000D01*
X143571426Y-48150147D01*
X143310273Y-48258320D01*
X143075241Y-48415363D01*
X142875363Y-48615241D01*
X142718320Y-48850273D01*
X142610147Y-49111426D01*
X142555000Y-49388665D01*
X135258023Y-49388665D01*
X135244236Y-49248691D01*
X135162182Y-48978192D01*
X135028932Y-48728899D01*
X134849608Y-48510392D01*
X134631101Y-48331068D01*
X134381808Y-48197818D01*
X134111309Y-48115764D01*
X133900492Y-48095000D01*
X133759508Y-48095000D01*
X133548691Y-48115764D01*
X133278192Y-48197818D01*
X133028899Y-48331068D01*
X132810392Y-48510392D01*
X132631068Y-48728899D01*
X132497818Y-48978192D01*
X132415764Y-49248691D01*
X132388057Y-49530000D01*
X127645000Y-49530000D01*
X127645000Y-49388665D01*
X127589853Y-49111426D01*
X127481680Y-48850273D01*
X127324637Y-48615241D01*
X127124759Y-48415363D01*
X126889727Y-48258320D01*
X126628574Y-48150147D01*
X126351335Y-48095000D01*
X126068665Y-48095000D01*
X125791426Y-48150147D01*
X125530273Y-48258320D01*
X125295241Y-48415363D01*
X125095363Y-48615241D01*
X124938320Y-48850273D01*
X124830147Y-49111426D01*
X124775000Y-49388665D01*
X117950001Y-49388665D01*
X117894854Y-49111426D01*
X117786681Y-48850273D01*
X117629638Y-48615241D01*
X117429760Y-48415363D01*
X117194728Y-48258320D01*
X116933575Y-48150147D01*
X116656336Y-48095000D01*
X116373666Y-48095000D01*
X116096427Y-48150147D01*
X115835274Y-48258320D01*
X115600242Y-48415363D01*
X115400364Y-48615241D01*
X115243321Y-48850273D01*
X115135148Y-49111426D01*
X115080001Y-49388665D01*
X110323024Y-49388665D01*
X110309237Y-49248691D01*
X110227183Y-48978192D01*
X110093933Y-48728899D01*
X109914609Y-48510392D01*
X109696102Y-48331068D01*
X109446809Y-48197818D01*
X109176310Y-48115764D01*
X108965493Y-48095000D01*
X108824509Y-48095000D01*
X108613692Y-48115764D01*
X108343193Y-48197818D01*
X108093900Y-48331068D01*
X107875393Y-48510392D01*
X107696069Y-48728899D01*
X107562819Y-48978192D01*
X107480765Y-49248691D01*
X107453058Y-49530000D01*
X104545000Y-49530000D01*
X104545000Y-38439005D01*
X109962054Y-38439005D01*
X109962054Y-38726195D01*
X110018082Y-39007867D01*
X110127985Y-39273196D01*
X110287540Y-39511986D01*
X110490614Y-39715060D01*
X110729404Y-39874615D01*
X110994733Y-39984518D01*
X111276405Y-40040546D01*
X111563595Y-40040546D01*
X111845267Y-39984518D01*
X112110596Y-39874615D01*
X112349386Y-39715060D01*
X112552460Y-39511986D01*
X112712015Y-39273196D01*
X112821918Y-39007867D01*
X112877946Y-38726195D01*
X112877946Y-38439005D01*
X148452854Y-38439005D01*
X148452854Y-38726195D01*
X148508882Y-39007867D01*
X148618785Y-39273196D01*
X148778340Y-39511986D01*
X148981414Y-39715060D01*
X149220204Y-39874615D01*
X149485533Y-39984518D01*
X149767205Y-40040546D01*
X150054395Y-40040546D01*
X150336067Y-39984518D01*
X150601396Y-39874615D01*
X150840186Y-39715060D01*
X151043260Y-39511986D01*
X151202815Y-39273196D01*
X151312718Y-39007867D01*
X151368746Y-38726195D01*
X151368746Y-38439005D01*
X151312718Y-38157333D01*
X151202815Y-37892004D01*
X151043260Y-37653214D01*
X150840186Y-37450140D01*
X150601396Y-37290585D01*
X150336067Y-37180682D01*
X150054395Y-37124654D01*
X149767205Y-37124654D01*
X149485533Y-37180682D01*
X149220204Y-37290585D01*
X148981414Y-37450140D01*
X148778340Y-37653214D01*
X148618785Y-37892004D01*
X148508882Y-38157333D01*
X148452854Y-38439005D01*
X112877946Y-38439005D01*
X112821918Y-38157333D01*
X112712015Y-37892004D01*
X112552460Y-37653214D01*
X112349386Y-37450140D01*
X112110596Y-37290585D01*
X111845267Y-37180682D01*
X111563595Y-37124654D01*
X111276405Y-37124654D01*
X110994733Y-37180682D01*
X110729404Y-37290585D01*
X110490614Y-37450140D01*
X110287540Y-37653214D01*
X110127985Y-37892004D01*
X110018082Y-38157333D01*
X109962054Y-38439005D01*
X104545000Y-38439005D01*
X104545000Y-33760000D01*
X155965000Y-33760000D01*
X155965001Y-154045755D01*
X155965001Y-154045755D01*
G37*
X155965001Y-154045755D02*
X155952015Y-154014404D01*
X155792460Y-153775614D01*
X155589386Y-153572540D01*
X155350596Y-153412985D01*
X155085267Y-153303082D01*
X154803595Y-153247054D01*
X154516405Y-153247054D01*
X154234733Y-153303082D01*
X153969404Y-153412985D01*
X153730614Y-153572540D01*
X153527540Y-153775614D01*
X153367985Y-154014404D01*
X153258082Y-154279733D01*
X153202054Y-154561405D01*
X153202054Y-154848595D01*
X153258082Y-155130267D01*
X153367985Y-155395596D01*
X153527540Y-155634386D01*
X153730614Y-155837460D01*
X153969404Y-155997015D01*
X154000753Y-156010000D01*
X106509247Y-156010000D01*
X106540596Y-155997015D01*
X106779386Y-155837460D01*
X106982460Y-155634386D01*
X107142015Y-155395596D01*
X107251918Y-155130267D01*
X107307946Y-154848595D01*
X107307946Y-154561405D01*
X107251918Y-154279733D01*
X107142015Y-154014404D01*
X106982460Y-153775614D01*
X106779386Y-153572540D01*
X106540596Y-153412985D01*
X106275267Y-153303082D01*
X105993595Y-153247054D01*
X105706405Y-153247054D01*
X105424733Y-153303082D01*
X105159404Y-153412985D01*
X104920614Y-153572540D01*
X104717540Y-153775614D01*
X104557985Y-154014404D01*
X104545000Y-154045753D01*
X104545000Y-140579800D01*
X109441929Y-140579800D01*
X109441929Y-142329800D01*
X109454189Y-142454282D01*
X109490499Y-142573980D01*
X109549464Y-142684294D01*
X109628816Y-142780985D01*
X109725507Y-142860337D01*
X109835821Y-142919302D01*
X109955519Y-142955612D01*
X110080001Y-142967872D01*
X111830001Y-142967872D01*
X111954483Y-142955612D01*
X112074181Y-142919302D01*
X112184495Y-142860337D01*
X112281186Y-142780985D01*
X112360538Y-142684294D01*
X112419503Y-142573980D01*
X112455813Y-142454282D01*
X112468073Y-142329800D01*
X112468073Y-141306078D01*
X112945001Y-141306078D01*
X112945001Y-141603522D01*
X113003030Y-141895251D01*
X113116857Y-142170053D01*
X113282108Y-142417369D01*
X113492432Y-142627693D01*
X113739748Y-142792944D01*
X114014550Y-142906771D01*
X114306279Y-142964800D01*
X114603723Y-142964800D01*
X114895452Y-142906771D01*
X115170254Y-142792944D01*
X115417570Y-142627693D01*
X115627894Y-142417369D01*
X115793145Y-142170053D01*
X115906972Y-141895251D01*
X115965001Y-141603522D01*
X115965001Y-141306078D01*
X115906972Y-141014349D01*
X115793145Y-140739547D01*
X115686406Y-140579800D01*
X126756928Y-140579800D01*
X126756928Y-142329800D01*
X126769188Y-142454282D01*
X126805498Y-142573980D01*
X126864463Y-142684294D01*
X126943815Y-142780985D01*
X127040506Y-142860337D01*
X127150820Y-142919302D01*
X127270518Y-142955612D01*
X127395000Y-142967872D01*
X129145000Y-142967872D01*
X129269482Y-142955612D01*
X129389180Y-142919302D01*
X129499494Y-142860337D01*
X129596185Y-142780985D01*
X129675537Y-142684294D01*
X129734502Y-142573980D01*
X129770812Y-142454282D01*
X129783072Y-142329800D01*
X129783072Y-141306078D01*
X130260000Y-141306078D01*
X130260000Y-141603522D01*
X130318029Y-141895251D01*
X130431856Y-142170053D01*
X130597107Y-142417369D01*
X130807431Y-142627693D01*
X131054747Y-142792944D01*
X131329549Y-142906771D01*
X131621278Y-142964800D01*
X131918722Y-142964800D01*
X132210451Y-142906771D01*
X132485253Y-142792944D01*
X132732569Y-142627693D01*
X132942893Y-142417369D01*
X133108144Y-142170053D01*
X133221971Y-141895251D01*
X133280000Y-141603522D01*
X133280000Y-141306078D01*
X133221971Y-141014349D01*
X133108144Y-140739547D01*
X133001405Y-140579800D01*
X144536928Y-140579800D01*
X144536928Y-142329800D01*
X144549188Y-142454282D01*
X144585498Y-142573980D01*
X144644463Y-142684294D01*
X144723815Y-142780985D01*
X144820506Y-142860337D01*
X144930820Y-142919302D01*
X145050518Y-142955612D01*
X145175000Y-142967872D01*
X146925000Y-142967872D01*
X147049482Y-142955612D01*
X147169180Y-142919302D01*
X147279494Y-142860337D01*
X147376185Y-142780985D01*
X147455537Y-142684294D01*
X147514502Y-142573980D01*
X147550812Y-142454282D01*
X147563072Y-142329800D01*
X147563072Y-140579800D01*
X147550812Y-140455318D01*
X147514502Y-140335620D01*
X147455537Y-140225306D01*
X147376185Y-140128615D01*
X147279494Y-140049263D01*
X147169180Y-139990298D01*
X147049482Y-139953988D01*
X146925000Y-139941728D01*
X145175000Y-139941728D01*
X145050518Y-139953988D01*
X144930820Y-139990298D01*
X144820506Y-140049263D01*
X144723815Y-140128615D01*
X144644463Y-140225306D01*
X144585498Y-140335620D01*
X144549188Y-140455318D01*
X144536928Y-140579800D01*
X133001405Y-140579800D01*
X132942893Y-140492231D01*
X132732569Y-140281907D01*
X132485253Y-140116656D01*
X132210451Y-140002829D01*
X131918722Y-139944800D01*
X131621278Y-139944800D01*
X131329549Y-140002829D01*
X131054747Y-140116656D01*
X130807431Y-140281907D01*
X130597107Y-140492231D01*
X130431856Y-140739547D01*
X130318029Y-141014349D01*
X130260000Y-141306078D01*
X129783072Y-141306078D01*
X129783072Y-140579800D01*
X129770812Y-140455318D01*
X129734502Y-140335620D01*
X129675537Y-140225306D01*
X129596185Y-140128615D01*
X129499494Y-140049263D01*
X129389180Y-139990298D01*
X129269482Y-139953988D01*
X129145000Y-139941728D01*
X127395000Y-139941728D01*
X127270518Y-139953988D01*
X127150820Y-139990298D01*
X127040506Y-140049263D01*
X126943815Y-140128615D01*
X126864463Y-140225306D01*
X126805498Y-140335620D01*
X126769188Y-140455318D01*
X126756928Y-140579800D01*
X115686406Y-140579800D01*
X115627894Y-140492231D01*
X115417570Y-140281907D01*
X115170254Y-140116656D01*
X114895452Y-140002829D01*
X114603723Y-139944800D01*
X114306279Y-139944800D01*
X114014550Y-140002829D01*
X113739748Y-140116656D01*
X113492432Y-140281907D01*
X113282108Y-140492231D01*
X113116857Y-140739547D01*
X113003030Y-141014349D01*
X112945001Y-141306078D01*
X112468073Y-141306078D01*
X112468073Y-140579800D01*
X112455813Y-140455318D01*
X112419503Y-140335620D01*
X112360538Y-140225306D01*
X112281186Y-140128615D01*
X112184495Y-140049263D01*
X112074181Y-139990298D01*
X111954483Y-139953988D01*
X111830001Y-139941728D01*
X110080001Y-139941728D01*
X109955519Y-139953988D01*
X109835821Y-139990298D01*
X109725507Y-140049263D01*
X109628816Y-140128615D01*
X109549464Y-140225306D01*
X109490499Y-140335620D01*
X109454189Y-140455318D01*
X109441929Y-140579800D01*
X104545000Y-140579800D01*
X104545000Y-135909295D01*
X106520001Y-135909295D01*
X106520001Y-136300305D01*
X106596283Y-136683803D01*
X106745916Y-137045050D01*
X106963150Y-137370164D01*
X107239637Y-137646651D01*
X107564751Y-137863885D01*
X107925998Y-138013518D01*
X108309496Y-138089800D01*
X108700506Y-138089800D01*
X109084004Y-138013518D01*
X109445251Y-137863885D01*
X109770365Y-137646651D01*
X110046852Y-137370164D01*
X110221158Y-137109295D01*
X114920001Y-137109295D01*
X114920001Y-137500305D01*
X114996283Y-137883803D01*
X115145916Y-138245050D01*
X115363150Y-138570164D01*
X115639637Y-138846651D01*
X115964751Y-139063885D01*
X116325998Y-139213518D01*
X116709496Y-139289800D01*
X117100506Y-139289800D01*
X117484004Y-139213518D01*
X117845251Y-139063885D01*
X118170365Y-138846651D01*
X118446852Y-138570164D01*
X118664086Y-138245050D01*
X118813719Y-137883803D01*
X118890001Y-137500305D01*
X118890001Y-137109295D01*
X118813719Y-136725797D01*
X118664086Y-136364550D01*
X118446852Y-136039436D01*
X118316711Y-135909295D01*
X123835000Y-135909295D01*
X123835000Y-136300305D01*
X123911282Y-136683803D01*
X124060915Y-137045050D01*
X124278149Y-137370164D01*
X124554636Y-137646651D01*
X124879750Y-137863885D01*
X125240997Y-138013518D01*
X125624495Y-138089800D01*
X126015505Y-138089800D01*
X126399003Y-138013518D01*
X126760250Y-137863885D01*
X127085364Y-137646651D01*
X127361851Y-137370164D01*
X127536157Y-137109295D01*
X132235000Y-137109295D01*
X132235000Y-137500305D01*
X132311282Y-137883803D01*
X132460915Y-138245050D01*
X132678149Y-138570164D01*
X132954636Y-138846651D01*
X133279750Y-139063885D01*
X133640997Y-139213518D01*
X134024495Y-139289800D01*
X134415505Y-139289800D01*
X134799003Y-139213518D01*
X135160250Y-139063885D01*
X135485364Y-138846651D01*
X135761851Y-138570164D01*
X135979085Y-138245050D01*
X136128718Y-137883803D01*
X136205000Y-137500305D01*
X136205000Y-137109295D01*
X136128718Y-136725797D01*
X135979085Y-136364550D01*
X135761851Y-136039436D01*
X135631710Y-135909295D01*
X141615000Y-135909295D01*
X141615000Y-136300305D01*
X141691282Y-136683803D01*
X141840915Y-137045050D01*
X142058149Y-137370164D01*
X142334636Y-137646651D01*
X142659750Y-137863885D01*
X143020997Y-138013518D01*
X143404495Y-138089800D01*
X143795505Y-138089800D01*
X144179003Y-138013518D01*
X144540250Y-137863885D01*
X144865364Y-137646651D01*
X145141851Y-137370164D01*
X145359085Y-137045050D01*
X145508718Y-136683803D01*
X145585000Y-136300305D01*
X145585000Y-135909295D01*
X145508718Y-135525797D01*
X145359085Y-135164550D01*
X145141851Y-134839436D01*
X144865364Y-134562949D01*
X144540250Y-134345715D01*
X144179003Y-134196082D01*
X143795505Y-134119800D01*
X143404495Y-134119800D01*
X143020997Y-134196082D01*
X142659750Y-134345715D01*
X142334636Y-134562949D01*
X142058149Y-134839436D01*
X141840915Y-135164550D01*
X141691282Y-135525797D01*
X141615000Y-135909295D01*
X135631710Y-135909295D01*
X135485364Y-135762949D01*
X135160250Y-135545715D01*
X134799003Y-135396082D01*
X134415505Y-135319800D01*
X134024495Y-135319800D01*
X133640997Y-135396082D01*
X133279750Y-135545715D01*
X132954636Y-135762949D01*
X132678149Y-136039436D01*
X132460915Y-136364550D01*
X132311282Y-136725797D01*
X132235000Y-137109295D01*
X127536157Y-137109295D01*
X127579085Y-137045050D01*
X127728718Y-136683803D01*
X127805000Y-136300305D01*
X127805000Y-135909295D01*
X127728718Y-135525797D01*
X127579085Y-135164550D01*
X127361851Y-134839436D01*
X127085364Y-134562949D01*
X126760250Y-134345715D01*
X126399003Y-134196082D01*
X126015505Y-134119800D01*
X125624495Y-134119800D01*
X125240997Y-134196082D01*
X124879750Y-134345715D01*
X124554636Y-134562949D01*
X124278149Y-134839436D01*
X124060915Y-135164550D01*
X123911282Y-135525797D01*
X123835000Y-135909295D01*
X118316711Y-135909295D01*
X118170365Y-135762949D01*
X117845251Y-135545715D01*
X117484004Y-135396082D01*
X117100506Y-135319800D01*
X116709496Y-135319800D01*
X116325998Y-135396082D01*
X115964751Y-135545715D01*
X115639637Y-135762949D01*
X115363150Y-136039436D01*
X115145916Y-136364550D01*
X114996283Y-136725797D01*
X114920001Y-137109295D01*
X110221158Y-137109295D01*
X110264086Y-137045050D01*
X110413719Y-136683803D01*
X110490001Y-136300305D01*
X110490001Y-135909295D01*
X110413719Y-135525797D01*
X110264086Y-135164550D01*
X110046852Y-134839436D01*
X109770365Y-134562949D01*
X109445251Y-134345715D01*
X109084004Y-134196082D01*
X108700506Y-134119800D01*
X108309496Y-134119800D01*
X107925998Y-134196082D01*
X107564751Y-134345715D01*
X107239637Y-134562949D01*
X106963150Y-134839436D01*
X106745916Y-135164550D01*
X106596283Y-135525797D01*
X106520001Y-135909295D01*
X104545000Y-135909295D01*
X104545000Y-88109295D01*
X106520001Y-88109295D01*
X106520001Y-88500305D01*
X106596283Y-88883803D01*
X106745916Y-89245050D01*
X106963150Y-89570164D01*
X107239637Y-89846651D01*
X107564751Y-90063885D01*
X107925998Y-90213518D01*
X108309496Y-90289800D01*
X108700506Y-90289800D01*
X109084004Y-90213518D01*
X109445251Y-90063885D01*
X109770365Y-89846651D01*
X110046852Y-89570164D01*
X110264086Y-89245050D01*
X110413719Y-88883803D01*
X110490001Y-88500305D01*
X110490001Y-88109295D01*
X110413719Y-87725797D01*
X110264086Y-87364550D01*
X110046852Y-87039436D01*
X109916711Y-86909295D01*
X114920001Y-86909295D01*
X114920001Y-87300305D01*
X114996283Y-87683803D01*
X115145916Y-88045050D01*
X115363150Y-88370164D01*
X115639637Y-88646651D01*
X115964751Y-88863885D01*
X116325998Y-89013518D01*
X116709496Y-89089800D01*
X117100506Y-89089800D01*
X117484004Y-89013518D01*
X117845251Y-88863885D01*
X118170365Y-88646651D01*
X118446852Y-88370164D01*
X118621158Y-88109295D01*
X123835000Y-88109295D01*
X123835000Y-88500305D01*
X123911282Y-88883803D01*
X124060915Y-89245050D01*
X124278149Y-89570164D01*
X124554636Y-89846651D01*
X124879750Y-90063885D01*
X125240997Y-90213518D01*
X125624495Y-90289800D01*
X126015505Y-90289800D01*
X126399003Y-90213518D01*
X126760250Y-90063885D01*
X127085364Y-89846651D01*
X127361851Y-89570164D01*
X127579085Y-89245050D01*
X127728718Y-88883803D01*
X127805000Y-88500305D01*
X127805000Y-88109295D01*
X127728718Y-87725797D01*
X127579085Y-87364550D01*
X127361851Y-87039436D01*
X127231710Y-86909295D01*
X132235000Y-86909295D01*
X132235000Y-87300305D01*
X132311282Y-87683803D01*
X132460915Y-88045050D01*
X132678149Y-88370164D01*
X132954636Y-88646651D01*
X133279750Y-88863885D01*
X133640997Y-89013518D01*
X134024495Y-89089800D01*
X134415505Y-89089800D01*
X134799003Y-89013518D01*
X135160250Y-88863885D01*
X135485364Y-88646651D01*
X135761851Y-88370164D01*
X135979085Y-88045050D01*
X136128718Y-87683803D01*
X136205000Y-87300305D01*
X136205000Y-86909295D01*
X136128718Y-86525797D01*
X135979085Y-86164550D01*
X135761851Y-85839436D01*
X135485364Y-85562949D01*
X135160250Y-85345715D01*
X134799003Y-85196082D01*
X134415505Y-85119800D01*
X134024495Y-85119800D01*
X133640997Y-85196082D01*
X133279750Y-85345715D01*
X132954636Y-85562949D01*
X132678149Y-85839436D01*
X132460915Y-86164550D01*
X132311282Y-86525797D01*
X132235000Y-86909295D01*
X127231710Y-86909295D01*
X127085364Y-86762949D01*
X126760250Y-86545715D01*
X126399003Y-86396082D01*
X126015505Y-86319800D01*
X125624495Y-86319800D01*
X125240997Y-86396082D01*
X124879750Y-86545715D01*
X124554636Y-86762949D01*
X124278149Y-87039436D01*
X124060915Y-87364550D01*
X123911282Y-87725797D01*
X123835000Y-88109295D01*
X118621158Y-88109295D01*
X118664086Y-88045050D01*
X118813719Y-87683803D01*
X118890001Y-87300305D01*
X118890001Y-86909295D01*
X118813719Y-86525797D01*
X118664086Y-86164550D01*
X118446852Y-85839436D01*
X118170365Y-85562949D01*
X117845251Y-85345715D01*
X117484004Y-85196082D01*
X117100506Y-85119800D01*
X116709496Y-85119800D01*
X116325998Y-85196082D01*
X115964751Y-85345715D01*
X115639637Y-85562949D01*
X115363150Y-85839436D01*
X115145916Y-86164550D01*
X114996283Y-86525797D01*
X114920001Y-86909295D01*
X109916711Y-86909295D01*
X109770365Y-86762949D01*
X109445251Y-86545715D01*
X109084004Y-86396082D01*
X108700506Y-86319800D01*
X108309496Y-86319800D01*
X107925998Y-86396082D01*
X107564751Y-86545715D01*
X107239637Y-86762949D01*
X106963150Y-87039436D01*
X106745916Y-87364550D01*
X106596283Y-87725797D01*
X106520001Y-88109295D01*
X104545000Y-88109295D01*
X104545000Y-84001040D01*
X110088366Y-84001040D01*
X110169026Y-84252668D01*
X110437330Y-84381067D01*
X110725527Y-84454655D01*
X111022544Y-84470604D01*
X111316964Y-84428301D01*
X111597475Y-84329372D01*
X111740976Y-84252668D01*
X111821636Y-84001040D01*
X127403365Y-84001040D01*
X127484025Y-84252668D01*
X127752329Y-84381067D01*
X128040526Y-84454655D01*
X128337543Y-84470604D01*
X128631963Y-84428301D01*
X128912474Y-84329372D01*
X129055975Y-84252668D01*
X129136635Y-84001040D01*
X128270000Y-83134405D01*
X127403365Y-84001040D01*
X111821636Y-84001040D01*
X110955001Y-83134405D01*
X110088366Y-84001040D01*
X104545000Y-84001040D01*
X104545000Y-83022343D01*
X109439197Y-83022343D01*
X109481500Y-83316763D01*
X109580429Y-83597274D01*
X109657133Y-83740775D01*
X109908761Y-83821435D01*
X110775396Y-82954800D01*
X111134606Y-82954800D01*
X112001241Y-83821435D01*
X112252869Y-83740775D01*
X112381268Y-83472471D01*
X112454856Y-83184274D01*
X112463551Y-83022343D01*
X126754196Y-83022343D01*
X126796499Y-83316763D01*
X126895428Y-83597274D01*
X126972132Y-83740775D01*
X127223760Y-83821435D01*
X128090395Y-82954800D01*
X128449605Y-82954800D01*
X129316240Y-83821435D01*
X129567868Y-83740775D01*
X129696267Y-83472471D01*
X129769855Y-83184274D01*
X129785804Y-82887257D01*
X129743501Y-82592837D01*
X129644572Y-82312326D01*
X129567868Y-82168825D01*
X129316240Y-82088165D01*
X128449605Y-82954800D01*
X128090395Y-82954800D01*
X127223760Y-82088165D01*
X126972132Y-82168825D01*
X126843733Y-82437129D01*
X126770145Y-82725326D01*
X126754196Y-83022343D01*
X112463551Y-83022343D01*
X112470805Y-82887257D01*
X112428502Y-82592837D01*
X112329573Y-82312326D01*
X112252869Y-82168825D01*
X112001241Y-82088165D01*
X111134606Y-82954800D01*
X110775396Y-82954800D01*
X109908761Y-82088165D01*
X109657133Y-82168825D01*
X109528734Y-82437129D01*
X109455146Y-82725326D01*
X109439197Y-83022343D01*
X104545000Y-83022343D01*
X104545000Y-81908560D01*
X110088366Y-81908560D01*
X110955001Y-82775195D01*
X111821636Y-81908560D01*
X127403365Y-81908560D01*
X128270000Y-82775195D01*
X129136635Y-81908560D01*
X129055975Y-81656932D01*
X128787671Y-81528533D01*
X128499474Y-81454945D01*
X128202457Y-81438996D01*
X127908037Y-81481299D01*
X127627526Y-81580228D01*
X127484025Y-81656932D01*
X127403365Y-81908560D01*
X111821636Y-81908560D01*
X111740976Y-81656932D01*
X111472672Y-81528533D01*
X111184475Y-81454945D01*
X110887458Y-81438996D01*
X110593038Y-81481299D01*
X110312527Y-81580228D01*
X110169026Y-81656932D01*
X110088366Y-81908560D01*
X104545000Y-81908560D01*
X104545000Y-76058665D01*
X107460001Y-76058665D01*
X107460001Y-76341335D01*
X107515148Y-76618574D01*
X107623321Y-76879727D01*
X107780364Y-77114759D01*
X107980242Y-77314637D01*
X108215274Y-77471680D01*
X108476427Y-77579853D01*
X108753666Y-77635000D01*
X109036336Y-77635000D01*
X109313575Y-77579853D01*
X109574728Y-77471680D01*
X109809760Y-77314637D01*
X110009638Y-77114759D01*
X110166681Y-76879727D01*
X110274854Y-76618574D01*
X110330001Y-76341335D01*
X110330001Y-76200000D01*
X115073058Y-76200000D01*
X115100765Y-76481309D01*
X115182819Y-76751808D01*
X115316069Y-77001101D01*
X115495393Y-77219608D01*
X115713900Y-77398932D01*
X115963193Y-77532182D01*
X116233692Y-77614236D01*
X116444509Y-77635000D01*
X116585493Y-77635000D01*
X116796310Y-77614236D01*
X117066809Y-77532182D01*
X117316102Y-77398932D01*
X117534609Y-77219608D01*
X117713933Y-77001101D01*
X117847183Y-76751808D01*
X117929237Y-76481309D01*
X117956944Y-76200000D01*
X117943024Y-76058665D01*
X124775000Y-76058665D01*
X124775000Y-76341335D01*
X124830147Y-76618574D01*
X124938320Y-76879727D01*
X125095363Y-77114759D01*
X125295241Y-77314637D01*
X125530273Y-77471680D01*
X125791426Y-77579853D01*
X126068665Y-77635000D01*
X126351335Y-77635000D01*
X126628574Y-77579853D01*
X126889727Y-77471680D01*
X127124759Y-77314637D01*
X127324637Y-77114759D01*
X127481680Y-76879727D01*
X127589853Y-76618574D01*
X127645000Y-76341335D01*
X127645000Y-76200000D01*
X132388057Y-76200000D01*
X132415764Y-76481309D01*
X132497818Y-76751808D01*
X132631068Y-77001101D01*
X132810392Y-77219608D01*
X133028899Y-77398932D01*
X133278192Y-77532182D01*
X133548691Y-77614236D01*
X133759508Y-77635000D01*
X133900492Y-77635000D01*
X134111309Y-77614236D01*
X134381808Y-77532182D01*
X134631101Y-77398932D01*
X134849608Y-77219608D01*
X135028932Y-77001101D01*
X135162182Y-76751808D01*
X135244236Y-76481309D01*
X135271943Y-76200000D01*
X135244236Y-75918691D01*
X135162182Y-75648192D01*
X135028932Y-75398899D01*
X134849608Y-75180392D01*
X134631101Y-75001068D01*
X134381808Y-74867818D01*
X134111309Y-74785764D01*
X133900492Y-74765000D01*
X133759508Y-74765000D01*
X133548691Y-74785764D01*
X133278192Y-74867818D01*
X133028899Y-75001068D01*
X132810392Y-75180392D01*
X132631068Y-75398899D01*
X132497818Y-75648192D01*
X132415764Y-75918691D01*
X132388057Y-76200000D01*
X127645000Y-76200000D01*
X127645000Y-76058665D01*
X127589853Y-75781426D01*
X127481680Y-75520273D01*
X127324637Y-75285241D01*
X127124759Y-75085363D01*
X126889727Y-74928320D01*
X126628574Y-74820147D01*
X126351335Y-74765000D01*
X126068665Y-74765000D01*
X125791426Y-74820147D01*
X125530273Y-74928320D01*
X125295241Y-75085363D01*
X125095363Y-75285241D01*
X124938320Y-75520273D01*
X124830147Y-75781426D01*
X124775000Y-76058665D01*
X117943024Y-76058665D01*
X117929237Y-75918691D01*
X117847183Y-75648192D01*
X117713933Y-75398899D01*
X117534609Y-75180392D01*
X117316102Y-75001068D01*
X117066809Y-74867818D01*
X116796310Y-74785764D01*
X116585493Y-74765000D01*
X116444509Y-74765000D01*
X116233692Y-74785764D01*
X115963193Y-74867818D01*
X115713900Y-75001068D01*
X115495393Y-75180392D01*
X115316069Y-75398899D01*
X115182819Y-75648192D01*
X115100765Y-75918691D01*
X115073058Y-76200000D01*
X110330001Y-76200000D01*
X110330001Y-76058665D01*
X110274854Y-75781426D01*
X110166681Y-75520273D01*
X110009638Y-75285241D01*
X109809760Y-75085363D01*
X109574728Y-74928320D01*
X109313575Y-74820147D01*
X109036336Y-74765000D01*
X108753666Y-74765000D01*
X108476427Y-74820147D01*
X108215274Y-74928320D01*
X107980242Y-75085363D01*
X107780364Y-75285241D01*
X107623321Y-75520273D01*
X107515148Y-75781426D01*
X107460001Y-76058665D01*
X104545000Y-76058665D01*
X104545000Y-70199039D01*
X107513097Y-70199039D01*
X107553755Y-70333087D01*
X107673964Y-70587420D01*
X107841482Y-70813414D01*
X108049870Y-71002385D01*
X108291120Y-71147070D01*
X108555961Y-71241909D01*
X108778001Y-71120624D01*
X108778001Y-69977000D01*
X109032001Y-69977000D01*
X109032001Y-71120624D01*
X109254041Y-71241909D01*
X109518882Y-71147070D01*
X109760132Y-71002385D01*
X109968520Y-70813414D01*
X110136038Y-70587420D01*
X110256247Y-70333087D01*
X110296905Y-70199039D01*
X110174916Y-69977000D01*
X109032001Y-69977000D01*
X108778001Y-69977000D01*
X107635086Y-69977000D01*
X107513097Y-70199039D01*
X104545000Y-70199039D01*
X104545000Y-64770000D01*
X107463058Y-64770000D01*
X107490765Y-65051309D01*
X107572819Y-65321808D01*
X107706069Y-65571101D01*
X107885393Y-65789608D01*
X108103900Y-65968932D01*
X108236859Y-66040000D01*
X108103900Y-66111068D01*
X107885393Y-66290392D01*
X107706069Y-66508899D01*
X107572819Y-66758192D01*
X107490765Y-67028691D01*
X107463058Y-67310000D01*
X107490765Y-67591309D01*
X107572819Y-67861808D01*
X107706069Y-68111101D01*
X107885393Y-68329608D01*
X108103900Y-68508932D01*
X108241683Y-68582579D01*
X108049870Y-68697615D01*
X107841482Y-68886586D01*
X107673964Y-69112580D01*
X107553755Y-69366913D01*
X107513097Y-69500961D01*
X107635086Y-69723000D01*
X108778001Y-69723000D01*
X108778001Y-69703000D01*
X109032001Y-69703000D01*
X109032001Y-69723000D01*
X110174916Y-69723000D01*
X110296905Y-69500961D01*
X110256247Y-69366913D01*
X110136038Y-69112580D01*
X109968520Y-68886586D01*
X109760132Y-68697615D01*
X109568319Y-68582579D01*
X109706102Y-68508932D01*
X109924609Y-68329608D01*
X110103933Y-68111101D01*
X110237183Y-67861808D01*
X110319237Y-67591309D01*
X110346944Y-67310000D01*
X110319237Y-67028691D01*
X110237183Y-66758192D01*
X110103933Y-66508899D01*
X109924609Y-66290392D01*
X109706102Y-66111068D01*
X109573143Y-66040000D01*
X109706102Y-65968932D01*
X109924609Y-65789608D01*
X110103933Y-65571101D01*
X110237183Y-65321808D01*
X110319237Y-65051309D01*
X110346944Y-64770000D01*
X110319237Y-64488691D01*
X110237183Y-64218192D01*
X110103933Y-63968899D01*
X109924609Y-63750392D01*
X109811519Y-63657581D01*
X109829483Y-63655812D01*
X109949181Y-63619502D01*
X110059495Y-63560537D01*
X110156186Y-63481185D01*
X110235538Y-63384494D01*
X110294503Y-63274180D01*
X110330813Y-63154482D01*
X110343073Y-63030000D01*
X110343073Y-62230000D01*
X115083058Y-62230000D01*
X115110765Y-62511309D01*
X115192819Y-62781808D01*
X115326069Y-63031101D01*
X115505393Y-63249608D01*
X115723900Y-63428932D01*
X115856859Y-63500000D01*
X115723900Y-63571068D01*
X115505393Y-63750392D01*
X115326069Y-63968899D01*
X115192819Y-64218192D01*
X115110765Y-64488691D01*
X115083058Y-64770000D01*
X115110765Y-65051309D01*
X115192819Y-65321808D01*
X115326069Y-65571101D01*
X115505393Y-65789608D01*
X115723900Y-65968932D01*
X115856859Y-66040000D01*
X115723900Y-66111068D01*
X115505393Y-66290392D01*
X115326069Y-66508899D01*
X115192819Y-66758192D01*
X115110765Y-67028691D01*
X115083058Y-67310000D01*
X115110765Y-67591309D01*
X115192819Y-67861808D01*
X115326069Y-68111101D01*
X115505393Y-68329608D01*
X115723900Y-68508932D01*
X115856859Y-68580000D01*
X115723900Y-68651068D01*
X115505393Y-68830392D01*
X115326069Y-69048899D01*
X115192819Y-69298192D01*
X115110765Y-69568691D01*
X115083058Y-69850000D01*
X115110765Y-70131309D01*
X115192819Y-70401808D01*
X115326069Y-70651101D01*
X115505393Y-70869608D01*
X115723900Y-71048932D01*
X115973193Y-71182182D01*
X116243692Y-71264236D01*
X116454509Y-71285000D01*
X116595493Y-71285000D01*
X116806310Y-71264236D01*
X117076809Y-71182182D01*
X117326102Y-71048932D01*
X117544609Y-70869608D01*
X117723933Y-70651101D01*
X117745902Y-70610000D01*
X128697678Y-70610000D01*
X128735000Y-70613676D01*
X128772322Y-70610000D01*
X128772333Y-70610000D01*
X128883986Y-70599003D01*
X129027247Y-70555546D01*
X129159276Y-70484974D01*
X129275001Y-70390001D01*
X129298804Y-70360997D01*
X131974101Y-67685700D01*
X140320624Y-67685700D01*
X140324300Y-67723022D01*
X140324301Y-128830769D01*
X140320624Y-128868102D01*
X140335298Y-129017087D01*
X140378754Y-129160348D01*
X140449326Y-129292378D01*
X140520501Y-129379104D01*
X140544300Y-129408103D01*
X140573298Y-129431901D01*
X148790000Y-137648604D01*
X148790001Y-140146554D01*
X148587431Y-140281907D01*
X148377107Y-140492231D01*
X148211856Y-140739547D01*
X148098029Y-141014349D01*
X148040000Y-141306078D01*
X148040000Y-141603522D01*
X148098029Y-141895251D01*
X148211856Y-142170053D01*
X148377107Y-142417369D01*
X148587431Y-142627693D01*
X148834747Y-142792944D01*
X149109549Y-142906771D01*
X149401278Y-142964800D01*
X149698722Y-142964800D01*
X149990451Y-142906771D01*
X150265253Y-142792944D01*
X150512569Y-142627693D01*
X150722893Y-142417369D01*
X150888144Y-142170053D01*
X151001971Y-141895251D01*
X151060000Y-141603522D01*
X151060000Y-141306078D01*
X151001971Y-141014349D01*
X150888144Y-140739547D01*
X150722893Y-140492231D01*
X150512569Y-140281907D01*
X150310000Y-140146555D01*
X150310000Y-138348443D01*
X150458149Y-138570164D01*
X150734636Y-138846651D01*
X151059750Y-139063885D01*
X151420997Y-139213518D01*
X151804495Y-139289800D01*
X152195505Y-139289800D01*
X152579003Y-139213518D01*
X152940250Y-139063885D01*
X153265364Y-138846651D01*
X153541851Y-138570164D01*
X153759085Y-138245050D01*
X153908718Y-137883803D01*
X153985000Y-137500305D01*
X153985000Y-137109295D01*
X153908718Y-136725797D01*
X153759085Y-136364550D01*
X153541851Y-136039436D01*
X153265364Y-135762949D01*
X152940250Y-135545715D01*
X152579003Y-135396082D01*
X152195505Y-135319800D01*
X151804495Y-135319800D01*
X151420997Y-135396082D01*
X151059750Y-135545715D01*
X150734636Y-135762949D01*
X150458149Y-136039436D01*
X150240915Y-136364550D01*
X150091282Y-136725797D01*
X150079474Y-136785162D01*
X150061004Y-136770004D01*
X141844300Y-128553301D01*
X141844300Y-89250116D01*
X142058149Y-89570164D01*
X142334636Y-89846651D01*
X142659750Y-90063885D01*
X143020997Y-90213518D01*
X143404495Y-90289800D01*
X143795505Y-90289800D01*
X144179003Y-90213518D01*
X144540250Y-90063885D01*
X144865364Y-89846651D01*
X145141851Y-89570164D01*
X145359085Y-89245050D01*
X145508718Y-88883803D01*
X145585000Y-88500305D01*
X145585000Y-88109295D01*
X145508718Y-87725797D01*
X145359085Y-87364550D01*
X145141851Y-87039436D01*
X145011710Y-86909295D01*
X150015000Y-86909295D01*
X150015000Y-87300305D01*
X150091282Y-87683803D01*
X150240915Y-88045050D01*
X150458149Y-88370164D01*
X150734636Y-88646651D01*
X151059750Y-88863885D01*
X151420997Y-89013518D01*
X151804495Y-89089800D01*
X152195505Y-89089800D01*
X152579003Y-89013518D01*
X152940250Y-88863885D01*
X153265364Y-88646651D01*
X153541851Y-88370164D01*
X153759085Y-88045050D01*
X153908718Y-87683803D01*
X153985000Y-87300305D01*
X153985000Y-86909295D01*
X153908718Y-86525797D01*
X153759085Y-86164550D01*
X153541851Y-85839436D01*
X153265364Y-85562949D01*
X152940250Y-85345715D01*
X152579003Y-85196082D01*
X152195505Y-85119800D01*
X151804495Y-85119800D01*
X151420997Y-85196082D01*
X151059750Y-85345715D01*
X150734636Y-85562949D01*
X150458149Y-85839436D01*
X150240915Y-86164550D01*
X150091282Y-86525797D01*
X150015000Y-86909295D01*
X145011710Y-86909295D01*
X144865364Y-86762949D01*
X144540250Y-86545715D01*
X144179003Y-86396082D01*
X143795505Y-86319800D01*
X143404495Y-86319800D01*
X143020997Y-86396082D01*
X142659750Y-86545715D01*
X142334636Y-86762949D01*
X142058149Y-87039436D01*
X141844300Y-87359484D01*
X141844300Y-84001040D01*
X145183365Y-84001040D01*
X145264025Y-84252668D01*
X145532329Y-84381067D01*
X145820526Y-84454655D01*
X146117543Y-84470604D01*
X146411963Y-84428301D01*
X146692474Y-84329372D01*
X146835975Y-84252668D01*
X146916635Y-84001040D01*
X146050000Y-83134405D01*
X145183365Y-84001040D01*
X141844300Y-84001040D01*
X141844300Y-83022343D01*
X144534196Y-83022343D01*
X144576499Y-83316763D01*
X144675428Y-83597274D01*
X144752132Y-83740775D01*
X145003760Y-83821435D01*
X145870395Y-82954800D01*
X146229605Y-82954800D01*
X147096240Y-83821435D01*
X147347868Y-83740775D01*
X147476267Y-83472471D01*
X147549855Y-83184274D01*
X147565804Y-82887257D01*
X147523501Y-82592837D01*
X147424572Y-82312326D01*
X147347868Y-82168825D01*
X147096240Y-82088165D01*
X146229605Y-82954800D01*
X145870395Y-82954800D01*
X145003760Y-82088165D01*
X144752132Y-82168825D01*
X144623733Y-82437129D01*
X144550145Y-82725326D01*
X144534196Y-83022343D01*
X141844300Y-83022343D01*
X141844300Y-81908560D01*
X145183365Y-81908560D01*
X146050000Y-82775195D01*
X146916635Y-81908560D01*
X146835975Y-81656932D01*
X146567671Y-81528533D01*
X146279474Y-81454945D01*
X145982457Y-81438996D01*
X145688037Y-81481299D01*
X145407526Y-81580228D01*
X145264025Y-81656932D01*
X145183365Y-81908560D01*
X141844300Y-81908560D01*
X141844300Y-76058665D01*
X142555000Y-76058665D01*
X142555000Y-76341335D01*
X142610147Y-76618574D01*
X142718320Y-76879727D01*
X142875363Y-77114759D01*
X143075241Y-77314637D01*
X143310273Y-77471680D01*
X143571426Y-77579853D01*
X143848665Y-77635000D01*
X144131335Y-77635000D01*
X144408574Y-77579853D01*
X144669727Y-77471680D01*
X144904759Y-77314637D01*
X145104637Y-77114759D01*
X145261680Y-76879727D01*
X145369853Y-76618574D01*
X145425000Y-76341335D01*
X145425000Y-76200000D01*
X150168057Y-76200000D01*
X150195764Y-76481309D01*
X150277818Y-76751808D01*
X150411068Y-77001101D01*
X150590392Y-77219608D01*
X150808899Y-77398932D01*
X151058192Y-77532182D01*
X151328691Y-77614236D01*
X151539508Y-77635000D01*
X151680492Y-77635000D01*
X151891309Y-77614236D01*
X152161808Y-77532182D01*
X152411101Y-77398932D01*
X152629608Y-77219608D01*
X152808932Y-77001101D01*
X152942182Y-76751808D01*
X153024236Y-76481309D01*
X153051943Y-76200000D01*
X153024236Y-75918691D01*
X152942182Y-75648192D01*
X152808932Y-75398899D01*
X152629608Y-75180392D01*
X152411101Y-75001068D01*
X152161808Y-74867818D01*
X151891309Y-74785764D01*
X151680492Y-74765000D01*
X151539508Y-74765000D01*
X151328691Y-74785764D01*
X151058192Y-74867818D01*
X150808899Y-75001068D01*
X150590392Y-75180392D01*
X150411068Y-75398899D01*
X150277818Y-75648192D01*
X150195764Y-75918691D01*
X150168057Y-76200000D01*
X145425000Y-76200000D01*
X145425000Y-76058665D01*
X145369853Y-75781426D01*
X145261680Y-75520273D01*
X145104637Y-75285241D01*
X144904759Y-75085363D01*
X144669727Y-74928320D01*
X144408574Y-74820147D01*
X144131335Y-74765000D01*
X143848665Y-74765000D01*
X143571426Y-74820147D01*
X143310273Y-74928320D01*
X143075241Y-75085363D01*
X142875363Y-75285241D01*
X142718320Y-75520273D01*
X142610147Y-75781426D01*
X142555000Y-76058665D01*
X141844300Y-76058665D01*
X141844300Y-70199039D01*
X142608096Y-70199039D01*
X142648754Y-70333087D01*
X142768963Y-70587420D01*
X142936481Y-70813414D01*
X143144869Y-71002385D01*
X143386119Y-71147070D01*
X143650960Y-71241909D01*
X143873000Y-71120624D01*
X143873000Y-69977000D01*
X144127000Y-69977000D01*
X144127000Y-71120624D01*
X144349040Y-71241909D01*
X144613881Y-71147070D01*
X144855131Y-71002385D01*
X145063519Y-70813414D01*
X145231037Y-70587420D01*
X145351246Y-70333087D01*
X145391904Y-70199039D01*
X145269915Y-69977000D01*
X144127000Y-69977000D01*
X143873000Y-69977000D01*
X142730085Y-69977000D01*
X142608096Y-70199039D01*
X141844300Y-70199039D01*
X141844300Y-68000501D01*
X142560598Y-67284204D01*
X142558057Y-67310000D01*
X142585764Y-67591309D01*
X142667818Y-67861808D01*
X142801068Y-68111101D01*
X142980392Y-68329608D01*
X143198899Y-68508932D01*
X143336682Y-68582579D01*
X143144869Y-68697615D01*
X142936481Y-68886586D01*
X142768963Y-69112580D01*
X142648754Y-69366913D01*
X142608096Y-69500961D01*
X142730085Y-69723000D01*
X143873000Y-69723000D01*
X143873000Y-69703000D01*
X144127000Y-69703000D01*
X144127000Y-69723000D01*
X145269915Y-69723000D01*
X145391904Y-69500961D01*
X145351246Y-69366913D01*
X145231037Y-69112580D01*
X145063519Y-68886586D01*
X144855131Y-68697615D01*
X144663318Y-68582579D01*
X144801101Y-68508932D01*
X145019608Y-68329608D01*
X145198932Y-68111101D01*
X145332182Y-67861808D01*
X145414236Y-67591309D01*
X145441943Y-67310000D01*
X145414236Y-67028691D01*
X145332182Y-66758192D01*
X145198932Y-66508899D01*
X145019608Y-66290392D01*
X144801101Y-66111068D01*
X144668142Y-66040000D01*
X144801101Y-65968932D01*
X145019608Y-65789608D01*
X145198932Y-65571101D01*
X145332182Y-65321808D01*
X145414236Y-65051309D01*
X145441943Y-64770000D01*
X145414236Y-64488691D01*
X145332182Y-64218192D01*
X145198932Y-63968899D01*
X145019608Y-63750392D01*
X144906518Y-63657581D01*
X144924482Y-63655812D01*
X145044180Y-63619502D01*
X145154494Y-63560537D01*
X145251185Y-63481185D01*
X145330537Y-63384494D01*
X145389502Y-63274180D01*
X145425812Y-63154482D01*
X145438072Y-63030000D01*
X145438072Y-62230000D01*
X150178057Y-62230000D01*
X150205764Y-62511309D01*
X150287818Y-62781808D01*
X150421068Y-63031101D01*
X150600392Y-63249608D01*
X150818899Y-63428932D01*
X150951858Y-63500000D01*
X150818899Y-63571068D01*
X150600392Y-63750392D01*
X150421068Y-63968899D01*
X150287818Y-64218192D01*
X150205764Y-64488691D01*
X150178057Y-64770000D01*
X150205764Y-65051309D01*
X150287818Y-65321808D01*
X150421068Y-65571101D01*
X150600392Y-65789608D01*
X150818899Y-65968932D01*
X150951858Y-66040000D01*
X150818899Y-66111068D01*
X150600392Y-66290392D01*
X150421068Y-66508899D01*
X150287818Y-66758192D01*
X150205764Y-67028691D01*
X150178057Y-67310000D01*
X150205764Y-67591309D01*
X150287818Y-67861808D01*
X150421068Y-68111101D01*
X150600392Y-68329608D01*
X150818899Y-68508932D01*
X150951858Y-68580000D01*
X150818899Y-68651068D01*
X150600392Y-68830392D01*
X150421068Y-69048899D01*
X150287818Y-69298192D01*
X150205764Y-69568691D01*
X150178057Y-69850000D01*
X150205764Y-70131309D01*
X150287818Y-70401808D01*
X150421068Y-70651101D01*
X150600392Y-70869608D01*
X150818899Y-71048932D01*
X151068192Y-71182182D01*
X151338691Y-71264236D01*
X151549508Y-71285000D01*
X151690492Y-71285000D01*
X151901309Y-71264236D01*
X152171808Y-71182182D01*
X152421101Y-71048932D01*
X152639608Y-70869608D01*
X152818932Y-70651101D01*
X152952182Y-70401808D01*
X153034236Y-70131309D01*
X153061943Y-69850000D01*
X153034236Y-69568691D01*
X152952182Y-69298192D01*
X152818932Y-69048899D01*
X152639608Y-68830392D01*
X152421101Y-68651068D01*
X152288142Y-68580000D01*
X152421101Y-68508932D01*
X152639608Y-68329608D01*
X152818932Y-68111101D01*
X152952182Y-67861808D01*
X153034236Y-67591309D01*
X153061943Y-67310000D01*
X153034236Y-67028691D01*
X152952182Y-66758192D01*
X152818932Y-66508899D01*
X152639608Y-66290392D01*
X152421101Y-66111068D01*
X152288142Y-66040000D01*
X152421101Y-65968932D01*
X152639608Y-65789608D01*
X152818932Y-65571101D01*
X152952182Y-65321808D01*
X153034236Y-65051309D01*
X153061943Y-64770000D01*
X153034236Y-64488691D01*
X152952182Y-64218192D01*
X152818932Y-63968899D01*
X152639608Y-63750392D01*
X152421101Y-63571068D01*
X152288142Y-63500000D01*
X152421101Y-63428932D01*
X152639608Y-63249608D01*
X152818932Y-63031101D01*
X152952182Y-62781808D01*
X153034236Y-62511309D01*
X153061943Y-62230000D01*
X153034236Y-61948691D01*
X152952182Y-61678192D01*
X152818932Y-61428899D01*
X152639608Y-61210392D01*
X152421101Y-61031068D01*
X152171808Y-60897818D01*
X151901309Y-60815764D01*
X151690492Y-60795000D01*
X151549508Y-60795000D01*
X151338691Y-60815764D01*
X151068192Y-60897818D01*
X150818899Y-61031068D01*
X150600392Y-61210392D01*
X150421068Y-61428899D01*
X150287818Y-61678192D01*
X150205764Y-61948691D01*
X150178057Y-62230000D01*
X145438072Y-62230000D01*
X145438072Y-61430000D01*
X145425812Y-61305518D01*
X145389502Y-61185820D01*
X145330537Y-61075506D01*
X145251185Y-60978815D01*
X145154494Y-60899463D01*
X145044180Y-60840498D01*
X144924482Y-60804188D01*
X144800000Y-60791928D01*
X143200000Y-60791928D01*
X143075518Y-60804188D01*
X142955820Y-60840498D01*
X142845506Y-60899463D01*
X142748815Y-60978815D01*
X142669463Y-61075506D01*
X142610498Y-61185820D01*
X142574188Y-61305518D01*
X142561928Y-61430000D01*
X142561928Y-63030000D01*
X142574188Y-63154482D01*
X142610498Y-63274180D01*
X142669463Y-63384494D01*
X142748815Y-63481185D01*
X142845506Y-63560537D01*
X142955820Y-63619502D01*
X143075518Y-63655812D01*
X143093482Y-63657581D01*
X142980392Y-63750392D01*
X142801068Y-63968899D01*
X142667818Y-64218192D01*
X142585764Y-64488691D01*
X142558057Y-64770000D01*
X142585764Y-65051309D01*
X142599292Y-65095906D01*
X140573303Y-67121896D01*
X140544299Y-67145699D01*
X140489171Y-67212874D01*
X140449326Y-67261424D01*
X140412038Y-67331185D01*
X140378754Y-67393454D01*
X140335297Y-67536715D01*
X140324300Y-67648368D01*
X140324300Y-67648378D01*
X140320624Y-67685700D01*
X131974101Y-67685700D01*
X132189005Y-67470797D01*
X132263889Y-67493513D01*
X132482050Y-67515000D01*
X132627950Y-67515000D01*
X132846111Y-67493513D01*
X133126034Y-67408599D01*
X133384014Y-67270706D01*
X133610134Y-67085134D01*
X133634607Y-67055313D01*
X133655498Y-67124180D01*
X133714463Y-67234494D01*
X133793815Y-67331185D01*
X133890506Y-67410537D01*
X134000820Y-67469502D01*
X134120518Y-67505812D01*
X134245000Y-67518072D01*
X135945000Y-67518072D01*
X136069482Y-67505812D01*
X136189180Y-67469502D01*
X136299494Y-67410537D01*
X136396185Y-67331185D01*
X136475537Y-67234494D01*
X136534502Y-67124180D01*
X136570812Y-67004482D01*
X136583072Y-66880000D01*
X136583072Y-65180000D01*
X136570812Y-65055518D01*
X136534502Y-64935820D01*
X136475537Y-64825506D01*
X136396185Y-64728815D01*
X136299494Y-64649463D01*
X136189180Y-64590498D01*
X136069482Y-64554188D01*
X135945000Y-64541928D01*
X134245000Y-64541928D01*
X134120518Y-64554188D01*
X134000820Y-64590498D01*
X133890506Y-64649463D01*
X133793815Y-64728815D01*
X133714463Y-64825506D01*
X133655498Y-64935820D01*
X133634607Y-65004687D01*
X133610134Y-64974866D01*
X133384014Y-64789294D01*
X133126034Y-64651401D01*
X132846111Y-64566487D01*
X132627950Y-64545000D01*
X132482050Y-64545000D01*
X132263889Y-64566487D01*
X131983966Y-64651401D01*
X131725986Y-64789294D01*
X131499866Y-64974866D01*
X131314294Y-65200986D01*
X131285000Y-65255791D01*
X131255706Y-65200986D01*
X131070134Y-64974866D01*
X130844014Y-64789294D01*
X130586034Y-64651401D01*
X130306111Y-64566487D01*
X130087950Y-64545000D01*
X129942050Y-64545000D01*
X129723889Y-64566487D01*
X129443966Y-64651401D01*
X129185986Y-64789294D01*
X128959866Y-64974866D01*
X128774294Y-65200986D01*
X128739799Y-65265523D01*
X128670178Y-65148645D01*
X128475269Y-64932412D01*
X128241920Y-64758359D01*
X127979099Y-64633175D01*
X127831890Y-64588524D01*
X127602000Y-64709845D01*
X127602000Y-65903000D01*
X127622000Y-65903000D01*
X127622000Y-66157000D01*
X127602000Y-66157000D01*
X127602000Y-67350155D01*
X127831890Y-67471476D01*
X127979099Y-67426825D01*
X128241920Y-67301641D01*
X128475269Y-67127588D01*
X128670178Y-66911355D01*
X128739799Y-66794477D01*
X128774294Y-66859014D01*
X128959866Y-67085134D01*
X129185986Y-67270706D01*
X129443966Y-67408599D01*
X129723889Y-67493513D01*
X129942050Y-67515000D01*
X129995199Y-67515000D01*
X128420199Y-69090000D01*
X117745902Y-69090000D01*
X117723933Y-69048899D01*
X117544609Y-68830392D01*
X117326102Y-68651068D01*
X117193143Y-68580000D01*
X117326102Y-68508932D01*
X117544609Y-68329608D01*
X117723933Y-68111101D01*
X117857183Y-67861808D01*
X117939237Y-67591309D01*
X117966944Y-67310000D01*
X117939237Y-67028691D01*
X117857183Y-66758192D01*
X117723933Y-66508899D01*
X117544609Y-66290392D01*
X117326102Y-66111068D01*
X117193143Y-66040000D01*
X117211851Y-66030000D01*
X123442815Y-66030000D01*
X123471487Y-66321111D01*
X123556401Y-66601034D01*
X123694294Y-66859014D01*
X123879866Y-67085134D01*
X124105986Y-67270706D01*
X124363966Y-67408599D01*
X124643889Y-67493513D01*
X124862050Y-67515000D01*
X125007950Y-67515000D01*
X125226111Y-67493513D01*
X125506034Y-67408599D01*
X125764014Y-67270706D01*
X125990134Y-67085134D01*
X126175706Y-66859014D01*
X126210201Y-66794477D01*
X126279822Y-66911355D01*
X126474731Y-67127588D01*
X126708080Y-67301641D01*
X126970901Y-67426825D01*
X127118110Y-67471476D01*
X127348000Y-67350155D01*
X127348000Y-66157000D01*
X127328000Y-66157000D01*
X127328000Y-65903000D01*
X127348000Y-65903000D01*
X127348000Y-64709845D01*
X127118110Y-64588524D01*
X126970901Y-64633175D01*
X126708080Y-64758359D01*
X126474731Y-64932412D01*
X126279822Y-65148645D01*
X126210201Y-65265523D01*
X126175706Y-65200986D01*
X125990134Y-64974866D01*
X125764014Y-64789294D01*
X125506034Y-64651401D01*
X125226111Y-64566487D01*
X125007950Y-64545000D01*
X124862050Y-64545000D01*
X124643889Y-64566487D01*
X124363966Y-64651401D01*
X124105986Y-64789294D01*
X123879866Y-64974866D01*
X123694294Y-65200986D01*
X123556401Y-65458966D01*
X123471487Y-65738889D01*
X123442815Y-66030000D01*
X117211851Y-66030000D01*
X117326102Y-65968932D01*
X117544609Y-65789608D01*
X117723933Y-65571101D01*
X117745902Y-65530000D01*
X121732678Y-65530000D01*
X121770000Y-65533676D01*
X121807322Y-65530000D01*
X121807333Y-65530000D01*
X121918986Y-65519003D01*
X122062247Y-65475546D01*
X122194276Y-65404974D01*
X122310001Y-65310001D01*
X122333804Y-65280997D01*
X130531003Y-57083799D01*
X130560001Y-57060001D01*
X130586332Y-57027917D01*
X130654974Y-56944277D01*
X130678861Y-56899588D01*
X130765000Y-56908072D01*
X131815000Y-56908072D01*
X131939482Y-56895812D01*
X132059180Y-56859502D01*
X132169494Y-56800537D01*
X132266185Y-56721185D01*
X132345537Y-56624494D01*
X132404502Y-56514180D01*
X132440812Y-56394482D01*
X132453072Y-56270000D01*
X132453072Y-55880000D01*
X146769388Y-55880000D01*
X146791785Y-56107400D01*
X146855093Y-56316098D01*
X146820498Y-56380820D01*
X146784188Y-56500518D01*
X146771928Y-56625000D01*
X146771928Y-57675000D01*
X146784188Y-57799482D01*
X146820498Y-57919180D01*
X146879463Y-58029494D01*
X146958815Y-58126185D01*
X147055506Y-58205537D01*
X147165820Y-58264502D01*
X147285518Y-58300812D01*
X147410000Y-58313072D01*
X148910000Y-58313072D01*
X149034482Y-58300812D01*
X149154180Y-58264502D01*
X149264494Y-58205537D01*
X149361185Y-58126185D01*
X149440537Y-58029494D01*
X149499502Y-57919180D01*
X149535812Y-57799482D01*
X149548072Y-57675000D01*
X149548072Y-56625000D01*
X149535812Y-56500518D01*
X149499502Y-56380820D01*
X149464907Y-56316098D01*
X149528215Y-56107400D01*
X149550612Y-55880000D01*
X149528215Y-55652600D01*
X149461885Y-55433940D01*
X149361071Y-55245331D01*
X149402275Y-55186882D01*
X149495272Y-54977337D01*
X149503964Y-54915810D01*
X149378163Y-54737000D01*
X148613109Y-54737000D01*
X148612400Y-54736785D01*
X148441979Y-54720000D01*
X147878021Y-54720000D01*
X147707600Y-54736785D01*
X147706891Y-54737000D01*
X146941837Y-54737000D01*
X146816036Y-54915810D01*
X146824728Y-54977337D01*
X146917725Y-55186882D01*
X146958929Y-55245331D01*
X146858115Y-55433940D01*
X146791785Y-55652600D01*
X146769388Y-55880000D01*
X132453072Y-55880000D01*
X132453072Y-54770000D01*
X132440812Y-54645518D01*
X132404502Y-54525820D01*
X132345537Y-54415506D01*
X132266185Y-54318815D01*
X132248365Y-54304190D01*
X146816036Y-54304190D01*
X146941837Y-54483000D01*
X148033000Y-54483000D01*
X148033000Y-53603402D01*
X148287000Y-53603402D01*
X148287000Y-54483000D01*
X149378163Y-54483000D01*
X149503964Y-54304190D01*
X149495272Y-54242663D01*
X149402275Y-54033118D01*
X149270184Y-53845742D01*
X149104076Y-53687736D01*
X148910334Y-53565172D01*
X148696404Y-53482761D01*
X148470507Y-53443669D01*
X148287000Y-53603402D01*
X148033000Y-53603402D01*
X147849493Y-53443669D01*
X147623596Y-53482761D01*
X147409666Y-53565172D01*
X147215924Y-53687736D01*
X147049816Y-53845742D01*
X146917725Y-54033118D01*
X146824728Y-54242663D01*
X146816036Y-54304190D01*
X132248365Y-54304190D01*
X132169494Y-54239463D01*
X132059180Y-54180498D01*
X131939482Y-54144188D01*
X131815000Y-54131928D01*
X130765000Y-54131928D01*
X130640518Y-54144188D01*
X130520820Y-54180498D01*
X130456098Y-54215093D01*
X130247400Y-54151785D01*
X130020000Y-54129388D01*
X129792601Y-54151785D01*
X129573941Y-54218115D01*
X129385331Y-54318929D01*
X129326882Y-54277725D01*
X129117337Y-54184728D01*
X129055810Y-54176036D01*
X128877000Y-54301837D01*
X128877000Y-55066891D01*
X128876785Y-55067600D01*
X128860000Y-55238021D01*
X128860000Y-55667000D01*
X128623000Y-55667000D01*
X128623000Y-55647000D01*
X127743402Y-55647000D01*
X127583669Y-55830507D01*
X127622761Y-56056404D01*
X127705172Y-56270334D01*
X127827736Y-56464076D01*
X127985742Y-56630184D01*
X128173118Y-56762275D01*
X128382663Y-56855272D01*
X128444190Y-56863964D01*
X128622998Y-56738164D01*
X128622998Y-56842200D01*
X121455199Y-64010000D01*
X117745902Y-64010000D01*
X117723933Y-63968899D01*
X117544609Y-63750392D01*
X117326102Y-63571068D01*
X117193143Y-63500000D01*
X117326102Y-63428932D01*
X117544609Y-63249608D01*
X117723933Y-63031101D01*
X117857183Y-62781808D01*
X117939237Y-62511309D01*
X117966944Y-62230000D01*
X117939237Y-61948691D01*
X117857183Y-61678192D01*
X117723933Y-61428899D01*
X117544609Y-61210392D01*
X117326102Y-61031068D01*
X117076809Y-60897818D01*
X116806310Y-60815764D01*
X116595493Y-60795000D01*
X116454509Y-60795000D01*
X116243692Y-60815764D01*
X115973193Y-60897818D01*
X115723900Y-61031068D01*
X115505393Y-61210392D01*
X115326069Y-61428899D01*
X115192819Y-61678192D01*
X115110765Y-61948691D01*
X115083058Y-62230000D01*
X110343073Y-62230000D01*
X110343073Y-61430000D01*
X110330813Y-61305518D01*
X110294503Y-61185820D01*
X110235538Y-61075506D01*
X110156186Y-60978815D01*
X110059495Y-60899463D01*
X109949181Y-60840498D01*
X109829483Y-60804188D01*
X109705001Y-60791928D01*
X108105001Y-60791928D01*
X107980519Y-60804188D01*
X107860821Y-60840498D01*
X107750507Y-60899463D01*
X107653816Y-60978815D01*
X107574464Y-61075506D01*
X107515499Y-61185820D01*
X107479189Y-61305518D01*
X107466929Y-61430000D01*
X107466929Y-63030000D01*
X107479189Y-63154482D01*
X107515499Y-63274180D01*
X107574464Y-63384494D01*
X107653816Y-63481185D01*
X107750507Y-63560537D01*
X107860821Y-63619502D01*
X107980519Y-63655812D01*
X107998483Y-63657581D01*
X107885393Y-63750392D01*
X107706069Y-63968899D01*
X107572819Y-64218192D01*
X107490765Y-64488691D01*
X107463058Y-64770000D01*
X104545000Y-64770000D01*
X104545000Y-57455810D01*
X111001037Y-57455810D01*
X111009729Y-57517337D01*
X111102726Y-57726882D01*
X111234817Y-57914258D01*
X111400925Y-58072264D01*
X111594667Y-58194828D01*
X111808597Y-58277239D01*
X112034494Y-58316331D01*
X112218001Y-58156598D01*
X112218001Y-57277000D01*
X112472001Y-57277000D01*
X112472001Y-58156598D01*
X112655508Y-58316331D01*
X112881405Y-58277239D01*
X113095335Y-58194828D01*
X113289077Y-58072264D01*
X113455185Y-57914258D01*
X113587276Y-57726882D01*
X113680273Y-57517337D01*
X113688965Y-57455810D01*
X113563164Y-57277000D01*
X112472001Y-57277000D01*
X112218001Y-57277000D01*
X111126838Y-57277000D01*
X111001037Y-57455810D01*
X104545000Y-57455810D01*
X104545000Y-55880000D01*
X110954389Y-55880000D01*
X110976786Y-56107400D01*
X111043116Y-56326060D01*
X111143930Y-56514669D01*
X111102726Y-56573118D01*
X111009729Y-56782663D01*
X111001037Y-56844190D01*
X111126838Y-57023000D01*
X111891892Y-57023000D01*
X111892601Y-57023215D01*
X112063022Y-57040000D01*
X112626980Y-57040000D01*
X112797401Y-57023215D01*
X112798110Y-57023000D01*
X113563164Y-57023000D01*
X113688965Y-56844190D01*
X113680273Y-56782663D01*
X113587276Y-56573118D01*
X113546072Y-56514669D01*
X113646886Y-56326060D01*
X113713216Y-56107400D01*
X113735613Y-55880000D01*
X113713216Y-55652600D01*
X113649908Y-55443902D01*
X113684503Y-55379180D01*
X113720813Y-55259482D01*
X113725736Y-55209493D01*
X127583669Y-55209493D01*
X127743402Y-55393000D01*
X128623000Y-55393000D01*
X128623000Y-54301837D01*
X128444190Y-54176036D01*
X128382663Y-54184728D01*
X128173118Y-54277725D01*
X127985742Y-54409816D01*
X127827736Y-54575924D01*
X127705172Y-54769666D01*
X127622761Y-54983596D01*
X127583669Y-55209493D01*
X113725736Y-55209493D01*
X113733073Y-55135000D01*
X113733073Y-54085000D01*
X113720813Y-53960518D01*
X113684503Y-53840820D01*
X113625538Y-53730506D01*
X113546186Y-53633815D01*
X113449495Y-53554463D01*
X113339181Y-53495498D01*
X113219483Y-53459188D01*
X113095001Y-53446928D01*
X111595001Y-53446928D01*
X111470519Y-53459188D01*
X111350821Y-53495498D01*
X111240507Y-53554463D01*
X111143816Y-53633815D01*
X111064464Y-53730506D01*
X111005499Y-53840820D01*
X110969189Y-53960518D01*
X110956929Y-54085000D01*
X110956929Y-55135000D01*
X110969189Y-55259482D01*
X111005499Y-55379180D01*
X111040094Y-55443902D01*
X110976786Y-55652600D01*
X110954389Y-55880000D01*
X104545000Y-55880000D01*
X104545000Y-49530000D01*
X107453058Y-49530000D01*
X107480765Y-49811309D01*
X107562819Y-50081808D01*
X107696069Y-50331101D01*
X107875393Y-50549608D01*
X108093900Y-50728932D01*
X108343193Y-50862182D01*
X108613692Y-50944236D01*
X108824509Y-50965000D01*
X108965493Y-50965000D01*
X109176310Y-50944236D01*
X109446809Y-50862182D01*
X109696102Y-50728932D01*
X109914609Y-50549608D01*
X110093933Y-50331101D01*
X110227183Y-50081808D01*
X110309237Y-49811309D01*
X110336944Y-49530000D01*
X110323024Y-49388665D01*
X115080001Y-49388665D01*
X115080001Y-49671335D01*
X115135148Y-49948574D01*
X115243321Y-50209727D01*
X115400364Y-50444759D01*
X115600242Y-50644637D01*
X115835274Y-50801680D01*
X116096427Y-50909853D01*
X116373666Y-50965000D01*
X116656336Y-50965000D01*
X116933575Y-50909853D01*
X117194728Y-50801680D01*
X117429760Y-50644637D01*
X117629638Y-50444759D01*
X117786681Y-50209727D01*
X117894854Y-49948574D01*
X117950001Y-49671335D01*
X117950001Y-49388665D01*
X124775000Y-49388665D01*
X124775000Y-49671335D01*
X124830147Y-49948574D01*
X124938320Y-50209727D01*
X125095363Y-50444759D01*
X125295241Y-50644637D01*
X125530273Y-50801680D01*
X125791426Y-50909853D01*
X126068665Y-50965000D01*
X126351335Y-50965000D01*
X126628574Y-50909853D01*
X126889727Y-50801680D01*
X127124759Y-50644637D01*
X127324637Y-50444759D01*
X127481680Y-50209727D01*
X127589853Y-49948574D01*
X127645000Y-49671335D01*
X127645000Y-49530000D01*
X132388057Y-49530000D01*
X132415764Y-49811309D01*
X132497818Y-50081808D01*
X132631068Y-50331101D01*
X132810392Y-50549608D01*
X133028899Y-50728932D01*
X133278192Y-50862182D01*
X133548691Y-50944236D01*
X133759508Y-50965000D01*
X133900492Y-50965000D01*
X134111309Y-50944236D01*
X134381808Y-50862182D01*
X134631101Y-50728932D01*
X134849608Y-50549608D01*
X135028932Y-50331101D01*
X135162182Y-50081808D01*
X135244236Y-49811309D01*
X135271943Y-49530000D01*
X135258023Y-49388665D01*
X142555000Y-49388665D01*
X142555000Y-49671335D01*
X142610147Y-49948574D01*
X142718320Y-50209727D01*
X142875363Y-50444759D01*
X143075241Y-50644637D01*
X143310273Y-50801680D01*
X143571426Y-50909853D01*
X143848665Y-50965000D01*
X144131335Y-50965000D01*
X144408574Y-50909853D01*
X144669727Y-50801680D01*
X144904759Y-50644637D01*
X145104637Y-50444759D01*
X145261680Y-50209727D01*
X145369853Y-49948574D01*
X145425000Y-49671335D01*
X145425000Y-49530000D01*
X150168057Y-49530000D01*
X150195764Y-49811309D01*
X150277818Y-50081808D01*
X150411068Y-50331101D01*
X150590392Y-50549608D01*
X150808899Y-50728932D01*
X151058192Y-50862182D01*
X151328691Y-50944236D01*
X151539508Y-50965000D01*
X151680492Y-50965000D01*
X151891309Y-50944236D01*
X152161808Y-50862182D01*
X152411101Y-50728932D01*
X152629608Y-50549608D01*
X152808932Y-50331101D01*
X152942182Y-50081808D01*
X153024236Y-49811309D01*
X153051943Y-49530000D01*
X153024236Y-49248691D01*
X152942182Y-48978192D01*
X152808932Y-48728899D01*
X152629608Y-48510392D01*
X152411101Y-48331068D01*
X152161808Y-48197818D01*
X151891309Y-48115764D01*
X151680492Y-48095000D01*
X151539508Y-48095000D01*
X151328691Y-48115764D01*
X151058192Y-48197818D01*
X150808899Y-48331068D01*
X150590392Y-48510392D01*
X150411068Y-48728899D01*
X150277818Y-48978192D01*
X150195764Y-49248691D01*
X150168057Y-49530000D01*
X145425000Y-49530000D01*
X145425000Y-49388665D01*
X145369853Y-49111426D01*
X145261680Y-48850273D01*
X145104637Y-48615241D01*
X144904759Y-48415363D01*
X144669727Y-48258320D01*
X144408574Y-48150147D01*
X144131335Y-48095000D01*
X143848665Y-48095000D01*
X143571426Y-48150147D01*
X143310273Y-48258320D01*
X143075241Y-48415363D01*
X142875363Y-48615241D01*
X142718320Y-48850273D01*
X142610147Y-49111426D01*
X142555000Y-49388665D01*
X135258023Y-49388665D01*
X135244236Y-49248691D01*
X135162182Y-48978192D01*
X135028932Y-48728899D01*
X134849608Y-48510392D01*
X134631101Y-48331068D01*
X134381808Y-48197818D01*
X134111309Y-48115764D01*
X133900492Y-48095000D01*
X133759508Y-48095000D01*
X133548691Y-48115764D01*
X133278192Y-48197818D01*
X133028899Y-48331068D01*
X132810392Y-48510392D01*
X132631068Y-48728899D01*
X132497818Y-48978192D01*
X132415764Y-49248691D01*
X132388057Y-49530000D01*
X127645000Y-49530000D01*
X127645000Y-49388665D01*
X127589853Y-49111426D01*
X127481680Y-48850273D01*
X127324637Y-48615241D01*
X127124759Y-48415363D01*
X126889727Y-48258320D01*
X126628574Y-48150147D01*
X126351335Y-48095000D01*
X126068665Y-48095000D01*
X125791426Y-48150147D01*
X125530273Y-48258320D01*
X125295241Y-48415363D01*
X125095363Y-48615241D01*
X124938320Y-48850273D01*
X124830147Y-49111426D01*
X124775000Y-49388665D01*
X117950001Y-49388665D01*
X117894854Y-49111426D01*
X117786681Y-48850273D01*
X117629638Y-48615241D01*
X117429760Y-48415363D01*
X117194728Y-48258320D01*
X116933575Y-48150147D01*
X116656336Y-48095000D01*
X116373666Y-48095000D01*
X116096427Y-48150147D01*
X115835274Y-48258320D01*
X115600242Y-48415363D01*
X115400364Y-48615241D01*
X115243321Y-48850273D01*
X115135148Y-49111426D01*
X115080001Y-49388665D01*
X110323024Y-49388665D01*
X110309237Y-49248691D01*
X110227183Y-48978192D01*
X110093933Y-48728899D01*
X109914609Y-48510392D01*
X109696102Y-48331068D01*
X109446809Y-48197818D01*
X109176310Y-48115764D01*
X108965493Y-48095000D01*
X108824509Y-48095000D01*
X108613692Y-48115764D01*
X108343193Y-48197818D01*
X108093900Y-48331068D01*
X107875393Y-48510392D01*
X107696069Y-48728899D01*
X107562819Y-48978192D01*
X107480765Y-49248691D01*
X107453058Y-49530000D01*
X104545000Y-49530000D01*
X104545000Y-38439005D01*
X109962054Y-38439005D01*
X109962054Y-38726195D01*
X110018082Y-39007867D01*
X110127985Y-39273196D01*
X110287540Y-39511986D01*
X110490614Y-39715060D01*
X110729404Y-39874615D01*
X110994733Y-39984518D01*
X111276405Y-40040546D01*
X111563595Y-40040546D01*
X111845267Y-39984518D01*
X112110596Y-39874615D01*
X112349386Y-39715060D01*
X112552460Y-39511986D01*
X112712015Y-39273196D01*
X112821918Y-39007867D01*
X112877946Y-38726195D01*
X112877946Y-38439005D01*
X148452854Y-38439005D01*
X148452854Y-38726195D01*
X148508882Y-39007867D01*
X148618785Y-39273196D01*
X148778340Y-39511986D01*
X148981414Y-39715060D01*
X149220204Y-39874615D01*
X149485533Y-39984518D01*
X149767205Y-40040546D01*
X150054395Y-40040546D01*
X150336067Y-39984518D01*
X150601396Y-39874615D01*
X150840186Y-39715060D01*
X151043260Y-39511986D01*
X151202815Y-39273196D01*
X151312718Y-39007867D01*
X151368746Y-38726195D01*
X151368746Y-38439005D01*
X151312718Y-38157333D01*
X151202815Y-37892004D01*
X151043260Y-37653214D01*
X150840186Y-37450140D01*
X150601396Y-37290585D01*
X150336067Y-37180682D01*
X150054395Y-37124654D01*
X149767205Y-37124654D01*
X149485533Y-37180682D01*
X149220204Y-37290585D01*
X148981414Y-37450140D01*
X148778340Y-37653214D01*
X148618785Y-37892004D01*
X148508882Y-38157333D01*
X148452854Y-38439005D01*
X112877946Y-38439005D01*
X112821918Y-38157333D01*
X112712015Y-37892004D01*
X112552460Y-37653214D01*
X112349386Y-37450140D01*
X112110596Y-37290585D01*
X111845267Y-37180682D01*
X111563595Y-37124654D01*
X111276405Y-37124654D01*
X110994733Y-37180682D01*
X110729404Y-37290585D01*
X110490614Y-37450140D01*
X110287540Y-37653214D01*
X110127985Y-37892004D01*
X110018082Y-38157333D01*
X109962054Y-38439005D01*
X104545000Y-38439005D01*
X104545000Y-33760000D01*
X155965000Y-33760000D01*
X155965001Y-154045755D01*
M02*
