G04 #@! TF.GenerationSoftware,KiCad,Pcbnew,5.1.4-e60b266~84~ubuntu18.04.1*
G04 #@! TF.CreationDate,2019-09-01T15:53:27+02:00*
G04 #@! TF.ProjectId,PixelSlasher,50697865-6c53-46c6-9173-6865722e6b69,1.0*
G04 #@! TF.SameCoordinates,Original*
G04 #@! TF.FileFunction,Soldermask,Top*
G04 #@! TF.FilePolarity,Negative*
%FSLAX46Y46*%
G04 Gerber Fmt 4.6, Leading zero omitted, Abs format (unit mm)*
G04 Created by KiCad (PCBNEW 5.1.4-e60b266~84~ubuntu18.04.1) date 2019-09-01 15:53:27*
%MOMM*%
%LPD*%
G04 APERTURE LIST*
%ADD10C,0.100000*%
G04 APERTURE END LIST*
D10*
G36*
X149820104Y-140564385D02*
G01*
X149988626Y-140634189D01*
X150140291Y-140735528D01*
X150269272Y-140864509D01*
X150370611Y-141016174D01*
X150440415Y-141184696D01*
X150476000Y-141363597D01*
X150476000Y-141546003D01*
X150440415Y-141724904D01*
X150370611Y-141893426D01*
X150269272Y-142045091D01*
X150140291Y-142174072D01*
X149988626Y-142275411D01*
X149820104Y-142345215D01*
X149641203Y-142380800D01*
X149458797Y-142380800D01*
X149279896Y-142345215D01*
X149111374Y-142275411D01*
X148959709Y-142174072D01*
X148830728Y-142045091D01*
X148729389Y-141893426D01*
X148659585Y-141724904D01*
X148624000Y-141546003D01*
X148624000Y-141363597D01*
X148659585Y-141184696D01*
X148729389Y-141016174D01*
X148830728Y-140864509D01*
X148959709Y-140735528D01*
X149111374Y-140634189D01*
X149279896Y-140564385D01*
X149458797Y-140528800D01*
X149641203Y-140528800D01*
X149820104Y-140564385D01*
X149820104Y-140564385D01*
G37*
G36*
X129196000Y-142380800D02*
G01*
X127344000Y-142380800D01*
X127344000Y-140528800D01*
X129196000Y-140528800D01*
X129196000Y-142380800D01*
X129196000Y-142380800D01*
G37*
G36*
X132040104Y-140564385D02*
G01*
X132208626Y-140634189D01*
X132360291Y-140735528D01*
X132489272Y-140864509D01*
X132590611Y-141016174D01*
X132660415Y-141184696D01*
X132696000Y-141363597D01*
X132696000Y-141546003D01*
X132660415Y-141724904D01*
X132590611Y-141893426D01*
X132489272Y-142045091D01*
X132360291Y-142174072D01*
X132208626Y-142275411D01*
X132040104Y-142345215D01*
X131861203Y-142380800D01*
X131678797Y-142380800D01*
X131499896Y-142345215D01*
X131331374Y-142275411D01*
X131179709Y-142174072D01*
X131050728Y-142045091D01*
X130949389Y-141893426D01*
X130879585Y-141724904D01*
X130844000Y-141546003D01*
X130844000Y-141363597D01*
X130879585Y-141184696D01*
X130949389Y-141016174D01*
X131050728Y-140864509D01*
X131179709Y-140735528D01*
X131331374Y-140634189D01*
X131499896Y-140564385D01*
X131678797Y-140528800D01*
X131861203Y-140528800D01*
X132040104Y-140564385D01*
X132040104Y-140564385D01*
G37*
G36*
X114725105Y-140564385D02*
G01*
X114893627Y-140634189D01*
X115045292Y-140735528D01*
X115174273Y-140864509D01*
X115275612Y-141016174D01*
X115345416Y-141184696D01*
X115381001Y-141363597D01*
X115381001Y-141546003D01*
X115345416Y-141724904D01*
X115275612Y-141893426D01*
X115174273Y-142045091D01*
X115045292Y-142174072D01*
X114893627Y-142275411D01*
X114725105Y-142345215D01*
X114546204Y-142380800D01*
X114363798Y-142380800D01*
X114184897Y-142345215D01*
X114016375Y-142275411D01*
X113864710Y-142174072D01*
X113735729Y-142045091D01*
X113634390Y-141893426D01*
X113564586Y-141724904D01*
X113529001Y-141546003D01*
X113529001Y-141363597D01*
X113564586Y-141184696D01*
X113634390Y-141016174D01*
X113735729Y-140864509D01*
X113864710Y-140735528D01*
X114016375Y-140634189D01*
X114184897Y-140564385D01*
X114363798Y-140528800D01*
X114546204Y-140528800D01*
X114725105Y-140564385D01*
X114725105Y-140564385D01*
G37*
G36*
X111881001Y-142380800D02*
G01*
X110029001Y-142380800D01*
X110029001Y-140528800D01*
X111881001Y-140528800D01*
X111881001Y-142380800D01*
X111881001Y-142380800D01*
G37*
G36*
X146976000Y-142380800D02*
G01*
X145124000Y-142380800D01*
X145124000Y-140528800D01*
X146976000Y-140528800D01*
X146976000Y-142380800D01*
X146976000Y-142380800D01*
G37*
G36*
X117223434Y-135939693D02*
G01*
X117313658Y-135957639D01*
X117419268Y-136001385D01*
X117568622Y-136063249D01*
X117568623Y-136063250D01*
X117798087Y-136216572D01*
X117993229Y-136411714D01*
X118061210Y-136513456D01*
X118146552Y-136641179D01*
X118252162Y-136896144D01*
X118306001Y-137166812D01*
X118306001Y-137442788D01*
X118252162Y-137713456D01*
X118146552Y-137968421D01*
X118146551Y-137968422D01*
X117993229Y-138197886D01*
X117798087Y-138393028D01*
X117644764Y-138495475D01*
X117568622Y-138546351D01*
X117419268Y-138608215D01*
X117313658Y-138651961D01*
X117223434Y-138669907D01*
X117042989Y-138705800D01*
X116767013Y-138705800D01*
X116586568Y-138669907D01*
X116496344Y-138651961D01*
X116390734Y-138608215D01*
X116241380Y-138546351D01*
X116165238Y-138495475D01*
X116011915Y-138393028D01*
X115816773Y-138197886D01*
X115663451Y-137968422D01*
X115663450Y-137968421D01*
X115557840Y-137713456D01*
X115504001Y-137442788D01*
X115504001Y-137166812D01*
X115557840Y-136896144D01*
X115663450Y-136641179D01*
X115748792Y-136513456D01*
X115816773Y-136411714D01*
X116011915Y-136216572D01*
X116241379Y-136063250D01*
X116241380Y-136063249D01*
X116390734Y-136001385D01*
X116496344Y-135957639D01*
X116586568Y-135939693D01*
X116767013Y-135903800D01*
X117042989Y-135903800D01*
X117223434Y-135939693D01*
X117223434Y-135939693D01*
G37*
G36*
X134538433Y-135939693D02*
G01*
X134628657Y-135957639D01*
X134734267Y-136001385D01*
X134883621Y-136063249D01*
X134883622Y-136063250D01*
X135113086Y-136216572D01*
X135308228Y-136411714D01*
X135376209Y-136513456D01*
X135461551Y-136641179D01*
X135567161Y-136896144D01*
X135621000Y-137166812D01*
X135621000Y-137442788D01*
X135567161Y-137713456D01*
X135461551Y-137968421D01*
X135461550Y-137968422D01*
X135308228Y-138197886D01*
X135113086Y-138393028D01*
X134959763Y-138495475D01*
X134883621Y-138546351D01*
X134734267Y-138608215D01*
X134628657Y-138651961D01*
X134538433Y-138669907D01*
X134357988Y-138705800D01*
X134082012Y-138705800D01*
X133901567Y-138669907D01*
X133811343Y-138651961D01*
X133705733Y-138608215D01*
X133556379Y-138546351D01*
X133480237Y-138495475D01*
X133326914Y-138393028D01*
X133131772Y-138197886D01*
X132978450Y-137968422D01*
X132978449Y-137968421D01*
X132872839Y-137713456D01*
X132819000Y-137442788D01*
X132819000Y-137166812D01*
X132872839Y-136896144D01*
X132978449Y-136641179D01*
X133063791Y-136513456D01*
X133131772Y-136411714D01*
X133326914Y-136216572D01*
X133556378Y-136063250D01*
X133556379Y-136063249D01*
X133705733Y-136001385D01*
X133811343Y-135957639D01*
X133901567Y-135939693D01*
X134082012Y-135903800D01*
X134357988Y-135903800D01*
X134538433Y-135939693D01*
X134538433Y-135939693D01*
G37*
G36*
X152318433Y-135939693D02*
G01*
X152408657Y-135957639D01*
X152514267Y-136001385D01*
X152663621Y-136063249D01*
X152663622Y-136063250D01*
X152893086Y-136216572D01*
X153088228Y-136411714D01*
X153156209Y-136513456D01*
X153241551Y-136641179D01*
X153347161Y-136896144D01*
X153401000Y-137166812D01*
X153401000Y-137442788D01*
X153347161Y-137713456D01*
X153241551Y-137968421D01*
X153241550Y-137968422D01*
X153088228Y-138197886D01*
X152893086Y-138393028D01*
X152739763Y-138495475D01*
X152663621Y-138546351D01*
X152514267Y-138608215D01*
X152408657Y-138651961D01*
X152318433Y-138669907D01*
X152137988Y-138705800D01*
X151862012Y-138705800D01*
X151681567Y-138669907D01*
X151591343Y-138651961D01*
X151485733Y-138608215D01*
X151336379Y-138546351D01*
X151260237Y-138495475D01*
X151106914Y-138393028D01*
X150911772Y-138197886D01*
X150758450Y-137968422D01*
X150758449Y-137968421D01*
X150652839Y-137713456D01*
X150599000Y-137442788D01*
X150599000Y-137166812D01*
X150652839Y-136896144D01*
X150758449Y-136641179D01*
X150843791Y-136513456D01*
X150911772Y-136411714D01*
X151106914Y-136216572D01*
X151336378Y-136063250D01*
X151336379Y-136063249D01*
X151485733Y-136001385D01*
X151591343Y-135957639D01*
X151681567Y-135939693D01*
X151862012Y-135903800D01*
X152137988Y-135903800D01*
X152318433Y-135939693D01*
X152318433Y-135939693D01*
G37*
G36*
X108823434Y-134739693D02*
G01*
X108913658Y-134757639D01*
X109019268Y-134801385D01*
X109168622Y-134863249D01*
X109168623Y-134863250D01*
X109398087Y-135016572D01*
X109593229Y-135211714D01*
X109695676Y-135365037D01*
X109746552Y-135441179D01*
X109852162Y-135696144D01*
X109906001Y-135966812D01*
X109906001Y-136242788D01*
X109852162Y-136513456D01*
X109746552Y-136768421D01*
X109746551Y-136768422D01*
X109593229Y-136997886D01*
X109398087Y-137193028D01*
X109244764Y-137295475D01*
X109168622Y-137346351D01*
X109019268Y-137408215D01*
X108913658Y-137451961D01*
X108823434Y-137469907D01*
X108642989Y-137505800D01*
X108367013Y-137505800D01*
X108186568Y-137469907D01*
X108096344Y-137451961D01*
X107990734Y-137408215D01*
X107841380Y-137346351D01*
X107765238Y-137295475D01*
X107611915Y-137193028D01*
X107416773Y-136997886D01*
X107263451Y-136768422D01*
X107263450Y-136768421D01*
X107157840Y-136513456D01*
X107104001Y-136242788D01*
X107104001Y-135966812D01*
X107157840Y-135696144D01*
X107263450Y-135441179D01*
X107314326Y-135365037D01*
X107416773Y-135211714D01*
X107611915Y-135016572D01*
X107841379Y-134863250D01*
X107841380Y-134863249D01*
X107990734Y-134801385D01*
X108096344Y-134757639D01*
X108186568Y-134739693D01*
X108367013Y-134703800D01*
X108642989Y-134703800D01*
X108823434Y-134739693D01*
X108823434Y-134739693D01*
G37*
G36*
X126138433Y-134739693D02*
G01*
X126228657Y-134757639D01*
X126334267Y-134801385D01*
X126483621Y-134863249D01*
X126483622Y-134863250D01*
X126713086Y-135016572D01*
X126908228Y-135211714D01*
X127010675Y-135365037D01*
X127061551Y-135441179D01*
X127167161Y-135696144D01*
X127221000Y-135966812D01*
X127221000Y-136242788D01*
X127167161Y-136513456D01*
X127061551Y-136768421D01*
X127061550Y-136768422D01*
X126908228Y-136997886D01*
X126713086Y-137193028D01*
X126559763Y-137295475D01*
X126483621Y-137346351D01*
X126334267Y-137408215D01*
X126228657Y-137451961D01*
X126138433Y-137469907D01*
X125957988Y-137505800D01*
X125682012Y-137505800D01*
X125501567Y-137469907D01*
X125411343Y-137451961D01*
X125305733Y-137408215D01*
X125156379Y-137346351D01*
X125080237Y-137295475D01*
X124926914Y-137193028D01*
X124731772Y-136997886D01*
X124578450Y-136768422D01*
X124578449Y-136768421D01*
X124472839Y-136513456D01*
X124419000Y-136242788D01*
X124419000Y-135966812D01*
X124472839Y-135696144D01*
X124578449Y-135441179D01*
X124629325Y-135365037D01*
X124731772Y-135211714D01*
X124926914Y-135016572D01*
X125156378Y-134863250D01*
X125156379Y-134863249D01*
X125305733Y-134801385D01*
X125411343Y-134757639D01*
X125501567Y-134739693D01*
X125682012Y-134703800D01*
X125957988Y-134703800D01*
X126138433Y-134739693D01*
X126138433Y-134739693D01*
G37*
G36*
X143918433Y-134739693D02*
G01*
X144008657Y-134757639D01*
X144114267Y-134801385D01*
X144263621Y-134863249D01*
X144263622Y-134863250D01*
X144493086Y-135016572D01*
X144688228Y-135211714D01*
X144790675Y-135365037D01*
X144841551Y-135441179D01*
X144947161Y-135696144D01*
X145001000Y-135966812D01*
X145001000Y-136242788D01*
X144947161Y-136513456D01*
X144841551Y-136768421D01*
X144841550Y-136768422D01*
X144688228Y-136997886D01*
X144493086Y-137193028D01*
X144339763Y-137295475D01*
X144263621Y-137346351D01*
X144114267Y-137408215D01*
X144008657Y-137451961D01*
X143918433Y-137469907D01*
X143737988Y-137505800D01*
X143462012Y-137505800D01*
X143281567Y-137469907D01*
X143191343Y-137451961D01*
X143085733Y-137408215D01*
X142936379Y-137346351D01*
X142860237Y-137295475D01*
X142706914Y-137193028D01*
X142511772Y-136997886D01*
X142358450Y-136768422D01*
X142358449Y-136768421D01*
X142252839Y-136513456D01*
X142199000Y-136242788D01*
X142199000Y-135966812D01*
X142252839Y-135696144D01*
X142358449Y-135441179D01*
X142409325Y-135365037D01*
X142511772Y-135211714D01*
X142706914Y-135016572D01*
X142936378Y-134863250D01*
X142936379Y-134863249D01*
X143085733Y-134801385D01*
X143191343Y-134757639D01*
X143281567Y-134739693D01*
X143462012Y-134703800D01*
X143737988Y-134703800D01*
X143918433Y-134739693D01*
X143918433Y-134739693D01*
G37*
G36*
X108823434Y-86939693D02*
G01*
X108913658Y-86957639D01*
X109019268Y-87001385D01*
X109168622Y-87063249D01*
X109168623Y-87063250D01*
X109398087Y-87216572D01*
X109593229Y-87411714D01*
X109661210Y-87513456D01*
X109746552Y-87641179D01*
X109852162Y-87896144D01*
X109906001Y-88166812D01*
X109906001Y-88442788D01*
X109852162Y-88713456D01*
X109746552Y-88968421D01*
X109746551Y-88968422D01*
X109593229Y-89197886D01*
X109398087Y-89393028D01*
X109244764Y-89495475D01*
X109168622Y-89546351D01*
X109019268Y-89608215D01*
X108913658Y-89651961D01*
X108823434Y-89669907D01*
X108642989Y-89705800D01*
X108367013Y-89705800D01*
X108186568Y-89669907D01*
X108096344Y-89651961D01*
X107990734Y-89608215D01*
X107841380Y-89546351D01*
X107765238Y-89495475D01*
X107611915Y-89393028D01*
X107416773Y-89197886D01*
X107263451Y-88968422D01*
X107263450Y-88968421D01*
X107157840Y-88713456D01*
X107104001Y-88442788D01*
X107104001Y-88166812D01*
X107157840Y-87896144D01*
X107263450Y-87641179D01*
X107348792Y-87513456D01*
X107416773Y-87411714D01*
X107611915Y-87216572D01*
X107841379Y-87063250D01*
X107841380Y-87063249D01*
X107990734Y-87001385D01*
X108096344Y-86957639D01*
X108186568Y-86939693D01*
X108367013Y-86903800D01*
X108642989Y-86903800D01*
X108823434Y-86939693D01*
X108823434Y-86939693D01*
G37*
G36*
X126138433Y-86939693D02*
G01*
X126228657Y-86957639D01*
X126334267Y-87001385D01*
X126483621Y-87063249D01*
X126483622Y-87063250D01*
X126713086Y-87216572D01*
X126908228Y-87411714D01*
X126976209Y-87513456D01*
X127061551Y-87641179D01*
X127167161Y-87896144D01*
X127221000Y-88166812D01*
X127221000Y-88442788D01*
X127167161Y-88713456D01*
X127061551Y-88968421D01*
X127061550Y-88968422D01*
X126908228Y-89197886D01*
X126713086Y-89393028D01*
X126559763Y-89495475D01*
X126483621Y-89546351D01*
X126334267Y-89608215D01*
X126228657Y-89651961D01*
X126138433Y-89669907D01*
X125957988Y-89705800D01*
X125682012Y-89705800D01*
X125501567Y-89669907D01*
X125411343Y-89651961D01*
X125305733Y-89608215D01*
X125156379Y-89546351D01*
X125080237Y-89495475D01*
X124926914Y-89393028D01*
X124731772Y-89197886D01*
X124578450Y-88968422D01*
X124578449Y-88968421D01*
X124472839Y-88713456D01*
X124419000Y-88442788D01*
X124419000Y-88166812D01*
X124472839Y-87896144D01*
X124578449Y-87641179D01*
X124663791Y-87513456D01*
X124731772Y-87411714D01*
X124926914Y-87216572D01*
X125156378Y-87063250D01*
X125156379Y-87063249D01*
X125305733Y-87001385D01*
X125411343Y-86957639D01*
X125501567Y-86939693D01*
X125682012Y-86903800D01*
X125957988Y-86903800D01*
X126138433Y-86939693D01*
X126138433Y-86939693D01*
G37*
G36*
X143918433Y-86939693D02*
G01*
X144008657Y-86957639D01*
X144114267Y-87001385D01*
X144263621Y-87063249D01*
X144263622Y-87063250D01*
X144493086Y-87216572D01*
X144688228Y-87411714D01*
X144756209Y-87513456D01*
X144841551Y-87641179D01*
X144947161Y-87896144D01*
X145001000Y-88166812D01*
X145001000Y-88442788D01*
X144947161Y-88713456D01*
X144841551Y-88968421D01*
X144841550Y-88968422D01*
X144688228Y-89197886D01*
X144493086Y-89393028D01*
X144339763Y-89495475D01*
X144263621Y-89546351D01*
X144114267Y-89608215D01*
X144008657Y-89651961D01*
X143918433Y-89669907D01*
X143737988Y-89705800D01*
X143462012Y-89705800D01*
X143281567Y-89669907D01*
X143191343Y-89651961D01*
X143085733Y-89608215D01*
X142936379Y-89546351D01*
X142860237Y-89495475D01*
X142706914Y-89393028D01*
X142511772Y-89197886D01*
X142358450Y-88968422D01*
X142358449Y-88968421D01*
X142252839Y-88713456D01*
X142199000Y-88442788D01*
X142199000Y-88166812D01*
X142252839Y-87896144D01*
X142358449Y-87641179D01*
X142443791Y-87513456D01*
X142511772Y-87411714D01*
X142706914Y-87216572D01*
X142936378Y-87063250D01*
X142936379Y-87063249D01*
X143085733Y-87001385D01*
X143191343Y-86957639D01*
X143281567Y-86939693D01*
X143462012Y-86903800D01*
X143737988Y-86903800D01*
X143918433Y-86939693D01*
X143918433Y-86939693D01*
G37*
G36*
X152318433Y-85739693D02*
G01*
X152408657Y-85757639D01*
X152514267Y-85801385D01*
X152663621Y-85863249D01*
X152663622Y-85863250D01*
X152893086Y-86016572D01*
X153088228Y-86211714D01*
X153190675Y-86365037D01*
X153241551Y-86441179D01*
X153347161Y-86696144D01*
X153401000Y-86966812D01*
X153401000Y-87242788D01*
X153347161Y-87513456D01*
X153241551Y-87768421D01*
X153241550Y-87768422D01*
X153088228Y-87997886D01*
X152893086Y-88193028D01*
X152739763Y-88295475D01*
X152663621Y-88346351D01*
X152514267Y-88408215D01*
X152408657Y-88451961D01*
X152318433Y-88469907D01*
X152137988Y-88505800D01*
X151862012Y-88505800D01*
X151681567Y-88469907D01*
X151591343Y-88451961D01*
X151485733Y-88408215D01*
X151336379Y-88346351D01*
X151260237Y-88295475D01*
X151106914Y-88193028D01*
X150911772Y-87997886D01*
X150758450Y-87768422D01*
X150758449Y-87768421D01*
X150652839Y-87513456D01*
X150599000Y-87242788D01*
X150599000Y-86966812D01*
X150652839Y-86696144D01*
X150758449Y-86441179D01*
X150809325Y-86365037D01*
X150911772Y-86211714D01*
X151106914Y-86016572D01*
X151336378Y-85863250D01*
X151336379Y-85863249D01*
X151485733Y-85801385D01*
X151591343Y-85757639D01*
X151681567Y-85739693D01*
X151862012Y-85703800D01*
X152137988Y-85703800D01*
X152318433Y-85739693D01*
X152318433Y-85739693D01*
G37*
G36*
X134538433Y-85739693D02*
G01*
X134628657Y-85757639D01*
X134734267Y-85801385D01*
X134883621Y-85863249D01*
X134883622Y-85863250D01*
X135113086Y-86016572D01*
X135308228Y-86211714D01*
X135410675Y-86365037D01*
X135461551Y-86441179D01*
X135567161Y-86696144D01*
X135621000Y-86966812D01*
X135621000Y-87242788D01*
X135567161Y-87513456D01*
X135461551Y-87768421D01*
X135461550Y-87768422D01*
X135308228Y-87997886D01*
X135113086Y-88193028D01*
X134959763Y-88295475D01*
X134883621Y-88346351D01*
X134734267Y-88408215D01*
X134628657Y-88451961D01*
X134538433Y-88469907D01*
X134357988Y-88505800D01*
X134082012Y-88505800D01*
X133901567Y-88469907D01*
X133811343Y-88451961D01*
X133705733Y-88408215D01*
X133556379Y-88346351D01*
X133480237Y-88295475D01*
X133326914Y-88193028D01*
X133131772Y-87997886D01*
X132978450Y-87768422D01*
X132978449Y-87768421D01*
X132872839Y-87513456D01*
X132819000Y-87242788D01*
X132819000Y-86966812D01*
X132872839Y-86696144D01*
X132978449Y-86441179D01*
X133029325Y-86365037D01*
X133131772Y-86211714D01*
X133326914Y-86016572D01*
X133556378Y-85863250D01*
X133556379Y-85863249D01*
X133705733Y-85801385D01*
X133811343Y-85757639D01*
X133901567Y-85739693D01*
X134082012Y-85703800D01*
X134357988Y-85703800D01*
X134538433Y-85739693D01*
X134538433Y-85739693D01*
G37*
G36*
X117223434Y-85739693D02*
G01*
X117313658Y-85757639D01*
X117419268Y-85801385D01*
X117568622Y-85863249D01*
X117568623Y-85863250D01*
X117798087Y-86016572D01*
X117993229Y-86211714D01*
X118095676Y-86365037D01*
X118146552Y-86441179D01*
X118252162Y-86696144D01*
X118306001Y-86966812D01*
X118306001Y-87242788D01*
X118252162Y-87513456D01*
X118146552Y-87768421D01*
X118146551Y-87768422D01*
X117993229Y-87997886D01*
X117798087Y-88193028D01*
X117644764Y-88295475D01*
X117568622Y-88346351D01*
X117419268Y-88408215D01*
X117313658Y-88451961D01*
X117223434Y-88469907D01*
X117042989Y-88505800D01*
X116767013Y-88505800D01*
X116586568Y-88469907D01*
X116496344Y-88451961D01*
X116390734Y-88408215D01*
X116241380Y-88346351D01*
X116165238Y-88295475D01*
X116011915Y-88193028D01*
X115816773Y-87997886D01*
X115663451Y-87768422D01*
X115663450Y-87768421D01*
X115557840Y-87513456D01*
X115504001Y-87242788D01*
X115504001Y-86966812D01*
X115557840Y-86696144D01*
X115663450Y-86441179D01*
X115714326Y-86365037D01*
X115816773Y-86211714D01*
X116011915Y-86016572D01*
X116241379Y-85863250D01*
X116241380Y-85863249D01*
X116390734Y-85801385D01*
X116496344Y-85757639D01*
X116586568Y-85739693D01*
X116767013Y-85703800D01*
X117042989Y-85703800D01*
X117223434Y-85739693D01*
X117223434Y-85739693D01*
G37*
G36*
X128540104Y-82064385D02*
G01*
X128708626Y-82134189D01*
X128860291Y-82235528D01*
X128989272Y-82364509D01*
X129090611Y-82516174D01*
X129160415Y-82684696D01*
X129196000Y-82863597D01*
X129196000Y-83046003D01*
X129160415Y-83224904D01*
X129090611Y-83393426D01*
X128989272Y-83545091D01*
X128860291Y-83674072D01*
X128708626Y-83775411D01*
X128540104Y-83845215D01*
X128361203Y-83880800D01*
X128178797Y-83880800D01*
X127999896Y-83845215D01*
X127831374Y-83775411D01*
X127679709Y-83674072D01*
X127550728Y-83545091D01*
X127449389Y-83393426D01*
X127379585Y-83224904D01*
X127344000Y-83046003D01*
X127344000Y-82863597D01*
X127379585Y-82684696D01*
X127449389Y-82516174D01*
X127550728Y-82364509D01*
X127679709Y-82235528D01*
X127831374Y-82134189D01*
X127999896Y-82064385D01*
X128178797Y-82028800D01*
X128361203Y-82028800D01*
X128540104Y-82064385D01*
X128540104Y-82064385D01*
G37*
G36*
X146320104Y-82064385D02*
G01*
X146488626Y-82134189D01*
X146640291Y-82235528D01*
X146769272Y-82364509D01*
X146870611Y-82516174D01*
X146940415Y-82684696D01*
X146976000Y-82863597D01*
X146976000Y-83046003D01*
X146940415Y-83224904D01*
X146870611Y-83393426D01*
X146769272Y-83545091D01*
X146640291Y-83674072D01*
X146488626Y-83775411D01*
X146320104Y-83845215D01*
X146141203Y-83880800D01*
X145958797Y-83880800D01*
X145779896Y-83845215D01*
X145611374Y-83775411D01*
X145459709Y-83674072D01*
X145330728Y-83545091D01*
X145229389Y-83393426D01*
X145159585Y-83224904D01*
X145124000Y-83046003D01*
X145124000Y-82863597D01*
X145159585Y-82684696D01*
X145229389Y-82516174D01*
X145330728Y-82364509D01*
X145459709Y-82235528D01*
X145611374Y-82134189D01*
X145779896Y-82064385D01*
X145958797Y-82028800D01*
X146141203Y-82028800D01*
X146320104Y-82064385D01*
X146320104Y-82064385D01*
G37*
G36*
X111225105Y-82064385D02*
G01*
X111393627Y-82134189D01*
X111545292Y-82235528D01*
X111674273Y-82364509D01*
X111775612Y-82516174D01*
X111845416Y-82684696D01*
X111881001Y-82863597D01*
X111881001Y-83046003D01*
X111845416Y-83224904D01*
X111775612Y-83393426D01*
X111674273Y-83545091D01*
X111545292Y-83674072D01*
X111393627Y-83775411D01*
X111225105Y-83845215D01*
X111046204Y-83880800D01*
X110863798Y-83880800D01*
X110684897Y-83845215D01*
X110516375Y-83775411D01*
X110364710Y-83674072D01*
X110235729Y-83545091D01*
X110134390Y-83393426D01*
X110064586Y-83224904D01*
X110029001Y-83046003D01*
X110029001Y-82863597D01*
X110064586Y-82684696D01*
X110134390Y-82516174D01*
X110235729Y-82364509D01*
X110364710Y-82235528D01*
X110516375Y-82134189D01*
X110684897Y-82064385D01*
X110863798Y-82028800D01*
X111046204Y-82028800D01*
X111225105Y-82064385D01*
X111225105Y-82064385D01*
G37*
G36*
X151776823Y-75361313D02*
G01*
X151937242Y-75409976D01*
X152004361Y-75445852D01*
X152085078Y-75488996D01*
X152214659Y-75595341D01*
X152321004Y-75724922D01*
X152321005Y-75724924D01*
X152400024Y-75872758D01*
X152448687Y-76033177D01*
X152465117Y-76200000D01*
X152448687Y-76366823D01*
X152400024Y-76527242D01*
X152359477Y-76603100D01*
X152321004Y-76675078D01*
X152214659Y-76804659D01*
X152085078Y-76911004D01*
X152085076Y-76911005D01*
X151937242Y-76990024D01*
X151776823Y-77038687D01*
X151651804Y-77051000D01*
X151568196Y-77051000D01*
X151443177Y-77038687D01*
X151282758Y-76990024D01*
X151134924Y-76911005D01*
X151134922Y-76911004D01*
X151005341Y-76804659D01*
X150898996Y-76675078D01*
X150860523Y-76603100D01*
X150819976Y-76527242D01*
X150771313Y-76366823D01*
X150754883Y-76200000D01*
X150771313Y-76033177D01*
X150819976Y-75872758D01*
X150898995Y-75724924D01*
X150898996Y-75724922D01*
X151005341Y-75595341D01*
X151134922Y-75488996D01*
X151215639Y-75445852D01*
X151282758Y-75409976D01*
X151443177Y-75361313D01*
X151568196Y-75349000D01*
X151651804Y-75349000D01*
X151776823Y-75361313D01*
X151776823Y-75361313D01*
G37*
G36*
X144238228Y-75381703D02*
G01*
X144393100Y-75445853D01*
X144532481Y-75538985D01*
X144651015Y-75657519D01*
X144744147Y-75796900D01*
X144808297Y-75951772D01*
X144841000Y-76116184D01*
X144841000Y-76283816D01*
X144808297Y-76448228D01*
X144744147Y-76603100D01*
X144651015Y-76742481D01*
X144532481Y-76861015D01*
X144393100Y-76954147D01*
X144238228Y-77018297D01*
X144073816Y-77051000D01*
X143906184Y-77051000D01*
X143741772Y-77018297D01*
X143586900Y-76954147D01*
X143447519Y-76861015D01*
X143328985Y-76742481D01*
X143235853Y-76603100D01*
X143171703Y-76448228D01*
X143139000Y-76283816D01*
X143139000Y-76116184D01*
X143171703Y-75951772D01*
X143235853Y-75796900D01*
X143328985Y-75657519D01*
X143447519Y-75538985D01*
X143586900Y-75445853D01*
X143741772Y-75381703D01*
X143906184Y-75349000D01*
X144073816Y-75349000D01*
X144238228Y-75381703D01*
X144238228Y-75381703D01*
G37*
G36*
X133996823Y-75361313D02*
G01*
X134157242Y-75409976D01*
X134224361Y-75445852D01*
X134305078Y-75488996D01*
X134434659Y-75595341D01*
X134541004Y-75724922D01*
X134541005Y-75724924D01*
X134620024Y-75872758D01*
X134668687Y-76033177D01*
X134685117Y-76200000D01*
X134668687Y-76366823D01*
X134620024Y-76527242D01*
X134579477Y-76603100D01*
X134541004Y-76675078D01*
X134434659Y-76804659D01*
X134305078Y-76911004D01*
X134305076Y-76911005D01*
X134157242Y-76990024D01*
X133996823Y-77038687D01*
X133871804Y-77051000D01*
X133788196Y-77051000D01*
X133663177Y-77038687D01*
X133502758Y-76990024D01*
X133354924Y-76911005D01*
X133354922Y-76911004D01*
X133225341Y-76804659D01*
X133118996Y-76675078D01*
X133080523Y-76603100D01*
X133039976Y-76527242D01*
X132991313Y-76366823D01*
X132974883Y-76200000D01*
X132991313Y-76033177D01*
X133039976Y-75872758D01*
X133118995Y-75724924D01*
X133118996Y-75724922D01*
X133225341Y-75595341D01*
X133354922Y-75488996D01*
X133435639Y-75445852D01*
X133502758Y-75409976D01*
X133663177Y-75361313D01*
X133788196Y-75349000D01*
X133871804Y-75349000D01*
X133996823Y-75361313D01*
X133996823Y-75361313D01*
G37*
G36*
X126458228Y-75381703D02*
G01*
X126613100Y-75445853D01*
X126752481Y-75538985D01*
X126871015Y-75657519D01*
X126964147Y-75796900D01*
X127028297Y-75951772D01*
X127061000Y-76116184D01*
X127061000Y-76283816D01*
X127028297Y-76448228D01*
X126964147Y-76603100D01*
X126871015Y-76742481D01*
X126752481Y-76861015D01*
X126613100Y-76954147D01*
X126458228Y-77018297D01*
X126293816Y-77051000D01*
X126126184Y-77051000D01*
X125961772Y-77018297D01*
X125806900Y-76954147D01*
X125667519Y-76861015D01*
X125548985Y-76742481D01*
X125455853Y-76603100D01*
X125391703Y-76448228D01*
X125359000Y-76283816D01*
X125359000Y-76116184D01*
X125391703Y-75951772D01*
X125455853Y-75796900D01*
X125548985Y-75657519D01*
X125667519Y-75538985D01*
X125806900Y-75445853D01*
X125961772Y-75381703D01*
X126126184Y-75349000D01*
X126293816Y-75349000D01*
X126458228Y-75381703D01*
X126458228Y-75381703D01*
G37*
G36*
X109143229Y-75381703D02*
G01*
X109298101Y-75445853D01*
X109437482Y-75538985D01*
X109556016Y-75657519D01*
X109649148Y-75796900D01*
X109713298Y-75951772D01*
X109746001Y-76116184D01*
X109746001Y-76283816D01*
X109713298Y-76448228D01*
X109649148Y-76603100D01*
X109556016Y-76742481D01*
X109437482Y-76861015D01*
X109298101Y-76954147D01*
X109143229Y-77018297D01*
X108978817Y-77051000D01*
X108811185Y-77051000D01*
X108646773Y-77018297D01*
X108491901Y-76954147D01*
X108352520Y-76861015D01*
X108233986Y-76742481D01*
X108140854Y-76603100D01*
X108076704Y-76448228D01*
X108044001Y-76283816D01*
X108044001Y-76116184D01*
X108076704Y-75951772D01*
X108140854Y-75796900D01*
X108233986Y-75657519D01*
X108352520Y-75538985D01*
X108491901Y-75445853D01*
X108646773Y-75381703D01*
X108811185Y-75349000D01*
X108978817Y-75349000D01*
X109143229Y-75381703D01*
X109143229Y-75381703D01*
G37*
G36*
X116681824Y-75361313D02*
G01*
X116842243Y-75409976D01*
X116909362Y-75445852D01*
X116990079Y-75488996D01*
X117119660Y-75595341D01*
X117226005Y-75724922D01*
X117226006Y-75724924D01*
X117305025Y-75872758D01*
X117353688Y-76033177D01*
X117370118Y-76200000D01*
X117353688Y-76366823D01*
X117305025Y-76527242D01*
X117264478Y-76603100D01*
X117226005Y-76675078D01*
X117119660Y-76804659D01*
X116990079Y-76911004D01*
X116990077Y-76911005D01*
X116842243Y-76990024D01*
X116681824Y-77038687D01*
X116556805Y-77051000D01*
X116473197Y-77051000D01*
X116348178Y-77038687D01*
X116187759Y-76990024D01*
X116039925Y-76911005D01*
X116039923Y-76911004D01*
X115910342Y-76804659D01*
X115803997Y-76675078D01*
X115765524Y-76603100D01*
X115724977Y-76527242D01*
X115676314Y-76366823D01*
X115659884Y-76200000D01*
X115676314Y-76033177D01*
X115724977Y-75872758D01*
X115803996Y-75724924D01*
X115803997Y-75724922D01*
X115910342Y-75595341D01*
X116039923Y-75488996D01*
X116120640Y-75445852D01*
X116187759Y-75409976D01*
X116348178Y-75361313D01*
X116473197Y-75349000D01*
X116556805Y-75349000D01*
X116681824Y-75361313D01*
X116681824Y-75361313D01*
G37*
G36*
X151786823Y-69011313D02*
G01*
X151947242Y-69059976D01*
X152079906Y-69130886D01*
X152095078Y-69138996D01*
X152224659Y-69245341D01*
X152331004Y-69374922D01*
X152331005Y-69374924D01*
X152410024Y-69522758D01*
X152458687Y-69683177D01*
X152475117Y-69850000D01*
X152458687Y-70016823D01*
X152410024Y-70177242D01*
X152339114Y-70309906D01*
X152331004Y-70325078D01*
X152224659Y-70454659D01*
X152095078Y-70561004D01*
X152095076Y-70561005D01*
X151947242Y-70640024D01*
X151786823Y-70688687D01*
X151661804Y-70701000D01*
X151578196Y-70701000D01*
X151453177Y-70688687D01*
X151292758Y-70640024D01*
X151144924Y-70561005D01*
X151144922Y-70561004D01*
X151015341Y-70454659D01*
X150908996Y-70325078D01*
X150900886Y-70309906D01*
X150829976Y-70177242D01*
X150781313Y-70016823D01*
X150764883Y-69850000D01*
X150781313Y-69683177D01*
X150829976Y-69522758D01*
X150908995Y-69374924D01*
X150908996Y-69374922D01*
X151015341Y-69245341D01*
X151144922Y-69138996D01*
X151160094Y-69130886D01*
X151292758Y-69059976D01*
X151453177Y-69011313D01*
X151578196Y-68999000D01*
X151661804Y-68999000D01*
X151786823Y-69011313D01*
X151786823Y-69011313D01*
G37*
G36*
X144166823Y-69011313D02*
G01*
X144327242Y-69059976D01*
X144459906Y-69130886D01*
X144475078Y-69138996D01*
X144604659Y-69245341D01*
X144711004Y-69374922D01*
X144711005Y-69374924D01*
X144790024Y-69522758D01*
X144838687Y-69683177D01*
X144855117Y-69850000D01*
X144838687Y-70016823D01*
X144790024Y-70177242D01*
X144719114Y-70309906D01*
X144711004Y-70325078D01*
X144604659Y-70454659D01*
X144475078Y-70561004D01*
X144475076Y-70561005D01*
X144327242Y-70640024D01*
X144166823Y-70688687D01*
X144041804Y-70701000D01*
X143958196Y-70701000D01*
X143833177Y-70688687D01*
X143672758Y-70640024D01*
X143524924Y-70561005D01*
X143524922Y-70561004D01*
X143395341Y-70454659D01*
X143288996Y-70325078D01*
X143280886Y-70309906D01*
X143209976Y-70177242D01*
X143161313Y-70016823D01*
X143144883Y-69850000D01*
X143161313Y-69683177D01*
X143209976Y-69522758D01*
X143288995Y-69374924D01*
X143288996Y-69374922D01*
X143395341Y-69245341D01*
X143524922Y-69138996D01*
X143540094Y-69130886D01*
X143672758Y-69059976D01*
X143833177Y-69011313D01*
X143958196Y-68999000D01*
X144041804Y-68999000D01*
X144166823Y-69011313D01*
X144166823Y-69011313D01*
G37*
G36*
X109071824Y-69011313D02*
G01*
X109232243Y-69059976D01*
X109364907Y-69130886D01*
X109380079Y-69138996D01*
X109509660Y-69245341D01*
X109616005Y-69374922D01*
X109616006Y-69374924D01*
X109695025Y-69522758D01*
X109743688Y-69683177D01*
X109760118Y-69850000D01*
X109743688Y-70016823D01*
X109695025Y-70177242D01*
X109624115Y-70309906D01*
X109616005Y-70325078D01*
X109509660Y-70454659D01*
X109380079Y-70561004D01*
X109380077Y-70561005D01*
X109232243Y-70640024D01*
X109071824Y-70688687D01*
X108946805Y-70701000D01*
X108863197Y-70701000D01*
X108738178Y-70688687D01*
X108577759Y-70640024D01*
X108429925Y-70561005D01*
X108429923Y-70561004D01*
X108300342Y-70454659D01*
X108193997Y-70325078D01*
X108185887Y-70309906D01*
X108114977Y-70177242D01*
X108066314Y-70016823D01*
X108049884Y-69850000D01*
X108066314Y-69683177D01*
X108114977Y-69522758D01*
X108193996Y-69374924D01*
X108193997Y-69374922D01*
X108300342Y-69245341D01*
X108429923Y-69138996D01*
X108445095Y-69130886D01*
X108577759Y-69059976D01*
X108738178Y-69011313D01*
X108863197Y-68999000D01*
X108946805Y-68999000D01*
X109071824Y-69011313D01*
X109071824Y-69011313D01*
G37*
G36*
X116691824Y-69011313D02*
G01*
X116852243Y-69059976D01*
X116984907Y-69130886D01*
X117000079Y-69138996D01*
X117129660Y-69245341D01*
X117236005Y-69374922D01*
X117236006Y-69374924D01*
X117315025Y-69522758D01*
X117363688Y-69683177D01*
X117380118Y-69850000D01*
X117363688Y-70016823D01*
X117315025Y-70177242D01*
X117244115Y-70309906D01*
X117236005Y-70325078D01*
X117129660Y-70454659D01*
X117000079Y-70561004D01*
X117000077Y-70561005D01*
X116852243Y-70640024D01*
X116691824Y-70688687D01*
X116566805Y-70701000D01*
X116483197Y-70701000D01*
X116358178Y-70688687D01*
X116197759Y-70640024D01*
X116049925Y-70561005D01*
X116049923Y-70561004D01*
X115920342Y-70454659D01*
X115813997Y-70325078D01*
X115805887Y-70309906D01*
X115734977Y-70177242D01*
X115686314Y-70016823D01*
X115669884Y-69850000D01*
X115686314Y-69683177D01*
X115734977Y-69522758D01*
X115813996Y-69374924D01*
X115813997Y-69374922D01*
X115920342Y-69245341D01*
X116049923Y-69138996D01*
X116065095Y-69130886D01*
X116197759Y-69059976D01*
X116358178Y-69011313D01*
X116483197Y-68999000D01*
X116566805Y-68999000D01*
X116691824Y-69011313D01*
X116691824Y-69011313D01*
G37*
G36*
X109071824Y-66471313D02*
G01*
X109232243Y-66519976D01*
X109364907Y-66590886D01*
X109380079Y-66598996D01*
X109509660Y-66705341D01*
X109616005Y-66834922D01*
X109616006Y-66834924D01*
X109695025Y-66982758D01*
X109743688Y-67143177D01*
X109760118Y-67310000D01*
X109743688Y-67476823D01*
X109695025Y-67637242D01*
X109624115Y-67769906D01*
X109616005Y-67785078D01*
X109509660Y-67914659D01*
X109380079Y-68021004D01*
X109380077Y-68021005D01*
X109232243Y-68100024D01*
X109071824Y-68148687D01*
X108946805Y-68161000D01*
X108863197Y-68161000D01*
X108738178Y-68148687D01*
X108577759Y-68100024D01*
X108429925Y-68021005D01*
X108429923Y-68021004D01*
X108300342Y-67914659D01*
X108193997Y-67785078D01*
X108185887Y-67769906D01*
X108114977Y-67637242D01*
X108066314Y-67476823D01*
X108049884Y-67310000D01*
X108066314Y-67143177D01*
X108114977Y-66982758D01*
X108193996Y-66834924D01*
X108193997Y-66834922D01*
X108300342Y-66705341D01*
X108429923Y-66598996D01*
X108445095Y-66590886D01*
X108577759Y-66519976D01*
X108738178Y-66471313D01*
X108863197Y-66459000D01*
X108946805Y-66459000D01*
X109071824Y-66471313D01*
X109071824Y-66471313D01*
G37*
G36*
X151786823Y-66471313D02*
G01*
X151947242Y-66519976D01*
X152079906Y-66590886D01*
X152095078Y-66598996D01*
X152224659Y-66705341D01*
X152331004Y-66834922D01*
X152331005Y-66834924D01*
X152410024Y-66982758D01*
X152458687Y-67143177D01*
X152475117Y-67310000D01*
X152458687Y-67476823D01*
X152410024Y-67637242D01*
X152339114Y-67769906D01*
X152331004Y-67785078D01*
X152224659Y-67914659D01*
X152095078Y-68021004D01*
X152095076Y-68021005D01*
X151947242Y-68100024D01*
X151786823Y-68148687D01*
X151661804Y-68161000D01*
X151578196Y-68161000D01*
X151453177Y-68148687D01*
X151292758Y-68100024D01*
X151144924Y-68021005D01*
X151144922Y-68021004D01*
X151015341Y-67914659D01*
X150908996Y-67785078D01*
X150900886Y-67769906D01*
X150829976Y-67637242D01*
X150781313Y-67476823D01*
X150764883Y-67310000D01*
X150781313Y-67143177D01*
X150829976Y-66982758D01*
X150908995Y-66834924D01*
X150908996Y-66834922D01*
X151015341Y-66705341D01*
X151144922Y-66598996D01*
X151160094Y-66590886D01*
X151292758Y-66519976D01*
X151453177Y-66471313D01*
X151578196Y-66459000D01*
X151661804Y-66459000D01*
X151786823Y-66471313D01*
X151786823Y-66471313D01*
G37*
G36*
X144166823Y-66471313D02*
G01*
X144327242Y-66519976D01*
X144459906Y-66590886D01*
X144475078Y-66598996D01*
X144604659Y-66705341D01*
X144711004Y-66834922D01*
X144711005Y-66834924D01*
X144790024Y-66982758D01*
X144838687Y-67143177D01*
X144855117Y-67310000D01*
X144838687Y-67476823D01*
X144790024Y-67637242D01*
X144719114Y-67769906D01*
X144711004Y-67785078D01*
X144604659Y-67914659D01*
X144475078Y-68021004D01*
X144475076Y-68021005D01*
X144327242Y-68100024D01*
X144166823Y-68148687D01*
X144041804Y-68161000D01*
X143958196Y-68161000D01*
X143833177Y-68148687D01*
X143672758Y-68100024D01*
X143524924Y-68021005D01*
X143524922Y-68021004D01*
X143395341Y-67914659D01*
X143288996Y-67785078D01*
X143280886Y-67769906D01*
X143209976Y-67637242D01*
X143161313Y-67476823D01*
X143144883Y-67310000D01*
X143161313Y-67143177D01*
X143209976Y-66982758D01*
X143288995Y-66834924D01*
X143288996Y-66834922D01*
X143395341Y-66705341D01*
X143524922Y-66598996D01*
X143540094Y-66590886D01*
X143672758Y-66519976D01*
X143833177Y-66471313D01*
X143958196Y-66459000D01*
X144041804Y-66459000D01*
X144166823Y-66471313D01*
X144166823Y-66471313D01*
G37*
G36*
X116691824Y-66471313D02*
G01*
X116852243Y-66519976D01*
X116984907Y-66590886D01*
X117000079Y-66598996D01*
X117129660Y-66705341D01*
X117236005Y-66834922D01*
X117236006Y-66834924D01*
X117315025Y-66982758D01*
X117363688Y-67143177D01*
X117380118Y-67310000D01*
X117363688Y-67476823D01*
X117315025Y-67637242D01*
X117244115Y-67769906D01*
X117236005Y-67785078D01*
X117129660Y-67914659D01*
X117000079Y-68021004D01*
X117000077Y-68021005D01*
X116852243Y-68100024D01*
X116691824Y-68148687D01*
X116566805Y-68161000D01*
X116483197Y-68161000D01*
X116358178Y-68148687D01*
X116197759Y-68100024D01*
X116049925Y-68021005D01*
X116049923Y-68021004D01*
X115920342Y-67914659D01*
X115813997Y-67785078D01*
X115805887Y-67769906D01*
X115734977Y-67637242D01*
X115686314Y-67476823D01*
X115669884Y-67310000D01*
X115686314Y-67143177D01*
X115734977Y-66982758D01*
X115813996Y-66834924D01*
X115813997Y-66834922D01*
X115920342Y-66705341D01*
X116049923Y-66598996D01*
X116065095Y-66590886D01*
X116197759Y-66519976D01*
X116358178Y-66471313D01*
X116483197Y-66459000D01*
X116566805Y-66459000D01*
X116691824Y-66471313D01*
X116691824Y-66471313D01*
G37*
G36*
X132665442Y-65135518D02*
G01*
X132731627Y-65142037D01*
X132901466Y-65193557D01*
X133057991Y-65277222D01*
X133093729Y-65306552D01*
X133195186Y-65389814D01*
X133270023Y-65481005D01*
X133307778Y-65527009D01*
X133391443Y-65683534D01*
X133442963Y-65853373D01*
X133460359Y-66030000D01*
X133442963Y-66206627D01*
X133391443Y-66376466D01*
X133307778Y-66532991D01*
X133278448Y-66568729D01*
X133195186Y-66670186D01*
X133093729Y-66753448D01*
X133057991Y-66782778D01*
X132901466Y-66866443D01*
X132731627Y-66917963D01*
X132665443Y-66924481D01*
X132599260Y-66931000D01*
X132510740Y-66931000D01*
X132444557Y-66924481D01*
X132378373Y-66917963D01*
X132208534Y-66866443D01*
X132052009Y-66782778D01*
X132016271Y-66753448D01*
X131914814Y-66670186D01*
X131831552Y-66568729D01*
X131802222Y-66532991D01*
X131718557Y-66376466D01*
X131667037Y-66206627D01*
X131649641Y-66030000D01*
X131667037Y-65853373D01*
X131718557Y-65683534D01*
X131802222Y-65527009D01*
X131839977Y-65481005D01*
X131914814Y-65389814D01*
X132016271Y-65306552D01*
X132052009Y-65277222D01*
X132208534Y-65193557D01*
X132378373Y-65142037D01*
X132444558Y-65135518D01*
X132510740Y-65129000D01*
X132599260Y-65129000D01*
X132665442Y-65135518D01*
X132665442Y-65135518D01*
G37*
G36*
X135996000Y-66931000D02*
G01*
X134194000Y-66931000D01*
X134194000Y-65129000D01*
X135996000Y-65129000D01*
X135996000Y-66931000D01*
X135996000Y-66931000D01*
G37*
G36*
X130125442Y-65135518D02*
G01*
X130191627Y-65142037D01*
X130361466Y-65193557D01*
X130517991Y-65277222D01*
X130553729Y-65306552D01*
X130655186Y-65389814D01*
X130730023Y-65481005D01*
X130767778Y-65527009D01*
X130851443Y-65683534D01*
X130902963Y-65853373D01*
X130920359Y-66030000D01*
X130902963Y-66206627D01*
X130851443Y-66376466D01*
X130767778Y-66532991D01*
X130738448Y-66568729D01*
X130655186Y-66670186D01*
X130553729Y-66753448D01*
X130517991Y-66782778D01*
X130361466Y-66866443D01*
X130191627Y-66917963D01*
X130125443Y-66924481D01*
X130059260Y-66931000D01*
X129970740Y-66931000D01*
X129904557Y-66924481D01*
X129838373Y-66917963D01*
X129668534Y-66866443D01*
X129512009Y-66782778D01*
X129476271Y-66753448D01*
X129374814Y-66670186D01*
X129291552Y-66568729D01*
X129262222Y-66532991D01*
X129178557Y-66376466D01*
X129127037Y-66206627D01*
X129109641Y-66030000D01*
X129127037Y-65853373D01*
X129178557Y-65683534D01*
X129262222Y-65527009D01*
X129299977Y-65481005D01*
X129374814Y-65389814D01*
X129476271Y-65306552D01*
X129512009Y-65277222D01*
X129668534Y-65193557D01*
X129838373Y-65142037D01*
X129904558Y-65135518D01*
X129970740Y-65129000D01*
X130059260Y-65129000D01*
X130125442Y-65135518D01*
X130125442Y-65135518D01*
G37*
G36*
X127585442Y-65135518D02*
G01*
X127651627Y-65142037D01*
X127821466Y-65193557D01*
X127977991Y-65277222D01*
X128013729Y-65306552D01*
X128115186Y-65389814D01*
X128190023Y-65481005D01*
X128227778Y-65527009D01*
X128311443Y-65683534D01*
X128362963Y-65853373D01*
X128380359Y-66030000D01*
X128362963Y-66206627D01*
X128311443Y-66376466D01*
X128227778Y-66532991D01*
X128198448Y-66568729D01*
X128115186Y-66670186D01*
X128013729Y-66753448D01*
X127977991Y-66782778D01*
X127821466Y-66866443D01*
X127651627Y-66917963D01*
X127585443Y-66924481D01*
X127519260Y-66931000D01*
X127430740Y-66931000D01*
X127364557Y-66924481D01*
X127298373Y-66917963D01*
X127128534Y-66866443D01*
X126972009Y-66782778D01*
X126936271Y-66753448D01*
X126834814Y-66670186D01*
X126751552Y-66568729D01*
X126722222Y-66532991D01*
X126638557Y-66376466D01*
X126587037Y-66206627D01*
X126569641Y-66030000D01*
X126587037Y-65853373D01*
X126638557Y-65683534D01*
X126722222Y-65527009D01*
X126759977Y-65481005D01*
X126834814Y-65389814D01*
X126936271Y-65306552D01*
X126972009Y-65277222D01*
X127128534Y-65193557D01*
X127298373Y-65142037D01*
X127364558Y-65135518D01*
X127430740Y-65129000D01*
X127519260Y-65129000D01*
X127585442Y-65135518D01*
X127585442Y-65135518D01*
G37*
G36*
X125045442Y-65135518D02*
G01*
X125111627Y-65142037D01*
X125281466Y-65193557D01*
X125437991Y-65277222D01*
X125473729Y-65306552D01*
X125575186Y-65389814D01*
X125650023Y-65481005D01*
X125687778Y-65527009D01*
X125771443Y-65683534D01*
X125822963Y-65853373D01*
X125840359Y-66030000D01*
X125822963Y-66206627D01*
X125771443Y-66376466D01*
X125687778Y-66532991D01*
X125658448Y-66568729D01*
X125575186Y-66670186D01*
X125473729Y-66753448D01*
X125437991Y-66782778D01*
X125281466Y-66866443D01*
X125111627Y-66917963D01*
X125045443Y-66924481D01*
X124979260Y-66931000D01*
X124890740Y-66931000D01*
X124824557Y-66924481D01*
X124758373Y-66917963D01*
X124588534Y-66866443D01*
X124432009Y-66782778D01*
X124396271Y-66753448D01*
X124294814Y-66670186D01*
X124211552Y-66568729D01*
X124182222Y-66532991D01*
X124098557Y-66376466D01*
X124047037Y-66206627D01*
X124029641Y-66030000D01*
X124047037Y-65853373D01*
X124098557Y-65683534D01*
X124182222Y-65527009D01*
X124219977Y-65481005D01*
X124294814Y-65389814D01*
X124396271Y-65306552D01*
X124432009Y-65277222D01*
X124588534Y-65193557D01*
X124758373Y-65142037D01*
X124824558Y-65135518D01*
X124890740Y-65129000D01*
X124979260Y-65129000D01*
X125045442Y-65135518D01*
X125045442Y-65135518D01*
G37*
G36*
X109071824Y-63931313D02*
G01*
X109232243Y-63979976D01*
X109364907Y-64050886D01*
X109380079Y-64058996D01*
X109509660Y-64165341D01*
X109616005Y-64294922D01*
X109616006Y-64294924D01*
X109695025Y-64442758D01*
X109743688Y-64603177D01*
X109760118Y-64770000D01*
X109743688Y-64936823D01*
X109695025Y-65097242D01*
X109643543Y-65193558D01*
X109616005Y-65245078D01*
X109509660Y-65374659D01*
X109380079Y-65481004D01*
X109380077Y-65481005D01*
X109232243Y-65560024D01*
X109071824Y-65608687D01*
X108946805Y-65621000D01*
X108863197Y-65621000D01*
X108738178Y-65608687D01*
X108577759Y-65560024D01*
X108429925Y-65481005D01*
X108429923Y-65481004D01*
X108300342Y-65374659D01*
X108193997Y-65245078D01*
X108166459Y-65193558D01*
X108114977Y-65097242D01*
X108066314Y-64936823D01*
X108049884Y-64770000D01*
X108066314Y-64603177D01*
X108114977Y-64442758D01*
X108193996Y-64294924D01*
X108193997Y-64294922D01*
X108300342Y-64165341D01*
X108429923Y-64058996D01*
X108445095Y-64050886D01*
X108577759Y-63979976D01*
X108738178Y-63931313D01*
X108863197Y-63919000D01*
X108946805Y-63919000D01*
X109071824Y-63931313D01*
X109071824Y-63931313D01*
G37*
G36*
X116691824Y-63931313D02*
G01*
X116852243Y-63979976D01*
X116984907Y-64050886D01*
X117000079Y-64058996D01*
X117129660Y-64165341D01*
X117236005Y-64294922D01*
X117236006Y-64294924D01*
X117315025Y-64442758D01*
X117363688Y-64603177D01*
X117380118Y-64770000D01*
X117363688Y-64936823D01*
X117315025Y-65097242D01*
X117263543Y-65193558D01*
X117236005Y-65245078D01*
X117129660Y-65374659D01*
X117000079Y-65481004D01*
X117000077Y-65481005D01*
X116852243Y-65560024D01*
X116691824Y-65608687D01*
X116566805Y-65621000D01*
X116483197Y-65621000D01*
X116358178Y-65608687D01*
X116197759Y-65560024D01*
X116049925Y-65481005D01*
X116049923Y-65481004D01*
X115920342Y-65374659D01*
X115813997Y-65245078D01*
X115786459Y-65193558D01*
X115734977Y-65097242D01*
X115686314Y-64936823D01*
X115669884Y-64770000D01*
X115686314Y-64603177D01*
X115734977Y-64442758D01*
X115813996Y-64294924D01*
X115813997Y-64294922D01*
X115920342Y-64165341D01*
X116049923Y-64058996D01*
X116065095Y-64050886D01*
X116197759Y-63979976D01*
X116358178Y-63931313D01*
X116483197Y-63919000D01*
X116566805Y-63919000D01*
X116691824Y-63931313D01*
X116691824Y-63931313D01*
G37*
G36*
X144166823Y-63931313D02*
G01*
X144327242Y-63979976D01*
X144459906Y-64050886D01*
X144475078Y-64058996D01*
X144604659Y-64165341D01*
X144711004Y-64294922D01*
X144711005Y-64294924D01*
X144790024Y-64442758D01*
X144838687Y-64603177D01*
X144855117Y-64770000D01*
X144838687Y-64936823D01*
X144790024Y-65097242D01*
X144738542Y-65193558D01*
X144711004Y-65245078D01*
X144604659Y-65374659D01*
X144475078Y-65481004D01*
X144475076Y-65481005D01*
X144327242Y-65560024D01*
X144166823Y-65608687D01*
X144041804Y-65621000D01*
X143958196Y-65621000D01*
X143833177Y-65608687D01*
X143672758Y-65560024D01*
X143524924Y-65481005D01*
X143524922Y-65481004D01*
X143395341Y-65374659D01*
X143288996Y-65245078D01*
X143261458Y-65193558D01*
X143209976Y-65097242D01*
X143161313Y-64936823D01*
X143144883Y-64770000D01*
X143161313Y-64603177D01*
X143209976Y-64442758D01*
X143288995Y-64294924D01*
X143288996Y-64294922D01*
X143395341Y-64165341D01*
X143524922Y-64058996D01*
X143540094Y-64050886D01*
X143672758Y-63979976D01*
X143833177Y-63931313D01*
X143958196Y-63919000D01*
X144041804Y-63919000D01*
X144166823Y-63931313D01*
X144166823Y-63931313D01*
G37*
G36*
X151786823Y-63931313D02*
G01*
X151947242Y-63979976D01*
X152079906Y-64050886D01*
X152095078Y-64058996D01*
X152224659Y-64165341D01*
X152331004Y-64294922D01*
X152331005Y-64294924D01*
X152410024Y-64442758D01*
X152458687Y-64603177D01*
X152475117Y-64770000D01*
X152458687Y-64936823D01*
X152410024Y-65097242D01*
X152358542Y-65193558D01*
X152331004Y-65245078D01*
X152224659Y-65374659D01*
X152095078Y-65481004D01*
X152095076Y-65481005D01*
X151947242Y-65560024D01*
X151786823Y-65608687D01*
X151661804Y-65621000D01*
X151578196Y-65621000D01*
X151453177Y-65608687D01*
X151292758Y-65560024D01*
X151144924Y-65481005D01*
X151144922Y-65481004D01*
X151015341Y-65374659D01*
X150908996Y-65245078D01*
X150881458Y-65193558D01*
X150829976Y-65097242D01*
X150781313Y-64936823D01*
X150764883Y-64770000D01*
X150781313Y-64603177D01*
X150829976Y-64442758D01*
X150908995Y-64294924D01*
X150908996Y-64294922D01*
X151015341Y-64165341D01*
X151144922Y-64058996D01*
X151160094Y-64050886D01*
X151292758Y-63979976D01*
X151453177Y-63931313D01*
X151578196Y-63919000D01*
X151661804Y-63919000D01*
X151786823Y-63931313D01*
X151786823Y-63931313D01*
G37*
G36*
X109756001Y-63081000D02*
G01*
X108054001Y-63081000D01*
X108054001Y-61379000D01*
X109756001Y-61379000D01*
X109756001Y-63081000D01*
X109756001Y-63081000D01*
G37*
G36*
X151786823Y-61391313D02*
G01*
X151947242Y-61439976D01*
X152079906Y-61510886D01*
X152095078Y-61518996D01*
X152224659Y-61625341D01*
X152331004Y-61754922D01*
X152331005Y-61754924D01*
X152410024Y-61902758D01*
X152458687Y-62063177D01*
X152475117Y-62230000D01*
X152458687Y-62396823D01*
X152410024Y-62557242D01*
X152339114Y-62689906D01*
X152331004Y-62705078D01*
X152224659Y-62834659D01*
X152095078Y-62941004D01*
X152095076Y-62941005D01*
X151947242Y-63020024D01*
X151786823Y-63068687D01*
X151661804Y-63081000D01*
X151578196Y-63081000D01*
X151453177Y-63068687D01*
X151292758Y-63020024D01*
X151144924Y-62941005D01*
X151144922Y-62941004D01*
X151015341Y-62834659D01*
X150908996Y-62705078D01*
X150900886Y-62689906D01*
X150829976Y-62557242D01*
X150781313Y-62396823D01*
X150764883Y-62230000D01*
X150781313Y-62063177D01*
X150829976Y-61902758D01*
X150908995Y-61754924D01*
X150908996Y-61754922D01*
X151015341Y-61625341D01*
X151144922Y-61518996D01*
X151160094Y-61510886D01*
X151292758Y-61439976D01*
X151453177Y-61391313D01*
X151578196Y-61379000D01*
X151661804Y-61379000D01*
X151786823Y-61391313D01*
X151786823Y-61391313D01*
G37*
G36*
X116691824Y-61391313D02*
G01*
X116852243Y-61439976D01*
X116984907Y-61510886D01*
X117000079Y-61518996D01*
X117129660Y-61625341D01*
X117236005Y-61754922D01*
X117236006Y-61754924D01*
X117315025Y-61902758D01*
X117363688Y-62063177D01*
X117380118Y-62230000D01*
X117363688Y-62396823D01*
X117315025Y-62557242D01*
X117244115Y-62689906D01*
X117236005Y-62705078D01*
X117129660Y-62834659D01*
X117000079Y-62941004D01*
X117000077Y-62941005D01*
X116852243Y-63020024D01*
X116691824Y-63068687D01*
X116566805Y-63081000D01*
X116483197Y-63081000D01*
X116358178Y-63068687D01*
X116197759Y-63020024D01*
X116049925Y-62941005D01*
X116049923Y-62941004D01*
X115920342Y-62834659D01*
X115813997Y-62705078D01*
X115805887Y-62689906D01*
X115734977Y-62557242D01*
X115686314Y-62396823D01*
X115669884Y-62230000D01*
X115686314Y-62063177D01*
X115734977Y-61902758D01*
X115813996Y-61754924D01*
X115813997Y-61754922D01*
X115920342Y-61625341D01*
X116049923Y-61518996D01*
X116065095Y-61510886D01*
X116197759Y-61439976D01*
X116358178Y-61391313D01*
X116483197Y-61379000D01*
X116566805Y-61379000D01*
X116691824Y-61391313D01*
X116691824Y-61391313D01*
G37*
G36*
X144851000Y-63081000D02*
G01*
X143149000Y-63081000D01*
X143149000Y-61379000D01*
X144851000Y-61379000D01*
X144851000Y-63081000D01*
X144851000Y-63081000D01*
G37*
G36*
X113146001Y-55186000D02*
G01*
X112981661Y-55186000D01*
X112957275Y-55188402D01*
X112933826Y-55195515D01*
X112912215Y-55207066D01*
X112893273Y-55222611D01*
X112877728Y-55241553D01*
X112866177Y-55263164D01*
X112859064Y-55286613D01*
X112856662Y-55310999D01*
X112859064Y-55335385D01*
X112866177Y-55358834D01*
X112877728Y-55380445D01*
X112893273Y-55399387D01*
X112902346Y-55407609D01*
X112979265Y-55470736D01*
X113051245Y-55558443D01*
X113085430Y-55622399D01*
X113104729Y-55658505D01*
X113104730Y-55658508D01*
X113137667Y-55767084D01*
X113148788Y-55880000D01*
X113137667Y-55992916D01*
X113114807Y-56068272D01*
X113104729Y-56101495D01*
X113088277Y-56132274D01*
X113051245Y-56201557D01*
X112979265Y-56289264D01*
X112891558Y-56361244D01*
X112837614Y-56390077D01*
X112810142Y-56404761D01*
X112789767Y-56418375D01*
X112772440Y-56435702D01*
X112758827Y-56456076D01*
X112749449Y-56478715D01*
X112744669Y-56502748D01*
X112744669Y-56527252D01*
X112749449Y-56551285D01*
X112758827Y-56573924D01*
X112772441Y-56594299D01*
X112789768Y-56611626D01*
X112810142Y-56625239D01*
X112891558Y-56668756D01*
X112979265Y-56740736D01*
X113051245Y-56828443D01*
X113085430Y-56892399D01*
X113104729Y-56928505D01*
X113104730Y-56928508D01*
X113137667Y-57037084D01*
X113148788Y-57150000D01*
X113137667Y-57262916D01*
X113104730Y-57371492D01*
X113104729Y-57371495D01*
X113085430Y-57407601D01*
X113051245Y-57471557D01*
X112979265Y-57559264D01*
X112891558Y-57631244D01*
X112827602Y-57665429D01*
X112791496Y-57684728D01*
X112791493Y-57684729D01*
X112682917Y-57717666D01*
X112598299Y-57726000D01*
X112091703Y-57726000D01*
X112007085Y-57717666D01*
X111898509Y-57684729D01*
X111898506Y-57684728D01*
X111862400Y-57665429D01*
X111798444Y-57631244D01*
X111710737Y-57559264D01*
X111638757Y-57471557D01*
X111604572Y-57407601D01*
X111585273Y-57371495D01*
X111585272Y-57371492D01*
X111552335Y-57262916D01*
X111541214Y-57150000D01*
X111552335Y-57037084D01*
X111585272Y-56928508D01*
X111585273Y-56928505D01*
X111604572Y-56892399D01*
X111638757Y-56828443D01*
X111710737Y-56740736D01*
X111798444Y-56668756D01*
X111879860Y-56625239D01*
X111900235Y-56611625D01*
X111917562Y-56594298D01*
X111931175Y-56573924D01*
X111940553Y-56551285D01*
X111945333Y-56527252D01*
X111945333Y-56502748D01*
X111940553Y-56478715D01*
X111931175Y-56456076D01*
X111917561Y-56435701D01*
X111900234Y-56418374D01*
X111879860Y-56404761D01*
X111852388Y-56390077D01*
X111798444Y-56361244D01*
X111710737Y-56289264D01*
X111638757Y-56201557D01*
X111601725Y-56132274D01*
X111585273Y-56101495D01*
X111575195Y-56068272D01*
X111552335Y-55992916D01*
X111541214Y-55880000D01*
X111552335Y-55767084D01*
X111585272Y-55658508D01*
X111585273Y-55658505D01*
X111604572Y-55622399D01*
X111638757Y-55558443D01*
X111710737Y-55470736D01*
X111787647Y-55407617D01*
X111804966Y-55390298D01*
X111818580Y-55369923D01*
X111827958Y-55347284D01*
X111832738Y-55323251D01*
X111832738Y-55298747D01*
X111827958Y-55274714D01*
X111818580Y-55252075D01*
X111804967Y-55231701D01*
X111787640Y-55214374D01*
X111767265Y-55200760D01*
X111744626Y-55191382D01*
X111720593Y-55186602D01*
X111708341Y-55186000D01*
X111544001Y-55186000D01*
X111544001Y-54034000D01*
X113146001Y-54034000D01*
X113146001Y-55186000D01*
X113146001Y-55186000D01*
G37*
G36*
X148497916Y-54042334D02*
G01*
X148606492Y-54075271D01*
X148606495Y-54075272D01*
X148642601Y-54094571D01*
X148706557Y-54128756D01*
X148794264Y-54200736D01*
X148866244Y-54288443D01*
X148900429Y-54352399D01*
X148919728Y-54388505D01*
X148919729Y-54388508D01*
X148952666Y-54497084D01*
X148963787Y-54610000D01*
X148952666Y-54722916D01*
X148925109Y-54813756D01*
X148919728Y-54831495D01*
X148900429Y-54867601D01*
X148866244Y-54931557D01*
X148794264Y-55019264D01*
X148706557Y-55091244D01*
X148652136Y-55120332D01*
X148625141Y-55134761D01*
X148604766Y-55148375D01*
X148587439Y-55165702D01*
X148573826Y-55186076D01*
X148564448Y-55208715D01*
X148559668Y-55232748D01*
X148559668Y-55257252D01*
X148564448Y-55281285D01*
X148573826Y-55303924D01*
X148587440Y-55324299D01*
X148604767Y-55341626D01*
X148625141Y-55355239D01*
X148706557Y-55398756D01*
X148794264Y-55470736D01*
X148866244Y-55558443D01*
X148900429Y-55622399D01*
X148919728Y-55658505D01*
X148919729Y-55658508D01*
X148952666Y-55767084D01*
X148963787Y-55880000D01*
X148952666Y-55992916D01*
X148929806Y-56068272D01*
X148919728Y-56101495D01*
X148903276Y-56132274D01*
X148866244Y-56201557D01*
X148794264Y-56289264D01*
X148717354Y-56352383D01*
X148700035Y-56369702D01*
X148686421Y-56390077D01*
X148677043Y-56412716D01*
X148672263Y-56436749D01*
X148672263Y-56461253D01*
X148677043Y-56485286D01*
X148686421Y-56507925D01*
X148700034Y-56528299D01*
X148717361Y-56545626D01*
X148737736Y-56559240D01*
X148760375Y-56568618D01*
X148784408Y-56573398D01*
X148796660Y-56574000D01*
X148961000Y-56574000D01*
X148961000Y-57726000D01*
X147359000Y-57726000D01*
X147359000Y-56574000D01*
X147523340Y-56574000D01*
X147547726Y-56571598D01*
X147571175Y-56564485D01*
X147592786Y-56552934D01*
X147611728Y-56537389D01*
X147627273Y-56518447D01*
X147638824Y-56496836D01*
X147645937Y-56473387D01*
X147648339Y-56449001D01*
X147645937Y-56424615D01*
X147638824Y-56401166D01*
X147627273Y-56379555D01*
X147611728Y-56360613D01*
X147602655Y-56352391D01*
X147525736Y-56289264D01*
X147453756Y-56201557D01*
X147416724Y-56132274D01*
X147400272Y-56101495D01*
X147390194Y-56068272D01*
X147367334Y-55992916D01*
X147356213Y-55880000D01*
X147367334Y-55767084D01*
X147400271Y-55658508D01*
X147400272Y-55658505D01*
X147419571Y-55622399D01*
X147453756Y-55558443D01*
X147525736Y-55470736D01*
X147613443Y-55398756D01*
X147694859Y-55355239D01*
X147715234Y-55341625D01*
X147732561Y-55324298D01*
X147746174Y-55303924D01*
X147755552Y-55281285D01*
X147760332Y-55257252D01*
X147760332Y-55232748D01*
X147755552Y-55208715D01*
X147746174Y-55186076D01*
X147732560Y-55165701D01*
X147715233Y-55148374D01*
X147694859Y-55134761D01*
X147667864Y-55120332D01*
X147613443Y-55091244D01*
X147525736Y-55019264D01*
X147453756Y-54931557D01*
X147419571Y-54867601D01*
X147400272Y-54831495D01*
X147394891Y-54813756D01*
X147367334Y-54722916D01*
X147356213Y-54610000D01*
X147367334Y-54497084D01*
X147400271Y-54388508D01*
X147400272Y-54388505D01*
X147419571Y-54352399D01*
X147453756Y-54288443D01*
X147525736Y-54200736D01*
X147613443Y-54128756D01*
X147677399Y-54094571D01*
X147713505Y-54075272D01*
X147713508Y-54075271D01*
X147822084Y-54042334D01*
X147906702Y-54034000D01*
X148413298Y-54034000D01*
X148497916Y-54042334D01*
X148497916Y-54042334D01*
G37*
G36*
X130132916Y-54727334D02*
G01*
X130241492Y-54760271D01*
X130241495Y-54760272D01*
X130277601Y-54779571D01*
X130341557Y-54813756D01*
X130429264Y-54885736D01*
X130492383Y-54962646D01*
X130509702Y-54979965D01*
X130530077Y-54993579D01*
X130552716Y-55002957D01*
X130576749Y-55007737D01*
X130601253Y-55007737D01*
X130625286Y-55002957D01*
X130647925Y-54993579D01*
X130668299Y-54979966D01*
X130685626Y-54962639D01*
X130699240Y-54942264D01*
X130708618Y-54919625D01*
X130713398Y-54895592D01*
X130714000Y-54883340D01*
X130714000Y-54719000D01*
X131866000Y-54719000D01*
X131866000Y-56321000D01*
X130714000Y-56321000D01*
X130714000Y-56156660D01*
X130711598Y-56132274D01*
X130704485Y-56108825D01*
X130692934Y-56087214D01*
X130677389Y-56068272D01*
X130658447Y-56052727D01*
X130636836Y-56041176D01*
X130613387Y-56034063D01*
X130589001Y-56031661D01*
X130564615Y-56034063D01*
X130541166Y-56041176D01*
X130519555Y-56052727D01*
X130492381Y-56077356D01*
X130429264Y-56154264D01*
X130341556Y-56226244D01*
X130277600Y-56260429D01*
X130241494Y-56279728D01*
X130241491Y-56279729D01*
X130132915Y-56312666D01*
X130020000Y-56323787D01*
X129907084Y-56312666D01*
X129798508Y-56279729D01*
X129798505Y-56279728D01*
X129762399Y-56260429D01*
X129698443Y-56226244D01*
X129610736Y-56154264D01*
X129538756Y-56066556D01*
X129495239Y-55985140D01*
X129481625Y-55964766D01*
X129464298Y-55947439D01*
X129443924Y-55933825D01*
X129421285Y-55924448D01*
X129397251Y-55919668D01*
X129372747Y-55919668D01*
X129348714Y-55924449D01*
X129326075Y-55933826D01*
X129305701Y-55947440D01*
X129288374Y-55964767D01*
X129274762Y-55985140D01*
X129231244Y-56066557D01*
X129159264Y-56154264D01*
X129071556Y-56226244D01*
X129007600Y-56260429D01*
X128971494Y-56279728D01*
X128971491Y-56279729D01*
X128862915Y-56312666D01*
X128750000Y-56323787D01*
X128637084Y-56312666D01*
X128528508Y-56279729D01*
X128528505Y-56279728D01*
X128492399Y-56260429D01*
X128428443Y-56226244D01*
X128340736Y-56154264D01*
X128268756Y-56066556D01*
X128225239Y-55985140D01*
X128215272Y-55966494D01*
X128209492Y-55947440D01*
X128182334Y-55857915D01*
X128174000Y-55773297D01*
X128174000Y-55266702D01*
X128182334Y-55182084D01*
X128215271Y-55073508D01*
X128215272Y-55073505D01*
X128268756Y-54973445D01*
X128268757Y-54973443D01*
X128340737Y-54885736D01*
X128428444Y-54813756D01*
X128492400Y-54779571D01*
X128528506Y-54760272D01*
X128528509Y-54760271D01*
X128637085Y-54727334D01*
X128750000Y-54716213D01*
X128862916Y-54727334D01*
X128971492Y-54760271D01*
X128971495Y-54760272D01*
X129007601Y-54779571D01*
X129071557Y-54813756D01*
X129159264Y-54885736D01*
X129231244Y-54973443D01*
X129247019Y-55002957D01*
X129274761Y-55054859D01*
X129288375Y-55075234D01*
X129305702Y-55092561D01*
X129326076Y-55106174D01*
X129348715Y-55115552D01*
X129372748Y-55120332D01*
X129397252Y-55120332D01*
X129421285Y-55115552D01*
X129443924Y-55106174D01*
X129464299Y-55092560D01*
X129481626Y-55075233D01*
X129495239Y-55054859D01*
X129538756Y-54973445D01*
X129538757Y-54973443D01*
X129610737Y-54885736D01*
X129698444Y-54813756D01*
X129762400Y-54779571D01*
X129798506Y-54760272D01*
X129798509Y-54760271D01*
X129907085Y-54727334D01*
X130020000Y-54716213D01*
X130132916Y-54727334D01*
X130132916Y-54727334D01*
G37*
G36*
X133996823Y-48691313D02*
G01*
X134157242Y-48739976D01*
X134224361Y-48775852D01*
X134305078Y-48818996D01*
X134434659Y-48925341D01*
X134541004Y-49054922D01*
X134541005Y-49054924D01*
X134620024Y-49202758D01*
X134668687Y-49363177D01*
X134685117Y-49530000D01*
X134668687Y-49696823D01*
X134620024Y-49857242D01*
X134579477Y-49933100D01*
X134541004Y-50005078D01*
X134434659Y-50134659D01*
X134305078Y-50241004D01*
X134305076Y-50241005D01*
X134157242Y-50320024D01*
X133996823Y-50368687D01*
X133871804Y-50381000D01*
X133788196Y-50381000D01*
X133663177Y-50368687D01*
X133502758Y-50320024D01*
X133354924Y-50241005D01*
X133354922Y-50241004D01*
X133225341Y-50134659D01*
X133118996Y-50005078D01*
X133080523Y-49933100D01*
X133039976Y-49857242D01*
X132991313Y-49696823D01*
X132974883Y-49530000D01*
X132991313Y-49363177D01*
X133039976Y-49202758D01*
X133118995Y-49054924D01*
X133118996Y-49054922D01*
X133225341Y-48925341D01*
X133354922Y-48818996D01*
X133435639Y-48775852D01*
X133502758Y-48739976D01*
X133663177Y-48691313D01*
X133788196Y-48679000D01*
X133871804Y-48679000D01*
X133996823Y-48691313D01*
X133996823Y-48691313D01*
G37*
G36*
X126458228Y-48711703D02*
G01*
X126613100Y-48775853D01*
X126752481Y-48868985D01*
X126871015Y-48987519D01*
X126964147Y-49126900D01*
X127028297Y-49281772D01*
X127061000Y-49446184D01*
X127061000Y-49613816D01*
X127028297Y-49778228D01*
X126964147Y-49933100D01*
X126871015Y-50072481D01*
X126752481Y-50191015D01*
X126613100Y-50284147D01*
X126458228Y-50348297D01*
X126293816Y-50381000D01*
X126126184Y-50381000D01*
X125961772Y-50348297D01*
X125806900Y-50284147D01*
X125667519Y-50191015D01*
X125548985Y-50072481D01*
X125455853Y-49933100D01*
X125391703Y-49778228D01*
X125359000Y-49613816D01*
X125359000Y-49446184D01*
X125391703Y-49281772D01*
X125455853Y-49126900D01*
X125548985Y-48987519D01*
X125667519Y-48868985D01*
X125806900Y-48775853D01*
X125961772Y-48711703D01*
X126126184Y-48679000D01*
X126293816Y-48679000D01*
X126458228Y-48711703D01*
X126458228Y-48711703D01*
G37*
G36*
X116763229Y-48711703D02*
G01*
X116918101Y-48775853D01*
X117057482Y-48868985D01*
X117176016Y-48987519D01*
X117269148Y-49126900D01*
X117333298Y-49281772D01*
X117366001Y-49446184D01*
X117366001Y-49613816D01*
X117333298Y-49778228D01*
X117269148Y-49933100D01*
X117176016Y-50072481D01*
X117057482Y-50191015D01*
X116918101Y-50284147D01*
X116763229Y-50348297D01*
X116598817Y-50381000D01*
X116431185Y-50381000D01*
X116266773Y-50348297D01*
X116111901Y-50284147D01*
X115972520Y-50191015D01*
X115853986Y-50072481D01*
X115760854Y-49933100D01*
X115696704Y-49778228D01*
X115664001Y-49613816D01*
X115664001Y-49446184D01*
X115696704Y-49281772D01*
X115760854Y-49126900D01*
X115853986Y-48987519D01*
X115972520Y-48868985D01*
X116111901Y-48775853D01*
X116266773Y-48711703D01*
X116431185Y-48679000D01*
X116598817Y-48679000D01*
X116763229Y-48711703D01*
X116763229Y-48711703D01*
G37*
G36*
X109061824Y-48691313D02*
G01*
X109222243Y-48739976D01*
X109289362Y-48775852D01*
X109370079Y-48818996D01*
X109499660Y-48925341D01*
X109606005Y-49054922D01*
X109606006Y-49054924D01*
X109685025Y-49202758D01*
X109733688Y-49363177D01*
X109750118Y-49530000D01*
X109733688Y-49696823D01*
X109685025Y-49857242D01*
X109644478Y-49933100D01*
X109606005Y-50005078D01*
X109499660Y-50134659D01*
X109370079Y-50241004D01*
X109370077Y-50241005D01*
X109222243Y-50320024D01*
X109061824Y-50368687D01*
X108936805Y-50381000D01*
X108853197Y-50381000D01*
X108728178Y-50368687D01*
X108567759Y-50320024D01*
X108419925Y-50241005D01*
X108419923Y-50241004D01*
X108290342Y-50134659D01*
X108183997Y-50005078D01*
X108145524Y-49933100D01*
X108104977Y-49857242D01*
X108056314Y-49696823D01*
X108039884Y-49530000D01*
X108056314Y-49363177D01*
X108104977Y-49202758D01*
X108183996Y-49054924D01*
X108183997Y-49054922D01*
X108290342Y-48925341D01*
X108419923Y-48818996D01*
X108500640Y-48775852D01*
X108567759Y-48739976D01*
X108728178Y-48691313D01*
X108853197Y-48679000D01*
X108936805Y-48679000D01*
X109061824Y-48691313D01*
X109061824Y-48691313D01*
G37*
G36*
X151776823Y-48691313D02*
G01*
X151937242Y-48739976D01*
X152004361Y-48775852D01*
X152085078Y-48818996D01*
X152214659Y-48925341D01*
X152321004Y-49054922D01*
X152321005Y-49054924D01*
X152400024Y-49202758D01*
X152448687Y-49363177D01*
X152465117Y-49530000D01*
X152448687Y-49696823D01*
X152400024Y-49857242D01*
X152359477Y-49933100D01*
X152321004Y-50005078D01*
X152214659Y-50134659D01*
X152085078Y-50241004D01*
X152085076Y-50241005D01*
X151937242Y-50320024D01*
X151776823Y-50368687D01*
X151651804Y-50381000D01*
X151568196Y-50381000D01*
X151443177Y-50368687D01*
X151282758Y-50320024D01*
X151134924Y-50241005D01*
X151134922Y-50241004D01*
X151005341Y-50134659D01*
X150898996Y-50005078D01*
X150860523Y-49933100D01*
X150819976Y-49857242D01*
X150771313Y-49696823D01*
X150754883Y-49530000D01*
X150771313Y-49363177D01*
X150819976Y-49202758D01*
X150898995Y-49054924D01*
X150898996Y-49054922D01*
X151005341Y-48925341D01*
X151134922Y-48818996D01*
X151215639Y-48775852D01*
X151282758Y-48739976D01*
X151443177Y-48691313D01*
X151568196Y-48679000D01*
X151651804Y-48679000D01*
X151776823Y-48691313D01*
X151776823Y-48691313D01*
G37*
G36*
X144238228Y-48711703D02*
G01*
X144393100Y-48775853D01*
X144532481Y-48868985D01*
X144651015Y-48987519D01*
X144744147Y-49126900D01*
X144808297Y-49281772D01*
X144841000Y-49446184D01*
X144841000Y-49613816D01*
X144808297Y-49778228D01*
X144744147Y-49933100D01*
X144651015Y-50072481D01*
X144532481Y-50191015D01*
X144393100Y-50284147D01*
X144238228Y-50348297D01*
X144073816Y-50381000D01*
X143906184Y-50381000D01*
X143741772Y-50348297D01*
X143586900Y-50284147D01*
X143447519Y-50191015D01*
X143328985Y-50072481D01*
X143235853Y-49933100D01*
X143171703Y-49778228D01*
X143139000Y-49613816D01*
X143139000Y-49446184D01*
X143171703Y-49281772D01*
X143235853Y-49126900D01*
X143328985Y-48987519D01*
X143447519Y-48868985D01*
X143586900Y-48775853D01*
X143741772Y-48711703D01*
X143906184Y-48679000D01*
X144073816Y-48679000D01*
X144238228Y-48711703D01*
X144238228Y-48711703D01*
G37*
M02*
