G04 #@! TF.GenerationSoftware,KiCad,Pcbnew,5.1.4-e60b266~84~ubuntu19.04.1*
G04 #@! TF.CreationDate,2019-08-30T20:30:52+02:00*
G04 #@! TF.ProjectId,PixelSlasher,50697865-6c53-46c6-9173-6865722e6b69,1.0*
G04 #@! TF.SameCoordinates,Original*
G04 #@! TF.FileFunction,Copper,L1,Top*
G04 #@! TF.FilePolarity,Positive*
%FSLAX46Y46*%
G04 Gerber Fmt 4.6, Leading zero omitted, Abs format (unit mm)*
G04 Created by KiCad (PCBNEW 5.1.4-e60b266~84~ubuntu19.04.1) date 2019-08-30 20:30:52*
%MOMM*%
%LPD*%
G04 APERTURE LIST*
%ADD10R,1.700000X1.700000*%
%ADD11O,1.700000X1.700000*%
%ADD12O,1.500000X1.050000*%
%ADD13R,1.500000X1.050000*%
%ADD14R,1.050000X1.500000*%
%ADD15O,1.050000X1.500000*%
%ADD16O,1.600000X1.600000*%
%ADD17C,1.600000*%
%ADD18C,2.700000*%
%ADD19C,1.750000*%
%ADD20R,1.750000X1.750000*%
%ADD21R,1.600000X1.600000*%
%ADD22C,0.250000*%
%ADD23C,0.254000*%
G04 APERTURE END LIST*
D10*
X135095000Y-66030000D03*
D11*
X132555000Y-66030000D03*
X130015000Y-66030000D03*
X127475000Y-66030000D03*
X124935000Y-66030000D03*
D12*
X112345001Y-55880000D03*
X112345001Y-57150000D03*
D13*
X112345001Y-54610000D03*
D14*
X131290000Y-55520000D03*
D15*
X128750000Y-55520000D03*
X130020000Y-55520000D03*
D12*
X148160000Y-55880000D03*
X148160000Y-54610000D03*
D13*
X148160000Y-57150000D03*
D16*
X116515001Y-76200000D03*
D17*
X108895001Y-76200000D03*
X116515001Y-49530000D03*
D16*
X108895001Y-49530000D03*
D17*
X126210000Y-76200000D03*
D16*
X133830000Y-76200000D03*
X133830000Y-49530000D03*
D17*
X126210000Y-49530000D03*
X143990000Y-76200000D03*
D16*
X151610000Y-76200000D03*
D17*
X143990000Y-49530000D03*
D16*
X151610000Y-49530000D03*
D18*
X108505001Y-137270000D03*
X108505001Y-87070000D03*
X116905001Y-136070000D03*
X116905001Y-88270000D03*
D19*
X114455001Y-141420000D03*
X110955001Y-82920000D03*
D20*
X114455001Y-82920000D03*
D18*
X125820000Y-137270000D03*
X125820000Y-87070000D03*
X134220000Y-136070000D03*
X134220000Y-88270000D03*
D19*
X131770000Y-141420000D03*
X128270000Y-82920000D03*
D20*
X131770000Y-82920000D03*
X149550000Y-82920000D03*
D19*
X146050000Y-82920000D03*
X149550000Y-141420000D03*
D18*
X152000000Y-88270000D03*
X152000000Y-136070000D03*
X143600000Y-87070000D03*
X143600000Y-137270000D03*
D16*
X116525001Y-62230000D03*
X108905001Y-69850000D03*
X116525001Y-64770000D03*
X108905001Y-67310000D03*
X116525001Y-67310000D03*
X108905001Y-64770000D03*
X116525001Y-69850000D03*
D21*
X108905001Y-62230000D03*
D16*
X151620000Y-62230000D03*
X144000000Y-69850000D03*
X151620000Y-64770000D03*
X144000000Y-67310000D03*
X151620000Y-67310000D03*
X144000000Y-64770000D03*
X151620000Y-69850000D03*
D21*
X144000000Y-62230000D03*
D22*
X148160000Y-63150000D02*
X144000000Y-67310000D01*
X148160000Y-57150000D02*
X148160000Y-63150000D01*
X142720000Y-66030000D02*
X144000000Y-67310000D01*
X135095000Y-66030000D02*
X142720000Y-66030000D01*
X131290000Y-64765000D02*
X132555000Y-66030000D01*
X131290000Y-55520000D02*
X131290000Y-64765000D01*
X107823000Y-54610000D02*
X112345001Y-54610000D01*
X106172000Y-52959000D02*
X107823000Y-54610000D01*
X107823000Y-46101000D02*
X106172000Y-47752000D01*
X126746000Y-62761000D02*
X126746000Y-53467000D01*
X130015000Y-66030000D02*
X126746000Y-62761000D01*
X126746000Y-53467000D02*
X129286000Y-50927000D01*
X106172000Y-47752000D02*
X106172000Y-52959000D01*
X129286000Y-50927000D02*
X129286000Y-47879000D01*
X129286000Y-47879000D02*
X127508000Y-46101000D01*
X127508000Y-46101000D02*
X107823000Y-46101000D01*
X107823000Y-54610000D02*
X106172000Y-56261000D01*
X106172000Y-64576999D02*
X108905001Y-67310000D01*
X106172000Y-56261000D02*
X106172000Y-64576999D01*
X121135000Y-62230000D02*
X124935000Y-66030000D01*
X116525001Y-62230000D02*
X121135000Y-62230000D01*
X126210000Y-49530000D02*
X116515001Y-49530000D01*
X116515001Y-62220000D02*
X116525001Y-62230000D01*
X116515001Y-49530000D02*
X116515001Y-62220000D01*
X124935000Y-74925000D02*
X126210000Y-76200000D01*
X124935000Y-66030000D02*
X124935000Y-74925000D01*
X112522000Y-72573001D02*
X108895001Y-76200000D01*
X112522000Y-63881000D02*
X112522000Y-72573001D01*
X116525001Y-62230000D02*
X114173000Y-62230000D01*
X114173000Y-62230000D02*
X112522000Y-63881000D01*
X124935000Y-66030000D02*
X130279000Y-71374000D01*
X139164000Y-71374000D02*
X143990000Y-76200000D01*
X130279000Y-71374000D02*
X139164000Y-71374000D01*
X150820001Y-63029999D02*
X150711001Y-63029999D01*
X151620000Y-62230000D02*
X150820001Y-63029999D01*
X150711001Y-63029999D02*
X147701000Y-66040000D01*
X147701000Y-72489000D02*
X143990000Y-76200000D01*
X147701000Y-66040000D02*
X147701000Y-72489000D01*
X146911000Y-46609000D02*
X143990000Y-49530000D01*
X152908000Y-46609000D02*
X146911000Y-46609000D01*
X154686000Y-48387000D02*
X152908000Y-46609000D01*
X151620000Y-62230000D02*
X154686000Y-59164000D01*
X154686000Y-59164000D02*
X154686000Y-48387000D01*
X113345001Y-55880000D02*
X112345001Y-55880000D01*
X114935000Y-54290001D02*
X113345001Y-55880000D01*
X114935000Y-52070000D02*
X114935000Y-54290001D01*
X112395000Y-49530000D02*
X114935000Y-52070000D01*
X108895001Y-49530000D02*
X112395000Y-49530000D01*
X112120001Y-55880000D02*
X112345001Y-55880000D01*
X108905001Y-59095000D02*
X112120001Y-55880000D01*
X108905001Y-62230000D02*
X108905001Y-59095000D01*
X130020000Y-53340000D02*
X133830000Y-49530000D01*
X130020000Y-55520000D02*
X130020000Y-53340000D01*
X151610000Y-50661370D02*
X151610000Y-49530000D01*
X151610000Y-53430000D02*
X151610000Y-50661370D01*
X149160000Y-55880000D02*
X151610000Y-53430000D01*
X148160000Y-55880000D02*
X149160000Y-55880000D01*
X147160000Y-55880000D02*
X148160000Y-55880000D01*
X145462905Y-55880000D02*
X147160000Y-55880000D01*
X144000000Y-57342905D02*
X145462905Y-55880000D01*
X144000000Y-62230000D02*
X144000000Y-57342905D01*
X115580001Y-82920000D02*
X114455001Y-82920000D01*
X116515001Y-81985000D02*
X115580001Y-82920000D01*
X116515001Y-76200000D02*
X116515001Y-81985000D01*
X132895000Y-82920000D02*
X131770000Y-82920000D01*
X133830000Y-81985000D02*
X132895000Y-82920000D01*
X133830000Y-76200000D02*
X133830000Y-81985000D01*
X149550000Y-78260000D02*
X151610000Y-76200000D01*
X149550000Y-82920000D02*
X149550000Y-78260000D01*
X108905001Y-64770000D02*
X111252000Y-67116999D01*
X111252000Y-67116999D02*
X111252000Y-70993000D01*
X111252000Y-70993000D02*
X106680000Y-75565000D01*
X106680000Y-78644999D02*
X110955001Y-82920000D01*
X106680000Y-75565000D02*
X106680000Y-78644999D01*
X126481000Y-82920000D02*
X114554000Y-70993000D01*
X128270000Y-82920000D02*
X126481000Y-82920000D01*
X114554000Y-69281001D02*
X116525001Y-67310000D01*
X114554000Y-70993000D02*
X114554000Y-69281001D01*
D23*
G36*
X155965001Y-154045755D02*
G01*
X155952015Y-154014404D01*
X155792460Y-153775614D01*
X155589386Y-153572540D01*
X155350596Y-153412985D01*
X155085267Y-153303082D01*
X154803595Y-153247054D01*
X154516405Y-153247054D01*
X154234733Y-153303082D01*
X153969404Y-153412985D01*
X153730614Y-153572540D01*
X153527540Y-153775614D01*
X153367985Y-154014404D01*
X153258082Y-154279733D01*
X153202054Y-154561405D01*
X153202054Y-154848595D01*
X153258082Y-155130267D01*
X153367985Y-155395596D01*
X153527540Y-155634386D01*
X153730614Y-155837460D01*
X153969404Y-155997015D01*
X154000753Y-156010000D01*
X106509247Y-156010000D01*
X106540596Y-155997015D01*
X106779386Y-155837460D01*
X106982460Y-155634386D01*
X107142015Y-155395596D01*
X107251918Y-155130267D01*
X107307946Y-154848595D01*
X107307946Y-154561405D01*
X107251918Y-154279733D01*
X107142015Y-154014404D01*
X106982460Y-153775614D01*
X106779386Y-153572540D01*
X106540596Y-153412985D01*
X106275267Y-153303082D01*
X105993595Y-153247054D01*
X105706405Y-153247054D01*
X105424733Y-153303082D01*
X105159404Y-153412985D01*
X104920614Y-153572540D01*
X104717540Y-153775614D01*
X104557985Y-154014404D01*
X104545000Y-154045753D01*
X104545000Y-142466240D01*
X113588366Y-142466240D01*
X113669026Y-142717868D01*
X113937330Y-142846267D01*
X114225527Y-142919855D01*
X114522544Y-142935804D01*
X114816964Y-142893501D01*
X115097475Y-142794572D01*
X115240976Y-142717868D01*
X115321636Y-142466240D01*
X130903365Y-142466240D01*
X130984025Y-142717868D01*
X131252329Y-142846267D01*
X131540526Y-142919855D01*
X131837543Y-142935804D01*
X132131963Y-142893501D01*
X132412474Y-142794572D01*
X132555975Y-142717868D01*
X132636635Y-142466240D01*
X148683365Y-142466240D01*
X148764025Y-142717868D01*
X149032329Y-142846267D01*
X149320526Y-142919855D01*
X149617543Y-142935804D01*
X149911963Y-142893501D01*
X150192474Y-142794572D01*
X150335975Y-142717868D01*
X150416635Y-142466240D01*
X149550000Y-141599605D01*
X148683365Y-142466240D01*
X132636635Y-142466240D01*
X131770000Y-141599605D01*
X130903365Y-142466240D01*
X115321636Y-142466240D01*
X114455001Y-141599605D01*
X113588366Y-142466240D01*
X104545000Y-142466240D01*
X104545000Y-141487543D01*
X112939197Y-141487543D01*
X112981500Y-141781963D01*
X113080429Y-142062474D01*
X113157133Y-142205975D01*
X113408761Y-142286635D01*
X114275396Y-141420000D01*
X114634606Y-141420000D01*
X115501241Y-142286635D01*
X115752869Y-142205975D01*
X115881268Y-141937671D01*
X115954856Y-141649474D01*
X115963551Y-141487543D01*
X130254196Y-141487543D01*
X130296499Y-141781963D01*
X130395428Y-142062474D01*
X130472132Y-142205975D01*
X130723760Y-142286635D01*
X131590395Y-141420000D01*
X131949605Y-141420000D01*
X132816240Y-142286635D01*
X133067868Y-142205975D01*
X133196267Y-141937671D01*
X133269855Y-141649474D01*
X133278550Y-141487543D01*
X148034196Y-141487543D01*
X148076499Y-141781963D01*
X148175428Y-142062474D01*
X148252132Y-142205975D01*
X148503760Y-142286635D01*
X149370395Y-141420000D01*
X149729605Y-141420000D01*
X150596240Y-142286635D01*
X150847868Y-142205975D01*
X150976267Y-141937671D01*
X151049855Y-141649474D01*
X151065804Y-141352457D01*
X151023501Y-141058037D01*
X150924572Y-140777526D01*
X150847868Y-140634025D01*
X150596240Y-140553365D01*
X149729605Y-141420000D01*
X149370395Y-141420000D01*
X148503760Y-140553365D01*
X148252132Y-140634025D01*
X148123733Y-140902329D01*
X148050145Y-141190526D01*
X148034196Y-141487543D01*
X133278550Y-141487543D01*
X133285804Y-141352457D01*
X133243501Y-141058037D01*
X133144572Y-140777526D01*
X133067868Y-140634025D01*
X132816240Y-140553365D01*
X131949605Y-141420000D01*
X131590395Y-141420000D01*
X130723760Y-140553365D01*
X130472132Y-140634025D01*
X130343733Y-140902329D01*
X130270145Y-141190526D01*
X130254196Y-141487543D01*
X115963551Y-141487543D01*
X115970805Y-141352457D01*
X115928502Y-141058037D01*
X115829573Y-140777526D01*
X115752869Y-140634025D01*
X115501241Y-140553365D01*
X114634606Y-141420000D01*
X114275396Y-141420000D01*
X113408761Y-140553365D01*
X113157133Y-140634025D01*
X113028734Y-140902329D01*
X112955146Y-141190526D01*
X112939197Y-141487543D01*
X104545000Y-141487543D01*
X104545000Y-140373760D01*
X113588366Y-140373760D01*
X114455001Y-141240395D01*
X115321636Y-140373760D01*
X130903365Y-140373760D01*
X131770000Y-141240395D01*
X132636635Y-140373760D01*
X148683365Y-140373760D01*
X149550000Y-141240395D01*
X150416635Y-140373760D01*
X150335975Y-140122132D01*
X150067671Y-139993733D01*
X149779474Y-139920145D01*
X149482457Y-139904196D01*
X149188037Y-139946499D01*
X148907526Y-140045428D01*
X148764025Y-140122132D01*
X148683365Y-140373760D01*
X132636635Y-140373760D01*
X132555975Y-140122132D01*
X132287671Y-139993733D01*
X131999474Y-139920145D01*
X131702457Y-139904196D01*
X131408037Y-139946499D01*
X131127526Y-140045428D01*
X130984025Y-140122132D01*
X130903365Y-140373760D01*
X115321636Y-140373760D01*
X115240976Y-140122132D01*
X114972672Y-139993733D01*
X114684475Y-139920145D01*
X114387458Y-139904196D01*
X114093038Y-139946499D01*
X113812527Y-140045428D01*
X113669026Y-140122132D01*
X113588366Y-140373760D01*
X104545000Y-140373760D01*
X104545000Y-137074495D01*
X106520001Y-137074495D01*
X106520001Y-137465505D01*
X106596283Y-137849003D01*
X106745916Y-138210250D01*
X106963150Y-138535364D01*
X107239637Y-138811851D01*
X107564751Y-139029085D01*
X107925998Y-139178718D01*
X108309496Y-139255000D01*
X108700506Y-139255000D01*
X109084004Y-139178718D01*
X109445251Y-139029085D01*
X109770365Y-138811851D01*
X110046852Y-138535364D01*
X110264086Y-138210250D01*
X110413719Y-137849003D01*
X110490001Y-137465505D01*
X110490001Y-137074495D01*
X110413719Y-136690997D01*
X110264086Y-136329750D01*
X110046852Y-136004636D01*
X109916711Y-135874495D01*
X114920001Y-135874495D01*
X114920001Y-136265505D01*
X114996283Y-136649003D01*
X115145916Y-137010250D01*
X115363150Y-137335364D01*
X115639637Y-137611851D01*
X115964751Y-137829085D01*
X116325998Y-137978718D01*
X116709496Y-138055000D01*
X117100506Y-138055000D01*
X117484004Y-137978718D01*
X117845251Y-137829085D01*
X118170365Y-137611851D01*
X118446852Y-137335364D01*
X118621158Y-137074495D01*
X123835000Y-137074495D01*
X123835000Y-137465505D01*
X123911282Y-137849003D01*
X124060915Y-138210250D01*
X124278149Y-138535364D01*
X124554636Y-138811851D01*
X124879750Y-139029085D01*
X125240997Y-139178718D01*
X125624495Y-139255000D01*
X126015505Y-139255000D01*
X126399003Y-139178718D01*
X126760250Y-139029085D01*
X127085364Y-138811851D01*
X127361851Y-138535364D01*
X127579085Y-138210250D01*
X127728718Y-137849003D01*
X127805000Y-137465505D01*
X127805000Y-137074495D01*
X127728718Y-136690997D01*
X127579085Y-136329750D01*
X127361851Y-136004636D01*
X127231710Y-135874495D01*
X132235000Y-135874495D01*
X132235000Y-136265505D01*
X132311282Y-136649003D01*
X132460915Y-137010250D01*
X132678149Y-137335364D01*
X132954636Y-137611851D01*
X133279750Y-137829085D01*
X133640997Y-137978718D01*
X134024495Y-138055000D01*
X134415505Y-138055000D01*
X134799003Y-137978718D01*
X135160250Y-137829085D01*
X135485364Y-137611851D01*
X135761851Y-137335364D01*
X135936157Y-137074495D01*
X141615000Y-137074495D01*
X141615000Y-137465505D01*
X141691282Y-137849003D01*
X141840915Y-138210250D01*
X142058149Y-138535364D01*
X142334636Y-138811851D01*
X142659750Y-139029085D01*
X143020997Y-139178718D01*
X143404495Y-139255000D01*
X143795505Y-139255000D01*
X144179003Y-139178718D01*
X144540250Y-139029085D01*
X144865364Y-138811851D01*
X145141851Y-138535364D01*
X145359085Y-138210250D01*
X145508718Y-137849003D01*
X145585000Y-137465505D01*
X145585000Y-137074495D01*
X145508718Y-136690997D01*
X145359085Y-136329750D01*
X145141851Y-136004636D01*
X145011710Y-135874495D01*
X150015000Y-135874495D01*
X150015000Y-136265505D01*
X150091282Y-136649003D01*
X150240915Y-137010250D01*
X150458149Y-137335364D01*
X150734636Y-137611851D01*
X151059750Y-137829085D01*
X151420997Y-137978718D01*
X151804495Y-138055000D01*
X152195505Y-138055000D01*
X152579003Y-137978718D01*
X152940250Y-137829085D01*
X153265364Y-137611851D01*
X153541851Y-137335364D01*
X153759085Y-137010250D01*
X153908718Y-136649003D01*
X153985000Y-136265505D01*
X153985000Y-135874495D01*
X153908718Y-135490997D01*
X153759085Y-135129750D01*
X153541851Y-134804636D01*
X153265364Y-134528149D01*
X152940250Y-134310915D01*
X152579003Y-134161282D01*
X152195505Y-134085000D01*
X151804495Y-134085000D01*
X151420997Y-134161282D01*
X151059750Y-134310915D01*
X150734636Y-134528149D01*
X150458149Y-134804636D01*
X150240915Y-135129750D01*
X150091282Y-135490997D01*
X150015000Y-135874495D01*
X145011710Y-135874495D01*
X144865364Y-135728149D01*
X144540250Y-135510915D01*
X144179003Y-135361282D01*
X143795505Y-135285000D01*
X143404495Y-135285000D01*
X143020997Y-135361282D01*
X142659750Y-135510915D01*
X142334636Y-135728149D01*
X142058149Y-136004636D01*
X141840915Y-136329750D01*
X141691282Y-136690997D01*
X141615000Y-137074495D01*
X135936157Y-137074495D01*
X135979085Y-137010250D01*
X136128718Y-136649003D01*
X136205000Y-136265505D01*
X136205000Y-135874495D01*
X136128718Y-135490997D01*
X135979085Y-135129750D01*
X135761851Y-134804636D01*
X135485364Y-134528149D01*
X135160250Y-134310915D01*
X134799003Y-134161282D01*
X134415505Y-134085000D01*
X134024495Y-134085000D01*
X133640997Y-134161282D01*
X133279750Y-134310915D01*
X132954636Y-134528149D01*
X132678149Y-134804636D01*
X132460915Y-135129750D01*
X132311282Y-135490997D01*
X132235000Y-135874495D01*
X127231710Y-135874495D01*
X127085364Y-135728149D01*
X126760250Y-135510915D01*
X126399003Y-135361282D01*
X126015505Y-135285000D01*
X125624495Y-135285000D01*
X125240997Y-135361282D01*
X124879750Y-135510915D01*
X124554636Y-135728149D01*
X124278149Y-136004636D01*
X124060915Y-136329750D01*
X123911282Y-136690997D01*
X123835000Y-137074495D01*
X118621158Y-137074495D01*
X118664086Y-137010250D01*
X118813719Y-136649003D01*
X118890001Y-136265505D01*
X118890001Y-135874495D01*
X118813719Y-135490997D01*
X118664086Y-135129750D01*
X118446852Y-134804636D01*
X118170365Y-134528149D01*
X117845251Y-134310915D01*
X117484004Y-134161282D01*
X117100506Y-134085000D01*
X116709496Y-134085000D01*
X116325998Y-134161282D01*
X115964751Y-134310915D01*
X115639637Y-134528149D01*
X115363150Y-134804636D01*
X115145916Y-135129750D01*
X114996283Y-135490997D01*
X114920001Y-135874495D01*
X109916711Y-135874495D01*
X109770365Y-135728149D01*
X109445251Y-135510915D01*
X109084004Y-135361282D01*
X108700506Y-135285000D01*
X108309496Y-135285000D01*
X107925998Y-135361282D01*
X107564751Y-135510915D01*
X107239637Y-135728149D01*
X106963150Y-136004636D01*
X106745916Y-136329750D01*
X106596283Y-136690997D01*
X106520001Y-137074495D01*
X104545000Y-137074495D01*
X104545000Y-86874495D01*
X106520001Y-86874495D01*
X106520001Y-87265505D01*
X106596283Y-87649003D01*
X106745916Y-88010250D01*
X106963150Y-88335364D01*
X107239637Y-88611851D01*
X107564751Y-88829085D01*
X107925998Y-88978718D01*
X108309496Y-89055000D01*
X108700506Y-89055000D01*
X109084004Y-88978718D01*
X109445251Y-88829085D01*
X109770365Y-88611851D01*
X110046852Y-88335364D01*
X110221158Y-88074495D01*
X114920001Y-88074495D01*
X114920001Y-88465505D01*
X114996283Y-88849003D01*
X115145916Y-89210250D01*
X115363150Y-89535364D01*
X115639637Y-89811851D01*
X115964751Y-90029085D01*
X116325998Y-90178718D01*
X116709496Y-90255000D01*
X117100506Y-90255000D01*
X117484004Y-90178718D01*
X117845251Y-90029085D01*
X118170365Y-89811851D01*
X118446852Y-89535364D01*
X118664086Y-89210250D01*
X118813719Y-88849003D01*
X118890001Y-88465505D01*
X118890001Y-88074495D01*
X118813719Y-87690997D01*
X118664086Y-87329750D01*
X118446852Y-87004636D01*
X118316711Y-86874495D01*
X123835000Y-86874495D01*
X123835000Y-87265505D01*
X123911282Y-87649003D01*
X124060915Y-88010250D01*
X124278149Y-88335364D01*
X124554636Y-88611851D01*
X124879750Y-88829085D01*
X125240997Y-88978718D01*
X125624495Y-89055000D01*
X126015505Y-89055000D01*
X126399003Y-88978718D01*
X126760250Y-88829085D01*
X127085364Y-88611851D01*
X127361851Y-88335364D01*
X127536157Y-88074495D01*
X132235000Y-88074495D01*
X132235000Y-88465505D01*
X132311282Y-88849003D01*
X132460915Y-89210250D01*
X132678149Y-89535364D01*
X132954636Y-89811851D01*
X133279750Y-90029085D01*
X133640997Y-90178718D01*
X134024495Y-90255000D01*
X134415505Y-90255000D01*
X134799003Y-90178718D01*
X135160250Y-90029085D01*
X135485364Y-89811851D01*
X135761851Y-89535364D01*
X135979085Y-89210250D01*
X136128718Y-88849003D01*
X136205000Y-88465505D01*
X136205000Y-88074495D01*
X136128718Y-87690997D01*
X135979085Y-87329750D01*
X135761851Y-87004636D01*
X135631710Y-86874495D01*
X141615000Y-86874495D01*
X141615000Y-87265505D01*
X141691282Y-87649003D01*
X141840915Y-88010250D01*
X142058149Y-88335364D01*
X142334636Y-88611851D01*
X142659750Y-88829085D01*
X143020997Y-88978718D01*
X143404495Y-89055000D01*
X143795505Y-89055000D01*
X144179003Y-88978718D01*
X144540250Y-88829085D01*
X144865364Y-88611851D01*
X145141851Y-88335364D01*
X145316157Y-88074495D01*
X150015000Y-88074495D01*
X150015000Y-88465505D01*
X150091282Y-88849003D01*
X150240915Y-89210250D01*
X150458149Y-89535364D01*
X150734636Y-89811851D01*
X151059750Y-90029085D01*
X151420997Y-90178718D01*
X151804495Y-90255000D01*
X152195505Y-90255000D01*
X152579003Y-90178718D01*
X152940250Y-90029085D01*
X153265364Y-89811851D01*
X153541851Y-89535364D01*
X153759085Y-89210250D01*
X153908718Y-88849003D01*
X153985000Y-88465505D01*
X153985000Y-88074495D01*
X153908718Y-87690997D01*
X153759085Y-87329750D01*
X153541851Y-87004636D01*
X153265364Y-86728149D01*
X152940250Y-86510915D01*
X152579003Y-86361282D01*
X152195505Y-86285000D01*
X151804495Y-86285000D01*
X151420997Y-86361282D01*
X151059750Y-86510915D01*
X150734636Y-86728149D01*
X150458149Y-87004636D01*
X150240915Y-87329750D01*
X150091282Y-87690997D01*
X150015000Y-88074495D01*
X145316157Y-88074495D01*
X145359085Y-88010250D01*
X145508718Y-87649003D01*
X145585000Y-87265505D01*
X145585000Y-86874495D01*
X145508718Y-86490997D01*
X145359085Y-86129750D01*
X145141851Y-85804636D01*
X144865364Y-85528149D01*
X144540250Y-85310915D01*
X144179003Y-85161282D01*
X143795505Y-85085000D01*
X143404495Y-85085000D01*
X143020997Y-85161282D01*
X142659750Y-85310915D01*
X142334636Y-85528149D01*
X142058149Y-85804636D01*
X141840915Y-86129750D01*
X141691282Y-86490997D01*
X141615000Y-86874495D01*
X135631710Y-86874495D01*
X135485364Y-86728149D01*
X135160250Y-86510915D01*
X134799003Y-86361282D01*
X134415505Y-86285000D01*
X134024495Y-86285000D01*
X133640997Y-86361282D01*
X133279750Y-86510915D01*
X132954636Y-86728149D01*
X132678149Y-87004636D01*
X132460915Y-87329750D01*
X132311282Y-87690997D01*
X132235000Y-88074495D01*
X127536157Y-88074495D01*
X127579085Y-88010250D01*
X127728718Y-87649003D01*
X127805000Y-87265505D01*
X127805000Y-86874495D01*
X127728718Y-86490997D01*
X127579085Y-86129750D01*
X127361851Y-85804636D01*
X127085364Y-85528149D01*
X126760250Y-85310915D01*
X126399003Y-85161282D01*
X126015505Y-85085000D01*
X125624495Y-85085000D01*
X125240997Y-85161282D01*
X124879750Y-85310915D01*
X124554636Y-85528149D01*
X124278149Y-85804636D01*
X124060915Y-86129750D01*
X123911282Y-86490997D01*
X123835000Y-86874495D01*
X118316711Y-86874495D01*
X118170365Y-86728149D01*
X117845251Y-86510915D01*
X117484004Y-86361282D01*
X117100506Y-86285000D01*
X116709496Y-86285000D01*
X116325998Y-86361282D01*
X115964751Y-86510915D01*
X115639637Y-86728149D01*
X115363150Y-87004636D01*
X115145916Y-87329750D01*
X114996283Y-87690997D01*
X114920001Y-88074495D01*
X110221158Y-88074495D01*
X110264086Y-88010250D01*
X110413719Y-87649003D01*
X110490001Y-87265505D01*
X110490001Y-86874495D01*
X110413719Y-86490997D01*
X110264086Y-86129750D01*
X110046852Y-85804636D01*
X109770365Y-85528149D01*
X109445251Y-85310915D01*
X109084004Y-85161282D01*
X108700506Y-85085000D01*
X108309496Y-85085000D01*
X107925998Y-85161282D01*
X107564751Y-85310915D01*
X107239637Y-85528149D01*
X106963150Y-85804636D01*
X106745916Y-86129750D01*
X106596283Y-86490997D01*
X106520001Y-86874495D01*
X104545000Y-86874495D01*
X104545000Y-70199039D01*
X107513097Y-70199039D01*
X107553755Y-70333087D01*
X107673964Y-70587420D01*
X107841482Y-70813414D01*
X108049870Y-71002385D01*
X108291120Y-71147070D01*
X108555961Y-71241909D01*
X108778001Y-71120624D01*
X108778001Y-69977000D01*
X109032001Y-69977000D01*
X109032001Y-71120624D01*
X109254041Y-71241909D01*
X109518882Y-71147070D01*
X109760132Y-71002385D01*
X109968520Y-70813414D01*
X110136038Y-70587420D01*
X110256247Y-70333087D01*
X110296905Y-70199039D01*
X110174916Y-69977000D01*
X109032001Y-69977000D01*
X108778001Y-69977000D01*
X107635086Y-69977000D01*
X107513097Y-70199039D01*
X104545000Y-70199039D01*
X104545000Y-47752000D01*
X105408324Y-47752000D01*
X105412000Y-47789323D01*
X105412001Y-52921668D01*
X105408324Y-52959000D01*
X105412001Y-52996333D01*
X105417066Y-53047753D01*
X105422998Y-53107985D01*
X105466454Y-53251246D01*
X105537026Y-53383276D01*
X105599326Y-53459188D01*
X105632000Y-53499001D01*
X105660998Y-53522799D01*
X106748198Y-54610000D01*
X105661003Y-55697196D01*
X105631999Y-55720999D01*
X105599326Y-55760812D01*
X105537026Y-55836724D01*
X105513894Y-55880001D01*
X105466454Y-55968754D01*
X105422997Y-56112015D01*
X105412000Y-56223668D01*
X105412000Y-56223678D01*
X105408324Y-56261000D01*
X105412000Y-56298322D01*
X105412001Y-64539667D01*
X105408324Y-64576999D01*
X105412001Y-64614332D01*
X105422998Y-64725985D01*
X105432818Y-64758359D01*
X105466454Y-64869245D01*
X105537026Y-65001275D01*
X105608201Y-65088001D01*
X105632000Y-65117000D01*
X105660998Y-65140798D01*
X107504293Y-66984094D01*
X107490765Y-67028691D01*
X107463058Y-67310000D01*
X107490765Y-67591309D01*
X107572819Y-67861808D01*
X107706069Y-68111101D01*
X107885393Y-68329608D01*
X108103900Y-68508932D01*
X108241683Y-68582579D01*
X108049870Y-68697615D01*
X107841482Y-68886586D01*
X107673964Y-69112580D01*
X107553755Y-69366913D01*
X107513097Y-69500961D01*
X107635086Y-69723000D01*
X108778001Y-69723000D01*
X108778001Y-69703000D01*
X109032001Y-69703000D01*
X109032001Y-69723000D01*
X110174916Y-69723000D01*
X110296905Y-69500961D01*
X110256247Y-69366913D01*
X110136038Y-69112580D01*
X109968520Y-68886586D01*
X109760132Y-68697615D01*
X109568319Y-68582579D01*
X109706102Y-68508932D01*
X109924609Y-68329608D01*
X110103933Y-68111101D01*
X110237183Y-67861808D01*
X110319237Y-67591309D01*
X110346944Y-67310000D01*
X110344403Y-67284204D01*
X110492000Y-67431801D01*
X110492001Y-70678196D01*
X106169003Y-75001196D01*
X106139999Y-75024999D01*
X106099798Y-75073985D01*
X106045026Y-75140724D01*
X105974455Y-75272753D01*
X105974454Y-75272754D01*
X105930997Y-75416015D01*
X105920000Y-75527668D01*
X105920000Y-75527678D01*
X105916324Y-75565000D01*
X105920000Y-75602323D01*
X105920001Y-78607667D01*
X105916324Y-78644999D01*
X105920001Y-78682332D01*
X105920193Y-78684276D01*
X105930998Y-78793984D01*
X105974454Y-78937245D01*
X106045026Y-79069275D01*
X106116201Y-79156001D01*
X106140000Y-79185000D01*
X106168998Y-79208798D01*
X109492531Y-82532332D01*
X109445001Y-82771278D01*
X109445001Y-83068722D01*
X109503030Y-83360451D01*
X109616857Y-83635253D01*
X109782108Y-83882569D01*
X109992432Y-84092893D01*
X110239748Y-84258144D01*
X110514550Y-84371971D01*
X110806279Y-84430000D01*
X111103723Y-84430000D01*
X111395452Y-84371971D01*
X111670254Y-84258144D01*
X111917570Y-84092893D01*
X112127894Y-83882569D01*
X112293145Y-83635253D01*
X112406972Y-83360451D01*
X112465001Y-83068722D01*
X112465001Y-82771278D01*
X112406972Y-82479549D01*
X112293145Y-82204747D01*
X112186406Y-82045000D01*
X112941929Y-82045000D01*
X112941929Y-83795000D01*
X112954189Y-83919482D01*
X112990499Y-84039180D01*
X113049464Y-84149494D01*
X113128816Y-84246185D01*
X113225507Y-84325537D01*
X113335821Y-84384502D01*
X113455519Y-84420812D01*
X113580001Y-84433072D01*
X115330001Y-84433072D01*
X115454483Y-84420812D01*
X115574181Y-84384502D01*
X115684495Y-84325537D01*
X115781186Y-84246185D01*
X115860538Y-84149494D01*
X115919503Y-84039180D01*
X115955813Y-83919482D01*
X115968073Y-83795000D01*
X115968073Y-83574326D01*
X116004277Y-83554974D01*
X116120002Y-83460001D01*
X116143805Y-83430998D01*
X117026004Y-82548799D01*
X117055002Y-82525001D01*
X117149975Y-82409276D01*
X117220547Y-82277247D01*
X117264004Y-82133986D01*
X117275001Y-82022333D01*
X117275001Y-82022325D01*
X117278677Y-81985000D01*
X117275001Y-81947675D01*
X117275001Y-77420901D01*
X117316102Y-77398932D01*
X117534609Y-77219608D01*
X117713933Y-77001101D01*
X117847183Y-76751808D01*
X117929237Y-76481309D01*
X117956944Y-76200000D01*
X117929237Y-75918691D01*
X117847183Y-75648192D01*
X117713933Y-75398899D01*
X117534609Y-75180392D01*
X117316102Y-75001068D01*
X117066809Y-74867818D01*
X116796310Y-74785764D01*
X116585493Y-74765000D01*
X116444509Y-74765000D01*
X116233692Y-74785764D01*
X115963193Y-74867818D01*
X115713900Y-75001068D01*
X115495393Y-75180392D01*
X115316069Y-75398899D01*
X115182819Y-75648192D01*
X115100765Y-75918691D01*
X115073058Y-76200000D01*
X115100765Y-76481309D01*
X115182819Y-76751808D01*
X115316069Y-77001101D01*
X115495393Y-77219608D01*
X115713900Y-77398932D01*
X115755001Y-77420901D01*
X115755002Y-81572326D01*
X115684495Y-81514463D01*
X115574181Y-81455498D01*
X115454483Y-81419188D01*
X115330001Y-81406928D01*
X113580001Y-81406928D01*
X113455519Y-81419188D01*
X113335821Y-81455498D01*
X113225507Y-81514463D01*
X113128816Y-81593815D01*
X113049464Y-81690506D01*
X112990499Y-81800820D01*
X112954189Y-81920518D01*
X112941929Y-82045000D01*
X112186406Y-82045000D01*
X112127894Y-81957431D01*
X111917570Y-81747107D01*
X111670254Y-81581856D01*
X111395452Y-81468029D01*
X111103723Y-81410000D01*
X110806279Y-81410000D01*
X110567333Y-81457530D01*
X107440000Y-78330198D01*
X107440000Y-75879801D01*
X107509381Y-75810421D01*
X107460001Y-76058665D01*
X107460001Y-76341335D01*
X107515148Y-76618574D01*
X107623321Y-76879727D01*
X107780364Y-77114759D01*
X107980242Y-77314637D01*
X108215274Y-77471680D01*
X108476427Y-77579853D01*
X108753666Y-77635000D01*
X109036336Y-77635000D01*
X109313575Y-77579853D01*
X109574728Y-77471680D01*
X109809760Y-77314637D01*
X110009638Y-77114759D01*
X110166681Y-76879727D01*
X110274854Y-76618574D01*
X110330001Y-76341335D01*
X110330001Y-76058665D01*
X110293689Y-75876113D01*
X113033003Y-73136800D01*
X113062001Y-73113002D01*
X113156974Y-72997277D01*
X113227546Y-72865248D01*
X113271003Y-72721987D01*
X113282000Y-72610334D01*
X113282000Y-72610325D01*
X113285676Y-72573002D01*
X113282000Y-72535679D01*
X113282000Y-64195801D01*
X114487802Y-62990000D01*
X115304100Y-62990000D01*
X115326069Y-63031101D01*
X115505393Y-63249608D01*
X115723900Y-63428932D01*
X115856859Y-63500000D01*
X115723900Y-63571068D01*
X115505393Y-63750392D01*
X115326069Y-63968899D01*
X115192819Y-64218192D01*
X115110765Y-64488691D01*
X115083058Y-64770000D01*
X115110765Y-65051309D01*
X115192819Y-65321808D01*
X115326069Y-65571101D01*
X115505393Y-65789608D01*
X115723900Y-65968932D01*
X115856859Y-66040000D01*
X115723900Y-66111068D01*
X115505393Y-66290392D01*
X115326069Y-66508899D01*
X115192819Y-66758192D01*
X115110765Y-67028691D01*
X115083058Y-67310000D01*
X115110765Y-67591309D01*
X115124293Y-67635906D01*
X114042998Y-68717202D01*
X114014000Y-68741000D01*
X113990202Y-68769998D01*
X113990201Y-68769999D01*
X113919026Y-68856725D01*
X113848454Y-68988755D01*
X113818180Y-69088559D01*
X113810894Y-69112580D01*
X113804998Y-69132016D01*
X113790324Y-69281001D01*
X113794001Y-69318333D01*
X113794000Y-70955677D01*
X113790324Y-70993000D01*
X113794000Y-71030322D01*
X113794000Y-71030332D01*
X113804997Y-71141985D01*
X113835308Y-71241909D01*
X113848454Y-71285246D01*
X113919026Y-71417276D01*
X113958871Y-71465826D01*
X114013999Y-71533001D01*
X114043003Y-71556804D01*
X125917201Y-83431003D01*
X125940999Y-83460001D01*
X126056724Y-83554974D01*
X126188753Y-83625546D01*
X126332014Y-83669003D01*
X126443667Y-83680000D01*
X126443676Y-83680000D01*
X126480999Y-83683676D01*
X126518322Y-83680000D01*
X126961755Y-83680000D01*
X127097107Y-83882569D01*
X127307431Y-84092893D01*
X127554747Y-84258144D01*
X127829549Y-84371971D01*
X128121278Y-84430000D01*
X128418722Y-84430000D01*
X128710451Y-84371971D01*
X128985253Y-84258144D01*
X129232569Y-84092893D01*
X129442893Y-83882569D01*
X129608144Y-83635253D01*
X129721971Y-83360451D01*
X129780000Y-83068722D01*
X129780000Y-82771278D01*
X129721971Y-82479549D01*
X129608144Y-82204747D01*
X129501405Y-82045000D01*
X130256928Y-82045000D01*
X130256928Y-83795000D01*
X130269188Y-83919482D01*
X130305498Y-84039180D01*
X130364463Y-84149494D01*
X130443815Y-84246185D01*
X130540506Y-84325537D01*
X130650820Y-84384502D01*
X130770518Y-84420812D01*
X130895000Y-84433072D01*
X132645000Y-84433072D01*
X132769482Y-84420812D01*
X132889180Y-84384502D01*
X132999494Y-84325537D01*
X133096185Y-84246185D01*
X133175537Y-84149494D01*
X133234502Y-84039180D01*
X133270812Y-83919482D01*
X133283072Y-83795000D01*
X133283072Y-83574326D01*
X133319276Y-83554974D01*
X133435001Y-83460001D01*
X133458804Y-83430998D01*
X134118524Y-82771278D01*
X144540000Y-82771278D01*
X144540000Y-83068722D01*
X144598029Y-83360451D01*
X144711856Y-83635253D01*
X144877107Y-83882569D01*
X145087431Y-84092893D01*
X145334747Y-84258144D01*
X145609549Y-84371971D01*
X145901278Y-84430000D01*
X146198722Y-84430000D01*
X146490451Y-84371971D01*
X146765253Y-84258144D01*
X147012569Y-84092893D01*
X147222893Y-83882569D01*
X147388144Y-83635253D01*
X147501971Y-83360451D01*
X147560000Y-83068722D01*
X147560000Y-82771278D01*
X147501971Y-82479549D01*
X147388144Y-82204747D01*
X147281405Y-82045000D01*
X148036928Y-82045000D01*
X148036928Y-83795000D01*
X148049188Y-83919482D01*
X148085498Y-84039180D01*
X148144463Y-84149494D01*
X148223815Y-84246185D01*
X148320506Y-84325537D01*
X148430820Y-84384502D01*
X148550518Y-84420812D01*
X148675000Y-84433072D01*
X150425000Y-84433072D01*
X150549482Y-84420812D01*
X150669180Y-84384502D01*
X150779494Y-84325537D01*
X150876185Y-84246185D01*
X150955537Y-84149494D01*
X151014502Y-84039180D01*
X151050812Y-83919482D01*
X151063072Y-83795000D01*
X151063072Y-82045000D01*
X151050812Y-81920518D01*
X151014502Y-81800820D01*
X150955537Y-81690506D01*
X150876185Y-81593815D01*
X150779494Y-81514463D01*
X150669180Y-81455498D01*
X150549482Y-81419188D01*
X150425000Y-81406928D01*
X150310000Y-81406928D01*
X150310000Y-78574801D01*
X151284094Y-77600708D01*
X151328691Y-77614236D01*
X151539508Y-77635000D01*
X151680492Y-77635000D01*
X151891309Y-77614236D01*
X152161808Y-77532182D01*
X152411101Y-77398932D01*
X152629608Y-77219608D01*
X152808932Y-77001101D01*
X152942182Y-76751808D01*
X153024236Y-76481309D01*
X153051943Y-76200000D01*
X153024236Y-75918691D01*
X152942182Y-75648192D01*
X152808932Y-75398899D01*
X152629608Y-75180392D01*
X152411101Y-75001068D01*
X152161808Y-74867818D01*
X151891309Y-74785764D01*
X151680492Y-74765000D01*
X151539508Y-74765000D01*
X151328691Y-74785764D01*
X151058192Y-74867818D01*
X150808899Y-75001068D01*
X150590392Y-75180392D01*
X150411068Y-75398899D01*
X150277818Y-75648192D01*
X150195764Y-75918691D01*
X150168057Y-76200000D01*
X150195764Y-76481309D01*
X150209292Y-76525906D01*
X149038998Y-77696201D01*
X149010000Y-77719999D01*
X148986202Y-77748997D01*
X148986201Y-77748998D01*
X148915026Y-77835724D01*
X148844454Y-77967754D01*
X148831632Y-78010025D01*
X148800998Y-78111014D01*
X148790001Y-78222667D01*
X148786324Y-78260000D01*
X148790001Y-78297332D01*
X148790000Y-81406928D01*
X148675000Y-81406928D01*
X148550518Y-81419188D01*
X148430820Y-81455498D01*
X148320506Y-81514463D01*
X148223815Y-81593815D01*
X148144463Y-81690506D01*
X148085498Y-81800820D01*
X148049188Y-81920518D01*
X148036928Y-82045000D01*
X147281405Y-82045000D01*
X147222893Y-81957431D01*
X147012569Y-81747107D01*
X146765253Y-81581856D01*
X146490451Y-81468029D01*
X146198722Y-81410000D01*
X145901278Y-81410000D01*
X145609549Y-81468029D01*
X145334747Y-81581856D01*
X145087431Y-81747107D01*
X144877107Y-81957431D01*
X144711856Y-82204747D01*
X144598029Y-82479549D01*
X144540000Y-82771278D01*
X134118524Y-82771278D01*
X134341003Y-82548799D01*
X134370001Y-82525001D01*
X134464974Y-82409276D01*
X134535546Y-82277247D01*
X134579003Y-82133986D01*
X134590000Y-82022333D01*
X134590000Y-82022325D01*
X134593676Y-81985000D01*
X134590000Y-81947675D01*
X134590000Y-77420901D01*
X134631101Y-77398932D01*
X134849608Y-77219608D01*
X135028932Y-77001101D01*
X135162182Y-76751808D01*
X135244236Y-76481309D01*
X135271943Y-76200000D01*
X135244236Y-75918691D01*
X135162182Y-75648192D01*
X135028932Y-75398899D01*
X134849608Y-75180392D01*
X134631101Y-75001068D01*
X134381808Y-74867818D01*
X134111309Y-74785764D01*
X133900492Y-74765000D01*
X133759508Y-74765000D01*
X133548691Y-74785764D01*
X133278192Y-74867818D01*
X133028899Y-75001068D01*
X132810392Y-75180392D01*
X132631068Y-75398899D01*
X132497818Y-75648192D01*
X132415764Y-75918691D01*
X132388057Y-76200000D01*
X132415764Y-76481309D01*
X132497818Y-76751808D01*
X132631068Y-77001101D01*
X132810392Y-77219608D01*
X133028899Y-77398932D01*
X133070000Y-77420901D01*
X133070001Y-81572326D01*
X132999494Y-81514463D01*
X132889180Y-81455498D01*
X132769482Y-81419188D01*
X132645000Y-81406928D01*
X130895000Y-81406928D01*
X130770518Y-81419188D01*
X130650820Y-81455498D01*
X130540506Y-81514463D01*
X130443815Y-81593815D01*
X130364463Y-81690506D01*
X130305498Y-81800820D01*
X130269188Y-81920518D01*
X130256928Y-82045000D01*
X129501405Y-82045000D01*
X129442893Y-81957431D01*
X129232569Y-81747107D01*
X128985253Y-81581856D01*
X128710451Y-81468029D01*
X128418722Y-81410000D01*
X128121278Y-81410000D01*
X127829549Y-81468029D01*
X127554747Y-81581856D01*
X127307431Y-81747107D01*
X127097107Y-81957431D01*
X126961755Y-82160000D01*
X126795802Y-82160000D01*
X115505482Y-70869681D01*
X115723900Y-71048932D01*
X115973193Y-71182182D01*
X116243692Y-71264236D01*
X116454509Y-71285000D01*
X116595493Y-71285000D01*
X116806310Y-71264236D01*
X117076809Y-71182182D01*
X117326102Y-71048932D01*
X117544609Y-70869608D01*
X117723933Y-70651101D01*
X117857183Y-70401808D01*
X117939237Y-70131309D01*
X117966944Y-69850000D01*
X117939237Y-69568691D01*
X117857183Y-69298192D01*
X117723933Y-69048899D01*
X117544609Y-68830392D01*
X117326102Y-68651068D01*
X117193143Y-68580000D01*
X117326102Y-68508932D01*
X117544609Y-68329608D01*
X117723933Y-68111101D01*
X117857183Y-67861808D01*
X117939237Y-67591309D01*
X117966944Y-67310000D01*
X117939237Y-67028691D01*
X117857183Y-66758192D01*
X117723933Y-66508899D01*
X117544609Y-66290392D01*
X117326102Y-66111068D01*
X117193143Y-66040000D01*
X117326102Y-65968932D01*
X117544609Y-65789608D01*
X117723933Y-65571101D01*
X117857183Y-65321808D01*
X117939237Y-65051309D01*
X117966944Y-64770000D01*
X117939237Y-64488691D01*
X117857183Y-64218192D01*
X117723933Y-63968899D01*
X117544609Y-63750392D01*
X117326102Y-63571068D01*
X117193143Y-63500000D01*
X117326102Y-63428932D01*
X117544609Y-63249608D01*
X117723933Y-63031101D01*
X117745902Y-62990000D01*
X120820199Y-62990000D01*
X123494203Y-65664005D01*
X123471487Y-65738889D01*
X123442815Y-66030000D01*
X123471487Y-66321111D01*
X123556401Y-66601034D01*
X123694294Y-66859014D01*
X123879866Y-67085134D01*
X124105986Y-67270706D01*
X124175000Y-67307595D01*
X124175001Y-74887668D01*
X124171324Y-74925000D01*
X124185998Y-75073985D01*
X124229454Y-75217246D01*
X124300026Y-75349276D01*
X124354797Y-75416014D01*
X124395000Y-75465001D01*
X124423998Y-75488799D01*
X124811312Y-75876114D01*
X124775000Y-76058665D01*
X124775000Y-76341335D01*
X124830147Y-76618574D01*
X124938320Y-76879727D01*
X125095363Y-77114759D01*
X125295241Y-77314637D01*
X125530273Y-77471680D01*
X125791426Y-77579853D01*
X126068665Y-77635000D01*
X126351335Y-77635000D01*
X126628574Y-77579853D01*
X126889727Y-77471680D01*
X127124759Y-77314637D01*
X127324637Y-77114759D01*
X127481680Y-76879727D01*
X127589853Y-76618574D01*
X127645000Y-76341335D01*
X127645000Y-76058665D01*
X127589853Y-75781426D01*
X127481680Y-75520273D01*
X127324637Y-75285241D01*
X127124759Y-75085363D01*
X126889727Y-74928320D01*
X126628574Y-74820147D01*
X126351335Y-74765000D01*
X126068665Y-74765000D01*
X125886114Y-74801312D01*
X125695000Y-74610199D01*
X125695000Y-67864801D01*
X129715200Y-71885002D01*
X129738999Y-71914001D01*
X129854724Y-72008974D01*
X129986753Y-72079546D01*
X130130014Y-72123003D01*
X130241667Y-72134000D01*
X130241676Y-72134000D01*
X130278999Y-72137676D01*
X130316322Y-72134000D01*
X138849199Y-72134000D01*
X142591312Y-75876114D01*
X142555000Y-76058665D01*
X142555000Y-76341335D01*
X142610147Y-76618574D01*
X142718320Y-76879727D01*
X142875363Y-77114759D01*
X143075241Y-77314637D01*
X143310273Y-77471680D01*
X143571426Y-77579853D01*
X143848665Y-77635000D01*
X144131335Y-77635000D01*
X144408574Y-77579853D01*
X144669727Y-77471680D01*
X144904759Y-77314637D01*
X145104637Y-77114759D01*
X145261680Y-76879727D01*
X145369853Y-76618574D01*
X145425000Y-76341335D01*
X145425000Y-76058665D01*
X145388688Y-75876113D01*
X148212003Y-73052799D01*
X148241001Y-73029001D01*
X148335974Y-72913276D01*
X148406546Y-72781247D01*
X148450003Y-72637986D01*
X148461000Y-72526333D01*
X148464677Y-72489000D01*
X148461000Y-72451667D01*
X148461000Y-66354801D01*
X150192506Y-64623295D01*
X150178057Y-64770000D01*
X150205764Y-65051309D01*
X150287818Y-65321808D01*
X150421068Y-65571101D01*
X150600392Y-65789608D01*
X150818899Y-65968932D01*
X150951858Y-66040000D01*
X150818899Y-66111068D01*
X150600392Y-66290392D01*
X150421068Y-66508899D01*
X150287818Y-66758192D01*
X150205764Y-67028691D01*
X150178057Y-67310000D01*
X150205764Y-67591309D01*
X150287818Y-67861808D01*
X150421068Y-68111101D01*
X150600392Y-68329608D01*
X150818899Y-68508932D01*
X150951858Y-68580000D01*
X150818899Y-68651068D01*
X150600392Y-68830392D01*
X150421068Y-69048899D01*
X150287818Y-69298192D01*
X150205764Y-69568691D01*
X150178057Y-69850000D01*
X150205764Y-70131309D01*
X150287818Y-70401808D01*
X150421068Y-70651101D01*
X150600392Y-70869608D01*
X150818899Y-71048932D01*
X151068192Y-71182182D01*
X151338691Y-71264236D01*
X151549508Y-71285000D01*
X151690492Y-71285000D01*
X151901309Y-71264236D01*
X152171808Y-71182182D01*
X152421101Y-71048932D01*
X152639608Y-70869608D01*
X152818932Y-70651101D01*
X152952182Y-70401808D01*
X153034236Y-70131309D01*
X153061943Y-69850000D01*
X153034236Y-69568691D01*
X152952182Y-69298192D01*
X152818932Y-69048899D01*
X152639608Y-68830392D01*
X152421101Y-68651068D01*
X152288142Y-68580000D01*
X152421101Y-68508932D01*
X152639608Y-68329608D01*
X152818932Y-68111101D01*
X152952182Y-67861808D01*
X153034236Y-67591309D01*
X153061943Y-67310000D01*
X153034236Y-67028691D01*
X152952182Y-66758192D01*
X152818932Y-66508899D01*
X152639608Y-66290392D01*
X152421101Y-66111068D01*
X152288142Y-66040000D01*
X152421101Y-65968932D01*
X152639608Y-65789608D01*
X152818932Y-65571101D01*
X152952182Y-65321808D01*
X153034236Y-65051309D01*
X153061943Y-64770000D01*
X153034236Y-64488691D01*
X152952182Y-64218192D01*
X152818932Y-63968899D01*
X152639608Y-63750392D01*
X152421101Y-63571068D01*
X152288142Y-63500000D01*
X152421101Y-63428932D01*
X152639608Y-63249608D01*
X152818932Y-63031101D01*
X152952182Y-62781808D01*
X153034236Y-62511309D01*
X153061943Y-62230000D01*
X153034236Y-61948691D01*
X153020708Y-61904094D01*
X155197004Y-59727798D01*
X155226001Y-59704001D01*
X155320974Y-59588276D01*
X155391546Y-59456247D01*
X155435003Y-59312986D01*
X155446000Y-59201333D01*
X155446000Y-59201325D01*
X155449676Y-59164000D01*
X155446000Y-59126675D01*
X155446000Y-48424325D01*
X155449676Y-48387000D01*
X155446000Y-48349675D01*
X155446000Y-48349667D01*
X155435003Y-48238014D01*
X155391546Y-48094753D01*
X155320974Y-47962724D01*
X155226001Y-47846999D01*
X155197003Y-47823201D01*
X153471804Y-46098003D01*
X153448001Y-46068999D01*
X153332276Y-45974026D01*
X153200247Y-45903454D01*
X153056986Y-45859997D01*
X152945333Y-45849000D01*
X152945322Y-45849000D01*
X152908000Y-45845324D01*
X152870678Y-45849000D01*
X146948323Y-45849000D01*
X146911000Y-45845324D01*
X146873677Y-45849000D01*
X146873667Y-45849000D01*
X146762014Y-45859997D01*
X146618753Y-45903454D01*
X146486724Y-45974026D01*
X146370999Y-46068999D01*
X146347201Y-46097997D01*
X144313886Y-48131312D01*
X144131335Y-48095000D01*
X143848665Y-48095000D01*
X143571426Y-48150147D01*
X143310273Y-48258320D01*
X143075241Y-48415363D01*
X142875363Y-48615241D01*
X142718320Y-48850273D01*
X142610147Y-49111426D01*
X142555000Y-49388665D01*
X142555000Y-49671335D01*
X142610147Y-49948574D01*
X142718320Y-50209727D01*
X142875363Y-50444759D01*
X143075241Y-50644637D01*
X143310273Y-50801680D01*
X143571426Y-50909853D01*
X143848665Y-50965000D01*
X144131335Y-50965000D01*
X144408574Y-50909853D01*
X144669727Y-50801680D01*
X144904759Y-50644637D01*
X145104637Y-50444759D01*
X145261680Y-50209727D01*
X145369853Y-49948574D01*
X145425000Y-49671335D01*
X145425000Y-49388665D01*
X145388688Y-49206114D01*
X147225802Y-47369000D01*
X152593199Y-47369000D01*
X153926001Y-48701803D01*
X153926000Y-58849198D01*
X151945906Y-60829292D01*
X151901309Y-60815764D01*
X151690492Y-60795000D01*
X151549508Y-60795000D01*
X151338691Y-60815764D01*
X151068192Y-60897818D01*
X150818899Y-61031068D01*
X150600392Y-61210392D01*
X150421068Y-61428899D01*
X150287818Y-61678192D01*
X150205764Y-61948691D01*
X150178057Y-62230000D01*
X150201222Y-62465195D01*
X150171000Y-62489998D01*
X150147202Y-62518996D01*
X147190003Y-65476196D01*
X147160999Y-65499999D01*
X147105871Y-65567174D01*
X147066026Y-65615724D01*
X146995455Y-65747753D01*
X146995454Y-65747754D01*
X146951997Y-65891015D01*
X146941000Y-66002668D01*
X146941000Y-66002678D01*
X146937324Y-66040000D01*
X146941000Y-66077323D01*
X146941001Y-72174197D01*
X144313887Y-74801312D01*
X144131335Y-74765000D01*
X143848665Y-74765000D01*
X143666114Y-74801312D01*
X139727804Y-70863003D01*
X139704001Y-70833999D01*
X139588276Y-70739026D01*
X139456247Y-70668454D01*
X139312986Y-70624997D01*
X139201333Y-70614000D01*
X139201322Y-70614000D01*
X139164000Y-70610324D01*
X139126678Y-70614000D01*
X130593802Y-70614000D01*
X130178841Y-70199039D01*
X142608096Y-70199039D01*
X142648754Y-70333087D01*
X142768963Y-70587420D01*
X142936481Y-70813414D01*
X143144869Y-71002385D01*
X143386119Y-71147070D01*
X143650960Y-71241909D01*
X143873000Y-71120624D01*
X143873000Y-69977000D01*
X144127000Y-69977000D01*
X144127000Y-71120624D01*
X144349040Y-71241909D01*
X144613881Y-71147070D01*
X144855131Y-71002385D01*
X145063519Y-70813414D01*
X145231037Y-70587420D01*
X145351246Y-70333087D01*
X145391904Y-70199039D01*
X145269915Y-69977000D01*
X144127000Y-69977000D01*
X143873000Y-69977000D01*
X142730085Y-69977000D01*
X142608096Y-70199039D01*
X130178841Y-70199039D01*
X127494801Y-67515000D01*
X127602002Y-67515000D01*
X127602002Y-67350156D01*
X127831890Y-67471476D01*
X127979099Y-67426825D01*
X128241920Y-67301641D01*
X128475269Y-67127588D01*
X128670178Y-66911355D01*
X128739799Y-66794477D01*
X128774294Y-66859014D01*
X128959866Y-67085134D01*
X129185986Y-67270706D01*
X129443966Y-67408599D01*
X129723889Y-67493513D01*
X129942050Y-67515000D01*
X130087950Y-67515000D01*
X130306111Y-67493513D01*
X130586034Y-67408599D01*
X130844014Y-67270706D01*
X131070134Y-67085134D01*
X131255706Y-66859014D01*
X131285000Y-66804209D01*
X131314294Y-66859014D01*
X131499866Y-67085134D01*
X131725986Y-67270706D01*
X131983966Y-67408599D01*
X132263889Y-67493513D01*
X132482050Y-67515000D01*
X132627950Y-67515000D01*
X132846111Y-67493513D01*
X133126034Y-67408599D01*
X133384014Y-67270706D01*
X133610134Y-67085134D01*
X133634607Y-67055313D01*
X133655498Y-67124180D01*
X133714463Y-67234494D01*
X133793815Y-67331185D01*
X133890506Y-67410537D01*
X134000820Y-67469502D01*
X134120518Y-67505812D01*
X134245000Y-67518072D01*
X135945000Y-67518072D01*
X136069482Y-67505812D01*
X136189180Y-67469502D01*
X136299494Y-67410537D01*
X136396185Y-67331185D01*
X136475537Y-67234494D01*
X136534502Y-67124180D01*
X136570812Y-67004482D01*
X136583072Y-66880000D01*
X136583072Y-66790000D01*
X142405199Y-66790000D01*
X142599292Y-66984094D01*
X142585764Y-67028691D01*
X142558057Y-67310000D01*
X142585764Y-67591309D01*
X142667818Y-67861808D01*
X142801068Y-68111101D01*
X142980392Y-68329608D01*
X143198899Y-68508932D01*
X143336682Y-68582579D01*
X143144869Y-68697615D01*
X142936481Y-68886586D01*
X142768963Y-69112580D01*
X142648754Y-69366913D01*
X142608096Y-69500961D01*
X142730085Y-69723000D01*
X143873000Y-69723000D01*
X143873000Y-69703000D01*
X144127000Y-69703000D01*
X144127000Y-69723000D01*
X145269915Y-69723000D01*
X145391904Y-69500961D01*
X145351246Y-69366913D01*
X145231037Y-69112580D01*
X145063519Y-68886586D01*
X144855131Y-68697615D01*
X144663318Y-68582579D01*
X144801101Y-68508932D01*
X145019608Y-68329608D01*
X145198932Y-68111101D01*
X145332182Y-67861808D01*
X145414236Y-67591309D01*
X145441943Y-67310000D01*
X145414236Y-67028691D01*
X145400708Y-66984094D01*
X148671008Y-63713795D01*
X148700001Y-63690001D01*
X148723795Y-63661008D01*
X148723799Y-63661004D01*
X148794973Y-63574277D01*
X148794974Y-63574276D01*
X148865546Y-63442247D01*
X148909003Y-63298986D01*
X148920000Y-63187333D01*
X148920000Y-63187324D01*
X148923676Y-63150001D01*
X148920000Y-63112678D01*
X148920000Y-58312087D01*
X149034482Y-58300812D01*
X149154180Y-58264502D01*
X149264494Y-58205537D01*
X149361185Y-58126185D01*
X149440537Y-58029494D01*
X149499502Y-57919180D01*
X149535812Y-57799482D01*
X149548072Y-57675000D01*
X149548072Y-56625000D01*
X149539588Y-56538860D01*
X149584276Y-56514974D01*
X149700001Y-56420001D01*
X149723804Y-56390997D01*
X152121004Y-53993798D01*
X152150001Y-53970001D01*
X152244974Y-53854276D01*
X152315546Y-53722247D01*
X152359003Y-53578986D01*
X152370000Y-53467333D01*
X152370000Y-53467324D01*
X152373676Y-53430001D01*
X152370000Y-53392678D01*
X152370000Y-50750901D01*
X152411101Y-50728932D01*
X152629608Y-50549608D01*
X152808932Y-50331101D01*
X152942182Y-50081808D01*
X153024236Y-49811309D01*
X153051943Y-49530000D01*
X153024236Y-49248691D01*
X152942182Y-48978192D01*
X152808932Y-48728899D01*
X152629608Y-48510392D01*
X152411101Y-48331068D01*
X152161808Y-48197818D01*
X151891309Y-48115764D01*
X151680492Y-48095000D01*
X151539508Y-48095000D01*
X151328691Y-48115764D01*
X151058192Y-48197818D01*
X150808899Y-48331068D01*
X150590392Y-48510392D01*
X150411068Y-48728899D01*
X150277818Y-48978192D01*
X150195764Y-49248691D01*
X150168057Y-49530000D01*
X150195764Y-49811309D01*
X150277818Y-50081808D01*
X150411068Y-50331101D01*
X150590392Y-50549608D01*
X150808899Y-50728932D01*
X150850001Y-50750901D01*
X150850000Y-53115198D01*
X149482201Y-54482998D01*
X149378164Y-54482998D01*
X149503964Y-54304190D01*
X149495272Y-54242663D01*
X149402275Y-54033118D01*
X149270184Y-53845742D01*
X149104076Y-53687736D01*
X148910334Y-53565172D01*
X148696404Y-53482761D01*
X148470507Y-53443669D01*
X148287000Y-53603402D01*
X148287000Y-54483000D01*
X148307000Y-54483000D01*
X148307000Y-54720000D01*
X147878021Y-54720000D01*
X147707600Y-54736785D01*
X147706891Y-54737000D01*
X146941837Y-54737000D01*
X146816036Y-54915810D01*
X146824728Y-54977337D01*
X146888042Y-55120000D01*
X145500227Y-55120000D01*
X145462904Y-55116324D01*
X145425581Y-55120000D01*
X145425572Y-55120000D01*
X145313919Y-55130997D01*
X145172817Y-55173799D01*
X145170658Y-55174454D01*
X145038628Y-55245026D01*
X145021014Y-55259482D01*
X144922904Y-55339999D01*
X144899106Y-55368997D01*
X143488998Y-56779106D01*
X143460000Y-56802904D01*
X143436202Y-56831902D01*
X143436201Y-56831903D01*
X143365026Y-56918629D01*
X143294454Y-57050659D01*
X143250998Y-57193920D01*
X143236324Y-57342905D01*
X143240001Y-57380237D01*
X143240000Y-60791928D01*
X143200000Y-60791928D01*
X143075518Y-60804188D01*
X142955820Y-60840498D01*
X142845506Y-60899463D01*
X142748815Y-60978815D01*
X142669463Y-61075506D01*
X142610498Y-61185820D01*
X142574188Y-61305518D01*
X142561928Y-61430000D01*
X142561928Y-63030000D01*
X142574188Y-63154482D01*
X142610498Y-63274180D01*
X142669463Y-63384494D01*
X142748815Y-63481185D01*
X142845506Y-63560537D01*
X142955820Y-63619502D01*
X143075518Y-63655812D01*
X143093482Y-63657581D01*
X142980392Y-63750392D01*
X142801068Y-63968899D01*
X142667818Y-64218192D01*
X142585764Y-64488691D01*
X142558057Y-64770000D01*
X142585764Y-65051309D01*
X142652102Y-65270000D01*
X136583072Y-65270000D01*
X136583072Y-65180000D01*
X136570812Y-65055518D01*
X136534502Y-64935820D01*
X136475537Y-64825506D01*
X136396185Y-64728815D01*
X136299494Y-64649463D01*
X136189180Y-64590498D01*
X136069482Y-64554188D01*
X135945000Y-64541928D01*
X134245000Y-64541928D01*
X134120518Y-64554188D01*
X134000820Y-64590498D01*
X133890506Y-64649463D01*
X133793815Y-64728815D01*
X133714463Y-64825506D01*
X133655498Y-64935820D01*
X133634607Y-65004687D01*
X133610134Y-64974866D01*
X133384014Y-64789294D01*
X133126034Y-64651401D01*
X132846111Y-64566487D01*
X132627950Y-64545000D01*
X132482050Y-64545000D01*
X132263889Y-64566487D01*
X132189004Y-64589203D01*
X132050000Y-64450199D01*
X132050000Y-56862287D01*
X132059180Y-56859502D01*
X132169494Y-56800537D01*
X132266185Y-56721185D01*
X132345537Y-56624494D01*
X132404502Y-56514180D01*
X132440812Y-56394482D01*
X132453072Y-56270000D01*
X132453072Y-54770000D01*
X132440812Y-54645518D01*
X132404502Y-54525820D01*
X132345537Y-54415506D01*
X132266185Y-54318815D01*
X132248365Y-54304190D01*
X146816036Y-54304190D01*
X146941837Y-54483000D01*
X148033000Y-54483000D01*
X148033000Y-53603402D01*
X147849493Y-53443669D01*
X147623596Y-53482761D01*
X147409666Y-53565172D01*
X147215924Y-53687736D01*
X147049816Y-53845742D01*
X146917725Y-54033118D01*
X146824728Y-54242663D01*
X146816036Y-54304190D01*
X132248365Y-54304190D01*
X132169494Y-54239463D01*
X132059180Y-54180498D01*
X131939482Y-54144188D01*
X131815000Y-54131928D01*
X130780000Y-54131928D01*
X130780000Y-53654801D01*
X133504094Y-50930708D01*
X133548691Y-50944236D01*
X133759508Y-50965000D01*
X133900492Y-50965000D01*
X134111309Y-50944236D01*
X134381808Y-50862182D01*
X134631101Y-50728932D01*
X134849608Y-50549608D01*
X135028932Y-50331101D01*
X135162182Y-50081808D01*
X135244236Y-49811309D01*
X135271943Y-49530000D01*
X135244236Y-49248691D01*
X135162182Y-48978192D01*
X135028932Y-48728899D01*
X134849608Y-48510392D01*
X134631101Y-48331068D01*
X134381808Y-48197818D01*
X134111309Y-48115764D01*
X133900492Y-48095000D01*
X133759508Y-48095000D01*
X133548691Y-48115764D01*
X133278192Y-48197818D01*
X133028899Y-48331068D01*
X132810392Y-48510392D01*
X132631068Y-48728899D01*
X132497818Y-48978192D01*
X132415764Y-49248691D01*
X132388057Y-49530000D01*
X132415764Y-49811309D01*
X132429292Y-49855906D01*
X129508998Y-52776201D01*
X129480000Y-52799999D01*
X129456202Y-52828997D01*
X129456201Y-52828998D01*
X129385026Y-52915724D01*
X129314454Y-53047754D01*
X129296184Y-53107985D01*
X129270998Y-53191014D01*
X129262134Y-53281015D01*
X129256324Y-53340000D01*
X129260001Y-53377332D01*
X129260001Y-54248043D01*
X129117337Y-54184728D01*
X129055810Y-54176036D01*
X128877000Y-54301837D01*
X128877000Y-55066891D01*
X128876785Y-55067600D01*
X128860000Y-55238021D01*
X128860000Y-55801978D01*
X128876785Y-55972399D01*
X128877000Y-55973108D01*
X128877000Y-56738163D01*
X129055810Y-56863964D01*
X129117337Y-56855272D01*
X129326882Y-56762275D01*
X129385331Y-56721071D01*
X129573940Y-56821885D01*
X129792600Y-56888215D01*
X130020000Y-56910612D01*
X130247399Y-56888215D01*
X130456098Y-56824907D01*
X130520820Y-56859502D01*
X130530000Y-56862287D01*
X130530001Y-64634404D01*
X130306111Y-64566487D01*
X130087950Y-64545000D01*
X129942050Y-64545000D01*
X129723889Y-64566487D01*
X129649005Y-64589203D01*
X127506000Y-62446199D01*
X127506000Y-55830507D01*
X127583669Y-55830507D01*
X127622761Y-56056404D01*
X127705172Y-56270334D01*
X127827736Y-56464076D01*
X127985742Y-56630184D01*
X128173118Y-56762275D01*
X128382663Y-56855272D01*
X128444190Y-56863964D01*
X128623000Y-56738163D01*
X128623000Y-55647000D01*
X127743402Y-55647000D01*
X127583669Y-55830507D01*
X127506000Y-55830507D01*
X127506000Y-55209493D01*
X127583669Y-55209493D01*
X127743402Y-55393000D01*
X128623000Y-55393000D01*
X128623000Y-54301837D01*
X128444190Y-54176036D01*
X128382663Y-54184728D01*
X128173118Y-54277725D01*
X127985742Y-54409816D01*
X127827736Y-54575924D01*
X127705172Y-54769666D01*
X127622761Y-54983596D01*
X127583669Y-55209493D01*
X127506000Y-55209493D01*
X127506000Y-53781801D01*
X129797009Y-51490794D01*
X129826001Y-51467001D01*
X129849795Y-51438008D01*
X129849799Y-51438004D01*
X129920973Y-51351277D01*
X129920974Y-51351276D01*
X129991546Y-51219247D01*
X130035003Y-51075986D01*
X130046000Y-50964333D01*
X130046000Y-50964324D01*
X130049676Y-50927001D01*
X130046000Y-50889678D01*
X130046000Y-47916325D01*
X130049676Y-47879000D01*
X130046000Y-47841675D01*
X130046000Y-47841667D01*
X130035003Y-47730014D01*
X129991546Y-47586753D01*
X129920974Y-47454724D01*
X129826001Y-47338999D01*
X129797003Y-47315201D01*
X128071804Y-45590003D01*
X128048001Y-45560999D01*
X127932276Y-45466026D01*
X127800247Y-45395454D01*
X127656986Y-45351997D01*
X127545333Y-45341000D01*
X127545322Y-45341000D01*
X127508000Y-45337324D01*
X127470678Y-45341000D01*
X107860333Y-45341000D01*
X107823000Y-45337323D01*
X107785667Y-45341000D01*
X107674014Y-45351997D01*
X107530753Y-45395454D01*
X107398724Y-45466026D01*
X107282999Y-45560999D01*
X107259201Y-45589997D01*
X105661003Y-47188196D01*
X105631999Y-47211999D01*
X105576871Y-47279174D01*
X105537026Y-47327724D01*
X105469143Y-47454724D01*
X105466454Y-47459754D01*
X105422997Y-47603015D01*
X105412000Y-47714668D01*
X105412000Y-47714678D01*
X105408324Y-47752000D01*
X104545000Y-47752000D01*
X104545000Y-38439005D01*
X109962054Y-38439005D01*
X109962054Y-38726195D01*
X110018082Y-39007867D01*
X110127985Y-39273196D01*
X110287540Y-39511986D01*
X110490614Y-39715060D01*
X110729404Y-39874615D01*
X110994733Y-39984518D01*
X111276405Y-40040546D01*
X111563595Y-40040546D01*
X111845267Y-39984518D01*
X112110596Y-39874615D01*
X112349386Y-39715060D01*
X112552460Y-39511986D01*
X112712015Y-39273196D01*
X112821918Y-39007867D01*
X112877946Y-38726195D01*
X112877946Y-38439005D01*
X148452854Y-38439005D01*
X148452854Y-38726195D01*
X148508882Y-39007867D01*
X148618785Y-39273196D01*
X148778340Y-39511986D01*
X148981414Y-39715060D01*
X149220204Y-39874615D01*
X149485533Y-39984518D01*
X149767205Y-40040546D01*
X150054395Y-40040546D01*
X150336067Y-39984518D01*
X150601396Y-39874615D01*
X150840186Y-39715060D01*
X151043260Y-39511986D01*
X151202815Y-39273196D01*
X151312718Y-39007867D01*
X151368746Y-38726195D01*
X151368746Y-38439005D01*
X151312718Y-38157333D01*
X151202815Y-37892004D01*
X151043260Y-37653214D01*
X150840186Y-37450140D01*
X150601396Y-37290585D01*
X150336067Y-37180682D01*
X150054395Y-37124654D01*
X149767205Y-37124654D01*
X149485533Y-37180682D01*
X149220204Y-37290585D01*
X148981414Y-37450140D01*
X148778340Y-37653214D01*
X148618785Y-37892004D01*
X148508882Y-38157333D01*
X148452854Y-38439005D01*
X112877946Y-38439005D01*
X112821918Y-38157333D01*
X112712015Y-37892004D01*
X112552460Y-37653214D01*
X112349386Y-37450140D01*
X112110596Y-37290585D01*
X111845267Y-37180682D01*
X111563595Y-37124654D01*
X111276405Y-37124654D01*
X110994733Y-37180682D01*
X110729404Y-37290585D01*
X110490614Y-37450140D01*
X110287540Y-37653214D01*
X110127985Y-37892004D01*
X110018082Y-38157333D01*
X109962054Y-38439005D01*
X104545000Y-38439005D01*
X104545000Y-33760000D01*
X155965000Y-33760000D01*
X155965001Y-154045755D01*
X155965001Y-154045755D01*
G37*
X155965001Y-154045755D02*
X155952015Y-154014404D01*
X155792460Y-153775614D01*
X155589386Y-153572540D01*
X155350596Y-153412985D01*
X155085267Y-153303082D01*
X154803595Y-153247054D01*
X154516405Y-153247054D01*
X154234733Y-153303082D01*
X153969404Y-153412985D01*
X153730614Y-153572540D01*
X153527540Y-153775614D01*
X153367985Y-154014404D01*
X153258082Y-154279733D01*
X153202054Y-154561405D01*
X153202054Y-154848595D01*
X153258082Y-155130267D01*
X153367985Y-155395596D01*
X153527540Y-155634386D01*
X153730614Y-155837460D01*
X153969404Y-155997015D01*
X154000753Y-156010000D01*
X106509247Y-156010000D01*
X106540596Y-155997015D01*
X106779386Y-155837460D01*
X106982460Y-155634386D01*
X107142015Y-155395596D01*
X107251918Y-155130267D01*
X107307946Y-154848595D01*
X107307946Y-154561405D01*
X107251918Y-154279733D01*
X107142015Y-154014404D01*
X106982460Y-153775614D01*
X106779386Y-153572540D01*
X106540596Y-153412985D01*
X106275267Y-153303082D01*
X105993595Y-153247054D01*
X105706405Y-153247054D01*
X105424733Y-153303082D01*
X105159404Y-153412985D01*
X104920614Y-153572540D01*
X104717540Y-153775614D01*
X104557985Y-154014404D01*
X104545000Y-154045753D01*
X104545000Y-142466240D01*
X113588366Y-142466240D01*
X113669026Y-142717868D01*
X113937330Y-142846267D01*
X114225527Y-142919855D01*
X114522544Y-142935804D01*
X114816964Y-142893501D01*
X115097475Y-142794572D01*
X115240976Y-142717868D01*
X115321636Y-142466240D01*
X130903365Y-142466240D01*
X130984025Y-142717868D01*
X131252329Y-142846267D01*
X131540526Y-142919855D01*
X131837543Y-142935804D01*
X132131963Y-142893501D01*
X132412474Y-142794572D01*
X132555975Y-142717868D01*
X132636635Y-142466240D01*
X148683365Y-142466240D01*
X148764025Y-142717868D01*
X149032329Y-142846267D01*
X149320526Y-142919855D01*
X149617543Y-142935804D01*
X149911963Y-142893501D01*
X150192474Y-142794572D01*
X150335975Y-142717868D01*
X150416635Y-142466240D01*
X149550000Y-141599605D01*
X148683365Y-142466240D01*
X132636635Y-142466240D01*
X131770000Y-141599605D01*
X130903365Y-142466240D01*
X115321636Y-142466240D01*
X114455001Y-141599605D01*
X113588366Y-142466240D01*
X104545000Y-142466240D01*
X104545000Y-141487543D01*
X112939197Y-141487543D01*
X112981500Y-141781963D01*
X113080429Y-142062474D01*
X113157133Y-142205975D01*
X113408761Y-142286635D01*
X114275396Y-141420000D01*
X114634606Y-141420000D01*
X115501241Y-142286635D01*
X115752869Y-142205975D01*
X115881268Y-141937671D01*
X115954856Y-141649474D01*
X115963551Y-141487543D01*
X130254196Y-141487543D01*
X130296499Y-141781963D01*
X130395428Y-142062474D01*
X130472132Y-142205975D01*
X130723760Y-142286635D01*
X131590395Y-141420000D01*
X131949605Y-141420000D01*
X132816240Y-142286635D01*
X133067868Y-142205975D01*
X133196267Y-141937671D01*
X133269855Y-141649474D01*
X133278550Y-141487543D01*
X148034196Y-141487543D01*
X148076499Y-141781963D01*
X148175428Y-142062474D01*
X148252132Y-142205975D01*
X148503760Y-142286635D01*
X149370395Y-141420000D01*
X149729605Y-141420000D01*
X150596240Y-142286635D01*
X150847868Y-142205975D01*
X150976267Y-141937671D01*
X151049855Y-141649474D01*
X151065804Y-141352457D01*
X151023501Y-141058037D01*
X150924572Y-140777526D01*
X150847868Y-140634025D01*
X150596240Y-140553365D01*
X149729605Y-141420000D01*
X149370395Y-141420000D01*
X148503760Y-140553365D01*
X148252132Y-140634025D01*
X148123733Y-140902329D01*
X148050145Y-141190526D01*
X148034196Y-141487543D01*
X133278550Y-141487543D01*
X133285804Y-141352457D01*
X133243501Y-141058037D01*
X133144572Y-140777526D01*
X133067868Y-140634025D01*
X132816240Y-140553365D01*
X131949605Y-141420000D01*
X131590395Y-141420000D01*
X130723760Y-140553365D01*
X130472132Y-140634025D01*
X130343733Y-140902329D01*
X130270145Y-141190526D01*
X130254196Y-141487543D01*
X115963551Y-141487543D01*
X115970805Y-141352457D01*
X115928502Y-141058037D01*
X115829573Y-140777526D01*
X115752869Y-140634025D01*
X115501241Y-140553365D01*
X114634606Y-141420000D01*
X114275396Y-141420000D01*
X113408761Y-140553365D01*
X113157133Y-140634025D01*
X113028734Y-140902329D01*
X112955146Y-141190526D01*
X112939197Y-141487543D01*
X104545000Y-141487543D01*
X104545000Y-140373760D01*
X113588366Y-140373760D01*
X114455001Y-141240395D01*
X115321636Y-140373760D01*
X130903365Y-140373760D01*
X131770000Y-141240395D01*
X132636635Y-140373760D01*
X148683365Y-140373760D01*
X149550000Y-141240395D01*
X150416635Y-140373760D01*
X150335975Y-140122132D01*
X150067671Y-139993733D01*
X149779474Y-139920145D01*
X149482457Y-139904196D01*
X149188037Y-139946499D01*
X148907526Y-140045428D01*
X148764025Y-140122132D01*
X148683365Y-140373760D01*
X132636635Y-140373760D01*
X132555975Y-140122132D01*
X132287671Y-139993733D01*
X131999474Y-139920145D01*
X131702457Y-139904196D01*
X131408037Y-139946499D01*
X131127526Y-140045428D01*
X130984025Y-140122132D01*
X130903365Y-140373760D01*
X115321636Y-140373760D01*
X115240976Y-140122132D01*
X114972672Y-139993733D01*
X114684475Y-139920145D01*
X114387458Y-139904196D01*
X114093038Y-139946499D01*
X113812527Y-140045428D01*
X113669026Y-140122132D01*
X113588366Y-140373760D01*
X104545000Y-140373760D01*
X104545000Y-137074495D01*
X106520001Y-137074495D01*
X106520001Y-137465505D01*
X106596283Y-137849003D01*
X106745916Y-138210250D01*
X106963150Y-138535364D01*
X107239637Y-138811851D01*
X107564751Y-139029085D01*
X107925998Y-139178718D01*
X108309496Y-139255000D01*
X108700506Y-139255000D01*
X109084004Y-139178718D01*
X109445251Y-139029085D01*
X109770365Y-138811851D01*
X110046852Y-138535364D01*
X110264086Y-138210250D01*
X110413719Y-137849003D01*
X110490001Y-137465505D01*
X110490001Y-137074495D01*
X110413719Y-136690997D01*
X110264086Y-136329750D01*
X110046852Y-136004636D01*
X109916711Y-135874495D01*
X114920001Y-135874495D01*
X114920001Y-136265505D01*
X114996283Y-136649003D01*
X115145916Y-137010250D01*
X115363150Y-137335364D01*
X115639637Y-137611851D01*
X115964751Y-137829085D01*
X116325998Y-137978718D01*
X116709496Y-138055000D01*
X117100506Y-138055000D01*
X117484004Y-137978718D01*
X117845251Y-137829085D01*
X118170365Y-137611851D01*
X118446852Y-137335364D01*
X118621158Y-137074495D01*
X123835000Y-137074495D01*
X123835000Y-137465505D01*
X123911282Y-137849003D01*
X124060915Y-138210250D01*
X124278149Y-138535364D01*
X124554636Y-138811851D01*
X124879750Y-139029085D01*
X125240997Y-139178718D01*
X125624495Y-139255000D01*
X126015505Y-139255000D01*
X126399003Y-139178718D01*
X126760250Y-139029085D01*
X127085364Y-138811851D01*
X127361851Y-138535364D01*
X127579085Y-138210250D01*
X127728718Y-137849003D01*
X127805000Y-137465505D01*
X127805000Y-137074495D01*
X127728718Y-136690997D01*
X127579085Y-136329750D01*
X127361851Y-136004636D01*
X127231710Y-135874495D01*
X132235000Y-135874495D01*
X132235000Y-136265505D01*
X132311282Y-136649003D01*
X132460915Y-137010250D01*
X132678149Y-137335364D01*
X132954636Y-137611851D01*
X133279750Y-137829085D01*
X133640997Y-137978718D01*
X134024495Y-138055000D01*
X134415505Y-138055000D01*
X134799003Y-137978718D01*
X135160250Y-137829085D01*
X135485364Y-137611851D01*
X135761851Y-137335364D01*
X135936157Y-137074495D01*
X141615000Y-137074495D01*
X141615000Y-137465505D01*
X141691282Y-137849003D01*
X141840915Y-138210250D01*
X142058149Y-138535364D01*
X142334636Y-138811851D01*
X142659750Y-139029085D01*
X143020997Y-139178718D01*
X143404495Y-139255000D01*
X143795505Y-139255000D01*
X144179003Y-139178718D01*
X144540250Y-139029085D01*
X144865364Y-138811851D01*
X145141851Y-138535364D01*
X145359085Y-138210250D01*
X145508718Y-137849003D01*
X145585000Y-137465505D01*
X145585000Y-137074495D01*
X145508718Y-136690997D01*
X145359085Y-136329750D01*
X145141851Y-136004636D01*
X145011710Y-135874495D01*
X150015000Y-135874495D01*
X150015000Y-136265505D01*
X150091282Y-136649003D01*
X150240915Y-137010250D01*
X150458149Y-137335364D01*
X150734636Y-137611851D01*
X151059750Y-137829085D01*
X151420997Y-137978718D01*
X151804495Y-138055000D01*
X152195505Y-138055000D01*
X152579003Y-137978718D01*
X152940250Y-137829085D01*
X153265364Y-137611851D01*
X153541851Y-137335364D01*
X153759085Y-137010250D01*
X153908718Y-136649003D01*
X153985000Y-136265505D01*
X153985000Y-135874495D01*
X153908718Y-135490997D01*
X153759085Y-135129750D01*
X153541851Y-134804636D01*
X153265364Y-134528149D01*
X152940250Y-134310915D01*
X152579003Y-134161282D01*
X152195505Y-134085000D01*
X151804495Y-134085000D01*
X151420997Y-134161282D01*
X151059750Y-134310915D01*
X150734636Y-134528149D01*
X150458149Y-134804636D01*
X150240915Y-135129750D01*
X150091282Y-135490997D01*
X150015000Y-135874495D01*
X145011710Y-135874495D01*
X144865364Y-135728149D01*
X144540250Y-135510915D01*
X144179003Y-135361282D01*
X143795505Y-135285000D01*
X143404495Y-135285000D01*
X143020997Y-135361282D01*
X142659750Y-135510915D01*
X142334636Y-135728149D01*
X142058149Y-136004636D01*
X141840915Y-136329750D01*
X141691282Y-136690997D01*
X141615000Y-137074495D01*
X135936157Y-137074495D01*
X135979085Y-137010250D01*
X136128718Y-136649003D01*
X136205000Y-136265505D01*
X136205000Y-135874495D01*
X136128718Y-135490997D01*
X135979085Y-135129750D01*
X135761851Y-134804636D01*
X135485364Y-134528149D01*
X135160250Y-134310915D01*
X134799003Y-134161282D01*
X134415505Y-134085000D01*
X134024495Y-134085000D01*
X133640997Y-134161282D01*
X133279750Y-134310915D01*
X132954636Y-134528149D01*
X132678149Y-134804636D01*
X132460915Y-135129750D01*
X132311282Y-135490997D01*
X132235000Y-135874495D01*
X127231710Y-135874495D01*
X127085364Y-135728149D01*
X126760250Y-135510915D01*
X126399003Y-135361282D01*
X126015505Y-135285000D01*
X125624495Y-135285000D01*
X125240997Y-135361282D01*
X124879750Y-135510915D01*
X124554636Y-135728149D01*
X124278149Y-136004636D01*
X124060915Y-136329750D01*
X123911282Y-136690997D01*
X123835000Y-137074495D01*
X118621158Y-137074495D01*
X118664086Y-137010250D01*
X118813719Y-136649003D01*
X118890001Y-136265505D01*
X118890001Y-135874495D01*
X118813719Y-135490997D01*
X118664086Y-135129750D01*
X118446852Y-134804636D01*
X118170365Y-134528149D01*
X117845251Y-134310915D01*
X117484004Y-134161282D01*
X117100506Y-134085000D01*
X116709496Y-134085000D01*
X116325998Y-134161282D01*
X115964751Y-134310915D01*
X115639637Y-134528149D01*
X115363150Y-134804636D01*
X115145916Y-135129750D01*
X114996283Y-135490997D01*
X114920001Y-135874495D01*
X109916711Y-135874495D01*
X109770365Y-135728149D01*
X109445251Y-135510915D01*
X109084004Y-135361282D01*
X108700506Y-135285000D01*
X108309496Y-135285000D01*
X107925998Y-135361282D01*
X107564751Y-135510915D01*
X107239637Y-135728149D01*
X106963150Y-136004636D01*
X106745916Y-136329750D01*
X106596283Y-136690997D01*
X106520001Y-137074495D01*
X104545000Y-137074495D01*
X104545000Y-86874495D01*
X106520001Y-86874495D01*
X106520001Y-87265505D01*
X106596283Y-87649003D01*
X106745916Y-88010250D01*
X106963150Y-88335364D01*
X107239637Y-88611851D01*
X107564751Y-88829085D01*
X107925998Y-88978718D01*
X108309496Y-89055000D01*
X108700506Y-89055000D01*
X109084004Y-88978718D01*
X109445251Y-88829085D01*
X109770365Y-88611851D01*
X110046852Y-88335364D01*
X110221158Y-88074495D01*
X114920001Y-88074495D01*
X114920001Y-88465505D01*
X114996283Y-88849003D01*
X115145916Y-89210250D01*
X115363150Y-89535364D01*
X115639637Y-89811851D01*
X115964751Y-90029085D01*
X116325998Y-90178718D01*
X116709496Y-90255000D01*
X117100506Y-90255000D01*
X117484004Y-90178718D01*
X117845251Y-90029085D01*
X118170365Y-89811851D01*
X118446852Y-89535364D01*
X118664086Y-89210250D01*
X118813719Y-88849003D01*
X118890001Y-88465505D01*
X118890001Y-88074495D01*
X118813719Y-87690997D01*
X118664086Y-87329750D01*
X118446852Y-87004636D01*
X118316711Y-86874495D01*
X123835000Y-86874495D01*
X123835000Y-87265505D01*
X123911282Y-87649003D01*
X124060915Y-88010250D01*
X124278149Y-88335364D01*
X124554636Y-88611851D01*
X124879750Y-88829085D01*
X125240997Y-88978718D01*
X125624495Y-89055000D01*
X126015505Y-89055000D01*
X126399003Y-88978718D01*
X126760250Y-88829085D01*
X127085364Y-88611851D01*
X127361851Y-88335364D01*
X127536157Y-88074495D01*
X132235000Y-88074495D01*
X132235000Y-88465505D01*
X132311282Y-88849003D01*
X132460915Y-89210250D01*
X132678149Y-89535364D01*
X132954636Y-89811851D01*
X133279750Y-90029085D01*
X133640997Y-90178718D01*
X134024495Y-90255000D01*
X134415505Y-90255000D01*
X134799003Y-90178718D01*
X135160250Y-90029085D01*
X135485364Y-89811851D01*
X135761851Y-89535364D01*
X135979085Y-89210250D01*
X136128718Y-88849003D01*
X136205000Y-88465505D01*
X136205000Y-88074495D01*
X136128718Y-87690997D01*
X135979085Y-87329750D01*
X135761851Y-87004636D01*
X135631710Y-86874495D01*
X141615000Y-86874495D01*
X141615000Y-87265505D01*
X141691282Y-87649003D01*
X141840915Y-88010250D01*
X142058149Y-88335364D01*
X142334636Y-88611851D01*
X142659750Y-88829085D01*
X143020997Y-88978718D01*
X143404495Y-89055000D01*
X143795505Y-89055000D01*
X144179003Y-88978718D01*
X144540250Y-88829085D01*
X144865364Y-88611851D01*
X145141851Y-88335364D01*
X145316157Y-88074495D01*
X150015000Y-88074495D01*
X150015000Y-88465505D01*
X150091282Y-88849003D01*
X150240915Y-89210250D01*
X150458149Y-89535364D01*
X150734636Y-89811851D01*
X151059750Y-90029085D01*
X151420997Y-90178718D01*
X151804495Y-90255000D01*
X152195505Y-90255000D01*
X152579003Y-90178718D01*
X152940250Y-90029085D01*
X153265364Y-89811851D01*
X153541851Y-89535364D01*
X153759085Y-89210250D01*
X153908718Y-88849003D01*
X153985000Y-88465505D01*
X153985000Y-88074495D01*
X153908718Y-87690997D01*
X153759085Y-87329750D01*
X153541851Y-87004636D01*
X153265364Y-86728149D01*
X152940250Y-86510915D01*
X152579003Y-86361282D01*
X152195505Y-86285000D01*
X151804495Y-86285000D01*
X151420997Y-86361282D01*
X151059750Y-86510915D01*
X150734636Y-86728149D01*
X150458149Y-87004636D01*
X150240915Y-87329750D01*
X150091282Y-87690997D01*
X150015000Y-88074495D01*
X145316157Y-88074495D01*
X145359085Y-88010250D01*
X145508718Y-87649003D01*
X145585000Y-87265505D01*
X145585000Y-86874495D01*
X145508718Y-86490997D01*
X145359085Y-86129750D01*
X145141851Y-85804636D01*
X144865364Y-85528149D01*
X144540250Y-85310915D01*
X144179003Y-85161282D01*
X143795505Y-85085000D01*
X143404495Y-85085000D01*
X143020997Y-85161282D01*
X142659750Y-85310915D01*
X142334636Y-85528149D01*
X142058149Y-85804636D01*
X141840915Y-86129750D01*
X141691282Y-86490997D01*
X141615000Y-86874495D01*
X135631710Y-86874495D01*
X135485364Y-86728149D01*
X135160250Y-86510915D01*
X134799003Y-86361282D01*
X134415505Y-86285000D01*
X134024495Y-86285000D01*
X133640997Y-86361282D01*
X133279750Y-86510915D01*
X132954636Y-86728149D01*
X132678149Y-87004636D01*
X132460915Y-87329750D01*
X132311282Y-87690997D01*
X132235000Y-88074495D01*
X127536157Y-88074495D01*
X127579085Y-88010250D01*
X127728718Y-87649003D01*
X127805000Y-87265505D01*
X127805000Y-86874495D01*
X127728718Y-86490997D01*
X127579085Y-86129750D01*
X127361851Y-85804636D01*
X127085364Y-85528149D01*
X126760250Y-85310915D01*
X126399003Y-85161282D01*
X126015505Y-85085000D01*
X125624495Y-85085000D01*
X125240997Y-85161282D01*
X124879750Y-85310915D01*
X124554636Y-85528149D01*
X124278149Y-85804636D01*
X124060915Y-86129750D01*
X123911282Y-86490997D01*
X123835000Y-86874495D01*
X118316711Y-86874495D01*
X118170365Y-86728149D01*
X117845251Y-86510915D01*
X117484004Y-86361282D01*
X117100506Y-86285000D01*
X116709496Y-86285000D01*
X116325998Y-86361282D01*
X115964751Y-86510915D01*
X115639637Y-86728149D01*
X115363150Y-87004636D01*
X115145916Y-87329750D01*
X114996283Y-87690997D01*
X114920001Y-88074495D01*
X110221158Y-88074495D01*
X110264086Y-88010250D01*
X110413719Y-87649003D01*
X110490001Y-87265505D01*
X110490001Y-86874495D01*
X110413719Y-86490997D01*
X110264086Y-86129750D01*
X110046852Y-85804636D01*
X109770365Y-85528149D01*
X109445251Y-85310915D01*
X109084004Y-85161282D01*
X108700506Y-85085000D01*
X108309496Y-85085000D01*
X107925998Y-85161282D01*
X107564751Y-85310915D01*
X107239637Y-85528149D01*
X106963150Y-85804636D01*
X106745916Y-86129750D01*
X106596283Y-86490997D01*
X106520001Y-86874495D01*
X104545000Y-86874495D01*
X104545000Y-70199039D01*
X107513097Y-70199039D01*
X107553755Y-70333087D01*
X107673964Y-70587420D01*
X107841482Y-70813414D01*
X108049870Y-71002385D01*
X108291120Y-71147070D01*
X108555961Y-71241909D01*
X108778001Y-71120624D01*
X108778001Y-69977000D01*
X109032001Y-69977000D01*
X109032001Y-71120624D01*
X109254041Y-71241909D01*
X109518882Y-71147070D01*
X109760132Y-71002385D01*
X109968520Y-70813414D01*
X110136038Y-70587420D01*
X110256247Y-70333087D01*
X110296905Y-70199039D01*
X110174916Y-69977000D01*
X109032001Y-69977000D01*
X108778001Y-69977000D01*
X107635086Y-69977000D01*
X107513097Y-70199039D01*
X104545000Y-70199039D01*
X104545000Y-47752000D01*
X105408324Y-47752000D01*
X105412000Y-47789323D01*
X105412001Y-52921668D01*
X105408324Y-52959000D01*
X105412001Y-52996333D01*
X105417066Y-53047753D01*
X105422998Y-53107985D01*
X105466454Y-53251246D01*
X105537026Y-53383276D01*
X105599326Y-53459188D01*
X105632000Y-53499001D01*
X105660998Y-53522799D01*
X106748198Y-54610000D01*
X105661003Y-55697196D01*
X105631999Y-55720999D01*
X105599326Y-55760812D01*
X105537026Y-55836724D01*
X105513894Y-55880001D01*
X105466454Y-55968754D01*
X105422997Y-56112015D01*
X105412000Y-56223668D01*
X105412000Y-56223678D01*
X105408324Y-56261000D01*
X105412000Y-56298322D01*
X105412001Y-64539667D01*
X105408324Y-64576999D01*
X105412001Y-64614332D01*
X105422998Y-64725985D01*
X105432818Y-64758359D01*
X105466454Y-64869245D01*
X105537026Y-65001275D01*
X105608201Y-65088001D01*
X105632000Y-65117000D01*
X105660998Y-65140798D01*
X107504293Y-66984094D01*
X107490765Y-67028691D01*
X107463058Y-67310000D01*
X107490765Y-67591309D01*
X107572819Y-67861808D01*
X107706069Y-68111101D01*
X107885393Y-68329608D01*
X108103900Y-68508932D01*
X108241683Y-68582579D01*
X108049870Y-68697615D01*
X107841482Y-68886586D01*
X107673964Y-69112580D01*
X107553755Y-69366913D01*
X107513097Y-69500961D01*
X107635086Y-69723000D01*
X108778001Y-69723000D01*
X108778001Y-69703000D01*
X109032001Y-69703000D01*
X109032001Y-69723000D01*
X110174916Y-69723000D01*
X110296905Y-69500961D01*
X110256247Y-69366913D01*
X110136038Y-69112580D01*
X109968520Y-68886586D01*
X109760132Y-68697615D01*
X109568319Y-68582579D01*
X109706102Y-68508932D01*
X109924609Y-68329608D01*
X110103933Y-68111101D01*
X110237183Y-67861808D01*
X110319237Y-67591309D01*
X110346944Y-67310000D01*
X110344403Y-67284204D01*
X110492000Y-67431801D01*
X110492001Y-70678196D01*
X106169003Y-75001196D01*
X106139999Y-75024999D01*
X106099798Y-75073985D01*
X106045026Y-75140724D01*
X105974455Y-75272753D01*
X105974454Y-75272754D01*
X105930997Y-75416015D01*
X105920000Y-75527668D01*
X105920000Y-75527678D01*
X105916324Y-75565000D01*
X105920000Y-75602323D01*
X105920001Y-78607667D01*
X105916324Y-78644999D01*
X105920001Y-78682332D01*
X105920193Y-78684276D01*
X105930998Y-78793984D01*
X105974454Y-78937245D01*
X106045026Y-79069275D01*
X106116201Y-79156001D01*
X106140000Y-79185000D01*
X106168998Y-79208798D01*
X109492531Y-82532332D01*
X109445001Y-82771278D01*
X109445001Y-83068722D01*
X109503030Y-83360451D01*
X109616857Y-83635253D01*
X109782108Y-83882569D01*
X109992432Y-84092893D01*
X110239748Y-84258144D01*
X110514550Y-84371971D01*
X110806279Y-84430000D01*
X111103723Y-84430000D01*
X111395452Y-84371971D01*
X111670254Y-84258144D01*
X111917570Y-84092893D01*
X112127894Y-83882569D01*
X112293145Y-83635253D01*
X112406972Y-83360451D01*
X112465001Y-83068722D01*
X112465001Y-82771278D01*
X112406972Y-82479549D01*
X112293145Y-82204747D01*
X112186406Y-82045000D01*
X112941929Y-82045000D01*
X112941929Y-83795000D01*
X112954189Y-83919482D01*
X112990499Y-84039180D01*
X113049464Y-84149494D01*
X113128816Y-84246185D01*
X113225507Y-84325537D01*
X113335821Y-84384502D01*
X113455519Y-84420812D01*
X113580001Y-84433072D01*
X115330001Y-84433072D01*
X115454483Y-84420812D01*
X115574181Y-84384502D01*
X115684495Y-84325537D01*
X115781186Y-84246185D01*
X115860538Y-84149494D01*
X115919503Y-84039180D01*
X115955813Y-83919482D01*
X115968073Y-83795000D01*
X115968073Y-83574326D01*
X116004277Y-83554974D01*
X116120002Y-83460001D01*
X116143805Y-83430998D01*
X117026004Y-82548799D01*
X117055002Y-82525001D01*
X117149975Y-82409276D01*
X117220547Y-82277247D01*
X117264004Y-82133986D01*
X117275001Y-82022333D01*
X117275001Y-82022325D01*
X117278677Y-81985000D01*
X117275001Y-81947675D01*
X117275001Y-77420901D01*
X117316102Y-77398932D01*
X117534609Y-77219608D01*
X117713933Y-77001101D01*
X117847183Y-76751808D01*
X117929237Y-76481309D01*
X117956944Y-76200000D01*
X117929237Y-75918691D01*
X117847183Y-75648192D01*
X117713933Y-75398899D01*
X117534609Y-75180392D01*
X117316102Y-75001068D01*
X117066809Y-74867818D01*
X116796310Y-74785764D01*
X116585493Y-74765000D01*
X116444509Y-74765000D01*
X116233692Y-74785764D01*
X115963193Y-74867818D01*
X115713900Y-75001068D01*
X115495393Y-75180392D01*
X115316069Y-75398899D01*
X115182819Y-75648192D01*
X115100765Y-75918691D01*
X115073058Y-76200000D01*
X115100765Y-76481309D01*
X115182819Y-76751808D01*
X115316069Y-77001101D01*
X115495393Y-77219608D01*
X115713900Y-77398932D01*
X115755001Y-77420901D01*
X115755002Y-81572326D01*
X115684495Y-81514463D01*
X115574181Y-81455498D01*
X115454483Y-81419188D01*
X115330001Y-81406928D01*
X113580001Y-81406928D01*
X113455519Y-81419188D01*
X113335821Y-81455498D01*
X113225507Y-81514463D01*
X113128816Y-81593815D01*
X113049464Y-81690506D01*
X112990499Y-81800820D01*
X112954189Y-81920518D01*
X112941929Y-82045000D01*
X112186406Y-82045000D01*
X112127894Y-81957431D01*
X111917570Y-81747107D01*
X111670254Y-81581856D01*
X111395452Y-81468029D01*
X111103723Y-81410000D01*
X110806279Y-81410000D01*
X110567333Y-81457530D01*
X107440000Y-78330198D01*
X107440000Y-75879801D01*
X107509381Y-75810421D01*
X107460001Y-76058665D01*
X107460001Y-76341335D01*
X107515148Y-76618574D01*
X107623321Y-76879727D01*
X107780364Y-77114759D01*
X107980242Y-77314637D01*
X108215274Y-77471680D01*
X108476427Y-77579853D01*
X108753666Y-77635000D01*
X109036336Y-77635000D01*
X109313575Y-77579853D01*
X109574728Y-77471680D01*
X109809760Y-77314637D01*
X110009638Y-77114759D01*
X110166681Y-76879727D01*
X110274854Y-76618574D01*
X110330001Y-76341335D01*
X110330001Y-76058665D01*
X110293689Y-75876113D01*
X113033003Y-73136800D01*
X113062001Y-73113002D01*
X113156974Y-72997277D01*
X113227546Y-72865248D01*
X113271003Y-72721987D01*
X113282000Y-72610334D01*
X113282000Y-72610325D01*
X113285676Y-72573002D01*
X113282000Y-72535679D01*
X113282000Y-64195801D01*
X114487802Y-62990000D01*
X115304100Y-62990000D01*
X115326069Y-63031101D01*
X115505393Y-63249608D01*
X115723900Y-63428932D01*
X115856859Y-63500000D01*
X115723900Y-63571068D01*
X115505393Y-63750392D01*
X115326069Y-63968899D01*
X115192819Y-64218192D01*
X115110765Y-64488691D01*
X115083058Y-64770000D01*
X115110765Y-65051309D01*
X115192819Y-65321808D01*
X115326069Y-65571101D01*
X115505393Y-65789608D01*
X115723900Y-65968932D01*
X115856859Y-66040000D01*
X115723900Y-66111068D01*
X115505393Y-66290392D01*
X115326069Y-66508899D01*
X115192819Y-66758192D01*
X115110765Y-67028691D01*
X115083058Y-67310000D01*
X115110765Y-67591309D01*
X115124293Y-67635906D01*
X114042998Y-68717202D01*
X114014000Y-68741000D01*
X113990202Y-68769998D01*
X113990201Y-68769999D01*
X113919026Y-68856725D01*
X113848454Y-68988755D01*
X113818180Y-69088559D01*
X113810894Y-69112580D01*
X113804998Y-69132016D01*
X113790324Y-69281001D01*
X113794001Y-69318333D01*
X113794000Y-70955677D01*
X113790324Y-70993000D01*
X113794000Y-71030322D01*
X113794000Y-71030332D01*
X113804997Y-71141985D01*
X113835308Y-71241909D01*
X113848454Y-71285246D01*
X113919026Y-71417276D01*
X113958871Y-71465826D01*
X114013999Y-71533001D01*
X114043003Y-71556804D01*
X125917201Y-83431003D01*
X125940999Y-83460001D01*
X126056724Y-83554974D01*
X126188753Y-83625546D01*
X126332014Y-83669003D01*
X126443667Y-83680000D01*
X126443676Y-83680000D01*
X126480999Y-83683676D01*
X126518322Y-83680000D01*
X126961755Y-83680000D01*
X127097107Y-83882569D01*
X127307431Y-84092893D01*
X127554747Y-84258144D01*
X127829549Y-84371971D01*
X128121278Y-84430000D01*
X128418722Y-84430000D01*
X128710451Y-84371971D01*
X128985253Y-84258144D01*
X129232569Y-84092893D01*
X129442893Y-83882569D01*
X129608144Y-83635253D01*
X129721971Y-83360451D01*
X129780000Y-83068722D01*
X129780000Y-82771278D01*
X129721971Y-82479549D01*
X129608144Y-82204747D01*
X129501405Y-82045000D01*
X130256928Y-82045000D01*
X130256928Y-83795000D01*
X130269188Y-83919482D01*
X130305498Y-84039180D01*
X130364463Y-84149494D01*
X130443815Y-84246185D01*
X130540506Y-84325537D01*
X130650820Y-84384502D01*
X130770518Y-84420812D01*
X130895000Y-84433072D01*
X132645000Y-84433072D01*
X132769482Y-84420812D01*
X132889180Y-84384502D01*
X132999494Y-84325537D01*
X133096185Y-84246185D01*
X133175537Y-84149494D01*
X133234502Y-84039180D01*
X133270812Y-83919482D01*
X133283072Y-83795000D01*
X133283072Y-83574326D01*
X133319276Y-83554974D01*
X133435001Y-83460001D01*
X133458804Y-83430998D01*
X134118524Y-82771278D01*
X144540000Y-82771278D01*
X144540000Y-83068722D01*
X144598029Y-83360451D01*
X144711856Y-83635253D01*
X144877107Y-83882569D01*
X145087431Y-84092893D01*
X145334747Y-84258144D01*
X145609549Y-84371971D01*
X145901278Y-84430000D01*
X146198722Y-84430000D01*
X146490451Y-84371971D01*
X146765253Y-84258144D01*
X147012569Y-84092893D01*
X147222893Y-83882569D01*
X147388144Y-83635253D01*
X147501971Y-83360451D01*
X147560000Y-83068722D01*
X147560000Y-82771278D01*
X147501971Y-82479549D01*
X147388144Y-82204747D01*
X147281405Y-82045000D01*
X148036928Y-82045000D01*
X148036928Y-83795000D01*
X148049188Y-83919482D01*
X148085498Y-84039180D01*
X148144463Y-84149494D01*
X148223815Y-84246185D01*
X148320506Y-84325537D01*
X148430820Y-84384502D01*
X148550518Y-84420812D01*
X148675000Y-84433072D01*
X150425000Y-84433072D01*
X150549482Y-84420812D01*
X150669180Y-84384502D01*
X150779494Y-84325537D01*
X150876185Y-84246185D01*
X150955537Y-84149494D01*
X151014502Y-84039180D01*
X151050812Y-83919482D01*
X151063072Y-83795000D01*
X151063072Y-82045000D01*
X151050812Y-81920518D01*
X151014502Y-81800820D01*
X150955537Y-81690506D01*
X150876185Y-81593815D01*
X150779494Y-81514463D01*
X150669180Y-81455498D01*
X150549482Y-81419188D01*
X150425000Y-81406928D01*
X150310000Y-81406928D01*
X150310000Y-78574801D01*
X151284094Y-77600708D01*
X151328691Y-77614236D01*
X151539508Y-77635000D01*
X151680492Y-77635000D01*
X151891309Y-77614236D01*
X152161808Y-77532182D01*
X152411101Y-77398932D01*
X152629608Y-77219608D01*
X152808932Y-77001101D01*
X152942182Y-76751808D01*
X153024236Y-76481309D01*
X153051943Y-76200000D01*
X153024236Y-75918691D01*
X152942182Y-75648192D01*
X152808932Y-75398899D01*
X152629608Y-75180392D01*
X152411101Y-75001068D01*
X152161808Y-74867818D01*
X151891309Y-74785764D01*
X151680492Y-74765000D01*
X151539508Y-74765000D01*
X151328691Y-74785764D01*
X151058192Y-74867818D01*
X150808899Y-75001068D01*
X150590392Y-75180392D01*
X150411068Y-75398899D01*
X150277818Y-75648192D01*
X150195764Y-75918691D01*
X150168057Y-76200000D01*
X150195764Y-76481309D01*
X150209292Y-76525906D01*
X149038998Y-77696201D01*
X149010000Y-77719999D01*
X148986202Y-77748997D01*
X148986201Y-77748998D01*
X148915026Y-77835724D01*
X148844454Y-77967754D01*
X148831632Y-78010025D01*
X148800998Y-78111014D01*
X148790001Y-78222667D01*
X148786324Y-78260000D01*
X148790001Y-78297332D01*
X148790000Y-81406928D01*
X148675000Y-81406928D01*
X148550518Y-81419188D01*
X148430820Y-81455498D01*
X148320506Y-81514463D01*
X148223815Y-81593815D01*
X148144463Y-81690506D01*
X148085498Y-81800820D01*
X148049188Y-81920518D01*
X148036928Y-82045000D01*
X147281405Y-82045000D01*
X147222893Y-81957431D01*
X147012569Y-81747107D01*
X146765253Y-81581856D01*
X146490451Y-81468029D01*
X146198722Y-81410000D01*
X145901278Y-81410000D01*
X145609549Y-81468029D01*
X145334747Y-81581856D01*
X145087431Y-81747107D01*
X144877107Y-81957431D01*
X144711856Y-82204747D01*
X144598029Y-82479549D01*
X144540000Y-82771278D01*
X134118524Y-82771278D01*
X134341003Y-82548799D01*
X134370001Y-82525001D01*
X134464974Y-82409276D01*
X134535546Y-82277247D01*
X134579003Y-82133986D01*
X134590000Y-82022333D01*
X134590000Y-82022325D01*
X134593676Y-81985000D01*
X134590000Y-81947675D01*
X134590000Y-77420901D01*
X134631101Y-77398932D01*
X134849608Y-77219608D01*
X135028932Y-77001101D01*
X135162182Y-76751808D01*
X135244236Y-76481309D01*
X135271943Y-76200000D01*
X135244236Y-75918691D01*
X135162182Y-75648192D01*
X135028932Y-75398899D01*
X134849608Y-75180392D01*
X134631101Y-75001068D01*
X134381808Y-74867818D01*
X134111309Y-74785764D01*
X133900492Y-74765000D01*
X133759508Y-74765000D01*
X133548691Y-74785764D01*
X133278192Y-74867818D01*
X133028899Y-75001068D01*
X132810392Y-75180392D01*
X132631068Y-75398899D01*
X132497818Y-75648192D01*
X132415764Y-75918691D01*
X132388057Y-76200000D01*
X132415764Y-76481309D01*
X132497818Y-76751808D01*
X132631068Y-77001101D01*
X132810392Y-77219608D01*
X133028899Y-77398932D01*
X133070000Y-77420901D01*
X133070001Y-81572326D01*
X132999494Y-81514463D01*
X132889180Y-81455498D01*
X132769482Y-81419188D01*
X132645000Y-81406928D01*
X130895000Y-81406928D01*
X130770518Y-81419188D01*
X130650820Y-81455498D01*
X130540506Y-81514463D01*
X130443815Y-81593815D01*
X130364463Y-81690506D01*
X130305498Y-81800820D01*
X130269188Y-81920518D01*
X130256928Y-82045000D01*
X129501405Y-82045000D01*
X129442893Y-81957431D01*
X129232569Y-81747107D01*
X128985253Y-81581856D01*
X128710451Y-81468029D01*
X128418722Y-81410000D01*
X128121278Y-81410000D01*
X127829549Y-81468029D01*
X127554747Y-81581856D01*
X127307431Y-81747107D01*
X127097107Y-81957431D01*
X126961755Y-82160000D01*
X126795802Y-82160000D01*
X115505482Y-70869681D01*
X115723900Y-71048932D01*
X115973193Y-71182182D01*
X116243692Y-71264236D01*
X116454509Y-71285000D01*
X116595493Y-71285000D01*
X116806310Y-71264236D01*
X117076809Y-71182182D01*
X117326102Y-71048932D01*
X117544609Y-70869608D01*
X117723933Y-70651101D01*
X117857183Y-70401808D01*
X117939237Y-70131309D01*
X117966944Y-69850000D01*
X117939237Y-69568691D01*
X117857183Y-69298192D01*
X117723933Y-69048899D01*
X117544609Y-68830392D01*
X117326102Y-68651068D01*
X117193143Y-68580000D01*
X117326102Y-68508932D01*
X117544609Y-68329608D01*
X117723933Y-68111101D01*
X117857183Y-67861808D01*
X117939237Y-67591309D01*
X117966944Y-67310000D01*
X117939237Y-67028691D01*
X117857183Y-66758192D01*
X117723933Y-66508899D01*
X117544609Y-66290392D01*
X117326102Y-66111068D01*
X117193143Y-66040000D01*
X117326102Y-65968932D01*
X117544609Y-65789608D01*
X117723933Y-65571101D01*
X117857183Y-65321808D01*
X117939237Y-65051309D01*
X117966944Y-64770000D01*
X117939237Y-64488691D01*
X117857183Y-64218192D01*
X117723933Y-63968899D01*
X117544609Y-63750392D01*
X117326102Y-63571068D01*
X117193143Y-63500000D01*
X117326102Y-63428932D01*
X117544609Y-63249608D01*
X117723933Y-63031101D01*
X117745902Y-62990000D01*
X120820199Y-62990000D01*
X123494203Y-65664005D01*
X123471487Y-65738889D01*
X123442815Y-66030000D01*
X123471487Y-66321111D01*
X123556401Y-66601034D01*
X123694294Y-66859014D01*
X123879866Y-67085134D01*
X124105986Y-67270706D01*
X124175000Y-67307595D01*
X124175001Y-74887668D01*
X124171324Y-74925000D01*
X124185998Y-75073985D01*
X124229454Y-75217246D01*
X124300026Y-75349276D01*
X124354797Y-75416014D01*
X124395000Y-75465001D01*
X124423998Y-75488799D01*
X124811312Y-75876114D01*
X124775000Y-76058665D01*
X124775000Y-76341335D01*
X124830147Y-76618574D01*
X124938320Y-76879727D01*
X125095363Y-77114759D01*
X125295241Y-77314637D01*
X125530273Y-77471680D01*
X125791426Y-77579853D01*
X126068665Y-77635000D01*
X126351335Y-77635000D01*
X126628574Y-77579853D01*
X126889727Y-77471680D01*
X127124759Y-77314637D01*
X127324637Y-77114759D01*
X127481680Y-76879727D01*
X127589853Y-76618574D01*
X127645000Y-76341335D01*
X127645000Y-76058665D01*
X127589853Y-75781426D01*
X127481680Y-75520273D01*
X127324637Y-75285241D01*
X127124759Y-75085363D01*
X126889727Y-74928320D01*
X126628574Y-74820147D01*
X126351335Y-74765000D01*
X126068665Y-74765000D01*
X125886114Y-74801312D01*
X125695000Y-74610199D01*
X125695000Y-67864801D01*
X129715200Y-71885002D01*
X129738999Y-71914001D01*
X129854724Y-72008974D01*
X129986753Y-72079546D01*
X130130014Y-72123003D01*
X130241667Y-72134000D01*
X130241676Y-72134000D01*
X130278999Y-72137676D01*
X130316322Y-72134000D01*
X138849199Y-72134000D01*
X142591312Y-75876114D01*
X142555000Y-76058665D01*
X142555000Y-76341335D01*
X142610147Y-76618574D01*
X142718320Y-76879727D01*
X142875363Y-77114759D01*
X143075241Y-77314637D01*
X143310273Y-77471680D01*
X143571426Y-77579853D01*
X143848665Y-77635000D01*
X144131335Y-77635000D01*
X144408574Y-77579853D01*
X144669727Y-77471680D01*
X144904759Y-77314637D01*
X145104637Y-77114759D01*
X145261680Y-76879727D01*
X145369853Y-76618574D01*
X145425000Y-76341335D01*
X145425000Y-76058665D01*
X145388688Y-75876113D01*
X148212003Y-73052799D01*
X148241001Y-73029001D01*
X148335974Y-72913276D01*
X148406546Y-72781247D01*
X148450003Y-72637986D01*
X148461000Y-72526333D01*
X148464677Y-72489000D01*
X148461000Y-72451667D01*
X148461000Y-66354801D01*
X150192506Y-64623295D01*
X150178057Y-64770000D01*
X150205764Y-65051309D01*
X150287818Y-65321808D01*
X150421068Y-65571101D01*
X150600392Y-65789608D01*
X150818899Y-65968932D01*
X150951858Y-66040000D01*
X150818899Y-66111068D01*
X150600392Y-66290392D01*
X150421068Y-66508899D01*
X150287818Y-66758192D01*
X150205764Y-67028691D01*
X150178057Y-67310000D01*
X150205764Y-67591309D01*
X150287818Y-67861808D01*
X150421068Y-68111101D01*
X150600392Y-68329608D01*
X150818899Y-68508932D01*
X150951858Y-68580000D01*
X150818899Y-68651068D01*
X150600392Y-68830392D01*
X150421068Y-69048899D01*
X150287818Y-69298192D01*
X150205764Y-69568691D01*
X150178057Y-69850000D01*
X150205764Y-70131309D01*
X150287818Y-70401808D01*
X150421068Y-70651101D01*
X150600392Y-70869608D01*
X150818899Y-71048932D01*
X151068192Y-71182182D01*
X151338691Y-71264236D01*
X151549508Y-71285000D01*
X151690492Y-71285000D01*
X151901309Y-71264236D01*
X152171808Y-71182182D01*
X152421101Y-71048932D01*
X152639608Y-70869608D01*
X152818932Y-70651101D01*
X152952182Y-70401808D01*
X153034236Y-70131309D01*
X153061943Y-69850000D01*
X153034236Y-69568691D01*
X152952182Y-69298192D01*
X152818932Y-69048899D01*
X152639608Y-68830392D01*
X152421101Y-68651068D01*
X152288142Y-68580000D01*
X152421101Y-68508932D01*
X152639608Y-68329608D01*
X152818932Y-68111101D01*
X152952182Y-67861808D01*
X153034236Y-67591309D01*
X153061943Y-67310000D01*
X153034236Y-67028691D01*
X152952182Y-66758192D01*
X152818932Y-66508899D01*
X152639608Y-66290392D01*
X152421101Y-66111068D01*
X152288142Y-66040000D01*
X152421101Y-65968932D01*
X152639608Y-65789608D01*
X152818932Y-65571101D01*
X152952182Y-65321808D01*
X153034236Y-65051309D01*
X153061943Y-64770000D01*
X153034236Y-64488691D01*
X152952182Y-64218192D01*
X152818932Y-63968899D01*
X152639608Y-63750392D01*
X152421101Y-63571068D01*
X152288142Y-63500000D01*
X152421101Y-63428932D01*
X152639608Y-63249608D01*
X152818932Y-63031101D01*
X152952182Y-62781808D01*
X153034236Y-62511309D01*
X153061943Y-62230000D01*
X153034236Y-61948691D01*
X153020708Y-61904094D01*
X155197004Y-59727798D01*
X155226001Y-59704001D01*
X155320974Y-59588276D01*
X155391546Y-59456247D01*
X155435003Y-59312986D01*
X155446000Y-59201333D01*
X155446000Y-59201325D01*
X155449676Y-59164000D01*
X155446000Y-59126675D01*
X155446000Y-48424325D01*
X155449676Y-48387000D01*
X155446000Y-48349675D01*
X155446000Y-48349667D01*
X155435003Y-48238014D01*
X155391546Y-48094753D01*
X155320974Y-47962724D01*
X155226001Y-47846999D01*
X155197003Y-47823201D01*
X153471804Y-46098003D01*
X153448001Y-46068999D01*
X153332276Y-45974026D01*
X153200247Y-45903454D01*
X153056986Y-45859997D01*
X152945333Y-45849000D01*
X152945322Y-45849000D01*
X152908000Y-45845324D01*
X152870678Y-45849000D01*
X146948323Y-45849000D01*
X146911000Y-45845324D01*
X146873677Y-45849000D01*
X146873667Y-45849000D01*
X146762014Y-45859997D01*
X146618753Y-45903454D01*
X146486724Y-45974026D01*
X146370999Y-46068999D01*
X146347201Y-46097997D01*
X144313886Y-48131312D01*
X144131335Y-48095000D01*
X143848665Y-48095000D01*
X143571426Y-48150147D01*
X143310273Y-48258320D01*
X143075241Y-48415363D01*
X142875363Y-48615241D01*
X142718320Y-48850273D01*
X142610147Y-49111426D01*
X142555000Y-49388665D01*
X142555000Y-49671335D01*
X142610147Y-49948574D01*
X142718320Y-50209727D01*
X142875363Y-50444759D01*
X143075241Y-50644637D01*
X143310273Y-50801680D01*
X143571426Y-50909853D01*
X143848665Y-50965000D01*
X144131335Y-50965000D01*
X144408574Y-50909853D01*
X144669727Y-50801680D01*
X144904759Y-50644637D01*
X145104637Y-50444759D01*
X145261680Y-50209727D01*
X145369853Y-49948574D01*
X145425000Y-49671335D01*
X145425000Y-49388665D01*
X145388688Y-49206114D01*
X147225802Y-47369000D01*
X152593199Y-47369000D01*
X153926001Y-48701803D01*
X153926000Y-58849198D01*
X151945906Y-60829292D01*
X151901309Y-60815764D01*
X151690492Y-60795000D01*
X151549508Y-60795000D01*
X151338691Y-60815764D01*
X151068192Y-60897818D01*
X150818899Y-61031068D01*
X150600392Y-61210392D01*
X150421068Y-61428899D01*
X150287818Y-61678192D01*
X150205764Y-61948691D01*
X150178057Y-62230000D01*
X150201222Y-62465195D01*
X150171000Y-62489998D01*
X150147202Y-62518996D01*
X147190003Y-65476196D01*
X147160999Y-65499999D01*
X147105871Y-65567174D01*
X147066026Y-65615724D01*
X146995455Y-65747753D01*
X146995454Y-65747754D01*
X146951997Y-65891015D01*
X146941000Y-66002668D01*
X146941000Y-66002678D01*
X146937324Y-66040000D01*
X146941000Y-66077323D01*
X146941001Y-72174197D01*
X144313887Y-74801312D01*
X144131335Y-74765000D01*
X143848665Y-74765000D01*
X143666114Y-74801312D01*
X139727804Y-70863003D01*
X139704001Y-70833999D01*
X139588276Y-70739026D01*
X139456247Y-70668454D01*
X139312986Y-70624997D01*
X139201333Y-70614000D01*
X139201322Y-70614000D01*
X139164000Y-70610324D01*
X139126678Y-70614000D01*
X130593802Y-70614000D01*
X130178841Y-70199039D01*
X142608096Y-70199039D01*
X142648754Y-70333087D01*
X142768963Y-70587420D01*
X142936481Y-70813414D01*
X143144869Y-71002385D01*
X143386119Y-71147070D01*
X143650960Y-71241909D01*
X143873000Y-71120624D01*
X143873000Y-69977000D01*
X144127000Y-69977000D01*
X144127000Y-71120624D01*
X144349040Y-71241909D01*
X144613881Y-71147070D01*
X144855131Y-71002385D01*
X145063519Y-70813414D01*
X145231037Y-70587420D01*
X145351246Y-70333087D01*
X145391904Y-70199039D01*
X145269915Y-69977000D01*
X144127000Y-69977000D01*
X143873000Y-69977000D01*
X142730085Y-69977000D01*
X142608096Y-70199039D01*
X130178841Y-70199039D01*
X127494801Y-67515000D01*
X127602002Y-67515000D01*
X127602002Y-67350156D01*
X127831890Y-67471476D01*
X127979099Y-67426825D01*
X128241920Y-67301641D01*
X128475269Y-67127588D01*
X128670178Y-66911355D01*
X128739799Y-66794477D01*
X128774294Y-66859014D01*
X128959866Y-67085134D01*
X129185986Y-67270706D01*
X129443966Y-67408599D01*
X129723889Y-67493513D01*
X129942050Y-67515000D01*
X130087950Y-67515000D01*
X130306111Y-67493513D01*
X130586034Y-67408599D01*
X130844014Y-67270706D01*
X131070134Y-67085134D01*
X131255706Y-66859014D01*
X131285000Y-66804209D01*
X131314294Y-66859014D01*
X131499866Y-67085134D01*
X131725986Y-67270706D01*
X131983966Y-67408599D01*
X132263889Y-67493513D01*
X132482050Y-67515000D01*
X132627950Y-67515000D01*
X132846111Y-67493513D01*
X133126034Y-67408599D01*
X133384014Y-67270706D01*
X133610134Y-67085134D01*
X133634607Y-67055313D01*
X133655498Y-67124180D01*
X133714463Y-67234494D01*
X133793815Y-67331185D01*
X133890506Y-67410537D01*
X134000820Y-67469502D01*
X134120518Y-67505812D01*
X134245000Y-67518072D01*
X135945000Y-67518072D01*
X136069482Y-67505812D01*
X136189180Y-67469502D01*
X136299494Y-67410537D01*
X136396185Y-67331185D01*
X136475537Y-67234494D01*
X136534502Y-67124180D01*
X136570812Y-67004482D01*
X136583072Y-66880000D01*
X136583072Y-66790000D01*
X142405199Y-66790000D01*
X142599292Y-66984094D01*
X142585764Y-67028691D01*
X142558057Y-67310000D01*
X142585764Y-67591309D01*
X142667818Y-67861808D01*
X142801068Y-68111101D01*
X142980392Y-68329608D01*
X143198899Y-68508932D01*
X143336682Y-68582579D01*
X143144869Y-68697615D01*
X142936481Y-68886586D01*
X142768963Y-69112580D01*
X142648754Y-69366913D01*
X142608096Y-69500961D01*
X142730085Y-69723000D01*
X143873000Y-69723000D01*
X143873000Y-69703000D01*
X144127000Y-69703000D01*
X144127000Y-69723000D01*
X145269915Y-69723000D01*
X145391904Y-69500961D01*
X145351246Y-69366913D01*
X145231037Y-69112580D01*
X145063519Y-68886586D01*
X144855131Y-68697615D01*
X144663318Y-68582579D01*
X144801101Y-68508932D01*
X145019608Y-68329608D01*
X145198932Y-68111101D01*
X145332182Y-67861808D01*
X145414236Y-67591309D01*
X145441943Y-67310000D01*
X145414236Y-67028691D01*
X145400708Y-66984094D01*
X148671008Y-63713795D01*
X148700001Y-63690001D01*
X148723795Y-63661008D01*
X148723799Y-63661004D01*
X148794973Y-63574277D01*
X148794974Y-63574276D01*
X148865546Y-63442247D01*
X148909003Y-63298986D01*
X148920000Y-63187333D01*
X148920000Y-63187324D01*
X148923676Y-63150001D01*
X148920000Y-63112678D01*
X148920000Y-58312087D01*
X149034482Y-58300812D01*
X149154180Y-58264502D01*
X149264494Y-58205537D01*
X149361185Y-58126185D01*
X149440537Y-58029494D01*
X149499502Y-57919180D01*
X149535812Y-57799482D01*
X149548072Y-57675000D01*
X149548072Y-56625000D01*
X149539588Y-56538860D01*
X149584276Y-56514974D01*
X149700001Y-56420001D01*
X149723804Y-56390997D01*
X152121004Y-53993798D01*
X152150001Y-53970001D01*
X152244974Y-53854276D01*
X152315546Y-53722247D01*
X152359003Y-53578986D01*
X152370000Y-53467333D01*
X152370000Y-53467324D01*
X152373676Y-53430001D01*
X152370000Y-53392678D01*
X152370000Y-50750901D01*
X152411101Y-50728932D01*
X152629608Y-50549608D01*
X152808932Y-50331101D01*
X152942182Y-50081808D01*
X153024236Y-49811309D01*
X153051943Y-49530000D01*
X153024236Y-49248691D01*
X152942182Y-48978192D01*
X152808932Y-48728899D01*
X152629608Y-48510392D01*
X152411101Y-48331068D01*
X152161808Y-48197818D01*
X151891309Y-48115764D01*
X151680492Y-48095000D01*
X151539508Y-48095000D01*
X151328691Y-48115764D01*
X151058192Y-48197818D01*
X150808899Y-48331068D01*
X150590392Y-48510392D01*
X150411068Y-48728899D01*
X150277818Y-48978192D01*
X150195764Y-49248691D01*
X150168057Y-49530000D01*
X150195764Y-49811309D01*
X150277818Y-50081808D01*
X150411068Y-50331101D01*
X150590392Y-50549608D01*
X150808899Y-50728932D01*
X150850001Y-50750901D01*
X150850000Y-53115198D01*
X149482201Y-54482998D01*
X149378164Y-54482998D01*
X149503964Y-54304190D01*
X149495272Y-54242663D01*
X149402275Y-54033118D01*
X149270184Y-53845742D01*
X149104076Y-53687736D01*
X148910334Y-53565172D01*
X148696404Y-53482761D01*
X148470507Y-53443669D01*
X148287000Y-53603402D01*
X148287000Y-54483000D01*
X148307000Y-54483000D01*
X148307000Y-54720000D01*
X147878021Y-54720000D01*
X147707600Y-54736785D01*
X147706891Y-54737000D01*
X146941837Y-54737000D01*
X146816036Y-54915810D01*
X146824728Y-54977337D01*
X146888042Y-55120000D01*
X145500227Y-55120000D01*
X145462904Y-55116324D01*
X145425581Y-55120000D01*
X145425572Y-55120000D01*
X145313919Y-55130997D01*
X145172817Y-55173799D01*
X145170658Y-55174454D01*
X145038628Y-55245026D01*
X145021014Y-55259482D01*
X144922904Y-55339999D01*
X144899106Y-55368997D01*
X143488998Y-56779106D01*
X143460000Y-56802904D01*
X143436202Y-56831902D01*
X143436201Y-56831903D01*
X143365026Y-56918629D01*
X143294454Y-57050659D01*
X143250998Y-57193920D01*
X143236324Y-57342905D01*
X143240001Y-57380237D01*
X143240000Y-60791928D01*
X143200000Y-60791928D01*
X143075518Y-60804188D01*
X142955820Y-60840498D01*
X142845506Y-60899463D01*
X142748815Y-60978815D01*
X142669463Y-61075506D01*
X142610498Y-61185820D01*
X142574188Y-61305518D01*
X142561928Y-61430000D01*
X142561928Y-63030000D01*
X142574188Y-63154482D01*
X142610498Y-63274180D01*
X142669463Y-63384494D01*
X142748815Y-63481185D01*
X142845506Y-63560537D01*
X142955820Y-63619502D01*
X143075518Y-63655812D01*
X143093482Y-63657581D01*
X142980392Y-63750392D01*
X142801068Y-63968899D01*
X142667818Y-64218192D01*
X142585764Y-64488691D01*
X142558057Y-64770000D01*
X142585764Y-65051309D01*
X142652102Y-65270000D01*
X136583072Y-65270000D01*
X136583072Y-65180000D01*
X136570812Y-65055518D01*
X136534502Y-64935820D01*
X136475537Y-64825506D01*
X136396185Y-64728815D01*
X136299494Y-64649463D01*
X136189180Y-64590498D01*
X136069482Y-64554188D01*
X135945000Y-64541928D01*
X134245000Y-64541928D01*
X134120518Y-64554188D01*
X134000820Y-64590498D01*
X133890506Y-64649463D01*
X133793815Y-64728815D01*
X133714463Y-64825506D01*
X133655498Y-64935820D01*
X133634607Y-65004687D01*
X133610134Y-64974866D01*
X133384014Y-64789294D01*
X133126034Y-64651401D01*
X132846111Y-64566487D01*
X132627950Y-64545000D01*
X132482050Y-64545000D01*
X132263889Y-64566487D01*
X132189004Y-64589203D01*
X132050000Y-64450199D01*
X132050000Y-56862287D01*
X132059180Y-56859502D01*
X132169494Y-56800537D01*
X132266185Y-56721185D01*
X132345537Y-56624494D01*
X132404502Y-56514180D01*
X132440812Y-56394482D01*
X132453072Y-56270000D01*
X132453072Y-54770000D01*
X132440812Y-54645518D01*
X132404502Y-54525820D01*
X132345537Y-54415506D01*
X132266185Y-54318815D01*
X132248365Y-54304190D01*
X146816036Y-54304190D01*
X146941837Y-54483000D01*
X148033000Y-54483000D01*
X148033000Y-53603402D01*
X147849493Y-53443669D01*
X147623596Y-53482761D01*
X147409666Y-53565172D01*
X147215924Y-53687736D01*
X147049816Y-53845742D01*
X146917725Y-54033118D01*
X146824728Y-54242663D01*
X146816036Y-54304190D01*
X132248365Y-54304190D01*
X132169494Y-54239463D01*
X132059180Y-54180498D01*
X131939482Y-54144188D01*
X131815000Y-54131928D01*
X130780000Y-54131928D01*
X130780000Y-53654801D01*
X133504094Y-50930708D01*
X133548691Y-50944236D01*
X133759508Y-50965000D01*
X133900492Y-50965000D01*
X134111309Y-50944236D01*
X134381808Y-50862182D01*
X134631101Y-50728932D01*
X134849608Y-50549608D01*
X135028932Y-50331101D01*
X135162182Y-50081808D01*
X135244236Y-49811309D01*
X135271943Y-49530000D01*
X135244236Y-49248691D01*
X135162182Y-48978192D01*
X135028932Y-48728899D01*
X134849608Y-48510392D01*
X134631101Y-48331068D01*
X134381808Y-48197818D01*
X134111309Y-48115764D01*
X133900492Y-48095000D01*
X133759508Y-48095000D01*
X133548691Y-48115764D01*
X133278192Y-48197818D01*
X133028899Y-48331068D01*
X132810392Y-48510392D01*
X132631068Y-48728899D01*
X132497818Y-48978192D01*
X132415764Y-49248691D01*
X132388057Y-49530000D01*
X132415764Y-49811309D01*
X132429292Y-49855906D01*
X129508998Y-52776201D01*
X129480000Y-52799999D01*
X129456202Y-52828997D01*
X129456201Y-52828998D01*
X129385026Y-52915724D01*
X129314454Y-53047754D01*
X129296184Y-53107985D01*
X129270998Y-53191014D01*
X129262134Y-53281015D01*
X129256324Y-53340000D01*
X129260001Y-53377332D01*
X129260001Y-54248043D01*
X129117337Y-54184728D01*
X129055810Y-54176036D01*
X128877000Y-54301837D01*
X128877000Y-55066891D01*
X128876785Y-55067600D01*
X128860000Y-55238021D01*
X128860000Y-55801978D01*
X128876785Y-55972399D01*
X128877000Y-55973108D01*
X128877000Y-56738163D01*
X129055810Y-56863964D01*
X129117337Y-56855272D01*
X129326882Y-56762275D01*
X129385331Y-56721071D01*
X129573940Y-56821885D01*
X129792600Y-56888215D01*
X130020000Y-56910612D01*
X130247399Y-56888215D01*
X130456098Y-56824907D01*
X130520820Y-56859502D01*
X130530000Y-56862287D01*
X130530001Y-64634404D01*
X130306111Y-64566487D01*
X130087950Y-64545000D01*
X129942050Y-64545000D01*
X129723889Y-64566487D01*
X129649005Y-64589203D01*
X127506000Y-62446199D01*
X127506000Y-55830507D01*
X127583669Y-55830507D01*
X127622761Y-56056404D01*
X127705172Y-56270334D01*
X127827736Y-56464076D01*
X127985742Y-56630184D01*
X128173118Y-56762275D01*
X128382663Y-56855272D01*
X128444190Y-56863964D01*
X128623000Y-56738163D01*
X128623000Y-55647000D01*
X127743402Y-55647000D01*
X127583669Y-55830507D01*
X127506000Y-55830507D01*
X127506000Y-55209493D01*
X127583669Y-55209493D01*
X127743402Y-55393000D01*
X128623000Y-55393000D01*
X128623000Y-54301837D01*
X128444190Y-54176036D01*
X128382663Y-54184728D01*
X128173118Y-54277725D01*
X127985742Y-54409816D01*
X127827736Y-54575924D01*
X127705172Y-54769666D01*
X127622761Y-54983596D01*
X127583669Y-55209493D01*
X127506000Y-55209493D01*
X127506000Y-53781801D01*
X129797009Y-51490794D01*
X129826001Y-51467001D01*
X129849795Y-51438008D01*
X129849799Y-51438004D01*
X129920973Y-51351277D01*
X129920974Y-51351276D01*
X129991546Y-51219247D01*
X130035003Y-51075986D01*
X130046000Y-50964333D01*
X130046000Y-50964324D01*
X130049676Y-50927001D01*
X130046000Y-50889678D01*
X130046000Y-47916325D01*
X130049676Y-47879000D01*
X130046000Y-47841675D01*
X130046000Y-47841667D01*
X130035003Y-47730014D01*
X129991546Y-47586753D01*
X129920974Y-47454724D01*
X129826001Y-47338999D01*
X129797003Y-47315201D01*
X128071804Y-45590003D01*
X128048001Y-45560999D01*
X127932276Y-45466026D01*
X127800247Y-45395454D01*
X127656986Y-45351997D01*
X127545333Y-45341000D01*
X127545322Y-45341000D01*
X127508000Y-45337324D01*
X127470678Y-45341000D01*
X107860333Y-45341000D01*
X107823000Y-45337323D01*
X107785667Y-45341000D01*
X107674014Y-45351997D01*
X107530753Y-45395454D01*
X107398724Y-45466026D01*
X107282999Y-45560999D01*
X107259201Y-45589997D01*
X105661003Y-47188196D01*
X105631999Y-47211999D01*
X105576871Y-47279174D01*
X105537026Y-47327724D01*
X105469143Y-47454724D01*
X105466454Y-47459754D01*
X105422997Y-47603015D01*
X105412000Y-47714668D01*
X105412000Y-47714678D01*
X105408324Y-47752000D01*
X104545000Y-47752000D01*
X104545000Y-38439005D01*
X109962054Y-38439005D01*
X109962054Y-38726195D01*
X110018082Y-39007867D01*
X110127985Y-39273196D01*
X110287540Y-39511986D01*
X110490614Y-39715060D01*
X110729404Y-39874615D01*
X110994733Y-39984518D01*
X111276405Y-40040546D01*
X111563595Y-40040546D01*
X111845267Y-39984518D01*
X112110596Y-39874615D01*
X112349386Y-39715060D01*
X112552460Y-39511986D01*
X112712015Y-39273196D01*
X112821918Y-39007867D01*
X112877946Y-38726195D01*
X112877946Y-38439005D01*
X148452854Y-38439005D01*
X148452854Y-38726195D01*
X148508882Y-39007867D01*
X148618785Y-39273196D01*
X148778340Y-39511986D01*
X148981414Y-39715060D01*
X149220204Y-39874615D01*
X149485533Y-39984518D01*
X149767205Y-40040546D01*
X150054395Y-40040546D01*
X150336067Y-39984518D01*
X150601396Y-39874615D01*
X150840186Y-39715060D01*
X151043260Y-39511986D01*
X151202815Y-39273196D01*
X151312718Y-39007867D01*
X151368746Y-38726195D01*
X151368746Y-38439005D01*
X151312718Y-38157333D01*
X151202815Y-37892004D01*
X151043260Y-37653214D01*
X150840186Y-37450140D01*
X150601396Y-37290585D01*
X150336067Y-37180682D01*
X150054395Y-37124654D01*
X149767205Y-37124654D01*
X149485533Y-37180682D01*
X149220204Y-37290585D01*
X148981414Y-37450140D01*
X148778340Y-37653214D01*
X148618785Y-37892004D01*
X148508882Y-38157333D01*
X148452854Y-38439005D01*
X112877946Y-38439005D01*
X112821918Y-38157333D01*
X112712015Y-37892004D01*
X112552460Y-37653214D01*
X112349386Y-37450140D01*
X112110596Y-37290585D01*
X111845267Y-37180682D01*
X111563595Y-37124654D01*
X111276405Y-37124654D01*
X110994733Y-37180682D01*
X110729404Y-37290585D01*
X110490614Y-37450140D01*
X110287540Y-37653214D01*
X110127985Y-37892004D01*
X110018082Y-38157333D01*
X109962054Y-38439005D01*
X104545000Y-38439005D01*
X104545000Y-33760000D01*
X155965000Y-33760000D01*
X155965001Y-154045755D01*
G36*
X128526001Y-48193803D02*
G01*
X128526000Y-50612197D01*
X126234998Y-52903201D01*
X126206000Y-52926999D01*
X126182202Y-52955997D01*
X126182201Y-52955998D01*
X126111026Y-53042724D01*
X126040454Y-53174754D01*
X126017251Y-53251247D01*
X126001654Y-53302667D01*
X125996998Y-53318015D01*
X125982324Y-53467000D01*
X125986001Y-53504332D01*
X125986000Y-62723678D01*
X125982324Y-62761000D01*
X125986000Y-62798322D01*
X125986000Y-62798332D01*
X125996997Y-62909985D01*
X126033402Y-63029999D01*
X126040454Y-63053246D01*
X126111026Y-63185276D01*
X126150871Y-63233826D01*
X126205999Y-63301001D01*
X126235003Y-63324804D01*
X127455199Y-64545000D01*
X127347998Y-64545000D01*
X127347998Y-64709844D01*
X127118110Y-64588524D01*
X126970901Y-64633175D01*
X126708080Y-64758359D01*
X126474731Y-64932412D01*
X126279822Y-65148645D01*
X126210201Y-65265523D01*
X126175706Y-65200986D01*
X125990134Y-64974866D01*
X125764014Y-64789294D01*
X125506034Y-64651401D01*
X125226111Y-64566487D01*
X125007950Y-64545000D01*
X124862050Y-64545000D01*
X124643889Y-64566487D01*
X124569005Y-64589203D01*
X121698804Y-61719003D01*
X121675001Y-61689999D01*
X121559276Y-61595026D01*
X121427247Y-61524454D01*
X121283986Y-61480997D01*
X121172333Y-61470000D01*
X121172322Y-61470000D01*
X121135000Y-61466324D01*
X121097678Y-61470000D01*
X117745902Y-61470000D01*
X117723933Y-61428899D01*
X117544609Y-61210392D01*
X117326102Y-61031068D01*
X117275001Y-61003754D01*
X117275001Y-50748043D01*
X117429760Y-50644637D01*
X117629638Y-50444759D01*
X117733044Y-50290000D01*
X124991957Y-50290000D01*
X125095363Y-50444759D01*
X125295241Y-50644637D01*
X125530273Y-50801680D01*
X125791426Y-50909853D01*
X126068665Y-50965000D01*
X126351335Y-50965000D01*
X126628574Y-50909853D01*
X126889727Y-50801680D01*
X127124759Y-50644637D01*
X127324637Y-50444759D01*
X127481680Y-50209727D01*
X127589853Y-49948574D01*
X127645000Y-49671335D01*
X127645000Y-49388665D01*
X127589853Y-49111426D01*
X127481680Y-48850273D01*
X127324637Y-48615241D01*
X127124759Y-48415363D01*
X126889727Y-48258320D01*
X126628574Y-48150147D01*
X126351335Y-48095000D01*
X126068665Y-48095000D01*
X125791426Y-48150147D01*
X125530273Y-48258320D01*
X125295241Y-48415363D01*
X125095363Y-48615241D01*
X124991957Y-48770000D01*
X117733044Y-48770000D01*
X117629638Y-48615241D01*
X117429760Y-48415363D01*
X117194728Y-48258320D01*
X116933575Y-48150147D01*
X116656336Y-48095000D01*
X116373666Y-48095000D01*
X116096427Y-48150147D01*
X115835274Y-48258320D01*
X115600242Y-48415363D01*
X115400364Y-48615241D01*
X115243321Y-48850273D01*
X115135148Y-49111426D01*
X115080001Y-49388665D01*
X115080001Y-49671335D01*
X115135148Y-49948574D01*
X115243321Y-50209727D01*
X115400364Y-50444759D01*
X115600242Y-50644637D01*
X115755001Y-50748043D01*
X115755002Y-61014444D01*
X115723900Y-61031068D01*
X115505393Y-61210392D01*
X115326069Y-61428899D01*
X115304100Y-61470000D01*
X114210333Y-61470000D01*
X114173000Y-61466323D01*
X114135667Y-61470000D01*
X114024014Y-61480997D01*
X113880753Y-61524454D01*
X113748724Y-61595026D01*
X113632999Y-61689999D01*
X113609201Y-61718997D01*
X112011003Y-63317196D01*
X111981999Y-63340999D01*
X111946304Y-63384494D01*
X111887026Y-63456724D01*
X111824193Y-63574276D01*
X111816454Y-63588754D01*
X111772997Y-63732015D01*
X111762000Y-63843668D01*
X111762000Y-63843678D01*
X111758324Y-63881000D01*
X111762000Y-63918322D01*
X111762000Y-66552197D01*
X110305709Y-65095906D01*
X110319237Y-65051309D01*
X110346944Y-64770000D01*
X110319237Y-64488691D01*
X110237183Y-64218192D01*
X110103933Y-63968899D01*
X109924609Y-63750392D01*
X109811519Y-63657581D01*
X109829483Y-63655812D01*
X109949181Y-63619502D01*
X110059495Y-63560537D01*
X110156186Y-63481185D01*
X110235538Y-63384494D01*
X110294503Y-63274180D01*
X110330813Y-63154482D01*
X110343073Y-63030000D01*
X110343073Y-61430000D01*
X110330813Y-61305518D01*
X110294503Y-61185820D01*
X110235538Y-61075506D01*
X110156186Y-60978815D01*
X110059495Y-60899463D01*
X109949181Y-60840498D01*
X109829483Y-60804188D01*
X109705001Y-60791928D01*
X109665001Y-60791928D01*
X109665001Y-59409801D01*
X111204107Y-57870695D01*
X111234817Y-57914258D01*
X111400925Y-58072264D01*
X111594667Y-58194828D01*
X111808597Y-58277239D01*
X112034494Y-58316331D01*
X112218001Y-58156598D01*
X112218001Y-57277000D01*
X112472001Y-57277000D01*
X112472001Y-58156598D01*
X112655508Y-58316331D01*
X112881405Y-58277239D01*
X113095335Y-58194828D01*
X113289077Y-58072264D01*
X113455185Y-57914258D01*
X113587276Y-57726882D01*
X113680273Y-57517337D01*
X113688965Y-57455810D01*
X113563164Y-57277000D01*
X112472001Y-57277000D01*
X112218001Y-57277000D01*
X112198001Y-57277000D01*
X112198001Y-57040000D01*
X112626980Y-57040000D01*
X112797401Y-57023215D01*
X112798110Y-57023000D01*
X113563164Y-57023000D01*
X113688965Y-56844190D01*
X113680273Y-56782663D01*
X113598066Y-56597431D01*
X113637248Y-56585546D01*
X113769277Y-56514974D01*
X113885002Y-56420001D01*
X113908805Y-56390997D01*
X115446003Y-54853800D01*
X115475001Y-54830002D01*
X115523425Y-54770997D01*
X115569974Y-54714278D01*
X115640546Y-54582248D01*
X115677321Y-54461014D01*
X115684003Y-54438987D01*
X115695000Y-54327334D01*
X115695000Y-54327325D01*
X115698676Y-54290002D01*
X115695000Y-54252679D01*
X115695000Y-52107322D01*
X115698676Y-52069999D01*
X115695000Y-52032676D01*
X115695000Y-52032667D01*
X115684003Y-51921014D01*
X115640546Y-51777753D01*
X115569974Y-51645724D01*
X115556811Y-51629685D01*
X115498799Y-51558996D01*
X115498795Y-51558992D01*
X115475001Y-51529999D01*
X115446009Y-51506206D01*
X112958804Y-49019003D01*
X112935001Y-48989999D01*
X112819276Y-48895026D01*
X112687247Y-48824454D01*
X112543986Y-48780997D01*
X112432333Y-48770000D01*
X112432322Y-48770000D01*
X112395000Y-48766324D01*
X112357678Y-48770000D01*
X110115902Y-48770000D01*
X110093933Y-48728899D01*
X109914609Y-48510392D01*
X109696102Y-48331068D01*
X109446809Y-48197818D01*
X109176310Y-48115764D01*
X108965493Y-48095000D01*
X108824509Y-48095000D01*
X108613692Y-48115764D01*
X108343193Y-48197818D01*
X108093900Y-48331068D01*
X107875393Y-48510392D01*
X107696069Y-48728899D01*
X107562819Y-48978192D01*
X107480765Y-49248691D01*
X107453058Y-49530000D01*
X107480765Y-49811309D01*
X107562819Y-50081808D01*
X107696069Y-50331101D01*
X107875393Y-50549608D01*
X108093900Y-50728932D01*
X108343193Y-50862182D01*
X108613692Y-50944236D01*
X108824509Y-50965000D01*
X108965493Y-50965000D01*
X109176310Y-50944236D01*
X109446809Y-50862182D01*
X109696102Y-50728932D01*
X109914609Y-50549608D01*
X110093933Y-50331101D01*
X110115902Y-50290000D01*
X112080199Y-50290000D01*
X114175000Y-52384803D01*
X114175001Y-53975198D01*
X113733073Y-54417126D01*
X113733073Y-54085000D01*
X113720813Y-53960518D01*
X113684503Y-53840820D01*
X113625538Y-53730506D01*
X113546186Y-53633815D01*
X113449495Y-53554463D01*
X113339181Y-53495498D01*
X113219483Y-53459188D01*
X113095001Y-53446928D01*
X111595001Y-53446928D01*
X111470519Y-53459188D01*
X111350821Y-53495498D01*
X111240507Y-53554463D01*
X111143816Y-53633815D01*
X111064464Y-53730506D01*
X111005499Y-53840820D01*
X111002714Y-53850000D01*
X108137802Y-53850000D01*
X106932000Y-52644199D01*
X106932000Y-48066801D01*
X108137802Y-46861000D01*
X127193199Y-46861000D01*
X128526001Y-48193803D01*
X128526001Y-48193803D01*
G37*
X128526001Y-48193803D02*
X128526000Y-50612197D01*
X126234998Y-52903201D01*
X126206000Y-52926999D01*
X126182202Y-52955997D01*
X126182201Y-52955998D01*
X126111026Y-53042724D01*
X126040454Y-53174754D01*
X126017251Y-53251247D01*
X126001654Y-53302667D01*
X125996998Y-53318015D01*
X125982324Y-53467000D01*
X125986001Y-53504332D01*
X125986000Y-62723678D01*
X125982324Y-62761000D01*
X125986000Y-62798322D01*
X125986000Y-62798332D01*
X125996997Y-62909985D01*
X126033402Y-63029999D01*
X126040454Y-63053246D01*
X126111026Y-63185276D01*
X126150871Y-63233826D01*
X126205999Y-63301001D01*
X126235003Y-63324804D01*
X127455199Y-64545000D01*
X127347998Y-64545000D01*
X127347998Y-64709844D01*
X127118110Y-64588524D01*
X126970901Y-64633175D01*
X126708080Y-64758359D01*
X126474731Y-64932412D01*
X126279822Y-65148645D01*
X126210201Y-65265523D01*
X126175706Y-65200986D01*
X125990134Y-64974866D01*
X125764014Y-64789294D01*
X125506034Y-64651401D01*
X125226111Y-64566487D01*
X125007950Y-64545000D01*
X124862050Y-64545000D01*
X124643889Y-64566487D01*
X124569005Y-64589203D01*
X121698804Y-61719003D01*
X121675001Y-61689999D01*
X121559276Y-61595026D01*
X121427247Y-61524454D01*
X121283986Y-61480997D01*
X121172333Y-61470000D01*
X121172322Y-61470000D01*
X121135000Y-61466324D01*
X121097678Y-61470000D01*
X117745902Y-61470000D01*
X117723933Y-61428899D01*
X117544609Y-61210392D01*
X117326102Y-61031068D01*
X117275001Y-61003754D01*
X117275001Y-50748043D01*
X117429760Y-50644637D01*
X117629638Y-50444759D01*
X117733044Y-50290000D01*
X124991957Y-50290000D01*
X125095363Y-50444759D01*
X125295241Y-50644637D01*
X125530273Y-50801680D01*
X125791426Y-50909853D01*
X126068665Y-50965000D01*
X126351335Y-50965000D01*
X126628574Y-50909853D01*
X126889727Y-50801680D01*
X127124759Y-50644637D01*
X127324637Y-50444759D01*
X127481680Y-50209727D01*
X127589853Y-49948574D01*
X127645000Y-49671335D01*
X127645000Y-49388665D01*
X127589853Y-49111426D01*
X127481680Y-48850273D01*
X127324637Y-48615241D01*
X127124759Y-48415363D01*
X126889727Y-48258320D01*
X126628574Y-48150147D01*
X126351335Y-48095000D01*
X126068665Y-48095000D01*
X125791426Y-48150147D01*
X125530273Y-48258320D01*
X125295241Y-48415363D01*
X125095363Y-48615241D01*
X124991957Y-48770000D01*
X117733044Y-48770000D01*
X117629638Y-48615241D01*
X117429760Y-48415363D01*
X117194728Y-48258320D01*
X116933575Y-48150147D01*
X116656336Y-48095000D01*
X116373666Y-48095000D01*
X116096427Y-48150147D01*
X115835274Y-48258320D01*
X115600242Y-48415363D01*
X115400364Y-48615241D01*
X115243321Y-48850273D01*
X115135148Y-49111426D01*
X115080001Y-49388665D01*
X115080001Y-49671335D01*
X115135148Y-49948574D01*
X115243321Y-50209727D01*
X115400364Y-50444759D01*
X115600242Y-50644637D01*
X115755001Y-50748043D01*
X115755002Y-61014444D01*
X115723900Y-61031068D01*
X115505393Y-61210392D01*
X115326069Y-61428899D01*
X115304100Y-61470000D01*
X114210333Y-61470000D01*
X114173000Y-61466323D01*
X114135667Y-61470000D01*
X114024014Y-61480997D01*
X113880753Y-61524454D01*
X113748724Y-61595026D01*
X113632999Y-61689999D01*
X113609201Y-61718997D01*
X112011003Y-63317196D01*
X111981999Y-63340999D01*
X111946304Y-63384494D01*
X111887026Y-63456724D01*
X111824193Y-63574276D01*
X111816454Y-63588754D01*
X111772997Y-63732015D01*
X111762000Y-63843668D01*
X111762000Y-63843678D01*
X111758324Y-63881000D01*
X111762000Y-63918322D01*
X111762000Y-66552197D01*
X110305709Y-65095906D01*
X110319237Y-65051309D01*
X110346944Y-64770000D01*
X110319237Y-64488691D01*
X110237183Y-64218192D01*
X110103933Y-63968899D01*
X109924609Y-63750392D01*
X109811519Y-63657581D01*
X109829483Y-63655812D01*
X109949181Y-63619502D01*
X110059495Y-63560537D01*
X110156186Y-63481185D01*
X110235538Y-63384494D01*
X110294503Y-63274180D01*
X110330813Y-63154482D01*
X110343073Y-63030000D01*
X110343073Y-61430000D01*
X110330813Y-61305518D01*
X110294503Y-61185820D01*
X110235538Y-61075506D01*
X110156186Y-60978815D01*
X110059495Y-60899463D01*
X109949181Y-60840498D01*
X109829483Y-60804188D01*
X109705001Y-60791928D01*
X109665001Y-60791928D01*
X109665001Y-59409801D01*
X111204107Y-57870695D01*
X111234817Y-57914258D01*
X111400925Y-58072264D01*
X111594667Y-58194828D01*
X111808597Y-58277239D01*
X112034494Y-58316331D01*
X112218001Y-58156598D01*
X112218001Y-57277000D01*
X112472001Y-57277000D01*
X112472001Y-58156598D01*
X112655508Y-58316331D01*
X112881405Y-58277239D01*
X113095335Y-58194828D01*
X113289077Y-58072264D01*
X113455185Y-57914258D01*
X113587276Y-57726882D01*
X113680273Y-57517337D01*
X113688965Y-57455810D01*
X113563164Y-57277000D01*
X112472001Y-57277000D01*
X112218001Y-57277000D01*
X112198001Y-57277000D01*
X112198001Y-57040000D01*
X112626980Y-57040000D01*
X112797401Y-57023215D01*
X112798110Y-57023000D01*
X113563164Y-57023000D01*
X113688965Y-56844190D01*
X113680273Y-56782663D01*
X113598066Y-56597431D01*
X113637248Y-56585546D01*
X113769277Y-56514974D01*
X113885002Y-56420001D01*
X113908805Y-56390997D01*
X115446003Y-54853800D01*
X115475001Y-54830002D01*
X115523425Y-54770997D01*
X115569974Y-54714278D01*
X115640546Y-54582248D01*
X115677321Y-54461014D01*
X115684003Y-54438987D01*
X115695000Y-54327334D01*
X115695000Y-54327325D01*
X115698676Y-54290002D01*
X115695000Y-54252679D01*
X115695000Y-52107322D01*
X115698676Y-52069999D01*
X115695000Y-52032676D01*
X115695000Y-52032667D01*
X115684003Y-51921014D01*
X115640546Y-51777753D01*
X115569974Y-51645724D01*
X115556811Y-51629685D01*
X115498799Y-51558996D01*
X115498795Y-51558992D01*
X115475001Y-51529999D01*
X115446009Y-51506206D01*
X112958804Y-49019003D01*
X112935001Y-48989999D01*
X112819276Y-48895026D01*
X112687247Y-48824454D01*
X112543986Y-48780997D01*
X112432333Y-48770000D01*
X112432322Y-48770000D01*
X112395000Y-48766324D01*
X112357678Y-48770000D01*
X110115902Y-48770000D01*
X110093933Y-48728899D01*
X109914609Y-48510392D01*
X109696102Y-48331068D01*
X109446809Y-48197818D01*
X109176310Y-48115764D01*
X108965493Y-48095000D01*
X108824509Y-48095000D01*
X108613692Y-48115764D01*
X108343193Y-48197818D01*
X108093900Y-48331068D01*
X107875393Y-48510392D01*
X107696069Y-48728899D01*
X107562819Y-48978192D01*
X107480765Y-49248691D01*
X107453058Y-49530000D01*
X107480765Y-49811309D01*
X107562819Y-50081808D01*
X107696069Y-50331101D01*
X107875393Y-50549608D01*
X108093900Y-50728932D01*
X108343193Y-50862182D01*
X108613692Y-50944236D01*
X108824509Y-50965000D01*
X108965493Y-50965000D01*
X109176310Y-50944236D01*
X109446809Y-50862182D01*
X109696102Y-50728932D01*
X109914609Y-50549608D01*
X110093933Y-50331101D01*
X110115902Y-50290000D01*
X112080199Y-50290000D01*
X114175000Y-52384803D01*
X114175001Y-53975198D01*
X113733073Y-54417126D01*
X113733073Y-54085000D01*
X113720813Y-53960518D01*
X113684503Y-53840820D01*
X113625538Y-53730506D01*
X113546186Y-53633815D01*
X113449495Y-53554463D01*
X113339181Y-53495498D01*
X113219483Y-53459188D01*
X113095001Y-53446928D01*
X111595001Y-53446928D01*
X111470519Y-53459188D01*
X111350821Y-53495498D01*
X111240507Y-53554463D01*
X111143816Y-53633815D01*
X111064464Y-53730506D01*
X111005499Y-53840820D01*
X111002714Y-53850000D01*
X108137802Y-53850000D01*
X106932000Y-52644199D01*
X106932000Y-48066801D01*
X108137802Y-46861000D01*
X127193199Y-46861000D01*
X128526001Y-48193803D01*
G36*
X127602000Y-65903000D02*
G01*
X127622000Y-65903000D01*
X127622000Y-66157000D01*
X127602000Y-66157000D01*
X127602000Y-66177000D01*
X127348000Y-66177000D01*
X127348000Y-66157000D01*
X127328000Y-66157000D01*
X127328000Y-65903000D01*
X127348000Y-65903000D01*
X127348000Y-65883000D01*
X127602000Y-65883000D01*
X127602000Y-65903000D01*
X127602000Y-65903000D01*
G37*
X127602000Y-65903000D02*
X127622000Y-65903000D01*
X127622000Y-66157000D01*
X127602000Y-66157000D01*
X127602000Y-66177000D01*
X127348000Y-66177000D01*
X127348000Y-66157000D01*
X127328000Y-66157000D01*
X127328000Y-65903000D01*
X127348000Y-65903000D01*
X127348000Y-65883000D01*
X127602000Y-65883000D01*
X127602000Y-65903000D01*
M02*
