M48
; DRILL file {KiCad 5.1.4-e60b266~84~ubuntu19.04.1} date Pá 30. srpna 2019, 20:30:45 CEST
; FORMAT={-:-/ absolute / inch / decimal}
; #@! TF.CreationDate,2019-08-30T20:30:45+02:00
; #@! TF.GenerationSoftware,Kicad,Pcbnew,5.1.4-e60b266~84~ubuntu19.04.1
; #@! TF.FileFunction,Plated,1,2,PTH
FMAT,2
INCH
T1C0.0295
T2C0.0315
T3C0.0394
T4C0.0472
T5C0.0669
%
G90
G05
T1
X5.0689Y-2.1858
X5.1189Y-2.1858
X5.1689Y-2.1858
X5.8331Y-2.15
X5.8331Y-2.2
X5.8331Y-2.25
X4.423Y-2.15
X4.423Y-2.2
X4.423Y-2.25
T2
X5.6693Y-2.45
X5.6693Y-2.55
X5.6693Y-2.65
X5.6693Y-2.75
X5.9693Y-2.45
X5.9693Y-2.55
X5.9693Y-2.65
X5.9693Y-2.75
X4.9689Y-3.0
X5.2689Y-3.0
X4.9689Y-1.95
X5.2689Y-1.95
X4.2872Y-1.95
X4.5872Y-1.95
X5.6689Y-3.0
X5.9689Y-3.0
X5.6689Y-1.95
X5.9689Y-1.95
X4.2876Y-2.45
X4.2876Y-2.55
X4.2876Y-2.65
X4.2876Y-2.75
X4.5876Y-2.45
X4.5876Y-2.55
X4.5876Y-2.65
X4.5876Y-2.75
X4.2872Y-3.0
X4.5872Y-3.0
T3
X4.9187Y-2.5996
X5.0187Y-2.5996
X5.1187Y-2.5996
X5.2187Y-2.5996
X5.3187Y-2.5996
T4
X5.05Y-3.2646
X5.1878Y-3.2646
X5.1878Y-5.5677
X5.75Y-3.2646
X5.8878Y-3.2646
X5.8878Y-5.5677
X4.3683Y-3.2646
X4.5061Y-3.2646
X4.5061Y-5.5677
T5
X4.9535Y-3.428
X4.9535Y-5.4043
X5.2843Y-3.4752
X5.2843Y-5.3571
X5.6535Y-3.428
X5.6535Y-5.4043
X5.9843Y-3.4752
X5.9843Y-5.3571
X4.2719Y-3.428
X4.2719Y-5.4043
X4.6026Y-3.4752
X4.6026Y-5.3571
T0
M30
