M48
; DRILL file {KiCad 5.1.4-e60b266~84~ubuntu18.04.1} date Ne 1. září 2019, 15:53:25 CEST
; FORMAT={-:-/ absolute / inch / decimal}
; #@! TF.CreationDate,2019-09-01T15:53:25+02:00
; #@! TF.GenerationSoftware,Kicad,Pcbnew,5.1.4-e60b266~84~ubuntu18.04.1
; #@! TF.FileFunction,Plated,1,2,PTH
FMAT,2
INCH
T1C0.0295
T2C0.0315
T3C0.0394
T4C0.0472
T5C0.0669
%
G90
G05
T1
X5.8331Y-2.15
X5.8331Y-2.2
X5.8331Y-2.25
X5.0689Y-2.1858
X5.1189Y-2.1858
X5.1689Y-2.1858
X4.423Y-2.15
X4.423Y-2.2
X4.423Y-2.25
T2
X5.6689Y-1.95
X5.9689Y-1.95
X5.6693Y-2.45
X5.6693Y-2.55
X5.6693Y-2.65
X5.6693Y-2.75
X5.9693Y-2.45
X5.9693Y-2.55
X5.9693Y-2.65
X5.9693Y-2.75
X4.9689Y-3.0
X5.2689Y-3.0
X4.9689Y-1.95
X5.2689Y-1.95
X5.6689Y-3.0
X5.9689Y-3.0
X4.2872Y-1.95
X4.5872Y-1.95
X4.2872Y-3.0
X4.5872Y-3.0
X4.2876Y-2.45
X4.2876Y-2.55
X4.2876Y-2.65
X4.2876Y-2.75
X4.5876Y-2.45
X4.5876Y-2.55
X4.5876Y-2.65
X4.5876Y-2.75
T3
X4.9187Y-2.5996
X5.0187Y-2.5996
X5.1187Y-2.5996
X5.2187Y-2.5996
X5.3187Y-2.5996
T4
X5.05Y-3.2659
X5.05Y-5.5691
X5.1878Y-5.5691
X5.75Y-3.2659
X5.75Y-5.5691
X5.8878Y-5.5691
X4.3683Y-3.2659
X4.3683Y-5.5691
X4.5061Y-5.5691
T5
X4.9535Y-3.4766
X4.9535Y-5.3585
X5.2843Y-3.4293
X5.2843Y-5.4057
X5.6535Y-3.4766
X5.6535Y-5.3585
X5.9843Y-3.4293
X5.9843Y-5.4057
X4.2719Y-3.4766
X4.2719Y-5.3585
X4.6026Y-3.4293
X4.6026Y-5.4057
T0
M30
