G04 #@! TF.GenerationSoftware,KiCad,Pcbnew,5.1.4-e60b266~84~ubuntu19.04.1*
G04 #@! TF.CreationDate,2019-09-04T22:13:10+02:00*
G04 #@! TF.ProjectId,PixelSlasher,50697865-6c53-46c6-9173-6865722e6b69,2.0.2*
G04 #@! TF.SameCoordinates,Original*
G04 #@! TF.FileFunction,Soldermask,Top*
G04 #@! TF.FilePolarity,Negative*
%FSLAX46Y46*%
G04 Gerber Fmt 4.6, Leading zero omitted, Abs format (unit mm)*
G04 Created by KiCad (PCBNEW 5.1.4-e60b266~84~ubuntu19.04.1) date 2019-09-04 22:13:10*
%MOMM*%
%LPD*%
G04 APERTURE LIST*
%ADD10C,0.100000*%
G04 APERTURE END LIST*
D10*
G36*
X149820104Y-165765005D02*
G01*
X149988626Y-165834809D01*
X150140291Y-165936148D01*
X150269272Y-166065129D01*
X150370611Y-166216794D01*
X150440415Y-166385316D01*
X150476000Y-166564217D01*
X150476000Y-166746623D01*
X150440415Y-166925524D01*
X150370611Y-167094046D01*
X150269272Y-167245711D01*
X150140291Y-167374692D01*
X149988626Y-167476031D01*
X149820104Y-167545835D01*
X149641203Y-167581420D01*
X149458797Y-167581420D01*
X149279896Y-167545835D01*
X149111374Y-167476031D01*
X148959709Y-167374692D01*
X148830728Y-167245711D01*
X148729389Y-167094046D01*
X148659585Y-166925524D01*
X148624000Y-166746623D01*
X148624000Y-166564217D01*
X148659585Y-166385316D01*
X148729389Y-166216794D01*
X148830728Y-166065129D01*
X148959709Y-165936148D01*
X149111374Y-165834809D01*
X149279896Y-165765005D01*
X149458797Y-165729420D01*
X149641203Y-165729420D01*
X149820104Y-165765005D01*
X149820104Y-165765005D01*
G37*
G36*
X146976000Y-167581420D02*
G01*
X145124000Y-167581420D01*
X145124000Y-165729420D01*
X146976000Y-165729420D01*
X146976000Y-167581420D01*
X146976000Y-167581420D01*
G37*
G36*
X111952000Y-167581420D02*
G01*
X110100000Y-167581420D01*
X110100000Y-165729420D01*
X111952000Y-165729420D01*
X111952000Y-167581420D01*
X111952000Y-167581420D01*
G37*
G36*
X114796104Y-165765005D02*
G01*
X114964626Y-165834809D01*
X115116291Y-165936148D01*
X115245272Y-166065129D01*
X115346611Y-166216794D01*
X115416415Y-166385316D01*
X115452000Y-166564217D01*
X115452000Y-166746623D01*
X115416415Y-166925524D01*
X115346611Y-167094046D01*
X115245272Y-167245711D01*
X115116291Y-167374692D01*
X114964626Y-167476031D01*
X114796104Y-167545835D01*
X114617203Y-167581420D01*
X114434797Y-167581420D01*
X114255896Y-167545835D01*
X114087374Y-167476031D01*
X113935709Y-167374692D01*
X113806728Y-167245711D01*
X113705389Y-167094046D01*
X113635585Y-166925524D01*
X113600000Y-166746623D01*
X113600000Y-166564217D01*
X113635585Y-166385316D01*
X113705389Y-166216794D01*
X113806728Y-166065129D01*
X113935709Y-165936148D01*
X114087374Y-165834809D01*
X114255896Y-165765005D01*
X114434797Y-165729420D01*
X114617203Y-165729420D01*
X114796104Y-165765005D01*
X114796104Y-165765005D01*
G37*
G36*
X132040104Y-165765005D02*
G01*
X132208626Y-165834809D01*
X132360291Y-165936148D01*
X132489272Y-166065129D01*
X132590611Y-166216794D01*
X132660415Y-166385316D01*
X132696000Y-166564217D01*
X132696000Y-166746623D01*
X132660415Y-166925524D01*
X132590611Y-167094046D01*
X132489272Y-167245711D01*
X132360291Y-167374692D01*
X132208626Y-167476031D01*
X132040104Y-167545835D01*
X131861203Y-167581420D01*
X131678797Y-167581420D01*
X131499896Y-167545835D01*
X131331374Y-167476031D01*
X131179709Y-167374692D01*
X131050728Y-167245711D01*
X130949389Y-167094046D01*
X130879585Y-166925524D01*
X130844000Y-166746623D01*
X130844000Y-166564217D01*
X130879585Y-166385316D01*
X130949389Y-166216794D01*
X131050728Y-166065129D01*
X131179709Y-165936148D01*
X131331374Y-165834809D01*
X131499896Y-165765005D01*
X131678797Y-165729420D01*
X131861203Y-165729420D01*
X132040104Y-165765005D01*
X132040104Y-165765005D01*
G37*
G36*
X129196000Y-167581420D02*
G01*
X127344000Y-167581420D01*
X127344000Y-165729420D01*
X129196000Y-165729420D01*
X129196000Y-167581420D01*
X129196000Y-167581420D01*
G37*
G36*
X134538433Y-161140313D02*
G01*
X134628657Y-161158259D01*
X134734267Y-161202005D01*
X134883621Y-161263869D01*
X134883622Y-161263870D01*
X135113086Y-161417192D01*
X135308228Y-161612334D01*
X135376209Y-161714076D01*
X135461551Y-161841799D01*
X135567161Y-162096764D01*
X135621000Y-162367432D01*
X135621000Y-162643408D01*
X135567161Y-162914076D01*
X135461551Y-163169041D01*
X135461550Y-163169042D01*
X135308228Y-163398506D01*
X135113086Y-163593648D01*
X134959763Y-163696095D01*
X134883621Y-163746971D01*
X134734267Y-163808835D01*
X134628657Y-163852581D01*
X134538433Y-163870527D01*
X134357988Y-163906420D01*
X134082012Y-163906420D01*
X133901567Y-163870527D01*
X133811343Y-163852581D01*
X133705733Y-163808835D01*
X133556379Y-163746971D01*
X133480237Y-163696095D01*
X133326914Y-163593648D01*
X133131772Y-163398506D01*
X132978450Y-163169042D01*
X132978449Y-163169041D01*
X132872839Y-162914076D01*
X132819000Y-162643408D01*
X132819000Y-162367432D01*
X132872839Y-162096764D01*
X132978449Y-161841799D01*
X133063791Y-161714076D01*
X133131772Y-161612334D01*
X133326914Y-161417192D01*
X133556378Y-161263870D01*
X133556379Y-161263869D01*
X133705733Y-161202005D01*
X133811343Y-161158259D01*
X133901567Y-161140313D01*
X134082012Y-161104420D01*
X134357988Y-161104420D01*
X134538433Y-161140313D01*
X134538433Y-161140313D01*
G37*
G36*
X152318433Y-161140313D02*
G01*
X152408657Y-161158259D01*
X152514267Y-161202005D01*
X152663621Y-161263869D01*
X152663622Y-161263870D01*
X152893086Y-161417192D01*
X153088228Y-161612334D01*
X153156209Y-161714076D01*
X153241551Y-161841799D01*
X153347161Y-162096764D01*
X153401000Y-162367432D01*
X153401000Y-162643408D01*
X153347161Y-162914076D01*
X153241551Y-163169041D01*
X153241550Y-163169042D01*
X153088228Y-163398506D01*
X152893086Y-163593648D01*
X152739763Y-163696095D01*
X152663621Y-163746971D01*
X152514267Y-163808835D01*
X152408657Y-163852581D01*
X152318433Y-163870527D01*
X152137988Y-163906420D01*
X151862012Y-163906420D01*
X151681567Y-163870527D01*
X151591343Y-163852581D01*
X151485733Y-163808835D01*
X151336379Y-163746971D01*
X151260237Y-163696095D01*
X151106914Y-163593648D01*
X150911772Y-163398506D01*
X150758450Y-163169042D01*
X150758449Y-163169041D01*
X150652839Y-162914076D01*
X150599000Y-162643408D01*
X150599000Y-162367432D01*
X150652839Y-162096764D01*
X150758449Y-161841799D01*
X150843791Y-161714076D01*
X150911772Y-161612334D01*
X151106914Y-161417192D01*
X151336378Y-161263870D01*
X151336379Y-161263869D01*
X151485733Y-161202005D01*
X151591343Y-161158259D01*
X151681567Y-161140313D01*
X151862012Y-161104420D01*
X152137988Y-161104420D01*
X152318433Y-161140313D01*
X152318433Y-161140313D01*
G37*
G36*
X117294433Y-161140313D02*
G01*
X117384657Y-161158259D01*
X117490267Y-161202005D01*
X117639621Y-161263869D01*
X117639622Y-161263870D01*
X117869086Y-161417192D01*
X118064228Y-161612334D01*
X118132209Y-161714076D01*
X118217551Y-161841799D01*
X118323161Y-162096764D01*
X118377000Y-162367432D01*
X118377000Y-162643408D01*
X118323161Y-162914076D01*
X118217551Y-163169041D01*
X118217550Y-163169042D01*
X118064228Y-163398506D01*
X117869086Y-163593648D01*
X117715763Y-163696095D01*
X117639621Y-163746971D01*
X117490267Y-163808835D01*
X117384657Y-163852581D01*
X117294433Y-163870527D01*
X117113988Y-163906420D01*
X116838012Y-163906420D01*
X116657567Y-163870527D01*
X116567343Y-163852581D01*
X116461733Y-163808835D01*
X116312379Y-163746971D01*
X116236237Y-163696095D01*
X116082914Y-163593648D01*
X115887772Y-163398506D01*
X115734450Y-163169042D01*
X115734449Y-163169041D01*
X115628839Y-162914076D01*
X115575000Y-162643408D01*
X115575000Y-162367432D01*
X115628839Y-162096764D01*
X115734449Y-161841799D01*
X115819791Y-161714076D01*
X115887772Y-161612334D01*
X116082914Y-161417192D01*
X116312378Y-161263870D01*
X116312379Y-161263869D01*
X116461733Y-161202005D01*
X116567343Y-161158259D01*
X116657567Y-161140313D01*
X116838012Y-161104420D01*
X117113988Y-161104420D01*
X117294433Y-161140313D01*
X117294433Y-161140313D01*
G37*
G36*
X126138433Y-159940313D02*
G01*
X126228657Y-159958259D01*
X126334267Y-160002005D01*
X126483621Y-160063869D01*
X126483622Y-160063870D01*
X126713086Y-160217192D01*
X126908228Y-160412334D01*
X127010675Y-160565657D01*
X127061551Y-160641799D01*
X127167161Y-160896764D01*
X127221000Y-161167432D01*
X127221000Y-161443408D01*
X127167161Y-161714076D01*
X127061551Y-161969041D01*
X127061550Y-161969042D01*
X126908228Y-162198506D01*
X126713086Y-162393648D01*
X126559763Y-162496095D01*
X126483621Y-162546971D01*
X126334267Y-162608835D01*
X126228657Y-162652581D01*
X126138433Y-162670527D01*
X125957988Y-162706420D01*
X125682012Y-162706420D01*
X125501567Y-162670527D01*
X125411343Y-162652581D01*
X125305733Y-162608835D01*
X125156379Y-162546971D01*
X125080237Y-162496095D01*
X124926914Y-162393648D01*
X124731772Y-162198506D01*
X124578450Y-161969042D01*
X124578449Y-161969041D01*
X124472839Y-161714076D01*
X124419000Y-161443408D01*
X124419000Y-161167432D01*
X124472839Y-160896764D01*
X124578449Y-160641799D01*
X124629325Y-160565657D01*
X124731772Y-160412334D01*
X124926914Y-160217192D01*
X125156378Y-160063870D01*
X125156379Y-160063869D01*
X125305733Y-160002005D01*
X125411343Y-159958259D01*
X125501567Y-159940313D01*
X125682012Y-159904420D01*
X125957988Y-159904420D01*
X126138433Y-159940313D01*
X126138433Y-159940313D01*
G37*
G36*
X143918433Y-159940313D02*
G01*
X144008657Y-159958259D01*
X144114267Y-160002005D01*
X144263621Y-160063869D01*
X144263622Y-160063870D01*
X144493086Y-160217192D01*
X144688228Y-160412334D01*
X144790675Y-160565657D01*
X144841551Y-160641799D01*
X144947161Y-160896764D01*
X145001000Y-161167432D01*
X145001000Y-161443408D01*
X144947161Y-161714076D01*
X144841551Y-161969041D01*
X144841550Y-161969042D01*
X144688228Y-162198506D01*
X144493086Y-162393648D01*
X144339763Y-162496095D01*
X144263621Y-162546971D01*
X144114267Y-162608835D01*
X144008657Y-162652581D01*
X143918433Y-162670527D01*
X143737988Y-162706420D01*
X143462012Y-162706420D01*
X143281567Y-162670527D01*
X143191343Y-162652581D01*
X143085733Y-162608835D01*
X142936379Y-162546971D01*
X142860237Y-162496095D01*
X142706914Y-162393648D01*
X142511772Y-162198506D01*
X142358450Y-161969042D01*
X142358449Y-161969041D01*
X142252839Y-161714076D01*
X142199000Y-161443408D01*
X142199000Y-161167432D01*
X142252839Y-160896764D01*
X142358449Y-160641799D01*
X142409325Y-160565657D01*
X142511772Y-160412334D01*
X142706914Y-160217192D01*
X142936378Y-160063870D01*
X142936379Y-160063869D01*
X143085733Y-160002005D01*
X143191343Y-159958259D01*
X143281567Y-159940313D01*
X143462012Y-159904420D01*
X143737988Y-159904420D01*
X143918433Y-159940313D01*
X143918433Y-159940313D01*
G37*
G36*
X108894433Y-159940313D02*
G01*
X108984657Y-159958259D01*
X109090267Y-160002005D01*
X109239621Y-160063869D01*
X109239622Y-160063870D01*
X109469086Y-160217192D01*
X109664228Y-160412334D01*
X109766675Y-160565657D01*
X109817551Y-160641799D01*
X109923161Y-160896764D01*
X109977000Y-161167432D01*
X109977000Y-161443408D01*
X109923161Y-161714076D01*
X109817551Y-161969041D01*
X109817550Y-161969042D01*
X109664228Y-162198506D01*
X109469086Y-162393648D01*
X109315763Y-162496095D01*
X109239621Y-162546971D01*
X109090267Y-162608835D01*
X108984657Y-162652581D01*
X108894433Y-162670527D01*
X108713988Y-162706420D01*
X108438012Y-162706420D01*
X108257567Y-162670527D01*
X108167343Y-162652581D01*
X108061733Y-162608835D01*
X107912379Y-162546971D01*
X107836237Y-162496095D01*
X107682914Y-162393648D01*
X107487772Y-162198506D01*
X107334450Y-161969042D01*
X107334449Y-161969041D01*
X107228839Y-161714076D01*
X107175000Y-161443408D01*
X107175000Y-161167432D01*
X107228839Y-160896764D01*
X107334449Y-160641799D01*
X107385325Y-160565657D01*
X107487772Y-160412334D01*
X107682914Y-160217192D01*
X107912378Y-160063870D01*
X107912379Y-160063869D01*
X108061733Y-160002005D01*
X108167343Y-159958259D01*
X108257567Y-159940313D01*
X108438012Y-159904420D01*
X108713988Y-159904420D01*
X108894433Y-159940313D01*
X108894433Y-159940313D01*
G37*
G36*
X108894433Y-112140313D02*
G01*
X108984657Y-112158259D01*
X109090267Y-112202005D01*
X109239621Y-112263869D01*
X109239622Y-112263870D01*
X109469086Y-112417192D01*
X109664228Y-112612334D01*
X109732209Y-112714076D01*
X109817551Y-112841799D01*
X109923161Y-113096764D01*
X109977000Y-113367432D01*
X109977000Y-113643408D01*
X109923161Y-113914076D01*
X109817551Y-114169041D01*
X109817550Y-114169042D01*
X109664228Y-114398506D01*
X109469086Y-114593648D01*
X109315763Y-114696095D01*
X109239621Y-114746971D01*
X109090267Y-114808835D01*
X108984657Y-114852581D01*
X108894433Y-114870527D01*
X108713988Y-114906420D01*
X108438012Y-114906420D01*
X108257567Y-114870527D01*
X108167343Y-114852581D01*
X108061733Y-114808835D01*
X107912379Y-114746971D01*
X107836237Y-114696095D01*
X107682914Y-114593648D01*
X107487772Y-114398506D01*
X107334450Y-114169042D01*
X107334449Y-114169041D01*
X107228839Y-113914076D01*
X107175000Y-113643408D01*
X107175000Y-113367432D01*
X107228839Y-113096764D01*
X107334449Y-112841799D01*
X107419791Y-112714076D01*
X107487772Y-112612334D01*
X107682914Y-112417192D01*
X107912378Y-112263870D01*
X107912379Y-112263869D01*
X108061733Y-112202005D01*
X108167343Y-112158259D01*
X108257567Y-112140313D01*
X108438012Y-112104420D01*
X108713988Y-112104420D01*
X108894433Y-112140313D01*
X108894433Y-112140313D01*
G37*
G36*
X126138433Y-112140313D02*
G01*
X126228657Y-112158259D01*
X126334267Y-112202005D01*
X126483621Y-112263869D01*
X126483622Y-112263870D01*
X126713086Y-112417192D01*
X126908228Y-112612334D01*
X126976209Y-112714076D01*
X127061551Y-112841799D01*
X127167161Y-113096764D01*
X127221000Y-113367432D01*
X127221000Y-113643408D01*
X127167161Y-113914076D01*
X127061551Y-114169041D01*
X127061550Y-114169042D01*
X126908228Y-114398506D01*
X126713086Y-114593648D01*
X126559763Y-114696095D01*
X126483621Y-114746971D01*
X126334267Y-114808835D01*
X126228657Y-114852581D01*
X126138433Y-114870527D01*
X125957988Y-114906420D01*
X125682012Y-114906420D01*
X125501567Y-114870527D01*
X125411343Y-114852581D01*
X125305733Y-114808835D01*
X125156379Y-114746971D01*
X125080237Y-114696095D01*
X124926914Y-114593648D01*
X124731772Y-114398506D01*
X124578450Y-114169042D01*
X124578449Y-114169041D01*
X124472839Y-113914076D01*
X124419000Y-113643408D01*
X124419000Y-113367432D01*
X124472839Y-113096764D01*
X124578449Y-112841799D01*
X124663791Y-112714076D01*
X124731772Y-112612334D01*
X124926914Y-112417192D01*
X125156378Y-112263870D01*
X125156379Y-112263869D01*
X125305733Y-112202005D01*
X125411343Y-112158259D01*
X125501567Y-112140313D01*
X125682012Y-112104420D01*
X125957988Y-112104420D01*
X126138433Y-112140313D01*
X126138433Y-112140313D01*
G37*
G36*
X143918433Y-112140313D02*
G01*
X144008657Y-112158259D01*
X144114267Y-112202005D01*
X144263621Y-112263869D01*
X144263622Y-112263870D01*
X144493086Y-112417192D01*
X144688228Y-112612334D01*
X144756209Y-112714076D01*
X144841551Y-112841799D01*
X144947161Y-113096764D01*
X145001000Y-113367432D01*
X145001000Y-113643408D01*
X144947161Y-113914076D01*
X144841551Y-114169041D01*
X144841550Y-114169042D01*
X144688228Y-114398506D01*
X144493086Y-114593648D01*
X144339763Y-114696095D01*
X144263621Y-114746971D01*
X144114267Y-114808835D01*
X144008657Y-114852581D01*
X143918433Y-114870527D01*
X143737988Y-114906420D01*
X143462012Y-114906420D01*
X143281567Y-114870527D01*
X143191343Y-114852581D01*
X143085733Y-114808835D01*
X142936379Y-114746971D01*
X142860237Y-114696095D01*
X142706914Y-114593648D01*
X142511772Y-114398506D01*
X142358450Y-114169042D01*
X142358449Y-114169041D01*
X142252839Y-113914076D01*
X142199000Y-113643408D01*
X142199000Y-113367432D01*
X142252839Y-113096764D01*
X142358449Y-112841799D01*
X142443791Y-112714076D01*
X142511772Y-112612334D01*
X142706914Y-112417192D01*
X142936378Y-112263870D01*
X142936379Y-112263869D01*
X143085733Y-112202005D01*
X143191343Y-112158259D01*
X143281567Y-112140313D01*
X143462012Y-112104420D01*
X143737988Y-112104420D01*
X143918433Y-112140313D01*
X143918433Y-112140313D01*
G37*
G36*
X117294433Y-110940313D02*
G01*
X117384657Y-110958259D01*
X117490267Y-111002005D01*
X117639621Y-111063869D01*
X117639622Y-111063870D01*
X117869086Y-111217192D01*
X118064228Y-111412334D01*
X118166675Y-111565657D01*
X118217551Y-111641799D01*
X118323161Y-111896764D01*
X118377000Y-112167432D01*
X118377000Y-112443408D01*
X118323161Y-112714076D01*
X118217551Y-112969041D01*
X118217550Y-112969042D01*
X118064228Y-113198506D01*
X117869086Y-113393648D01*
X117715763Y-113496095D01*
X117639621Y-113546971D01*
X117490267Y-113608835D01*
X117384657Y-113652581D01*
X117294433Y-113670527D01*
X117113988Y-113706420D01*
X116838012Y-113706420D01*
X116657567Y-113670527D01*
X116567343Y-113652581D01*
X116461733Y-113608835D01*
X116312379Y-113546971D01*
X116236237Y-113496095D01*
X116082914Y-113393648D01*
X115887772Y-113198506D01*
X115734450Y-112969042D01*
X115734449Y-112969041D01*
X115628839Y-112714076D01*
X115575000Y-112443408D01*
X115575000Y-112167432D01*
X115628839Y-111896764D01*
X115734449Y-111641799D01*
X115785325Y-111565657D01*
X115887772Y-111412334D01*
X116082914Y-111217192D01*
X116312378Y-111063870D01*
X116312379Y-111063869D01*
X116461733Y-111002005D01*
X116567343Y-110958259D01*
X116657567Y-110940313D01*
X116838012Y-110904420D01*
X117113988Y-110904420D01*
X117294433Y-110940313D01*
X117294433Y-110940313D01*
G37*
G36*
X134538433Y-110940313D02*
G01*
X134628657Y-110958259D01*
X134734267Y-111002005D01*
X134883621Y-111063869D01*
X134883622Y-111063870D01*
X135113086Y-111217192D01*
X135308228Y-111412334D01*
X135410675Y-111565657D01*
X135461551Y-111641799D01*
X135567161Y-111896764D01*
X135621000Y-112167432D01*
X135621000Y-112443408D01*
X135567161Y-112714076D01*
X135461551Y-112969041D01*
X135461550Y-112969042D01*
X135308228Y-113198506D01*
X135113086Y-113393648D01*
X134959763Y-113496095D01*
X134883621Y-113546971D01*
X134734267Y-113608835D01*
X134628657Y-113652581D01*
X134538433Y-113670527D01*
X134357988Y-113706420D01*
X134082012Y-113706420D01*
X133901567Y-113670527D01*
X133811343Y-113652581D01*
X133705733Y-113608835D01*
X133556379Y-113546971D01*
X133480237Y-113496095D01*
X133326914Y-113393648D01*
X133131772Y-113198506D01*
X132978450Y-112969042D01*
X132978449Y-112969041D01*
X132872839Y-112714076D01*
X132819000Y-112443408D01*
X132819000Y-112167432D01*
X132872839Y-111896764D01*
X132978449Y-111641799D01*
X133029325Y-111565657D01*
X133131772Y-111412334D01*
X133326914Y-111217192D01*
X133556378Y-111063870D01*
X133556379Y-111063869D01*
X133705733Y-111002005D01*
X133811343Y-110958259D01*
X133901567Y-110940313D01*
X134082012Y-110904420D01*
X134357988Y-110904420D01*
X134538433Y-110940313D01*
X134538433Y-110940313D01*
G37*
G36*
X152318433Y-110940313D02*
G01*
X152408657Y-110958259D01*
X152514267Y-111002005D01*
X152663621Y-111063869D01*
X152663622Y-111063870D01*
X152893086Y-111217192D01*
X153088228Y-111412334D01*
X153190675Y-111565657D01*
X153241551Y-111641799D01*
X153347161Y-111896764D01*
X153401000Y-112167432D01*
X153401000Y-112443408D01*
X153347161Y-112714076D01*
X153241551Y-112969041D01*
X153241550Y-112969042D01*
X153088228Y-113198506D01*
X152893086Y-113393648D01*
X152739763Y-113496095D01*
X152663621Y-113546971D01*
X152514267Y-113608835D01*
X152408657Y-113652581D01*
X152318433Y-113670527D01*
X152137988Y-113706420D01*
X151862012Y-113706420D01*
X151681567Y-113670527D01*
X151591343Y-113652581D01*
X151485733Y-113608835D01*
X151336379Y-113546971D01*
X151260237Y-113496095D01*
X151106914Y-113393648D01*
X150911772Y-113198506D01*
X150758450Y-112969042D01*
X150758449Y-112969041D01*
X150652839Y-112714076D01*
X150599000Y-112443408D01*
X150599000Y-112167432D01*
X150652839Y-111896764D01*
X150758449Y-111641799D01*
X150809325Y-111565657D01*
X150911772Y-111412334D01*
X151106914Y-111217192D01*
X151336378Y-111063870D01*
X151336379Y-111063869D01*
X151485733Y-111002005D01*
X151591343Y-110958259D01*
X151681567Y-110940313D01*
X151862012Y-110904420D01*
X152137988Y-110904420D01*
X152318433Y-110940313D01*
X152318433Y-110940313D01*
G37*
G36*
X146320104Y-107265005D02*
G01*
X146488626Y-107334809D01*
X146640291Y-107436148D01*
X146769272Y-107565129D01*
X146870611Y-107716794D01*
X146940415Y-107885316D01*
X146976000Y-108064217D01*
X146976000Y-108246623D01*
X146940415Y-108425524D01*
X146870611Y-108594046D01*
X146769272Y-108745711D01*
X146640291Y-108874692D01*
X146488626Y-108976031D01*
X146320104Y-109045835D01*
X146141203Y-109081420D01*
X145958797Y-109081420D01*
X145779896Y-109045835D01*
X145611374Y-108976031D01*
X145459709Y-108874692D01*
X145330728Y-108745711D01*
X145229389Y-108594046D01*
X145159585Y-108425524D01*
X145124000Y-108246623D01*
X145124000Y-108064217D01*
X145159585Y-107885316D01*
X145229389Y-107716794D01*
X145330728Y-107565129D01*
X145459709Y-107436148D01*
X145611374Y-107334809D01*
X145779896Y-107265005D01*
X145958797Y-107229420D01*
X146141203Y-107229420D01*
X146320104Y-107265005D01*
X146320104Y-107265005D01*
G37*
G36*
X111296104Y-107265005D02*
G01*
X111464626Y-107334809D01*
X111616291Y-107436148D01*
X111745272Y-107565129D01*
X111846611Y-107716794D01*
X111916415Y-107885316D01*
X111952000Y-108064217D01*
X111952000Y-108246623D01*
X111916415Y-108425524D01*
X111846611Y-108594046D01*
X111745272Y-108745711D01*
X111616291Y-108874692D01*
X111464626Y-108976031D01*
X111296104Y-109045835D01*
X111117203Y-109081420D01*
X110934797Y-109081420D01*
X110755896Y-109045835D01*
X110587374Y-108976031D01*
X110435709Y-108874692D01*
X110306728Y-108745711D01*
X110205389Y-108594046D01*
X110135585Y-108425524D01*
X110100000Y-108246623D01*
X110100000Y-108064217D01*
X110135585Y-107885316D01*
X110205389Y-107716794D01*
X110306728Y-107565129D01*
X110435709Y-107436148D01*
X110587374Y-107334809D01*
X110755896Y-107265005D01*
X110934797Y-107229420D01*
X111117203Y-107229420D01*
X111296104Y-107265005D01*
X111296104Y-107265005D01*
G37*
G36*
X128540104Y-107265005D02*
G01*
X128708626Y-107334809D01*
X128860291Y-107436148D01*
X128989272Y-107565129D01*
X129090611Y-107716794D01*
X129160415Y-107885316D01*
X129196000Y-108064217D01*
X129196000Y-108246623D01*
X129160415Y-108425524D01*
X129090611Y-108594046D01*
X128989272Y-108745711D01*
X128860291Y-108874692D01*
X128708626Y-108976031D01*
X128540104Y-109045835D01*
X128361203Y-109081420D01*
X128178797Y-109081420D01*
X127999896Y-109045835D01*
X127831374Y-108976031D01*
X127679709Y-108874692D01*
X127550728Y-108745711D01*
X127449389Y-108594046D01*
X127379585Y-108425524D01*
X127344000Y-108246623D01*
X127344000Y-108064217D01*
X127379585Y-107885316D01*
X127449389Y-107716794D01*
X127550728Y-107565129D01*
X127679709Y-107436148D01*
X127831374Y-107334809D01*
X127999896Y-107265005D01*
X128178797Y-107229420D01*
X128361203Y-107229420D01*
X128540104Y-107265005D01*
X128540104Y-107265005D01*
G37*
G36*
X149363831Y-97297627D02*
G01*
X149469495Y-97308034D01*
X149740654Y-97390289D01*
X149990555Y-97523864D01*
X150209595Y-97703625D01*
X150389356Y-97922665D01*
X150522931Y-98172566D01*
X150605186Y-98443725D01*
X150632960Y-98725720D01*
X150605186Y-99007715D01*
X150522931Y-99278874D01*
X150389356Y-99528775D01*
X150209595Y-99747815D01*
X149990555Y-99927576D01*
X149740654Y-100061151D01*
X149469495Y-100143406D01*
X149363831Y-100153813D01*
X149258168Y-100164220D01*
X146341832Y-100164220D01*
X146236169Y-100153813D01*
X146130505Y-100143406D01*
X145859346Y-100061151D01*
X145609445Y-99927576D01*
X145390405Y-99747815D01*
X145210644Y-99528775D01*
X145077069Y-99278874D01*
X144994814Y-99007715D01*
X144967040Y-98725720D01*
X144994814Y-98443725D01*
X145077069Y-98172566D01*
X145210644Y-97922665D01*
X145390405Y-97703625D01*
X145609445Y-97523864D01*
X145859346Y-97390289D01*
X146130505Y-97308034D01*
X146236169Y-97297627D01*
X146341832Y-97287220D01*
X149258168Y-97287220D01*
X149363831Y-97297627D01*
X149363831Y-97297627D01*
G37*
G36*
X131583831Y-97297627D02*
G01*
X131689495Y-97308034D01*
X131960654Y-97390289D01*
X132210555Y-97523864D01*
X132429595Y-97703625D01*
X132609356Y-97922665D01*
X132742931Y-98172566D01*
X132825186Y-98443725D01*
X132852960Y-98725720D01*
X132825186Y-99007715D01*
X132742931Y-99278874D01*
X132609356Y-99528775D01*
X132429595Y-99747815D01*
X132210555Y-99927576D01*
X131960654Y-100061151D01*
X131689495Y-100143406D01*
X131583831Y-100153813D01*
X131478168Y-100164220D01*
X128561832Y-100164220D01*
X128456169Y-100153813D01*
X128350505Y-100143406D01*
X128079346Y-100061151D01*
X127829445Y-99927576D01*
X127610405Y-99747815D01*
X127430644Y-99528775D01*
X127297069Y-99278874D01*
X127214814Y-99007715D01*
X127187040Y-98725720D01*
X127214814Y-98443725D01*
X127297069Y-98172566D01*
X127430644Y-97922665D01*
X127610405Y-97703625D01*
X127829445Y-97523864D01*
X128079346Y-97390289D01*
X128350505Y-97308034D01*
X128456169Y-97297627D01*
X128561832Y-97287220D01*
X131478168Y-97287220D01*
X131583831Y-97297627D01*
X131583831Y-97297627D01*
G37*
G36*
X114339831Y-97297627D02*
G01*
X114445495Y-97308034D01*
X114716654Y-97390289D01*
X114966555Y-97523864D01*
X115185595Y-97703625D01*
X115365356Y-97922665D01*
X115498931Y-98172566D01*
X115581186Y-98443725D01*
X115608960Y-98725720D01*
X115581186Y-99007715D01*
X115498931Y-99278874D01*
X115365356Y-99528775D01*
X115185595Y-99747815D01*
X114966555Y-99927576D01*
X114716654Y-100061151D01*
X114445495Y-100143406D01*
X114339831Y-100153813D01*
X114234168Y-100164220D01*
X111317832Y-100164220D01*
X111212169Y-100153813D01*
X111106505Y-100143406D01*
X110835346Y-100061151D01*
X110585445Y-99927576D01*
X110366405Y-99747815D01*
X110186644Y-99528775D01*
X110053069Y-99278874D01*
X109970814Y-99007715D01*
X109943040Y-98725720D01*
X109970814Y-98443725D01*
X110053069Y-98172566D01*
X110186644Y-97922665D01*
X110366405Y-97703625D01*
X110585445Y-97523864D01*
X110835346Y-97390289D01*
X111106505Y-97308034D01*
X111212169Y-97297627D01*
X111317832Y-97287220D01*
X114234168Y-97287220D01*
X114339831Y-97297627D01*
X114339831Y-97297627D01*
G37*
G36*
X149363831Y-92597627D02*
G01*
X149469495Y-92608034D01*
X149740654Y-92690289D01*
X149990555Y-92823864D01*
X150209595Y-93003625D01*
X150389356Y-93222665D01*
X150522931Y-93472566D01*
X150605186Y-93743725D01*
X150632960Y-94025720D01*
X150605186Y-94307715D01*
X150522931Y-94578874D01*
X150389356Y-94828775D01*
X150209595Y-95047815D01*
X149990555Y-95227576D01*
X149740654Y-95361151D01*
X149469495Y-95443406D01*
X149363831Y-95453813D01*
X149258168Y-95464220D01*
X146341832Y-95464220D01*
X146236169Y-95453813D01*
X146130505Y-95443406D01*
X145859346Y-95361151D01*
X145609445Y-95227576D01*
X145390405Y-95047815D01*
X145210644Y-94828775D01*
X145077069Y-94578874D01*
X144994814Y-94307715D01*
X144967040Y-94025720D01*
X144994814Y-93743725D01*
X145077069Y-93472566D01*
X145210644Y-93222665D01*
X145390405Y-93003625D01*
X145609445Y-92823864D01*
X145859346Y-92690289D01*
X146130505Y-92608034D01*
X146236169Y-92597627D01*
X146341832Y-92587220D01*
X149258168Y-92587220D01*
X149363831Y-92597627D01*
X149363831Y-92597627D01*
G37*
G36*
X131583831Y-92597627D02*
G01*
X131689495Y-92608034D01*
X131960654Y-92690289D01*
X132210555Y-92823864D01*
X132429595Y-93003625D01*
X132609356Y-93222665D01*
X132742931Y-93472566D01*
X132825186Y-93743725D01*
X132852960Y-94025720D01*
X132825186Y-94307715D01*
X132742931Y-94578874D01*
X132609356Y-94828775D01*
X132429595Y-95047815D01*
X132210555Y-95227576D01*
X131960654Y-95361151D01*
X131689495Y-95443406D01*
X131583831Y-95453813D01*
X131478168Y-95464220D01*
X128561832Y-95464220D01*
X128456169Y-95453813D01*
X128350505Y-95443406D01*
X128079346Y-95361151D01*
X127829445Y-95227576D01*
X127610405Y-95047815D01*
X127430644Y-94828775D01*
X127297069Y-94578874D01*
X127214814Y-94307715D01*
X127187040Y-94025720D01*
X127214814Y-93743725D01*
X127297069Y-93472566D01*
X127430644Y-93222665D01*
X127610405Y-93003625D01*
X127829445Y-92823864D01*
X128079346Y-92690289D01*
X128350505Y-92608034D01*
X128456169Y-92597627D01*
X128561832Y-92587220D01*
X131478168Y-92587220D01*
X131583831Y-92597627D01*
X131583831Y-92597627D01*
G37*
G36*
X114339831Y-92597627D02*
G01*
X114445495Y-92608034D01*
X114716654Y-92690289D01*
X114966555Y-92823864D01*
X115185595Y-93003625D01*
X115365356Y-93222665D01*
X115498931Y-93472566D01*
X115581186Y-93743725D01*
X115608960Y-94025720D01*
X115581186Y-94307715D01*
X115498931Y-94578874D01*
X115365356Y-94828775D01*
X115185595Y-95047815D01*
X114966555Y-95227576D01*
X114716654Y-95361151D01*
X114445495Y-95443406D01*
X114339831Y-95453813D01*
X114234168Y-95464220D01*
X111317832Y-95464220D01*
X111212169Y-95453813D01*
X111106505Y-95443406D01*
X110835346Y-95361151D01*
X110585445Y-95227576D01*
X110366405Y-95047815D01*
X110186644Y-94828775D01*
X110053069Y-94578874D01*
X109970814Y-94307715D01*
X109943040Y-94025720D01*
X109970814Y-93743725D01*
X110053069Y-93472566D01*
X110186644Y-93222665D01*
X110366405Y-93003625D01*
X110585445Y-92823864D01*
X110835346Y-92690289D01*
X111106505Y-92608034D01*
X111212169Y-92597627D01*
X111317832Y-92587220D01*
X114234168Y-92587220D01*
X114339831Y-92597627D01*
X114339831Y-92597627D01*
G37*
G36*
X114339830Y-87897627D02*
G01*
X114445495Y-87908034D01*
X114716654Y-87990289D01*
X114966555Y-88123864D01*
X115185595Y-88303625D01*
X115365356Y-88522665D01*
X115498931Y-88772566D01*
X115581186Y-89043725D01*
X115608960Y-89325720D01*
X115581186Y-89607715D01*
X115498931Y-89878874D01*
X115365356Y-90128775D01*
X115185595Y-90347815D01*
X114966555Y-90527576D01*
X114716654Y-90661151D01*
X114445495Y-90743406D01*
X114339831Y-90753813D01*
X114234168Y-90764220D01*
X111317832Y-90764220D01*
X111212169Y-90753813D01*
X111106505Y-90743406D01*
X110835346Y-90661151D01*
X110585445Y-90527576D01*
X110366405Y-90347815D01*
X110186644Y-90128775D01*
X110053069Y-89878874D01*
X109970814Y-89607715D01*
X109943040Y-89325720D01*
X109970814Y-89043725D01*
X110053069Y-88772566D01*
X110186644Y-88522665D01*
X110366405Y-88303625D01*
X110585445Y-88123864D01*
X110835346Y-87990289D01*
X111106505Y-87908034D01*
X111212170Y-87897627D01*
X111317832Y-87887220D01*
X114234168Y-87887220D01*
X114339830Y-87897627D01*
X114339830Y-87897627D01*
G37*
G36*
X149363830Y-87897627D02*
G01*
X149469495Y-87908034D01*
X149740654Y-87990289D01*
X149990555Y-88123864D01*
X150209595Y-88303625D01*
X150389356Y-88522665D01*
X150522931Y-88772566D01*
X150605186Y-89043725D01*
X150632960Y-89325720D01*
X150605186Y-89607715D01*
X150522931Y-89878874D01*
X150389356Y-90128775D01*
X150209595Y-90347815D01*
X149990555Y-90527576D01*
X149740654Y-90661151D01*
X149469495Y-90743406D01*
X149363831Y-90753813D01*
X149258168Y-90764220D01*
X146341832Y-90764220D01*
X146236169Y-90753813D01*
X146130505Y-90743406D01*
X145859346Y-90661151D01*
X145609445Y-90527576D01*
X145390405Y-90347815D01*
X145210644Y-90128775D01*
X145077069Y-89878874D01*
X144994814Y-89607715D01*
X144967040Y-89325720D01*
X144994814Y-89043725D01*
X145077069Y-88772566D01*
X145210644Y-88522665D01*
X145390405Y-88303625D01*
X145609445Y-88123864D01*
X145859346Y-87990289D01*
X146130505Y-87908034D01*
X146236170Y-87897627D01*
X146341832Y-87887220D01*
X149258168Y-87887220D01*
X149363830Y-87897627D01*
X149363830Y-87897627D01*
G37*
G36*
X131583830Y-87897627D02*
G01*
X131689495Y-87908034D01*
X131960654Y-87990289D01*
X132210555Y-88123864D01*
X132429595Y-88303625D01*
X132609356Y-88522665D01*
X132742931Y-88772566D01*
X132825186Y-89043725D01*
X132852960Y-89325720D01*
X132825186Y-89607715D01*
X132742931Y-89878874D01*
X132609356Y-90128775D01*
X132429595Y-90347815D01*
X132210555Y-90527576D01*
X131960654Y-90661151D01*
X131689495Y-90743406D01*
X131583831Y-90753813D01*
X131478168Y-90764220D01*
X128561832Y-90764220D01*
X128456169Y-90753813D01*
X128350505Y-90743406D01*
X128079346Y-90661151D01*
X127829445Y-90527576D01*
X127610405Y-90347815D01*
X127430644Y-90128775D01*
X127297069Y-89878874D01*
X127214814Y-89607715D01*
X127187040Y-89325720D01*
X127214814Y-89043725D01*
X127297069Y-88772566D01*
X127430644Y-88522665D01*
X127610405Y-88303625D01*
X127829445Y-88123864D01*
X128079346Y-87990289D01*
X128350505Y-87908034D01*
X128456170Y-87897627D01*
X128561832Y-87887220D01*
X131478168Y-87887220D01*
X131583830Y-87897627D01*
X131583830Y-87897627D01*
G37*
G36*
X148701000Y-83711100D02*
G01*
X146899000Y-83711100D01*
X146899000Y-81909100D01*
X148701000Y-81909100D01*
X148701000Y-83711100D01*
X148701000Y-83711100D01*
G37*
G36*
X113606001Y-83711100D02*
G01*
X111804001Y-83711100D01*
X111804001Y-81909100D01*
X113606001Y-81909100D01*
X113606001Y-83711100D01*
X113606001Y-83711100D01*
G37*
G36*
X130921000Y-83711100D02*
G01*
X129119000Y-83711100D01*
X129119000Y-81909100D01*
X130921000Y-81909100D01*
X130921000Y-83711100D01*
X130921000Y-83711100D01*
G37*
G36*
X109143229Y-75381703D02*
G01*
X109298101Y-75445853D01*
X109437482Y-75538985D01*
X109556016Y-75657519D01*
X109649148Y-75796900D01*
X109713298Y-75951772D01*
X109746001Y-76116184D01*
X109746001Y-76283816D01*
X109713298Y-76448228D01*
X109649148Y-76603100D01*
X109556016Y-76742481D01*
X109437482Y-76861015D01*
X109298101Y-76954147D01*
X109143229Y-77018297D01*
X108978817Y-77051000D01*
X108811185Y-77051000D01*
X108646773Y-77018297D01*
X108491901Y-76954147D01*
X108352520Y-76861015D01*
X108233986Y-76742481D01*
X108140854Y-76603100D01*
X108076704Y-76448228D01*
X108044001Y-76283816D01*
X108044001Y-76116184D01*
X108076704Y-75951772D01*
X108140854Y-75796900D01*
X108233986Y-75657519D01*
X108352520Y-75538985D01*
X108491901Y-75445853D01*
X108646773Y-75381703D01*
X108811185Y-75349000D01*
X108978817Y-75349000D01*
X109143229Y-75381703D01*
X109143229Y-75381703D01*
G37*
G36*
X116681824Y-75361313D02*
G01*
X116842243Y-75409976D01*
X116909362Y-75445852D01*
X116990079Y-75488996D01*
X117119660Y-75595341D01*
X117226005Y-75724922D01*
X117226006Y-75724924D01*
X117305025Y-75872758D01*
X117353688Y-76033177D01*
X117370118Y-76200000D01*
X117353688Y-76366823D01*
X117305025Y-76527242D01*
X117264478Y-76603100D01*
X117226005Y-76675078D01*
X117119660Y-76804659D01*
X116990079Y-76911004D01*
X116990077Y-76911005D01*
X116842243Y-76990024D01*
X116681824Y-77038687D01*
X116556805Y-77051000D01*
X116473197Y-77051000D01*
X116348178Y-77038687D01*
X116187759Y-76990024D01*
X116039925Y-76911005D01*
X116039923Y-76911004D01*
X115910342Y-76804659D01*
X115803997Y-76675078D01*
X115765524Y-76603100D01*
X115724977Y-76527242D01*
X115676314Y-76366823D01*
X115659884Y-76200000D01*
X115676314Y-76033177D01*
X115724977Y-75872758D01*
X115803996Y-75724924D01*
X115803997Y-75724922D01*
X115910342Y-75595341D01*
X116039923Y-75488996D01*
X116120640Y-75445852D01*
X116187759Y-75409976D01*
X116348178Y-75361313D01*
X116473197Y-75349000D01*
X116556805Y-75349000D01*
X116681824Y-75361313D01*
X116681824Y-75361313D01*
G37*
G36*
X126458228Y-75381703D02*
G01*
X126613100Y-75445853D01*
X126752481Y-75538985D01*
X126871015Y-75657519D01*
X126964147Y-75796900D01*
X127028297Y-75951772D01*
X127061000Y-76116184D01*
X127061000Y-76283816D01*
X127028297Y-76448228D01*
X126964147Y-76603100D01*
X126871015Y-76742481D01*
X126752481Y-76861015D01*
X126613100Y-76954147D01*
X126458228Y-77018297D01*
X126293816Y-77051000D01*
X126126184Y-77051000D01*
X125961772Y-77018297D01*
X125806900Y-76954147D01*
X125667519Y-76861015D01*
X125548985Y-76742481D01*
X125455853Y-76603100D01*
X125391703Y-76448228D01*
X125359000Y-76283816D01*
X125359000Y-76116184D01*
X125391703Y-75951772D01*
X125455853Y-75796900D01*
X125548985Y-75657519D01*
X125667519Y-75538985D01*
X125806900Y-75445853D01*
X125961772Y-75381703D01*
X126126184Y-75349000D01*
X126293816Y-75349000D01*
X126458228Y-75381703D01*
X126458228Y-75381703D01*
G37*
G36*
X144238228Y-75381703D02*
G01*
X144393100Y-75445853D01*
X144532481Y-75538985D01*
X144651015Y-75657519D01*
X144744147Y-75796900D01*
X144808297Y-75951772D01*
X144841000Y-76116184D01*
X144841000Y-76283816D01*
X144808297Y-76448228D01*
X144744147Y-76603100D01*
X144651015Y-76742481D01*
X144532481Y-76861015D01*
X144393100Y-76954147D01*
X144238228Y-77018297D01*
X144073816Y-77051000D01*
X143906184Y-77051000D01*
X143741772Y-77018297D01*
X143586900Y-76954147D01*
X143447519Y-76861015D01*
X143328985Y-76742481D01*
X143235853Y-76603100D01*
X143171703Y-76448228D01*
X143139000Y-76283816D01*
X143139000Y-76116184D01*
X143171703Y-75951772D01*
X143235853Y-75796900D01*
X143328985Y-75657519D01*
X143447519Y-75538985D01*
X143586900Y-75445853D01*
X143741772Y-75381703D01*
X143906184Y-75349000D01*
X144073816Y-75349000D01*
X144238228Y-75381703D01*
X144238228Y-75381703D01*
G37*
G36*
X133996823Y-75361313D02*
G01*
X134157242Y-75409976D01*
X134224361Y-75445852D01*
X134305078Y-75488996D01*
X134434659Y-75595341D01*
X134541004Y-75724922D01*
X134541005Y-75724924D01*
X134620024Y-75872758D01*
X134668687Y-76033177D01*
X134685117Y-76200000D01*
X134668687Y-76366823D01*
X134620024Y-76527242D01*
X134579477Y-76603100D01*
X134541004Y-76675078D01*
X134434659Y-76804659D01*
X134305078Y-76911004D01*
X134305076Y-76911005D01*
X134157242Y-76990024D01*
X133996823Y-77038687D01*
X133871804Y-77051000D01*
X133788196Y-77051000D01*
X133663177Y-77038687D01*
X133502758Y-76990024D01*
X133354924Y-76911005D01*
X133354922Y-76911004D01*
X133225341Y-76804659D01*
X133118996Y-76675078D01*
X133080523Y-76603100D01*
X133039976Y-76527242D01*
X132991313Y-76366823D01*
X132974883Y-76200000D01*
X132991313Y-76033177D01*
X133039976Y-75872758D01*
X133118995Y-75724924D01*
X133118996Y-75724922D01*
X133225341Y-75595341D01*
X133354922Y-75488996D01*
X133435639Y-75445852D01*
X133502758Y-75409976D01*
X133663177Y-75361313D01*
X133788196Y-75349000D01*
X133871804Y-75349000D01*
X133996823Y-75361313D01*
X133996823Y-75361313D01*
G37*
G36*
X151776823Y-75361313D02*
G01*
X151937242Y-75409976D01*
X152004361Y-75445852D01*
X152085078Y-75488996D01*
X152214659Y-75595341D01*
X152321004Y-75724922D01*
X152321005Y-75724924D01*
X152400024Y-75872758D01*
X152448687Y-76033177D01*
X152465117Y-76200000D01*
X152448687Y-76366823D01*
X152400024Y-76527242D01*
X152359477Y-76603100D01*
X152321004Y-76675078D01*
X152214659Y-76804659D01*
X152085078Y-76911004D01*
X152085076Y-76911005D01*
X151937242Y-76990024D01*
X151776823Y-77038687D01*
X151651804Y-77051000D01*
X151568196Y-77051000D01*
X151443177Y-77038687D01*
X151282758Y-76990024D01*
X151134924Y-76911005D01*
X151134922Y-76911004D01*
X151005341Y-76804659D01*
X150898996Y-76675078D01*
X150860523Y-76603100D01*
X150819976Y-76527242D01*
X150771313Y-76366823D01*
X150754883Y-76200000D01*
X150771313Y-76033177D01*
X150819976Y-75872758D01*
X150898995Y-75724924D01*
X150898996Y-75724922D01*
X151005341Y-75595341D01*
X151134922Y-75488996D01*
X151215639Y-75445852D01*
X151282758Y-75409976D01*
X151443177Y-75361313D01*
X151568196Y-75349000D01*
X151651804Y-75349000D01*
X151776823Y-75361313D01*
X151776823Y-75361313D01*
G37*
G36*
X151786823Y-69011313D02*
G01*
X151947242Y-69059976D01*
X152079906Y-69130886D01*
X152095078Y-69138996D01*
X152224659Y-69245341D01*
X152331004Y-69374922D01*
X152331005Y-69374924D01*
X152410024Y-69522758D01*
X152458687Y-69683177D01*
X152475117Y-69850000D01*
X152458687Y-70016823D01*
X152410024Y-70177242D01*
X152339114Y-70309906D01*
X152331004Y-70325078D01*
X152224659Y-70454659D01*
X152095078Y-70561004D01*
X152095076Y-70561005D01*
X151947242Y-70640024D01*
X151786823Y-70688687D01*
X151661804Y-70701000D01*
X151578196Y-70701000D01*
X151453177Y-70688687D01*
X151292758Y-70640024D01*
X151144924Y-70561005D01*
X151144922Y-70561004D01*
X151015341Y-70454659D01*
X150908996Y-70325078D01*
X150900886Y-70309906D01*
X150829976Y-70177242D01*
X150781313Y-70016823D01*
X150764883Y-69850000D01*
X150781313Y-69683177D01*
X150829976Y-69522758D01*
X150908995Y-69374924D01*
X150908996Y-69374922D01*
X151015341Y-69245341D01*
X151144922Y-69138996D01*
X151160094Y-69130886D01*
X151292758Y-69059976D01*
X151453177Y-69011313D01*
X151578196Y-68999000D01*
X151661804Y-68999000D01*
X151786823Y-69011313D01*
X151786823Y-69011313D01*
G37*
G36*
X109071824Y-69011313D02*
G01*
X109232243Y-69059976D01*
X109364907Y-69130886D01*
X109380079Y-69138996D01*
X109509660Y-69245341D01*
X109616005Y-69374922D01*
X109616006Y-69374924D01*
X109695025Y-69522758D01*
X109743688Y-69683177D01*
X109760118Y-69850000D01*
X109743688Y-70016823D01*
X109695025Y-70177242D01*
X109624115Y-70309906D01*
X109616005Y-70325078D01*
X109509660Y-70454659D01*
X109380079Y-70561004D01*
X109380077Y-70561005D01*
X109232243Y-70640024D01*
X109071824Y-70688687D01*
X108946805Y-70701000D01*
X108863197Y-70701000D01*
X108738178Y-70688687D01*
X108577759Y-70640024D01*
X108429925Y-70561005D01*
X108429923Y-70561004D01*
X108300342Y-70454659D01*
X108193997Y-70325078D01*
X108185887Y-70309906D01*
X108114977Y-70177242D01*
X108066314Y-70016823D01*
X108049884Y-69850000D01*
X108066314Y-69683177D01*
X108114977Y-69522758D01*
X108193996Y-69374924D01*
X108193997Y-69374922D01*
X108300342Y-69245341D01*
X108429923Y-69138996D01*
X108445095Y-69130886D01*
X108577759Y-69059976D01*
X108738178Y-69011313D01*
X108863197Y-68999000D01*
X108946805Y-68999000D01*
X109071824Y-69011313D01*
X109071824Y-69011313D01*
G37*
G36*
X116691824Y-69011313D02*
G01*
X116852243Y-69059976D01*
X116984907Y-69130886D01*
X117000079Y-69138996D01*
X117129660Y-69245341D01*
X117236005Y-69374922D01*
X117236006Y-69374924D01*
X117315025Y-69522758D01*
X117363688Y-69683177D01*
X117380118Y-69850000D01*
X117363688Y-70016823D01*
X117315025Y-70177242D01*
X117244115Y-70309906D01*
X117236005Y-70325078D01*
X117129660Y-70454659D01*
X117000079Y-70561004D01*
X117000077Y-70561005D01*
X116852243Y-70640024D01*
X116691824Y-70688687D01*
X116566805Y-70701000D01*
X116483197Y-70701000D01*
X116358178Y-70688687D01*
X116197759Y-70640024D01*
X116049925Y-70561005D01*
X116049923Y-70561004D01*
X115920342Y-70454659D01*
X115813997Y-70325078D01*
X115805887Y-70309906D01*
X115734977Y-70177242D01*
X115686314Y-70016823D01*
X115669884Y-69850000D01*
X115686314Y-69683177D01*
X115734977Y-69522758D01*
X115813996Y-69374924D01*
X115813997Y-69374922D01*
X115920342Y-69245341D01*
X116049923Y-69138996D01*
X116065095Y-69130886D01*
X116197759Y-69059976D01*
X116358178Y-69011313D01*
X116483197Y-68999000D01*
X116566805Y-68999000D01*
X116691824Y-69011313D01*
X116691824Y-69011313D01*
G37*
G36*
X144166823Y-69011313D02*
G01*
X144327242Y-69059976D01*
X144459906Y-69130886D01*
X144475078Y-69138996D01*
X144604659Y-69245341D01*
X144711004Y-69374922D01*
X144711005Y-69374924D01*
X144790024Y-69522758D01*
X144838687Y-69683177D01*
X144855117Y-69850000D01*
X144838687Y-70016823D01*
X144790024Y-70177242D01*
X144719114Y-70309906D01*
X144711004Y-70325078D01*
X144604659Y-70454659D01*
X144475078Y-70561004D01*
X144475076Y-70561005D01*
X144327242Y-70640024D01*
X144166823Y-70688687D01*
X144041804Y-70701000D01*
X143958196Y-70701000D01*
X143833177Y-70688687D01*
X143672758Y-70640024D01*
X143524924Y-70561005D01*
X143524922Y-70561004D01*
X143395341Y-70454659D01*
X143288996Y-70325078D01*
X143280886Y-70309906D01*
X143209976Y-70177242D01*
X143161313Y-70016823D01*
X143144883Y-69850000D01*
X143161313Y-69683177D01*
X143209976Y-69522758D01*
X143288995Y-69374924D01*
X143288996Y-69374922D01*
X143395341Y-69245341D01*
X143524922Y-69138996D01*
X143540094Y-69130886D01*
X143672758Y-69059976D01*
X143833177Y-69011313D01*
X143958196Y-68999000D01*
X144041804Y-68999000D01*
X144166823Y-69011313D01*
X144166823Y-69011313D01*
G37*
G36*
X116691824Y-66471313D02*
G01*
X116852243Y-66519976D01*
X116984907Y-66590886D01*
X117000079Y-66598996D01*
X117129660Y-66705341D01*
X117236005Y-66834922D01*
X117236006Y-66834924D01*
X117315025Y-66982758D01*
X117363688Y-67143177D01*
X117380118Y-67310000D01*
X117363688Y-67476823D01*
X117315025Y-67637242D01*
X117244115Y-67769906D01*
X117236005Y-67785078D01*
X117129660Y-67914659D01*
X117000079Y-68021004D01*
X117000077Y-68021005D01*
X116852243Y-68100024D01*
X116691824Y-68148687D01*
X116566805Y-68161000D01*
X116483197Y-68161000D01*
X116358178Y-68148687D01*
X116197759Y-68100024D01*
X116049925Y-68021005D01*
X116049923Y-68021004D01*
X115920342Y-67914659D01*
X115813997Y-67785078D01*
X115805887Y-67769906D01*
X115734977Y-67637242D01*
X115686314Y-67476823D01*
X115669884Y-67310000D01*
X115686314Y-67143177D01*
X115734977Y-66982758D01*
X115813996Y-66834924D01*
X115813997Y-66834922D01*
X115920342Y-66705341D01*
X116049923Y-66598996D01*
X116065095Y-66590886D01*
X116197759Y-66519976D01*
X116358178Y-66471313D01*
X116483197Y-66459000D01*
X116566805Y-66459000D01*
X116691824Y-66471313D01*
X116691824Y-66471313D01*
G37*
G36*
X109071824Y-66471313D02*
G01*
X109232243Y-66519976D01*
X109364907Y-66590886D01*
X109380079Y-66598996D01*
X109509660Y-66705341D01*
X109616005Y-66834922D01*
X109616006Y-66834924D01*
X109695025Y-66982758D01*
X109743688Y-67143177D01*
X109760118Y-67310000D01*
X109743688Y-67476823D01*
X109695025Y-67637242D01*
X109624115Y-67769906D01*
X109616005Y-67785078D01*
X109509660Y-67914659D01*
X109380079Y-68021004D01*
X109380077Y-68021005D01*
X109232243Y-68100024D01*
X109071824Y-68148687D01*
X108946805Y-68161000D01*
X108863197Y-68161000D01*
X108738178Y-68148687D01*
X108577759Y-68100024D01*
X108429925Y-68021005D01*
X108429923Y-68021004D01*
X108300342Y-67914659D01*
X108193997Y-67785078D01*
X108185887Y-67769906D01*
X108114977Y-67637242D01*
X108066314Y-67476823D01*
X108049884Y-67310000D01*
X108066314Y-67143177D01*
X108114977Y-66982758D01*
X108193996Y-66834924D01*
X108193997Y-66834922D01*
X108300342Y-66705341D01*
X108429923Y-66598996D01*
X108445095Y-66590886D01*
X108577759Y-66519976D01*
X108738178Y-66471313D01*
X108863197Y-66459000D01*
X108946805Y-66459000D01*
X109071824Y-66471313D01*
X109071824Y-66471313D01*
G37*
G36*
X144166823Y-66471313D02*
G01*
X144327242Y-66519976D01*
X144459906Y-66590886D01*
X144475078Y-66598996D01*
X144604659Y-66705341D01*
X144711004Y-66834922D01*
X144711005Y-66834924D01*
X144790024Y-66982758D01*
X144838687Y-67143177D01*
X144855117Y-67310000D01*
X144838687Y-67476823D01*
X144790024Y-67637242D01*
X144719114Y-67769906D01*
X144711004Y-67785078D01*
X144604659Y-67914659D01*
X144475078Y-68021004D01*
X144475076Y-68021005D01*
X144327242Y-68100024D01*
X144166823Y-68148687D01*
X144041804Y-68161000D01*
X143958196Y-68161000D01*
X143833177Y-68148687D01*
X143672758Y-68100024D01*
X143524924Y-68021005D01*
X143524922Y-68021004D01*
X143395341Y-67914659D01*
X143288996Y-67785078D01*
X143280886Y-67769906D01*
X143209976Y-67637242D01*
X143161313Y-67476823D01*
X143144883Y-67310000D01*
X143161313Y-67143177D01*
X143209976Y-66982758D01*
X143288995Y-66834924D01*
X143288996Y-66834922D01*
X143395341Y-66705341D01*
X143524922Y-66598996D01*
X143540094Y-66590886D01*
X143672758Y-66519976D01*
X143833177Y-66471313D01*
X143958196Y-66459000D01*
X144041804Y-66459000D01*
X144166823Y-66471313D01*
X144166823Y-66471313D01*
G37*
G36*
X151786823Y-66471313D02*
G01*
X151947242Y-66519976D01*
X152079906Y-66590886D01*
X152095078Y-66598996D01*
X152224659Y-66705341D01*
X152331004Y-66834922D01*
X152331005Y-66834924D01*
X152410024Y-66982758D01*
X152458687Y-67143177D01*
X152475117Y-67310000D01*
X152458687Y-67476823D01*
X152410024Y-67637242D01*
X152339114Y-67769906D01*
X152331004Y-67785078D01*
X152224659Y-67914659D01*
X152095078Y-68021004D01*
X152095076Y-68021005D01*
X151947242Y-68100024D01*
X151786823Y-68148687D01*
X151661804Y-68161000D01*
X151578196Y-68161000D01*
X151453177Y-68148687D01*
X151292758Y-68100024D01*
X151144924Y-68021005D01*
X151144922Y-68021004D01*
X151015341Y-67914659D01*
X150908996Y-67785078D01*
X150900886Y-67769906D01*
X150829976Y-67637242D01*
X150781313Y-67476823D01*
X150764883Y-67310000D01*
X150781313Y-67143177D01*
X150829976Y-66982758D01*
X150908995Y-66834924D01*
X150908996Y-66834922D01*
X151015341Y-66705341D01*
X151144922Y-66598996D01*
X151160094Y-66590886D01*
X151292758Y-66519976D01*
X151453177Y-66471313D01*
X151578196Y-66459000D01*
X151661804Y-66459000D01*
X151786823Y-66471313D01*
X151786823Y-66471313D01*
G37*
G36*
X125846000Y-66931000D02*
G01*
X124044000Y-66931000D01*
X124044000Y-65129000D01*
X125846000Y-65129000D01*
X125846000Y-66931000D01*
X125846000Y-66931000D01*
G37*
G36*
X135215442Y-65135518D02*
G01*
X135281627Y-65142037D01*
X135451466Y-65193557D01*
X135607991Y-65277222D01*
X135643729Y-65306552D01*
X135745186Y-65389814D01*
X135820023Y-65481005D01*
X135857778Y-65527009D01*
X135941443Y-65683534D01*
X135992963Y-65853373D01*
X136010359Y-66030000D01*
X135992963Y-66206627D01*
X135941443Y-66376466D01*
X135857778Y-66532991D01*
X135828448Y-66568729D01*
X135745186Y-66670186D01*
X135643729Y-66753448D01*
X135607991Y-66782778D01*
X135451466Y-66866443D01*
X135281627Y-66917963D01*
X135215443Y-66924481D01*
X135149260Y-66931000D01*
X135060740Y-66931000D01*
X134994557Y-66924481D01*
X134928373Y-66917963D01*
X134758534Y-66866443D01*
X134602009Y-66782778D01*
X134566271Y-66753448D01*
X134464814Y-66670186D01*
X134381552Y-66568729D01*
X134352222Y-66532991D01*
X134268557Y-66376466D01*
X134217037Y-66206627D01*
X134199641Y-66030000D01*
X134217037Y-65853373D01*
X134268557Y-65683534D01*
X134352222Y-65527009D01*
X134389977Y-65481005D01*
X134464814Y-65389814D01*
X134566271Y-65306552D01*
X134602009Y-65277222D01*
X134758534Y-65193557D01*
X134928373Y-65142037D01*
X134994558Y-65135518D01*
X135060740Y-65129000D01*
X135149260Y-65129000D01*
X135215442Y-65135518D01*
X135215442Y-65135518D01*
G37*
G36*
X132675442Y-65135518D02*
G01*
X132741627Y-65142037D01*
X132911466Y-65193557D01*
X133067991Y-65277222D01*
X133103729Y-65306552D01*
X133205186Y-65389814D01*
X133280023Y-65481005D01*
X133317778Y-65527009D01*
X133401443Y-65683534D01*
X133452963Y-65853373D01*
X133470359Y-66030000D01*
X133452963Y-66206627D01*
X133401443Y-66376466D01*
X133317778Y-66532991D01*
X133288448Y-66568729D01*
X133205186Y-66670186D01*
X133103729Y-66753448D01*
X133067991Y-66782778D01*
X132911466Y-66866443D01*
X132741627Y-66917963D01*
X132675443Y-66924481D01*
X132609260Y-66931000D01*
X132520740Y-66931000D01*
X132454557Y-66924481D01*
X132388373Y-66917963D01*
X132218534Y-66866443D01*
X132062009Y-66782778D01*
X132026271Y-66753448D01*
X131924814Y-66670186D01*
X131841552Y-66568729D01*
X131812222Y-66532991D01*
X131728557Y-66376466D01*
X131677037Y-66206627D01*
X131659641Y-66030000D01*
X131677037Y-65853373D01*
X131728557Y-65683534D01*
X131812222Y-65527009D01*
X131849977Y-65481005D01*
X131924814Y-65389814D01*
X132026271Y-65306552D01*
X132062009Y-65277222D01*
X132218534Y-65193557D01*
X132388373Y-65142037D01*
X132454558Y-65135518D01*
X132520740Y-65129000D01*
X132609260Y-65129000D01*
X132675442Y-65135518D01*
X132675442Y-65135518D01*
G37*
G36*
X130135442Y-65135518D02*
G01*
X130201627Y-65142037D01*
X130371466Y-65193557D01*
X130527991Y-65277222D01*
X130563729Y-65306552D01*
X130665186Y-65389814D01*
X130740023Y-65481005D01*
X130777778Y-65527009D01*
X130861443Y-65683534D01*
X130912963Y-65853373D01*
X130930359Y-66030000D01*
X130912963Y-66206627D01*
X130861443Y-66376466D01*
X130777778Y-66532991D01*
X130748448Y-66568729D01*
X130665186Y-66670186D01*
X130563729Y-66753448D01*
X130527991Y-66782778D01*
X130371466Y-66866443D01*
X130201627Y-66917963D01*
X130135443Y-66924481D01*
X130069260Y-66931000D01*
X129980740Y-66931000D01*
X129914557Y-66924481D01*
X129848373Y-66917963D01*
X129678534Y-66866443D01*
X129522009Y-66782778D01*
X129486271Y-66753448D01*
X129384814Y-66670186D01*
X129301552Y-66568729D01*
X129272222Y-66532991D01*
X129188557Y-66376466D01*
X129137037Y-66206627D01*
X129119641Y-66030000D01*
X129137037Y-65853373D01*
X129188557Y-65683534D01*
X129272222Y-65527009D01*
X129309977Y-65481005D01*
X129384814Y-65389814D01*
X129486271Y-65306552D01*
X129522009Y-65277222D01*
X129678534Y-65193557D01*
X129848373Y-65142037D01*
X129914558Y-65135518D01*
X129980740Y-65129000D01*
X130069260Y-65129000D01*
X130135442Y-65135518D01*
X130135442Y-65135518D01*
G37*
G36*
X127595442Y-65135518D02*
G01*
X127661627Y-65142037D01*
X127831466Y-65193557D01*
X127987991Y-65277222D01*
X128023729Y-65306552D01*
X128125186Y-65389814D01*
X128200023Y-65481005D01*
X128237778Y-65527009D01*
X128321443Y-65683534D01*
X128372963Y-65853373D01*
X128390359Y-66030000D01*
X128372963Y-66206627D01*
X128321443Y-66376466D01*
X128237778Y-66532991D01*
X128208448Y-66568729D01*
X128125186Y-66670186D01*
X128023729Y-66753448D01*
X127987991Y-66782778D01*
X127831466Y-66866443D01*
X127661627Y-66917963D01*
X127595443Y-66924481D01*
X127529260Y-66931000D01*
X127440740Y-66931000D01*
X127374557Y-66924481D01*
X127308373Y-66917963D01*
X127138534Y-66866443D01*
X126982009Y-66782778D01*
X126946271Y-66753448D01*
X126844814Y-66670186D01*
X126761552Y-66568729D01*
X126732222Y-66532991D01*
X126648557Y-66376466D01*
X126597037Y-66206627D01*
X126579641Y-66030000D01*
X126597037Y-65853373D01*
X126648557Y-65683534D01*
X126732222Y-65527009D01*
X126769977Y-65481005D01*
X126844814Y-65389814D01*
X126946271Y-65306552D01*
X126982009Y-65277222D01*
X127138534Y-65193557D01*
X127308373Y-65142037D01*
X127374558Y-65135518D01*
X127440740Y-65129000D01*
X127529260Y-65129000D01*
X127595442Y-65135518D01*
X127595442Y-65135518D01*
G37*
G36*
X116691824Y-63931313D02*
G01*
X116852243Y-63979976D01*
X116984907Y-64050886D01*
X117000079Y-64058996D01*
X117129660Y-64165341D01*
X117236005Y-64294922D01*
X117236006Y-64294924D01*
X117315025Y-64442758D01*
X117363688Y-64603177D01*
X117380118Y-64770000D01*
X117363688Y-64936823D01*
X117315025Y-65097242D01*
X117263543Y-65193558D01*
X117236005Y-65245078D01*
X117129660Y-65374659D01*
X117000079Y-65481004D01*
X117000077Y-65481005D01*
X116852243Y-65560024D01*
X116691824Y-65608687D01*
X116566805Y-65621000D01*
X116483197Y-65621000D01*
X116358178Y-65608687D01*
X116197759Y-65560024D01*
X116049925Y-65481005D01*
X116049923Y-65481004D01*
X115920342Y-65374659D01*
X115813997Y-65245078D01*
X115786459Y-65193558D01*
X115734977Y-65097242D01*
X115686314Y-64936823D01*
X115669884Y-64770000D01*
X115686314Y-64603177D01*
X115734977Y-64442758D01*
X115813996Y-64294924D01*
X115813997Y-64294922D01*
X115920342Y-64165341D01*
X116049923Y-64058996D01*
X116065095Y-64050886D01*
X116197759Y-63979976D01*
X116358178Y-63931313D01*
X116483197Y-63919000D01*
X116566805Y-63919000D01*
X116691824Y-63931313D01*
X116691824Y-63931313D01*
G37*
G36*
X144166823Y-63931313D02*
G01*
X144327242Y-63979976D01*
X144459906Y-64050886D01*
X144475078Y-64058996D01*
X144604659Y-64165341D01*
X144711004Y-64294922D01*
X144711005Y-64294924D01*
X144790024Y-64442758D01*
X144838687Y-64603177D01*
X144855117Y-64770000D01*
X144838687Y-64936823D01*
X144790024Y-65097242D01*
X144738542Y-65193558D01*
X144711004Y-65245078D01*
X144604659Y-65374659D01*
X144475078Y-65481004D01*
X144475076Y-65481005D01*
X144327242Y-65560024D01*
X144166823Y-65608687D01*
X144041804Y-65621000D01*
X143958196Y-65621000D01*
X143833177Y-65608687D01*
X143672758Y-65560024D01*
X143524924Y-65481005D01*
X143524922Y-65481004D01*
X143395341Y-65374659D01*
X143288996Y-65245078D01*
X143261458Y-65193558D01*
X143209976Y-65097242D01*
X143161313Y-64936823D01*
X143144883Y-64770000D01*
X143161313Y-64603177D01*
X143209976Y-64442758D01*
X143288995Y-64294924D01*
X143288996Y-64294922D01*
X143395341Y-64165341D01*
X143524922Y-64058996D01*
X143540094Y-64050886D01*
X143672758Y-63979976D01*
X143833177Y-63931313D01*
X143958196Y-63919000D01*
X144041804Y-63919000D01*
X144166823Y-63931313D01*
X144166823Y-63931313D01*
G37*
G36*
X109071824Y-63931313D02*
G01*
X109232243Y-63979976D01*
X109364907Y-64050886D01*
X109380079Y-64058996D01*
X109509660Y-64165341D01*
X109616005Y-64294922D01*
X109616006Y-64294924D01*
X109695025Y-64442758D01*
X109743688Y-64603177D01*
X109760118Y-64770000D01*
X109743688Y-64936823D01*
X109695025Y-65097242D01*
X109643543Y-65193558D01*
X109616005Y-65245078D01*
X109509660Y-65374659D01*
X109380079Y-65481004D01*
X109380077Y-65481005D01*
X109232243Y-65560024D01*
X109071824Y-65608687D01*
X108946805Y-65621000D01*
X108863197Y-65621000D01*
X108738178Y-65608687D01*
X108577759Y-65560024D01*
X108429925Y-65481005D01*
X108429923Y-65481004D01*
X108300342Y-65374659D01*
X108193997Y-65245078D01*
X108166459Y-65193558D01*
X108114977Y-65097242D01*
X108066314Y-64936823D01*
X108049884Y-64770000D01*
X108066314Y-64603177D01*
X108114977Y-64442758D01*
X108193996Y-64294924D01*
X108193997Y-64294922D01*
X108300342Y-64165341D01*
X108429923Y-64058996D01*
X108445095Y-64050886D01*
X108577759Y-63979976D01*
X108738178Y-63931313D01*
X108863197Y-63919000D01*
X108946805Y-63919000D01*
X109071824Y-63931313D01*
X109071824Y-63931313D01*
G37*
G36*
X151786823Y-63931313D02*
G01*
X151947242Y-63979976D01*
X152079906Y-64050886D01*
X152095078Y-64058996D01*
X152224659Y-64165341D01*
X152331004Y-64294922D01*
X152331005Y-64294924D01*
X152410024Y-64442758D01*
X152458687Y-64603177D01*
X152475117Y-64770000D01*
X152458687Y-64936823D01*
X152410024Y-65097242D01*
X152358542Y-65193558D01*
X152331004Y-65245078D01*
X152224659Y-65374659D01*
X152095078Y-65481004D01*
X152095076Y-65481005D01*
X151947242Y-65560024D01*
X151786823Y-65608687D01*
X151661804Y-65621000D01*
X151578196Y-65621000D01*
X151453177Y-65608687D01*
X151292758Y-65560024D01*
X151144924Y-65481005D01*
X151144922Y-65481004D01*
X151015341Y-65374659D01*
X150908996Y-65245078D01*
X150881458Y-65193558D01*
X150829976Y-65097242D01*
X150781313Y-64936823D01*
X150764883Y-64770000D01*
X150781313Y-64603177D01*
X150829976Y-64442758D01*
X150908995Y-64294924D01*
X150908996Y-64294922D01*
X151015341Y-64165341D01*
X151144922Y-64058996D01*
X151160094Y-64050886D01*
X151292758Y-63979976D01*
X151453177Y-63931313D01*
X151578196Y-63919000D01*
X151661804Y-63919000D01*
X151786823Y-63931313D01*
X151786823Y-63931313D01*
G37*
G36*
X109756001Y-63081000D02*
G01*
X108054001Y-63081000D01*
X108054001Y-61379000D01*
X109756001Y-61379000D01*
X109756001Y-63081000D01*
X109756001Y-63081000D01*
G37*
G36*
X151786823Y-61391313D02*
G01*
X151947242Y-61439976D01*
X152079906Y-61510886D01*
X152095078Y-61518996D01*
X152224659Y-61625341D01*
X152331004Y-61754922D01*
X152331005Y-61754924D01*
X152410024Y-61902758D01*
X152458687Y-62063177D01*
X152475117Y-62230000D01*
X152458687Y-62396823D01*
X152410024Y-62557242D01*
X152339114Y-62689906D01*
X152331004Y-62705078D01*
X152224659Y-62834659D01*
X152095078Y-62941004D01*
X152095076Y-62941005D01*
X151947242Y-63020024D01*
X151786823Y-63068687D01*
X151661804Y-63081000D01*
X151578196Y-63081000D01*
X151453177Y-63068687D01*
X151292758Y-63020024D01*
X151144924Y-62941005D01*
X151144922Y-62941004D01*
X151015341Y-62834659D01*
X150908996Y-62705078D01*
X150900886Y-62689906D01*
X150829976Y-62557242D01*
X150781313Y-62396823D01*
X150764883Y-62230000D01*
X150781313Y-62063177D01*
X150829976Y-61902758D01*
X150908995Y-61754924D01*
X150908996Y-61754922D01*
X151015341Y-61625341D01*
X151144922Y-61518996D01*
X151160094Y-61510886D01*
X151292758Y-61439976D01*
X151453177Y-61391313D01*
X151578196Y-61379000D01*
X151661804Y-61379000D01*
X151786823Y-61391313D01*
X151786823Y-61391313D01*
G37*
G36*
X116691824Y-61391313D02*
G01*
X116852243Y-61439976D01*
X116984907Y-61510886D01*
X117000079Y-61518996D01*
X117129660Y-61625341D01*
X117236005Y-61754922D01*
X117236006Y-61754924D01*
X117315025Y-61902758D01*
X117363688Y-62063177D01*
X117380118Y-62230000D01*
X117363688Y-62396823D01*
X117315025Y-62557242D01*
X117244115Y-62689906D01*
X117236005Y-62705078D01*
X117129660Y-62834659D01*
X117000079Y-62941004D01*
X117000077Y-62941005D01*
X116852243Y-63020024D01*
X116691824Y-63068687D01*
X116566805Y-63081000D01*
X116483197Y-63081000D01*
X116358178Y-63068687D01*
X116197759Y-63020024D01*
X116049925Y-62941005D01*
X116049923Y-62941004D01*
X115920342Y-62834659D01*
X115813997Y-62705078D01*
X115805887Y-62689906D01*
X115734977Y-62557242D01*
X115686314Y-62396823D01*
X115669884Y-62230000D01*
X115686314Y-62063177D01*
X115734977Y-61902758D01*
X115813996Y-61754924D01*
X115813997Y-61754922D01*
X115920342Y-61625341D01*
X116049923Y-61518996D01*
X116065095Y-61510886D01*
X116197759Y-61439976D01*
X116358178Y-61391313D01*
X116483197Y-61379000D01*
X116566805Y-61379000D01*
X116691824Y-61391313D01*
X116691824Y-61391313D01*
G37*
G36*
X144851000Y-63081000D02*
G01*
X143149000Y-63081000D01*
X143149000Y-61379000D01*
X144851000Y-61379000D01*
X144851000Y-63081000D01*
X144851000Y-63081000D01*
G37*
G36*
X148497916Y-54042334D02*
G01*
X148606492Y-54075271D01*
X148606495Y-54075272D01*
X148642601Y-54094571D01*
X148706557Y-54128756D01*
X148794264Y-54200736D01*
X148866244Y-54288443D01*
X148900429Y-54352399D01*
X148919728Y-54388505D01*
X148919729Y-54388508D01*
X148952666Y-54497084D01*
X148963787Y-54610000D01*
X148952666Y-54722916D01*
X148925109Y-54813756D01*
X148919728Y-54831495D01*
X148900429Y-54867601D01*
X148866244Y-54931557D01*
X148794264Y-55019264D01*
X148706557Y-55091244D01*
X148652136Y-55120332D01*
X148625141Y-55134761D01*
X148604766Y-55148375D01*
X148587439Y-55165702D01*
X148573826Y-55186076D01*
X148564448Y-55208715D01*
X148559668Y-55232748D01*
X148559668Y-55257252D01*
X148564448Y-55281285D01*
X148573826Y-55303924D01*
X148587440Y-55324299D01*
X148604767Y-55341626D01*
X148625141Y-55355239D01*
X148706557Y-55398756D01*
X148794264Y-55470736D01*
X148866244Y-55558443D01*
X148900429Y-55622399D01*
X148919728Y-55658505D01*
X148919729Y-55658508D01*
X148952666Y-55767084D01*
X148963787Y-55880000D01*
X148952666Y-55992916D01*
X148929806Y-56068272D01*
X148919728Y-56101495D01*
X148903276Y-56132274D01*
X148866244Y-56201557D01*
X148794264Y-56289264D01*
X148717354Y-56352383D01*
X148700035Y-56369702D01*
X148686421Y-56390077D01*
X148677043Y-56412716D01*
X148672263Y-56436749D01*
X148672263Y-56461253D01*
X148677043Y-56485286D01*
X148686421Y-56507925D01*
X148700034Y-56528299D01*
X148717361Y-56545626D01*
X148737736Y-56559240D01*
X148760375Y-56568618D01*
X148784408Y-56573398D01*
X148796660Y-56574000D01*
X148961000Y-56574000D01*
X148961000Y-57726000D01*
X147359000Y-57726000D01*
X147359000Y-56574000D01*
X147523340Y-56574000D01*
X147547726Y-56571598D01*
X147571175Y-56564485D01*
X147592786Y-56552934D01*
X147611728Y-56537389D01*
X147627273Y-56518447D01*
X147638824Y-56496836D01*
X147645937Y-56473387D01*
X147648339Y-56449001D01*
X147645937Y-56424615D01*
X147638824Y-56401166D01*
X147627273Y-56379555D01*
X147611728Y-56360613D01*
X147602655Y-56352391D01*
X147525736Y-56289264D01*
X147453756Y-56201557D01*
X147416724Y-56132274D01*
X147400272Y-56101495D01*
X147390194Y-56068272D01*
X147367334Y-55992916D01*
X147356213Y-55880000D01*
X147367334Y-55767084D01*
X147400271Y-55658508D01*
X147400272Y-55658505D01*
X147419571Y-55622399D01*
X147453756Y-55558443D01*
X147525736Y-55470736D01*
X147613443Y-55398756D01*
X147694859Y-55355239D01*
X147715234Y-55341625D01*
X147732561Y-55324298D01*
X147746174Y-55303924D01*
X147755552Y-55281285D01*
X147760332Y-55257252D01*
X147760332Y-55232748D01*
X147755552Y-55208715D01*
X147746174Y-55186076D01*
X147732560Y-55165701D01*
X147715233Y-55148374D01*
X147694859Y-55134761D01*
X147667864Y-55120332D01*
X147613443Y-55091244D01*
X147525736Y-55019264D01*
X147453756Y-54931557D01*
X147419571Y-54867601D01*
X147400272Y-54831495D01*
X147394891Y-54813756D01*
X147367334Y-54722916D01*
X147356213Y-54610000D01*
X147367334Y-54497084D01*
X147400271Y-54388508D01*
X147400272Y-54388505D01*
X147419571Y-54352399D01*
X147453756Y-54288443D01*
X147525736Y-54200736D01*
X147613443Y-54128756D01*
X147677399Y-54094571D01*
X147713505Y-54075272D01*
X147713508Y-54075271D01*
X147822084Y-54042334D01*
X147906702Y-54034000D01*
X148413298Y-54034000D01*
X148497916Y-54042334D01*
X148497916Y-54042334D01*
G37*
G36*
X113146001Y-55186000D02*
G01*
X112981661Y-55186000D01*
X112957275Y-55188402D01*
X112933826Y-55195515D01*
X112912215Y-55207066D01*
X112893273Y-55222611D01*
X112877728Y-55241553D01*
X112866177Y-55263164D01*
X112859064Y-55286613D01*
X112856662Y-55310999D01*
X112859064Y-55335385D01*
X112866177Y-55358834D01*
X112877728Y-55380445D01*
X112893273Y-55399387D01*
X112902346Y-55407609D01*
X112979265Y-55470736D01*
X113051245Y-55558443D01*
X113085430Y-55622399D01*
X113104729Y-55658505D01*
X113104730Y-55658508D01*
X113137667Y-55767084D01*
X113148788Y-55880000D01*
X113137667Y-55992916D01*
X113114807Y-56068272D01*
X113104729Y-56101495D01*
X113088277Y-56132274D01*
X113051245Y-56201557D01*
X112979265Y-56289264D01*
X112891558Y-56361244D01*
X112837614Y-56390077D01*
X112810142Y-56404761D01*
X112789767Y-56418375D01*
X112772440Y-56435702D01*
X112758827Y-56456076D01*
X112749449Y-56478715D01*
X112744669Y-56502748D01*
X112744669Y-56527252D01*
X112749449Y-56551285D01*
X112758827Y-56573924D01*
X112772441Y-56594299D01*
X112789768Y-56611626D01*
X112810142Y-56625239D01*
X112891558Y-56668756D01*
X112979265Y-56740736D01*
X113051245Y-56828443D01*
X113085430Y-56892399D01*
X113104729Y-56928505D01*
X113104730Y-56928508D01*
X113137667Y-57037084D01*
X113148788Y-57150000D01*
X113137667Y-57262916D01*
X113104730Y-57371492D01*
X113104729Y-57371495D01*
X113085430Y-57407601D01*
X113051245Y-57471557D01*
X112979265Y-57559264D01*
X112891558Y-57631244D01*
X112827602Y-57665429D01*
X112791496Y-57684728D01*
X112791493Y-57684729D01*
X112682917Y-57717666D01*
X112598299Y-57726000D01*
X112091703Y-57726000D01*
X112007085Y-57717666D01*
X111898509Y-57684729D01*
X111898506Y-57684728D01*
X111862400Y-57665429D01*
X111798444Y-57631244D01*
X111710737Y-57559264D01*
X111638757Y-57471557D01*
X111604572Y-57407601D01*
X111585273Y-57371495D01*
X111585272Y-57371492D01*
X111552335Y-57262916D01*
X111541214Y-57150000D01*
X111552335Y-57037084D01*
X111585272Y-56928508D01*
X111585273Y-56928505D01*
X111604572Y-56892399D01*
X111638757Y-56828443D01*
X111710737Y-56740736D01*
X111798444Y-56668756D01*
X111879860Y-56625239D01*
X111900235Y-56611625D01*
X111917562Y-56594298D01*
X111931175Y-56573924D01*
X111940553Y-56551285D01*
X111945333Y-56527252D01*
X111945333Y-56502748D01*
X111940553Y-56478715D01*
X111931175Y-56456076D01*
X111917561Y-56435701D01*
X111900234Y-56418374D01*
X111879860Y-56404761D01*
X111852388Y-56390077D01*
X111798444Y-56361244D01*
X111710737Y-56289264D01*
X111638757Y-56201557D01*
X111601725Y-56132274D01*
X111585273Y-56101495D01*
X111575195Y-56068272D01*
X111552335Y-55992916D01*
X111541214Y-55880000D01*
X111552335Y-55767084D01*
X111585272Y-55658508D01*
X111585273Y-55658505D01*
X111604572Y-55622399D01*
X111638757Y-55558443D01*
X111710737Y-55470736D01*
X111787647Y-55407617D01*
X111804966Y-55390298D01*
X111818580Y-55369923D01*
X111827958Y-55347284D01*
X111832738Y-55323251D01*
X111832738Y-55298747D01*
X111827958Y-55274714D01*
X111818580Y-55252075D01*
X111804967Y-55231701D01*
X111787640Y-55214374D01*
X111767265Y-55200760D01*
X111744626Y-55191382D01*
X111720593Y-55186602D01*
X111708341Y-55186000D01*
X111544001Y-55186000D01*
X111544001Y-54034000D01*
X113146001Y-54034000D01*
X113146001Y-55186000D01*
X113146001Y-55186000D01*
G37*
G36*
X130132916Y-54727334D02*
G01*
X130241492Y-54760271D01*
X130241495Y-54760272D01*
X130277601Y-54779571D01*
X130341557Y-54813756D01*
X130429264Y-54885736D01*
X130492383Y-54962646D01*
X130509702Y-54979965D01*
X130530077Y-54993579D01*
X130552716Y-55002957D01*
X130576749Y-55007737D01*
X130601253Y-55007737D01*
X130625286Y-55002957D01*
X130647925Y-54993579D01*
X130668299Y-54979966D01*
X130685626Y-54962639D01*
X130699240Y-54942264D01*
X130708618Y-54919625D01*
X130713398Y-54895592D01*
X130714000Y-54883340D01*
X130714000Y-54719000D01*
X131866000Y-54719000D01*
X131866000Y-56321000D01*
X130714000Y-56321000D01*
X130714000Y-56156660D01*
X130711598Y-56132274D01*
X130704485Y-56108825D01*
X130692934Y-56087214D01*
X130677389Y-56068272D01*
X130658447Y-56052727D01*
X130636836Y-56041176D01*
X130613387Y-56034063D01*
X130589001Y-56031661D01*
X130564615Y-56034063D01*
X130541166Y-56041176D01*
X130519555Y-56052727D01*
X130492381Y-56077356D01*
X130429264Y-56154264D01*
X130341556Y-56226244D01*
X130277600Y-56260429D01*
X130241494Y-56279728D01*
X130241491Y-56279729D01*
X130132915Y-56312666D01*
X130020000Y-56323787D01*
X129907084Y-56312666D01*
X129798508Y-56279729D01*
X129798505Y-56279728D01*
X129762399Y-56260429D01*
X129698443Y-56226244D01*
X129610736Y-56154264D01*
X129538756Y-56066556D01*
X129495239Y-55985140D01*
X129481625Y-55964766D01*
X129464298Y-55947439D01*
X129443924Y-55933825D01*
X129421285Y-55924448D01*
X129397251Y-55919668D01*
X129372747Y-55919668D01*
X129348714Y-55924449D01*
X129326075Y-55933826D01*
X129305701Y-55947440D01*
X129288374Y-55964767D01*
X129274762Y-55985140D01*
X129231244Y-56066557D01*
X129159264Y-56154264D01*
X129071556Y-56226244D01*
X129007600Y-56260429D01*
X128971494Y-56279728D01*
X128971491Y-56279729D01*
X128862915Y-56312666D01*
X128750000Y-56323787D01*
X128637084Y-56312666D01*
X128528508Y-56279729D01*
X128528505Y-56279728D01*
X128492399Y-56260429D01*
X128428443Y-56226244D01*
X128340736Y-56154264D01*
X128268756Y-56066556D01*
X128225239Y-55985140D01*
X128215272Y-55966494D01*
X128209492Y-55947440D01*
X128182334Y-55857915D01*
X128174000Y-55773297D01*
X128174000Y-55266702D01*
X128182334Y-55182084D01*
X128215271Y-55073508D01*
X128215272Y-55073505D01*
X128268756Y-54973445D01*
X128268757Y-54973443D01*
X128340737Y-54885736D01*
X128428444Y-54813756D01*
X128492400Y-54779571D01*
X128528506Y-54760272D01*
X128528509Y-54760271D01*
X128637085Y-54727334D01*
X128750000Y-54716213D01*
X128862916Y-54727334D01*
X128971492Y-54760271D01*
X128971495Y-54760272D01*
X129007601Y-54779571D01*
X129071557Y-54813756D01*
X129159264Y-54885736D01*
X129231244Y-54973443D01*
X129247019Y-55002957D01*
X129274761Y-55054859D01*
X129288375Y-55075234D01*
X129305702Y-55092561D01*
X129326076Y-55106174D01*
X129348715Y-55115552D01*
X129372748Y-55120332D01*
X129397252Y-55120332D01*
X129421285Y-55115552D01*
X129443924Y-55106174D01*
X129464299Y-55092560D01*
X129481626Y-55075233D01*
X129495239Y-55054859D01*
X129538756Y-54973445D01*
X129538757Y-54973443D01*
X129610737Y-54885736D01*
X129698444Y-54813756D01*
X129762400Y-54779571D01*
X129798506Y-54760272D01*
X129798509Y-54760271D01*
X129907085Y-54727334D01*
X130020000Y-54716213D01*
X130132916Y-54727334D01*
X130132916Y-54727334D01*
G37*
G36*
X126458228Y-48711703D02*
G01*
X126613100Y-48775853D01*
X126752481Y-48868985D01*
X126871015Y-48987519D01*
X126964147Y-49126900D01*
X127028297Y-49281772D01*
X127061000Y-49446184D01*
X127061000Y-49613816D01*
X127028297Y-49778228D01*
X126964147Y-49933100D01*
X126871015Y-50072481D01*
X126752481Y-50191015D01*
X126613100Y-50284147D01*
X126458228Y-50348297D01*
X126293816Y-50381000D01*
X126126184Y-50381000D01*
X125961772Y-50348297D01*
X125806900Y-50284147D01*
X125667519Y-50191015D01*
X125548985Y-50072481D01*
X125455853Y-49933100D01*
X125391703Y-49778228D01*
X125359000Y-49613816D01*
X125359000Y-49446184D01*
X125391703Y-49281772D01*
X125455853Y-49126900D01*
X125548985Y-48987519D01*
X125667519Y-48868985D01*
X125806900Y-48775853D01*
X125961772Y-48711703D01*
X126126184Y-48679000D01*
X126293816Y-48679000D01*
X126458228Y-48711703D01*
X126458228Y-48711703D01*
G37*
G36*
X133996823Y-48691313D02*
G01*
X134157242Y-48739976D01*
X134224361Y-48775852D01*
X134305078Y-48818996D01*
X134434659Y-48925341D01*
X134541004Y-49054922D01*
X134541005Y-49054924D01*
X134620024Y-49202758D01*
X134668687Y-49363177D01*
X134685117Y-49530000D01*
X134668687Y-49696823D01*
X134620024Y-49857242D01*
X134579477Y-49933100D01*
X134541004Y-50005078D01*
X134434659Y-50134659D01*
X134305078Y-50241004D01*
X134305076Y-50241005D01*
X134157242Y-50320024D01*
X133996823Y-50368687D01*
X133871804Y-50381000D01*
X133788196Y-50381000D01*
X133663177Y-50368687D01*
X133502758Y-50320024D01*
X133354924Y-50241005D01*
X133354922Y-50241004D01*
X133225341Y-50134659D01*
X133118996Y-50005078D01*
X133080523Y-49933100D01*
X133039976Y-49857242D01*
X132991313Y-49696823D01*
X132974883Y-49530000D01*
X132991313Y-49363177D01*
X133039976Y-49202758D01*
X133118995Y-49054924D01*
X133118996Y-49054922D01*
X133225341Y-48925341D01*
X133354922Y-48818996D01*
X133435639Y-48775852D01*
X133502758Y-48739976D01*
X133663177Y-48691313D01*
X133788196Y-48679000D01*
X133871804Y-48679000D01*
X133996823Y-48691313D01*
X133996823Y-48691313D01*
G37*
G36*
X144238228Y-48711703D02*
G01*
X144393100Y-48775853D01*
X144532481Y-48868985D01*
X144651015Y-48987519D01*
X144744147Y-49126900D01*
X144808297Y-49281772D01*
X144841000Y-49446184D01*
X144841000Y-49613816D01*
X144808297Y-49778228D01*
X144744147Y-49933100D01*
X144651015Y-50072481D01*
X144532481Y-50191015D01*
X144393100Y-50284147D01*
X144238228Y-50348297D01*
X144073816Y-50381000D01*
X143906184Y-50381000D01*
X143741772Y-50348297D01*
X143586900Y-50284147D01*
X143447519Y-50191015D01*
X143328985Y-50072481D01*
X143235853Y-49933100D01*
X143171703Y-49778228D01*
X143139000Y-49613816D01*
X143139000Y-49446184D01*
X143171703Y-49281772D01*
X143235853Y-49126900D01*
X143328985Y-48987519D01*
X143447519Y-48868985D01*
X143586900Y-48775853D01*
X143741772Y-48711703D01*
X143906184Y-48679000D01*
X144073816Y-48679000D01*
X144238228Y-48711703D01*
X144238228Y-48711703D01*
G37*
G36*
X151776823Y-48691313D02*
G01*
X151937242Y-48739976D01*
X152004361Y-48775852D01*
X152085078Y-48818996D01*
X152214659Y-48925341D01*
X152321004Y-49054922D01*
X152321005Y-49054924D01*
X152400024Y-49202758D01*
X152448687Y-49363177D01*
X152465117Y-49530000D01*
X152448687Y-49696823D01*
X152400024Y-49857242D01*
X152359477Y-49933100D01*
X152321004Y-50005078D01*
X152214659Y-50134659D01*
X152085078Y-50241004D01*
X152085076Y-50241005D01*
X151937242Y-50320024D01*
X151776823Y-50368687D01*
X151651804Y-50381000D01*
X151568196Y-50381000D01*
X151443177Y-50368687D01*
X151282758Y-50320024D01*
X151134924Y-50241005D01*
X151134922Y-50241004D01*
X151005341Y-50134659D01*
X150898996Y-50005078D01*
X150860523Y-49933100D01*
X150819976Y-49857242D01*
X150771313Y-49696823D01*
X150754883Y-49530000D01*
X150771313Y-49363177D01*
X150819976Y-49202758D01*
X150898995Y-49054924D01*
X150898996Y-49054922D01*
X151005341Y-48925341D01*
X151134922Y-48818996D01*
X151215639Y-48775852D01*
X151282758Y-48739976D01*
X151443177Y-48691313D01*
X151568196Y-48679000D01*
X151651804Y-48679000D01*
X151776823Y-48691313D01*
X151776823Y-48691313D01*
G37*
G36*
X116763229Y-48711703D02*
G01*
X116918101Y-48775853D01*
X117057482Y-48868985D01*
X117176016Y-48987519D01*
X117269148Y-49126900D01*
X117333298Y-49281772D01*
X117366001Y-49446184D01*
X117366001Y-49613816D01*
X117333298Y-49778228D01*
X117269148Y-49933100D01*
X117176016Y-50072481D01*
X117057482Y-50191015D01*
X116918101Y-50284147D01*
X116763229Y-50348297D01*
X116598817Y-50381000D01*
X116431185Y-50381000D01*
X116266773Y-50348297D01*
X116111901Y-50284147D01*
X115972520Y-50191015D01*
X115853986Y-50072481D01*
X115760854Y-49933100D01*
X115696704Y-49778228D01*
X115664001Y-49613816D01*
X115664001Y-49446184D01*
X115696704Y-49281772D01*
X115760854Y-49126900D01*
X115853986Y-48987519D01*
X115972520Y-48868985D01*
X116111901Y-48775853D01*
X116266773Y-48711703D01*
X116431185Y-48679000D01*
X116598817Y-48679000D01*
X116763229Y-48711703D01*
X116763229Y-48711703D01*
G37*
G36*
X109061824Y-48691313D02*
G01*
X109222243Y-48739976D01*
X109289362Y-48775852D01*
X109370079Y-48818996D01*
X109499660Y-48925341D01*
X109606005Y-49054922D01*
X109606006Y-49054924D01*
X109685025Y-49202758D01*
X109733688Y-49363177D01*
X109750118Y-49530000D01*
X109733688Y-49696823D01*
X109685025Y-49857242D01*
X109644478Y-49933100D01*
X109606005Y-50005078D01*
X109499660Y-50134659D01*
X109370079Y-50241004D01*
X109370077Y-50241005D01*
X109222243Y-50320024D01*
X109061824Y-50368687D01*
X108936805Y-50381000D01*
X108853197Y-50381000D01*
X108728178Y-50368687D01*
X108567759Y-50320024D01*
X108419925Y-50241005D01*
X108419923Y-50241004D01*
X108290342Y-50134659D01*
X108183997Y-50005078D01*
X108145524Y-49933100D01*
X108104977Y-49857242D01*
X108056314Y-49696823D01*
X108039884Y-49530000D01*
X108056314Y-49363177D01*
X108104977Y-49202758D01*
X108183996Y-49054924D01*
X108183997Y-49054922D01*
X108290342Y-48925341D01*
X108419923Y-48818996D01*
X108500640Y-48775852D01*
X108567759Y-48739976D01*
X108728178Y-48691313D01*
X108853197Y-48679000D01*
X108936805Y-48679000D01*
X109061824Y-48691313D01*
X109061824Y-48691313D01*
G37*
M02*
