G04 #@! TF.GenerationSoftware,KiCad,Pcbnew,5.1.4-e60b266~84~ubuntu19.04.1*
G04 #@! TF.CreationDate,2019-09-02T11:32:23+02:00*
G04 #@! TF.ProjectId,PixelSlasher,50697865-6c53-46c6-9173-6865722e6b69,1.0.1*
G04 #@! TF.SameCoordinates,Original*
G04 #@! TF.FileFunction,Legend,Top*
G04 #@! TF.FilePolarity,Positive*
%FSLAX46Y46*%
G04 Gerber Fmt 4.6, Leading zero omitted, Abs format (unit mm)*
G04 Created by KiCad (PCBNEW 5.1.4-e60b266~84~ubuntu19.04.1) date 2019-09-02 11:32:23*
%MOMM*%
%LPD*%
G04 APERTURE LIST*
%ADD10C,0.100000*%
%ADD11C,0.150000*%
%ADD12C,0.400000*%
%ADD13C,0.010000*%
%ADD14C,0.120000*%
G04 APERTURE END LIST*
D10*
X106509285Y-41612845D02*
X106152142Y-41612845D01*
X106152142Y-40862845D01*
X106759285Y-41612845D02*
X106759285Y-41112845D01*
X106759285Y-40862845D02*
X106723571Y-40898560D01*
X106759285Y-40934274D01*
X106795000Y-40898560D01*
X106759285Y-40862845D01*
X106759285Y-40934274D01*
X107437857Y-41577131D02*
X107366428Y-41612845D01*
X107223571Y-41612845D01*
X107152142Y-41577131D01*
X107116428Y-41541417D01*
X107080714Y-41469988D01*
X107080714Y-41255702D01*
X107116428Y-41184274D01*
X107152142Y-41148560D01*
X107223571Y-41112845D01*
X107366428Y-41112845D01*
X107437857Y-41148560D01*
X108045000Y-41577131D02*
X107973571Y-41612845D01*
X107830714Y-41612845D01*
X107759285Y-41577131D01*
X107723571Y-41505702D01*
X107723571Y-41219988D01*
X107759285Y-41148560D01*
X107830714Y-41112845D01*
X107973571Y-41112845D01*
X108045000Y-41148560D01*
X108080714Y-41219988D01*
X108080714Y-41291417D01*
X107723571Y-41362845D01*
X108402142Y-41112845D02*
X108402142Y-41612845D01*
X108402142Y-41184274D02*
X108437857Y-41148560D01*
X108509285Y-41112845D01*
X108616428Y-41112845D01*
X108687857Y-41148560D01*
X108723571Y-41219988D01*
X108723571Y-41612845D01*
X109045000Y-41577131D02*
X109116428Y-41612845D01*
X109259285Y-41612845D01*
X109330714Y-41577131D01*
X109366428Y-41505702D01*
X109366428Y-41469988D01*
X109330714Y-41398560D01*
X109259285Y-41362845D01*
X109152142Y-41362845D01*
X109080714Y-41327131D01*
X109045000Y-41255702D01*
X109045000Y-41219988D01*
X109080714Y-41148560D01*
X109152142Y-41112845D01*
X109259285Y-41112845D01*
X109330714Y-41148560D01*
X109973571Y-41577131D02*
X109902142Y-41612845D01*
X109759285Y-41612845D01*
X109687857Y-41577131D01*
X109652142Y-41505702D01*
X109652142Y-41219988D01*
X109687857Y-41148560D01*
X109759285Y-41112845D01*
X109902142Y-41112845D01*
X109973571Y-41148560D01*
X110009285Y-41219988D01*
X110009285Y-41291417D01*
X109652142Y-41362845D01*
X110652142Y-41612845D02*
X110652142Y-40862845D01*
X110652142Y-41577131D02*
X110580714Y-41612845D01*
X110437857Y-41612845D01*
X110366428Y-41577131D01*
X110330714Y-41541417D01*
X110295000Y-41469988D01*
X110295000Y-41255702D01*
X110330714Y-41184274D01*
X110366428Y-41148560D01*
X110437857Y-41112845D01*
X110580714Y-41112845D01*
X110652142Y-41148560D01*
X111902142Y-41112845D02*
X111902142Y-41612845D01*
X111580714Y-41112845D02*
X111580714Y-41505702D01*
X111616428Y-41577131D01*
X111687857Y-41612845D01*
X111795000Y-41612845D01*
X111866428Y-41577131D01*
X111902142Y-41541417D01*
X112259285Y-41112845D02*
X112259285Y-41612845D01*
X112259285Y-41184274D02*
X112295000Y-41148560D01*
X112366428Y-41112845D01*
X112473571Y-41112845D01*
X112545000Y-41148560D01*
X112580714Y-41219988D01*
X112580714Y-41612845D01*
X113259285Y-41612845D02*
X113259285Y-40862845D01*
X113259285Y-41577131D02*
X113187857Y-41612845D01*
X113045000Y-41612845D01*
X112973571Y-41577131D01*
X112937857Y-41541417D01*
X112902142Y-41469988D01*
X112902142Y-41255702D01*
X112937857Y-41184274D01*
X112973571Y-41148560D01*
X113045000Y-41112845D01*
X113187857Y-41112845D01*
X113259285Y-41148560D01*
X113902142Y-41577131D02*
X113830714Y-41612845D01*
X113687857Y-41612845D01*
X113616428Y-41577131D01*
X113580714Y-41505702D01*
X113580714Y-41219988D01*
X113616428Y-41148560D01*
X113687857Y-41112845D01*
X113830714Y-41112845D01*
X113902142Y-41148560D01*
X113937857Y-41219988D01*
X113937857Y-41291417D01*
X113580714Y-41362845D01*
X114259285Y-41612845D02*
X114259285Y-41112845D01*
X114259285Y-41255702D02*
X114295000Y-41184274D01*
X114330714Y-41148560D01*
X114402142Y-41112845D01*
X114473571Y-41112845D01*
X115187857Y-41112845D02*
X115473571Y-41112845D01*
X115295000Y-40862845D02*
X115295000Y-41505702D01*
X115330714Y-41577131D01*
X115402142Y-41612845D01*
X115473571Y-41612845D01*
X115723571Y-41612845D02*
X115723571Y-40862845D01*
X116045000Y-41612845D02*
X116045000Y-41219988D01*
X116009285Y-41148560D01*
X115937857Y-41112845D01*
X115830714Y-41112845D01*
X115759285Y-41148560D01*
X115723571Y-41184274D01*
X116687857Y-41577131D02*
X116616428Y-41612845D01*
X116473571Y-41612845D01*
X116402142Y-41577131D01*
X116366428Y-41505702D01*
X116366428Y-41219988D01*
X116402142Y-41148560D01*
X116473571Y-41112845D01*
X116616428Y-41112845D01*
X116687857Y-41148560D01*
X116723571Y-41219988D01*
X116723571Y-41291417D01*
X116366428Y-41362845D01*
X105580714Y-42087845D02*
X106009285Y-42087845D01*
X105795000Y-42837845D02*
X105795000Y-42087845D01*
X106223571Y-42623560D02*
X106580714Y-42623560D01*
X106152142Y-42837845D02*
X106402142Y-42087845D01*
X106652142Y-42837845D01*
X106902142Y-42837845D02*
X106902142Y-42087845D01*
X107187857Y-42087845D01*
X107259285Y-42123560D01*
X107295000Y-42159274D01*
X107330714Y-42230702D01*
X107330714Y-42337845D01*
X107295000Y-42409274D01*
X107259285Y-42444988D01*
X107187857Y-42480702D01*
X106902142Y-42480702D01*
X108080714Y-42837845D02*
X107830714Y-42480702D01*
X107652142Y-42837845D02*
X107652142Y-42087845D01*
X107937857Y-42087845D01*
X108009285Y-42123560D01*
X108045000Y-42159274D01*
X108080714Y-42230702D01*
X108080714Y-42337845D01*
X108045000Y-42409274D01*
X108009285Y-42444988D01*
X107937857Y-42480702D01*
X107652142Y-42480702D01*
X109116428Y-42087845D02*
X109259285Y-42087845D01*
X109330714Y-42123560D01*
X109402142Y-42194988D01*
X109437857Y-42337845D01*
X109437857Y-42587845D01*
X109402142Y-42730702D01*
X109330714Y-42802131D01*
X109259285Y-42837845D01*
X109116428Y-42837845D01*
X109045000Y-42802131D01*
X108973571Y-42730702D01*
X108937857Y-42587845D01*
X108937857Y-42337845D01*
X108973571Y-42194988D01*
X109045000Y-42123560D01*
X109116428Y-42087845D01*
X109759285Y-42337845D02*
X109759285Y-43087845D01*
X109759285Y-42373560D02*
X109830714Y-42337845D01*
X109973571Y-42337845D01*
X110045000Y-42373560D01*
X110080714Y-42409274D01*
X110116428Y-42480702D01*
X110116428Y-42694988D01*
X110080714Y-42766417D01*
X110045000Y-42802131D01*
X109973571Y-42837845D01*
X109830714Y-42837845D01*
X109759285Y-42802131D01*
X110723571Y-42802131D02*
X110652142Y-42837845D01*
X110509285Y-42837845D01*
X110437857Y-42802131D01*
X110402142Y-42730702D01*
X110402142Y-42444988D01*
X110437857Y-42373560D01*
X110509285Y-42337845D01*
X110652142Y-42337845D01*
X110723571Y-42373560D01*
X110759285Y-42444988D01*
X110759285Y-42516417D01*
X110402142Y-42587845D01*
X111080714Y-42337845D02*
X111080714Y-42837845D01*
X111080714Y-42409274D02*
X111116428Y-42373560D01*
X111187857Y-42337845D01*
X111295000Y-42337845D01*
X111366428Y-42373560D01*
X111402142Y-42444988D01*
X111402142Y-42837845D01*
X112330714Y-42837845D02*
X112330714Y-42087845D01*
X112330714Y-42444988D02*
X112759285Y-42444988D01*
X112759285Y-42837845D02*
X112759285Y-42087845D01*
X113437857Y-42837845D02*
X113437857Y-42444988D01*
X113402142Y-42373560D01*
X113330714Y-42337845D01*
X113187857Y-42337845D01*
X113116428Y-42373560D01*
X113437857Y-42802131D02*
X113366428Y-42837845D01*
X113187857Y-42837845D01*
X113116428Y-42802131D01*
X113080714Y-42730702D01*
X113080714Y-42659274D01*
X113116428Y-42587845D01*
X113187857Y-42552131D01*
X113366428Y-42552131D01*
X113437857Y-42516417D01*
X113795000Y-42837845D02*
X113795000Y-42337845D01*
X113795000Y-42480702D02*
X113830714Y-42409274D01*
X113866428Y-42373560D01*
X113937857Y-42337845D01*
X114009285Y-42337845D01*
X114580714Y-42837845D02*
X114580714Y-42087845D01*
X114580714Y-42802131D02*
X114509285Y-42837845D01*
X114366428Y-42837845D01*
X114295000Y-42802131D01*
X114259285Y-42766417D01*
X114223571Y-42694988D01*
X114223571Y-42480702D01*
X114259285Y-42409274D01*
X114295000Y-42373560D01*
X114366428Y-42337845D01*
X114509285Y-42337845D01*
X114580714Y-42373560D01*
X114866428Y-42337845D02*
X115009285Y-42837845D01*
X115152142Y-42480702D01*
X115295000Y-42837845D01*
X115437857Y-42337845D01*
X116045000Y-42837845D02*
X116045000Y-42444988D01*
X116009285Y-42373560D01*
X115937857Y-42337845D01*
X115795000Y-42337845D01*
X115723571Y-42373560D01*
X116045000Y-42802131D02*
X115973571Y-42837845D01*
X115795000Y-42837845D01*
X115723571Y-42802131D01*
X115687857Y-42730702D01*
X115687857Y-42659274D01*
X115723571Y-42587845D01*
X115795000Y-42552131D01*
X115973571Y-42552131D01*
X116045000Y-42516417D01*
X116402142Y-42837845D02*
X116402142Y-42337845D01*
X116402142Y-42480702D02*
X116437857Y-42409274D01*
X116473571Y-42373560D01*
X116545000Y-42337845D01*
X116616428Y-42337845D01*
X117152142Y-42802131D02*
X117080714Y-42837845D01*
X116937857Y-42837845D01*
X116866428Y-42802131D01*
X116830714Y-42730702D01*
X116830714Y-42444988D01*
X116866428Y-42373560D01*
X116937857Y-42337845D01*
X117080714Y-42337845D01*
X117152142Y-42373560D01*
X117187857Y-42444988D01*
X117187857Y-42516417D01*
X116830714Y-42587845D01*
X108402142Y-44062845D02*
X108045000Y-44062845D01*
X108045000Y-43312845D01*
X108652142Y-44062845D02*
X108652142Y-43562845D01*
X108652142Y-43312845D02*
X108616428Y-43348560D01*
X108652142Y-43384274D01*
X108687857Y-43348560D01*
X108652142Y-43312845D01*
X108652142Y-43384274D01*
X109330714Y-44027131D02*
X109259285Y-44062845D01*
X109116428Y-44062845D01*
X109045000Y-44027131D01*
X109009285Y-43991417D01*
X108973571Y-43919988D01*
X108973571Y-43705702D01*
X109009285Y-43634274D01*
X109045000Y-43598560D01*
X109116428Y-43562845D01*
X109259285Y-43562845D01*
X109330714Y-43598560D01*
X109937857Y-44027131D02*
X109866428Y-44062845D01*
X109723571Y-44062845D01*
X109652142Y-44027131D01*
X109616428Y-43955702D01*
X109616428Y-43669988D01*
X109652142Y-43598560D01*
X109723571Y-43562845D01*
X109866428Y-43562845D01*
X109937857Y-43598560D01*
X109973571Y-43669988D01*
X109973571Y-43741417D01*
X109616428Y-43812845D01*
X110295000Y-43562845D02*
X110295000Y-44062845D01*
X110295000Y-43634274D02*
X110330714Y-43598560D01*
X110402142Y-43562845D01*
X110509285Y-43562845D01*
X110580714Y-43598560D01*
X110616428Y-43669988D01*
X110616428Y-44062845D01*
X110937857Y-44027131D02*
X111009285Y-44062845D01*
X111152142Y-44062845D01*
X111223571Y-44027131D01*
X111259285Y-43955702D01*
X111259285Y-43919988D01*
X111223571Y-43848560D01*
X111152142Y-43812845D01*
X111045000Y-43812845D01*
X110973571Y-43777131D01*
X110937857Y-43705702D01*
X110937857Y-43669988D01*
X110973571Y-43598560D01*
X111045000Y-43562845D01*
X111152142Y-43562845D01*
X111223571Y-43598560D01*
X111866428Y-44027131D02*
X111795000Y-44062845D01*
X111652142Y-44062845D01*
X111580714Y-44027131D01*
X111545000Y-43955702D01*
X111545000Y-43669988D01*
X111580714Y-43598560D01*
X111652142Y-43562845D01*
X111795000Y-43562845D01*
X111866428Y-43598560D01*
X111902142Y-43669988D01*
X111902142Y-43741417D01*
X111545000Y-43812845D01*
X112723571Y-43562845D02*
X112902142Y-44062845D01*
X113080714Y-43562845D01*
X113759285Y-44062845D02*
X113330714Y-44062845D01*
X113545000Y-44062845D02*
X113545000Y-43312845D01*
X113473571Y-43419988D01*
X113402142Y-43491417D01*
X113330714Y-43527131D01*
X114080714Y-43991417D02*
X114116428Y-44027131D01*
X114080714Y-44062845D01*
X114045000Y-44027131D01*
X114080714Y-43991417D01*
X114080714Y-44062845D01*
X114580714Y-43312845D02*
X114652142Y-43312845D01*
X114723571Y-43348560D01*
X114759285Y-43384274D01*
X114795000Y-43455702D01*
X114830714Y-43598560D01*
X114830714Y-43777131D01*
X114795000Y-43919988D01*
X114759285Y-43991417D01*
X114723571Y-44027131D01*
X114652142Y-44062845D01*
X114580714Y-44062845D01*
X114509285Y-44027131D01*
X114473571Y-43991417D01*
X114437857Y-43919988D01*
X114402142Y-43777131D01*
X114402142Y-43598560D01*
X114437857Y-43455702D01*
X114473571Y-43384274D01*
X114509285Y-43348560D01*
X114580714Y-43312845D01*
X128231800Y-42640445D02*
X128231800Y-42140445D01*
X128231800Y-42283302D02*
X128267514Y-42211874D01*
X128303228Y-42176160D01*
X128374657Y-42140445D01*
X128446085Y-42140445D01*
X128981800Y-42604731D02*
X128910371Y-42640445D01*
X128767514Y-42640445D01*
X128696085Y-42604731D01*
X128660371Y-42533302D01*
X128660371Y-42247588D01*
X128696085Y-42176160D01*
X128767514Y-42140445D01*
X128910371Y-42140445D01*
X128981800Y-42176160D01*
X129017514Y-42247588D01*
X129017514Y-42319017D01*
X128660371Y-42390445D01*
X129267514Y-42140445D02*
X129446085Y-42640445D01*
X129624657Y-42140445D01*
X130874657Y-42640445D02*
X130446085Y-42640445D01*
X130660371Y-42640445D02*
X130660371Y-41890445D01*
X130588942Y-41997588D01*
X130517514Y-42069017D01*
X130446085Y-42104731D01*
X131196085Y-42569017D02*
X131231800Y-42604731D01*
X131196085Y-42640445D01*
X131160371Y-42604731D01*
X131196085Y-42569017D01*
X131196085Y-42640445D01*
X131696085Y-41890445D02*
X131767514Y-41890445D01*
X131838942Y-41926160D01*
X131874657Y-41961874D01*
X131910371Y-42033302D01*
X131946085Y-42176160D01*
X131946085Y-42354731D01*
X131910371Y-42497588D01*
X131874657Y-42569017D01*
X131838942Y-42604731D01*
X131767514Y-42640445D01*
X131696085Y-42640445D01*
X131624657Y-42604731D01*
X131588942Y-42569017D01*
X131553228Y-42497588D01*
X131517514Y-42354731D01*
X131517514Y-42176160D01*
X131553228Y-42033302D01*
X131588942Y-41961874D01*
X131624657Y-41926160D01*
X131696085Y-41890445D01*
X132267514Y-42569017D02*
X132303228Y-42604731D01*
X132267514Y-42640445D01*
X132231800Y-42604731D01*
X132267514Y-42569017D01*
X132267514Y-42640445D01*
X133017514Y-42640445D02*
X132588942Y-42640445D01*
X132803228Y-42640445D02*
X132803228Y-41890445D01*
X132731800Y-41997588D01*
X132660371Y-42069017D01*
X132588942Y-42104731D01*
X119691765Y-43669988D02*
X119798908Y-43705702D01*
X119834622Y-43741417D01*
X119870337Y-43812845D01*
X119870337Y-43919988D01*
X119834622Y-43991417D01*
X119798908Y-44027131D01*
X119727480Y-44062845D01*
X119441765Y-44062845D01*
X119441765Y-43312845D01*
X119691765Y-43312845D01*
X119763194Y-43348560D01*
X119798908Y-43384274D01*
X119834622Y-43455702D01*
X119834622Y-43527131D01*
X119798908Y-43598560D01*
X119763194Y-43634274D01*
X119691765Y-43669988D01*
X119441765Y-43669988D01*
X120120337Y-43562845D02*
X120298908Y-44062845D01*
X120477480Y-43562845D02*
X120298908Y-44062845D01*
X120227480Y-44241417D01*
X120191765Y-44277131D01*
X120120337Y-44312845D01*
X121334622Y-44062845D02*
X121334622Y-43312845D01*
X121620337Y-43312845D01*
X121691765Y-43348560D01*
X121727480Y-43384274D01*
X121763194Y-43455702D01*
X121763194Y-43562845D01*
X121727480Y-43634274D01*
X121691765Y-43669988D01*
X121620337Y-43705702D01*
X121334622Y-43705702D01*
X122406051Y-44062845D02*
X122406051Y-43669988D01*
X122370337Y-43598560D01*
X122298908Y-43562845D01*
X122156051Y-43562845D01*
X122084622Y-43598560D01*
X122406051Y-44027131D02*
X122334622Y-44062845D01*
X122156051Y-44062845D01*
X122084622Y-44027131D01*
X122048908Y-43955702D01*
X122048908Y-43884274D01*
X122084622Y-43812845D01*
X122156051Y-43777131D01*
X122334622Y-43777131D01*
X122406051Y-43741417D01*
X122656051Y-43562845D02*
X122941765Y-43562845D01*
X122763194Y-43312845D02*
X122763194Y-43955702D01*
X122798908Y-44027131D01*
X122870337Y-44062845D01*
X122941765Y-44062845D01*
X123191765Y-44062845D02*
X123191765Y-43562845D01*
X123191765Y-43705702D02*
X123227480Y-43634274D01*
X123263194Y-43598560D01*
X123334622Y-43562845D01*
X123406051Y-43562845D01*
X123656051Y-44062845D02*
X123656051Y-43562845D01*
X123656051Y-43312845D02*
X123620337Y-43348560D01*
X123656051Y-43384274D01*
X123691765Y-43348560D01*
X123656051Y-43312845D01*
X123656051Y-43384274D01*
X124334622Y-44027131D02*
X124263194Y-44062845D01*
X124120337Y-44062845D01*
X124048908Y-44027131D01*
X124013194Y-43991417D01*
X123977480Y-43919988D01*
X123977480Y-43705702D01*
X124013194Y-43634274D01*
X124048908Y-43598560D01*
X124120337Y-43562845D01*
X124263194Y-43562845D01*
X124334622Y-43598560D01*
X124656051Y-44062845D02*
X124656051Y-43312845D01*
X124727480Y-43777131D02*
X124941765Y-44062845D01*
X124941765Y-43562845D02*
X124656051Y-43848560D01*
X125834622Y-44062845D02*
X125834622Y-43312845D01*
X126120337Y-43312845D01*
X126191765Y-43348560D01*
X126227480Y-43384274D01*
X126263194Y-43455702D01*
X126263194Y-43562845D01*
X126227480Y-43634274D01*
X126191765Y-43669988D01*
X126120337Y-43705702D01*
X125834622Y-43705702D01*
X126870337Y-44027131D02*
X126798908Y-44062845D01*
X126656051Y-44062845D01*
X126584622Y-44027131D01*
X126548908Y-43955702D01*
X126548908Y-43669988D01*
X126584622Y-43598560D01*
X126656051Y-43562845D01*
X126798908Y-43562845D01*
X126870337Y-43598560D01*
X126906051Y-43669988D01*
X126906051Y-43741417D01*
X126548908Y-43812845D01*
X127548908Y-44062845D02*
X127548908Y-43312845D01*
X127548908Y-44027131D02*
X127477480Y-44062845D01*
X127334622Y-44062845D01*
X127263194Y-44027131D01*
X127227480Y-43991417D01*
X127191765Y-43919988D01*
X127191765Y-43705702D01*
X127227480Y-43634274D01*
X127263194Y-43598560D01*
X127334622Y-43562845D01*
X127477480Y-43562845D01*
X127548908Y-43598560D01*
X128191765Y-44027131D02*
X128120337Y-44062845D01*
X127977480Y-44062845D01*
X127906051Y-44027131D01*
X127870337Y-43955702D01*
X127870337Y-43669988D01*
X127906051Y-43598560D01*
X127977480Y-43562845D01*
X128120337Y-43562845D01*
X128191765Y-43598560D01*
X128227480Y-43669988D01*
X128227480Y-43741417D01*
X127870337Y-43812845D01*
X128548908Y-44062845D02*
X128548908Y-43562845D01*
X128548908Y-43705702D02*
X128584622Y-43634274D01*
X128620337Y-43598560D01*
X128691765Y-43562845D01*
X128763194Y-43562845D01*
X128977480Y-44027131D02*
X129048908Y-44062845D01*
X129191765Y-44062845D01*
X129263194Y-44027131D01*
X129298908Y-43955702D01*
X129298908Y-43919988D01*
X129263194Y-43848560D01*
X129191765Y-43812845D01*
X129084622Y-43812845D01*
X129013194Y-43777131D01*
X128977480Y-43705702D01*
X128977480Y-43669988D01*
X129013194Y-43598560D01*
X129084622Y-43562845D01*
X129191765Y-43562845D01*
X129263194Y-43598560D01*
X129906051Y-44027131D02*
X129834622Y-44062845D01*
X129691765Y-44062845D01*
X129620337Y-44027131D01*
X129584622Y-43955702D01*
X129584622Y-43669988D01*
X129620337Y-43598560D01*
X129691765Y-43562845D01*
X129834622Y-43562845D01*
X129906051Y-43598560D01*
X129941765Y-43669988D01*
X129941765Y-43741417D01*
X129584622Y-43812845D01*
X130263194Y-43562845D02*
X130263194Y-44062845D01*
X130263194Y-43634274D02*
X130298908Y-43598560D01*
X130370337Y-43562845D01*
X130477480Y-43562845D01*
X130548908Y-43598560D01*
X130584622Y-43669988D01*
X130584622Y-44062845D01*
X132084622Y-43562845D02*
X131513194Y-43777131D01*
X132084622Y-43991417D01*
X132763194Y-44027131D02*
X132691765Y-44062845D01*
X132548908Y-44062845D01*
X132477480Y-44027131D01*
X132441765Y-43991417D01*
X132406051Y-43919988D01*
X132406051Y-43705702D01*
X132441765Y-43634274D01*
X132477480Y-43598560D01*
X132548908Y-43562845D01*
X132691765Y-43562845D01*
X132763194Y-43598560D01*
X132977480Y-43562845D02*
X133263194Y-43562845D01*
X133084622Y-43312845D02*
X133084622Y-43955702D01*
X133120337Y-44027131D01*
X133191765Y-44062845D01*
X133263194Y-44062845D01*
X133441765Y-44062845D02*
X133834622Y-43562845D01*
X133441765Y-43562845D02*
X133834622Y-44062845D01*
X134120337Y-43991417D02*
X134156051Y-44027131D01*
X134120337Y-44062845D01*
X134084622Y-44027131D01*
X134120337Y-43991417D01*
X134120337Y-44062845D01*
X134406051Y-44062845D02*
X134798908Y-43562845D01*
X134406051Y-43562845D02*
X134798908Y-44062845D01*
X135406051Y-44062845D02*
X135406051Y-43312845D01*
X135406051Y-44027131D02*
X135334622Y-44062845D01*
X135191765Y-44062845D01*
X135120337Y-44027131D01*
X135084622Y-43991417D01*
X135048908Y-43919988D01*
X135048908Y-43705702D01*
X135084622Y-43634274D01*
X135120337Y-43598560D01*
X135191765Y-43562845D01*
X135334622Y-43562845D01*
X135406051Y-43598560D01*
X136084622Y-44062845D02*
X136084622Y-43669988D01*
X136048908Y-43598560D01*
X135977480Y-43562845D01*
X135834622Y-43562845D01*
X135763194Y-43598560D01*
X136084622Y-44027131D02*
X136013194Y-44062845D01*
X135834622Y-44062845D01*
X135763194Y-44027131D01*
X135727480Y-43955702D01*
X135727480Y-43884274D01*
X135763194Y-43812845D01*
X135834622Y-43777131D01*
X136013194Y-43777131D01*
X136084622Y-43741417D01*
X136906051Y-43705702D02*
X136870337Y-43669988D01*
X136798908Y-43634274D01*
X136727480Y-43634274D01*
X136656051Y-43669988D01*
X136620337Y-43705702D01*
X136584622Y-43777131D01*
X136584622Y-43848560D01*
X136620337Y-43919988D01*
X136656051Y-43955702D01*
X136727480Y-43991417D01*
X136798908Y-43991417D01*
X136870337Y-43955702D01*
X136906051Y-43919988D01*
X136906051Y-43634274D02*
X136906051Y-43919988D01*
X136941765Y-43955702D01*
X136977480Y-43955702D01*
X137048908Y-43919988D01*
X137084622Y-43848560D01*
X137084622Y-43669988D01*
X137013194Y-43562845D01*
X136906051Y-43491417D01*
X136763194Y-43455702D01*
X136620337Y-43491417D01*
X136513194Y-43562845D01*
X136441765Y-43669988D01*
X136406051Y-43812845D01*
X136441765Y-43955702D01*
X136513194Y-44062845D01*
X136620337Y-44134274D01*
X136763194Y-44169988D01*
X136906051Y-44134274D01*
X137013194Y-44062845D01*
X137727480Y-43562845D02*
X137727480Y-44169988D01*
X137691765Y-44241417D01*
X137656051Y-44277131D01*
X137584622Y-44312845D01*
X137477480Y-44312845D01*
X137406051Y-44277131D01*
X137727480Y-44027131D02*
X137656051Y-44062845D01*
X137513194Y-44062845D01*
X137441765Y-44027131D01*
X137406051Y-43991417D01*
X137370337Y-43919988D01*
X137370337Y-43705702D01*
X137406051Y-43634274D01*
X137441765Y-43598560D01*
X137513194Y-43562845D01*
X137656051Y-43562845D01*
X137727480Y-43598560D01*
X138084622Y-44062845D02*
X138084622Y-43562845D01*
X138084622Y-43634274D02*
X138120337Y-43598560D01*
X138191765Y-43562845D01*
X138298908Y-43562845D01*
X138370337Y-43598560D01*
X138406051Y-43669988D01*
X138406051Y-44062845D01*
X138406051Y-43669988D02*
X138441765Y-43598560D01*
X138513194Y-43562845D01*
X138620337Y-43562845D01*
X138691765Y-43598560D01*
X138727480Y-43669988D01*
X138727480Y-44062845D01*
X139406051Y-44062845D02*
X139406051Y-43669988D01*
X139370337Y-43598560D01*
X139298908Y-43562845D01*
X139156051Y-43562845D01*
X139084622Y-43598560D01*
X139406051Y-44027131D02*
X139334622Y-44062845D01*
X139156051Y-44062845D01*
X139084622Y-44027131D01*
X139048908Y-43955702D01*
X139048908Y-43884274D01*
X139084622Y-43812845D01*
X139156051Y-43777131D01*
X139334622Y-43777131D01*
X139406051Y-43741417D01*
X139763194Y-44062845D02*
X139763194Y-43562845D01*
X139763194Y-43312845D02*
X139727480Y-43348560D01*
X139763194Y-43384274D01*
X139798908Y-43348560D01*
X139763194Y-43312845D01*
X139763194Y-43384274D01*
X140227480Y-44062845D02*
X140156051Y-44027131D01*
X140120337Y-43955702D01*
X140120337Y-43312845D01*
X140513194Y-43991417D02*
X140548908Y-44027131D01*
X140513194Y-44062845D01*
X140477480Y-44027131D01*
X140513194Y-43991417D01*
X140513194Y-44062845D01*
X141191765Y-44027131D02*
X141120337Y-44062845D01*
X140977480Y-44062845D01*
X140906051Y-44027131D01*
X140870337Y-43991417D01*
X140834622Y-43919988D01*
X140834622Y-43705702D01*
X140870337Y-43634274D01*
X140906051Y-43598560D01*
X140977480Y-43562845D01*
X141120337Y-43562845D01*
X141191765Y-43598560D01*
X141620337Y-44062845D02*
X141548908Y-44027131D01*
X141513194Y-43991417D01*
X141477480Y-43919988D01*
X141477480Y-43705702D01*
X141513194Y-43634274D01*
X141548908Y-43598560D01*
X141620337Y-43562845D01*
X141727480Y-43562845D01*
X141798908Y-43598560D01*
X141834622Y-43634274D01*
X141870337Y-43705702D01*
X141870337Y-43919988D01*
X141834622Y-43991417D01*
X141798908Y-44027131D01*
X141727480Y-44062845D01*
X141620337Y-44062845D01*
X142191765Y-44062845D02*
X142191765Y-43562845D01*
X142191765Y-43634274D02*
X142227480Y-43598560D01*
X142298908Y-43562845D01*
X142406051Y-43562845D01*
X142477480Y-43598560D01*
X142513194Y-43669988D01*
X142513194Y-44062845D01*
X142513194Y-43669988D02*
X142548908Y-43598560D01*
X142620337Y-43562845D01*
X142727480Y-43562845D01*
X142798908Y-43598560D01*
X142834622Y-43669988D01*
X142834622Y-44062845D01*
X143191765Y-43562845D02*
X143763194Y-43777131D01*
X143191765Y-43991417D01*
D11*
X122666800Y-39314380D02*
X122666800Y-38314380D01*
X123428705Y-38314380D01*
X123619181Y-38362000D01*
X123714419Y-38409619D01*
X123809657Y-38504857D01*
X123809657Y-38647714D01*
X123714419Y-38742952D01*
X123619181Y-38790571D01*
X123428705Y-38838190D01*
X122666800Y-38838190D01*
X124666800Y-39314380D02*
X124666800Y-38314380D01*
X125428705Y-38314380D02*
X126762038Y-39314380D01*
X126762038Y-38314380D02*
X125428705Y-39314380D01*
X127523943Y-38790571D02*
X128190609Y-38790571D01*
X128476324Y-39314380D02*
X127523943Y-39314380D01*
X127523943Y-38314380D01*
X128476324Y-38314380D01*
X130285847Y-39314380D02*
X129333467Y-39314380D01*
X129333467Y-38314380D01*
D10*
X134955400Y-38326060D02*
X134955400Y-40916860D01*
D11*
X135580875Y-40479122D02*
X135723732Y-40526741D01*
X135961827Y-40526741D01*
X136057065Y-40479122D01*
X136104684Y-40431503D01*
X136152303Y-40336265D01*
X136152303Y-40241027D01*
X136104684Y-40145789D01*
X136057065Y-40098170D01*
X135961827Y-40050551D01*
X135771351Y-40002932D01*
X135676113Y-39955313D01*
X135628494Y-39907694D01*
X135580875Y-39812456D01*
X135580875Y-39717218D01*
X135628494Y-39621980D01*
X135676113Y-39574361D01*
X135771351Y-39526741D01*
X136009446Y-39526741D01*
X136152303Y-39574361D01*
X136580875Y-40526741D02*
X136580875Y-39526741D01*
X136580875Y-40002932D02*
X137152303Y-40002932D01*
X137152303Y-40526741D02*
X137152303Y-39526741D01*
X137628494Y-40002932D02*
X137961827Y-40002932D01*
X138104684Y-40526741D02*
X137628494Y-40526741D01*
X137628494Y-39526741D01*
X138104684Y-39526741D01*
X139104684Y-40526741D02*
X138771351Y-40050551D01*
X138533256Y-40526741D02*
X138533256Y-39526741D01*
X138914208Y-39526741D01*
X139009446Y-39574361D01*
X139057065Y-39621980D01*
X139104684Y-39717218D01*
X139104684Y-39860075D01*
X139057065Y-39955313D01*
X139009446Y-40002932D01*
X138914208Y-40050551D01*
X138533256Y-40050551D01*
X132001829Y-39293320D02*
X132144686Y-39340939D01*
X132382781Y-39340939D01*
X132478019Y-39293320D01*
X132525638Y-39245701D01*
X132573257Y-39150463D01*
X132573257Y-39055225D01*
X132525638Y-38959987D01*
X132478019Y-38912368D01*
X132382781Y-38864749D01*
X132192305Y-38817130D01*
X132097067Y-38769511D01*
X132049448Y-38721892D01*
X132001829Y-38626654D01*
X132001829Y-38531416D01*
X132049448Y-38436178D01*
X132097067Y-38388559D01*
X132192305Y-38340939D01*
X132430400Y-38340939D01*
X132573257Y-38388559D01*
X133478019Y-39340939D02*
X133001829Y-39340939D01*
X133001829Y-38340939D01*
X133763734Y-39055225D02*
X134239924Y-39055225D01*
X133668496Y-39340939D02*
X134001829Y-38340939D01*
X134335162Y-39340939D01*
X115321085Y-35545780D02*
X115987752Y-36545780D01*
X116654419Y-35545780D01*
X117321085Y-36545780D02*
X117321085Y-35545780D01*
X118273466Y-36545780D02*
X118273466Y-35545780D01*
X118749657Y-35545780D01*
X119035371Y-35593400D01*
X119225847Y-35688638D01*
X119321085Y-35783876D01*
X119416323Y-35974352D01*
X119416323Y-36117209D01*
X119321085Y-36307685D01*
X119225847Y-36402923D01*
X119035371Y-36498161D01*
X118749657Y-36545780D01*
X118273466Y-36545780D01*
X120273466Y-36021971D02*
X120940133Y-36021971D01*
X121225847Y-36545780D02*
X120273466Y-36545780D01*
X120273466Y-35545780D01*
X121225847Y-35545780D01*
X122463942Y-35545780D02*
X122844895Y-35545780D01*
X123035371Y-35593400D01*
X123225847Y-35688638D01*
X123321085Y-35879114D01*
X123321085Y-36212447D01*
X123225847Y-36402923D01*
X123035371Y-36498161D01*
X122844895Y-36545780D01*
X122463942Y-36545780D01*
X122273466Y-36498161D01*
X122082990Y-36402923D01*
X121987752Y-36212447D01*
X121987752Y-35879114D01*
X122082990Y-35688638D01*
X122273466Y-35593400D01*
X122463942Y-35545780D01*
X126749657Y-35593400D02*
X126559180Y-35545780D01*
X126273466Y-35545780D01*
X125987752Y-35593400D01*
X125797276Y-35688638D01*
X125702038Y-35783876D01*
X125606800Y-35974352D01*
X125606800Y-36117209D01*
X125702038Y-36307685D01*
X125797276Y-36402923D01*
X125987752Y-36498161D01*
X126273466Y-36545780D01*
X126463942Y-36545780D01*
X126749657Y-36498161D01*
X126844895Y-36450542D01*
X126844895Y-36117209D01*
X126463942Y-36117209D01*
X128654419Y-36545780D02*
X127702038Y-36545780D01*
X127702038Y-35545780D01*
X129321085Y-36545780D02*
X129321085Y-35545780D01*
X129987752Y-35545780D02*
X131130609Y-35545780D01*
X130559180Y-36545780D02*
X130559180Y-35545780D01*
X132940133Y-36450542D02*
X132844895Y-36498161D01*
X132559180Y-36545780D01*
X132368704Y-36545780D01*
X132082990Y-36498161D01*
X131892514Y-36402923D01*
X131797276Y-36307685D01*
X131702038Y-36117209D01*
X131702038Y-35974352D01*
X131797276Y-35783876D01*
X131892514Y-35688638D01*
X132082990Y-35593400D01*
X132368704Y-35545780D01*
X132559180Y-35545780D01*
X132844895Y-35593400D01*
X132940133Y-35641019D01*
X133797276Y-36545780D02*
X133797276Y-35545780D01*
X133797276Y-36021971D02*
X134940133Y-36021971D01*
X134940133Y-36545780D02*
X134940133Y-35545780D01*
X137321085Y-36260066D02*
X138273466Y-36260066D01*
X137130609Y-36545780D02*
X137797276Y-35545780D01*
X138463942Y-36545780D01*
X140273466Y-36545780D02*
X139606800Y-36069590D01*
X139130609Y-36545780D02*
X139130609Y-35545780D01*
X139892514Y-35545780D01*
X140082990Y-35593400D01*
X140178228Y-35641019D01*
X140273466Y-35736257D01*
X140273466Y-35879114D01*
X140178228Y-35974352D01*
X140082990Y-36021971D01*
X139892514Y-36069590D01*
X139130609Y-36069590D01*
X142273466Y-36545780D02*
X141606800Y-36069590D01*
X141130609Y-36545780D02*
X141130609Y-35545780D01*
X141892514Y-35545780D01*
X142082990Y-35593400D01*
X142178228Y-35641019D01*
X142273466Y-35736257D01*
X142273466Y-35879114D01*
X142178228Y-35974352D01*
X142082990Y-36021971D01*
X141892514Y-36069590D01*
X141130609Y-36069590D01*
X143035371Y-36260066D02*
X143987752Y-36260066D01*
X142844895Y-36545780D02*
X143511561Y-35545780D01*
X144178228Y-36545780D01*
X145225847Y-36069590D02*
X145225847Y-36545780D01*
X144559180Y-35545780D02*
X145225847Y-36069590D01*
X145892514Y-35545780D01*
D12*
X148157142Y-149612858D02*
X148871428Y-149850953D01*
X149109523Y-150089048D01*
X149347619Y-150565239D01*
X149347619Y-151279524D01*
X149109523Y-151755715D01*
X148871428Y-151993810D01*
X148395238Y-152231905D01*
X146490476Y-152231905D01*
X146490476Y-147231905D01*
X148157142Y-147231905D01*
X148633333Y-147470001D01*
X148871428Y-147708096D01*
X149109523Y-148184286D01*
X149109523Y-148660477D01*
X148871428Y-149136667D01*
X148633333Y-149374762D01*
X148157142Y-149612858D01*
X146490476Y-149612858D01*
X131329523Y-147470001D02*
X130853333Y-147231905D01*
X130139047Y-147231905D01*
X129424761Y-147470001D01*
X128948571Y-147946191D01*
X128710476Y-148422381D01*
X128472380Y-149374762D01*
X128472380Y-150089048D01*
X128710476Y-151041429D01*
X128948571Y-151517620D01*
X129424761Y-151993810D01*
X130139047Y-152231905D01*
X130615238Y-152231905D01*
X131329523Y-151993810D01*
X131567619Y-151755715D01*
X131567619Y-150089048D01*
X130615238Y-150089048D01*
X114252620Y-152231905D02*
X112585953Y-149850953D01*
X111395477Y-152231905D02*
X111395477Y-147231905D01*
X113300239Y-147231905D01*
X113776429Y-147470001D01*
X114014524Y-147708096D01*
X114252620Y-148184286D01*
X114252620Y-148898572D01*
X114014524Y-149374762D01*
X113776429Y-149612858D01*
X113300239Y-149850953D01*
X111395477Y-149850953D01*
D13*
G36*
X150401260Y-36014985D02*
G01*
X150476809Y-36415731D01*
X151034337Y-36645563D01*
X151368761Y-36418157D01*
X151462418Y-36354840D01*
X151547078Y-36298305D01*
X151618791Y-36251136D01*
X151673607Y-36215911D01*
X151707576Y-36195214D01*
X151716826Y-36190751D01*
X151733491Y-36202229D01*
X151769102Y-36233960D01*
X151819667Y-36281892D01*
X151881196Y-36341971D01*
X151949695Y-36410142D01*
X152021175Y-36482354D01*
X152091643Y-36554551D01*
X152157107Y-36622682D01*
X152213576Y-36682692D01*
X152257059Y-36730528D01*
X152283564Y-36762136D01*
X152289901Y-36772714D01*
X152280782Y-36792215D01*
X152255216Y-36834940D01*
X152215893Y-36896707D01*
X152165499Y-36973340D01*
X152106723Y-37060657D01*
X152072664Y-37110461D01*
X152010585Y-37201402D01*
X151955422Y-37283468D01*
X151909850Y-37352572D01*
X151876546Y-37404631D01*
X151858186Y-37435559D01*
X151855427Y-37442059D01*
X151861681Y-37460530D01*
X151878730Y-37503581D01*
X151903999Y-37565158D01*
X151934918Y-37639208D01*
X151968914Y-37719679D01*
X152003414Y-37800516D01*
X152035847Y-37875667D01*
X152063639Y-37939080D01*
X152084219Y-37984702D01*
X152095015Y-38006478D01*
X152095652Y-38007335D01*
X152112603Y-38011493D01*
X152157747Y-38020770D01*
X152226406Y-38034253D01*
X152313898Y-38051030D01*
X152415546Y-38070190D01*
X152474852Y-38081239D01*
X152583468Y-38101919D01*
X152681573Y-38121598D01*
X152764205Y-38139198D01*
X152826400Y-38153642D01*
X152863195Y-38163855D01*
X152870592Y-38167095D01*
X152877836Y-38189026D01*
X152883681Y-38238556D01*
X152888131Y-38309894D01*
X152891189Y-38397248D01*
X152892861Y-38494826D01*
X152893149Y-38596835D01*
X152892057Y-38697484D01*
X152889590Y-38790981D01*
X152885752Y-38871534D01*
X152880546Y-38933351D01*
X152873977Y-38970639D01*
X152870037Y-38978402D01*
X152846484Y-38987707D01*
X152796578Y-39001009D01*
X152726919Y-39016746D01*
X152644109Y-39033355D01*
X152615201Y-39038728D01*
X152475827Y-39064257D01*
X152365732Y-39084817D01*
X152281278Y-39101224D01*
X152218826Y-39114296D01*
X152174740Y-39124850D01*
X152145381Y-39133703D01*
X152127111Y-39141672D01*
X152116294Y-39149574D01*
X152114781Y-39151136D01*
X152099673Y-39176295D01*
X152076625Y-39225259D01*
X152047940Y-39292030D01*
X152015918Y-39370614D01*
X151982861Y-39455016D01*
X151951069Y-39539239D01*
X151922845Y-39617288D01*
X151900489Y-39683168D01*
X151886303Y-39730882D01*
X151882589Y-39754436D01*
X151882898Y-39755261D01*
X151895485Y-39774513D01*
X151924040Y-39816872D01*
X151965563Y-39877930D01*
X152017052Y-39953277D01*
X152075507Y-40038505D01*
X152092154Y-40062724D01*
X152151511Y-40150532D01*
X152203743Y-40230647D01*
X152246004Y-40298471D01*
X152275449Y-40349402D01*
X152289233Y-40378840D01*
X152289901Y-40382457D01*
X152278320Y-40401466D01*
X152246320Y-40439123D01*
X152198014Y-40491382D01*
X152137516Y-40554195D01*
X152068940Y-40623515D01*
X151996400Y-40695294D01*
X151924008Y-40765486D01*
X151855880Y-40830044D01*
X151796128Y-40884919D01*
X151748867Y-40926065D01*
X151718209Y-40949435D01*
X151709728Y-40953251D01*
X151689987Y-40944264D01*
X151649570Y-40920025D01*
X151595059Y-40884618D01*
X151553119Y-40856120D01*
X151477125Y-40803827D01*
X151387130Y-40742254D01*
X151296860Y-40680779D01*
X151248328Y-40647878D01*
X151084058Y-40536768D01*
X150946165Y-40611325D01*
X150883345Y-40643987D01*
X150829925Y-40669375D01*
X150793780Y-40683855D01*
X150784580Y-40685869D01*
X150773517Y-40670993D01*
X150751690Y-40628956D01*
X150720730Y-40563636D01*
X150682266Y-40478909D01*
X150637928Y-40378654D01*
X150589343Y-40266748D01*
X150538142Y-40147068D01*
X150485955Y-40023493D01*
X150434409Y-39899900D01*
X150385136Y-39780166D01*
X150339763Y-39668168D01*
X150299921Y-39567786D01*
X150267238Y-39482895D01*
X150243345Y-39417374D01*
X150229870Y-39375099D01*
X150227702Y-39360581D01*
X150244879Y-39342062D01*
X150282486Y-39311999D01*
X150332662Y-39276641D01*
X150336874Y-39273843D01*
X150466560Y-39170034D01*
X150571130Y-39048924D01*
X150649677Y-38914385D01*
X150701295Y-38770291D01*
X150725078Y-38620514D01*
X150720119Y-38468926D01*
X150685513Y-38319401D01*
X150620353Y-38175809D01*
X150601182Y-38144393D01*
X150501470Y-38017534D01*
X150383673Y-37915664D01*
X150251867Y-37839313D01*
X150110129Y-37789011D01*
X149962538Y-37765288D01*
X149813169Y-37768674D01*
X149666099Y-37799697D01*
X149525407Y-37858889D01*
X149395169Y-37946778D01*
X149354882Y-37982451D01*
X149252351Y-38094115D01*
X149177637Y-38211666D01*
X149126386Y-38343429D01*
X149097842Y-38473916D01*
X149090796Y-38620625D01*
X149114292Y-38768062D01*
X149165945Y-38911243D01*
X149243367Y-39045186D01*
X149344171Y-39164907D01*
X149465972Y-39265423D01*
X149481980Y-39276018D01*
X149532694Y-39310715D01*
X149571246Y-39340779D01*
X149589677Y-39359974D01*
X149589945Y-39360581D01*
X149585988Y-39381345D01*
X149570303Y-39428471D01*
X149544518Y-39498082D01*
X149510265Y-39586302D01*
X149469173Y-39689253D01*
X149422872Y-39803059D01*
X149372992Y-39923844D01*
X149321163Y-40047730D01*
X149269015Y-40170841D01*
X149218178Y-40289300D01*
X149170283Y-40399232D01*
X149126958Y-40496758D01*
X149089834Y-40578002D01*
X149060540Y-40639088D01*
X149040708Y-40676139D01*
X149032722Y-40685869D01*
X149008317Y-40678292D01*
X148962654Y-40657969D01*
X148903606Y-40628534D01*
X148871136Y-40611325D01*
X148733243Y-40536768D01*
X148568973Y-40647878D01*
X148485117Y-40704799D01*
X148393309Y-40767439D01*
X148307276Y-40826420D01*
X148264183Y-40856120D01*
X148203573Y-40896819D01*
X148152251Y-40929072D01*
X148116911Y-40948793D01*
X148105433Y-40952963D01*
X148088726Y-40941716D01*
X148051750Y-40910320D01*
X147998091Y-40862033D01*
X147931334Y-40800117D01*
X147855062Y-40727830D01*
X147806823Y-40681417D01*
X147722429Y-40598496D01*
X147649493Y-40524329D01*
X147590965Y-40462089D01*
X147549793Y-40414950D01*
X147528924Y-40386082D01*
X147526922Y-40380224D01*
X147536213Y-40357941D01*
X147561887Y-40312886D01*
X147601096Y-40249620D01*
X147650993Y-40172704D01*
X147708729Y-40086701D01*
X147725147Y-40062724D01*
X147784973Y-39975579D01*
X147838646Y-39897119D01*
X147883166Y-39831754D01*
X147915531Y-39783893D01*
X147932741Y-39757944D01*
X147934403Y-39755261D01*
X147931917Y-39734581D01*
X147918719Y-39689113D01*
X147897110Y-39624853D01*
X147869392Y-39547796D01*
X147837866Y-39463938D01*
X147804833Y-39379275D01*
X147772595Y-39299801D01*
X147743453Y-39231513D01*
X147719708Y-39180406D01*
X147703661Y-39152476D01*
X147702521Y-39151136D01*
X147692708Y-39143154D01*
X147676135Y-39135260D01*
X147649164Y-39126638D01*
X147608157Y-39116471D01*
X147549476Y-39103940D01*
X147469483Y-39088230D01*
X147364541Y-39068522D01*
X147231011Y-39044001D01*
X147202100Y-39038728D01*
X147116414Y-39022173D01*
X147041714Y-39005978D01*
X146984602Y-38991705D01*
X146951679Y-38980917D01*
X146947265Y-38978402D01*
X146939990Y-38956105D01*
X146934077Y-38906278D01*
X146929530Y-38834713D01*
X146926351Y-38747202D01*
X146924547Y-38649537D01*
X146924119Y-38547510D01*
X146925073Y-38446912D01*
X146927412Y-38353536D01*
X146931140Y-38273174D01*
X146936262Y-38211618D01*
X146942780Y-38174659D01*
X146946710Y-38167095D01*
X146968588Y-38159465D01*
X147018405Y-38147051D01*
X147091199Y-38130931D01*
X147182007Y-38112182D01*
X147285865Y-38091880D01*
X147342450Y-38081239D01*
X147449810Y-38061169D01*
X147545550Y-38042989D01*
X147624990Y-38027608D01*
X147683450Y-38015940D01*
X147716251Y-38008897D01*
X147721650Y-38007335D01*
X147730774Y-37989731D01*
X147750061Y-37947327D01*
X147776941Y-37886181D01*
X147808842Y-37812352D01*
X147843194Y-37731898D01*
X147877425Y-37650877D01*
X147908965Y-37575346D01*
X147935242Y-37511364D01*
X147953685Y-37464989D01*
X147961725Y-37442278D01*
X147961874Y-37441285D01*
X147952761Y-37423370D01*
X147927210Y-37382142D01*
X147887908Y-37321700D01*
X147837539Y-37246140D01*
X147778790Y-37159561D01*
X147744638Y-37109830D01*
X147682406Y-37018645D01*
X147627132Y-36935858D01*
X147581514Y-36865658D01*
X147548248Y-36812233D01*
X147530032Y-36779770D01*
X147527401Y-36772492D01*
X147538710Y-36755554D01*
X147569977Y-36719387D01*
X147617206Y-36668044D01*
X147676404Y-36605576D01*
X147743577Y-36536035D01*
X147814730Y-36463474D01*
X147885870Y-36391944D01*
X147953003Y-36325496D01*
X148012135Y-36268183D01*
X148059271Y-36224056D01*
X148090419Y-36197168D01*
X148100839Y-36190751D01*
X148117805Y-36199774D01*
X148158385Y-36225124D01*
X148218633Y-36264219D01*
X148294603Y-36314480D01*
X148382350Y-36373326D01*
X148448540Y-36418157D01*
X148782964Y-36645563D01*
X149061729Y-36530647D01*
X149340493Y-36415731D01*
X149416042Y-36014985D01*
X149491590Y-35614238D01*
X150325711Y-35614238D01*
X150401260Y-36014985D01*
X150401260Y-36014985D01*
G37*
X150401260Y-36014985D02*
X150476809Y-36415731D01*
X151034337Y-36645563D01*
X151368761Y-36418157D01*
X151462418Y-36354840D01*
X151547078Y-36298305D01*
X151618791Y-36251136D01*
X151673607Y-36215911D01*
X151707576Y-36195214D01*
X151716826Y-36190751D01*
X151733491Y-36202229D01*
X151769102Y-36233960D01*
X151819667Y-36281892D01*
X151881196Y-36341971D01*
X151949695Y-36410142D01*
X152021175Y-36482354D01*
X152091643Y-36554551D01*
X152157107Y-36622682D01*
X152213576Y-36682692D01*
X152257059Y-36730528D01*
X152283564Y-36762136D01*
X152289901Y-36772714D01*
X152280782Y-36792215D01*
X152255216Y-36834940D01*
X152215893Y-36896707D01*
X152165499Y-36973340D01*
X152106723Y-37060657D01*
X152072664Y-37110461D01*
X152010585Y-37201402D01*
X151955422Y-37283468D01*
X151909850Y-37352572D01*
X151876546Y-37404631D01*
X151858186Y-37435559D01*
X151855427Y-37442059D01*
X151861681Y-37460530D01*
X151878730Y-37503581D01*
X151903999Y-37565158D01*
X151934918Y-37639208D01*
X151968914Y-37719679D01*
X152003414Y-37800516D01*
X152035847Y-37875667D01*
X152063639Y-37939080D01*
X152084219Y-37984702D01*
X152095015Y-38006478D01*
X152095652Y-38007335D01*
X152112603Y-38011493D01*
X152157747Y-38020770D01*
X152226406Y-38034253D01*
X152313898Y-38051030D01*
X152415546Y-38070190D01*
X152474852Y-38081239D01*
X152583468Y-38101919D01*
X152681573Y-38121598D01*
X152764205Y-38139198D01*
X152826400Y-38153642D01*
X152863195Y-38163855D01*
X152870592Y-38167095D01*
X152877836Y-38189026D01*
X152883681Y-38238556D01*
X152888131Y-38309894D01*
X152891189Y-38397248D01*
X152892861Y-38494826D01*
X152893149Y-38596835D01*
X152892057Y-38697484D01*
X152889590Y-38790981D01*
X152885752Y-38871534D01*
X152880546Y-38933351D01*
X152873977Y-38970639D01*
X152870037Y-38978402D01*
X152846484Y-38987707D01*
X152796578Y-39001009D01*
X152726919Y-39016746D01*
X152644109Y-39033355D01*
X152615201Y-39038728D01*
X152475827Y-39064257D01*
X152365732Y-39084817D01*
X152281278Y-39101224D01*
X152218826Y-39114296D01*
X152174740Y-39124850D01*
X152145381Y-39133703D01*
X152127111Y-39141672D01*
X152116294Y-39149574D01*
X152114781Y-39151136D01*
X152099673Y-39176295D01*
X152076625Y-39225259D01*
X152047940Y-39292030D01*
X152015918Y-39370614D01*
X151982861Y-39455016D01*
X151951069Y-39539239D01*
X151922845Y-39617288D01*
X151900489Y-39683168D01*
X151886303Y-39730882D01*
X151882589Y-39754436D01*
X151882898Y-39755261D01*
X151895485Y-39774513D01*
X151924040Y-39816872D01*
X151965563Y-39877930D01*
X152017052Y-39953277D01*
X152075507Y-40038505D01*
X152092154Y-40062724D01*
X152151511Y-40150532D01*
X152203743Y-40230647D01*
X152246004Y-40298471D01*
X152275449Y-40349402D01*
X152289233Y-40378840D01*
X152289901Y-40382457D01*
X152278320Y-40401466D01*
X152246320Y-40439123D01*
X152198014Y-40491382D01*
X152137516Y-40554195D01*
X152068940Y-40623515D01*
X151996400Y-40695294D01*
X151924008Y-40765486D01*
X151855880Y-40830044D01*
X151796128Y-40884919D01*
X151748867Y-40926065D01*
X151718209Y-40949435D01*
X151709728Y-40953251D01*
X151689987Y-40944264D01*
X151649570Y-40920025D01*
X151595059Y-40884618D01*
X151553119Y-40856120D01*
X151477125Y-40803827D01*
X151387130Y-40742254D01*
X151296860Y-40680779D01*
X151248328Y-40647878D01*
X151084058Y-40536768D01*
X150946165Y-40611325D01*
X150883345Y-40643987D01*
X150829925Y-40669375D01*
X150793780Y-40683855D01*
X150784580Y-40685869D01*
X150773517Y-40670993D01*
X150751690Y-40628956D01*
X150720730Y-40563636D01*
X150682266Y-40478909D01*
X150637928Y-40378654D01*
X150589343Y-40266748D01*
X150538142Y-40147068D01*
X150485955Y-40023493D01*
X150434409Y-39899900D01*
X150385136Y-39780166D01*
X150339763Y-39668168D01*
X150299921Y-39567786D01*
X150267238Y-39482895D01*
X150243345Y-39417374D01*
X150229870Y-39375099D01*
X150227702Y-39360581D01*
X150244879Y-39342062D01*
X150282486Y-39311999D01*
X150332662Y-39276641D01*
X150336874Y-39273843D01*
X150466560Y-39170034D01*
X150571130Y-39048924D01*
X150649677Y-38914385D01*
X150701295Y-38770291D01*
X150725078Y-38620514D01*
X150720119Y-38468926D01*
X150685513Y-38319401D01*
X150620353Y-38175809D01*
X150601182Y-38144393D01*
X150501470Y-38017534D01*
X150383673Y-37915664D01*
X150251867Y-37839313D01*
X150110129Y-37789011D01*
X149962538Y-37765288D01*
X149813169Y-37768674D01*
X149666099Y-37799697D01*
X149525407Y-37858889D01*
X149395169Y-37946778D01*
X149354882Y-37982451D01*
X149252351Y-38094115D01*
X149177637Y-38211666D01*
X149126386Y-38343429D01*
X149097842Y-38473916D01*
X149090796Y-38620625D01*
X149114292Y-38768062D01*
X149165945Y-38911243D01*
X149243367Y-39045186D01*
X149344171Y-39164907D01*
X149465972Y-39265423D01*
X149481980Y-39276018D01*
X149532694Y-39310715D01*
X149571246Y-39340779D01*
X149589677Y-39359974D01*
X149589945Y-39360581D01*
X149585988Y-39381345D01*
X149570303Y-39428471D01*
X149544518Y-39498082D01*
X149510265Y-39586302D01*
X149469173Y-39689253D01*
X149422872Y-39803059D01*
X149372992Y-39923844D01*
X149321163Y-40047730D01*
X149269015Y-40170841D01*
X149218178Y-40289300D01*
X149170283Y-40399232D01*
X149126958Y-40496758D01*
X149089834Y-40578002D01*
X149060540Y-40639088D01*
X149040708Y-40676139D01*
X149032722Y-40685869D01*
X149008317Y-40678292D01*
X148962654Y-40657969D01*
X148903606Y-40628534D01*
X148871136Y-40611325D01*
X148733243Y-40536768D01*
X148568973Y-40647878D01*
X148485117Y-40704799D01*
X148393309Y-40767439D01*
X148307276Y-40826420D01*
X148264183Y-40856120D01*
X148203573Y-40896819D01*
X148152251Y-40929072D01*
X148116911Y-40948793D01*
X148105433Y-40952963D01*
X148088726Y-40941716D01*
X148051750Y-40910320D01*
X147998091Y-40862033D01*
X147931334Y-40800117D01*
X147855062Y-40727830D01*
X147806823Y-40681417D01*
X147722429Y-40598496D01*
X147649493Y-40524329D01*
X147590965Y-40462089D01*
X147549793Y-40414950D01*
X147528924Y-40386082D01*
X147526922Y-40380224D01*
X147536213Y-40357941D01*
X147561887Y-40312886D01*
X147601096Y-40249620D01*
X147650993Y-40172704D01*
X147708729Y-40086701D01*
X147725147Y-40062724D01*
X147784973Y-39975579D01*
X147838646Y-39897119D01*
X147883166Y-39831754D01*
X147915531Y-39783893D01*
X147932741Y-39757944D01*
X147934403Y-39755261D01*
X147931917Y-39734581D01*
X147918719Y-39689113D01*
X147897110Y-39624853D01*
X147869392Y-39547796D01*
X147837866Y-39463938D01*
X147804833Y-39379275D01*
X147772595Y-39299801D01*
X147743453Y-39231513D01*
X147719708Y-39180406D01*
X147703661Y-39152476D01*
X147702521Y-39151136D01*
X147692708Y-39143154D01*
X147676135Y-39135260D01*
X147649164Y-39126638D01*
X147608157Y-39116471D01*
X147549476Y-39103940D01*
X147469483Y-39088230D01*
X147364541Y-39068522D01*
X147231011Y-39044001D01*
X147202100Y-39038728D01*
X147116414Y-39022173D01*
X147041714Y-39005978D01*
X146984602Y-38991705D01*
X146951679Y-38980917D01*
X146947265Y-38978402D01*
X146939990Y-38956105D01*
X146934077Y-38906278D01*
X146929530Y-38834713D01*
X146926351Y-38747202D01*
X146924547Y-38649537D01*
X146924119Y-38547510D01*
X146925073Y-38446912D01*
X146927412Y-38353536D01*
X146931140Y-38273174D01*
X146936262Y-38211618D01*
X146942780Y-38174659D01*
X146946710Y-38167095D01*
X146968588Y-38159465D01*
X147018405Y-38147051D01*
X147091199Y-38130931D01*
X147182007Y-38112182D01*
X147285865Y-38091880D01*
X147342450Y-38081239D01*
X147449810Y-38061169D01*
X147545550Y-38042989D01*
X147624990Y-38027608D01*
X147683450Y-38015940D01*
X147716251Y-38008897D01*
X147721650Y-38007335D01*
X147730774Y-37989731D01*
X147750061Y-37947327D01*
X147776941Y-37886181D01*
X147808842Y-37812352D01*
X147843194Y-37731898D01*
X147877425Y-37650877D01*
X147908965Y-37575346D01*
X147935242Y-37511364D01*
X147953685Y-37464989D01*
X147961725Y-37442278D01*
X147961874Y-37441285D01*
X147952761Y-37423370D01*
X147927210Y-37382142D01*
X147887908Y-37321700D01*
X147837539Y-37246140D01*
X147778790Y-37159561D01*
X147744638Y-37109830D01*
X147682406Y-37018645D01*
X147627132Y-36935858D01*
X147581514Y-36865658D01*
X147548248Y-36812233D01*
X147530032Y-36779770D01*
X147527401Y-36772492D01*
X147538710Y-36755554D01*
X147569977Y-36719387D01*
X147617206Y-36668044D01*
X147676404Y-36605576D01*
X147743577Y-36536035D01*
X147814730Y-36463474D01*
X147885870Y-36391944D01*
X147953003Y-36325496D01*
X148012135Y-36268183D01*
X148059271Y-36224056D01*
X148090419Y-36197168D01*
X148100839Y-36190751D01*
X148117805Y-36199774D01*
X148158385Y-36225124D01*
X148218633Y-36264219D01*
X148294603Y-36314480D01*
X148382350Y-36373326D01*
X148448540Y-36418157D01*
X148782964Y-36645563D01*
X149061729Y-36530647D01*
X149340493Y-36415731D01*
X149416042Y-36014985D01*
X149491590Y-35614238D01*
X150325711Y-35614238D01*
X150401260Y-36014985D01*
G36*
X152291684Y-41554054D02*
G01*
X152349161Y-41571615D01*
X152386168Y-41593804D01*
X152398223Y-41611351D01*
X152394905Y-41632151D01*
X152373375Y-41664828D01*
X152355170Y-41687971D01*
X152317640Y-41729811D01*
X152289444Y-41747414D01*
X152265407Y-41746265D01*
X152194104Y-41728119D01*
X152141738Y-41728943D01*
X152099214Y-41749507D01*
X152084938Y-41761543D01*
X152039243Y-41803892D01*
X152039243Y-42356935D01*
X151855427Y-42356935D01*
X151855427Y-41554830D01*
X151947335Y-41554830D01*
X152002515Y-41557012D01*
X152030984Y-41564760D01*
X152039239Y-41579877D01*
X152039243Y-41580325D01*
X152043141Y-41596158D01*
X152060770Y-41594093D01*
X152085197Y-41582670D01*
X152135646Y-41561414D01*
X152176612Y-41548625D01*
X152229324Y-41545347D01*
X152291684Y-41554054D01*
X152291684Y-41554054D01*
G37*
X152291684Y-41554054D02*
X152349161Y-41571615D01*
X152386168Y-41593804D01*
X152398223Y-41611351D01*
X152394905Y-41632151D01*
X152373375Y-41664828D01*
X152355170Y-41687971D01*
X152317640Y-41729811D01*
X152289444Y-41747414D01*
X152265407Y-41746265D01*
X152194104Y-41728119D01*
X152141738Y-41728943D01*
X152099214Y-41749507D01*
X152084938Y-41761543D01*
X152039243Y-41803892D01*
X152039243Y-42356935D01*
X151855427Y-42356935D01*
X151855427Y-41554830D01*
X151947335Y-41554830D01*
X152002515Y-41557012D01*
X152030984Y-41564760D01*
X152039239Y-41579877D01*
X152039243Y-41580325D01*
X152043141Y-41596158D01*
X152060770Y-41594093D01*
X152085197Y-41582670D01*
X152135646Y-41561414D01*
X152176612Y-41548625D01*
X152229324Y-41545347D01*
X152291684Y-41554054D01*
G36*
X148898253Y-41568635D02*
G01*
X148939842Y-41588499D01*
X148980121Y-41617193D01*
X149010806Y-41650218D01*
X149033157Y-41692340D01*
X149048432Y-41748324D01*
X149057888Y-41822937D01*
X149062783Y-41920944D01*
X149064377Y-42047111D01*
X149064402Y-42060323D01*
X149064769Y-42356935D01*
X148880953Y-42356935D01*
X148880953Y-42083490D01*
X148880823Y-41982186D01*
X148879917Y-41908762D01*
X148877469Y-41857680D01*
X148872710Y-41823399D01*
X148864870Y-41800380D01*
X148853181Y-41783082D01*
X148836898Y-41765990D01*
X148779930Y-41729266D01*
X148717741Y-41722451D01*
X148658495Y-41745670D01*
X148637891Y-41762952D01*
X148622766Y-41779200D01*
X148611906Y-41796600D01*
X148604606Y-41820621D01*
X148600159Y-41856731D01*
X148597860Y-41910397D01*
X148597000Y-41987089D01*
X148596874Y-42080452D01*
X148596874Y-42356935D01*
X148413059Y-42356935D01*
X148413059Y-41554830D01*
X148504967Y-41554830D01*
X148560147Y-41557012D01*
X148588616Y-41564760D01*
X148596871Y-41579877D01*
X148596874Y-41580325D01*
X148600704Y-41595129D01*
X148617597Y-41593449D01*
X148651184Y-41577182D01*
X148727359Y-41553249D01*
X148814496Y-41550587D01*
X148898253Y-41568635D01*
X148898253Y-41568635D01*
G37*
X148898253Y-41568635D02*
X148939842Y-41588499D01*
X148980121Y-41617193D01*
X149010806Y-41650218D01*
X149033157Y-41692340D01*
X149048432Y-41748324D01*
X149057888Y-41822937D01*
X149062783Y-41920944D01*
X149064377Y-42047111D01*
X149064402Y-42060323D01*
X149064769Y-42356935D01*
X148880953Y-42356935D01*
X148880953Y-42083490D01*
X148880823Y-41982186D01*
X148879917Y-41908762D01*
X148877469Y-41857680D01*
X148872710Y-41823399D01*
X148864870Y-41800380D01*
X148853181Y-41783082D01*
X148836898Y-41765990D01*
X148779930Y-41729266D01*
X148717741Y-41722451D01*
X148658495Y-41745670D01*
X148637891Y-41762952D01*
X148622766Y-41779200D01*
X148611906Y-41796600D01*
X148604606Y-41820621D01*
X148600159Y-41856731D01*
X148597860Y-41910397D01*
X148597000Y-41987089D01*
X148596874Y-42080452D01*
X148596874Y-42356935D01*
X148413059Y-42356935D01*
X148413059Y-41554830D01*
X148504967Y-41554830D01*
X148560147Y-41557012D01*
X148588616Y-41564760D01*
X148596871Y-41579877D01*
X148596874Y-41580325D01*
X148600704Y-41595129D01*
X148617597Y-41593449D01*
X148651184Y-41577182D01*
X148727359Y-41553249D01*
X148814496Y-41550587D01*
X148898253Y-41568635D01*
G36*
X153459080Y-41551963D02*
G01*
X153501870Y-41562358D01*
X153583905Y-41600422D01*
X153654053Y-41658558D01*
X153702601Y-41728261D01*
X153709271Y-41743911D01*
X153718420Y-41784905D01*
X153724825Y-41845547D01*
X153727006Y-41906839D01*
X153727006Y-42022725D01*
X153484703Y-42022725D01*
X153384767Y-42023102D01*
X153314365Y-42025396D01*
X153269609Y-42031347D01*
X153246611Y-42042694D01*
X153241485Y-42061180D01*
X153250344Y-42088545D01*
X153266213Y-42120564D01*
X153310480Y-42174001D01*
X153371995Y-42200624D01*
X153447181Y-42199756D01*
X153532349Y-42170780D01*
X153605955Y-42135020D01*
X153667030Y-42183313D01*
X153728106Y-42231606D01*
X153670647Y-42284694D01*
X153593937Y-42334854D01*
X153499598Y-42365097D01*
X153398123Y-42373560D01*
X153300007Y-42358383D01*
X153284177Y-42353233D01*
X153197943Y-42308200D01*
X153133797Y-42241061D01*
X153090387Y-42149814D01*
X153066360Y-42032453D01*
X153066080Y-42029938D01*
X153063929Y-41902036D01*
X153072625Y-41856406D01*
X153242401Y-41856406D01*
X153257993Y-41863422D01*
X153300325Y-41868797D01*
X153362730Y-41871866D01*
X153402277Y-41872330D01*
X153476024Y-41872039D01*
X153522136Y-41870192D01*
X153546396Y-41865321D01*
X153554590Y-41855964D01*
X153552502Y-41840654D01*
X153550751Y-41834731D01*
X153520856Y-41779077D01*
X153473838Y-41734224D01*
X153432345Y-41714514D01*
X153377222Y-41715704D01*
X153321364Y-41740284D01*
X153274508Y-41780979D01*
X153246390Y-41830517D01*
X153242401Y-41856406D01*
X153072625Y-41856406D01*
X153085370Y-41789542D01*
X153127907Y-41695136D01*
X153189043Y-41621497D01*
X153266281Y-41571302D01*
X153357126Y-41547231D01*
X153459080Y-41551963D01*
X153459080Y-41551963D01*
G37*
X153459080Y-41551963D02*
X153501870Y-41562358D01*
X153583905Y-41600422D01*
X153654053Y-41658558D01*
X153702601Y-41728261D01*
X153709271Y-41743911D01*
X153718420Y-41784905D01*
X153724825Y-41845547D01*
X153727006Y-41906839D01*
X153727006Y-42022725D01*
X153484703Y-42022725D01*
X153384767Y-42023102D01*
X153314365Y-42025396D01*
X153269609Y-42031347D01*
X153246611Y-42042694D01*
X153241485Y-42061180D01*
X153250344Y-42088545D01*
X153266213Y-42120564D01*
X153310480Y-42174001D01*
X153371995Y-42200624D01*
X153447181Y-42199756D01*
X153532349Y-42170780D01*
X153605955Y-42135020D01*
X153667030Y-42183313D01*
X153728106Y-42231606D01*
X153670647Y-42284694D01*
X153593937Y-42334854D01*
X153499598Y-42365097D01*
X153398123Y-42373560D01*
X153300007Y-42358383D01*
X153284177Y-42353233D01*
X153197943Y-42308200D01*
X153133797Y-42241061D01*
X153090387Y-42149814D01*
X153066360Y-42032453D01*
X153066080Y-42029938D01*
X153063929Y-41902036D01*
X153072625Y-41856406D01*
X153242401Y-41856406D01*
X153257993Y-41863422D01*
X153300325Y-41868797D01*
X153362730Y-41871866D01*
X153402277Y-41872330D01*
X153476024Y-41872039D01*
X153522136Y-41870192D01*
X153546396Y-41865321D01*
X153554590Y-41855964D01*
X153552502Y-41840654D01*
X153550751Y-41834731D01*
X153520856Y-41779077D01*
X153473838Y-41734224D01*
X153432345Y-41714514D01*
X153377222Y-41715704D01*
X153321364Y-41740284D01*
X153274508Y-41780979D01*
X153246390Y-41830517D01*
X153242401Y-41856406D01*
X153072625Y-41856406D01*
X153085370Y-41789542D01*
X153127907Y-41695136D01*
X153189043Y-41621497D01*
X153266281Y-41571302D01*
X153357126Y-41547231D01*
X153459080Y-41551963D01*
G36*
X152846872Y-41561828D02*
G01*
X152943691Y-41602958D01*
X152974186Y-41622980D01*
X153013161Y-41653749D01*
X153037627Y-41677942D01*
X153041874Y-41685822D01*
X153029880Y-41703308D01*
X152999183Y-41732979D01*
X152974608Y-41753688D01*
X152907342Y-41807745D01*
X152854226Y-41763051D01*
X152813180Y-41734198D01*
X152773159Y-41724238D01*
X152727355Y-41726670D01*
X152654620Y-41744754D01*
X152604552Y-41782290D01*
X152574125Y-41842971D01*
X152560313Y-41930490D01*
X152560309Y-41930545D01*
X152561504Y-42028367D01*
X152580068Y-42100139D01*
X152617100Y-42149004D01*
X152642346Y-42165552D01*
X152709393Y-42186158D01*
X152781005Y-42186171D01*
X152843311Y-42166177D01*
X152858059Y-42156409D01*
X152895046Y-42131456D01*
X152923964Y-42127367D01*
X152955152Y-42145939D01*
X152989632Y-42179296D01*
X153044208Y-42235605D01*
X152983614Y-42285551D01*
X152889994Y-42341922D01*
X152784421Y-42369702D01*
X152674094Y-42367691D01*
X152601639Y-42349271D01*
X152516952Y-42303719D01*
X152449223Y-42232059D01*
X152418453Y-42181475D01*
X152393532Y-42108897D01*
X152381062Y-42016978D01*
X152380966Y-41917357D01*
X152393166Y-41821676D01*
X152417586Y-41741578D01*
X152421432Y-41733365D01*
X152478389Y-41652822D01*
X152555505Y-41594180D01*
X152646686Y-41558656D01*
X152745839Y-41547466D01*
X152846872Y-41561828D01*
X152846872Y-41561828D01*
G37*
X152846872Y-41561828D02*
X152943691Y-41602958D01*
X152974186Y-41622980D01*
X153013161Y-41653749D01*
X153037627Y-41677942D01*
X153041874Y-41685822D01*
X153029880Y-41703308D01*
X152999183Y-41732979D01*
X152974608Y-41753688D01*
X152907342Y-41807745D01*
X152854226Y-41763051D01*
X152813180Y-41734198D01*
X152773159Y-41724238D01*
X152727355Y-41726670D01*
X152654620Y-41744754D01*
X152604552Y-41782290D01*
X152574125Y-41842971D01*
X152560313Y-41930490D01*
X152560309Y-41930545D01*
X152561504Y-42028367D01*
X152580068Y-42100139D01*
X152617100Y-42149004D01*
X152642346Y-42165552D01*
X152709393Y-42186158D01*
X152781005Y-42186171D01*
X152843311Y-42166177D01*
X152858059Y-42156409D01*
X152895046Y-42131456D01*
X152923964Y-42127367D01*
X152955152Y-42145939D01*
X152989632Y-42179296D01*
X153044208Y-42235605D01*
X152983614Y-42285551D01*
X152889994Y-42341922D01*
X152784421Y-42369702D01*
X152674094Y-42367691D01*
X152601639Y-42349271D01*
X152516952Y-42303719D01*
X152449223Y-42232059D01*
X152418453Y-42181475D01*
X152393532Y-42108897D01*
X152381062Y-42016978D01*
X152380966Y-41917357D01*
X152393166Y-41821676D01*
X152417586Y-41741578D01*
X152421432Y-41733365D01*
X152478389Y-41652822D01*
X152555505Y-41594180D01*
X152646686Y-41558656D01*
X152745839Y-41547466D01*
X152846872Y-41561828D01*
G36*
X151220427Y-41814942D02*
G01*
X151222006Y-41937498D01*
X151227777Y-42030588D01*
X151239287Y-42098060D01*
X151258086Y-42143764D01*
X151285722Y-42171548D01*
X151323744Y-42185263D01*
X151370822Y-42188767D01*
X151420128Y-42184841D01*
X151457579Y-42170498D01*
X151484724Y-42141887D01*
X151503111Y-42095160D01*
X151514289Y-42026467D01*
X151519807Y-41931959D01*
X151521217Y-41814942D01*
X151521217Y-41554830D01*
X151705032Y-41554830D01*
X151705032Y-42356935D01*
X151613124Y-42356935D01*
X151557718Y-42354690D01*
X151529187Y-42346805D01*
X151521217Y-42331837D01*
X151516416Y-42318506D01*
X151497310Y-42321326D01*
X151458800Y-42340192D01*
X151370535Y-42369296D01*
X151276919Y-42367234D01*
X151187217Y-42335630D01*
X151144500Y-42310666D01*
X151111917Y-42283635D01*
X151088113Y-42249814D01*
X151071735Y-42204477D01*
X151061427Y-42142898D01*
X151055837Y-42060352D01*
X151053608Y-41952114D01*
X151053322Y-41868413D01*
X151053322Y-41554830D01*
X151220427Y-41554830D01*
X151220427Y-41814942D01*
X151220427Y-41814942D01*
G37*
X151220427Y-41814942D02*
X151222006Y-41937498D01*
X151227777Y-42030588D01*
X151239287Y-42098060D01*
X151258086Y-42143764D01*
X151285722Y-42171548D01*
X151323744Y-42185263D01*
X151370822Y-42188767D01*
X151420128Y-42184841D01*
X151457579Y-42170498D01*
X151484724Y-42141887D01*
X151503111Y-42095160D01*
X151514289Y-42026467D01*
X151519807Y-41931959D01*
X151521217Y-41814942D01*
X151521217Y-41554830D01*
X151705032Y-41554830D01*
X151705032Y-42356935D01*
X151613124Y-42356935D01*
X151557718Y-42354690D01*
X151529187Y-42346805D01*
X151521217Y-42331837D01*
X151516416Y-42318506D01*
X151497310Y-42321326D01*
X151458800Y-42340192D01*
X151370535Y-42369296D01*
X151276919Y-42367234D01*
X151187217Y-42335630D01*
X151144500Y-42310666D01*
X151111917Y-42283635D01*
X151088113Y-42249814D01*
X151071735Y-42204477D01*
X151061427Y-42142898D01*
X151055837Y-42060352D01*
X151053608Y-41952114D01*
X151053322Y-41868413D01*
X151053322Y-41554830D01*
X151220427Y-41554830D01*
X151220427Y-41814942D01*
G36*
X150711965Y-41564719D02*
G01*
X150796488Y-41610749D01*
X150862617Y-41683415D01*
X150893774Y-41742515D01*
X150907151Y-41794714D01*
X150915818Y-41869128D01*
X150919533Y-41954851D01*
X150918050Y-42040978D01*
X150911127Y-42116602D01*
X150903041Y-42156993D01*
X150875761Y-42212249D01*
X150828516Y-42270939D01*
X150771578Y-42322261D01*
X150715220Y-42355414D01*
X150713846Y-42355940D01*
X150643912Y-42370427D01*
X150561033Y-42370786D01*
X150482273Y-42357597D01*
X150451862Y-42347026D01*
X150373535Y-42302610D01*
X150317439Y-42244416D01*
X150280582Y-42167374D01*
X150259976Y-42066410D01*
X150255314Y-42013525D01*
X150255909Y-41947072D01*
X150435032Y-41947072D01*
X150441066Y-42044039D01*
X150458434Y-42117932D01*
X150486036Y-42165145D01*
X150505700Y-42178646D01*
X150556083Y-42188060D01*
X150615969Y-42185273D01*
X150667745Y-42171725D01*
X150681323Y-42164271D01*
X150717145Y-42120860D01*
X150740789Y-42054423D01*
X150750854Y-41973570D01*
X150745938Y-41886911D01*
X150734951Y-41834758D01*
X150703405Y-41774360D01*
X150653607Y-41736606D01*
X150593633Y-41723552D01*
X150531560Y-41737258D01*
X150483878Y-41770781D01*
X150458821Y-41798440D01*
X150444196Y-41825703D01*
X150437225Y-41862599D01*
X150435129Y-41919159D01*
X150435032Y-41947072D01*
X150255909Y-41947072D01*
X150256578Y-41872403D01*
X150279561Y-41756680D01*
X150324268Y-41666350D01*
X150390701Y-41601409D01*
X150478861Y-41561854D01*
X150497791Y-41557267D01*
X150611562Y-41546499D01*
X150711965Y-41564719D01*
X150711965Y-41564719D01*
G37*
X150711965Y-41564719D02*
X150796488Y-41610749D01*
X150862617Y-41683415D01*
X150893774Y-41742515D01*
X150907151Y-41794714D01*
X150915818Y-41869128D01*
X150919533Y-41954851D01*
X150918050Y-42040978D01*
X150911127Y-42116602D01*
X150903041Y-42156993D01*
X150875761Y-42212249D01*
X150828516Y-42270939D01*
X150771578Y-42322261D01*
X150715220Y-42355414D01*
X150713846Y-42355940D01*
X150643912Y-42370427D01*
X150561033Y-42370786D01*
X150482273Y-42357597D01*
X150451862Y-42347026D01*
X150373535Y-42302610D01*
X150317439Y-42244416D01*
X150280582Y-42167374D01*
X150259976Y-42066410D01*
X150255314Y-42013525D01*
X150255909Y-41947072D01*
X150435032Y-41947072D01*
X150441066Y-42044039D01*
X150458434Y-42117932D01*
X150486036Y-42165145D01*
X150505700Y-42178646D01*
X150556083Y-42188060D01*
X150615969Y-42185273D01*
X150667745Y-42171725D01*
X150681323Y-42164271D01*
X150717145Y-42120860D01*
X150740789Y-42054423D01*
X150750854Y-41973570D01*
X150745938Y-41886911D01*
X150734951Y-41834758D01*
X150703405Y-41774360D01*
X150653607Y-41736606D01*
X150593633Y-41723552D01*
X150531560Y-41737258D01*
X150483878Y-41770781D01*
X150458821Y-41798440D01*
X150444196Y-41825703D01*
X150437225Y-41862599D01*
X150435129Y-41919159D01*
X150435032Y-41947072D01*
X150255909Y-41947072D01*
X150256578Y-41872403D01*
X150279561Y-41756680D01*
X150324268Y-41666350D01*
X150390701Y-41601409D01*
X150478861Y-41561854D01*
X150497791Y-41557267D01*
X150611562Y-41546499D01*
X150711965Y-41564719D01*
G36*
X149918924Y-41551956D02*
G01*
X149982204Y-41563957D01*
X150047853Y-41589057D01*
X150054868Y-41592257D01*
X150104652Y-41618435D01*
X150139130Y-41642762D01*
X150150274Y-41658346D01*
X150139662Y-41683762D01*
X150113884Y-41721262D01*
X150102442Y-41735261D01*
X150055288Y-41790363D01*
X149994497Y-41754495D01*
X149936643Y-41730601D01*
X149869796Y-41717829D01*
X149805690Y-41717022D01*
X149756060Y-41729024D01*
X149744150Y-41736514D01*
X149721468Y-41770859D01*
X149718712Y-41810422D01*
X149735684Y-41841329D01*
X149745723Y-41847322D01*
X149775806Y-41854766D01*
X149828685Y-41863515D01*
X149893871Y-41871876D01*
X149905896Y-41873187D01*
X150010593Y-41891297D01*
X150086528Y-41922060D01*
X150136888Y-41968316D01*
X150164860Y-42032906D01*
X150173574Y-42111796D01*
X150161536Y-42201474D01*
X150122447Y-42271895D01*
X150056151Y-42323186D01*
X149962490Y-42355476D01*
X149858519Y-42368216D01*
X149773734Y-42368063D01*
X149704961Y-42356492D01*
X149657993Y-42340518D01*
X149598646Y-42312684D01*
X149543802Y-42280382D01*
X149524309Y-42266164D01*
X149474177Y-42225244D01*
X149595099Y-42102886D01*
X149663839Y-42148376D01*
X149732784Y-42182542D01*
X149806407Y-42200413D01*
X149877179Y-42202298D01*
X149937570Y-42188510D01*
X149980053Y-42159358D01*
X149993770Y-42134761D01*
X149991713Y-42095313D01*
X149957626Y-42065146D01*
X149891604Y-42044315D01*
X149819270Y-42034688D01*
X149707948Y-42016319D01*
X149625248Y-41981663D01*
X149570061Y-41929706D01*
X149541284Y-41859432D01*
X149537297Y-41776116D01*
X149556989Y-41689090D01*
X149601885Y-41623311D01*
X149672387Y-41578477D01*
X149768897Y-41554288D01*
X149840396Y-41549546D01*
X149918924Y-41551956D01*
X149918924Y-41551956D01*
G37*
X149918924Y-41551956D02*
X149982204Y-41563957D01*
X150047853Y-41589057D01*
X150054868Y-41592257D01*
X150104652Y-41618435D01*
X150139130Y-41642762D01*
X150150274Y-41658346D01*
X150139662Y-41683762D01*
X150113884Y-41721262D01*
X150102442Y-41735261D01*
X150055288Y-41790363D01*
X149994497Y-41754495D01*
X149936643Y-41730601D01*
X149869796Y-41717829D01*
X149805690Y-41717022D01*
X149756060Y-41729024D01*
X149744150Y-41736514D01*
X149721468Y-41770859D01*
X149718712Y-41810422D01*
X149735684Y-41841329D01*
X149745723Y-41847322D01*
X149775806Y-41854766D01*
X149828685Y-41863515D01*
X149893871Y-41871876D01*
X149905896Y-41873187D01*
X150010593Y-41891297D01*
X150086528Y-41922060D01*
X150136888Y-41968316D01*
X150164860Y-42032906D01*
X150173574Y-42111796D01*
X150161536Y-42201474D01*
X150122447Y-42271895D01*
X150056151Y-42323186D01*
X149962490Y-42355476D01*
X149858519Y-42368216D01*
X149773734Y-42368063D01*
X149704961Y-42356492D01*
X149657993Y-42340518D01*
X149598646Y-42312684D01*
X149543802Y-42280382D01*
X149524309Y-42266164D01*
X149474177Y-42225244D01*
X149595099Y-42102886D01*
X149663839Y-42148376D01*
X149732784Y-42182542D01*
X149806407Y-42200413D01*
X149877179Y-42202298D01*
X149937570Y-42188510D01*
X149980053Y-42159358D01*
X149993770Y-42134761D01*
X149991713Y-42095313D01*
X149957626Y-42065146D01*
X149891604Y-42044315D01*
X149819270Y-42034688D01*
X149707948Y-42016319D01*
X149625248Y-41981663D01*
X149570061Y-41929706D01*
X149541284Y-41859432D01*
X149537297Y-41776116D01*
X149556989Y-41689090D01*
X149601885Y-41623311D01*
X149672387Y-41578477D01*
X149768897Y-41554288D01*
X149840396Y-41549546D01*
X149918924Y-41551956D01*
G36*
X148097314Y-41573436D02*
G01*
X148113966Y-41581275D01*
X148171601Y-41623495D01*
X148226101Y-41685109D01*
X148266795Y-41752952D01*
X148278370Y-41784143D01*
X148288930Y-41839858D01*
X148295227Y-41907190D01*
X148295992Y-41934994D01*
X148296085Y-42022725D01*
X147791146Y-42022725D01*
X147801909Y-42068679D01*
X147828329Y-42123029D01*
X147874518Y-42170000D01*
X147929468Y-42200257D01*
X147964485Y-42206540D01*
X148011973Y-42198915D01*
X148068631Y-42179792D01*
X148087878Y-42170993D01*
X148159055Y-42135445D01*
X148219798Y-42181776D01*
X148254848Y-42213112D01*
X148273498Y-42238976D01*
X148274443Y-42246567D01*
X148257781Y-42264965D01*
X148221266Y-42292924D01*
X148188124Y-42314736D01*
X148098689Y-42353946D01*
X147998425Y-42371694D01*
X147899050Y-42367079D01*
X147819835Y-42342960D01*
X147738176Y-42291293D01*
X147680145Y-42223265D01*
X147643842Y-42135252D01*
X147627368Y-42023625D01*
X147625907Y-41972547D01*
X147631753Y-41855500D01*
X147632471Y-41852095D01*
X147799785Y-41852095D01*
X147804393Y-41863071D01*
X147823332Y-41869124D01*
X147862394Y-41871719D01*
X147927373Y-41872319D01*
X147952393Y-41872330D01*
X148028517Y-41871423D01*
X148076792Y-41868129D01*
X148102756Y-41861590D01*
X148111944Y-41850946D01*
X148112269Y-41847528D01*
X148101783Y-41820365D01*
X148075538Y-41782312D01*
X148064255Y-41768988D01*
X148022368Y-41731305D01*
X147978705Y-41716489D01*
X147955181Y-41715251D01*
X147891539Y-41730738D01*
X147838169Y-41772339D01*
X147804315Y-41832762D01*
X147803715Y-41834731D01*
X147799785Y-41852095D01*
X147632471Y-41852095D01*
X147651195Y-41763337D01*
X147686218Y-41689599D01*
X147729052Y-41637257D01*
X147808244Y-41580501D01*
X147901336Y-41550171D01*
X148000351Y-41547430D01*
X148097314Y-41573436D01*
X148097314Y-41573436D01*
G37*
X148097314Y-41573436D02*
X148113966Y-41581275D01*
X148171601Y-41623495D01*
X148226101Y-41685109D01*
X148266795Y-41752952D01*
X148278370Y-41784143D01*
X148288930Y-41839858D01*
X148295227Y-41907190D01*
X148295992Y-41934994D01*
X148296085Y-42022725D01*
X147791146Y-42022725D01*
X147801909Y-42068679D01*
X147828329Y-42123029D01*
X147874518Y-42170000D01*
X147929468Y-42200257D01*
X147964485Y-42206540D01*
X148011973Y-42198915D01*
X148068631Y-42179792D01*
X148087878Y-42170993D01*
X148159055Y-42135445D01*
X148219798Y-42181776D01*
X148254848Y-42213112D01*
X148273498Y-42238976D01*
X148274443Y-42246567D01*
X148257781Y-42264965D01*
X148221266Y-42292924D01*
X148188124Y-42314736D01*
X148098689Y-42353946D01*
X147998425Y-42371694D01*
X147899050Y-42367079D01*
X147819835Y-42342960D01*
X147738176Y-42291293D01*
X147680145Y-42223265D01*
X147643842Y-42135252D01*
X147627368Y-42023625D01*
X147625907Y-41972547D01*
X147631753Y-41855500D01*
X147632471Y-41852095D01*
X147799785Y-41852095D01*
X147804393Y-41863071D01*
X147823332Y-41869124D01*
X147862394Y-41871719D01*
X147927373Y-41872319D01*
X147952393Y-41872330D01*
X148028517Y-41871423D01*
X148076792Y-41868129D01*
X148102756Y-41861590D01*
X148111944Y-41850946D01*
X148112269Y-41847528D01*
X148101783Y-41820365D01*
X148075538Y-41782312D01*
X148064255Y-41768988D01*
X148022368Y-41731305D01*
X147978705Y-41716489D01*
X147955181Y-41715251D01*
X147891539Y-41730738D01*
X147838169Y-41772339D01*
X147804315Y-41832762D01*
X147803715Y-41834731D01*
X147799785Y-41852095D01*
X147632471Y-41852095D01*
X147651195Y-41763337D01*
X147686218Y-41689599D01*
X147729052Y-41637257D01*
X147808244Y-41580501D01*
X147901336Y-41550171D01*
X148000351Y-41547430D01*
X148097314Y-41573436D01*
G36*
X146527080Y-41563513D02*
G01*
X146614501Y-41602163D01*
X146680866Y-41666699D01*
X146726272Y-41757221D01*
X146750814Y-41873827D01*
X146752573Y-41892033D01*
X146753952Y-42020393D01*
X146736080Y-42132905D01*
X146700046Y-42224097D01*
X146680751Y-42253431D01*
X146613541Y-42315515D01*
X146527946Y-42355725D01*
X146432186Y-42372412D01*
X146334483Y-42363926D01*
X146260213Y-42337789D01*
X146196343Y-42293744D01*
X146144142Y-42235996D01*
X146143239Y-42234645D01*
X146122040Y-42199002D01*
X146108263Y-42163161D01*
X146099920Y-42117928D01*
X146095023Y-42054110D01*
X146092865Y-42001777D01*
X146091967Y-41954319D01*
X146259039Y-41954319D01*
X146260672Y-42001563D01*
X146266600Y-42064455D01*
X146277057Y-42104816D01*
X146295915Y-42133531D01*
X146313577Y-42150305D01*
X146376190Y-42185425D01*
X146441704Y-42190119D01*
X146502717Y-42164849D01*
X146533224Y-42136533D01*
X146555207Y-42107998D01*
X146568065Y-42080693D01*
X146573708Y-42045159D01*
X146574047Y-41991933D01*
X146572308Y-41942915D01*
X146568567Y-41872891D01*
X146562637Y-41827473D01*
X146551949Y-41797849D01*
X146533935Y-41775206D01*
X146519659Y-41762264D01*
X146459947Y-41728269D01*
X146395530Y-41726574D01*
X146341515Y-41746710D01*
X146295436Y-41788761D01*
X146267985Y-41857837D01*
X146259039Y-41954319D01*
X146091967Y-41954319D01*
X146090895Y-41897708D01*
X146094260Y-41819877D01*
X146104341Y-41761339D01*
X146122522Y-41715146D01*
X146150186Y-41674351D01*
X146160442Y-41662237D01*
X146224574Y-41601883D01*
X146293362Y-41566629D01*
X146377485Y-41551859D01*
X146418505Y-41550652D01*
X146527080Y-41563513D01*
X146527080Y-41563513D01*
G37*
X146527080Y-41563513D02*
X146614501Y-41602163D01*
X146680866Y-41666699D01*
X146726272Y-41757221D01*
X146750814Y-41873827D01*
X146752573Y-41892033D01*
X146753952Y-42020393D01*
X146736080Y-42132905D01*
X146700046Y-42224097D01*
X146680751Y-42253431D01*
X146613541Y-42315515D01*
X146527946Y-42355725D01*
X146432186Y-42372412D01*
X146334483Y-42363926D01*
X146260213Y-42337789D01*
X146196343Y-42293744D01*
X146144142Y-42235996D01*
X146143239Y-42234645D01*
X146122040Y-42199002D01*
X146108263Y-42163161D01*
X146099920Y-42117928D01*
X146095023Y-42054110D01*
X146092865Y-42001777D01*
X146091967Y-41954319D01*
X146259039Y-41954319D01*
X146260672Y-42001563D01*
X146266600Y-42064455D01*
X146277057Y-42104816D01*
X146295915Y-42133531D01*
X146313577Y-42150305D01*
X146376190Y-42185425D01*
X146441704Y-42190119D01*
X146502717Y-42164849D01*
X146533224Y-42136533D01*
X146555207Y-42107998D01*
X146568065Y-42080693D01*
X146573708Y-42045159D01*
X146574047Y-41991933D01*
X146572308Y-41942915D01*
X146568567Y-41872891D01*
X146562637Y-41827473D01*
X146551949Y-41797849D01*
X146533935Y-41775206D01*
X146519659Y-41762264D01*
X146459947Y-41728269D01*
X146395530Y-41726574D01*
X146341515Y-41746710D01*
X146295436Y-41788761D01*
X146267985Y-41857837D01*
X146259039Y-41954319D01*
X146091967Y-41954319D01*
X146090895Y-41897708D01*
X146094260Y-41819877D01*
X146104341Y-41761339D01*
X146122522Y-41715146D01*
X146150186Y-41674351D01*
X146160442Y-41662237D01*
X146224574Y-41601883D01*
X146293362Y-41566629D01*
X146377485Y-41551859D01*
X146418505Y-41550652D01*
X146527080Y-41563513D01*
G36*
X152601489Y-42812487D02*
G01*
X152681364Y-42833254D01*
X152748258Y-42876114D01*
X152780647Y-42908132D01*
X152833741Y-42983822D01*
X152864169Y-43071625D01*
X152874623Y-43179559D01*
X152874676Y-43188284D01*
X152874769Y-43276014D01*
X152369830Y-43276014D01*
X152380594Y-43321968D01*
X152400028Y-43363587D01*
X152434041Y-43406953D01*
X152441156Y-43413876D01*
X152502299Y-43451344D01*
X152572025Y-43457698D01*
X152652283Y-43433047D01*
X152665888Y-43426409D01*
X152707615Y-43406228D01*
X152735564Y-43394730D01*
X152740441Y-43393667D01*
X152757464Y-43403992D01*
X152789929Y-43429254D01*
X152806410Y-43443059D01*
X152840560Y-43474770D01*
X152851774Y-43495708D01*
X152843991Y-43514969D01*
X152839831Y-43520236D01*
X152811653Y-43543287D01*
X152765158Y-43571301D01*
X152732730Y-43587655D01*
X152640681Y-43616468D01*
X152538772Y-43625804D01*
X152442259Y-43614741D01*
X152415230Y-43606821D01*
X152331572Y-43561990D01*
X152269562Y-43493007D01*
X152228841Y-43399203D01*
X152209051Y-43279907D01*
X152206878Y-43217527D01*
X152213222Y-43126707D01*
X152373453Y-43126707D01*
X152388951Y-43133421D01*
X152430608Y-43138689D01*
X152491172Y-43141798D01*
X152532203Y-43142330D01*
X152606007Y-43141817D01*
X152652589Y-43139415D01*
X152678144Y-43133831D01*
X152688865Y-43123770D01*
X152690953Y-43109172D01*
X152676627Y-43064205D01*
X152640558Y-43019762D01*
X152593111Y-42985651D01*
X152545645Y-42971697D01*
X152481175Y-42984075D01*
X152425366Y-43019861D01*
X152386670Y-43071442D01*
X152373453Y-43126707D01*
X152213222Y-43126707D01*
X152216117Y-43085275D01*
X152244632Y-42979907D01*
X152293025Y-42900587D01*
X152361900Y-42846480D01*
X152451861Y-42816752D01*
X152500596Y-42811027D01*
X152601489Y-42812487D01*
X152601489Y-42812487D01*
G37*
X152601489Y-42812487D02*
X152681364Y-42833254D01*
X152748258Y-42876114D01*
X152780647Y-42908132D01*
X152833741Y-42983822D01*
X152864169Y-43071625D01*
X152874623Y-43179559D01*
X152874676Y-43188284D01*
X152874769Y-43276014D01*
X152369830Y-43276014D01*
X152380594Y-43321968D01*
X152400028Y-43363587D01*
X152434041Y-43406953D01*
X152441156Y-43413876D01*
X152502299Y-43451344D01*
X152572025Y-43457698D01*
X152652283Y-43433047D01*
X152665888Y-43426409D01*
X152707615Y-43406228D01*
X152735564Y-43394730D01*
X152740441Y-43393667D01*
X152757464Y-43403992D01*
X152789929Y-43429254D01*
X152806410Y-43443059D01*
X152840560Y-43474770D01*
X152851774Y-43495708D01*
X152843991Y-43514969D01*
X152839831Y-43520236D01*
X152811653Y-43543287D01*
X152765158Y-43571301D01*
X152732730Y-43587655D01*
X152640681Y-43616468D01*
X152538772Y-43625804D01*
X152442259Y-43614741D01*
X152415230Y-43606821D01*
X152331572Y-43561990D01*
X152269562Y-43493007D01*
X152228841Y-43399203D01*
X152209051Y-43279907D01*
X152206878Y-43217527D01*
X152213222Y-43126707D01*
X152373453Y-43126707D01*
X152388951Y-43133421D01*
X152430608Y-43138689D01*
X152491172Y-43141798D01*
X152532203Y-43142330D01*
X152606007Y-43141817D01*
X152652589Y-43139415D01*
X152678144Y-43133831D01*
X152688865Y-43123770D01*
X152690953Y-43109172D01*
X152676627Y-43064205D01*
X152640558Y-43019762D01*
X152593111Y-42985651D01*
X152545645Y-42971697D01*
X152481175Y-42984075D01*
X152425366Y-43019861D01*
X152386670Y-43071442D01*
X152373453Y-43126707D01*
X152213222Y-43126707D01*
X152216117Y-43085275D01*
X152244632Y-42979907D01*
X152293025Y-42900587D01*
X152361900Y-42846480D01*
X152451861Y-42816752D01*
X152500596Y-42811027D01*
X152601489Y-42812487D01*
G36*
X152073463Y-42807856D02*
G01*
X152137704Y-42820521D01*
X152174276Y-42839273D01*
X152212749Y-42870426D01*
X152158013Y-42939536D01*
X152124265Y-42981388D01*
X152101349Y-43001807D01*
X152078575Y-43004926D01*
X152045252Y-42994881D01*
X152029610Y-42989198D01*
X151965838Y-42980813D01*
X151907436Y-42998787D01*
X151864560Y-43039391D01*
X151857595Y-43052338D01*
X151850009Y-43086633D01*
X151844155Y-43149836D01*
X151840307Y-43237469D01*
X151838739Y-43345049D01*
X151838717Y-43360353D01*
X151838717Y-43626935D01*
X151654901Y-43626935D01*
X151654901Y-42808119D01*
X151746809Y-42808119D01*
X151799803Y-42809503D01*
X151827411Y-42815661D01*
X151837620Y-42829603D01*
X151838717Y-42842753D01*
X151838717Y-42877387D01*
X151882746Y-42842753D01*
X151933233Y-42819125D01*
X152001056Y-42807442D01*
X152073463Y-42807856D01*
X152073463Y-42807856D01*
G37*
X152073463Y-42807856D02*
X152137704Y-42820521D01*
X152174276Y-42839273D01*
X152212749Y-42870426D01*
X152158013Y-42939536D01*
X152124265Y-42981388D01*
X152101349Y-43001807D01*
X152078575Y-43004926D01*
X152045252Y-42994881D01*
X152029610Y-42989198D01*
X151965838Y-42980813D01*
X151907436Y-42998787D01*
X151864560Y-43039391D01*
X151857595Y-43052338D01*
X151850009Y-43086633D01*
X151844155Y-43149836D01*
X151840307Y-43237469D01*
X151838739Y-43345049D01*
X151838717Y-43360353D01*
X151838717Y-43626935D01*
X151654901Y-43626935D01*
X151654901Y-42808119D01*
X151746809Y-42808119D01*
X151799803Y-42809503D01*
X151827411Y-42815661D01*
X151837620Y-42829603D01*
X151838717Y-42842753D01*
X151838717Y-42877387D01*
X151882746Y-42842753D01*
X151933233Y-42819125D01*
X152001056Y-42807442D01*
X152073463Y-42807856D01*
G36*
X151280288Y-42813082D02*
G01*
X151350723Y-42830189D01*
X151371083Y-42839253D01*
X151410549Y-42862992D01*
X151440837Y-42889730D01*
X151463248Y-42924108D01*
X151479082Y-42970769D01*
X151489639Y-43034355D01*
X151496220Y-43119508D01*
X151500124Y-43230871D01*
X151501606Y-43305258D01*
X151507061Y-43626935D01*
X151413876Y-43626935D01*
X151357343Y-43624565D01*
X151328218Y-43616464D01*
X151320690Y-43602860D01*
X151316716Y-43588150D01*
X151298948Y-43590963D01*
X151274736Y-43602757D01*
X151214124Y-43620836D01*
X151136225Y-43625708D01*
X151054291Y-43617739D01*
X150981577Y-43597298D01*
X150975055Y-43594460D01*
X150908598Y-43547774D01*
X150864787Y-43482873D01*
X150844628Y-43407009D01*
X150846168Y-43379753D01*
X151010641Y-43379753D01*
X151025133Y-43416433D01*
X151068101Y-43442718D01*
X151137425Y-43456826D01*
X151174473Y-43458699D01*
X151236215Y-43453903D01*
X151277256Y-43435267D01*
X151287269Y-43426409D01*
X151314396Y-43378215D01*
X151320690Y-43334501D01*
X151320690Y-43276014D01*
X151239226Y-43276014D01*
X151144530Y-43280841D01*
X151078109Y-43296022D01*
X151036142Y-43322609D01*
X151026745Y-43334461D01*
X151010641Y-43379753D01*
X150846168Y-43379753D01*
X150849125Y-43327435D01*
X150879281Y-43251404D01*
X150920427Y-43200021D01*
X150945348Y-43177806D01*
X150969744Y-43163207D01*
X151001487Y-43154306D01*
X151048448Y-43149184D01*
X151118500Y-43145924D01*
X151146286Y-43144986D01*
X151320690Y-43139288D01*
X151320434Y-43086500D01*
X151313680Y-43031012D01*
X151289260Y-42997461D01*
X151239926Y-42976027D01*
X151238602Y-42975645D01*
X151168656Y-42967217D01*
X151100210Y-42978225D01*
X151049343Y-43004994D01*
X151028933Y-43018212D01*
X151006950Y-43016383D01*
X150973122Y-42997233D01*
X150953257Y-42983717D01*
X150914402Y-42954841D01*
X150890334Y-42933195D01*
X150886472Y-42926998D01*
X150902375Y-42894928D01*
X150949361Y-42856628D01*
X150969769Y-42843706D01*
X151028439Y-42821450D01*
X151107508Y-42808841D01*
X151195337Y-42806009D01*
X151280288Y-42813082D01*
X151280288Y-42813082D01*
G37*
X151280288Y-42813082D02*
X151350723Y-42830189D01*
X151371083Y-42839253D01*
X151410549Y-42862992D01*
X151440837Y-42889730D01*
X151463248Y-42924108D01*
X151479082Y-42970769D01*
X151489639Y-43034355D01*
X151496220Y-43119508D01*
X151500124Y-43230871D01*
X151501606Y-43305258D01*
X151507061Y-43626935D01*
X151413876Y-43626935D01*
X151357343Y-43624565D01*
X151328218Y-43616464D01*
X151320690Y-43602860D01*
X151316716Y-43588150D01*
X151298948Y-43590963D01*
X151274736Y-43602757D01*
X151214124Y-43620836D01*
X151136225Y-43625708D01*
X151054291Y-43617739D01*
X150981577Y-43597298D01*
X150975055Y-43594460D01*
X150908598Y-43547774D01*
X150864787Y-43482873D01*
X150844628Y-43407009D01*
X150846168Y-43379753D01*
X151010641Y-43379753D01*
X151025133Y-43416433D01*
X151068101Y-43442718D01*
X151137425Y-43456826D01*
X151174473Y-43458699D01*
X151236215Y-43453903D01*
X151277256Y-43435267D01*
X151287269Y-43426409D01*
X151314396Y-43378215D01*
X151320690Y-43334501D01*
X151320690Y-43276014D01*
X151239226Y-43276014D01*
X151144530Y-43280841D01*
X151078109Y-43296022D01*
X151036142Y-43322609D01*
X151026745Y-43334461D01*
X151010641Y-43379753D01*
X150846168Y-43379753D01*
X150849125Y-43327435D01*
X150879281Y-43251404D01*
X150920427Y-43200021D01*
X150945348Y-43177806D01*
X150969744Y-43163207D01*
X151001487Y-43154306D01*
X151048448Y-43149184D01*
X151118500Y-43145924D01*
X151146286Y-43144986D01*
X151320690Y-43139288D01*
X151320434Y-43086500D01*
X151313680Y-43031012D01*
X151289260Y-42997461D01*
X151239926Y-42976027D01*
X151238602Y-42975645D01*
X151168656Y-42967217D01*
X151100210Y-42978225D01*
X151049343Y-43004994D01*
X151028933Y-43018212D01*
X151006950Y-43016383D01*
X150973122Y-42997233D01*
X150953257Y-42983717D01*
X150914402Y-42954841D01*
X150890334Y-42933195D01*
X150886472Y-42926998D01*
X150902375Y-42894928D01*
X150949361Y-42856628D01*
X150969769Y-42843706D01*
X151028439Y-42821450D01*
X151107508Y-42808841D01*
X151195337Y-42806009D01*
X151280288Y-42813082D01*
G36*
X150274426Y-42811513D02*
G01*
X150340516Y-42816475D01*
X150426922Y-43075488D01*
X150513327Y-43334501D01*
X150540420Y-43242593D01*
X150556724Y-43185793D01*
X150578171Y-43109034D01*
X150601331Y-43024660D01*
X150613576Y-42979402D01*
X150659640Y-42808119D01*
X150849683Y-42808119D01*
X150792878Y-42987758D01*
X150764903Y-43076113D01*
X150731109Y-43182690D01*
X150695816Y-43293863D01*
X150664309Y-43392988D01*
X150592546Y-43618580D01*
X150437582Y-43628662D01*
X150395566Y-43489937D01*
X150369655Y-43403760D01*
X150341379Y-43308756D01*
X150316665Y-43224850D01*
X150315690Y-43221511D01*
X150297231Y-43164657D01*
X150280945Y-43125865D01*
X150269538Y-43111196D01*
X150267194Y-43112892D01*
X150258967Y-43135634D01*
X150243334Y-43184349D01*
X150222200Y-43252911D01*
X150197466Y-43335194D01*
X150184083Y-43380455D01*
X150111607Y-43626935D01*
X149957791Y-43626935D01*
X149834827Y-43238415D01*
X149800284Y-43129431D01*
X149768817Y-43030457D01*
X149741912Y-42946145D01*
X149721055Y-42881143D01*
X149707734Y-42840101D01*
X149703684Y-42828110D01*
X149706890Y-42815832D01*
X149732061Y-42810455D01*
X149784442Y-42810993D01*
X149792641Y-42811399D01*
X149889778Y-42816475D01*
X149953396Y-43050422D01*
X149976780Y-43135742D01*
X149997677Y-43210744D01*
X150014247Y-43268916D01*
X150024650Y-43303746D01*
X150026572Y-43309425D01*
X150034537Y-43302895D01*
X150050600Y-43269063D01*
X150072917Y-43212536D01*
X150099641Y-43137919D01*
X150122233Y-43070516D01*
X150208337Y-42806552D01*
X150274426Y-42811513D01*
X150274426Y-42811513D01*
G37*
X150274426Y-42811513D02*
X150340516Y-42816475D01*
X150426922Y-43075488D01*
X150513327Y-43334501D01*
X150540420Y-43242593D01*
X150556724Y-43185793D01*
X150578171Y-43109034D01*
X150601331Y-43024660D01*
X150613576Y-42979402D01*
X150659640Y-42808119D01*
X150849683Y-42808119D01*
X150792878Y-42987758D01*
X150764903Y-43076113D01*
X150731109Y-43182690D01*
X150695816Y-43293863D01*
X150664309Y-43392988D01*
X150592546Y-43618580D01*
X150437582Y-43628662D01*
X150395566Y-43489937D01*
X150369655Y-43403760D01*
X150341379Y-43308756D01*
X150316665Y-43224850D01*
X150315690Y-43221511D01*
X150297231Y-43164657D01*
X150280945Y-43125865D01*
X150269538Y-43111196D01*
X150267194Y-43112892D01*
X150258967Y-43135634D01*
X150243334Y-43184349D01*
X150222200Y-43252911D01*
X150197466Y-43335194D01*
X150184083Y-43380455D01*
X150111607Y-43626935D01*
X149957791Y-43626935D01*
X149834827Y-43238415D01*
X149800284Y-43129431D01*
X149768817Y-43030457D01*
X149741912Y-42946145D01*
X149721055Y-42881143D01*
X149707734Y-42840101D01*
X149703684Y-42828110D01*
X149706890Y-42815832D01*
X149732061Y-42810455D01*
X149784442Y-42810993D01*
X149792641Y-42811399D01*
X149889778Y-42816475D01*
X149953396Y-43050422D01*
X149976780Y-43135742D01*
X149997677Y-43210744D01*
X150014247Y-43268916D01*
X150024650Y-43303746D01*
X150026572Y-43309425D01*
X150034537Y-43302895D01*
X150050600Y-43269063D01*
X150072917Y-43212536D01*
X150099641Y-43137919D01*
X150122233Y-43070516D01*
X150208337Y-42806552D01*
X150274426Y-42811513D01*
G36*
X149632927Y-43626935D02*
G01*
X149541019Y-43626935D01*
X149487673Y-43625371D01*
X149459889Y-43618894D01*
X149449886Y-43604827D01*
X149449111Y-43595315D01*
X149447424Y-43576241D01*
X149436786Y-43572583D01*
X149408831Y-43584341D01*
X149387091Y-43595315D01*
X149303628Y-43621320D01*
X149212900Y-43622825D01*
X149139138Y-43603430D01*
X149070450Y-43556574D01*
X149018090Y-43487413D01*
X148989418Y-43405836D01*
X148988688Y-43401275D01*
X148984428Y-43351510D01*
X148982310Y-43280068D01*
X148982480Y-43226035D01*
X149165016Y-43226035D01*
X149169245Y-43297850D01*
X149178864Y-43357043D01*
X149191886Y-43390469D01*
X149241152Y-43436149D01*
X149299646Y-43452524D01*
X149359967Y-43439282D01*
X149411513Y-43399782D01*
X149431034Y-43373216D01*
X149442448Y-43341515D01*
X149447794Y-43295241D01*
X149449111Y-43225737D01*
X149446754Y-43156908D01*
X149440529Y-43096435D01*
X149431704Y-43055965D01*
X149430233Y-43052338D01*
X149394643Y-43009211D01*
X149342696Y-42985533D01*
X149284574Y-42981710D01*
X149230456Y-42998147D01*
X149190522Y-43035249D01*
X149186379Y-43042631D01*
X149173412Y-43087648D01*
X149166348Y-43152376D01*
X149165016Y-43226035D01*
X148982480Y-43226035D01*
X148982567Y-43198639D01*
X148983768Y-43154814D01*
X148991941Y-43046397D01*
X149008926Y-42964997D01*
X149037183Y-42904821D01*
X149079168Y-42860075D01*
X149119928Y-42833809D01*
X149176877Y-42815344D01*
X149247707Y-42809011D01*
X149320237Y-42814169D01*
X149382282Y-42830178D01*
X149415064Y-42849329D01*
X149449111Y-42880141D01*
X149449111Y-42490619D01*
X149632927Y-42490619D01*
X149632927Y-43626935D01*
X149632927Y-43626935D01*
G37*
X149632927Y-43626935D02*
X149541019Y-43626935D01*
X149487673Y-43625371D01*
X149459889Y-43618894D01*
X149449886Y-43604827D01*
X149449111Y-43595315D01*
X149447424Y-43576241D01*
X149436786Y-43572583D01*
X149408831Y-43584341D01*
X149387091Y-43595315D01*
X149303628Y-43621320D01*
X149212900Y-43622825D01*
X149139138Y-43603430D01*
X149070450Y-43556574D01*
X149018090Y-43487413D01*
X148989418Y-43405836D01*
X148988688Y-43401275D01*
X148984428Y-43351510D01*
X148982310Y-43280068D01*
X148982480Y-43226035D01*
X149165016Y-43226035D01*
X149169245Y-43297850D01*
X149178864Y-43357043D01*
X149191886Y-43390469D01*
X149241152Y-43436149D01*
X149299646Y-43452524D01*
X149359967Y-43439282D01*
X149411513Y-43399782D01*
X149431034Y-43373216D01*
X149442448Y-43341515D01*
X149447794Y-43295241D01*
X149449111Y-43225737D01*
X149446754Y-43156908D01*
X149440529Y-43096435D01*
X149431704Y-43055965D01*
X149430233Y-43052338D01*
X149394643Y-43009211D01*
X149342696Y-42985533D01*
X149284574Y-42981710D01*
X149230456Y-42998147D01*
X149190522Y-43035249D01*
X149186379Y-43042631D01*
X149173412Y-43087648D01*
X149166348Y-43152376D01*
X149165016Y-43226035D01*
X148982480Y-43226035D01*
X148982567Y-43198639D01*
X148983768Y-43154814D01*
X148991941Y-43046397D01*
X149008926Y-42964997D01*
X149037183Y-42904821D01*
X149079168Y-42860075D01*
X149119928Y-42833809D01*
X149176877Y-42815344D01*
X149247707Y-42809011D01*
X149320237Y-42814169D01*
X149382282Y-42830178D01*
X149415064Y-42849329D01*
X149449111Y-42880141D01*
X149449111Y-42490619D01*
X149632927Y-42490619D01*
X149632927Y-43626935D01*
G36*
X148580177Y-42809895D02*
G01*
X148605184Y-42817391D01*
X148613246Y-42833860D01*
X148613585Y-42841295D01*
X148615032Y-42862003D01*
X148624994Y-42865254D01*
X148651908Y-42851057D01*
X148667894Y-42841357D01*
X148718329Y-42820584D01*
X148778568Y-42810313D01*
X148841730Y-42809523D01*
X148900933Y-42817195D01*
X148949298Y-42832307D01*
X148979942Y-42853841D01*
X148985985Y-42880775D01*
X148982935Y-42888069D01*
X148960702Y-42918346D01*
X148926226Y-42955584D01*
X148919990Y-42961604D01*
X148887129Y-42989284D01*
X148858776Y-42998227D01*
X148819123Y-42991985D01*
X148803238Y-42987838D01*
X148753805Y-42977876D01*
X148719048Y-42982356D01*
X148689696Y-42998155D01*
X148662809Y-43019358D01*
X148643006Y-43046023D01*
X148629244Y-43083236D01*
X148620480Y-43136082D01*
X148615670Y-43209646D01*
X148613770Y-43309014D01*
X148613585Y-43369010D01*
X148613585Y-43626935D01*
X148446480Y-43626935D01*
X148446480Y-42808119D01*
X148530032Y-42808119D01*
X148580177Y-42809895D01*
X148580177Y-42809895D01*
G37*
X148580177Y-42809895D02*
X148605184Y-42817391D01*
X148613246Y-42833860D01*
X148613585Y-42841295D01*
X148615032Y-42862003D01*
X148624994Y-42865254D01*
X148651908Y-42851057D01*
X148667894Y-42841357D01*
X148718329Y-42820584D01*
X148778568Y-42810313D01*
X148841730Y-42809523D01*
X148900933Y-42817195D01*
X148949298Y-42832307D01*
X148979942Y-42853841D01*
X148985985Y-42880775D01*
X148982935Y-42888069D01*
X148960702Y-42918346D01*
X148926226Y-42955584D01*
X148919990Y-42961604D01*
X148887129Y-42989284D01*
X148858776Y-42998227D01*
X148819123Y-42991985D01*
X148803238Y-42987838D01*
X148753805Y-42977876D01*
X148719048Y-42982356D01*
X148689696Y-42998155D01*
X148662809Y-43019358D01*
X148643006Y-43046023D01*
X148629244Y-43083236D01*
X148620480Y-43136082D01*
X148615670Y-43209646D01*
X148613770Y-43309014D01*
X148613585Y-43369010D01*
X148613585Y-43626935D01*
X148446480Y-43626935D01*
X148446480Y-42808119D01*
X148530032Y-42808119D01*
X148580177Y-42809895D01*
G36*
X148060753Y-42814593D02*
G01*
X148139366Y-42835569D01*
X148199212Y-42873589D01*
X148241443Y-42923387D01*
X148254571Y-42944639D01*
X148264264Y-42966901D01*
X148271040Y-42995379D01*
X148275419Y-43035280D01*
X148277920Y-43091810D01*
X148279064Y-43170176D01*
X148279368Y-43275585D01*
X148279374Y-43303551D01*
X148279374Y-43626935D01*
X148199164Y-43626935D01*
X148148002Y-43623352D01*
X148110173Y-43614275D01*
X148100695Y-43608677D01*
X148074784Y-43599015D01*
X148048320Y-43608677D01*
X148004748Y-43620739D01*
X147941456Y-43625594D01*
X147871306Y-43623487D01*
X147807156Y-43614665D01*
X147769703Y-43603346D01*
X147697229Y-43556821D01*
X147651936Y-43492255D01*
X147631574Y-43406409D01*
X147631384Y-43404205D01*
X147633171Y-43366122D01*
X147794769Y-43366122D01*
X147808897Y-43409439D01*
X147831908Y-43433817D01*
X147878100Y-43452254D01*
X147939071Y-43459614D01*
X148001245Y-43455992D01*
X148051047Y-43441483D01*
X148064999Y-43432174D01*
X148089381Y-43389162D01*
X148095559Y-43340266D01*
X148095559Y-43276014D01*
X148003114Y-43276014D01*
X147915291Y-43282775D01*
X147848714Y-43301929D01*
X147807298Y-43331785D01*
X147794769Y-43366122D01*
X147633171Y-43366122D01*
X147635786Y-43310413D01*
X147666720Y-43236256D01*
X147724877Y-43180176D01*
X147732916Y-43175074D01*
X147767459Y-43158464D01*
X147810214Y-43148405D01*
X147869982Y-43143516D01*
X147940986Y-43142392D01*
X148095559Y-43142330D01*
X148095559Y-43077534D01*
X148089002Y-43027259D01*
X148072271Y-42993578D01*
X148070312Y-42991785D01*
X148033079Y-42977051D01*
X147976876Y-42971340D01*
X147914763Y-42974146D01*
X147859806Y-42984965D01*
X147827195Y-43001191D01*
X147809524Y-43014189D01*
X147790865Y-43016671D01*
X147765115Y-43006022D01*
X147726169Y-42979627D01*
X147667926Y-42934874D01*
X147662580Y-42930682D01*
X147665319Y-42915169D01*
X147688172Y-42889369D01*
X147722905Y-42860698D01*
X147761286Y-42836575D01*
X147773344Y-42830879D01*
X147817330Y-42819512D01*
X147881783Y-42811404D01*
X147953793Y-42808152D01*
X147957160Y-42808145D01*
X148060753Y-42814593D01*
X148060753Y-42814593D01*
G37*
X148060753Y-42814593D02*
X148139366Y-42835569D01*
X148199212Y-42873589D01*
X148241443Y-42923387D01*
X148254571Y-42944639D01*
X148264264Y-42966901D01*
X148271040Y-42995379D01*
X148275419Y-43035280D01*
X148277920Y-43091810D01*
X148279064Y-43170176D01*
X148279368Y-43275585D01*
X148279374Y-43303551D01*
X148279374Y-43626935D01*
X148199164Y-43626935D01*
X148148002Y-43623352D01*
X148110173Y-43614275D01*
X148100695Y-43608677D01*
X148074784Y-43599015D01*
X148048320Y-43608677D01*
X148004748Y-43620739D01*
X147941456Y-43625594D01*
X147871306Y-43623487D01*
X147807156Y-43614665D01*
X147769703Y-43603346D01*
X147697229Y-43556821D01*
X147651936Y-43492255D01*
X147631574Y-43406409D01*
X147631384Y-43404205D01*
X147633171Y-43366122D01*
X147794769Y-43366122D01*
X147808897Y-43409439D01*
X147831908Y-43433817D01*
X147878100Y-43452254D01*
X147939071Y-43459614D01*
X148001245Y-43455992D01*
X148051047Y-43441483D01*
X148064999Y-43432174D01*
X148089381Y-43389162D01*
X148095559Y-43340266D01*
X148095559Y-43276014D01*
X148003114Y-43276014D01*
X147915291Y-43282775D01*
X147848714Y-43301929D01*
X147807298Y-43331785D01*
X147794769Y-43366122D01*
X147633171Y-43366122D01*
X147635786Y-43310413D01*
X147666720Y-43236256D01*
X147724877Y-43180176D01*
X147732916Y-43175074D01*
X147767459Y-43158464D01*
X147810214Y-43148405D01*
X147869982Y-43143516D01*
X147940986Y-43142392D01*
X148095559Y-43142330D01*
X148095559Y-43077534D01*
X148089002Y-43027259D01*
X148072271Y-42993578D01*
X148070312Y-42991785D01*
X148033079Y-42977051D01*
X147976876Y-42971340D01*
X147914763Y-42974146D01*
X147859806Y-42984965D01*
X147827195Y-43001191D01*
X147809524Y-43014189D01*
X147790865Y-43016671D01*
X147765115Y-43006022D01*
X147726169Y-42979627D01*
X147667926Y-42934874D01*
X147662580Y-42930682D01*
X147665319Y-42915169D01*
X147688172Y-42889369D01*
X147722905Y-42860698D01*
X147761286Y-42836575D01*
X147773344Y-42830879D01*
X147817330Y-42819512D01*
X147881783Y-42811404D01*
X147953793Y-42808152D01*
X147957160Y-42808145D01*
X148060753Y-42814593D01*
G36*
X147363656Y-41568877D02*
G01*
X147398888Y-41586283D01*
X147442336Y-41616615D01*
X147474002Y-41649692D01*
X147495690Y-41691226D01*
X147509199Y-41746931D01*
X147516334Y-41822520D01*
X147518896Y-41923705D01*
X147519046Y-41967206D01*
X147518608Y-42062544D01*
X147516792Y-42130680D01*
X147512841Y-42177827D01*
X147505998Y-42210199D01*
X147495507Y-42234009D01*
X147484592Y-42250252D01*
X147414915Y-42319361D01*
X147332862Y-42360930D01*
X147244346Y-42373432D01*
X147155277Y-42355343D01*
X147127059Y-42342551D01*
X147059506Y-42307340D01*
X147059506Y-42859109D01*
X147108808Y-42833614D01*
X147173769Y-42813889D01*
X147253616Y-42808836D01*
X147333348Y-42818165D01*
X147393561Y-42839123D01*
X147443504Y-42879036D01*
X147486177Y-42936150D01*
X147489386Y-42942014D01*
X147502918Y-42969636D01*
X147512801Y-42997477D01*
X147519605Y-43031203D01*
X147523897Y-43076480D01*
X147526247Y-43138971D01*
X147527224Y-43224344D01*
X147527401Y-43320419D01*
X147527401Y-43626935D01*
X147343585Y-43626935D01*
X147343585Y-43061748D01*
X147292171Y-43018486D01*
X147238762Y-42983881D01*
X147188184Y-42977589D01*
X147137326Y-42993781D01*
X147110221Y-43009636D01*
X147090047Y-43032219D01*
X147075699Y-43066349D01*
X147066072Y-43116843D01*
X147060059Y-43188520D01*
X147056556Y-43286197D01*
X147055322Y-43351211D01*
X147051151Y-43618580D01*
X146963421Y-43623631D01*
X146875690Y-43628682D01*
X146875690Y-41969510D01*
X147059506Y-41969510D01*
X147064192Y-42062009D01*
X147079984Y-42126218D01*
X147109479Y-42166168D01*
X147155276Y-42185889D01*
X147201546Y-42189830D01*
X147253924Y-42185301D01*
X147288686Y-42167478D01*
X147310424Y-42143928D01*
X147327536Y-42118598D01*
X147337723Y-42090378D01*
X147342256Y-42050840D01*
X147342405Y-41991551D01*
X147340880Y-41941907D01*
X147337377Y-41867119D01*
X147332163Y-41818020D01*
X147323383Y-41786876D01*
X147309182Y-41765954D01*
X147295780Y-41753861D01*
X147239783Y-41727490D01*
X147173507Y-41723231D01*
X147135452Y-41732315D01*
X147097773Y-41764605D01*
X147072815Y-41827415D01*
X147060718Y-41920303D01*
X147059506Y-41969510D01*
X146875690Y-41969510D01*
X146875690Y-41554830D01*
X146967598Y-41554830D01*
X147022779Y-41557012D01*
X147051248Y-41564760D01*
X147059502Y-41579877D01*
X147059506Y-41580325D01*
X147063336Y-41595129D01*
X147080229Y-41593448D01*
X147113815Y-41577181D01*
X147192074Y-41552296D01*
X147280123Y-41549680D01*
X147363656Y-41568877D01*
X147363656Y-41568877D01*
G37*
X147363656Y-41568877D02*
X147398888Y-41586283D01*
X147442336Y-41616615D01*
X147474002Y-41649692D01*
X147495690Y-41691226D01*
X147509199Y-41746931D01*
X147516334Y-41822520D01*
X147518896Y-41923705D01*
X147519046Y-41967206D01*
X147518608Y-42062544D01*
X147516792Y-42130680D01*
X147512841Y-42177827D01*
X147505998Y-42210199D01*
X147495507Y-42234009D01*
X147484592Y-42250252D01*
X147414915Y-42319361D01*
X147332862Y-42360930D01*
X147244346Y-42373432D01*
X147155277Y-42355343D01*
X147127059Y-42342551D01*
X147059506Y-42307340D01*
X147059506Y-42859109D01*
X147108808Y-42833614D01*
X147173769Y-42813889D01*
X147253616Y-42808836D01*
X147333348Y-42818165D01*
X147393561Y-42839123D01*
X147443504Y-42879036D01*
X147486177Y-42936150D01*
X147489386Y-42942014D01*
X147502918Y-42969636D01*
X147512801Y-42997477D01*
X147519605Y-43031203D01*
X147523897Y-43076480D01*
X147526247Y-43138971D01*
X147527224Y-43224344D01*
X147527401Y-43320419D01*
X147527401Y-43626935D01*
X147343585Y-43626935D01*
X147343585Y-43061748D01*
X147292171Y-43018486D01*
X147238762Y-42983881D01*
X147188184Y-42977589D01*
X147137326Y-42993781D01*
X147110221Y-43009636D01*
X147090047Y-43032219D01*
X147075699Y-43066349D01*
X147066072Y-43116843D01*
X147060059Y-43188520D01*
X147056556Y-43286197D01*
X147055322Y-43351211D01*
X147051151Y-43618580D01*
X146963421Y-43623631D01*
X146875690Y-43628682D01*
X146875690Y-41969510D01*
X147059506Y-41969510D01*
X147064192Y-42062009D01*
X147079984Y-42126218D01*
X147109479Y-42166168D01*
X147155276Y-42185889D01*
X147201546Y-42189830D01*
X147253924Y-42185301D01*
X147288686Y-42167478D01*
X147310424Y-42143928D01*
X147327536Y-42118598D01*
X147337723Y-42090378D01*
X147342256Y-42050840D01*
X147342405Y-41991551D01*
X147340880Y-41941907D01*
X147337377Y-41867119D01*
X147332163Y-41818020D01*
X147323383Y-41786876D01*
X147309182Y-41765954D01*
X147295780Y-41753861D01*
X147239783Y-41727490D01*
X147173507Y-41723231D01*
X147135452Y-41732315D01*
X147097773Y-41764605D01*
X147072815Y-41827415D01*
X147060718Y-41920303D01*
X147059506Y-41969510D01*
X146875690Y-41969510D01*
X146875690Y-41554830D01*
X146967598Y-41554830D01*
X147022779Y-41557012D01*
X147051248Y-41564760D01*
X147059502Y-41579877D01*
X147059506Y-41580325D01*
X147063336Y-41595129D01*
X147080229Y-41593448D01*
X147113815Y-41577181D01*
X147192074Y-41552296D01*
X147280123Y-41549680D01*
X147363656Y-41568877D01*
D14*
X123605000Y-64700000D02*
X123605000Y-67360000D01*
X133825000Y-64700000D02*
X123605000Y-64700000D01*
X133825000Y-67360000D02*
X123605000Y-67360000D01*
X133825000Y-64700000D02*
X133825000Y-67360000D01*
X135095000Y-64700000D02*
X136425000Y-64700000D01*
X136425000Y-64700000D02*
X136425000Y-66030000D01*
X110495001Y-54080000D02*
X110495001Y-57680000D01*
X110506523Y-54041522D02*
G75*
G02X114945001Y-55880000I1838478J-1838478D01*
G01*
X110506523Y-57718478D02*
G75*
G03X114945001Y-55880000I1838478J1838478D01*
G01*
X128181522Y-53681522D02*
G75*
G03X130020000Y-58120000I1838478J-1838478D01*
G01*
X131858478Y-53681522D02*
G75*
G02X130020000Y-58120000I-1838478J-1838478D01*
G01*
X131820000Y-53670000D02*
X128220000Y-53670000D01*
X150010000Y-57680000D02*
X150010000Y-54080000D01*
X149998478Y-57718478D02*
G75*
G02X145560000Y-55880000I-1838478J1838478D01*
G01*
X149998478Y-54041522D02*
G75*
G03X145560000Y-55880000I-1838478J-1838478D01*
G01*
X115975001Y-77570000D02*
X115975001Y-77240000D01*
X109435001Y-77570000D02*
X115975001Y-77570000D01*
X109435001Y-77240000D02*
X109435001Y-77570000D01*
X115975001Y-74830000D02*
X115975001Y-75160000D01*
X109435001Y-74830000D02*
X115975001Y-74830000D01*
X109435001Y-75160000D02*
X109435001Y-74830000D01*
X115975001Y-50570000D02*
X115975001Y-50900000D01*
X115975001Y-50900000D02*
X109435001Y-50900000D01*
X109435001Y-50900000D02*
X109435001Y-50570000D01*
X115975001Y-48490000D02*
X115975001Y-48160000D01*
X115975001Y-48160000D02*
X109435001Y-48160000D01*
X109435001Y-48160000D02*
X109435001Y-48490000D01*
X126750000Y-75160000D02*
X126750000Y-74830000D01*
X126750000Y-74830000D02*
X133290000Y-74830000D01*
X133290000Y-74830000D02*
X133290000Y-75160000D01*
X126750000Y-77240000D02*
X126750000Y-77570000D01*
X126750000Y-77570000D02*
X133290000Y-77570000D01*
X133290000Y-77570000D02*
X133290000Y-77240000D01*
X133290000Y-50900000D02*
X133290000Y-50570000D01*
X126750000Y-50900000D02*
X133290000Y-50900000D01*
X126750000Y-50570000D02*
X126750000Y-50900000D01*
X133290000Y-48160000D02*
X133290000Y-48490000D01*
X126750000Y-48160000D02*
X133290000Y-48160000D01*
X126750000Y-48490000D02*
X126750000Y-48160000D01*
X144530000Y-75160000D02*
X144530000Y-74830000D01*
X144530000Y-74830000D02*
X151070000Y-74830000D01*
X151070000Y-74830000D02*
X151070000Y-75160000D01*
X144530000Y-77240000D02*
X144530000Y-77570000D01*
X144530000Y-77570000D02*
X151070000Y-77570000D01*
X151070000Y-77570000D02*
X151070000Y-77240000D01*
X144530000Y-48490000D02*
X144530000Y-48160000D01*
X144530000Y-48160000D02*
X151070000Y-48160000D01*
X151070000Y-48160000D02*
X151070000Y-48490000D01*
X144530000Y-50570000D02*
X144530000Y-50900000D01*
X144530000Y-50900000D02*
X151070000Y-50900000D01*
X151070000Y-50900000D02*
X151070000Y-50570000D01*
X112705001Y-89704800D02*
X113455001Y-90454800D01*
X111955001Y-90454800D02*
X112705001Y-89704800D01*
X111205001Y-89704800D02*
X114205001Y-89704800D01*
X112705001Y-134704800D02*
X113455001Y-133954800D01*
X111955001Y-133954800D02*
X112705001Y-134704800D01*
X111205001Y-134704800D02*
X114205001Y-134704800D01*
X112705001Y-134704800D02*
X112705001Y-89704800D01*
X111455001Y-143129800D02*
X110955001Y-142629800D01*
X110455001Y-143129800D02*
X111455001Y-143129800D01*
X110955001Y-142629800D02*
X110455001Y-143129800D01*
X111778001Y-82084800D02*
X117325001Y-82084800D01*
X108085001Y-82084800D02*
X110132001Y-82084800D01*
X115278001Y-142324800D02*
X117325001Y-142324800D01*
X112130001Y-142324800D02*
X113633001Y-142324800D01*
X108085001Y-142324800D02*
X109780001Y-142324800D01*
X117325001Y-85468800D02*
X117325001Y-82084800D01*
X117325001Y-135668800D02*
X117325001Y-88739800D01*
X117325001Y-142324800D02*
X117325001Y-138939800D01*
X108085001Y-86668800D02*
X108085001Y-82084800D01*
X108085001Y-134468800D02*
X108085001Y-89939800D01*
X108085001Y-142324800D02*
X108085001Y-137739800D01*
X130020000Y-89704800D02*
X130770000Y-90454800D01*
X129270000Y-90454800D02*
X130020000Y-89704800D01*
X128520000Y-89704800D02*
X131520000Y-89704800D01*
X130020000Y-134704800D02*
X130770000Y-133954800D01*
X129270000Y-133954800D02*
X130020000Y-134704800D01*
X128520000Y-134704800D02*
X131520000Y-134704800D01*
X130020000Y-134704800D02*
X130020000Y-89704800D01*
X128770000Y-143129800D02*
X128270000Y-142629800D01*
X127770000Y-143129800D02*
X128770000Y-143129800D01*
X128270000Y-142629800D02*
X127770000Y-143129800D01*
X129093000Y-82084800D02*
X134640000Y-82084800D01*
X125400000Y-82084800D02*
X127447000Y-82084800D01*
X132593000Y-142324800D02*
X134640000Y-142324800D01*
X129445000Y-142324800D02*
X130948000Y-142324800D01*
X125400000Y-142324800D02*
X127095000Y-142324800D01*
X134640000Y-85468800D02*
X134640000Y-82084800D01*
X134640000Y-135668800D02*
X134640000Y-88739800D01*
X134640000Y-142324800D02*
X134640000Y-138939800D01*
X125400000Y-86668800D02*
X125400000Y-82084800D01*
X125400000Y-134468800D02*
X125400000Y-89939800D01*
X125400000Y-142324800D02*
X125400000Y-137739800D01*
X143180000Y-142324800D02*
X143180000Y-137739800D01*
X143180000Y-134468800D02*
X143180000Y-89939800D01*
X143180000Y-86668800D02*
X143180000Y-82084800D01*
X152420000Y-142324800D02*
X152420000Y-138939800D01*
X152420000Y-135668800D02*
X152420000Y-88739800D01*
X152420000Y-85468800D02*
X152420000Y-82084800D01*
X143180000Y-142324800D02*
X144875000Y-142324800D01*
X147225000Y-142324800D02*
X148728000Y-142324800D01*
X150373000Y-142324800D02*
X152420000Y-142324800D01*
X143180000Y-82084800D02*
X145227000Y-82084800D01*
X146873000Y-82084800D02*
X152420000Y-82084800D01*
X146050000Y-142629800D02*
X145550000Y-143129800D01*
X145550000Y-143129800D02*
X146550000Y-143129800D01*
X146550000Y-143129800D02*
X146050000Y-142629800D01*
X147800000Y-134704800D02*
X147800000Y-89704800D01*
X146300000Y-134704800D02*
X149300000Y-134704800D01*
X147050000Y-133954800D02*
X147800000Y-134704800D01*
X147800000Y-134704800D02*
X148550000Y-133954800D01*
X146300000Y-89704800D02*
X149300000Y-89704800D01*
X147050000Y-90454800D02*
X147800000Y-89704800D01*
X147800000Y-89704800D02*
X148550000Y-90454800D01*
X115365001Y-60900000D02*
X113715001Y-60900000D01*
X115365001Y-71180000D02*
X115365001Y-60900000D01*
X110065001Y-71180000D02*
X115365001Y-71180000D01*
X110065001Y-60900000D02*
X110065001Y-71180000D01*
X111715001Y-60900000D02*
X110065001Y-60900000D01*
X113715001Y-60900000D02*
G75*
G02X111715001Y-60900000I-1000000J0D01*
G01*
X150460000Y-60900000D02*
X148810000Y-60900000D01*
X150460000Y-71180000D02*
X150460000Y-60900000D01*
X145160000Y-71180000D02*
X150460000Y-71180000D01*
X145160000Y-60900000D02*
X145160000Y-71180000D01*
X146810000Y-60900000D02*
X145160000Y-60900000D01*
X148810000Y-60900000D02*
G75*
G02X146810000Y-60900000I-1000000J0D01*
G01*
D11*
X129686666Y-62952380D02*
X129686666Y-63666666D01*
X129639047Y-63809523D01*
X129543809Y-63904761D01*
X129400952Y-63952380D01*
X129305714Y-63952380D01*
X130686666Y-63952380D02*
X130115238Y-63952380D01*
X130400952Y-63952380D02*
X130400952Y-62952380D01*
X130305714Y-63095238D01*
X130210476Y-63190476D01*
X130115238Y-63238095D01*
X115982761Y-56427619D02*
X115887523Y-56380000D01*
X115792285Y-56284761D01*
X115649428Y-56141904D01*
X115554190Y-56094285D01*
X115458952Y-56094285D01*
X115506571Y-56332380D02*
X115411333Y-56284761D01*
X115316095Y-56189523D01*
X115268476Y-55999047D01*
X115268476Y-55665714D01*
X115316095Y-55475238D01*
X115411333Y-55380000D01*
X115506571Y-55332380D01*
X115697047Y-55332380D01*
X115792285Y-55380000D01*
X115887523Y-55475238D01*
X115935142Y-55665714D01*
X115935142Y-55999047D01*
X115887523Y-56189523D01*
X115792285Y-56284761D01*
X115697047Y-56332380D01*
X115506571Y-56332380D01*
X116887523Y-56332380D02*
X116316095Y-56332380D01*
X116601809Y-56332380D02*
X116601809Y-55332380D01*
X116506571Y-55475238D01*
X116411333Y-55570476D01*
X116316095Y-55618095D01*
X129924761Y-59627619D02*
X129829523Y-59580000D01*
X129734285Y-59484761D01*
X129591428Y-59341904D01*
X129496190Y-59294285D01*
X129400952Y-59294285D01*
X129448571Y-59532380D02*
X129353333Y-59484761D01*
X129258095Y-59389523D01*
X129210476Y-59199047D01*
X129210476Y-58865714D01*
X129258095Y-58675238D01*
X129353333Y-58580000D01*
X129448571Y-58532380D01*
X129639047Y-58532380D01*
X129734285Y-58580000D01*
X129829523Y-58675238D01*
X129877142Y-58865714D01*
X129877142Y-59199047D01*
X129829523Y-59389523D01*
X129734285Y-59484761D01*
X129639047Y-59532380D01*
X129448571Y-59532380D01*
X130258095Y-58627619D02*
X130305714Y-58580000D01*
X130400952Y-58532380D01*
X130639047Y-58532380D01*
X130734285Y-58580000D01*
X130781904Y-58627619D01*
X130829523Y-58722857D01*
X130829523Y-58818095D01*
X130781904Y-58960952D01*
X130210476Y-59532380D01*
X130829523Y-59532380D01*
X144176761Y-56427619D02*
X144081523Y-56380000D01*
X143986285Y-56284761D01*
X143843428Y-56141904D01*
X143748190Y-56094285D01*
X143652952Y-56094285D01*
X143700571Y-56332380D02*
X143605333Y-56284761D01*
X143510095Y-56189523D01*
X143462476Y-55999047D01*
X143462476Y-55665714D01*
X143510095Y-55475238D01*
X143605333Y-55380000D01*
X143700571Y-55332380D01*
X143891047Y-55332380D01*
X143986285Y-55380000D01*
X144081523Y-55475238D01*
X144129142Y-55665714D01*
X144129142Y-55999047D01*
X144081523Y-56189523D01*
X143986285Y-56284761D01*
X143891047Y-56332380D01*
X143700571Y-56332380D01*
X144462476Y-55332380D02*
X145081523Y-55332380D01*
X144748190Y-55713333D01*
X144891047Y-55713333D01*
X144986285Y-55760952D01*
X145033904Y-55808571D01*
X145081523Y-55903809D01*
X145081523Y-56141904D01*
X145033904Y-56237142D01*
X144986285Y-56284761D01*
X144891047Y-56332380D01*
X144605333Y-56332380D01*
X144510095Y-56284761D01*
X144462476Y-56237142D01*
X112538334Y-74282380D02*
X112205001Y-73806190D01*
X111966905Y-74282380D02*
X111966905Y-73282380D01*
X112347858Y-73282380D01*
X112443096Y-73330000D01*
X112490715Y-73377619D01*
X112538334Y-73472857D01*
X112538334Y-73615714D01*
X112490715Y-73710952D01*
X112443096Y-73758571D01*
X112347858Y-73806190D01*
X111966905Y-73806190D01*
X113490715Y-74282380D02*
X112919286Y-74282380D01*
X113205001Y-74282380D02*
X113205001Y-73282380D01*
X113109762Y-73425238D01*
X113014524Y-73520476D01*
X112919286Y-73568095D01*
X112538334Y-52352380D02*
X112205001Y-51876190D01*
X111966905Y-52352380D02*
X111966905Y-51352380D01*
X112347858Y-51352380D01*
X112443096Y-51400000D01*
X112490715Y-51447619D01*
X112538334Y-51542857D01*
X112538334Y-51685714D01*
X112490715Y-51780952D01*
X112443096Y-51828571D01*
X112347858Y-51876190D01*
X111966905Y-51876190D01*
X112919286Y-51447619D02*
X112966905Y-51400000D01*
X113062143Y-51352380D01*
X113300239Y-51352380D01*
X113395477Y-51400000D01*
X113443096Y-51447619D01*
X113490715Y-51542857D01*
X113490715Y-51638095D01*
X113443096Y-51780952D01*
X112871667Y-52352380D01*
X113490715Y-52352380D01*
X129853333Y-74282380D02*
X129520000Y-73806190D01*
X129281904Y-74282380D02*
X129281904Y-73282380D01*
X129662857Y-73282380D01*
X129758095Y-73330000D01*
X129805714Y-73377619D01*
X129853333Y-73472857D01*
X129853333Y-73615714D01*
X129805714Y-73710952D01*
X129758095Y-73758571D01*
X129662857Y-73806190D01*
X129281904Y-73806190D01*
X130186666Y-73282380D02*
X130805714Y-73282380D01*
X130472380Y-73663333D01*
X130615238Y-73663333D01*
X130710476Y-73710952D01*
X130758095Y-73758571D01*
X130805714Y-73853809D01*
X130805714Y-74091904D01*
X130758095Y-74187142D01*
X130710476Y-74234761D01*
X130615238Y-74282380D01*
X130329523Y-74282380D01*
X130234285Y-74234761D01*
X130186666Y-74187142D01*
X129853333Y-47612380D02*
X129520000Y-47136190D01*
X129281904Y-47612380D02*
X129281904Y-46612380D01*
X129662857Y-46612380D01*
X129758095Y-46660000D01*
X129805714Y-46707619D01*
X129853333Y-46802857D01*
X129853333Y-46945714D01*
X129805714Y-47040952D01*
X129758095Y-47088571D01*
X129662857Y-47136190D01*
X129281904Y-47136190D01*
X130710476Y-46945714D02*
X130710476Y-47612380D01*
X130472380Y-46564761D02*
X130234285Y-47279047D01*
X130853333Y-47279047D01*
X147633333Y-74282380D02*
X147300000Y-73806190D01*
X147061904Y-74282380D02*
X147061904Y-73282380D01*
X147442857Y-73282380D01*
X147538095Y-73330000D01*
X147585714Y-73377619D01*
X147633333Y-73472857D01*
X147633333Y-73615714D01*
X147585714Y-73710952D01*
X147538095Y-73758571D01*
X147442857Y-73806190D01*
X147061904Y-73806190D01*
X148538095Y-73282380D02*
X148061904Y-73282380D01*
X148014285Y-73758571D01*
X148061904Y-73710952D01*
X148157142Y-73663333D01*
X148395238Y-73663333D01*
X148490476Y-73710952D01*
X148538095Y-73758571D01*
X148585714Y-73853809D01*
X148585714Y-74091904D01*
X148538095Y-74187142D01*
X148490476Y-74234761D01*
X148395238Y-74282380D01*
X148157142Y-74282380D01*
X148061904Y-74234761D01*
X148014285Y-74187142D01*
X147633333Y-47612380D02*
X147300000Y-47136190D01*
X147061904Y-47612380D02*
X147061904Y-46612380D01*
X147442857Y-46612380D01*
X147538095Y-46660000D01*
X147585714Y-46707619D01*
X147633333Y-46802857D01*
X147633333Y-46945714D01*
X147585714Y-47040952D01*
X147538095Y-47088571D01*
X147442857Y-47136190D01*
X147061904Y-47136190D01*
X148490476Y-46612380D02*
X148300000Y-46612380D01*
X148204761Y-46660000D01*
X148157142Y-46707619D01*
X148061904Y-46850476D01*
X148014285Y-47040952D01*
X148014285Y-47421904D01*
X148061904Y-47517142D01*
X148109523Y-47564761D01*
X148204761Y-47612380D01*
X148395238Y-47612380D01*
X148490476Y-47564761D01*
X148538095Y-47517142D01*
X148585714Y-47421904D01*
X148585714Y-47183809D01*
X148538095Y-47088571D01*
X148490476Y-47040952D01*
X148395238Y-46993333D01*
X148204761Y-46993333D01*
X148109523Y-47040952D01*
X148061904Y-47088571D01*
X148014285Y-47183809D01*
X107407381Y-112800038D02*
X106931191Y-113133371D01*
X107407381Y-113371466D02*
X106407381Y-113371466D01*
X106407381Y-112990514D01*
X106455001Y-112895276D01*
X106502620Y-112847657D01*
X106597858Y-112800038D01*
X106740715Y-112800038D01*
X106835953Y-112847657D01*
X106883572Y-112895276D01*
X106931191Y-112990514D01*
X106931191Y-113371466D01*
X106407381Y-112514323D02*
X107407381Y-112180990D01*
X106407381Y-111847657D01*
X107407381Y-110990514D02*
X107407381Y-111561942D01*
X107407381Y-111276228D02*
X106407381Y-111276228D01*
X106550239Y-111371466D01*
X106645477Y-111466704D01*
X106693096Y-111561942D01*
X124722380Y-112800038D02*
X124246190Y-113133371D01*
X124722380Y-113371466D02*
X123722380Y-113371466D01*
X123722380Y-112990514D01*
X123770000Y-112895276D01*
X123817619Y-112847657D01*
X123912857Y-112800038D01*
X124055714Y-112800038D01*
X124150952Y-112847657D01*
X124198571Y-112895276D01*
X124246190Y-112990514D01*
X124246190Y-113371466D01*
X123722380Y-112514323D02*
X124722380Y-112180990D01*
X123722380Y-111847657D01*
X123817619Y-111561942D02*
X123770000Y-111514323D01*
X123722380Y-111419085D01*
X123722380Y-111180990D01*
X123770000Y-111085752D01*
X123817619Y-111038133D01*
X123912857Y-110990514D01*
X124008095Y-110990514D01*
X124150952Y-111038133D01*
X124722380Y-111609561D01*
X124722380Y-110990514D01*
X142502380Y-112800038D02*
X142026190Y-113133371D01*
X142502380Y-113371466D02*
X141502380Y-113371466D01*
X141502380Y-112990514D01*
X141550000Y-112895276D01*
X141597619Y-112847657D01*
X141692857Y-112800038D01*
X141835714Y-112800038D01*
X141930952Y-112847657D01*
X141978571Y-112895276D01*
X142026190Y-112990514D01*
X142026190Y-113371466D01*
X141502380Y-112514323D02*
X142502380Y-112180990D01*
X141502380Y-111847657D01*
X141502380Y-111609561D02*
X141502380Y-110990514D01*
X141883333Y-111323847D01*
X141883333Y-111180990D01*
X141930952Y-111085752D01*
X141978571Y-111038133D01*
X142073809Y-110990514D01*
X142311904Y-110990514D01*
X142407142Y-111038133D01*
X142454761Y-111085752D01*
X142502380Y-111180990D01*
X142502380Y-111466704D01*
X142454761Y-111561942D01*
X142407142Y-111609561D01*
X111953096Y-59352380D02*
X111953096Y-60161904D01*
X112000715Y-60257142D01*
X112048334Y-60304761D01*
X112143572Y-60352380D01*
X112334048Y-60352380D01*
X112429286Y-60304761D01*
X112476905Y-60257142D01*
X112524524Y-60161904D01*
X112524524Y-59352380D01*
X113524524Y-60352380D02*
X112953096Y-60352380D01*
X113238810Y-60352380D02*
X113238810Y-59352380D01*
X113143572Y-59495238D01*
X113048334Y-59590476D01*
X112953096Y-59638095D01*
X147048095Y-59352380D02*
X147048095Y-60161904D01*
X147095714Y-60257142D01*
X147143333Y-60304761D01*
X147238571Y-60352380D01*
X147429047Y-60352380D01*
X147524285Y-60304761D01*
X147571904Y-60257142D01*
X147619523Y-60161904D01*
X147619523Y-59352380D01*
X148048095Y-59447619D02*
X148095714Y-59400000D01*
X148190952Y-59352380D01*
X148429047Y-59352380D01*
X148524285Y-59400000D01*
X148571904Y-59447619D01*
X148619523Y-59542857D01*
X148619523Y-59638095D01*
X148571904Y-59780952D01*
X148000476Y-60352380D01*
X148619523Y-60352380D01*
M02*
