G04 #@! TF.GenerationSoftware,KiCad,Pcbnew,5.1.4-e60b266~84~ubuntu19.04.1*
G04 #@! TF.CreationDate,2019-09-04T21:57:40+02:00*
G04 #@! TF.ProjectId,PixelSlasher,50697865-6c53-46c6-9173-6865722e6b69,2.0.1*
G04 #@! TF.SameCoordinates,Original*
G04 #@! TF.FileFunction,Copper,L2,Bot*
G04 #@! TF.FilePolarity,Positive*
%FSLAX46Y46*%
G04 Gerber Fmt 4.6, Leading zero omitted, Abs format (unit mm)*
G04 Created by KiCad (PCBNEW 5.1.4-e60b266~84~ubuntu19.04.1) date 2019-09-04 21:57:40*
%MOMM*%
%LPD*%
G04 APERTURE LIST*
%ADD10R,1.750000X1.750000*%
%ADD11C,1.750000*%
%ADD12C,2.700000*%
%ADD13R,1.700000X1.700000*%
%ADD14O,1.700000X1.700000*%
%ADD15O,1.500000X1.050000*%
%ADD16R,1.500000X1.050000*%
%ADD17R,1.050000X1.500000*%
%ADD18O,1.050000X1.500000*%
%ADD19O,1.600000X1.600000*%
%ADD20C,1.600000*%
%ADD21R,1.600000X1.600000*%
%ADD22O,5.550000X2.775000*%
%ADD23C,0.250000*%
%ADD24C,0.254000*%
G04 APERTURE END LIST*
D10*
X111026000Y-166655420D03*
D11*
X114526000Y-166655420D03*
X111026000Y-108155420D03*
D12*
X108576000Y-161305420D03*
X108576000Y-113505420D03*
X116976000Y-162505420D03*
X116976000Y-112305420D03*
D13*
X124945000Y-66030000D03*
D14*
X127485000Y-66030000D03*
X130025000Y-66030000D03*
X132565000Y-66030000D03*
X135105000Y-66030000D03*
D15*
X112345001Y-55880000D03*
X112345001Y-57150000D03*
D16*
X112345001Y-54610000D03*
D17*
X131290000Y-55520000D03*
D18*
X128750000Y-55520000D03*
X130020000Y-55520000D03*
D15*
X148160000Y-55880000D03*
X148160000Y-54610000D03*
D16*
X148160000Y-57150000D03*
D19*
X116515001Y-76200000D03*
D20*
X108895001Y-76200000D03*
X116515001Y-49530000D03*
D19*
X108895001Y-49530000D03*
D20*
X126210000Y-76200000D03*
D19*
X133830000Y-76200000D03*
X133830000Y-49530000D03*
D20*
X126210000Y-49530000D03*
X143990000Y-76200000D03*
D19*
X151610000Y-76200000D03*
D20*
X143990000Y-49530000D03*
D19*
X151610000Y-49530000D03*
D10*
X128270000Y-166655420D03*
D11*
X131770000Y-166655420D03*
X128270000Y-108155420D03*
D12*
X125820000Y-161305420D03*
X125820000Y-113505420D03*
X134220000Y-162505420D03*
X134220000Y-112305420D03*
X152000000Y-112305420D03*
X152000000Y-162505420D03*
X143600000Y-113505420D03*
X143600000Y-161305420D03*
D11*
X146050000Y-108155420D03*
X149550000Y-166655420D03*
D10*
X146050000Y-166655420D03*
D19*
X116525001Y-62230000D03*
X108905001Y-69850000D03*
X116525001Y-64770000D03*
X108905001Y-67310000D03*
X116525001Y-67310000D03*
X108905001Y-64770000D03*
X116525001Y-69850000D03*
D21*
X108905001Y-62230000D03*
D19*
X151620000Y-62230000D03*
X144000000Y-69850000D03*
X151620000Y-64770000D03*
X144000000Y-67310000D03*
X151620000Y-67310000D03*
X144000000Y-64770000D03*
X151620000Y-69850000D03*
D21*
X144000000Y-62230000D03*
D13*
X112705001Y-82810100D03*
X130020000Y-82810100D03*
X147800000Y-82810100D03*
D22*
X112776000Y-89325720D03*
X112776000Y-94025720D03*
X112776000Y-98725720D03*
X130020000Y-89325720D03*
X130020000Y-94025720D03*
X130020000Y-98725720D03*
X147800000Y-98725720D03*
X147800000Y-94025720D03*
X147800000Y-89325720D03*
D23*
X124945000Y-67130000D02*
X119672300Y-72402700D01*
X124945000Y-66030000D02*
X124945000Y-67130000D01*
X113997701Y-72402700D02*
X108905001Y-67310000D01*
X119672300Y-72402700D02*
X113997701Y-72402700D01*
X126210000Y-76200000D02*
X121373900Y-76200000D01*
X121373900Y-76200000D02*
X118884700Y-73710800D01*
X111384201Y-73710800D02*
X108895001Y-76200000D01*
X118884700Y-73710800D02*
X111384201Y-73710800D01*
X146412500Y-94025720D02*
X140253720Y-87866940D01*
X147800000Y-94025720D02*
X146412500Y-94025720D01*
X140253720Y-68516280D02*
X144000000Y-64770000D01*
X140253720Y-87866940D02*
X140253720Y-68516280D01*
D24*
G36*
X155965001Y-179773346D02*
G01*
X155923115Y-179672224D01*
X155763560Y-179433434D01*
X155560486Y-179230360D01*
X155321696Y-179070805D01*
X155056367Y-178960902D01*
X154774695Y-178904874D01*
X154487505Y-178904874D01*
X154205833Y-178960902D01*
X153940504Y-179070805D01*
X153701714Y-179230360D01*
X153498640Y-179433434D01*
X153339085Y-179672224D01*
X153229182Y-179937553D01*
X153173154Y-180219225D01*
X153173154Y-180506415D01*
X153229182Y-180788087D01*
X153339085Y-181053416D01*
X153498640Y-181292206D01*
X153701714Y-181495280D01*
X153940504Y-181654835D01*
X153971853Y-181667820D01*
X106480347Y-181667820D01*
X106511696Y-181654835D01*
X106750486Y-181495280D01*
X106953560Y-181292206D01*
X107113115Y-181053416D01*
X107223018Y-180788087D01*
X107279046Y-180506415D01*
X107279046Y-180219225D01*
X107223018Y-179937553D01*
X107113115Y-179672224D01*
X106953560Y-179433434D01*
X106750486Y-179230360D01*
X106511696Y-179070805D01*
X106246367Y-178960902D01*
X105964695Y-178904874D01*
X105677505Y-178904874D01*
X105395833Y-178960902D01*
X105130504Y-179070805D01*
X104891714Y-179230360D01*
X104688640Y-179433434D01*
X104545000Y-179648406D01*
X104545000Y-165780420D01*
X109512928Y-165780420D01*
X109512928Y-167530420D01*
X109525188Y-167654902D01*
X109561498Y-167774600D01*
X109620463Y-167884914D01*
X109699815Y-167981605D01*
X109796506Y-168060957D01*
X109906820Y-168119922D01*
X110026518Y-168156232D01*
X110151000Y-168168492D01*
X111901000Y-168168492D01*
X112025482Y-168156232D01*
X112145180Y-168119922D01*
X112255494Y-168060957D01*
X112352185Y-167981605D01*
X112431537Y-167884914D01*
X112490502Y-167774600D01*
X112526812Y-167654902D01*
X112539072Y-167530420D01*
X112539072Y-166506698D01*
X113016000Y-166506698D01*
X113016000Y-166804142D01*
X113074029Y-167095871D01*
X113187856Y-167370673D01*
X113353107Y-167617989D01*
X113563431Y-167828313D01*
X113810747Y-167993564D01*
X114085549Y-168107391D01*
X114377278Y-168165420D01*
X114674722Y-168165420D01*
X114966451Y-168107391D01*
X115241253Y-167993564D01*
X115488569Y-167828313D01*
X115698893Y-167617989D01*
X115864144Y-167370673D01*
X115977971Y-167095871D01*
X116036000Y-166804142D01*
X116036000Y-166506698D01*
X115977971Y-166214969D01*
X115864144Y-165940167D01*
X115757405Y-165780420D01*
X126756928Y-165780420D01*
X126756928Y-167530420D01*
X126769188Y-167654902D01*
X126805498Y-167774600D01*
X126864463Y-167884914D01*
X126943815Y-167981605D01*
X127040506Y-168060957D01*
X127150820Y-168119922D01*
X127270518Y-168156232D01*
X127395000Y-168168492D01*
X129145000Y-168168492D01*
X129269482Y-168156232D01*
X129389180Y-168119922D01*
X129499494Y-168060957D01*
X129596185Y-167981605D01*
X129675537Y-167884914D01*
X129734502Y-167774600D01*
X129770812Y-167654902D01*
X129783072Y-167530420D01*
X129783072Y-166506698D01*
X130260000Y-166506698D01*
X130260000Y-166804142D01*
X130318029Y-167095871D01*
X130431856Y-167370673D01*
X130597107Y-167617989D01*
X130807431Y-167828313D01*
X131054747Y-167993564D01*
X131329549Y-168107391D01*
X131621278Y-168165420D01*
X131918722Y-168165420D01*
X132210451Y-168107391D01*
X132485253Y-167993564D01*
X132732569Y-167828313D01*
X132942893Y-167617989D01*
X133108144Y-167370673D01*
X133221971Y-167095871D01*
X133280000Y-166804142D01*
X133280000Y-166506698D01*
X133221971Y-166214969D01*
X133108144Y-165940167D01*
X133001405Y-165780420D01*
X144536928Y-165780420D01*
X144536928Y-167530420D01*
X144549188Y-167654902D01*
X144585498Y-167774600D01*
X144644463Y-167884914D01*
X144723815Y-167981605D01*
X144820506Y-168060957D01*
X144930820Y-168119922D01*
X145050518Y-168156232D01*
X145175000Y-168168492D01*
X146925000Y-168168492D01*
X147049482Y-168156232D01*
X147169180Y-168119922D01*
X147279494Y-168060957D01*
X147376185Y-167981605D01*
X147455537Y-167884914D01*
X147514502Y-167774600D01*
X147550812Y-167654902D01*
X147563072Y-167530420D01*
X147563072Y-166506698D01*
X148040000Y-166506698D01*
X148040000Y-166804142D01*
X148098029Y-167095871D01*
X148211856Y-167370673D01*
X148377107Y-167617989D01*
X148587431Y-167828313D01*
X148834747Y-167993564D01*
X149109549Y-168107391D01*
X149401278Y-168165420D01*
X149698722Y-168165420D01*
X149990451Y-168107391D01*
X150265253Y-167993564D01*
X150512569Y-167828313D01*
X150722893Y-167617989D01*
X150888144Y-167370673D01*
X151001971Y-167095871D01*
X151060000Y-166804142D01*
X151060000Y-166506698D01*
X151001971Y-166214969D01*
X150888144Y-165940167D01*
X150722893Y-165692851D01*
X150512569Y-165482527D01*
X150265253Y-165317276D01*
X149990451Y-165203449D01*
X149698722Y-165145420D01*
X149401278Y-165145420D01*
X149109549Y-165203449D01*
X148834747Y-165317276D01*
X148587431Y-165482527D01*
X148377107Y-165692851D01*
X148211856Y-165940167D01*
X148098029Y-166214969D01*
X148040000Y-166506698D01*
X147563072Y-166506698D01*
X147563072Y-165780420D01*
X147550812Y-165655938D01*
X147514502Y-165536240D01*
X147455537Y-165425926D01*
X147376185Y-165329235D01*
X147279494Y-165249883D01*
X147169180Y-165190918D01*
X147049482Y-165154608D01*
X146925000Y-165142348D01*
X145175000Y-165142348D01*
X145050518Y-165154608D01*
X144930820Y-165190918D01*
X144820506Y-165249883D01*
X144723815Y-165329235D01*
X144644463Y-165425926D01*
X144585498Y-165536240D01*
X144549188Y-165655938D01*
X144536928Y-165780420D01*
X133001405Y-165780420D01*
X132942893Y-165692851D01*
X132732569Y-165482527D01*
X132485253Y-165317276D01*
X132210451Y-165203449D01*
X131918722Y-165145420D01*
X131621278Y-165145420D01*
X131329549Y-165203449D01*
X131054747Y-165317276D01*
X130807431Y-165482527D01*
X130597107Y-165692851D01*
X130431856Y-165940167D01*
X130318029Y-166214969D01*
X130260000Y-166506698D01*
X129783072Y-166506698D01*
X129783072Y-165780420D01*
X129770812Y-165655938D01*
X129734502Y-165536240D01*
X129675537Y-165425926D01*
X129596185Y-165329235D01*
X129499494Y-165249883D01*
X129389180Y-165190918D01*
X129269482Y-165154608D01*
X129145000Y-165142348D01*
X127395000Y-165142348D01*
X127270518Y-165154608D01*
X127150820Y-165190918D01*
X127040506Y-165249883D01*
X126943815Y-165329235D01*
X126864463Y-165425926D01*
X126805498Y-165536240D01*
X126769188Y-165655938D01*
X126756928Y-165780420D01*
X115757405Y-165780420D01*
X115698893Y-165692851D01*
X115488569Y-165482527D01*
X115241253Y-165317276D01*
X114966451Y-165203449D01*
X114674722Y-165145420D01*
X114377278Y-165145420D01*
X114085549Y-165203449D01*
X113810747Y-165317276D01*
X113563431Y-165482527D01*
X113353107Y-165692851D01*
X113187856Y-165940167D01*
X113074029Y-166214969D01*
X113016000Y-166506698D01*
X112539072Y-166506698D01*
X112539072Y-165780420D01*
X112526812Y-165655938D01*
X112490502Y-165536240D01*
X112431537Y-165425926D01*
X112352185Y-165329235D01*
X112255494Y-165249883D01*
X112145180Y-165190918D01*
X112025482Y-165154608D01*
X111901000Y-165142348D01*
X110151000Y-165142348D01*
X110026518Y-165154608D01*
X109906820Y-165190918D01*
X109796506Y-165249883D01*
X109699815Y-165329235D01*
X109620463Y-165425926D01*
X109561498Y-165536240D01*
X109525188Y-165655938D01*
X109512928Y-165780420D01*
X104545000Y-165780420D01*
X104545000Y-161109915D01*
X106591000Y-161109915D01*
X106591000Y-161500925D01*
X106667282Y-161884423D01*
X106816915Y-162245670D01*
X107034149Y-162570784D01*
X107310636Y-162847271D01*
X107635750Y-163064505D01*
X107996997Y-163214138D01*
X108380495Y-163290420D01*
X108771505Y-163290420D01*
X109155003Y-163214138D01*
X109516250Y-163064505D01*
X109841364Y-162847271D01*
X110117851Y-162570784D01*
X110292157Y-162309915D01*
X114991000Y-162309915D01*
X114991000Y-162700925D01*
X115067282Y-163084423D01*
X115216915Y-163445670D01*
X115434149Y-163770784D01*
X115710636Y-164047271D01*
X116035750Y-164264505D01*
X116396997Y-164414138D01*
X116780495Y-164490420D01*
X117171505Y-164490420D01*
X117555003Y-164414138D01*
X117916250Y-164264505D01*
X118241364Y-164047271D01*
X118517851Y-163770784D01*
X118735085Y-163445670D01*
X118884718Y-163084423D01*
X118961000Y-162700925D01*
X118961000Y-162309915D01*
X118884718Y-161926417D01*
X118735085Y-161565170D01*
X118517851Y-161240056D01*
X118387710Y-161109915D01*
X123835000Y-161109915D01*
X123835000Y-161500925D01*
X123911282Y-161884423D01*
X124060915Y-162245670D01*
X124278149Y-162570784D01*
X124554636Y-162847271D01*
X124879750Y-163064505D01*
X125240997Y-163214138D01*
X125624495Y-163290420D01*
X126015505Y-163290420D01*
X126399003Y-163214138D01*
X126760250Y-163064505D01*
X127085364Y-162847271D01*
X127361851Y-162570784D01*
X127536157Y-162309915D01*
X132235000Y-162309915D01*
X132235000Y-162700925D01*
X132311282Y-163084423D01*
X132460915Y-163445670D01*
X132678149Y-163770784D01*
X132954636Y-164047271D01*
X133279750Y-164264505D01*
X133640997Y-164414138D01*
X134024495Y-164490420D01*
X134415505Y-164490420D01*
X134799003Y-164414138D01*
X135160250Y-164264505D01*
X135485364Y-164047271D01*
X135761851Y-163770784D01*
X135979085Y-163445670D01*
X136128718Y-163084423D01*
X136205000Y-162700925D01*
X136205000Y-162309915D01*
X136128718Y-161926417D01*
X135979085Y-161565170D01*
X135761851Y-161240056D01*
X135631710Y-161109915D01*
X141615000Y-161109915D01*
X141615000Y-161500925D01*
X141691282Y-161884423D01*
X141840915Y-162245670D01*
X142058149Y-162570784D01*
X142334636Y-162847271D01*
X142659750Y-163064505D01*
X143020997Y-163214138D01*
X143404495Y-163290420D01*
X143795505Y-163290420D01*
X144179003Y-163214138D01*
X144540250Y-163064505D01*
X144865364Y-162847271D01*
X145141851Y-162570784D01*
X145316157Y-162309915D01*
X150015000Y-162309915D01*
X150015000Y-162700925D01*
X150091282Y-163084423D01*
X150240915Y-163445670D01*
X150458149Y-163770784D01*
X150734636Y-164047271D01*
X151059750Y-164264505D01*
X151420997Y-164414138D01*
X151804495Y-164490420D01*
X152195505Y-164490420D01*
X152579003Y-164414138D01*
X152940250Y-164264505D01*
X153265364Y-164047271D01*
X153541851Y-163770784D01*
X153759085Y-163445670D01*
X153908718Y-163084423D01*
X153985000Y-162700925D01*
X153985000Y-162309915D01*
X153908718Y-161926417D01*
X153759085Y-161565170D01*
X153541851Y-161240056D01*
X153265364Y-160963569D01*
X152940250Y-160746335D01*
X152579003Y-160596702D01*
X152195505Y-160520420D01*
X151804495Y-160520420D01*
X151420997Y-160596702D01*
X151059750Y-160746335D01*
X150734636Y-160963569D01*
X150458149Y-161240056D01*
X150240915Y-161565170D01*
X150091282Y-161926417D01*
X150015000Y-162309915D01*
X145316157Y-162309915D01*
X145359085Y-162245670D01*
X145508718Y-161884423D01*
X145585000Y-161500925D01*
X145585000Y-161109915D01*
X145508718Y-160726417D01*
X145359085Y-160365170D01*
X145141851Y-160040056D01*
X144865364Y-159763569D01*
X144540250Y-159546335D01*
X144179003Y-159396702D01*
X143795505Y-159320420D01*
X143404495Y-159320420D01*
X143020997Y-159396702D01*
X142659750Y-159546335D01*
X142334636Y-159763569D01*
X142058149Y-160040056D01*
X141840915Y-160365170D01*
X141691282Y-160726417D01*
X141615000Y-161109915D01*
X135631710Y-161109915D01*
X135485364Y-160963569D01*
X135160250Y-160746335D01*
X134799003Y-160596702D01*
X134415505Y-160520420D01*
X134024495Y-160520420D01*
X133640997Y-160596702D01*
X133279750Y-160746335D01*
X132954636Y-160963569D01*
X132678149Y-161240056D01*
X132460915Y-161565170D01*
X132311282Y-161926417D01*
X132235000Y-162309915D01*
X127536157Y-162309915D01*
X127579085Y-162245670D01*
X127728718Y-161884423D01*
X127805000Y-161500925D01*
X127805000Y-161109915D01*
X127728718Y-160726417D01*
X127579085Y-160365170D01*
X127361851Y-160040056D01*
X127085364Y-159763569D01*
X126760250Y-159546335D01*
X126399003Y-159396702D01*
X126015505Y-159320420D01*
X125624495Y-159320420D01*
X125240997Y-159396702D01*
X124879750Y-159546335D01*
X124554636Y-159763569D01*
X124278149Y-160040056D01*
X124060915Y-160365170D01*
X123911282Y-160726417D01*
X123835000Y-161109915D01*
X118387710Y-161109915D01*
X118241364Y-160963569D01*
X117916250Y-160746335D01*
X117555003Y-160596702D01*
X117171505Y-160520420D01*
X116780495Y-160520420D01*
X116396997Y-160596702D01*
X116035750Y-160746335D01*
X115710636Y-160963569D01*
X115434149Y-161240056D01*
X115216915Y-161565170D01*
X115067282Y-161926417D01*
X114991000Y-162309915D01*
X110292157Y-162309915D01*
X110335085Y-162245670D01*
X110484718Y-161884423D01*
X110561000Y-161500925D01*
X110561000Y-161109915D01*
X110484718Y-160726417D01*
X110335085Y-160365170D01*
X110117851Y-160040056D01*
X109841364Y-159763569D01*
X109516250Y-159546335D01*
X109155003Y-159396702D01*
X108771505Y-159320420D01*
X108380495Y-159320420D01*
X107996997Y-159396702D01*
X107635750Y-159546335D01*
X107310636Y-159763569D01*
X107034149Y-160040056D01*
X106816915Y-160365170D01*
X106667282Y-160726417D01*
X106591000Y-161109915D01*
X104545000Y-161109915D01*
X104545000Y-113309915D01*
X106591000Y-113309915D01*
X106591000Y-113700925D01*
X106667282Y-114084423D01*
X106816915Y-114445670D01*
X107034149Y-114770784D01*
X107310636Y-115047271D01*
X107635750Y-115264505D01*
X107996997Y-115414138D01*
X108380495Y-115490420D01*
X108771505Y-115490420D01*
X109155003Y-115414138D01*
X109516250Y-115264505D01*
X109841364Y-115047271D01*
X110117851Y-114770784D01*
X110335085Y-114445670D01*
X110484718Y-114084423D01*
X110561000Y-113700925D01*
X110561000Y-113309915D01*
X110484718Y-112926417D01*
X110335085Y-112565170D01*
X110117851Y-112240056D01*
X109987710Y-112109915D01*
X114991000Y-112109915D01*
X114991000Y-112500925D01*
X115067282Y-112884423D01*
X115216915Y-113245670D01*
X115434149Y-113570784D01*
X115710636Y-113847271D01*
X116035750Y-114064505D01*
X116396997Y-114214138D01*
X116780495Y-114290420D01*
X117171505Y-114290420D01*
X117555003Y-114214138D01*
X117916250Y-114064505D01*
X118241364Y-113847271D01*
X118517851Y-113570784D01*
X118692157Y-113309915D01*
X123835000Y-113309915D01*
X123835000Y-113700925D01*
X123911282Y-114084423D01*
X124060915Y-114445670D01*
X124278149Y-114770784D01*
X124554636Y-115047271D01*
X124879750Y-115264505D01*
X125240997Y-115414138D01*
X125624495Y-115490420D01*
X126015505Y-115490420D01*
X126399003Y-115414138D01*
X126760250Y-115264505D01*
X127085364Y-115047271D01*
X127361851Y-114770784D01*
X127579085Y-114445670D01*
X127728718Y-114084423D01*
X127805000Y-113700925D01*
X127805000Y-113309915D01*
X127728718Y-112926417D01*
X127579085Y-112565170D01*
X127361851Y-112240056D01*
X127231710Y-112109915D01*
X132235000Y-112109915D01*
X132235000Y-112500925D01*
X132311282Y-112884423D01*
X132460915Y-113245670D01*
X132678149Y-113570784D01*
X132954636Y-113847271D01*
X133279750Y-114064505D01*
X133640997Y-114214138D01*
X134024495Y-114290420D01*
X134415505Y-114290420D01*
X134799003Y-114214138D01*
X135160250Y-114064505D01*
X135485364Y-113847271D01*
X135761851Y-113570784D01*
X135936157Y-113309915D01*
X141615000Y-113309915D01*
X141615000Y-113700925D01*
X141691282Y-114084423D01*
X141840915Y-114445670D01*
X142058149Y-114770784D01*
X142334636Y-115047271D01*
X142659750Y-115264505D01*
X143020997Y-115414138D01*
X143404495Y-115490420D01*
X143795505Y-115490420D01*
X144179003Y-115414138D01*
X144540250Y-115264505D01*
X144865364Y-115047271D01*
X145141851Y-114770784D01*
X145359085Y-114445670D01*
X145508718Y-114084423D01*
X145585000Y-113700925D01*
X145585000Y-113309915D01*
X145508718Y-112926417D01*
X145359085Y-112565170D01*
X145141851Y-112240056D01*
X145011710Y-112109915D01*
X150015000Y-112109915D01*
X150015000Y-112500925D01*
X150091282Y-112884423D01*
X150240915Y-113245670D01*
X150458149Y-113570784D01*
X150734636Y-113847271D01*
X151059750Y-114064505D01*
X151420997Y-114214138D01*
X151804495Y-114290420D01*
X152195505Y-114290420D01*
X152579003Y-114214138D01*
X152940250Y-114064505D01*
X153265364Y-113847271D01*
X153541851Y-113570784D01*
X153759085Y-113245670D01*
X153908718Y-112884423D01*
X153985000Y-112500925D01*
X153985000Y-112109915D01*
X153908718Y-111726417D01*
X153759085Y-111365170D01*
X153541851Y-111040056D01*
X153265364Y-110763569D01*
X152940250Y-110546335D01*
X152579003Y-110396702D01*
X152195505Y-110320420D01*
X151804495Y-110320420D01*
X151420997Y-110396702D01*
X151059750Y-110546335D01*
X150734636Y-110763569D01*
X150458149Y-111040056D01*
X150240915Y-111365170D01*
X150091282Y-111726417D01*
X150015000Y-112109915D01*
X145011710Y-112109915D01*
X144865364Y-111963569D01*
X144540250Y-111746335D01*
X144179003Y-111596702D01*
X143795505Y-111520420D01*
X143404495Y-111520420D01*
X143020997Y-111596702D01*
X142659750Y-111746335D01*
X142334636Y-111963569D01*
X142058149Y-112240056D01*
X141840915Y-112565170D01*
X141691282Y-112926417D01*
X141615000Y-113309915D01*
X135936157Y-113309915D01*
X135979085Y-113245670D01*
X136128718Y-112884423D01*
X136205000Y-112500925D01*
X136205000Y-112109915D01*
X136128718Y-111726417D01*
X135979085Y-111365170D01*
X135761851Y-111040056D01*
X135485364Y-110763569D01*
X135160250Y-110546335D01*
X134799003Y-110396702D01*
X134415505Y-110320420D01*
X134024495Y-110320420D01*
X133640997Y-110396702D01*
X133279750Y-110546335D01*
X132954636Y-110763569D01*
X132678149Y-111040056D01*
X132460915Y-111365170D01*
X132311282Y-111726417D01*
X132235000Y-112109915D01*
X127231710Y-112109915D01*
X127085364Y-111963569D01*
X126760250Y-111746335D01*
X126399003Y-111596702D01*
X126015505Y-111520420D01*
X125624495Y-111520420D01*
X125240997Y-111596702D01*
X124879750Y-111746335D01*
X124554636Y-111963569D01*
X124278149Y-112240056D01*
X124060915Y-112565170D01*
X123911282Y-112926417D01*
X123835000Y-113309915D01*
X118692157Y-113309915D01*
X118735085Y-113245670D01*
X118884718Y-112884423D01*
X118961000Y-112500925D01*
X118961000Y-112109915D01*
X118884718Y-111726417D01*
X118735085Y-111365170D01*
X118517851Y-111040056D01*
X118241364Y-110763569D01*
X117916250Y-110546335D01*
X117555003Y-110396702D01*
X117171505Y-110320420D01*
X116780495Y-110320420D01*
X116396997Y-110396702D01*
X116035750Y-110546335D01*
X115710636Y-110763569D01*
X115434149Y-111040056D01*
X115216915Y-111365170D01*
X115067282Y-111726417D01*
X114991000Y-112109915D01*
X109987710Y-112109915D01*
X109841364Y-111963569D01*
X109516250Y-111746335D01*
X109155003Y-111596702D01*
X108771505Y-111520420D01*
X108380495Y-111520420D01*
X107996997Y-111596702D01*
X107635750Y-111746335D01*
X107310636Y-111963569D01*
X107034149Y-112240056D01*
X106816915Y-112565170D01*
X106667282Y-112926417D01*
X106591000Y-113309915D01*
X104545000Y-113309915D01*
X104545000Y-109201660D01*
X110159365Y-109201660D01*
X110240025Y-109453288D01*
X110508329Y-109581687D01*
X110796526Y-109655275D01*
X111093543Y-109671224D01*
X111387963Y-109628921D01*
X111668474Y-109529992D01*
X111811975Y-109453288D01*
X111892635Y-109201660D01*
X127403365Y-109201660D01*
X127484025Y-109453288D01*
X127752329Y-109581687D01*
X128040526Y-109655275D01*
X128337543Y-109671224D01*
X128631963Y-109628921D01*
X128912474Y-109529992D01*
X129055975Y-109453288D01*
X129136635Y-109201660D01*
X145183365Y-109201660D01*
X145264025Y-109453288D01*
X145532329Y-109581687D01*
X145820526Y-109655275D01*
X146117543Y-109671224D01*
X146411963Y-109628921D01*
X146692474Y-109529992D01*
X146835975Y-109453288D01*
X146916635Y-109201660D01*
X146050000Y-108335025D01*
X145183365Y-109201660D01*
X129136635Y-109201660D01*
X128270000Y-108335025D01*
X127403365Y-109201660D01*
X111892635Y-109201660D01*
X111026000Y-108335025D01*
X110159365Y-109201660D01*
X104545000Y-109201660D01*
X104545000Y-108222963D01*
X109510196Y-108222963D01*
X109552499Y-108517383D01*
X109651428Y-108797894D01*
X109728132Y-108941395D01*
X109979760Y-109022055D01*
X110846395Y-108155420D01*
X111205605Y-108155420D01*
X112072240Y-109022055D01*
X112323868Y-108941395D01*
X112452267Y-108673091D01*
X112525855Y-108384894D01*
X112534550Y-108222963D01*
X126754196Y-108222963D01*
X126796499Y-108517383D01*
X126895428Y-108797894D01*
X126972132Y-108941395D01*
X127223760Y-109022055D01*
X128090395Y-108155420D01*
X128449605Y-108155420D01*
X129316240Y-109022055D01*
X129567868Y-108941395D01*
X129696267Y-108673091D01*
X129769855Y-108384894D01*
X129778550Y-108222963D01*
X144534196Y-108222963D01*
X144576499Y-108517383D01*
X144675428Y-108797894D01*
X144752132Y-108941395D01*
X145003760Y-109022055D01*
X145870395Y-108155420D01*
X146229605Y-108155420D01*
X147096240Y-109022055D01*
X147347868Y-108941395D01*
X147476267Y-108673091D01*
X147549855Y-108384894D01*
X147565804Y-108087877D01*
X147523501Y-107793457D01*
X147424572Y-107512946D01*
X147347868Y-107369445D01*
X147096240Y-107288785D01*
X146229605Y-108155420D01*
X145870395Y-108155420D01*
X145003760Y-107288785D01*
X144752132Y-107369445D01*
X144623733Y-107637749D01*
X144550145Y-107925946D01*
X144534196Y-108222963D01*
X129778550Y-108222963D01*
X129785804Y-108087877D01*
X129743501Y-107793457D01*
X129644572Y-107512946D01*
X129567868Y-107369445D01*
X129316240Y-107288785D01*
X128449605Y-108155420D01*
X128090395Y-108155420D01*
X127223760Y-107288785D01*
X126972132Y-107369445D01*
X126843733Y-107637749D01*
X126770145Y-107925946D01*
X126754196Y-108222963D01*
X112534550Y-108222963D01*
X112541804Y-108087877D01*
X112499501Y-107793457D01*
X112400572Y-107512946D01*
X112323868Y-107369445D01*
X112072240Y-107288785D01*
X111205605Y-108155420D01*
X110846395Y-108155420D01*
X109979760Y-107288785D01*
X109728132Y-107369445D01*
X109599733Y-107637749D01*
X109526145Y-107925946D01*
X109510196Y-108222963D01*
X104545000Y-108222963D01*
X104545000Y-107109180D01*
X110159365Y-107109180D01*
X111026000Y-107975815D01*
X111892635Y-107109180D01*
X127403365Y-107109180D01*
X128270000Y-107975815D01*
X129136635Y-107109180D01*
X145183365Y-107109180D01*
X146050000Y-107975815D01*
X146916635Y-107109180D01*
X146835975Y-106857552D01*
X146567671Y-106729153D01*
X146279474Y-106655565D01*
X145982457Y-106639616D01*
X145688037Y-106681919D01*
X145407526Y-106780848D01*
X145264025Y-106857552D01*
X145183365Y-107109180D01*
X129136635Y-107109180D01*
X129055975Y-106857552D01*
X128787671Y-106729153D01*
X128499474Y-106655565D01*
X128202457Y-106639616D01*
X127908037Y-106681919D01*
X127627526Y-106780848D01*
X127484025Y-106857552D01*
X127403365Y-107109180D01*
X111892635Y-107109180D01*
X111811975Y-106857552D01*
X111543671Y-106729153D01*
X111255474Y-106655565D01*
X110958457Y-106639616D01*
X110664037Y-106681919D01*
X110383526Y-106780848D01*
X110240025Y-106857552D01*
X110159365Y-107109180D01*
X104545000Y-107109180D01*
X104545000Y-98725720D01*
X109356214Y-98725720D01*
X109395264Y-99122199D01*
X109510913Y-99503442D01*
X109698716Y-99854798D01*
X109951457Y-100162763D01*
X110259422Y-100415504D01*
X110610778Y-100603307D01*
X110992021Y-100718956D01*
X111289142Y-100748220D01*
X114262858Y-100748220D01*
X114559979Y-100718956D01*
X114941222Y-100603307D01*
X115292578Y-100415504D01*
X115600543Y-100162763D01*
X115853284Y-99854798D01*
X116041087Y-99503442D01*
X116156736Y-99122199D01*
X116195786Y-98725720D01*
X126600214Y-98725720D01*
X126639264Y-99122199D01*
X126754913Y-99503442D01*
X126942716Y-99854798D01*
X127195457Y-100162763D01*
X127503422Y-100415504D01*
X127854778Y-100603307D01*
X128236021Y-100718956D01*
X128533142Y-100748220D01*
X131506858Y-100748220D01*
X131803979Y-100718956D01*
X132185222Y-100603307D01*
X132536578Y-100415504D01*
X132844543Y-100162763D01*
X133097284Y-99854798D01*
X133285087Y-99503442D01*
X133400736Y-99122199D01*
X133439786Y-98725720D01*
X144380214Y-98725720D01*
X144419264Y-99122199D01*
X144534913Y-99503442D01*
X144722716Y-99854798D01*
X144975457Y-100162763D01*
X145283422Y-100415504D01*
X145634778Y-100603307D01*
X146016021Y-100718956D01*
X146313142Y-100748220D01*
X149286858Y-100748220D01*
X149583979Y-100718956D01*
X149965222Y-100603307D01*
X150316578Y-100415504D01*
X150624543Y-100162763D01*
X150877284Y-99854798D01*
X151065087Y-99503442D01*
X151180736Y-99122199D01*
X151219786Y-98725720D01*
X151180736Y-98329241D01*
X151065087Y-97947998D01*
X150877284Y-97596642D01*
X150624543Y-97288677D01*
X150316578Y-97035936D01*
X149965222Y-96848133D01*
X149583979Y-96732484D01*
X149286858Y-96703220D01*
X146313142Y-96703220D01*
X146016021Y-96732484D01*
X145634778Y-96848133D01*
X145283422Y-97035936D01*
X144975457Y-97288677D01*
X144722716Y-97596642D01*
X144534913Y-97947998D01*
X144419264Y-98329241D01*
X144380214Y-98725720D01*
X133439786Y-98725720D01*
X133400736Y-98329241D01*
X133285087Y-97947998D01*
X133097284Y-97596642D01*
X132844543Y-97288677D01*
X132536578Y-97035936D01*
X132185222Y-96848133D01*
X131803979Y-96732484D01*
X131506858Y-96703220D01*
X128533142Y-96703220D01*
X128236021Y-96732484D01*
X127854778Y-96848133D01*
X127503422Y-97035936D01*
X127195457Y-97288677D01*
X126942716Y-97596642D01*
X126754913Y-97947998D01*
X126639264Y-98329241D01*
X126600214Y-98725720D01*
X116195786Y-98725720D01*
X116156736Y-98329241D01*
X116041087Y-97947998D01*
X115853284Y-97596642D01*
X115600543Y-97288677D01*
X115292578Y-97035936D01*
X114941222Y-96848133D01*
X114559979Y-96732484D01*
X114262858Y-96703220D01*
X111289142Y-96703220D01*
X110992021Y-96732484D01*
X110610778Y-96848133D01*
X110259422Y-97035936D01*
X109951457Y-97288677D01*
X109698716Y-97596642D01*
X109510913Y-97947998D01*
X109395264Y-98329241D01*
X109356214Y-98725720D01*
X104545000Y-98725720D01*
X104545000Y-94025720D01*
X109356214Y-94025720D01*
X109395264Y-94422199D01*
X109510913Y-94803442D01*
X109698716Y-95154798D01*
X109951457Y-95462763D01*
X110259422Y-95715504D01*
X110610778Y-95903307D01*
X110992021Y-96018956D01*
X111289142Y-96048220D01*
X114262858Y-96048220D01*
X114559979Y-96018956D01*
X114941222Y-95903307D01*
X115292578Y-95715504D01*
X115600543Y-95462763D01*
X115853284Y-95154798D01*
X116041087Y-94803442D01*
X116156736Y-94422199D01*
X116195786Y-94025720D01*
X126600214Y-94025720D01*
X126639264Y-94422199D01*
X126754913Y-94803442D01*
X126942716Y-95154798D01*
X127195457Y-95462763D01*
X127503422Y-95715504D01*
X127854778Y-95903307D01*
X128236021Y-96018956D01*
X128533142Y-96048220D01*
X131506858Y-96048220D01*
X131803979Y-96018956D01*
X132185222Y-95903307D01*
X132536578Y-95715504D01*
X132844543Y-95462763D01*
X133097284Y-95154798D01*
X133285087Y-94803442D01*
X133400736Y-94422199D01*
X133439786Y-94025720D01*
X133400736Y-93629241D01*
X133285087Y-93247998D01*
X133097284Y-92896642D01*
X132844543Y-92588677D01*
X132536578Y-92335936D01*
X132185222Y-92148133D01*
X131803979Y-92032484D01*
X131506858Y-92003220D01*
X128533142Y-92003220D01*
X128236021Y-92032484D01*
X127854778Y-92148133D01*
X127503422Y-92335936D01*
X127195457Y-92588677D01*
X126942716Y-92896642D01*
X126754913Y-93247998D01*
X126639264Y-93629241D01*
X126600214Y-94025720D01*
X116195786Y-94025720D01*
X116156736Y-93629241D01*
X116041087Y-93247998D01*
X115853284Y-92896642D01*
X115600543Y-92588677D01*
X115292578Y-92335936D01*
X114941222Y-92148133D01*
X114559979Y-92032484D01*
X114262858Y-92003220D01*
X111289142Y-92003220D01*
X110992021Y-92032484D01*
X110610778Y-92148133D01*
X110259422Y-92335936D01*
X109951457Y-92588677D01*
X109698716Y-92896642D01*
X109510913Y-93247998D01*
X109395264Y-93629241D01*
X109356214Y-94025720D01*
X104545000Y-94025720D01*
X104545000Y-89325720D01*
X109356214Y-89325720D01*
X109395264Y-89722199D01*
X109510913Y-90103442D01*
X109698716Y-90454798D01*
X109951457Y-90762763D01*
X110259422Y-91015504D01*
X110610778Y-91203307D01*
X110992021Y-91318956D01*
X111289142Y-91348220D01*
X114262858Y-91348220D01*
X114559979Y-91318956D01*
X114941222Y-91203307D01*
X115292578Y-91015504D01*
X115600543Y-90762763D01*
X115853284Y-90454798D01*
X116041087Y-90103442D01*
X116156736Y-89722199D01*
X116195786Y-89325720D01*
X126600214Y-89325720D01*
X126639264Y-89722199D01*
X126754913Y-90103442D01*
X126942716Y-90454798D01*
X127195457Y-90762763D01*
X127503422Y-91015504D01*
X127854778Y-91203307D01*
X128236021Y-91318956D01*
X128533142Y-91348220D01*
X131506858Y-91348220D01*
X131803979Y-91318956D01*
X132185222Y-91203307D01*
X132536578Y-91015504D01*
X132844543Y-90762763D01*
X133097284Y-90454798D01*
X133285087Y-90103442D01*
X133400736Y-89722199D01*
X133439786Y-89325720D01*
X133400736Y-88929241D01*
X133285087Y-88547998D01*
X133097284Y-88196642D01*
X132844543Y-87888677D01*
X132536578Y-87635936D01*
X132185222Y-87448133D01*
X131803979Y-87332484D01*
X131506858Y-87303220D01*
X128533142Y-87303220D01*
X128236021Y-87332484D01*
X127854778Y-87448133D01*
X127503422Y-87635936D01*
X127195457Y-87888677D01*
X126942716Y-88196642D01*
X126754913Y-88547998D01*
X126639264Y-88929241D01*
X126600214Y-89325720D01*
X116195786Y-89325720D01*
X116156736Y-88929241D01*
X116041087Y-88547998D01*
X115853284Y-88196642D01*
X115600543Y-87888677D01*
X115292578Y-87635936D01*
X114941222Y-87448133D01*
X114559979Y-87332484D01*
X114262858Y-87303220D01*
X111289142Y-87303220D01*
X110992021Y-87332484D01*
X110610778Y-87448133D01*
X110259422Y-87635936D01*
X109951457Y-87888677D01*
X109698716Y-88196642D01*
X109510913Y-88547998D01*
X109395264Y-88929241D01*
X109356214Y-89325720D01*
X104545000Y-89325720D01*
X104545000Y-81960100D01*
X111216929Y-81960100D01*
X111216929Y-83660100D01*
X111229189Y-83784582D01*
X111265499Y-83904280D01*
X111324464Y-84014594D01*
X111403816Y-84111285D01*
X111500507Y-84190637D01*
X111610821Y-84249602D01*
X111730519Y-84285912D01*
X111855001Y-84298172D01*
X113555001Y-84298172D01*
X113679483Y-84285912D01*
X113799181Y-84249602D01*
X113909495Y-84190637D01*
X114006186Y-84111285D01*
X114085538Y-84014594D01*
X114144503Y-83904280D01*
X114180813Y-83784582D01*
X114193073Y-83660100D01*
X114193073Y-81960100D01*
X128531928Y-81960100D01*
X128531928Y-83660100D01*
X128544188Y-83784582D01*
X128580498Y-83904280D01*
X128639463Y-84014594D01*
X128718815Y-84111285D01*
X128815506Y-84190637D01*
X128925820Y-84249602D01*
X129045518Y-84285912D01*
X129170000Y-84298172D01*
X130870000Y-84298172D01*
X130994482Y-84285912D01*
X131114180Y-84249602D01*
X131224494Y-84190637D01*
X131321185Y-84111285D01*
X131400537Y-84014594D01*
X131459502Y-83904280D01*
X131495812Y-83784582D01*
X131508072Y-83660100D01*
X131508072Y-81960100D01*
X131495812Y-81835618D01*
X131459502Y-81715920D01*
X131400537Y-81605606D01*
X131321185Y-81508915D01*
X131224494Y-81429563D01*
X131114180Y-81370598D01*
X130994482Y-81334288D01*
X130870000Y-81322028D01*
X129170000Y-81322028D01*
X129045518Y-81334288D01*
X128925820Y-81370598D01*
X128815506Y-81429563D01*
X128718815Y-81508915D01*
X128639463Y-81605606D01*
X128580498Y-81715920D01*
X128544188Y-81835618D01*
X128531928Y-81960100D01*
X114193073Y-81960100D01*
X114180813Y-81835618D01*
X114144503Y-81715920D01*
X114085538Y-81605606D01*
X114006186Y-81508915D01*
X113909495Y-81429563D01*
X113799181Y-81370598D01*
X113679483Y-81334288D01*
X113555001Y-81322028D01*
X111855001Y-81322028D01*
X111730519Y-81334288D01*
X111610821Y-81370598D01*
X111500507Y-81429563D01*
X111403816Y-81508915D01*
X111324464Y-81605606D01*
X111265499Y-81715920D01*
X111229189Y-81835618D01*
X111216929Y-81960100D01*
X104545000Y-81960100D01*
X104545000Y-76058665D01*
X107460001Y-76058665D01*
X107460001Y-76341335D01*
X107515148Y-76618574D01*
X107623321Y-76879727D01*
X107780364Y-77114759D01*
X107980242Y-77314637D01*
X108215274Y-77471680D01*
X108476427Y-77579853D01*
X108753666Y-77635000D01*
X109036336Y-77635000D01*
X109313575Y-77579853D01*
X109574728Y-77471680D01*
X109809760Y-77314637D01*
X110009638Y-77114759D01*
X110166681Y-76879727D01*
X110274854Y-76618574D01*
X110330001Y-76341335D01*
X110330001Y-76200000D01*
X115073058Y-76200000D01*
X115100765Y-76481309D01*
X115182819Y-76751808D01*
X115316069Y-77001101D01*
X115495393Y-77219608D01*
X115713900Y-77398932D01*
X115963193Y-77532182D01*
X116233692Y-77614236D01*
X116444509Y-77635000D01*
X116585493Y-77635000D01*
X116796310Y-77614236D01*
X117066809Y-77532182D01*
X117316102Y-77398932D01*
X117534609Y-77219608D01*
X117713933Y-77001101D01*
X117847183Y-76751808D01*
X117929237Y-76481309D01*
X117956944Y-76200000D01*
X117929237Y-75918691D01*
X117847183Y-75648192D01*
X117713933Y-75398899D01*
X117534609Y-75180392D01*
X117316102Y-75001068D01*
X117066809Y-74867818D01*
X116796310Y-74785764D01*
X116585493Y-74765000D01*
X116444509Y-74765000D01*
X116233692Y-74785764D01*
X115963193Y-74867818D01*
X115713900Y-75001068D01*
X115495393Y-75180392D01*
X115316069Y-75398899D01*
X115182819Y-75648192D01*
X115100765Y-75918691D01*
X115073058Y-76200000D01*
X110330001Y-76200000D01*
X110330001Y-76058665D01*
X110293689Y-75876114D01*
X111699004Y-74470800D01*
X118569899Y-74470800D01*
X120810105Y-76711008D01*
X120833899Y-76740001D01*
X120862892Y-76763795D01*
X120862896Y-76763799D01*
X120933585Y-76821811D01*
X120949624Y-76834974D01*
X121081653Y-76905546D01*
X121224914Y-76949003D01*
X121336567Y-76960000D01*
X121336576Y-76960000D01*
X121373899Y-76963676D01*
X121411222Y-76960000D01*
X124991957Y-76960000D01*
X125095363Y-77114759D01*
X125295241Y-77314637D01*
X125530273Y-77471680D01*
X125791426Y-77579853D01*
X126068665Y-77635000D01*
X126351335Y-77635000D01*
X126628574Y-77579853D01*
X126889727Y-77471680D01*
X127124759Y-77314637D01*
X127324637Y-77114759D01*
X127481680Y-76879727D01*
X127589853Y-76618574D01*
X127645000Y-76341335D01*
X127645000Y-76200000D01*
X132388057Y-76200000D01*
X132415764Y-76481309D01*
X132497818Y-76751808D01*
X132631068Y-77001101D01*
X132810392Y-77219608D01*
X133028899Y-77398932D01*
X133278192Y-77532182D01*
X133548691Y-77614236D01*
X133759508Y-77635000D01*
X133900492Y-77635000D01*
X134111309Y-77614236D01*
X134381808Y-77532182D01*
X134631101Y-77398932D01*
X134849608Y-77219608D01*
X135028932Y-77001101D01*
X135162182Y-76751808D01*
X135244236Y-76481309D01*
X135271943Y-76200000D01*
X135244236Y-75918691D01*
X135162182Y-75648192D01*
X135028932Y-75398899D01*
X134849608Y-75180392D01*
X134631101Y-75001068D01*
X134381808Y-74867818D01*
X134111309Y-74785764D01*
X133900492Y-74765000D01*
X133759508Y-74765000D01*
X133548691Y-74785764D01*
X133278192Y-74867818D01*
X133028899Y-75001068D01*
X132810392Y-75180392D01*
X132631068Y-75398899D01*
X132497818Y-75648192D01*
X132415764Y-75918691D01*
X132388057Y-76200000D01*
X127645000Y-76200000D01*
X127645000Y-76058665D01*
X127589853Y-75781426D01*
X127481680Y-75520273D01*
X127324637Y-75285241D01*
X127124759Y-75085363D01*
X126889727Y-74928320D01*
X126628574Y-74820147D01*
X126351335Y-74765000D01*
X126068665Y-74765000D01*
X125791426Y-74820147D01*
X125530273Y-74928320D01*
X125295241Y-75085363D01*
X125095363Y-75285241D01*
X124991957Y-75440000D01*
X121688703Y-75440000D01*
X119448504Y-73199803D01*
X119424701Y-73170799D01*
X119414832Y-73162700D01*
X119634978Y-73162700D01*
X119672300Y-73166376D01*
X119709622Y-73162700D01*
X119709633Y-73162700D01*
X119821286Y-73151703D01*
X119964547Y-73108246D01*
X120096576Y-73037674D01*
X120212301Y-72942701D01*
X120236104Y-72913697D01*
X124633521Y-68516280D01*
X139490044Y-68516280D01*
X139493721Y-68553613D01*
X139493720Y-87829618D01*
X139490044Y-87866940D01*
X139493720Y-87904262D01*
X139493720Y-87904272D01*
X139504717Y-88015925D01*
X139548174Y-88159186D01*
X139618746Y-88291216D01*
X139658591Y-88339766D01*
X139713719Y-88406941D01*
X139742723Y-88430744D01*
X144543643Y-93231665D01*
X144534913Y-93247998D01*
X144419264Y-93629241D01*
X144380214Y-94025720D01*
X144419264Y-94422199D01*
X144534913Y-94803442D01*
X144722716Y-95154798D01*
X144975457Y-95462763D01*
X145283422Y-95715504D01*
X145634778Y-95903307D01*
X146016021Y-96018956D01*
X146313142Y-96048220D01*
X149286858Y-96048220D01*
X149583979Y-96018956D01*
X149965222Y-95903307D01*
X150316578Y-95715504D01*
X150624543Y-95462763D01*
X150877284Y-95154798D01*
X151065087Y-94803442D01*
X151180736Y-94422199D01*
X151219786Y-94025720D01*
X151180736Y-93629241D01*
X151065087Y-93247998D01*
X150877284Y-92896642D01*
X150624543Y-92588677D01*
X150316578Y-92335936D01*
X149965222Y-92148133D01*
X149583979Y-92032484D01*
X149286858Y-92003220D01*
X146313142Y-92003220D01*
X146016021Y-92032484D01*
X145634778Y-92148133D01*
X145618445Y-92156863D01*
X142787302Y-89325720D01*
X144380214Y-89325720D01*
X144419264Y-89722199D01*
X144534913Y-90103442D01*
X144722716Y-90454798D01*
X144975457Y-90762763D01*
X145283422Y-91015504D01*
X145634778Y-91203307D01*
X146016021Y-91318956D01*
X146313142Y-91348220D01*
X149286858Y-91348220D01*
X149583979Y-91318956D01*
X149965222Y-91203307D01*
X150316578Y-91015504D01*
X150624543Y-90762763D01*
X150877284Y-90454798D01*
X151065087Y-90103442D01*
X151180736Y-89722199D01*
X151219786Y-89325720D01*
X151180736Y-88929241D01*
X151065087Y-88547998D01*
X150877284Y-88196642D01*
X150624543Y-87888677D01*
X150316578Y-87635936D01*
X149965222Y-87448133D01*
X149583979Y-87332484D01*
X149286858Y-87303220D01*
X146313142Y-87303220D01*
X146016021Y-87332484D01*
X145634778Y-87448133D01*
X145283422Y-87635936D01*
X144975457Y-87888677D01*
X144722716Y-88196642D01*
X144534913Y-88547998D01*
X144419264Y-88929241D01*
X144380214Y-89325720D01*
X142787302Y-89325720D01*
X141013720Y-87552139D01*
X141013720Y-81960100D01*
X146311928Y-81960100D01*
X146311928Y-83660100D01*
X146324188Y-83784582D01*
X146360498Y-83904280D01*
X146419463Y-84014594D01*
X146498815Y-84111285D01*
X146595506Y-84190637D01*
X146705820Y-84249602D01*
X146825518Y-84285912D01*
X146950000Y-84298172D01*
X148650000Y-84298172D01*
X148774482Y-84285912D01*
X148894180Y-84249602D01*
X149004494Y-84190637D01*
X149101185Y-84111285D01*
X149180537Y-84014594D01*
X149239502Y-83904280D01*
X149275812Y-83784582D01*
X149288072Y-83660100D01*
X149288072Y-81960100D01*
X149275812Y-81835618D01*
X149239502Y-81715920D01*
X149180537Y-81605606D01*
X149101185Y-81508915D01*
X149004494Y-81429563D01*
X148894180Y-81370598D01*
X148774482Y-81334288D01*
X148650000Y-81322028D01*
X146950000Y-81322028D01*
X146825518Y-81334288D01*
X146705820Y-81370598D01*
X146595506Y-81429563D01*
X146498815Y-81508915D01*
X146419463Y-81605606D01*
X146360498Y-81715920D01*
X146324188Y-81835618D01*
X146311928Y-81960100D01*
X141013720Y-81960100D01*
X141013720Y-76058665D01*
X142555000Y-76058665D01*
X142555000Y-76341335D01*
X142610147Y-76618574D01*
X142718320Y-76879727D01*
X142875363Y-77114759D01*
X143075241Y-77314637D01*
X143310273Y-77471680D01*
X143571426Y-77579853D01*
X143848665Y-77635000D01*
X144131335Y-77635000D01*
X144408574Y-77579853D01*
X144669727Y-77471680D01*
X144904759Y-77314637D01*
X145104637Y-77114759D01*
X145261680Y-76879727D01*
X145369853Y-76618574D01*
X145425000Y-76341335D01*
X145425000Y-76200000D01*
X150168057Y-76200000D01*
X150195764Y-76481309D01*
X150277818Y-76751808D01*
X150411068Y-77001101D01*
X150590392Y-77219608D01*
X150808899Y-77398932D01*
X151058192Y-77532182D01*
X151328691Y-77614236D01*
X151539508Y-77635000D01*
X151680492Y-77635000D01*
X151891309Y-77614236D01*
X152161808Y-77532182D01*
X152411101Y-77398932D01*
X152629608Y-77219608D01*
X152808932Y-77001101D01*
X152942182Y-76751808D01*
X153024236Y-76481309D01*
X153051943Y-76200000D01*
X153024236Y-75918691D01*
X152942182Y-75648192D01*
X152808932Y-75398899D01*
X152629608Y-75180392D01*
X152411101Y-75001068D01*
X152161808Y-74867818D01*
X151891309Y-74785764D01*
X151680492Y-74765000D01*
X151539508Y-74765000D01*
X151328691Y-74785764D01*
X151058192Y-74867818D01*
X150808899Y-75001068D01*
X150590392Y-75180392D01*
X150411068Y-75398899D01*
X150277818Y-75648192D01*
X150195764Y-75918691D01*
X150168057Y-76200000D01*
X145425000Y-76200000D01*
X145425000Y-76058665D01*
X145369853Y-75781426D01*
X145261680Y-75520273D01*
X145104637Y-75285241D01*
X144904759Y-75085363D01*
X144669727Y-74928320D01*
X144408574Y-74820147D01*
X144131335Y-74765000D01*
X143848665Y-74765000D01*
X143571426Y-74820147D01*
X143310273Y-74928320D01*
X143075241Y-75085363D01*
X142875363Y-75285241D01*
X142718320Y-75520273D01*
X142610147Y-75781426D01*
X142555000Y-76058665D01*
X141013720Y-76058665D01*
X141013720Y-70199039D01*
X142608096Y-70199039D01*
X142648754Y-70333087D01*
X142768963Y-70587420D01*
X142936481Y-70813414D01*
X143144869Y-71002385D01*
X143386119Y-71147070D01*
X143650960Y-71241909D01*
X143873000Y-71120624D01*
X143873000Y-69977000D01*
X144127000Y-69977000D01*
X144127000Y-71120624D01*
X144349040Y-71241909D01*
X144613881Y-71147070D01*
X144855131Y-71002385D01*
X145063519Y-70813414D01*
X145231037Y-70587420D01*
X145351246Y-70333087D01*
X145391904Y-70199039D01*
X145269915Y-69977000D01*
X144127000Y-69977000D01*
X143873000Y-69977000D01*
X142730085Y-69977000D01*
X142608096Y-70199039D01*
X141013720Y-70199039D01*
X141013720Y-68831081D01*
X142560598Y-67284204D01*
X142558057Y-67310000D01*
X142585764Y-67591309D01*
X142667818Y-67861808D01*
X142801068Y-68111101D01*
X142980392Y-68329608D01*
X143198899Y-68508932D01*
X143336682Y-68582579D01*
X143144869Y-68697615D01*
X142936481Y-68886586D01*
X142768963Y-69112580D01*
X142648754Y-69366913D01*
X142608096Y-69500961D01*
X142730085Y-69723000D01*
X143873000Y-69723000D01*
X143873000Y-69703000D01*
X144127000Y-69703000D01*
X144127000Y-69723000D01*
X145269915Y-69723000D01*
X145391904Y-69500961D01*
X145351246Y-69366913D01*
X145231037Y-69112580D01*
X145063519Y-68886586D01*
X144855131Y-68697615D01*
X144663318Y-68582579D01*
X144801101Y-68508932D01*
X145019608Y-68329608D01*
X145198932Y-68111101D01*
X145332182Y-67861808D01*
X145414236Y-67591309D01*
X145441943Y-67310000D01*
X145414236Y-67028691D01*
X145332182Y-66758192D01*
X145198932Y-66508899D01*
X145019608Y-66290392D01*
X144801101Y-66111068D01*
X144668142Y-66040000D01*
X144801101Y-65968932D01*
X145019608Y-65789608D01*
X145198932Y-65571101D01*
X145332182Y-65321808D01*
X145414236Y-65051309D01*
X145441943Y-64770000D01*
X145414236Y-64488691D01*
X145332182Y-64218192D01*
X145198932Y-63968899D01*
X145019608Y-63750392D01*
X144906518Y-63657581D01*
X144924482Y-63655812D01*
X145044180Y-63619502D01*
X145154494Y-63560537D01*
X145251185Y-63481185D01*
X145330537Y-63384494D01*
X145389502Y-63274180D01*
X145425812Y-63154482D01*
X145438072Y-63030000D01*
X145438072Y-62230000D01*
X150178057Y-62230000D01*
X150205764Y-62511309D01*
X150287818Y-62781808D01*
X150421068Y-63031101D01*
X150600392Y-63249608D01*
X150818899Y-63428932D01*
X150951858Y-63500000D01*
X150818899Y-63571068D01*
X150600392Y-63750392D01*
X150421068Y-63968899D01*
X150287818Y-64218192D01*
X150205764Y-64488691D01*
X150178057Y-64770000D01*
X150205764Y-65051309D01*
X150287818Y-65321808D01*
X150421068Y-65571101D01*
X150600392Y-65789608D01*
X150818899Y-65968932D01*
X150951858Y-66040000D01*
X150818899Y-66111068D01*
X150600392Y-66290392D01*
X150421068Y-66508899D01*
X150287818Y-66758192D01*
X150205764Y-67028691D01*
X150178057Y-67310000D01*
X150205764Y-67591309D01*
X150287818Y-67861808D01*
X150421068Y-68111101D01*
X150600392Y-68329608D01*
X150818899Y-68508932D01*
X150951858Y-68580000D01*
X150818899Y-68651068D01*
X150600392Y-68830392D01*
X150421068Y-69048899D01*
X150287818Y-69298192D01*
X150205764Y-69568691D01*
X150178057Y-69850000D01*
X150205764Y-70131309D01*
X150287818Y-70401808D01*
X150421068Y-70651101D01*
X150600392Y-70869608D01*
X150818899Y-71048932D01*
X151068192Y-71182182D01*
X151338691Y-71264236D01*
X151549508Y-71285000D01*
X151690492Y-71285000D01*
X151901309Y-71264236D01*
X152171808Y-71182182D01*
X152421101Y-71048932D01*
X152639608Y-70869608D01*
X152818932Y-70651101D01*
X152952182Y-70401808D01*
X153034236Y-70131309D01*
X153061943Y-69850000D01*
X153034236Y-69568691D01*
X152952182Y-69298192D01*
X152818932Y-69048899D01*
X152639608Y-68830392D01*
X152421101Y-68651068D01*
X152288142Y-68580000D01*
X152421101Y-68508932D01*
X152639608Y-68329608D01*
X152818932Y-68111101D01*
X152952182Y-67861808D01*
X153034236Y-67591309D01*
X153061943Y-67310000D01*
X153034236Y-67028691D01*
X152952182Y-66758192D01*
X152818932Y-66508899D01*
X152639608Y-66290392D01*
X152421101Y-66111068D01*
X152288142Y-66040000D01*
X152421101Y-65968932D01*
X152639608Y-65789608D01*
X152818932Y-65571101D01*
X152952182Y-65321808D01*
X153034236Y-65051309D01*
X153061943Y-64770000D01*
X153034236Y-64488691D01*
X152952182Y-64218192D01*
X152818932Y-63968899D01*
X152639608Y-63750392D01*
X152421101Y-63571068D01*
X152288142Y-63500000D01*
X152421101Y-63428932D01*
X152639608Y-63249608D01*
X152818932Y-63031101D01*
X152952182Y-62781808D01*
X153034236Y-62511309D01*
X153061943Y-62230000D01*
X153034236Y-61948691D01*
X152952182Y-61678192D01*
X152818932Y-61428899D01*
X152639608Y-61210392D01*
X152421101Y-61031068D01*
X152171808Y-60897818D01*
X151901309Y-60815764D01*
X151690492Y-60795000D01*
X151549508Y-60795000D01*
X151338691Y-60815764D01*
X151068192Y-60897818D01*
X150818899Y-61031068D01*
X150600392Y-61210392D01*
X150421068Y-61428899D01*
X150287818Y-61678192D01*
X150205764Y-61948691D01*
X150178057Y-62230000D01*
X145438072Y-62230000D01*
X145438072Y-61430000D01*
X145425812Y-61305518D01*
X145389502Y-61185820D01*
X145330537Y-61075506D01*
X145251185Y-60978815D01*
X145154494Y-60899463D01*
X145044180Y-60840498D01*
X144924482Y-60804188D01*
X144800000Y-60791928D01*
X143200000Y-60791928D01*
X143075518Y-60804188D01*
X142955820Y-60840498D01*
X142845506Y-60899463D01*
X142748815Y-60978815D01*
X142669463Y-61075506D01*
X142610498Y-61185820D01*
X142574188Y-61305518D01*
X142561928Y-61430000D01*
X142561928Y-63030000D01*
X142574188Y-63154482D01*
X142610498Y-63274180D01*
X142669463Y-63384494D01*
X142748815Y-63481185D01*
X142845506Y-63560537D01*
X142955820Y-63619502D01*
X143075518Y-63655812D01*
X143093482Y-63657581D01*
X142980392Y-63750392D01*
X142801068Y-63968899D01*
X142667818Y-64218192D01*
X142585764Y-64488691D01*
X142558057Y-64770000D01*
X142585764Y-65051309D01*
X142599292Y-65095906D01*
X139742718Y-67952481D01*
X139713720Y-67976279D01*
X139689922Y-68005277D01*
X139689921Y-68005278D01*
X139618746Y-68092004D01*
X139548174Y-68224034D01*
X139504718Y-68367295D01*
X139490044Y-68516280D01*
X124633521Y-68516280D01*
X125456003Y-67693799D01*
X125485001Y-67670001D01*
X125579974Y-67554276D01*
X125599326Y-67518072D01*
X125795000Y-67518072D01*
X125919482Y-67505812D01*
X126039180Y-67469502D01*
X126149494Y-67410537D01*
X126246185Y-67331185D01*
X126325537Y-67234494D01*
X126384502Y-67124180D01*
X126405393Y-67055313D01*
X126429866Y-67085134D01*
X126655986Y-67270706D01*
X126913966Y-67408599D01*
X127193889Y-67493513D01*
X127412050Y-67515000D01*
X127557950Y-67515000D01*
X127776111Y-67493513D01*
X128056034Y-67408599D01*
X128314014Y-67270706D01*
X128540134Y-67085134D01*
X128725706Y-66859014D01*
X128755000Y-66804209D01*
X128784294Y-66859014D01*
X128969866Y-67085134D01*
X129195986Y-67270706D01*
X129453966Y-67408599D01*
X129733889Y-67493513D01*
X129952050Y-67515000D01*
X130097950Y-67515000D01*
X130316111Y-67493513D01*
X130596034Y-67408599D01*
X130854014Y-67270706D01*
X131080134Y-67085134D01*
X131265706Y-66859014D01*
X131300201Y-66794477D01*
X131369822Y-66911355D01*
X131564731Y-67127588D01*
X131798080Y-67301641D01*
X132060901Y-67426825D01*
X132208110Y-67471476D01*
X132438000Y-67350155D01*
X132438000Y-66157000D01*
X132418000Y-66157000D01*
X132418000Y-65903000D01*
X132438000Y-65903000D01*
X132438000Y-64709845D01*
X132692000Y-64709845D01*
X132692000Y-65903000D01*
X132712000Y-65903000D01*
X132712000Y-66157000D01*
X132692000Y-66157000D01*
X132692000Y-67350155D01*
X132921890Y-67471476D01*
X133069099Y-67426825D01*
X133331920Y-67301641D01*
X133565269Y-67127588D01*
X133760178Y-66911355D01*
X133829799Y-66794477D01*
X133864294Y-66859014D01*
X134049866Y-67085134D01*
X134275986Y-67270706D01*
X134533966Y-67408599D01*
X134813889Y-67493513D01*
X135032050Y-67515000D01*
X135177950Y-67515000D01*
X135396111Y-67493513D01*
X135676034Y-67408599D01*
X135934014Y-67270706D01*
X136160134Y-67085134D01*
X136345706Y-66859014D01*
X136483599Y-66601034D01*
X136568513Y-66321111D01*
X136597185Y-66030000D01*
X136568513Y-65738889D01*
X136483599Y-65458966D01*
X136345706Y-65200986D01*
X136160134Y-64974866D01*
X135934014Y-64789294D01*
X135676034Y-64651401D01*
X135396111Y-64566487D01*
X135177950Y-64545000D01*
X135032050Y-64545000D01*
X134813889Y-64566487D01*
X134533966Y-64651401D01*
X134275986Y-64789294D01*
X134049866Y-64974866D01*
X133864294Y-65200986D01*
X133829799Y-65265523D01*
X133760178Y-65148645D01*
X133565269Y-64932412D01*
X133331920Y-64758359D01*
X133069099Y-64633175D01*
X132921890Y-64588524D01*
X132692000Y-64709845D01*
X132438000Y-64709845D01*
X132208110Y-64588524D01*
X132060901Y-64633175D01*
X131798080Y-64758359D01*
X131564731Y-64932412D01*
X131369822Y-65148645D01*
X131300201Y-65265523D01*
X131265706Y-65200986D01*
X131080134Y-64974866D01*
X130854014Y-64789294D01*
X130596034Y-64651401D01*
X130316111Y-64566487D01*
X130097950Y-64545000D01*
X129952050Y-64545000D01*
X129733889Y-64566487D01*
X129453966Y-64651401D01*
X129195986Y-64789294D01*
X128969866Y-64974866D01*
X128784294Y-65200986D01*
X128755000Y-65255791D01*
X128725706Y-65200986D01*
X128540134Y-64974866D01*
X128314014Y-64789294D01*
X128056034Y-64651401D01*
X127776111Y-64566487D01*
X127557950Y-64545000D01*
X127412050Y-64545000D01*
X127193889Y-64566487D01*
X126913966Y-64651401D01*
X126655986Y-64789294D01*
X126429866Y-64974866D01*
X126405393Y-65004687D01*
X126384502Y-64935820D01*
X126325537Y-64825506D01*
X126246185Y-64728815D01*
X126149494Y-64649463D01*
X126039180Y-64590498D01*
X125919482Y-64554188D01*
X125795000Y-64541928D01*
X124095000Y-64541928D01*
X123970518Y-64554188D01*
X123850820Y-64590498D01*
X123740506Y-64649463D01*
X123643815Y-64728815D01*
X123564463Y-64825506D01*
X123505498Y-64935820D01*
X123469188Y-65055518D01*
X123456928Y-65180000D01*
X123456928Y-66880000D01*
X123469188Y-67004482D01*
X123505498Y-67124180D01*
X123564463Y-67234494D01*
X123643815Y-67331185D01*
X123657655Y-67342543D01*
X119357499Y-71642700D01*
X114312504Y-71642700D01*
X110305709Y-67635906D01*
X110319237Y-67591309D01*
X110346944Y-67310000D01*
X110319237Y-67028691D01*
X110237183Y-66758192D01*
X110103933Y-66508899D01*
X109924609Y-66290392D01*
X109706102Y-66111068D01*
X109573143Y-66040000D01*
X109706102Y-65968932D01*
X109924609Y-65789608D01*
X110103933Y-65571101D01*
X110237183Y-65321808D01*
X110319237Y-65051309D01*
X110346944Y-64770000D01*
X110319237Y-64488691D01*
X110237183Y-64218192D01*
X110103933Y-63968899D01*
X109924609Y-63750392D01*
X109811519Y-63657581D01*
X109829483Y-63655812D01*
X109949181Y-63619502D01*
X110059495Y-63560537D01*
X110156186Y-63481185D01*
X110235538Y-63384494D01*
X110294503Y-63274180D01*
X110330813Y-63154482D01*
X110343073Y-63030000D01*
X110343073Y-62230000D01*
X115083058Y-62230000D01*
X115110765Y-62511309D01*
X115192819Y-62781808D01*
X115326069Y-63031101D01*
X115505393Y-63249608D01*
X115723900Y-63428932D01*
X115856859Y-63500000D01*
X115723900Y-63571068D01*
X115505393Y-63750392D01*
X115326069Y-63968899D01*
X115192819Y-64218192D01*
X115110765Y-64488691D01*
X115083058Y-64770000D01*
X115110765Y-65051309D01*
X115192819Y-65321808D01*
X115326069Y-65571101D01*
X115505393Y-65789608D01*
X115723900Y-65968932D01*
X115856859Y-66040000D01*
X115723900Y-66111068D01*
X115505393Y-66290392D01*
X115326069Y-66508899D01*
X115192819Y-66758192D01*
X115110765Y-67028691D01*
X115083058Y-67310000D01*
X115110765Y-67591309D01*
X115192819Y-67861808D01*
X115326069Y-68111101D01*
X115505393Y-68329608D01*
X115723900Y-68508932D01*
X115856859Y-68580000D01*
X115723900Y-68651068D01*
X115505393Y-68830392D01*
X115326069Y-69048899D01*
X115192819Y-69298192D01*
X115110765Y-69568691D01*
X115083058Y-69850000D01*
X115110765Y-70131309D01*
X115192819Y-70401808D01*
X115326069Y-70651101D01*
X115505393Y-70869608D01*
X115723900Y-71048932D01*
X115973193Y-71182182D01*
X116243692Y-71264236D01*
X116454509Y-71285000D01*
X116595493Y-71285000D01*
X116806310Y-71264236D01*
X117076809Y-71182182D01*
X117326102Y-71048932D01*
X117544609Y-70869608D01*
X117723933Y-70651101D01*
X117857183Y-70401808D01*
X117939237Y-70131309D01*
X117966944Y-69850000D01*
X117939237Y-69568691D01*
X117857183Y-69298192D01*
X117723933Y-69048899D01*
X117544609Y-68830392D01*
X117326102Y-68651068D01*
X117193143Y-68580000D01*
X117326102Y-68508932D01*
X117544609Y-68329608D01*
X117723933Y-68111101D01*
X117857183Y-67861808D01*
X117939237Y-67591309D01*
X117966944Y-67310000D01*
X117939237Y-67028691D01*
X117857183Y-66758192D01*
X117723933Y-66508899D01*
X117544609Y-66290392D01*
X117326102Y-66111068D01*
X117193143Y-66040000D01*
X117326102Y-65968932D01*
X117544609Y-65789608D01*
X117723933Y-65571101D01*
X117857183Y-65321808D01*
X117939237Y-65051309D01*
X117966944Y-64770000D01*
X117939237Y-64488691D01*
X117857183Y-64218192D01*
X117723933Y-63968899D01*
X117544609Y-63750392D01*
X117326102Y-63571068D01*
X117193143Y-63500000D01*
X117326102Y-63428932D01*
X117544609Y-63249608D01*
X117723933Y-63031101D01*
X117857183Y-62781808D01*
X117939237Y-62511309D01*
X117966944Y-62230000D01*
X117939237Y-61948691D01*
X117857183Y-61678192D01*
X117723933Y-61428899D01*
X117544609Y-61210392D01*
X117326102Y-61031068D01*
X117076809Y-60897818D01*
X116806310Y-60815764D01*
X116595493Y-60795000D01*
X116454509Y-60795000D01*
X116243692Y-60815764D01*
X115973193Y-60897818D01*
X115723900Y-61031068D01*
X115505393Y-61210392D01*
X115326069Y-61428899D01*
X115192819Y-61678192D01*
X115110765Y-61948691D01*
X115083058Y-62230000D01*
X110343073Y-62230000D01*
X110343073Y-61430000D01*
X110330813Y-61305518D01*
X110294503Y-61185820D01*
X110235538Y-61075506D01*
X110156186Y-60978815D01*
X110059495Y-60899463D01*
X109949181Y-60840498D01*
X109829483Y-60804188D01*
X109705001Y-60791928D01*
X108105001Y-60791928D01*
X107980519Y-60804188D01*
X107860821Y-60840498D01*
X107750507Y-60899463D01*
X107653816Y-60978815D01*
X107574464Y-61075506D01*
X107515499Y-61185820D01*
X107479189Y-61305518D01*
X107466929Y-61430000D01*
X107466929Y-63030000D01*
X107479189Y-63154482D01*
X107515499Y-63274180D01*
X107574464Y-63384494D01*
X107653816Y-63481185D01*
X107750507Y-63560537D01*
X107860821Y-63619502D01*
X107980519Y-63655812D01*
X107998483Y-63657581D01*
X107885393Y-63750392D01*
X107706069Y-63968899D01*
X107572819Y-64218192D01*
X107490765Y-64488691D01*
X107463058Y-64770000D01*
X107490765Y-65051309D01*
X107572819Y-65321808D01*
X107706069Y-65571101D01*
X107885393Y-65789608D01*
X108103900Y-65968932D01*
X108236859Y-66040000D01*
X108103900Y-66111068D01*
X107885393Y-66290392D01*
X107706069Y-66508899D01*
X107572819Y-66758192D01*
X107490765Y-67028691D01*
X107463058Y-67310000D01*
X107490765Y-67591309D01*
X107572819Y-67861808D01*
X107706069Y-68111101D01*
X107885393Y-68329608D01*
X108103900Y-68508932D01*
X108241683Y-68582579D01*
X108049870Y-68697615D01*
X107841482Y-68886586D01*
X107673964Y-69112580D01*
X107553755Y-69366913D01*
X107513097Y-69500961D01*
X107635086Y-69723000D01*
X108778001Y-69723000D01*
X108778001Y-69703000D01*
X109032001Y-69703000D01*
X109032001Y-69723000D01*
X110174916Y-69723000D01*
X110199129Y-69678929D01*
X113433906Y-72913708D01*
X113457700Y-72942701D01*
X113467569Y-72950800D01*
X111421523Y-72950800D01*
X111384200Y-72947124D01*
X111346877Y-72950800D01*
X111346868Y-72950800D01*
X111235215Y-72961797D01*
X111091954Y-73005254D01*
X110959925Y-73075826D01*
X110959923Y-73075827D01*
X110959924Y-73075827D01*
X110873197Y-73147001D01*
X110873193Y-73147005D01*
X110844200Y-73170799D01*
X110820406Y-73199792D01*
X109218887Y-74801312D01*
X109036336Y-74765000D01*
X108753666Y-74765000D01*
X108476427Y-74820147D01*
X108215274Y-74928320D01*
X107980242Y-75085363D01*
X107780364Y-75285241D01*
X107623321Y-75520273D01*
X107515148Y-75781426D01*
X107460001Y-76058665D01*
X104545000Y-76058665D01*
X104545000Y-70199039D01*
X107513097Y-70199039D01*
X107553755Y-70333087D01*
X107673964Y-70587420D01*
X107841482Y-70813414D01*
X108049870Y-71002385D01*
X108291120Y-71147070D01*
X108555961Y-71241909D01*
X108778001Y-71120624D01*
X108778001Y-69977000D01*
X109032001Y-69977000D01*
X109032001Y-71120624D01*
X109254041Y-71241909D01*
X109518882Y-71147070D01*
X109760132Y-71002385D01*
X109968520Y-70813414D01*
X110136038Y-70587420D01*
X110256247Y-70333087D01*
X110296905Y-70199039D01*
X110174916Y-69977000D01*
X109032001Y-69977000D01*
X108778001Y-69977000D01*
X107635086Y-69977000D01*
X107513097Y-70199039D01*
X104545000Y-70199039D01*
X104545000Y-57455810D01*
X111001037Y-57455810D01*
X111009729Y-57517337D01*
X111102726Y-57726882D01*
X111234817Y-57914258D01*
X111400925Y-58072264D01*
X111594667Y-58194828D01*
X111808597Y-58277239D01*
X112034494Y-58316331D01*
X112218001Y-58156598D01*
X112218001Y-57277000D01*
X112472001Y-57277000D01*
X112472001Y-58156598D01*
X112655508Y-58316331D01*
X112881405Y-58277239D01*
X113095335Y-58194828D01*
X113289077Y-58072264D01*
X113455185Y-57914258D01*
X113587276Y-57726882D01*
X113680273Y-57517337D01*
X113688965Y-57455810D01*
X113563164Y-57277000D01*
X112472001Y-57277000D01*
X112218001Y-57277000D01*
X111126838Y-57277000D01*
X111001037Y-57455810D01*
X104545000Y-57455810D01*
X104545000Y-55880000D01*
X110954389Y-55880000D01*
X110976786Y-56107400D01*
X111043116Y-56326060D01*
X111143930Y-56514669D01*
X111102726Y-56573118D01*
X111009729Y-56782663D01*
X111001037Y-56844190D01*
X111126838Y-57023000D01*
X111891892Y-57023000D01*
X111892601Y-57023215D01*
X112063022Y-57040000D01*
X112626980Y-57040000D01*
X112797401Y-57023215D01*
X112798110Y-57023000D01*
X113563164Y-57023000D01*
X113688965Y-56844190D01*
X113680273Y-56782663D01*
X113587276Y-56573118D01*
X113546072Y-56514669D01*
X113646886Y-56326060D01*
X113713216Y-56107400D01*
X113735613Y-55880000D01*
X113730739Y-55830507D01*
X127583669Y-55830507D01*
X127622761Y-56056404D01*
X127705172Y-56270334D01*
X127827736Y-56464076D01*
X127985742Y-56630184D01*
X128173118Y-56762275D01*
X128382663Y-56855272D01*
X128444190Y-56863964D01*
X128623000Y-56738163D01*
X128623000Y-55647000D01*
X127743402Y-55647000D01*
X127583669Y-55830507D01*
X113730739Y-55830507D01*
X113713216Y-55652600D01*
X113649908Y-55443902D01*
X113684503Y-55379180D01*
X113720813Y-55259482D01*
X113725736Y-55209493D01*
X127583669Y-55209493D01*
X127743402Y-55393000D01*
X128623000Y-55393000D01*
X128623000Y-55238021D01*
X128860000Y-55238021D01*
X128860000Y-55801978D01*
X128876785Y-55972399D01*
X128877000Y-55973108D01*
X128877000Y-56738163D01*
X129055810Y-56863964D01*
X129117337Y-56855272D01*
X129326882Y-56762275D01*
X129385331Y-56721071D01*
X129573940Y-56821885D01*
X129792600Y-56888215D01*
X130020000Y-56910612D01*
X130247399Y-56888215D01*
X130456098Y-56824907D01*
X130520820Y-56859502D01*
X130640518Y-56895812D01*
X130765000Y-56908072D01*
X131815000Y-56908072D01*
X131939482Y-56895812D01*
X132059180Y-56859502D01*
X132169494Y-56800537D01*
X132266185Y-56721185D01*
X132345537Y-56624494D01*
X132404502Y-56514180D01*
X132440812Y-56394482D01*
X132453072Y-56270000D01*
X132453072Y-55880000D01*
X146769388Y-55880000D01*
X146791785Y-56107400D01*
X146855093Y-56316098D01*
X146820498Y-56380820D01*
X146784188Y-56500518D01*
X146771928Y-56625000D01*
X146771928Y-57675000D01*
X146784188Y-57799482D01*
X146820498Y-57919180D01*
X146879463Y-58029494D01*
X146958815Y-58126185D01*
X147055506Y-58205537D01*
X147165820Y-58264502D01*
X147285518Y-58300812D01*
X147410000Y-58313072D01*
X148910000Y-58313072D01*
X149034482Y-58300812D01*
X149154180Y-58264502D01*
X149264494Y-58205537D01*
X149361185Y-58126185D01*
X149440537Y-58029494D01*
X149499502Y-57919180D01*
X149535812Y-57799482D01*
X149548072Y-57675000D01*
X149548072Y-56625000D01*
X149535812Y-56500518D01*
X149499502Y-56380820D01*
X149464907Y-56316098D01*
X149528215Y-56107400D01*
X149550612Y-55880000D01*
X149528215Y-55652600D01*
X149461885Y-55433940D01*
X149361071Y-55245331D01*
X149402275Y-55186882D01*
X149495272Y-54977337D01*
X149503964Y-54915810D01*
X149378163Y-54737000D01*
X148613109Y-54737000D01*
X148612400Y-54736785D01*
X148441979Y-54720000D01*
X147878021Y-54720000D01*
X147707600Y-54736785D01*
X147706891Y-54737000D01*
X146941837Y-54737000D01*
X146816036Y-54915810D01*
X146824728Y-54977337D01*
X146917725Y-55186882D01*
X146958929Y-55245331D01*
X146858115Y-55433940D01*
X146791785Y-55652600D01*
X146769388Y-55880000D01*
X132453072Y-55880000D01*
X132453072Y-54770000D01*
X132440812Y-54645518D01*
X132404502Y-54525820D01*
X132345537Y-54415506D01*
X132266185Y-54318815D01*
X132248365Y-54304190D01*
X146816036Y-54304190D01*
X146941837Y-54483000D01*
X148033000Y-54483000D01*
X148033000Y-53603402D01*
X148287000Y-53603402D01*
X148287000Y-54483000D01*
X149378163Y-54483000D01*
X149503964Y-54304190D01*
X149495272Y-54242663D01*
X149402275Y-54033118D01*
X149270184Y-53845742D01*
X149104076Y-53687736D01*
X148910334Y-53565172D01*
X148696404Y-53482761D01*
X148470507Y-53443669D01*
X148287000Y-53603402D01*
X148033000Y-53603402D01*
X147849493Y-53443669D01*
X147623596Y-53482761D01*
X147409666Y-53565172D01*
X147215924Y-53687736D01*
X147049816Y-53845742D01*
X146917725Y-54033118D01*
X146824728Y-54242663D01*
X146816036Y-54304190D01*
X132248365Y-54304190D01*
X132169494Y-54239463D01*
X132059180Y-54180498D01*
X131939482Y-54144188D01*
X131815000Y-54131928D01*
X130765000Y-54131928D01*
X130640518Y-54144188D01*
X130520820Y-54180498D01*
X130456098Y-54215093D01*
X130247400Y-54151785D01*
X130020000Y-54129388D01*
X129792601Y-54151785D01*
X129573941Y-54218115D01*
X129385331Y-54318929D01*
X129326882Y-54277725D01*
X129117337Y-54184728D01*
X129055810Y-54176036D01*
X128877000Y-54301837D01*
X128877000Y-55066891D01*
X128876785Y-55067600D01*
X128860000Y-55238021D01*
X128623000Y-55238021D01*
X128623000Y-54301837D01*
X128444190Y-54176036D01*
X128382663Y-54184728D01*
X128173118Y-54277725D01*
X127985742Y-54409816D01*
X127827736Y-54575924D01*
X127705172Y-54769666D01*
X127622761Y-54983596D01*
X127583669Y-55209493D01*
X113725736Y-55209493D01*
X113733073Y-55135000D01*
X113733073Y-54085000D01*
X113720813Y-53960518D01*
X113684503Y-53840820D01*
X113625538Y-53730506D01*
X113546186Y-53633815D01*
X113449495Y-53554463D01*
X113339181Y-53495498D01*
X113219483Y-53459188D01*
X113095001Y-53446928D01*
X111595001Y-53446928D01*
X111470519Y-53459188D01*
X111350821Y-53495498D01*
X111240507Y-53554463D01*
X111143816Y-53633815D01*
X111064464Y-53730506D01*
X111005499Y-53840820D01*
X110969189Y-53960518D01*
X110956929Y-54085000D01*
X110956929Y-55135000D01*
X110969189Y-55259482D01*
X111005499Y-55379180D01*
X111040094Y-55443902D01*
X110976786Y-55652600D01*
X110954389Y-55880000D01*
X104545000Y-55880000D01*
X104545000Y-49530000D01*
X107453058Y-49530000D01*
X107480765Y-49811309D01*
X107562819Y-50081808D01*
X107696069Y-50331101D01*
X107875393Y-50549608D01*
X108093900Y-50728932D01*
X108343193Y-50862182D01*
X108613692Y-50944236D01*
X108824509Y-50965000D01*
X108965493Y-50965000D01*
X109176310Y-50944236D01*
X109446809Y-50862182D01*
X109696102Y-50728932D01*
X109914609Y-50549608D01*
X110093933Y-50331101D01*
X110227183Y-50081808D01*
X110309237Y-49811309D01*
X110336944Y-49530000D01*
X110323024Y-49388665D01*
X115080001Y-49388665D01*
X115080001Y-49671335D01*
X115135148Y-49948574D01*
X115243321Y-50209727D01*
X115400364Y-50444759D01*
X115600242Y-50644637D01*
X115835274Y-50801680D01*
X116096427Y-50909853D01*
X116373666Y-50965000D01*
X116656336Y-50965000D01*
X116933575Y-50909853D01*
X117194728Y-50801680D01*
X117429760Y-50644637D01*
X117629638Y-50444759D01*
X117786681Y-50209727D01*
X117894854Y-49948574D01*
X117950001Y-49671335D01*
X117950001Y-49388665D01*
X124775000Y-49388665D01*
X124775000Y-49671335D01*
X124830147Y-49948574D01*
X124938320Y-50209727D01*
X125095363Y-50444759D01*
X125295241Y-50644637D01*
X125530273Y-50801680D01*
X125791426Y-50909853D01*
X126068665Y-50965000D01*
X126351335Y-50965000D01*
X126628574Y-50909853D01*
X126889727Y-50801680D01*
X127124759Y-50644637D01*
X127324637Y-50444759D01*
X127481680Y-50209727D01*
X127589853Y-49948574D01*
X127645000Y-49671335D01*
X127645000Y-49530000D01*
X132388057Y-49530000D01*
X132415764Y-49811309D01*
X132497818Y-50081808D01*
X132631068Y-50331101D01*
X132810392Y-50549608D01*
X133028899Y-50728932D01*
X133278192Y-50862182D01*
X133548691Y-50944236D01*
X133759508Y-50965000D01*
X133900492Y-50965000D01*
X134111309Y-50944236D01*
X134381808Y-50862182D01*
X134631101Y-50728932D01*
X134849608Y-50549608D01*
X135028932Y-50331101D01*
X135162182Y-50081808D01*
X135244236Y-49811309D01*
X135271943Y-49530000D01*
X135258023Y-49388665D01*
X142555000Y-49388665D01*
X142555000Y-49671335D01*
X142610147Y-49948574D01*
X142718320Y-50209727D01*
X142875363Y-50444759D01*
X143075241Y-50644637D01*
X143310273Y-50801680D01*
X143571426Y-50909853D01*
X143848665Y-50965000D01*
X144131335Y-50965000D01*
X144408574Y-50909853D01*
X144669727Y-50801680D01*
X144904759Y-50644637D01*
X145104637Y-50444759D01*
X145261680Y-50209727D01*
X145369853Y-49948574D01*
X145425000Y-49671335D01*
X145425000Y-49530000D01*
X150168057Y-49530000D01*
X150195764Y-49811309D01*
X150277818Y-50081808D01*
X150411068Y-50331101D01*
X150590392Y-50549608D01*
X150808899Y-50728932D01*
X151058192Y-50862182D01*
X151328691Y-50944236D01*
X151539508Y-50965000D01*
X151680492Y-50965000D01*
X151891309Y-50944236D01*
X152161808Y-50862182D01*
X152411101Y-50728932D01*
X152629608Y-50549608D01*
X152808932Y-50331101D01*
X152942182Y-50081808D01*
X153024236Y-49811309D01*
X153051943Y-49530000D01*
X153024236Y-49248691D01*
X152942182Y-48978192D01*
X152808932Y-48728899D01*
X152629608Y-48510392D01*
X152411101Y-48331068D01*
X152161808Y-48197818D01*
X151891309Y-48115764D01*
X151680492Y-48095000D01*
X151539508Y-48095000D01*
X151328691Y-48115764D01*
X151058192Y-48197818D01*
X150808899Y-48331068D01*
X150590392Y-48510392D01*
X150411068Y-48728899D01*
X150277818Y-48978192D01*
X150195764Y-49248691D01*
X150168057Y-49530000D01*
X145425000Y-49530000D01*
X145425000Y-49388665D01*
X145369853Y-49111426D01*
X145261680Y-48850273D01*
X145104637Y-48615241D01*
X144904759Y-48415363D01*
X144669727Y-48258320D01*
X144408574Y-48150147D01*
X144131335Y-48095000D01*
X143848665Y-48095000D01*
X143571426Y-48150147D01*
X143310273Y-48258320D01*
X143075241Y-48415363D01*
X142875363Y-48615241D01*
X142718320Y-48850273D01*
X142610147Y-49111426D01*
X142555000Y-49388665D01*
X135258023Y-49388665D01*
X135244236Y-49248691D01*
X135162182Y-48978192D01*
X135028932Y-48728899D01*
X134849608Y-48510392D01*
X134631101Y-48331068D01*
X134381808Y-48197818D01*
X134111309Y-48115764D01*
X133900492Y-48095000D01*
X133759508Y-48095000D01*
X133548691Y-48115764D01*
X133278192Y-48197818D01*
X133028899Y-48331068D01*
X132810392Y-48510392D01*
X132631068Y-48728899D01*
X132497818Y-48978192D01*
X132415764Y-49248691D01*
X132388057Y-49530000D01*
X127645000Y-49530000D01*
X127645000Y-49388665D01*
X127589853Y-49111426D01*
X127481680Y-48850273D01*
X127324637Y-48615241D01*
X127124759Y-48415363D01*
X126889727Y-48258320D01*
X126628574Y-48150147D01*
X126351335Y-48095000D01*
X126068665Y-48095000D01*
X125791426Y-48150147D01*
X125530273Y-48258320D01*
X125295241Y-48415363D01*
X125095363Y-48615241D01*
X124938320Y-48850273D01*
X124830147Y-49111426D01*
X124775000Y-49388665D01*
X117950001Y-49388665D01*
X117894854Y-49111426D01*
X117786681Y-48850273D01*
X117629638Y-48615241D01*
X117429760Y-48415363D01*
X117194728Y-48258320D01*
X116933575Y-48150147D01*
X116656336Y-48095000D01*
X116373666Y-48095000D01*
X116096427Y-48150147D01*
X115835274Y-48258320D01*
X115600242Y-48415363D01*
X115400364Y-48615241D01*
X115243321Y-48850273D01*
X115135148Y-49111426D01*
X115080001Y-49388665D01*
X110323024Y-49388665D01*
X110309237Y-49248691D01*
X110227183Y-48978192D01*
X110093933Y-48728899D01*
X109914609Y-48510392D01*
X109696102Y-48331068D01*
X109446809Y-48197818D01*
X109176310Y-48115764D01*
X108965493Y-48095000D01*
X108824509Y-48095000D01*
X108613692Y-48115764D01*
X108343193Y-48197818D01*
X108093900Y-48331068D01*
X107875393Y-48510392D01*
X107696069Y-48728899D01*
X107562819Y-48978192D01*
X107480765Y-49248691D01*
X107453058Y-49530000D01*
X104545000Y-49530000D01*
X104545000Y-38439005D01*
X109962054Y-38439005D01*
X109962054Y-38726195D01*
X110018082Y-39007867D01*
X110127985Y-39273196D01*
X110287540Y-39511986D01*
X110490614Y-39715060D01*
X110729404Y-39874615D01*
X110994733Y-39984518D01*
X111276405Y-40040546D01*
X111563595Y-40040546D01*
X111845267Y-39984518D01*
X112110596Y-39874615D01*
X112349386Y-39715060D01*
X112552460Y-39511986D01*
X112712015Y-39273196D01*
X112821918Y-39007867D01*
X112877946Y-38726195D01*
X112877946Y-38439005D01*
X148452854Y-38439005D01*
X148452854Y-38726195D01*
X148508882Y-39007867D01*
X148618785Y-39273196D01*
X148778340Y-39511986D01*
X148981414Y-39715060D01*
X149220204Y-39874615D01*
X149485533Y-39984518D01*
X149767205Y-40040546D01*
X150054395Y-40040546D01*
X150336067Y-39984518D01*
X150601396Y-39874615D01*
X150840186Y-39715060D01*
X151043260Y-39511986D01*
X151202815Y-39273196D01*
X151312718Y-39007867D01*
X151368746Y-38726195D01*
X151368746Y-38439005D01*
X151312718Y-38157333D01*
X151202815Y-37892004D01*
X151043260Y-37653214D01*
X150840186Y-37450140D01*
X150601396Y-37290585D01*
X150336067Y-37180682D01*
X150054395Y-37124654D01*
X149767205Y-37124654D01*
X149485533Y-37180682D01*
X149220204Y-37290585D01*
X148981414Y-37450140D01*
X148778340Y-37653214D01*
X148618785Y-37892004D01*
X148508882Y-38157333D01*
X148452854Y-38439005D01*
X112877946Y-38439005D01*
X112821918Y-38157333D01*
X112712015Y-37892004D01*
X112552460Y-37653214D01*
X112349386Y-37450140D01*
X112110596Y-37290585D01*
X111845267Y-37180682D01*
X111563595Y-37124654D01*
X111276405Y-37124654D01*
X110994733Y-37180682D01*
X110729404Y-37290585D01*
X110490614Y-37450140D01*
X110287540Y-37653214D01*
X110127985Y-37892004D01*
X110018082Y-38157333D01*
X109962054Y-38439005D01*
X104545000Y-38439005D01*
X104545000Y-33760000D01*
X155965000Y-33760000D01*
X155965001Y-179773346D01*
X155965001Y-179773346D01*
G37*
X155965001Y-179773346D02*
X155923115Y-179672224D01*
X155763560Y-179433434D01*
X155560486Y-179230360D01*
X155321696Y-179070805D01*
X155056367Y-178960902D01*
X154774695Y-178904874D01*
X154487505Y-178904874D01*
X154205833Y-178960902D01*
X153940504Y-179070805D01*
X153701714Y-179230360D01*
X153498640Y-179433434D01*
X153339085Y-179672224D01*
X153229182Y-179937553D01*
X153173154Y-180219225D01*
X153173154Y-180506415D01*
X153229182Y-180788087D01*
X153339085Y-181053416D01*
X153498640Y-181292206D01*
X153701714Y-181495280D01*
X153940504Y-181654835D01*
X153971853Y-181667820D01*
X106480347Y-181667820D01*
X106511696Y-181654835D01*
X106750486Y-181495280D01*
X106953560Y-181292206D01*
X107113115Y-181053416D01*
X107223018Y-180788087D01*
X107279046Y-180506415D01*
X107279046Y-180219225D01*
X107223018Y-179937553D01*
X107113115Y-179672224D01*
X106953560Y-179433434D01*
X106750486Y-179230360D01*
X106511696Y-179070805D01*
X106246367Y-178960902D01*
X105964695Y-178904874D01*
X105677505Y-178904874D01*
X105395833Y-178960902D01*
X105130504Y-179070805D01*
X104891714Y-179230360D01*
X104688640Y-179433434D01*
X104545000Y-179648406D01*
X104545000Y-165780420D01*
X109512928Y-165780420D01*
X109512928Y-167530420D01*
X109525188Y-167654902D01*
X109561498Y-167774600D01*
X109620463Y-167884914D01*
X109699815Y-167981605D01*
X109796506Y-168060957D01*
X109906820Y-168119922D01*
X110026518Y-168156232D01*
X110151000Y-168168492D01*
X111901000Y-168168492D01*
X112025482Y-168156232D01*
X112145180Y-168119922D01*
X112255494Y-168060957D01*
X112352185Y-167981605D01*
X112431537Y-167884914D01*
X112490502Y-167774600D01*
X112526812Y-167654902D01*
X112539072Y-167530420D01*
X112539072Y-166506698D01*
X113016000Y-166506698D01*
X113016000Y-166804142D01*
X113074029Y-167095871D01*
X113187856Y-167370673D01*
X113353107Y-167617989D01*
X113563431Y-167828313D01*
X113810747Y-167993564D01*
X114085549Y-168107391D01*
X114377278Y-168165420D01*
X114674722Y-168165420D01*
X114966451Y-168107391D01*
X115241253Y-167993564D01*
X115488569Y-167828313D01*
X115698893Y-167617989D01*
X115864144Y-167370673D01*
X115977971Y-167095871D01*
X116036000Y-166804142D01*
X116036000Y-166506698D01*
X115977971Y-166214969D01*
X115864144Y-165940167D01*
X115757405Y-165780420D01*
X126756928Y-165780420D01*
X126756928Y-167530420D01*
X126769188Y-167654902D01*
X126805498Y-167774600D01*
X126864463Y-167884914D01*
X126943815Y-167981605D01*
X127040506Y-168060957D01*
X127150820Y-168119922D01*
X127270518Y-168156232D01*
X127395000Y-168168492D01*
X129145000Y-168168492D01*
X129269482Y-168156232D01*
X129389180Y-168119922D01*
X129499494Y-168060957D01*
X129596185Y-167981605D01*
X129675537Y-167884914D01*
X129734502Y-167774600D01*
X129770812Y-167654902D01*
X129783072Y-167530420D01*
X129783072Y-166506698D01*
X130260000Y-166506698D01*
X130260000Y-166804142D01*
X130318029Y-167095871D01*
X130431856Y-167370673D01*
X130597107Y-167617989D01*
X130807431Y-167828313D01*
X131054747Y-167993564D01*
X131329549Y-168107391D01*
X131621278Y-168165420D01*
X131918722Y-168165420D01*
X132210451Y-168107391D01*
X132485253Y-167993564D01*
X132732569Y-167828313D01*
X132942893Y-167617989D01*
X133108144Y-167370673D01*
X133221971Y-167095871D01*
X133280000Y-166804142D01*
X133280000Y-166506698D01*
X133221971Y-166214969D01*
X133108144Y-165940167D01*
X133001405Y-165780420D01*
X144536928Y-165780420D01*
X144536928Y-167530420D01*
X144549188Y-167654902D01*
X144585498Y-167774600D01*
X144644463Y-167884914D01*
X144723815Y-167981605D01*
X144820506Y-168060957D01*
X144930820Y-168119922D01*
X145050518Y-168156232D01*
X145175000Y-168168492D01*
X146925000Y-168168492D01*
X147049482Y-168156232D01*
X147169180Y-168119922D01*
X147279494Y-168060957D01*
X147376185Y-167981605D01*
X147455537Y-167884914D01*
X147514502Y-167774600D01*
X147550812Y-167654902D01*
X147563072Y-167530420D01*
X147563072Y-166506698D01*
X148040000Y-166506698D01*
X148040000Y-166804142D01*
X148098029Y-167095871D01*
X148211856Y-167370673D01*
X148377107Y-167617989D01*
X148587431Y-167828313D01*
X148834747Y-167993564D01*
X149109549Y-168107391D01*
X149401278Y-168165420D01*
X149698722Y-168165420D01*
X149990451Y-168107391D01*
X150265253Y-167993564D01*
X150512569Y-167828313D01*
X150722893Y-167617989D01*
X150888144Y-167370673D01*
X151001971Y-167095871D01*
X151060000Y-166804142D01*
X151060000Y-166506698D01*
X151001971Y-166214969D01*
X150888144Y-165940167D01*
X150722893Y-165692851D01*
X150512569Y-165482527D01*
X150265253Y-165317276D01*
X149990451Y-165203449D01*
X149698722Y-165145420D01*
X149401278Y-165145420D01*
X149109549Y-165203449D01*
X148834747Y-165317276D01*
X148587431Y-165482527D01*
X148377107Y-165692851D01*
X148211856Y-165940167D01*
X148098029Y-166214969D01*
X148040000Y-166506698D01*
X147563072Y-166506698D01*
X147563072Y-165780420D01*
X147550812Y-165655938D01*
X147514502Y-165536240D01*
X147455537Y-165425926D01*
X147376185Y-165329235D01*
X147279494Y-165249883D01*
X147169180Y-165190918D01*
X147049482Y-165154608D01*
X146925000Y-165142348D01*
X145175000Y-165142348D01*
X145050518Y-165154608D01*
X144930820Y-165190918D01*
X144820506Y-165249883D01*
X144723815Y-165329235D01*
X144644463Y-165425926D01*
X144585498Y-165536240D01*
X144549188Y-165655938D01*
X144536928Y-165780420D01*
X133001405Y-165780420D01*
X132942893Y-165692851D01*
X132732569Y-165482527D01*
X132485253Y-165317276D01*
X132210451Y-165203449D01*
X131918722Y-165145420D01*
X131621278Y-165145420D01*
X131329549Y-165203449D01*
X131054747Y-165317276D01*
X130807431Y-165482527D01*
X130597107Y-165692851D01*
X130431856Y-165940167D01*
X130318029Y-166214969D01*
X130260000Y-166506698D01*
X129783072Y-166506698D01*
X129783072Y-165780420D01*
X129770812Y-165655938D01*
X129734502Y-165536240D01*
X129675537Y-165425926D01*
X129596185Y-165329235D01*
X129499494Y-165249883D01*
X129389180Y-165190918D01*
X129269482Y-165154608D01*
X129145000Y-165142348D01*
X127395000Y-165142348D01*
X127270518Y-165154608D01*
X127150820Y-165190918D01*
X127040506Y-165249883D01*
X126943815Y-165329235D01*
X126864463Y-165425926D01*
X126805498Y-165536240D01*
X126769188Y-165655938D01*
X126756928Y-165780420D01*
X115757405Y-165780420D01*
X115698893Y-165692851D01*
X115488569Y-165482527D01*
X115241253Y-165317276D01*
X114966451Y-165203449D01*
X114674722Y-165145420D01*
X114377278Y-165145420D01*
X114085549Y-165203449D01*
X113810747Y-165317276D01*
X113563431Y-165482527D01*
X113353107Y-165692851D01*
X113187856Y-165940167D01*
X113074029Y-166214969D01*
X113016000Y-166506698D01*
X112539072Y-166506698D01*
X112539072Y-165780420D01*
X112526812Y-165655938D01*
X112490502Y-165536240D01*
X112431537Y-165425926D01*
X112352185Y-165329235D01*
X112255494Y-165249883D01*
X112145180Y-165190918D01*
X112025482Y-165154608D01*
X111901000Y-165142348D01*
X110151000Y-165142348D01*
X110026518Y-165154608D01*
X109906820Y-165190918D01*
X109796506Y-165249883D01*
X109699815Y-165329235D01*
X109620463Y-165425926D01*
X109561498Y-165536240D01*
X109525188Y-165655938D01*
X109512928Y-165780420D01*
X104545000Y-165780420D01*
X104545000Y-161109915D01*
X106591000Y-161109915D01*
X106591000Y-161500925D01*
X106667282Y-161884423D01*
X106816915Y-162245670D01*
X107034149Y-162570784D01*
X107310636Y-162847271D01*
X107635750Y-163064505D01*
X107996997Y-163214138D01*
X108380495Y-163290420D01*
X108771505Y-163290420D01*
X109155003Y-163214138D01*
X109516250Y-163064505D01*
X109841364Y-162847271D01*
X110117851Y-162570784D01*
X110292157Y-162309915D01*
X114991000Y-162309915D01*
X114991000Y-162700925D01*
X115067282Y-163084423D01*
X115216915Y-163445670D01*
X115434149Y-163770784D01*
X115710636Y-164047271D01*
X116035750Y-164264505D01*
X116396997Y-164414138D01*
X116780495Y-164490420D01*
X117171505Y-164490420D01*
X117555003Y-164414138D01*
X117916250Y-164264505D01*
X118241364Y-164047271D01*
X118517851Y-163770784D01*
X118735085Y-163445670D01*
X118884718Y-163084423D01*
X118961000Y-162700925D01*
X118961000Y-162309915D01*
X118884718Y-161926417D01*
X118735085Y-161565170D01*
X118517851Y-161240056D01*
X118387710Y-161109915D01*
X123835000Y-161109915D01*
X123835000Y-161500925D01*
X123911282Y-161884423D01*
X124060915Y-162245670D01*
X124278149Y-162570784D01*
X124554636Y-162847271D01*
X124879750Y-163064505D01*
X125240997Y-163214138D01*
X125624495Y-163290420D01*
X126015505Y-163290420D01*
X126399003Y-163214138D01*
X126760250Y-163064505D01*
X127085364Y-162847271D01*
X127361851Y-162570784D01*
X127536157Y-162309915D01*
X132235000Y-162309915D01*
X132235000Y-162700925D01*
X132311282Y-163084423D01*
X132460915Y-163445670D01*
X132678149Y-163770784D01*
X132954636Y-164047271D01*
X133279750Y-164264505D01*
X133640997Y-164414138D01*
X134024495Y-164490420D01*
X134415505Y-164490420D01*
X134799003Y-164414138D01*
X135160250Y-164264505D01*
X135485364Y-164047271D01*
X135761851Y-163770784D01*
X135979085Y-163445670D01*
X136128718Y-163084423D01*
X136205000Y-162700925D01*
X136205000Y-162309915D01*
X136128718Y-161926417D01*
X135979085Y-161565170D01*
X135761851Y-161240056D01*
X135631710Y-161109915D01*
X141615000Y-161109915D01*
X141615000Y-161500925D01*
X141691282Y-161884423D01*
X141840915Y-162245670D01*
X142058149Y-162570784D01*
X142334636Y-162847271D01*
X142659750Y-163064505D01*
X143020997Y-163214138D01*
X143404495Y-163290420D01*
X143795505Y-163290420D01*
X144179003Y-163214138D01*
X144540250Y-163064505D01*
X144865364Y-162847271D01*
X145141851Y-162570784D01*
X145316157Y-162309915D01*
X150015000Y-162309915D01*
X150015000Y-162700925D01*
X150091282Y-163084423D01*
X150240915Y-163445670D01*
X150458149Y-163770784D01*
X150734636Y-164047271D01*
X151059750Y-164264505D01*
X151420997Y-164414138D01*
X151804495Y-164490420D01*
X152195505Y-164490420D01*
X152579003Y-164414138D01*
X152940250Y-164264505D01*
X153265364Y-164047271D01*
X153541851Y-163770784D01*
X153759085Y-163445670D01*
X153908718Y-163084423D01*
X153985000Y-162700925D01*
X153985000Y-162309915D01*
X153908718Y-161926417D01*
X153759085Y-161565170D01*
X153541851Y-161240056D01*
X153265364Y-160963569D01*
X152940250Y-160746335D01*
X152579003Y-160596702D01*
X152195505Y-160520420D01*
X151804495Y-160520420D01*
X151420997Y-160596702D01*
X151059750Y-160746335D01*
X150734636Y-160963569D01*
X150458149Y-161240056D01*
X150240915Y-161565170D01*
X150091282Y-161926417D01*
X150015000Y-162309915D01*
X145316157Y-162309915D01*
X145359085Y-162245670D01*
X145508718Y-161884423D01*
X145585000Y-161500925D01*
X145585000Y-161109915D01*
X145508718Y-160726417D01*
X145359085Y-160365170D01*
X145141851Y-160040056D01*
X144865364Y-159763569D01*
X144540250Y-159546335D01*
X144179003Y-159396702D01*
X143795505Y-159320420D01*
X143404495Y-159320420D01*
X143020997Y-159396702D01*
X142659750Y-159546335D01*
X142334636Y-159763569D01*
X142058149Y-160040056D01*
X141840915Y-160365170D01*
X141691282Y-160726417D01*
X141615000Y-161109915D01*
X135631710Y-161109915D01*
X135485364Y-160963569D01*
X135160250Y-160746335D01*
X134799003Y-160596702D01*
X134415505Y-160520420D01*
X134024495Y-160520420D01*
X133640997Y-160596702D01*
X133279750Y-160746335D01*
X132954636Y-160963569D01*
X132678149Y-161240056D01*
X132460915Y-161565170D01*
X132311282Y-161926417D01*
X132235000Y-162309915D01*
X127536157Y-162309915D01*
X127579085Y-162245670D01*
X127728718Y-161884423D01*
X127805000Y-161500925D01*
X127805000Y-161109915D01*
X127728718Y-160726417D01*
X127579085Y-160365170D01*
X127361851Y-160040056D01*
X127085364Y-159763569D01*
X126760250Y-159546335D01*
X126399003Y-159396702D01*
X126015505Y-159320420D01*
X125624495Y-159320420D01*
X125240997Y-159396702D01*
X124879750Y-159546335D01*
X124554636Y-159763569D01*
X124278149Y-160040056D01*
X124060915Y-160365170D01*
X123911282Y-160726417D01*
X123835000Y-161109915D01*
X118387710Y-161109915D01*
X118241364Y-160963569D01*
X117916250Y-160746335D01*
X117555003Y-160596702D01*
X117171505Y-160520420D01*
X116780495Y-160520420D01*
X116396997Y-160596702D01*
X116035750Y-160746335D01*
X115710636Y-160963569D01*
X115434149Y-161240056D01*
X115216915Y-161565170D01*
X115067282Y-161926417D01*
X114991000Y-162309915D01*
X110292157Y-162309915D01*
X110335085Y-162245670D01*
X110484718Y-161884423D01*
X110561000Y-161500925D01*
X110561000Y-161109915D01*
X110484718Y-160726417D01*
X110335085Y-160365170D01*
X110117851Y-160040056D01*
X109841364Y-159763569D01*
X109516250Y-159546335D01*
X109155003Y-159396702D01*
X108771505Y-159320420D01*
X108380495Y-159320420D01*
X107996997Y-159396702D01*
X107635750Y-159546335D01*
X107310636Y-159763569D01*
X107034149Y-160040056D01*
X106816915Y-160365170D01*
X106667282Y-160726417D01*
X106591000Y-161109915D01*
X104545000Y-161109915D01*
X104545000Y-113309915D01*
X106591000Y-113309915D01*
X106591000Y-113700925D01*
X106667282Y-114084423D01*
X106816915Y-114445670D01*
X107034149Y-114770784D01*
X107310636Y-115047271D01*
X107635750Y-115264505D01*
X107996997Y-115414138D01*
X108380495Y-115490420D01*
X108771505Y-115490420D01*
X109155003Y-115414138D01*
X109516250Y-115264505D01*
X109841364Y-115047271D01*
X110117851Y-114770784D01*
X110335085Y-114445670D01*
X110484718Y-114084423D01*
X110561000Y-113700925D01*
X110561000Y-113309915D01*
X110484718Y-112926417D01*
X110335085Y-112565170D01*
X110117851Y-112240056D01*
X109987710Y-112109915D01*
X114991000Y-112109915D01*
X114991000Y-112500925D01*
X115067282Y-112884423D01*
X115216915Y-113245670D01*
X115434149Y-113570784D01*
X115710636Y-113847271D01*
X116035750Y-114064505D01*
X116396997Y-114214138D01*
X116780495Y-114290420D01*
X117171505Y-114290420D01*
X117555003Y-114214138D01*
X117916250Y-114064505D01*
X118241364Y-113847271D01*
X118517851Y-113570784D01*
X118692157Y-113309915D01*
X123835000Y-113309915D01*
X123835000Y-113700925D01*
X123911282Y-114084423D01*
X124060915Y-114445670D01*
X124278149Y-114770784D01*
X124554636Y-115047271D01*
X124879750Y-115264505D01*
X125240997Y-115414138D01*
X125624495Y-115490420D01*
X126015505Y-115490420D01*
X126399003Y-115414138D01*
X126760250Y-115264505D01*
X127085364Y-115047271D01*
X127361851Y-114770784D01*
X127579085Y-114445670D01*
X127728718Y-114084423D01*
X127805000Y-113700925D01*
X127805000Y-113309915D01*
X127728718Y-112926417D01*
X127579085Y-112565170D01*
X127361851Y-112240056D01*
X127231710Y-112109915D01*
X132235000Y-112109915D01*
X132235000Y-112500925D01*
X132311282Y-112884423D01*
X132460915Y-113245670D01*
X132678149Y-113570784D01*
X132954636Y-113847271D01*
X133279750Y-114064505D01*
X133640997Y-114214138D01*
X134024495Y-114290420D01*
X134415505Y-114290420D01*
X134799003Y-114214138D01*
X135160250Y-114064505D01*
X135485364Y-113847271D01*
X135761851Y-113570784D01*
X135936157Y-113309915D01*
X141615000Y-113309915D01*
X141615000Y-113700925D01*
X141691282Y-114084423D01*
X141840915Y-114445670D01*
X142058149Y-114770784D01*
X142334636Y-115047271D01*
X142659750Y-115264505D01*
X143020997Y-115414138D01*
X143404495Y-115490420D01*
X143795505Y-115490420D01*
X144179003Y-115414138D01*
X144540250Y-115264505D01*
X144865364Y-115047271D01*
X145141851Y-114770784D01*
X145359085Y-114445670D01*
X145508718Y-114084423D01*
X145585000Y-113700925D01*
X145585000Y-113309915D01*
X145508718Y-112926417D01*
X145359085Y-112565170D01*
X145141851Y-112240056D01*
X145011710Y-112109915D01*
X150015000Y-112109915D01*
X150015000Y-112500925D01*
X150091282Y-112884423D01*
X150240915Y-113245670D01*
X150458149Y-113570784D01*
X150734636Y-113847271D01*
X151059750Y-114064505D01*
X151420997Y-114214138D01*
X151804495Y-114290420D01*
X152195505Y-114290420D01*
X152579003Y-114214138D01*
X152940250Y-114064505D01*
X153265364Y-113847271D01*
X153541851Y-113570784D01*
X153759085Y-113245670D01*
X153908718Y-112884423D01*
X153985000Y-112500925D01*
X153985000Y-112109915D01*
X153908718Y-111726417D01*
X153759085Y-111365170D01*
X153541851Y-111040056D01*
X153265364Y-110763569D01*
X152940250Y-110546335D01*
X152579003Y-110396702D01*
X152195505Y-110320420D01*
X151804495Y-110320420D01*
X151420997Y-110396702D01*
X151059750Y-110546335D01*
X150734636Y-110763569D01*
X150458149Y-111040056D01*
X150240915Y-111365170D01*
X150091282Y-111726417D01*
X150015000Y-112109915D01*
X145011710Y-112109915D01*
X144865364Y-111963569D01*
X144540250Y-111746335D01*
X144179003Y-111596702D01*
X143795505Y-111520420D01*
X143404495Y-111520420D01*
X143020997Y-111596702D01*
X142659750Y-111746335D01*
X142334636Y-111963569D01*
X142058149Y-112240056D01*
X141840915Y-112565170D01*
X141691282Y-112926417D01*
X141615000Y-113309915D01*
X135936157Y-113309915D01*
X135979085Y-113245670D01*
X136128718Y-112884423D01*
X136205000Y-112500925D01*
X136205000Y-112109915D01*
X136128718Y-111726417D01*
X135979085Y-111365170D01*
X135761851Y-111040056D01*
X135485364Y-110763569D01*
X135160250Y-110546335D01*
X134799003Y-110396702D01*
X134415505Y-110320420D01*
X134024495Y-110320420D01*
X133640997Y-110396702D01*
X133279750Y-110546335D01*
X132954636Y-110763569D01*
X132678149Y-111040056D01*
X132460915Y-111365170D01*
X132311282Y-111726417D01*
X132235000Y-112109915D01*
X127231710Y-112109915D01*
X127085364Y-111963569D01*
X126760250Y-111746335D01*
X126399003Y-111596702D01*
X126015505Y-111520420D01*
X125624495Y-111520420D01*
X125240997Y-111596702D01*
X124879750Y-111746335D01*
X124554636Y-111963569D01*
X124278149Y-112240056D01*
X124060915Y-112565170D01*
X123911282Y-112926417D01*
X123835000Y-113309915D01*
X118692157Y-113309915D01*
X118735085Y-113245670D01*
X118884718Y-112884423D01*
X118961000Y-112500925D01*
X118961000Y-112109915D01*
X118884718Y-111726417D01*
X118735085Y-111365170D01*
X118517851Y-111040056D01*
X118241364Y-110763569D01*
X117916250Y-110546335D01*
X117555003Y-110396702D01*
X117171505Y-110320420D01*
X116780495Y-110320420D01*
X116396997Y-110396702D01*
X116035750Y-110546335D01*
X115710636Y-110763569D01*
X115434149Y-111040056D01*
X115216915Y-111365170D01*
X115067282Y-111726417D01*
X114991000Y-112109915D01*
X109987710Y-112109915D01*
X109841364Y-111963569D01*
X109516250Y-111746335D01*
X109155003Y-111596702D01*
X108771505Y-111520420D01*
X108380495Y-111520420D01*
X107996997Y-111596702D01*
X107635750Y-111746335D01*
X107310636Y-111963569D01*
X107034149Y-112240056D01*
X106816915Y-112565170D01*
X106667282Y-112926417D01*
X106591000Y-113309915D01*
X104545000Y-113309915D01*
X104545000Y-109201660D01*
X110159365Y-109201660D01*
X110240025Y-109453288D01*
X110508329Y-109581687D01*
X110796526Y-109655275D01*
X111093543Y-109671224D01*
X111387963Y-109628921D01*
X111668474Y-109529992D01*
X111811975Y-109453288D01*
X111892635Y-109201660D01*
X127403365Y-109201660D01*
X127484025Y-109453288D01*
X127752329Y-109581687D01*
X128040526Y-109655275D01*
X128337543Y-109671224D01*
X128631963Y-109628921D01*
X128912474Y-109529992D01*
X129055975Y-109453288D01*
X129136635Y-109201660D01*
X145183365Y-109201660D01*
X145264025Y-109453288D01*
X145532329Y-109581687D01*
X145820526Y-109655275D01*
X146117543Y-109671224D01*
X146411963Y-109628921D01*
X146692474Y-109529992D01*
X146835975Y-109453288D01*
X146916635Y-109201660D01*
X146050000Y-108335025D01*
X145183365Y-109201660D01*
X129136635Y-109201660D01*
X128270000Y-108335025D01*
X127403365Y-109201660D01*
X111892635Y-109201660D01*
X111026000Y-108335025D01*
X110159365Y-109201660D01*
X104545000Y-109201660D01*
X104545000Y-108222963D01*
X109510196Y-108222963D01*
X109552499Y-108517383D01*
X109651428Y-108797894D01*
X109728132Y-108941395D01*
X109979760Y-109022055D01*
X110846395Y-108155420D01*
X111205605Y-108155420D01*
X112072240Y-109022055D01*
X112323868Y-108941395D01*
X112452267Y-108673091D01*
X112525855Y-108384894D01*
X112534550Y-108222963D01*
X126754196Y-108222963D01*
X126796499Y-108517383D01*
X126895428Y-108797894D01*
X126972132Y-108941395D01*
X127223760Y-109022055D01*
X128090395Y-108155420D01*
X128449605Y-108155420D01*
X129316240Y-109022055D01*
X129567868Y-108941395D01*
X129696267Y-108673091D01*
X129769855Y-108384894D01*
X129778550Y-108222963D01*
X144534196Y-108222963D01*
X144576499Y-108517383D01*
X144675428Y-108797894D01*
X144752132Y-108941395D01*
X145003760Y-109022055D01*
X145870395Y-108155420D01*
X146229605Y-108155420D01*
X147096240Y-109022055D01*
X147347868Y-108941395D01*
X147476267Y-108673091D01*
X147549855Y-108384894D01*
X147565804Y-108087877D01*
X147523501Y-107793457D01*
X147424572Y-107512946D01*
X147347868Y-107369445D01*
X147096240Y-107288785D01*
X146229605Y-108155420D01*
X145870395Y-108155420D01*
X145003760Y-107288785D01*
X144752132Y-107369445D01*
X144623733Y-107637749D01*
X144550145Y-107925946D01*
X144534196Y-108222963D01*
X129778550Y-108222963D01*
X129785804Y-108087877D01*
X129743501Y-107793457D01*
X129644572Y-107512946D01*
X129567868Y-107369445D01*
X129316240Y-107288785D01*
X128449605Y-108155420D01*
X128090395Y-108155420D01*
X127223760Y-107288785D01*
X126972132Y-107369445D01*
X126843733Y-107637749D01*
X126770145Y-107925946D01*
X126754196Y-108222963D01*
X112534550Y-108222963D01*
X112541804Y-108087877D01*
X112499501Y-107793457D01*
X112400572Y-107512946D01*
X112323868Y-107369445D01*
X112072240Y-107288785D01*
X111205605Y-108155420D01*
X110846395Y-108155420D01*
X109979760Y-107288785D01*
X109728132Y-107369445D01*
X109599733Y-107637749D01*
X109526145Y-107925946D01*
X109510196Y-108222963D01*
X104545000Y-108222963D01*
X104545000Y-107109180D01*
X110159365Y-107109180D01*
X111026000Y-107975815D01*
X111892635Y-107109180D01*
X127403365Y-107109180D01*
X128270000Y-107975815D01*
X129136635Y-107109180D01*
X145183365Y-107109180D01*
X146050000Y-107975815D01*
X146916635Y-107109180D01*
X146835975Y-106857552D01*
X146567671Y-106729153D01*
X146279474Y-106655565D01*
X145982457Y-106639616D01*
X145688037Y-106681919D01*
X145407526Y-106780848D01*
X145264025Y-106857552D01*
X145183365Y-107109180D01*
X129136635Y-107109180D01*
X129055975Y-106857552D01*
X128787671Y-106729153D01*
X128499474Y-106655565D01*
X128202457Y-106639616D01*
X127908037Y-106681919D01*
X127627526Y-106780848D01*
X127484025Y-106857552D01*
X127403365Y-107109180D01*
X111892635Y-107109180D01*
X111811975Y-106857552D01*
X111543671Y-106729153D01*
X111255474Y-106655565D01*
X110958457Y-106639616D01*
X110664037Y-106681919D01*
X110383526Y-106780848D01*
X110240025Y-106857552D01*
X110159365Y-107109180D01*
X104545000Y-107109180D01*
X104545000Y-98725720D01*
X109356214Y-98725720D01*
X109395264Y-99122199D01*
X109510913Y-99503442D01*
X109698716Y-99854798D01*
X109951457Y-100162763D01*
X110259422Y-100415504D01*
X110610778Y-100603307D01*
X110992021Y-100718956D01*
X111289142Y-100748220D01*
X114262858Y-100748220D01*
X114559979Y-100718956D01*
X114941222Y-100603307D01*
X115292578Y-100415504D01*
X115600543Y-100162763D01*
X115853284Y-99854798D01*
X116041087Y-99503442D01*
X116156736Y-99122199D01*
X116195786Y-98725720D01*
X126600214Y-98725720D01*
X126639264Y-99122199D01*
X126754913Y-99503442D01*
X126942716Y-99854798D01*
X127195457Y-100162763D01*
X127503422Y-100415504D01*
X127854778Y-100603307D01*
X128236021Y-100718956D01*
X128533142Y-100748220D01*
X131506858Y-100748220D01*
X131803979Y-100718956D01*
X132185222Y-100603307D01*
X132536578Y-100415504D01*
X132844543Y-100162763D01*
X133097284Y-99854798D01*
X133285087Y-99503442D01*
X133400736Y-99122199D01*
X133439786Y-98725720D01*
X144380214Y-98725720D01*
X144419264Y-99122199D01*
X144534913Y-99503442D01*
X144722716Y-99854798D01*
X144975457Y-100162763D01*
X145283422Y-100415504D01*
X145634778Y-100603307D01*
X146016021Y-100718956D01*
X146313142Y-100748220D01*
X149286858Y-100748220D01*
X149583979Y-100718956D01*
X149965222Y-100603307D01*
X150316578Y-100415504D01*
X150624543Y-100162763D01*
X150877284Y-99854798D01*
X151065087Y-99503442D01*
X151180736Y-99122199D01*
X151219786Y-98725720D01*
X151180736Y-98329241D01*
X151065087Y-97947998D01*
X150877284Y-97596642D01*
X150624543Y-97288677D01*
X150316578Y-97035936D01*
X149965222Y-96848133D01*
X149583979Y-96732484D01*
X149286858Y-96703220D01*
X146313142Y-96703220D01*
X146016021Y-96732484D01*
X145634778Y-96848133D01*
X145283422Y-97035936D01*
X144975457Y-97288677D01*
X144722716Y-97596642D01*
X144534913Y-97947998D01*
X144419264Y-98329241D01*
X144380214Y-98725720D01*
X133439786Y-98725720D01*
X133400736Y-98329241D01*
X133285087Y-97947998D01*
X133097284Y-97596642D01*
X132844543Y-97288677D01*
X132536578Y-97035936D01*
X132185222Y-96848133D01*
X131803979Y-96732484D01*
X131506858Y-96703220D01*
X128533142Y-96703220D01*
X128236021Y-96732484D01*
X127854778Y-96848133D01*
X127503422Y-97035936D01*
X127195457Y-97288677D01*
X126942716Y-97596642D01*
X126754913Y-97947998D01*
X126639264Y-98329241D01*
X126600214Y-98725720D01*
X116195786Y-98725720D01*
X116156736Y-98329241D01*
X116041087Y-97947998D01*
X115853284Y-97596642D01*
X115600543Y-97288677D01*
X115292578Y-97035936D01*
X114941222Y-96848133D01*
X114559979Y-96732484D01*
X114262858Y-96703220D01*
X111289142Y-96703220D01*
X110992021Y-96732484D01*
X110610778Y-96848133D01*
X110259422Y-97035936D01*
X109951457Y-97288677D01*
X109698716Y-97596642D01*
X109510913Y-97947998D01*
X109395264Y-98329241D01*
X109356214Y-98725720D01*
X104545000Y-98725720D01*
X104545000Y-94025720D01*
X109356214Y-94025720D01*
X109395264Y-94422199D01*
X109510913Y-94803442D01*
X109698716Y-95154798D01*
X109951457Y-95462763D01*
X110259422Y-95715504D01*
X110610778Y-95903307D01*
X110992021Y-96018956D01*
X111289142Y-96048220D01*
X114262858Y-96048220D01*
X114559979Y-96018956D01*
X114941222Y-95903307D01*
X115292578Y-95715504D01*
X115600543Y-95462763D01*
X115853284Y-95154798D01*
X116041087Y-94803442D01*
X116156736Y-94422199D01*
X116195786Y-94025720D01*
X126600214Y-94025720D01*
X126639264Y-94422199D01*
X126754913Y-94803442D01*
X126942716Y-95154798D01*
X127195457Y-95462763D01*
X127503422Y-95715504D01*
X127854778Y-95903307D01*
X128236021Y-96018956D01*
X128533142Y-96048220D01*
X131506858Y-96048220D01*
X131803979Y-96018956D01*
X132185222Y-95903307D01*
X132536578Y-95715504D01*
X132844543Y-95462763D01*
X133097284Y-95154798D01*
X133285087Y-94803442D01*
X133400736Y-94422199D01*
X133439786Y-94025720D01*
X133400736Y-93629241D01*
X133285087Y-93247998D01*
X133097284Y-92896642D01*
X132844543Y-92588677D01*
X132536578Y-92335936D01*
X132185222Y-92148133D01*
X131803979Y-92032484D01*
X131506858Y-92003220D01*
X128533142Y-92003220D01*
X128236021Y-92032484D01*
X127854778Y-92148133D01*
X127503422Y-92335936D01*
X127195457Y-92588677D01*
X126942716Y-92896642D01*
X126754913Y-93247998D01*
X126639264Y-93629241D01*
X126600214Y-94025720D01*
X116195786Y-94025720D01*
X116156736Y-93629241D01*
X116041087Y-93247998D01*
X115853284Y-92896642D01*
X115600543Y-92588677D01*
X115292578Y-92335936D01*
X114941222Y-92148133D01*
X114559979Y-92032484D01*
X114262858Y-92003220D01*
X111289142Y-92003220D01*
X110992021Y-92032484D01*
X110610778Y-92148133D01*
X110259422Y-92335936D01*
X109951457Y-92588677D01*
X109698716Y-92896642D01*
X109510913Y-93247998D01*
X109395264Y-93629241D01*
X109356214Y-94025720D01*
X104545000Y-94025720D01*
X104545000Y-89325720D01*
X109356214Y-89325720D01*
X109395264Y-89722199D01*
X109510913Y-90103442D01*
X109698716Y-90454798D01*
X109951457Y-90762763D01*
X110259422Y-91015504D01*
X110610778Y-91203307D01*
X110992021Y-91318956D01*
X111289142Y-91348220D01*
X114262858Y-91348220D01*
X114559979Y-91318956D01*
X114941222Y-91203307D01*
X115292578Y-91015504D01*
X115600543Y-90762763D01*
X115853284Y-90454798D01*
X116041087Y-90103442D01*
X116156736Y-89722199D01*
X116195786Y-89325720D01*
X126600214Y-89325720D01*
X126639264Y-89722199D01*
X126754913Y-90103442D01*
X126942716Y-90454798D01*
X127195457Y-90762763D01*
X127503422Y-91015504D01*
X127854778Y-91203307D01*
X128236021Y-91318956D01*
X128533142Y-91348220D01*
X131506858Y-91348220D01*
X131803979Y-91318956D01*
X132185222Y-91203307D01*
X132536578Y-91015504D01*
X132844543Y-90762763D01*
X133097284Y-90454798D01*
X133285087Y-90103442D01*
X133400736Y-89722199D01*
X133439786Y-89325720D01*
X133400736Y-88929241D01*
X133285087Y-88547998D01*
X133097284Y-88196642D01*
X132844543Y-87888677D01*
X132536578Y-87635936D01*
X132185222Y-87448133D01*
X131803979Y-87332484D01*
X131506858Y-87303220D01*
X128533142Y-87303220D01*
X128236021Y-87332484D01*
X127854778Y-87448133D01*
X127503422Y-87635936D01*
X127195457Y-87888677D01*
X126942716Y-88196642D01*
X126754913Y-88547998D01*
X126639264Y-88929241D01*
X126600214Y-89325720D01*
X116195786Y-89325720D01*
X116156736Y-88929241D01*
X116041087Y-88547998D01*
X115853284Y-88196642D01*
X115600543Y-87888677D01*
X115292578Y-87635936D01*
X114941222Y-87448133D01*
X114559979Y-87332484D01*
X114262858Y-87303220D01*
X111289142Y-87303220D01*
X110992021Y-87332484D01*
X110610778Y-87448133D01*
X110259422Y-87635936D01*
X109951457Y-87888677D01*
X109698716Y-88196642D01*
X109510913Y-88547998D01*
X109395264Y-88929241D01*
X109356214Y-89325720D01*
X104545000Y-89325720D01*
X104545000Y-81960100D01*
X111216929Y-81960100D01*
X111216929Y-83660100D01*
X111229189Y-83784582D01*
X111265499Y-83904280D01*
X111324464Y-84014594D01*
X111403816Y-84111285D01*
X111500507Y-84190637D01*
X111610821Y-84249602D01*
X111730519Y-84285912D01*
X111855001Y-84298172D01*
X113555001Y-84298172D01*
X113679483Y-84285912D01*
X113799181Y-84249602D01*
X113909495Y-84190637D01*
X114006186Y-84111285D01*
X114085538Y-84014594D01*
X114144503Y-83904280D01*
X114180813Y-83784582D01*
X114193073Y-83660100D01*
X114193073Y-81960100D01*
X128531928Y-81960100D01*
X128531928Y-83660100D01*
X128544188Y-83784582D01*
X128580498Y-83904280D01*
X128639463Y-84014594D01*
X128718815Y-84111285D01*
X128815506Y-84190637D01*
X128925820Y-84249602D01*
X129045518Y-84285912D01*
X129170000Y-84298172D01*
X130870000Y-84298172D01*
X130994482Y-84285912D01*
X131114180Y-84249602D01*
X131224494Y-84190637D01*
X131321185Y-84111285D01*
X131400537Y-84014594D01*
X131459502Y-83904280D01*
X131495812Y-83784582D01*
X131508072Y-83660100D01*
X131508072Y-81960100D01*
X131495812Y-81835618D01*
X131459502Y-81715920D01*
X131400537Y-81605606D01*
X131321185Y-81508915D01*
X131224494Y-81429563D01*
X131114180Y-81370598D01*
X130994482Y-81334288D01*
X130870000Y-81322028D01*
X129170000Y-81322028D01*
X129045518Y-81334288D01*
X128925820Y-81370598D01*
X128815506Y-81429563D01*
X128718815Y-81508915D01*
X128639463Y-81605606D01*
X128580498Y-81715920D01*
X128544188Y-81835618D01*
X128531928Y-81960100D01*
X114193073Y-81960100D01*
X114180813Y-81835618D01*
X114144503Y-81715920D01*
X114085538Y-81605606D01*
X114006186Y-81508915D01*
X113909495Y-81429563D01*
X113799181Y-81370598D01*
X113679483Y-81334288D01*
X113555001Y-81322028D01*
X111855001Y-81322028D01*
X111730519Y-81334288D01*
X111610821Y-81370598D01*
X111500507Y-81429563D01*
X111403816Y-81508915D01*
X111324464Y-81605606D01*
X111265499Y-81715920D01*
X111229189Y-81835618D01*
X111216929Y-81960100D01*
X104545000Y-81960100D01*
X104545000Y-76058665D01*
X107460001Y-76058665D01*
X107460001Y-76341335D01*
X107515148Y-76618574D01*
X107623321Y-76879727D01*
X107780364Y-77114759D01*
X107980242Y-77314637D01*
X108215274Y-77471680D01*
X108476427Y-77579853D01*
X108753666Y-77635000D01*
X109036336Y-77635000D01*
X109313575Y-77579853D01*
X109574728Y-77471680D01*
X109809760Y-77314637D01*
X110009638Y-77114759D01*
X110166681Y-76879727D01*
X110274854Y-76618574D01*
X110330001Y-76341335D01*
X110330001Y-76200000D01*
X115073058Y-76200000D01*
X115100765Y-76481309D01*
X115182819Y-76751808D01*
X115316069Y-77001101D01*
X115495393Y-77219608D01*
X115713900Y-77398932D01*
X115963193Y-77532182D01*
X116233692Y-77614236D01*
X116444509Y-77635000D01*
X116585493Y-77635000D01*
X116796310Y-77614236D01*
X117066809Y-77532182D01*
X117316102Y-77398932D01*
X117534609Y-77219608D01*
X117713933Y-77001101D01*
X117847183Y-76751808D01*
X117929237Y-76481309D01*
X117956944Y-76200000D01*
X117929237Y-75918691D01*
X117847183Y-75648192D01*
X117713933Y-75398899D01*
X117534609Y-75180392D01*
X117316102Y-75001068D01*
X117066809Y-74867818D01*
X116796310Y-74785764D01*
X116585493Y-74765000D01*
X116444509Y-74765000D01*
X116233692Y-74785764D01*
X115963193Y-74867818D01*
X115713900Y-75001068D01*
X115495393Y-75180392D01*
X115316069Y-75398899D01*
X115182819Y-75648192D01*
X115100765Y-75918691D01*
X115073058Y-76200000D01*
X110330001Y-76200000D01*
X110330001Y-76058665D01*
X110293689Y-75876114D01*
X111699004Y-74470800D01*
X118569899Y-74470800D01*
X120810105Y-76711008D01*
X120833899Y-76740001D01*
X120862892Y-76763795D01*
X120862896Y-76763799D01*
X120933585Y-76821811D01*
X120949624Y-76834974D01*
X121081653Y-76905546D01*
X121224914Y-76949003D01*
X121336567Y-76960000D01*
X121336576Y-76960000D01*
X121373899Y-76963676D01*
X121411222Y-76960000D01*
X124991957Y-76960000D01*
X125095363Y-77114759D01*
X125295241Y-77314637D01*
X125530273Y-77471680D01*
X125791426Y-77579853D01*
X126068665Y-77635000D01*
X126351335Y-77635000D01*
X126628574Y-77579853D01*
X126889727Y-77471680D01*
X127124759Y-77314637D01*
X127324637Y-77114759D01*
X127481680Y-76879727D01*
X127589853Y-76618574D01*
X127645000Y-76341335D01*
X127645000Y-76200000D01*
X132388057Y-76200000D01*
X132415764Y-76481309D01*
X132497818Y-76751808D01*
X132631068Y-77001101D01*
X132810392Y-77219608D01*
X133028899Y-77398932D01*
X133278192Y-77532182D01*
X133548691Y-77614236D01*
X133759508Y-77635000D01*
X133900492Y-77635000D01*
X134111309Y-77614236D01*
X134381808Y-77532182D01*
X134631101Y-77398932D01*
X134849608Y-77219608D01*
X135028932Y-77001101D01*
X135162182Y-76751808D01*
X135244236Y-76481309D01*
X135271943Y-76200000D01*
X135244236Y-75918691D01*
X135162182Y-75648192D01*
X135028932Y-75398899D01*
X134849608Y-75180392D01*
X134631101Y-75001068D01*
X134381808Y-74867818D01*
X134111309Y-74785764D01*
X133900492Y-74765000D01*
X133759508Y-74765000D01*
X133548691Y-74785764D01*
X133278192Y-74867818D01*
X133028899Y-75001068D01*
X132810392Y-75180392D01*
X132631068Y-75398899D01*
X132497818Y-75648192D01*
X132415764Y-75918691D01*
X132388057Y-76200000D01*
X127645000Y-76200000D01*
X127645000Y-76058665D01*
X127589853Y-75781426D01*
X127481680Y-75520273D01*
X127324637Y-75285241D01*
X127124759Y-75085363D01*
X126889727Y-74928320D01*
X126628574Y-74820147D01*
X126351335Y-74765000D01*
X126068665Y-74765000D01*
X125791426Y-74820147D01*
X125530273Y-74928320D01*
X125295241Y-75085363D01*
X125095363Y-75285241D01*
X124991957Y-75440000D01*
X121688703Y-75440000D01*
X119448504Y-73199803D01*
X119424701Y-73170799D01*
X119414832Y-73162700D01*
X119634978Y-73162700D01*
X119672300Y-73166376D01*
X119709622Y-73162700D01*
X119709633Y-73162700D01*
X119821286Y-73151703D01*
X119964547Y-73108246D01*
X120096576Y-73037674D01*
X120212301Y-72942701D01*
X120236104Y-72913697D01*
X124633521Y-68516280D01*
X139490044Y-68516280D01*
X139493721Y-68553613D01*
X139493720Y-87829618D01*
X139490044Y-87866940D01*
X139493720Y-87904262D01*
X139493720Y-87904272D01*
X139504717Y-88015925D01*
X139548174Y-88159186D01*
X139618746Y-88291216D01*
X139658591Y-88339766D01*
X139713719Y-88406941D01*
X139742723Y-88430744D01*
X144543643Y-93231665D01*
X144534913Y-93247998D01*
X144419264Y-93629241D01*
X144380214Y-94025720D01*
X144419264Y-94422199D01*
X144534913Y-94803442D01*
X144722716Y-95154798D01*
X144975457Y-95462763D01*
X145283422Y-95715504D01*
X145634778Y-95903307D01*
X146016021Y-96018956D01*
X146313142Y-96048220D01*
X149286858Y-96048220D01*
X149583979Y-96018956D01*
X149965222Y-95903307D01*
X150316578Y-95715504D01*
X150624543Y-95462763D01*
X150877284Y-95154798D01*
X151065087Y-94803442D01*
X151180736Y-94422199D01*
X151219786Y-94025720D01*
X151180736Y-93629241D01*
X151065087Y-93247998D01*
X150877284Y-92896642D01*
X150624543Y-92588677D01*
X150316578Y-92335936D01*
X149965222Y-92148133D01*
X149583979Y-92032484D01*
X149286858Y-92003220D01*
X146313142Y-92003220D01*
X146016021Y-92032484D01*
X145634778Y-92148133D01*
X145618445Y-92156863D01*
X142787302Y-89325720D01*
X144380214Y-89325720D01*
X144419264Y-89722199D01*
X144534913Y-90103442D01*
X144722716Y-90454798D01*
X144975457Y-90762763D01*
X145283422Y-91015504D01*
X145634778Y-91203307D01*
X146016021Y-91318956D01*
X146313142Y-91348220D01*
X149286858Y-91348220D01*
X149583979Y-91318956D01*
X149965222Y-91203307D01*
X150316578Y-91015504D01*
X150624543Y-90762763D01*
X150877284Y-90454798D01*
X151065087Y-90103442D01*
X151180736Y-89722199D01*
X151219786Y-89325720D01*
X151180736Y-88929241D01*
X151065087Y-88547998D01*
X150877284Y-88196642D01*
X150624543Y-87888677D01*
X150316578Y-87635936D01*
X149965222Y-87448133D01*
X149583979Y-87332484D01*
X149286858Y-87303220D01*
X146313142Y-87303220D01*
X146016021Y-87332484D01*
X145634778Y-87448133D01*
X145283422Y-87635936D01*
X144975457Y-87888677D01*
X144722716Y-88196642D01*
X144534913Y-88547998D01*
X144419264Y-88929241D01*
X144380214Y-89325720D01*
X142787302Y-89325720D01*
X141013720Y-87552139D01*
X141013720Y-81960100D01*
X146311928Y-81960100D01*
X146311928Y-83660100D01*
X146324188Y-83784582D01*
X146360498Y-83904280D01*
X146419463Y-84014594D01*
X146498815Y-84111285D01*
X146595506Y-84190637D01*
X146705820Y-84249602D01*
X146825518Y-84285912D01*
X146950000Y-84298172D01*
X148650000Y-84298172D01*
X148774482Y-84285912D01*
X148894180Y-84249602D01*
X149004494Y-84190637D01*
X149101185Y-84111285D01*
X149180537Y-84014594D01*
X149239502Y-83904280D01*
X149275812Y-83784582D01*
X149288072Y-83660100D01*
X149288072Y-81960100D01*
X149275812Y-81835618D01*
X149239502Y-81715920D01*
X149180537Y-81605606D01*
X149101185Y-81508915D01*
X149004494Y-81429563D01*
X148894180Y-81370598D01*
X148774482Y-81334288D01*
X148650000Y-81322028D01*
X146950000Y-81322028D01*
X146825518Y-81334288D01*
X146705820Y-81370598D01*
X146595506Y-81429563D01*
X146498815Y-81508915D01*
X146419463Y-81605606D01*
X146360498Y-81715920D01*
X146324188Y-81835618D01*
X146311928Y-81960100D01*
X141013720Y-81960100D01*
X141013720Y-76058665D01*
X142555000Y-76058665D01*
X142555000Y-76341335D01*
X142610147Y-76618574D01*
X142718320Y-76879727D01*
X142875363Y-77114759D01*
X143075241Y-77314637D01*
X143310273Y-77471680D01*
X143571426Y-77579853D01*
X143848665Y-77635000D01*
X144131335Y-77635000D01*
X144408574Y-77579853D01*
X144669727Y-77471680D01*
X144904759Y-77314637D01*
X145104637Y-77114759D01*
X145261680Y-76879727D01*
X145369853Y-76618574D01*
X145425000Y-76341335D01*
X145425000Y-76200000D01*
X150168057Y-76200000D01*
X150195764Y-76481309D01*
X150277818Y-76751808D01*
X150411068Y-77001101D01*
X150590392Y-77219608D01*
X150808899Y-77398932D01*
X151058192Y-77532182D01*
X151328691Y-77614236D01*
X151539508Y-77635000D01*
X151680492Y-77635000D01*
X151891309Y-77614236D01*
X152161808Y-77532182D01*
X152411101Y-77398932D01*
X152629608Y-77219608D01*
X152808932Y-77001101D01*
X152942182Y-76751808D01*
X153024236Y-76481309D01*
X153051943Y-76200000D01*
X153024236Y-75918691D01*
X152942182Y-75648192D01*
X152808932Y-75398899D01*
X152629608Y-75180392D01*
X152411101Y-75001068D01*
X152161808Y-74867818D01*
X151891309Y-74785764D01*
X151680492Y-74765000D01*
X151539508Y-74765000D01*
X151328691Y-74785764D01*
X151058192Y-74867818D01*
X150808899Y-75001068D01*
X150590392Y-75180392D01*
X150411068Y-75398899D01*
X150277818Y-75648192D01*
X150195764Y-75918691D01*
X150168057Y-76200000D01*
X145425000Y-76200000D01*
X145425000Y-76058665D01*
X145369853Y-75781426D01*
X145261680Y-75520273D01*
X145104637Y-75285241D01*
X144904759Y-75085363D01*
X144669727Y-74928320D01*
X144408574Y-74820147D01*
X144131335Y-74765000D01*
X143848665Y-74765000D01*
X143571426Y-74820147D01*
X143310273Y-74928320D01*
X143075241Y-75085363D01*
X142875363Y-75285241D01*
X142718320Y-75520273D01*
X142610147Y-75781426D01*
X142555000Y-76058665D01*
X141013720Y-76058665D01*
X141013720Y-70199039D01*
X142608096Y-70199039D01*
X142648754Y-70333087D01*
X142768963Y-70587420D01*
X142936481Y-70813414D01*
X143144869Y-71002385D01*
X143386119Y-71147070D01*
X143650960Y-71241909D01*
X143873000Y-71120624D01*
X143873000Y-69977000D01*
X144127000Y-69977000D01*
X144127000Y-71120624D01*
X144349040Y-71241909D01*
X144613881Y-71147070D01*
X144855131Y-71002385D01*
X145063519Y-70813414D01*
X145231037Y-70587420D01*
X145351246Y-70333087D01*
X145391904Y-70199039D01*
X145269915Y-69977000D01*
X144127000Y-69977000D01*
X143873000Y-69977000D01*
X142730085Y-69977000D01*
X142608096Y-70199039D01*
X141013720Y-70199039D01*
X141013720Y-68831081D01*
X142560598Y-67284204D01*
X142558057Y-67310000D01*
X142585764Y-67591309D01*
X142667818Y-67861808D01*
X142801068Y-68111101D01*
X142980392Y-68329608D01*
X143198899Y-68508932D01*
X143336682Y-68582579D01*
X143144869Y-68697615D01*
X142936481Y-68886586D01*
X142768963Y-69112580D01*
X142648754Y-69366913D01*
X142608096Y-69500961D01*
X142730085Y-69723000D01*
X143873000Y-69723000D01*
X143873000Y-69703000D01*
X144127000Y-69703000D01*
X144127000Y-69723000D01*
X145269915Y-69723000D01*
X145391904Y-69500961D01*
X145351246Y-69366913D01*
X145231037Y-69112580D01*
X145063519Y-68886586D01*
X144855131Y-68697615D01*
X144663318Y-68582579D01*
X144801101Y-68508932D01*
X145019608Y-68329608D01*
X145198932Y-68111101D01*
X145332182Y-67861808D01*
X145414236Y-67591309D01*
X145441943Y-67310000D01*
X145414236Y-67028691D01*
X145332182Y-66758192D01*
X145198932Y-66508899D01*
X145019608Y-66290392D01*
X144801101Y-66111068D01*
X144668142Y-66040000D01*
X144801101Y-65968932D01*
X145019608Y-65789608D01*
X145198932Y-65571101D01*
X145332182Y-65321808D01*
X145414236Y-65051309D01*
X145441943Y-64770000D01*
X145414236Y-64488691D01*
X145332182Y-64218192D01*
X145198932Y-63968899D01*
X145019608Y-63750392D01*
X144906518Y-63657581D01*
X144924482Y-63655812D01*
X145044180Y-63619502D01*
X145154494Y-63560537D01*
X145251185Y-63481185D01*
X145330537Y-63384494D01*
X145389502Y-63274180D01*
X145425812Y-63154482D01*
X145438072Y-63030000D01*
X145438072Y-62230000D01*
X150178057Y-62230000D01*
X150205764Y-62511309D01*
X150287818Y-62781808D01*
X150421068Y-63031101D01*
X150600392Y-63249608D01*
X150818899Y-63428932D01*
X150951858Y-63500000D01*
X150818899Y-63571068D01*
X150600392Y-63750392D01*
X150421068Y-63968899D01*
X150287818Y-64218192D01*
X150205764Y-64488691D01*
X150178057Y-64770000D01*
X150205764Y-65051309D01*
X150287818Y-65321808D01*
X150421068Y-65571101D01*
X150600392Y-65789608D01*
X150818899Y-65968932D01*
X150951858Y-66040000D01*
X150818899Y-66111068D01*
X150600392Y-66290392D01*
X150421068Y-66508899D01*
X150287818Y-66758192D01*
X150205764Y-67028691D01*
X150178057Y-67310000D01*
X150205764Y-67591309D01*
X150287818Y-67861808D01*
X150421068Y-68111101D01*
X150600392Y-68329608D01*
X150818899Y-68508932D01*
X150951858Y-68580000D01*
X150818899Y-68651068D01*
X150600392Y-68830392D01*
X150421068Y-69048899D01*
X150287818Y-69298192D01*
X150205764Y-69568691D01*
X150178057Y-69850000D01*
X150205764Y-70131309D01*
X150287818Y-70401808D01*
X150421068Y-70651101D01*
X150600392Y-70869608D01*
X150818899Y-71048932D01*
X151068192Y-71182182D01*
X151338691Y-71264236D01*
X151549508Y-71285000D01*
X151690492Y-71285000D01*
X151901309Y-71264236D01*
X152171808Y-71182182D01*
X152421101Y-71048932D01*
X152639608Y-70869608D01*
X152818932Y-70651101D01*
X152952182Y-70401808D01*
X153034236Y-70131309D01*
X153061943Y-69850000D01*
X153034236Y-69568691D01*
X152952182Y-69298192D01*
X152818932Y-69048899D01*
X152639608Y-68830392D01*
X152421101Y-68651068D01*
X152288142Y-68580000D01*
X152421101Y-68508932D01*
X152639608Y-68329608D01*
X152818932Y-68111101D01*
X152952182Y-67861808D01*
X153034236Y-67591309D01*
X153061943Y-67310000D01*
X153034236Y-67028691D01*
X152952182Y-66758192D01*
X152818932Y-66508899D01*
X152639608Y-66290392D01*
X152421101Y-66111068D01*
X152288142Y-66040000D01*
X152421101Y-65968932D01*
X152639608Y-65789608D01*
X152818932Y-65571101D01*
X152952182Y-65321808D01*
X153034236Y-65051309D01*
X153061943Y-64770000D01*
X153034236Y-64488691D01*
X152952182Y-64218192D01*
X152818932Y-63968899D01*
X152639608Y-63750392D01*
X152421101Y-63571068D01*
X152288142Y-63500000D01*
X152421101Y-63428932D01*
X152639608Y-63249608D01*
X152818932Y-63031101D01*
X152952182Y-62781808D01*
X153034236Y-62511309D01*
X153061943Y-62230000D01*
X153034236Y-61948691D01*
X152952182Y-61678192D01*
X152818932Y-61428899D01*
X152639608Y-61210392D01*
X152421101Y-61031068D01*
X152171808Y-60897818D01*
X151901309Y-60815764D01*
X151690492Y-60795000D01*
X151549508Y-60795000D01*
X151338691Y-60815764D01*
X151068192Y-60897818D01*
X150818899Y-61031068D01*
X150600392Y-61210392D01*
X150421068Y-61428899D01*
X150287818Y-61678192D01*
X150205764Y-61948691D01*
X150178057Y-62230000D01*
X145438072Y-62230000D01*
X145438072Y-61430000D01*
X145425812Y-61305518D01*
X145389502Y-61185820D01*
X145330537Y-61075506D01*
X145251185Y-60978815D01*
X145154494Y-60899463D01*
X145044180Y-60840498D01*
X144924482Y-60804188D01*
X144800000Y-60791928D01*
X143200000Y-60791928D01*
X143075518Y-60804188D01*
X142955820Y-60840498D01*
X142845506Y-60899463D01*
X142748815Y-60978815D01*
X142669463Y-61075506D01*
X142610498Y-61185820D01*
X142574188Y-61305518D01*
X142561928Y-61430000D01*
X142561928Y-63030000D01*
X142574188Y-63154482D01*
X142610498Y-63274180D01*
X142669463Y-63384494D01*
X142748815Y-63481185D01*
X142845506Y-63560537D01*
X142955820Y-63619502D01*
X143075518Y-63655812D01*
X143093482Y-63657581D01*
X142980392Y-63750392D01*
X142801068Y-63968899D01*
X142667818Y-64218192D01*
X142585764Y-64488691D01*
X142558057Y-64770000D01*
X142585764Y-65051309D01*
X142599292Y-65095906D01*
X139742718Y-67952481D01*
X139713720Y-67976279D01*
X139689922Y-68005277D01*
X139689921Y-68005278D01*
X139618746Y-68092004D01*
X139548174Y-68224034D01*
X139504718Y-68367295D01*
X139490044Y-68516280D01*
X124633521Y-68516280D01*
X125456003Y-67693799D01*
X125485001Y-67670001D01*
X125579974Y-67554276D01*
X125599326Y-67518072D01*
X125795000Y-67518072D01*
X125919482Y-67505812D01*
X126039180Y-67469502D01*
X126149494Y-67410537D01*
X126246185Y-67331185D01*
X126325537Y-67234494D01*
X126384502Y-67124180D01*
X126405393Y-67055313D01*
X126429866Y-67085134D01*
X126655986Y-67270706D01*
X126913966Y-67408599D01*
X127193889Y-67493513D01*
X127412050Y-67515000D01*
X127557950Y-67515000D01*
X127776111Y-67493513D01*
X128056034Y-67408599D01*
X128314014Y-67270706D01*
X128540134Y-67085134D01*
X128725706Y-66859014D01*
X128755000Y-66804209D01*
X128784294Y-66859014D01*
X128969866Y-67085134D01*
X129195986Y-67270706D01*
X129453966Y-67408599D01*
X129733889Y-67493513D01*
X129952050Y-67515000D01*
X130097950Y-67515000D01*
X130316111Y-67493513D01*
X130596034Y-67408599D01*
X130854014Y-67270706D01*
X131080134Y-67085134D01*
X131265706Y-66859014D01*
X131300201Y-66794477D01*
X131369822Y-66911355D01*
X131564731Y-67127588D01*
X131798080Y-67301641D01*
X132060901Y-67426825D01*
X132208110Y-67471476D01*
X132438000Y-67350155D01*
X132438000Y-66157000D01*
X132418000Y-66157000D01*
X132418000Y-65903000D01*
X132438000Y-65903000D01*
X132438000Y-64709845D01*
X132692000Y-64709845D01*
X132692000Y-65903000D01*
X132712000Y-65903000D01*
X132712000Y-66157000D01*
X132692000Y-66157000D01*
X132692000Y-67350155D01*
X132921890Y-67471476D01*
X133069099Y-67426825D01*
X133331920Y-67301641D01*
X133565269Y-67127588D01*
X133760178Y-66911355D01*
X133829799Y-66794477D01*
X133864294Y-66859014D01*
X134049866Y-67085134D01*
X134275986Y-67270706D01*
X134533966Y-67408599D01*
X134813889Y-67493513D01*
X135032050Y-67515000D01*
X135177950Y-67515000D01*
X135396111Y-67493513D01*
X135676034Y-67408599D01*
X135934014Y-67270706D01*
X136160134Y-67085134D01*
X136345706Y-66859014D01*
X136483599Y-66601034D01*
X136568513Y-66321111D01*
X136597185Y-66030000D01*
X136568513Y-65738889D01*
X136483599Y-65458966D01*
X136345706Y-65200986D01*
X136160134Y-64974866D01*
X135934014Y-64789294D01*
X135676034Y-64651401D01*
X135396111Y-64566487D01*
X135177950Y-64545000D01*
X135032050Y-64545000D01*
X134813889Y-64566487D01*
X134533966Y-64651401D01*
X134275986Y-64789294D01*
X134049866Y-64974866D01*
X133864294Y-65200986D01*
X133829799Y-65265523D01*
X133760178Y-65148645D01*
X133565269Y-64932412D01*
X133331920Y-64758359D01*
X133069099Y-64633175D01*
X132921890Y-64588524D01*
X132692000Y-64709845D01*
X132438000Y-64709845D01*
X132208110Y-64588524D01*
X132060901Y-64633175D01*
X131798080Y-64758359D01*
X131564731Y-64932412D01*
X131369822Y-65148645D01*
X131300201Y-65265523D01*
X131265706Y-65200986D01*
X131080134Y-64974866D01*
X130854014Y-64789294D01*
X130596034Y-64651401D01*
X130316111Y-64566487D01*
X130097950Y-64545000D01*
X129952050Y-64545000D01*
X129733889Y-64566487D01*
X129453966Y-64651401D01*
X129195986Y-64789294D01*
X128969866Y-64974866D01*
X128784294Y-65200986D01*
X128755000Y-65255791D01*
X128725706Y-65200986D01*
X128540134Y-64974866D01*
X128314014Y-64789294D01*
X128056034Y-64651401D01*
X127776111Y-64566487D01*
X127557950Y-64545000D01*
X127412050Y-64545000D01*
X127193889Y-64566487D01*
X126913966Y-64651401D01*
X126655986Y-64789294D01*
X126429866Y-64974866D01*
X126405393Y-65004687D01*
X126384502Y-64935820D01*
X126325537Y-64825506D01*
X126246185Y-64728815D01*
X126149494Y-64649463D01*
X126039180Y-64590498D01*
X125919482Y-64554188D01*
X125795000Y-64541928D01*
X124095000Y-64541928D01*
X123970518Y-64554188D01*
X123850820Y-64590498D01*
X123740506Y-64649463D01*
X123643815Y-64728815D01*
X123564463Y-64825506D01*
X123505498Y-64935820D01*
X123469188Y-65055518D01*
X123456928Y-65180000D01*
X123456928Y-66880000D01*
X123469188Y-67004482D01*
X123505498Y-67124180D01*
X123564463Y-67234494D01*
X123643815Y-67331185D01*
X123657655Y-67342543D01*
X119357499Y-71642700D01*
X114312504Y-71642700D01*
X110305709Y-67635906D01*
X110319237Y-67591309D01*
X110346944Y-67310000D01*
X110319237Y-67028691D01*
X110237183Y-66758192D01*
X110103933Y-66508899D01*
X109924609Y-66290392D01*
X109706102Y-66111068D01*
X109573143Y-66040000D01*
X109706102Y-65968932D01*
X109924609Y-65789608D01*
X110103933Y-65571101D01*
X110237183Y-65321808D01*
X110319237Y-65051309D01*
X110346944Y-64770000D01*
X110319237Y-64488691D01*
X110237183Y-64218192D01*
X110103933Y-63968899D01*
X109924609Y-63750392D01*
X109811519Y-63657581D01*
X109829483Y-63655812D01*
X109949181Y-63619502D01*
X110059495Y-63560537D01*
X110156186Y-63481185D01*
X110235538Y-63384494D01*
X110294503Y-63274180D01*
X110330813Y-63154482D01*
X110343073Y-63030000D01*
X110343073Y-62230000D01*
X115083058Y-62230000D01*
X115110765Y-62511309D01*
X115192819Y-62781808D01*
X115326069Y-63031101D01*
X115505393Y-63249608D01*
X115723900Y-63428932D01*
X115856859Y-63500000D01*
X115723900Y-63571068D01*
X115505393Y-63750392D01*
X115326069Y-63968899D01*
X115192819Y-64218192D01*
X115110765Y-64488691D01*
X115083058Y-64770000D01*
X115110765Y-65051309D01*
X115192819Y-65321808D01*
X115326069Y-65571101D01*
X115505393Y-65789608D01*
X115723900Y-65968932D01*
X115856859Y-66040000D01*
X115723900Y-66111068D01*
X115505393Y-66290392D01*
X115326069Y-66508899D01*
X115192819Y-66758192D01*
X115110765Y-67028691D01*
X115083058Y-67310000D01*
X115110765Y-67591309D01*
X115192819Y-67861808D01*
X115326069Y-68111101D01*
X115505393Y-68329608D01*
X115723900Y-68508932D01*
X115856859Y-68580000D01*
X115723900Y-68651068D01*
X115505393Y-68830392D01*
X115326069Y-69048899D01*
X115192819Y-69298192D01*
X115110765Y-69568691D01*
X115083058Y-69850000D01*
X115110765Y-70131309D01*
X115192819Y-70401808D01*
X115326069Y-70651101D01*
X115505393Y-70869608D01*
X115723900Y-71048932D01*
X115973193Y-71182182D01*
X116243692Y-71264236D01*
X116454509Y-71285000D01*
X116595493Y-71285000D01*
X116806310Y-71264236D01*
X117076809Y-71182182D01*
X117326102Y-71048932D01*
X117544609Y-70869608D01*
X117723933Y-70651101D01*
X117857183Y-70401808D01*
X117939237Y-70131309D01*
X117966944Y-69850000D01*
X117939237Y-69568691D01*
X117857183Y-69298192D01*
X117723933Y-69048899D01*
X117544609Y-68830392D01*
X117326102Y-68651068D01*
X117193143Y-68580000D01*
X117326102Y-68508932D01*
X117544609Y-68329608D01*
X117723933Y-68111101D01*
X117857183Y-67861808D01*
X117939237Y-67591309D01*
X117966944Y-67310000D01*
X117939237Y-67028691D01*
X117857183Y-66758192D01*
X117723933Y-66508899D01*
X117544609Y-66290392D01*
X117326102Y-66111068D01*
X117193143Y-66040000D01*
X117326102Y-65968932D01*
X117544609Y-65789608D01*
X117723933Y-65571101D01*
X117857183Y-65321808D01*
X117939237Y-65051309D01*
X117966944Y-64770000D01*
X117939237Y-64488691D01*
X117857183Y-64218192D01*
X117723933Y-63968899D01*
X117544609Y-63750392D01*
X117326102Y-63571068D01*
X117193143Y-63500000D01*
X117326102Y-63428932D01*
X117544609Y-63249608D01*
X117723933Y-63031101D01*
X117857183Y-62781808D01*
X117939237Y-62511309D01*
X117966944Y-62230000D01*
X117939237Y-61948691D01*
X117857183Y-61678192D01*
X117723933Y-61428899D01*
X117544609Y-61210392D01*
X117326102Y-61031068D01*
X117076809Y-60897818D01*
X116806310Y-60815764D01*
X116595493Y-60795000D01*
X116454509Y-60795000D01*
X116243692Y-60815764D01*
X115973193Y-60897818D01*
X115723900Y-61031068D01*
X115505393Y-61210392D01*
X115326069Y-61428899D01*
X115192819Y-61678192D01*
X115110765Y-61948691D01*
X115083058Y-62230000D01*
X110343073Y-62230000D01*
X110343073Y-61430000D01*
X110330813Y-61305518D01*
X110294503Y-61185820D01*
X110235538Y-61075506D01*
X110156186Y-60978815D01*
X110059495Y-60899463D01*
X109949181Y-60840498D01*
X109829483Y-60804188D01*
X109705001Y-60791928D01*
X108105001Y-60791928D01*
X107980519Y-60804188D01*
X107860821Y-60840498D01*
X107750507Y-60899463D01*
X107653816Y-60978815D01*
X107574464Y-61075506D01*
X107515499Y-61185820D01*
X107479189Y-61305518D01*
X107466929Y-61430000D01*
X107466929Y-63030000D01*
X107479189Y-63154482D01*
X107515499Y-63274180D01*
X107574464Y-63384494D01*
X107653816Y-63481185D01*
X107750507Y-63560537D01*
X107860821Y-63619502D01*
X107980519Y-63655812D01*
X107998483Y-63657581D01*
X107885393Y-63750392D01*
X107706069Y-63968899D01*
X107572819Y-64218192D01*
X107490765Y-64488691D01*
X107463058Y-64770000D01*
X107490765Y-65051309D01*
X107572819Y-65321808D01*
X107706069Y-65571101D01*
X107885393Y-65789608D01*
X108103900Y-65968932D01*
X108236859Y-66040000D01*
X108103900Y-66111068D01*
X107885393Y-66290392D01*
X107706069Y-66508899D01*
X107572819Y-66758192D01*
X107490765Y-67028691D01*
X107463058Y-67310000D01*
X107490765Y-67591309D01*
X107572819Y-67861808D01*
X107706069Y-68111101D01*
X107885393Y-68329608D01*
X108103900Y-68508932D01*
X108241683Y-68582579D01*
X108049870Y-68697615D01*
X107841482Y-68886586D01*
X107673964Y-69112580D01*
X107553755Y-69366913D01*
X107513097Y-69500961D01*
X107635086Y-69723000D01*
X108778001Y-69723000D01*
X108778001Y-69703000D01*
X109032001Y-69703000D01*
X109032001Y-69723000D01*
X110174916Y-69723000D01*
X110199129Y-69678929D01*
X113433906Y-72913708D01*
X113457700Y-72942701D01*
X113467569Y-72950800D01*
X111421523Y-72950800D01*
X111384200Y-72947124D01*
X111346877Y-72950800D01*
X111346868Y-72950800D01*
X111235215Y-72961797D01*
X111091954Y-73005254D01*
X110959925Y-73075826D01*
X110959923Y-73075827D01*
X110959924Y-73075827D01*
X110873197Y-73147001D01*
X110873193Y-73147005D01*
X110844200Y-73170799D01*
X110820406Y-73199792D01*
X109218887Y-74801312D01*
X109036336Y-74765000D01*
X108753666Y-74765000D01*
X108476427Y-74820147D01*
X108215274Y-74928320D01*
X107980242Y-75085363D01*
X107780364Y-75285241D01*
X107623321Y-75520273D01*
X107515148Y-75781426D01*
X107460001Y-76058665D01*
X104545000Y-76058665D01*
X104545000Y-70199039D01*
X107513097Y-70199039D01*
X107553755Y-70333087D01*
X107673964Y-70587420D01*
X107841482Y-70813414D01*
X108049870Y-71002385D01*
X108291120Y-71147070D01*
X108555961Y-71241909D01*
X108778001Y-71120624D01*
X108778001Y-69977000D01*
X109032001Y-69977000D01*
X109032001Y-71120624D01*
X109254041Y-71241909D01*
X109518882Y-71147070D01*
X109760132Y-71002385D01*
X109968520Y-70813414D01*
X110136038Y-70587420D01*
X110256247Y-70333087D01*
X110296905Y-70199039D01*
X110174916Y-69977000D01*
X109032001Y-69977000D01*
X108778001Y-69977000D01*
X107635086Y-69977000D01*
X107513097Y-70199039D01*
X104545000Y-70199039D01*
X104545000Y-57455810D01*
X111001037Y-57455810D01*
X111009729Y-57517337D01*
X111102726Y-57726882D01*
X111234817Y-57914258D01*
X111400925Y-58072264D01*
X111594667Y-58194828D01*
X111808597Y-58277239D01*
X112034494Y-58316331D01*
X112218001Y-58156598D01*
X112218001Y-57277000D01*
X112472001Y-57277000D01*
X112472001Y-58156598D01*
X112655508Y-58316331D01*
X112881405Y-58277239D01*
X113095335Y-58194828D01*
X113289077Y-58072264D01*
X113455185Y-57914258D01*
X113587276Y-57726882D01*
X113680273Y-57517337D01*
X113688965Y-57455810D01*
X113563164Y-57277000D01*
X112472001Y-57277000D01*
X112218001Y-57277000D01*
X111126838Y-57277000D01*
X111001037Y-57455810D01*
X104545000Y-57455810D01*
X104545000Y-55880000D01*
X110954389Y-55880000D01*
X110976786Y-56107400D01*
X111043116Y-56326060D01*
X111143930Y-56514669D01*
X111102726Y-56573118D01*
X111009729Y-56782663D01*
X111001037Y-56844190D01*
X111126838Y-57023000D01*
X111891892Y-57023000D01*
X111892601Y-57023215D01*
X112063022Y-57040000D01*
X112626980Y-57040000D01*
X112797401Y-57023215D01*
X112798110Y-57023000D01*
X113563164Y-57023000D01*
X113688965Y-56844190D01*
X113680273Y-56782663D01*
X113587276Y-56573118D01*
X113546072Y-56514669D01*
X113646886Y-56326060D01*
X113713216Y-56107400D01*
X113735613Y-55880000D01*
X113730739Y-55830507D01*
X127583669Y-55830507D01*
X127622761Y-56056404D01*
X127705172Y-56270334D01*
X127827736Y-56464076D01*
X127985742Y-56630184D01*
X128173118Y-56762275D01*
X128382663Y-56855272D01*
X128444190Y-56863964D01*
X128623000Y-56738163D01*
X128623000Y-55647000D01*
X127743402Y-55647000D01*
X127583669Y-55830507D01*
X113730739Y-55830507D01*
X113713216Y-55652600D01*
X113649908Y-55443902D01*
X113684503Y-55379180D01*
X113720813Y-55259482D01*
X113725736Y-55209493D01*
X127583669Y-55209493D01*
X127743402Y-55393000D01*
X128623000Y-55393000D01*
X128623000Y-55238021D01*
X128860000Y-55238021D01*
X128860000Y-55801978D01*
X128876785Y-55972399D01*
X128877000Y-55973108D01*
X128877000Y-56738163D01*
X129055810Y-56863964D01*
X129117337Y-56855272D01*
X129326882Y-56762275D01*
X129385331Y-56721071D01*
X129573940Y-56821885D01*
X129792600Y-56888215D01*
X130020000Y-56910612D01*
X130247399Y-56888215D01*
X130456098Y-56824907D01*
X130520820Y-56859502D01*
X130640518Y-56895812D01*
X130765000Y-56908072D01*
X131815000Y-56908072D01*
X131939482Y-56895812D01*
X132059180Y-56859502D01*
X132169494Y-56800537D01*
X132266185Y-56721185D01*
X132345537Y-56624494D01*
X132404502Y-56514180D01*
X132440812Y-56394482D01*
X132453072Y-56270000D01*
X132453072Y-55880000D01*
X146769388Y-55880000D01*
X146791785Y-56107400D01*
X146855093Y-56316098D01*
X146820498Y-56380820D01*
X146784188Y-56500518D01*
X146771928Y-56625000D01*
X146771928Y-57675000D01*
X146784188Y-57799482D01*
X146820498Y-57919180D01*
X146879463Y-58029494D01*
X146958815Y-58126185D01*
X147055506Y-58205537D01*
X147165820Y-58264502D01*
X147285518Y-58300812D01*
X147410000Y-58313072D01*
X148910000Y-58313072D01*
X149034482Y-58300812D01*
X149154180Y-58264502D01*
X149264494Y-58205537D01*
X149361185Y-58126185D01*
X149440537Y-58029494D01*
X149499502Y-57919180D01*
X149535812Y-57799482D01*
X149548072Y-57675000D01*
X149548072Y-56625000D01*
X149535812Y-56500518D01*
X149499502Y-56380820D01*
X149464907Y-56316098D01*
X149528215Y-56107400D01*
X149550612Y-55880000D01*
X149528215Y-55652600D01*
X149461885Y-55433940D01*
X149361071Y-55245331D01*
X149402275Y-55186882D01*
X149495272Y-54977337D01*
X149503964Y-54915810D01*
X149378163Y-54737000D01*
X148613109Y-54737000D01*
X148612400Y-54736785D01*
X148441979Y-54720000D01*
X147878021Y-54720000D01*
X147707600Y-54736785D01*
X147706891Y-54737000D01*
X146941837Y-54737000D01*
X146816036Y-54915810D01*
X146824728Y-54977337D01*
X146917725Y-55186882D01*
X146958929Y-55245331D01*
X146858115Y-55433940D01*
X146791785Y-55652600D01*
X146769388Y-55880000D01*
X132453072Y-55880000D01*
X132453072Y-54770000D01*
X132440812Y-54645518D01*
X132404502Y-54525820D01*
X132345537Y-54415506D01*
X132266185Y-54318815D01*
X132248365Y-54304190D01*
X146816036Y-54304190D01*
X146941837Y-54483000D01*
X148033000Y-54483000D01*
X148033000Y-53603402D01*
X148287000Y-53603402D01*
X148287000Y-54483000D01*
X149378163Y-54483000D01*
X149503964Y-54304190D01*
X149495272Y-54242663D01*
X149402275Y-54033118D01*
X149270184Y-53845742D01*
X149104076Y-53687736D01*
X148910334Y-53565172D01*
X148696404Y-53482761D01*
X148470507Y-53443669D01*
X148287000Y-53603402D01*
X148033000Y-53603402D01*
X147849493Y-53443669D01*
X147623596Y-53482761D01*
X147409666Y-53565172D01*
X147215924Y-53687736D01*
X147049816Y-53845742D01*
X146917725Y-54033118D01*
X146824728Y-54242663D01*
X146816036Y-54304190D01*
X132248365Y-54304190D01*
X132169494Y-54239463D01*
X132059180Y-54180498D01*
X131939482Y-54144188D01*
X131815000Y-54131928D01*
X130765000Y-54131928D01*
X130640518Y-54144188D01*
X130520820Y-54180498D01*
X130456098Y-54215093D01*
X130247400Y-54151785D01*
X130020000Y-54129388D01*
X129792601Y-54151785D01*
X129573941Y-54218115D01*
X129385331Y-54318929D01*
X129326882Y-54277725D01*
X129117337Y-54184728D01*
X129055810Y-54176036D01*
X128877000Y-54301837D01*
X128877000Y-55066891D01*
X128876785Y-55067600D01*
X128860000Y-55238021D01*
X128623000Y-55238021D01*
X128623000Y-54301837D01*
X128444190Y-54176036D01*
X128382663Y-54184728D01*
X128173118Y-54277725D01*
X127985742Y-54409816D01*
X127827736Y-54575924D01*
X127705172Y-54769666D01*
X127622761Y-54983596D01*
X127583669Y-55209493D01*
X113725736Y-55209493D01*
X113733073Y-55135000D01*
X113733073Y-54085000D01*
X113720813Y-53960518D01*
X113684503Y-53840820D01*
X113625538Y-53730506D01*
X113546186Y-53633815D01*
X113449495Y-53554463D01*
X113339181Y-53495498D01*
X113219483Y-53459188D01*
X113095001Y-53446928D01*
X111595001Y-53446928D01*
X111470519Y-53459188D01*
X111350821Y-53495498D01*
X111240507Y-53554463D01*
X111143816Y-53633815D01*
X111064464Y-53730506D01*
X111005499Y-53840820D01*
X110969189Y-53960518D01*
X110956929Y-54085000D01*
X110956929Y-55135000D01*
X110969189Y-55259482D01*
X111005499Y-55379180D01*
X111040094Y-55443902D01*
X110976786Y-55652600D01*
X110954389Y-55880000D01*
X104545000Y-55880000D01*
X104545000Y-49530000D01*
X107453058Y-49530000D01*
X107480765Y-49811309D01*
X107562819Y-50081808D01*
X107696069Y-50331101D01*
X107875393Y-50549608D01*
X108093900Y-50728932D01*
X108343193Y-50862182D01*
X108613692Y-50944236D01*
X108824509Y-50965000D01*
X108965493Y-50965000D01*
X109176310Y-50944236D01*
X109446809Y-50862182D01*
X109696102Y-50728932D01*
X109914609Y-50549608D01*
X110093933Y-50331101D01*
X110227183Y-50081808D01*
X110309237Y-49811309D01*
X110336944Y-49530000D01*
X110323024Y-49388665D01*
X115080001Y-49388665D01*
X115080001Y-49671335D01*
X115135148Y-49948574D01*
X115243321Y-50209727D01*
X115400364Y-50444759D01*
X115600242Y-50644637D01*
X115835274Y-50801680D01*
X116096427Y-50909853D01*
X116373666Y-50965000D01*
X116656336Y-50965000D01*
X116933575Y-50909853D01*
X117194728Y-50801680D01*
X117429760Y-50644637D01*
X117629638Y-50444759D01*
X117786681Y-50209727D01*
X117894854Y-49948574D01*
X117950001Y-49671335D01*
X117950001Y-49388665D01*
X124775000Y-49388665D01*
X124775000Y-49671335D01*
X124830147Y-49948574D01*
X124938320Y-50209727D01*
X125095363Y-50444759D01*
X125295241Y-50644637D01*
X125530273Y-50801680D01*
X125791426Y-50909853D01*
X126068665Y-50965000D01*
X126351335Y-50965000D01*
X126628574Y-50909853D01*
X126889727Y-50801680D01*
X127124759Y-50644637D01*
X127324637Y-50444759D01*
X127481680Y-50209727D01*
X127589853Y-49948574D01*
X127645000Y-49671335D01*
X127645000Y-49530000D01*
X132388057Y-49530000D01*
X132415764Y-49811309D01*
X132497818Y-50081808D01*
X132631068Y-50331101D01*
X132810392Y-50549608D01*
X133028899Y-50728932D01*
X133278192Y-50862182D01*
X133548691Y-50944236D01*
X133759508Y-50965000D01*
X133900492Y-50965000D01*
X134111309Y-50944236D01*
X134381808Y-50862182D01*
X134631101Y-50728932D01*
X134849608Y-50549608D01*
X135028932Y-50331101D01*
X135162182Y-50081808D01*
X135244236Y-49811309D01*
X135271943Y-49530000D01*
X135258023Y-49388665D01*
X142555000Y-49388665D01*
X142555000Y-49671335D01*
X142610147Y-49948574D01*
X142718320Y-50209727D01*
X142875363Y-50444759D01*
X143075241Y-50644637D01*
X143310273Y-50801680D01*
X143571426Y-50909853D01*
X143848665Y-50965000D01*
X144131335Y-50965000D01*
X144408574Y-50909853D01*
X144669727Y-50801680D01*
X144904759Y-50644637D01*
X145104637Y-50444759D01*
X145261680Y-50209727D01*
X145369853Y-49948574D01*
X145425000Y-49671335D01*
X145425000Y-49530000D01*
X150168057Y-49530000D01*
X150195764Y-49811309D01*
X150277818Y-50081808D01*
X150411068Y-50331101D01*
X150590392Y-50549608D01*
X150808899Y-50728932D01*
X151058192Y-50862182D01*
X151328691Y-50944236D01*
X151539508Y-50965000D01*
X151680492Y-50965000D01*
X151891309Y-50944236D01*
X152161808Y-50862182D01*
X152411101Y-50728932D01*
X152629608Y-50549608D01*
X152808932Y-50331101D01*
X152942182Y-50081808D01*
X153024236Y-49811309D01*
X153051943Y-49530000D01*
X153024236Y-49248691D01*
X152942182Y-48978192D01*
X152808932Y-48728899D01*
X152629608Y-48510392D01*
X152411101Y-48331068D01*
X152161808Y-48197818D01*
X151891309Y-48115764D01*
X151680492Y-48095000D01*
X151539508Y-48095000D01*
X151328691Y-48115764D01*
X151058192Y-48197818D01*
X150808899Y-48331068D01*
X150590392Y-48510392D01*
X150411068Y-48728899D01*
X150277818Y-48978192D01*
X150195764Y-49248691D01*
X150168057Y-49530000D01*
X145425000Y-49530000D01*
X145425000Y-49388665D01*
X145369853Y-49111426D01*
X145261680Y-48850273D01*
X145104637Y-48615241D01*
X144904759Y-48415363D01*
X144669727Y-48258320D01*
X144408574Y-48150147D01*
X144131335Y-48095000D01*
X143848665Y-48095000D01*
X143571426Y-48150147D01*
X143310273Y-48258320D01*
X143075241Y-48415363D01*
X142875363Y-48615241D01*
X142718320Y-48850273D01*
X142610147Y-49111426D01*
X142555000Y-49388665D01*
X135258023Y-49388665D01*
X135244236Y-49248691D01*
X135162182Y-48978192D01*
X135028932Y-48728899D01*
X134849608Y-48510392D01*
X134631101Y-48331068D01*
X134381808Y-48197818D01*
X134111309Y-48115764D01*
X133900492Y-48095000D01*
X133759508Y-48095000D01*
X133548691Y-48115764D01*
X133278192Y-48197818D01*
X133028899Y-48331068D01*
X132810392Y-48510392D01*
X132631068Y-48728899D01*
X132497818Y-48978192D01*
X132415764Y-49248691D01*
X132388057Y-49530000D01*
X127645000Y-49530000D01*
X127645000Y-49388665D01*
X127589853Y-49111426D01*
X127481680Y-48850273D01*
X127324637Y-48615241D01*
X127124759Y-48415363D01*
X126889727Y-48258320D01*
X126628574Y-48150147D01*
X126351335Y-48095000D01*
X126068665Y-48095000D01*
X125791426Y-48150147D01*
X125530273Y-48258320D01*
X125295241Y-48415363D01*
X125095363Y-48615241D01*
X124938320Y-48850273D01*
X124830147Y-49111426D01*
X124775000Y-49388665D01*
X117950001Y-49388665D01*
X117894854Y-49111426D01*
X117786681Y-48850273D01*
X117629638Y-48615241D01*
X117429760Y-48415363D01*
X117194728Y-48258320D01*
X116933575Y-48150147D01*
X116656336Y-48095000D01*
X116373666Y-48095000D01*
X116096427Y-48150147D01*
X115835274Y-48258320D01*
X115600242Y-48415363D01*
X115400364Y-48615241D01*
X115243321Y-48850273D01*
X115135148Y-49111426D01*
X115080001Y-49388665D01*
X110323024Y-49388665D01*
X110309237Y-49248691D01*
X110227183Y-48978192D01*
X110093933Y-48728899D01*
X109914609Y-48510392D01*
X109696102Y-48331068D01*
X109446809Y-48197818D01*
X109176310Y-48115764D01*
X108965493Y-48095000D01*
X108824509Y-48095000D01*
X108613692Y-48115764D01*
X108343193Y-48197818D01*
X108093900Y-48331068D01*
X107875393Y-48510392D01*
X107696069Y-48728899D01*
X107562819Y-48978192D01*
X107480765Y-49248691D01*
X107453058Y-49530000D01*
X104545000Y-49530000D01*
X104545000Y-38439005D01*
X109962054Y-38439005D01*
X109962054Y-38726195D01*
X110018082Y-39007867D01*
X110127985Y-39273196D01*
X110287540Y-39511986D01*
X110490614Y-39715060D01*
X110729404Y-39874615D01*
X110994733Y-39984518D01*
X111276405Y-40040546D01*
X111563595Y-40040546D01*
X111845267Y-39984518D01*
X112110596Y-39874615D01*
X112349386Y-39715060D01*
X112552460Y-39511986D01*
X112712015Y-39273196D01*
X112821918Y-39007867D01*
X112877946Y-38726195D01*
X112877946Y-38439005D01*
X148452854Y-38439005D01*
X148452854Y-38726195D01*
X148508882Y-39007867D01*
X148618785Y-39273196D01*
X148778340Y-39511986D01*
X148981414Y-39715060D01*
X149220204Y-39874615D01*
X149485533Y-39984518D01*
X149767205Y-40040546D01*
X150054395Y-40040546D01*
X150336067Y-39984518D01*
X150601396Y-39874615D01*
X150840186Y-39715060D01*
X151043260Y-39511986D01*
X151202815Y-39273196D01*
X151312718Y-39007867D01*
X151368746Y-38726195D01*
X151368746Y-38439005D01*
X151312718Y-38157333D01*
X151202815Y-37892004D01*
X151043260Y-37653214D01*
X150840186Y-37450140D01*
X150601396Y-37290585D01*
X150336067Y-37180682D01*
X150054395Y-37124654D01*
X149767205Y-37124654D01*
X149485533Y-37180682D01*
X149220204Y-37290585D01*
X148981414Y-37450140D01*
X148778340Y-37653214D01*
X148618785Y-37892004D01*
X148508882Y-38157333D01*
X148452854Y-38439005D01*
X112877946Y-38439005D01*
X112821918Y-38157333D01*
X112712015Y-37892004D01*
X112552460Y-37653214D01*
X112349386Y-37450140D01*
X112110596Y-37290585D01*
X111845267Y-37180682D01*
X111563595Y-37124654D01*
X111276405Y-37124654D01*
X110994733Y-37180682D01*
X110729404Y-37290585D01*
X110490614Y-37450140D01*
X110287540Y-37653214D01*
X110127985Y-37892004D01*
X110018082Y-38157333D01*
X109962054Y-38439005D01*
X104545000Y-38439005D01*
X104545000Y-33760000D01*
X155965000Y-33760000D01*
X155965001Y-179773346D01*
M02*
