G04 #@! TF.GenerationSoftware,KiCad,Pcbnew,5.1.4-e60b266~84~ubuntu19.04.1*
G04 #@! TF.CreationDate,2019-09-25T20:54:15+02:00*
G04 #@! TF.ProjectId,PixelSlasher,50697865-6c53-46c6-9173-6865722e6b69,2.0.5*
G04 #@! TF.SameCoordinates,Original*
G04 #@! TF.FileFunction,Copper,L1,Top*
G04 #@! TF.FilePolarity,Positive*
%FSLAX46Y46*%
G04 Gerber Fmt 4.6, Leading zero omitted, Abs format (unit mm)*
G04 Created by KiCad (PCBNEW 5.1.4-e60b266~84~ubuntu19.04.1) date 2019-09-25 20:54:15*
%MOMM*%
%LPD*%
G04 APERTURE LIST*
%ADD10O,5.550000X2.775000*%
%ADD11C,2.700000*%
%ADD12C,1.750000*%
%ADD13R,1.750000X1.750000*%
%ADD14R,1.700000X1.700000*%
%ADD15O,1.700000X1.700000*%
%ADD16O,1.500000X1.050000*%
%ADD17R,1.500000X1.050000*%
%ADD18R,1.050000X1.500000*%
%ADD19O,1.050000X1.500000*%
%ADD20O,1.600000X1.600000*%
%ADD21C,1.600000*%
%ADD22R,1.600000X1.600000*%
%ADD23C,0.250000*%
%ADD24C,0.254000*%
G04 APERTURE END LIST*
D10*
X130020000Y-91065720D03*
X130020000Y-95765720D03*
X130020000Y-100465720D03*
X112705001Y-91065720D03*
X112705001Y-95765720D03*
X112705001Y-100465720D03*
D11*
X116976000Y-112305420D03*
X116976000Y-162505420D03*
X108576000Y-113505420D03*
X108576000Y-161305420D03*
D12*
X111026000Y-108155420D03*
X114526000Y-166655420D03*
D13*
X111026000Y-166655420D03*
D14*
X124945000Y-66030000D03*
D15*
X127485000Y-66030000D03*
X130025000Y-66030000D03*
X132565000Y-66030000D03*
X135105000Y-66030000D03*
D16*
X112345001Y-55880000D03*
X112345001Y-57150000D03*
D17*
X112345001Y-54610000D03*
D18*
X131290000Y-55520000D03*
D19*
X128750000Y-55520000D03*
X130020000Y-55520000D03*
D16*
X148160000Y-55880000D03*
X148160000Y-54610000D03*
D17*
X148160000Y-57150000D03*
D20*
X116515001Y-76200000D03*
D21*
X108895001Y-76200000D03*
X116515001Y-49530000D03*
D20*
X108895001Y-49530000D03*
D21*
X126210000Y-76200000D03*
D20*
X133830000Y-76200000D03*
X133830000Y-49530000D03*
D21*
X126210000Y-49530000D03*
X143990000Y-76200000D03*
D20*
X151610000Y-76200000D03*
D21*
X143990000Y-49530000D03*
D20*
X151610000Y-49530000D03*
D13*
X128270000Y-166655420D03*
D12*
X131770000Y-166655420D03*
X128270000Y-108155420D03*
D11*
X125820000Y-161305420D03*
X125820000Y-113505420D03*
X134220000Y-162505420D03*
X134220000Y-112305420D03*
X152000000Y-112305420D03*
X152000000Y-162505420D03*
X143600000Y-113505420D03*
X143600000Y-161305420D03*
D12*
X146050000Y-108155420D03*
X149550000Y-166655420D03*
D13*
X146050000Y-166655420D03*
D20*
X116525001Y-62230000D03*
X108905001Y-69850000D03*
X116525001Y-64770000D03*
X108905001Y-67310000D03*
X116525001Y-67310000D03*
X108905001Y-64770000D03*
X116525001Y-69850000D03*
D22*
X108905001Y-62230000D03*
D20*
X151620000Y-62230000D03*
X144000000Y-69850000D03*
X151620000Y-64770000D03*
X144000000Y-67310000D03*
X151620000Y-67310000D03*
X144000000Y-64770000D03*
X151620000Y-69850000D03*
D22*
X144000000Y-62230000D03*
D14*
X112705001Y-82810100D03*
X130020000Y-82810100D03*
X147800000Y-82810100D03*
D10*
X147800000Y-100465720D03*
X147800000Y-95765720D03*
X147800000Y-91065720D03*
D23*
X108105002Y-66510001D02*
X108039001Y-66510001D01*
X108905001Y-67310000D02*
X108105002Y-66510001D01*
X108039001Y-66510001D02*
X105679240Y-64150240D01*
X105679240Y-64150240D02*
X105679240Y-57505600D01*
X108574840Y-54610000D02*
X112345001Y-54610000D01*
X105679240Y-57505600D02*
X108574840Y-54610000D01*
X123665000Y-69850000D02*
X116525001Y-69850000D01*
X127485000Y-66030000D02*
X123665000Y-69850000D01*
X131290000Y-61022919D02*
X131290000Y-56520000D01*
X131290000Y-56520000D02*
X131290000Y-55520000D01*
X127485000Y-64827919D02*
X131290000Y-61022919D01*
X127485000Y-66030000D02*
X127485000Y-64827919D01*
X148160000Y-63150000D02*
X144318205Y-66991795D01*
X148160000Y-57150000D02*
X148160000Y-63150000D01*
X130025000Y-66030000D02*
X132433080Y-63621920D01*
X140311920Y-63621920D02*
X144000000Y-67310000D01*
X132433080Y-63621920D02*
X140311920Y-63621920D01*
X126210000Y-49530000D02*
X116515001Y-49530000D01*
X116515001Y-62220000D02*
X116525001Y-62230000D01*
X116515001Y-49530000D02*
X116515001Y-62220000D01*
X112522000Y-72573001D02*
X108895001Y-76200000D01*
X112522000Y-63881000D02*
X112522000Y-72573001D01*
X116525001Y-62230000D02*
X114173000Y-62230000D01*
X114173000Y-62230000D02*
X112522000Y-63881000D01*
X150820001Y-63029999D02*
X150711001Y-63029999D01*
X151620000Y-62230000D02*
X150820001Y-63029999D01*
X150711001Y-63029999D02*
X147701000Y-66040000D01*
X147701000Y-72489000D02*
X143990000Y-76200000D01*
X147701000Y-66040000D02*
X147701000Y-72489000D01*
X146911000Y-46609000D02*
X143990000Y-49530000D01*
X152908000Y-46609000D02*
X146911000Y-46609000D01*
X154686000Y-48387000D02*
X152908000Y-46609000D01*
X151620000Y-62230000D02*
X154686000Y-59164000D01*
X154686000Y-59164000D02*
X154686000Y-48387000D01*
X135105000Y-67305000D02*
X126210000Y-76200000D01*
X135105000Y-66030000D02*
X135105000Y-67305000D01*
X135105000Y-67315000D02*
X143990000Y-76200000D01*
X135105000Y-66030000D02*
X135105000Y-67315000D01*
X113345001Y-55880000D02*
X112345001Y-55880000D01*
X114935000Y-54290001D02*
X113345001Y-55880000D01*
X114935000Y-52070000D02*
X114935000Y-54290001D01*
X112395000Y-49530000D02*
X114935000Y-52070000D01*
X108895001Y-49530000D02*
X112395000Y-49530000D01*
X112120001Y-55880000D02*
X112345001Y-55880000D01*
X108905001Y-59095000D02*
X112120001Y-55880000D01*
X108905001Y-62230000D02*
X108905001Y-59095000D01*
X130020000Y-53340000D02*
X133830000Y-49530000D01*
X130020000Y-55520000D02*
X130020000Y-53340000D01*
X116525001Y-64770000D02*
X122483880Y-64770000D01*
X130020000Y-57233880D02*
X130020000Y-55520000D01*
X122483880Y-64770000D02*
X130020000Y-57233880D01*
X151610000Y-50661370D02*
X151610000Y-49530000D01*
X151610000Y-53430000D02*
X151610000Y-50661370D01*
X149160000Y-55880000D02*
X151610000Y-53430000D01*
X148160000Y-55880000D02*
X149160000Y-55880000D01*
X147160000Y-55880000D02*
X148160000Y-55880000D01*
X145462905Y-55880000D02*
X147160000Y-55880000D01*
X144000000Y-57342905D02*
X145462905Y-55880000D01*
X144000000Y-62230000D02*
X144000000Y-57342905D01*
X116515001Y-76200000D02*
X119245501Y-78930500D01*
X110932141Y-166655420D02*
X110932141Y-125513919D01*
X118557142Y-117888918D02*
X118559682Y-117888918D01*
X110932141Y-125513919D02*
X118557142Y-117888918D01*
X119245501Y-117203099D02*
X119245501Y-78930500D01*
X118559682Y-117888918D02*
X119245501Y-117203099D01*
X133830000Y-76200000D02*
X136588500Y-78958500D01*
X136588500Y-78958500D02*
X136588500Y-105531920D01*
X128247140Y-113873280D02*
X128247140Y-166655420D01*
X136588500Y-105531920D02*
X128247140Y-113873280D01*
X152409999Y-76999999D02*
X152412599Y-76999999D01*
X151610000Y-76200000D02*
X152409999Y-76999999D01*
X152412599Y-76999999D02*
X153327100Y-77914500D01*
X153327100Y-77914500D02*
X153327100Y-105524300D01*
X146027140Y-112824260D02*
X146027140Y-166655420D01*
X153327100Y-105524300D02*
X146027140Y-112824260D01*
X109075220Y-170035220D02*
X105410000Y-166370000D01*
X114432141Y-166655420D02*
X111052341Y-170035220D01*
X107433280Y-100465720D02*
X112705001Y-100465720D01*
X111052341Y-170035220D02*
X109075220Y-170035220D01*
X105410000Y-102489000D02*
X107433280Y-100465720D01*
X105410000Y-166370000D02*
X105410000Y-102489000D01*
X128672140Y-169730420D02*
X126570740Y-169730420D01*
X131747140Y-166655420D02*
X128672140Y-169730420D01*
X125269160Y-100465720D02*
X130020000Y-100465720D01*
X123245880Y-102489000D02*
X125269160Y-100465720D01*
X126570740Y-169730420D02*
X123245880Y-166405560D01*
X123245880Y-166405560D02*
X123245880Y-102489000D01*
X142617360Y-100465720D02*
X147800000Y-100465720D01*
X146568980Y-169613580D02*
X144213580Y-169613580D01*
X149527140Y-166655420D02*
X146568980Y-169613580D01*
X140594080Y-102489000D02*
X142617360Y-100465720D01*
X144213580Y-169613580D02*
X140594080Y-165994080D01*
X140594080Y-165994080D02*
X140594080Y-102489000D01*
X112705001Y-82810100D02*
X112705001Y-91065720D01*
X130020000Y-91065720D02*
X130020000Y-82810100D01*
X147800000Y-82810100D02*
X147800000Y-91065720D01*
X109705000Y-65569999D02*
X109705000Y-65572500D01*
X108905001Y-64770000D02*
X109705000Y-65569999D01*
X107256580Y-75059540D02*
X107256580Y-91704799D01*
X111317501Y-95765720D02*
X112705001Y-95765720D01*
X111043720Y-66908719D02*
X111043720Y-71272400D01*
X108905001Y-64770000D02*
X111043720Y-66908719D01*
X107256580Y-91704799D02*
X111317501Y-95765720D01*
X111043720Y-71272400D02*
X107256580Y-75059540D01*
X128632500Y-95765720D02*
X130020000Y-95765720D01*
X116525001Y-67310000D02*
X115331240Y-67310000D01*
X121831100Y-88964320D02*
X128632500Y-95765720D01*
X115331240Y-67310000D02*
X113908840Y-68732400D01*
X113908840Y-68732400D02*
X113908840Y-69707760D01*
X121831100Y-77630020D02*
X121831100Y-88964320D01*
X113908840Y-69707760D02*
X121831100Y-77630020D01*
D24*
G36*
X155965001Y-179773346D02*
G01*
X155923115Y-179672224D01*
X155763560Y-179433434D01*
X155560486Y-179230360D01*
X155321696Y-179070805D01*
X155056367Y-178960902D01*
X154774695Y-178904874D01*
X154487505Y-178904874D01*
X154205833Y-178960902D01*
X153940504Y-179070805D01*
X153701714Y-179230360D01*
X153498640Y-179433434D01*
X153339085Y-179672224D01*
X153229182Y-179937553D01*
X153173154Y-180219225D01*
X153173154Y-180506415D01*
X153229182Y-180788087D01*
X153339085Y-181053416D01*
X153498640Y-181292206D01*
X153701714Y-181495280D01*
X153940504Y-181654835D01*
X153971853Y-181667820D01*
X106480347Y-181667820D01*
X106511696Y-181654835D01*
X106750486Y-181495280D01*
X106953560Y-181292206D01*
X107113115Y-181053416D01*
X107223018Y-180788087D01*
X107279046Y-180506415D01*
X107279046Y-180219225D01*
X107223018Y-179937553D01*
X107113115Y-179672224D01*
X106953560Y-179433434D01*
X106750486Y-179230360D01*
X106511696Y-179070805D01*
X106246367Y-178960902D01*
X105964695Y-178904874D01*
X105677505Y-178904874D01*
X105395833Y-178960902D01*
X105130504Y-179070805D01*
X104891714Y-179230360D01*
X104688640Y-179433434D01*
X104545000Y-179648406D01*
X104545000Y-102489000D01*
X104646324Y-102489000D01*
X104650001Y-102526333D01*
X104650000Y-166332678D01*
X104646324Y-166370000D01*
X104650000Y-166407322D01*
X104650000Y-166407332D01*
X104660997Y-166518985D01*
X104702383Y-166655420D01*
X104704454Y-166662246D01*
X104775026Y-166794276D01*
X104783339Y-166804405D01*
X104869999Y-166910001D01*
X104899003Y-166933804D01*
X108511421Y-170546223D01*
X108535219Y-170575221D01*
X108650944Y-170670194D01*
X108782973Y-170740766D01*
X108926234Y-170784223D01*
X109037887Y-170795220D01*
X109037897Y-170795220D01*
X109075220Y-170798896D01*
X109112543Y-170795220D01*
X111015019Y-170795220D01*
X111052341Y-170798896D01*
X111089663Y-170795220D01*
X111089674Y-170795220D01*
X111201327Y-170784223D01*
X111344588Y-170740766D01*
X111476617Y-170670194D01*
X111592342Y-170575221D01*
X111616145Y-170546217D01*
X114063928Y-168098435D01*
X114085549Y-168107391D01*
X114377278Y-168165420D01*
X114674722Y-168165420D01*
X114966451Y-168107391D01*
X115241253Y-167993564D01*
X115488569Y-167828313D01*
X115698893Y-167617989D01*
X115864144Y-167370673D01*
X115977971Y-167095871D01*
X116036000Y-166804142D01*
X116036000Y-166506698D01*
X115977971Y-166214969D01*
X115864144Y-165940167D01*
X115698893Y-165692851D01*
X115488569Y-165482527D01*
X115241253Y-165317276D01*
X114966451Y-165203449D01*
X114674722Y-165145420D01*
X114377278Y-165145420D01*
X114085549Y-165203449D01*
X113810747Y-165317276D01*
X113563431Y-165482527D01*
X113353107Y-165692851D01*
X113187856Y-165940167D01*
X113074029Y-166214969D01*
X113016000Y-166506698D01*
X113016000Y-166804142D01*
X113047957Y-166964802D01*
X112539072Y-167473687D01*
X112539072Y-165780420D01*
X112526812Y-165655938D01*
X112490502Y-165536240D01*
X112431537Y-165425926D01*
X112352185Y-165329235D01*
X112255494Y-165249883D01*
X112145180Y-165190918D01*
X112025482Y-165154608D01*
X111901000Y-165142348D01*
X111692141Y-165142348D01*
X111692141Y-163890258D01*
X115770767Y-163890258D01*
X115908724Y-164190464D01*
X116257967Y-164366302D01*
X116634804Y-164470627D01*
X117024753Y-164499429D01*
X117412828Y-164451604D01*
X117784116Y-164328988D01*
X118043276Y-164190464D01*
X118181233Y-163890258D01*
X116976000Y-162685025D01*
X115770767Y-163890258D01*
X111692141Y-163890258D01*
X111692141Y-162554173D01*
X114981991Y-162554173D01*
X115029816Y-162942248D01*
X115152432Y-163313536D01*
X115290956Y-163572696D01*
X115591162Y-163710653D01*
X116796395Y-162505420D01*
X117155605Y-162505420D01*
X118360838Y-163710653D01*
X118661044Y-163572696D01*
X118836882Y-163223453D01*
X118941207Y-162846616D01*
X118970009Y-162456667D01*
X118922184Y-162068592D01*
X118799568Y-161697304D01*
X118661044Y-161438144D01*
X118360838Y-161300187D01*
X117155605Y-162505420D01*
X116796395Y-162505420D01*
X115591162Y-161300187D01*
X115290956Y-161438144D01*
X115115118Y-161787387D01*
X115010793Y-162164224D01*
X114981991Y-162554173D01*
X111692141Y-162554173D01*
X111692141Y-161120582D01*
X115770767Y-161120582D01*
X116976000Y-162325815D01*
X118181233Y-161120582D01*
X118043276Y-160820376D01*
X117694033Y-160644538D01*
X117317196Y-160540213D01*
X116927247Y-160511411D01*
X116539172Y-160559236D01*
X116167884Y-160681852D01*
X115908724Y-160820376D01*
X115770767Y-161120582D01*
X111692141Y-161120582D01*
X111692141Y-125828720D01*
X119056520Y-118464342D01*
X119099683Y-118428919D01*
X119123485Y-118399916D01*
X119756505Y-117766897D01*
X119785502Y-117743100D01*
X119880475Y-117627375D01*
X119951047Y-117495346D01*
X119994504Y-117352085D01*
X120005501Y-117240432D01*
X120005501Y-117240431D01*
X120009178Y-117203099D01*
X120005501Y-117165766D01*
X120005501Y-102489000D01*
X122482204Y-102489000D01*
X122485881Y-102526333D01*
X122485880Y-166368238D01*
X122482204Y-166405560D01*
X122485880Y-166442882D01*
X122485880Y-166442892D01*
X122496877Y-166554545D01*
X122538801Y-166692752D01*
X122540334Y-166697806D01*
X122610906Y-166829836D01*
X122650751Y-166878386D01*
X122705879Y-166945561D01*
X122734883Y-166969364D01*
X126006941Y-170241423D01*
X126030739Y-170270421D01*
X126059737Y-170294219D01*
X126146463Y-170365394D01*
X126278493Y-170435966D01*
X126421754Y-170479423D01*
X126533407Y-170490420D01*
X126533416Y-170490420D01*
X126570739Y-170494096D01*
X126608062Y-170490420D01*
X128634818Y-170490420D01*
X128672140Y-170494096D01*
X128709462Y-170490420D01*
X128709473Y-170490420D01*
X128821126Y-170479423D01*
X128964387Y-170435966D01*
X129096416Y-170365394D01*
X129212141Y-170270421D01*
X129235944Y-170241417D01*
X131363264Y-168114097D01*
X131621278Y-168165420D01*
X131918722Y-168165420D01*
X132210451Y-168107391D01*
X132485253Y-167993564D01*
X132732569Y-167828313D01*
X132942893Y-167617989D01*
X133108144Y-167370673D01*
X133221971Y-167095871D01*
X133280000Y-166804142D01*
X133280000Y-166506698D01*
X133221971Y-166214969D01*
X133108144Y-165940167D01*
X132942893Y-165692851D01*
X132732569Y-165482527D01*
X132485253Y-165317276D01*
X132210451Y-165203449D01*
X131918722Y-165145420D01*
X131621278Y-165145420D01*
X131329549Y-165203449D01*
X131054747Y-165317276D01*
X130807431Y-165482527D01*
X130597107Y-165692851D01*
X130431856Y-165940167D01*
X130318029Y-166214969D01*
X130260000Y-166506698D01*
X130260000Y-166804142D01*
X130303737Y-167024021D01*
X129781513Y-167546245D01*
X129783072Y-167530420D01*
X129783072Y-165780420D01*
X129770812Y-165655938D01*
X129734502Y-165536240D01*
X129675537Y-165425926D01*
X129596185Y-165329235D01*
X129499494Y-165249883D01*
X129389180Y-165190918D01*
X129269482Y-165154608D01*
X129145000Y-165142348D01*
X129007140Y-165142348D01*
X129007140Y-163890258D01*
X133014767Y-163890258D01*
X133152724Y-164190464D01*
X133501967Y-164366302D01*
X133878804Y-164470627D01*
X134268753Y-164499429D01*
X134656828Y-164451604D01*
X135028116Y-164328988D01*
X135287276Y-164190464D01*
X135425233Y-163890258D01*
X134220000Y-162685025D01*
X133014767Y-163890258D01*
X129007140Y-163890258D01*
X129007140Y-162554173D01*
X132225991Y-162554173D01*
X132273816Y-162942248D01*
X132396432Y-163313536D01*
X132534956Y-163572696D01*
X132835162Y-163710653D01*
X134040395Y-162505420D01*
X134399605Y-162505420D01*
X135604838Y-163710653D01*
X135905044Y-163572696D01*
X136080882Y-163223453D01*
X136185207Y-162846616D01*
X136214009Y-162456667D01*
X136166184Y-162068592D01*
X136043568Y-161697304D01*
X135905044Y-161438144D01*
X135604838Y-161300187D01*
X134399605Y-162505420D01*
X134040395Y-162505420D01*
X132835162Y-161300187D01*
X132534956Y-161438144D01*
X132359118Y-161787387D01*
X132254793Y-162164224D01*
X132225991Y-162554173D01*
X129007140Y-162554173D01*
X129007140Y-161120582D01*
X133014767Y-161120582D01*
X134220000Y-162325815D01*
X135425233Y-161120582D01*
X135287276Y-160820376D01*
X134938033Y-160644538D01*
X134561196Y-160540213D01*
X134171247Y-160511411D01*
X133783172Y-160559236D01*
X133411884Y-160681852D01*
X133152724Y-160820376D01*
X133014767Y-161120582D01*
X129007140Y-161120582D01*
X129007140Y-114188081D01*
X129504963Y-113690258D01*
X133014767Y-113690258D01*
X133152724Y-113990464D01*
X133501967Y-114166302D01*
X133878804Y-114270627D01*
X134268753Y-114299429D01*
X134656828Y-114251604D01*
X135028116Y-114128988D01*
X135287276Y-113990464D01*
X135425233Y-113690258D01*
X134220000Y-112485025D01*
X133014767Y-113690258D01*
X129504963Y-113690258D01*
X130841048Y-112354173D01*
X132225991Y-112354173D01*
X132273816Y-112742248D01*
X132396432Y-113113536D01*
X132534956Y-113372696D01*
X132835162Y-113510653D01*
X134040395Y-112305420D01*
X134399605Y-112305420D01*
X135604838Y-113510653D01*
X135905044Y-113372696D01*
X136080882Y-113023453D01*
X136185207Y-112646616D01*
X136214009Y-112256667D01*
X136166184Y-111868592D01*
X136043568Y-111497304D01*
X135905044Y-111238144D01*
X135604838Y-111100187D01*
X134399605Y-112305420D01*
X134040395Y-112305420D01*
X132835162Y-111100187D01*
X132534956Y-111238144D01*
X132359118Y-111587387D01*
X132254793Y-111964224D01*
X132225991Y-112354173D01*
X130841048Y-112354173D01*
X132274639Y-110920582D01*
X133014767Y-110920582D01*
X134220000Y-112125815D01*
X135425233Y-110920582D01*
X135287276Y-110620376D01*
X134938033Y-110444538D01*
X134561196Y-110340213D01*
X134171247Y-110311411D01*
X133783172Y-110359236D01*
X133411884Y-110481852D01*
X133152724Y-110620376D01*
X133014767Y-110920582D01*
X132274639Y-110920582D01*
X137099508Y-106095715D01*
X137128501Y-106071921D01*
X137152295Y-106042928D01*
X137152299Y-106042924D01*
X137223473Y-105956197D01*
X137227547Y-105948576D01*
X137294046Y-105824167D01*
X137337503Y-105680906D01*
X137348500Y-105569253D01*
X137348500Y-105569244D01*
X137352176Y-105531921D01*
X137348500Y-105494598D01*
X137348500Y-102489000D01*
X139830404Y-102489000D01*
X139834081Y-102526333D01*
X139834080Y-165956758D01*
X139830404Y-165994080D01*
X139834080Y-166031402D01*
X139834080Y-166031412D01*
X139845077Y-166143065D01*
X139871795Y-166231144D01*
X139888534Y-166286326D01*
X139959106Y-166418356D01*
X139998951Y-166466906D01*
X140054079Y-166534081D01*
X140083083Y-166557884D01*
X143649781Y-170124583D01*
X143673579Y-170153581D01*
X143702577Y-170177379D01*
X143789303Y-170248554D01*
X143874736Y-170294219D01*
X143921333Y-170319126D01*
X144064594Y-170362583D01*
X144176247Y-170373580D01*
X144176257Y-170373580D01*
X144213580Y-170377256D01*
X144250902Y-170373580D01*
X146531658Y-170373580D01*
X146568980Y-170377256D01*
X146606302Y-170373580D01*
X146606313Y-170373580D01*
X146717966Y-170362583D01*
X146861227Y-170319126D01*
X146993256Y-170248554D01*
X147108981Y-170153581D01*
X147132784Y-170124577D01*
X149143264Y-168114097D01*
X149401278Y-168165420D01*
X149698722Y-168165420D01*
X149990451Y-168107391D01*
X150265253Y-167993564D01*
X150512569Y-167828313D01*
X150722893Y-167617989D01*
X150888144Y-167370673D01*
X151001971Y-167095871D01*
X151060000Y-166804142D01*
X151060000Y-166506698D01*
X151001971Y-166214969D01*
X150888144Y-165940167D01*
X150722893Y-165692851D01*
X150512569Y-165482527D01*
X150265253Y-165317276D01*
X149990451Y-165203449D01*
X149698722Y-165145420D01*
X149401278Y-165145420D01*
X149109549Y-165203449D01*
X148834747Y-165317276D01*
X148587431Y-165482527D01*
X148377107Y-165692851D01*
X148211856Y-165940167D01*
X148098029Y-166214969D01*
X148040000Y-166506698D01*
X148040000Y-166804142D01*
X148083737Y-167024021D01*
X147561513Y-167546245D01*
X147563072Y-167530420D01*
X147563072Y-165780420D01*
X147550812Y-165655938D01*
X147514502Y-165536240D01*
X147455537Y-165425926D01*
X147376185Y-165329235D01*
X147279494Y-165249883D01*
X147169180Y-165190918D01*
X147049482Y-165154608D01*
X146925000Y-165142348D01*
X146787140Y-165142348D01*
X146787140Y-163890258D01*
X150794767Y-163890258D01*
X150932724Y-164190464D01*
X151281967Y-164366302D01*
X151658804Y-164470627D01*
X152048753Y-164499429D01*
X152436828Y-164451604D01*
X152808116Y-164328988D01*
X153067276Y-164190464D01*
X153205233Y-163890258D01*
X152000000Y-162685025D01*
X150794767Y-163890258D01*
X146787140Y-163890258D01*
X146787140Y-162554173D01*
X150005991Y-162554173D01*
X150053816Y-162942248D01*
X150176432Y-163313536D01*
X150314956Y-163572696D01*
X150615162Y-163710653D01*
X151820395Y-162505420D01*
X152179605Y-162505420D01*
X153384838Y-163710653D01*
X153685044Y-163572696D01*
X153860882Y-163223453D01*
X153965207Y-162846616D01*
X153994009Y-162456667D01*
X153946184Y-162068592D01*
X153823568Y-161697304D01*
X153685044Y-161438144D01*
X153384838Y-161300187D01*
X152179605Y-162505420D01*
X151820395Y-162505420D01*
X150615162Y-161300187D01*
X150314956Y-161438144D01*
X150139118Y-161787387D01*
X150034793Y-162164224D01*
X150005991Y-162554173D01*
X146787140Y-162554173D01*
X146787140Y-161120582D01*
X150794767Y-161120582D01*
X152000000Y-162325815D01*
X153205233Y-161120582D01*
X153067276Y-160820376D01*
X152718033Y-160644538D01*
X152341196Y-160540213D01*
X151951247Y-160511411D01*
X151563172Y-160559236D01*
X151191884Y-160681852D01*
X150932724Y-160820376D01*
X150794767Y-161120582D01*
X146787140Y-161120582D01*
X146787140Y-113690258D01*
X150794767Y-113690258D01*
X150932724Y-113990464D01*
X151281967Y-114166302D01*
X151658804Y-114270627D01*
X152048753Y-114299429D01*
X152436828Y-114251604D01*
X152808116Y-114128988D01*
X153067276Y-113990464D01*
X153205233Y-113690258D01*
X152000000Y-112485025D01*
X150794767Y-113690258D01*
X146787140Y-113690258D01*
X146787140Y-113139061D01*
X147572028Y-112354173D01*
X150005991Y-112354173D01*
X150053816Y-112742248D01*
X150176432Y-113113536D01*
X150314956Y-113372696D01*
X150615162Y-113510653D01*
X151820395Y-112305420D01*
X152179605Y-112305420D01*
X153384838Y-113510653D01*
X153685044Y-113372696D01*
X153860882Y-113023453D01*
X153965207Y-112646616D01*
X153994009Y-112256667D01*
X153946184Y-111868592D01*
X153823568Y-111497304D01*
X153685044Y-111238144D01*
X153384838Y-111100187D01*
X152179605Y-112305420D01*
X151820395Y-112305420D01*
X150615162Y-111100187D01*
X150314956Y-111238144D01*
X150139118Y-111587387D01*
X150034793Y-111964224D01*
X150005991Y-112354173D01*
X147572028Y-112354173D01*
X149005619Y-110920582D01*
X150794767Y-110920582D01*
X152000000Y-112125815D01*
X153205233Y-110920582D01*
X153067276Y-110620376D01*
X152718033Y-110444538D01*
X152341196Y-110340213D01*
X151951247Y-110311411D01*
X151563172Y-110359236D01*
X151191884Y-110481852D01*
X150932724Y-110620376D01*
X150794767Y-110920582D01*
X149005619Y-110920582D01*
X153838108Y-106088095D01*
X153867101Y-106064301D01*
X153890895Y-106035308D01*
X153890899Y-106035304D01*
X153962073Y-105948577D01*
X153962074Y-105948576D01*
X154032646Y-105816547D01*
X154076103Y-105673286D01*
X154087100Y-105561633D01*
X154087100Y-105561624D01*
X154090776Y-105524301D01*
X154087100Y-105486978D01*
X154087100Y-77951825D01*
X154090776Y-77914500D01*
X154087100Y-77877175D01*
X154087100Y-77877167D01*
X154076103Y-77765514D01*
X154032646Y-77622253D01*
X153962074Y-77490224D01*
X153867101Y-77374499D01*
X153838104Y-77350702D01*
X153011313Y-76523912D01*
X153024236Y-76481309D01*
X153051943Y-76200000D01*
X153024236Y-75918691D01*
X152942182Y-75648192D01*
X152808932Y-75398899D01*
X152629608Y-75180392D01*
X152411101Y-75001068D01*
X152161808Y-74867818D01*
X151891309Y-74785764D01*
X151680492Y-74765000D01*
X151539508Y-74765000D01*
X151328691Y-74785764D01*
X151058192Y-74867818D01*
X150808899Y-75001068D01*
X150590392Y-75180392D01*
X150411068Y-75398899D01*
X150277818Y-75648192D01*
X150195764Y-75918691D01*
X150168057Y-76200000D01*
X150195764Y-76481309D01*
X150277818Y-76751808D01*
X150411068Y-77001101D01*
X150590392Y-77219608D01*
X150808899Y-77398932D01*
X151058192Y-77532182D01*
X151328691Y-77614236D01*
X151539508Y-77635000D01*
X151680492Y-77635000D01*
X151891309Y-77614236D01*
X151937901Y-77600103D01*
X152567100Y-78229302D01*
X152567101Y-105209496D01*
X145516143Y-112260456D01*
X145487139Y-112284259D01*
X145432011Y-112351434D01*
X145392166Y-112399984D01*
X145328406Y-112519269D01*
X145285044Y-112438144D01*
X144984838Y-112300187D01*
X143779605Y-113505420D01*
X144984838Y-114710653D01*
X145267140Y-114580924D01*
X145267141Y-160229917D01*
X144984838Y-160100187D01*
X143779605Y-161305420D01*
X144984838Y-162510653D01*
X145267141Y-162380923D01*
X145267141Y-165142348D01*
X145175000Y-165142348D01*
X145050518Y-165154608D01*
X144930820Y-165190918D01*
X144820506Y-165249883D01*
X144723815Y-165329235D01*
X144644463Y-165425926D01*
X144585498Y-165536240D01*
X144549188Y-165655938D01*
X144536928Y-165780420D01*
X144536928Y-167530420D01*
X144549188Y-167654902D01*
X144585498Y-167774600D01*
X144644463Y-167884914D01*
X144723815Y-167981605D01*
X144820506Y-168060957D01*
X144930820Y-168119922D01*
X145050518Y-168156232D01*
X145175000Y-168168492D01*
X146925000Y-168168492D01*
X146940825Y-168166933D01*
X146254179Y-168853580D01*
X144528382Y-168853580D01*
X141354080Y-165679279D01*
X141354080Y-162690258D01*
X142394767Y-162690258D01*
X142532724Y-162990464D01*
X142881967Y-163166302D01*
X143258804Y-163270627D01*
X143648753Y-163299429D01*
X144036828Y-163251604D01*
X144408116Y-163128988D01*
X144667276Y-162990464D01*
X144805233Y-162690258D01*
X143600000Y-161485025D01*
X142394767Y-162690258D01*
X141354080Y-162690258D01*
X141354080Y-161354173D01*
X141605991Y-161354173D01*
X141653816Y-161742248D01*
X141776432Y-162113536D01*
X141914956Y-162372696D01*
X142215162Y-162510653D01*
X143420395Y-161305420D01*
X142215162Y-160100187D01*
X141914956Y-160238144D01*
X141739118Y-160587387D01*
X141634793Y-160964224D01*
X141605991Y-161354173D01*
X141354080Y-161354173D01*
X141354080Y-159920582D01*
X142394767Y-159920582D01*
X143600000Y-161125815D01*
X144805233Y-159920582D01*
X144667276Y-159620376D01*
X144318033Y-159444538D01*
X143941196Y-159340213D01*
X143551247Y-159311411D01*
X143163172Y-159359236D01*
X142791884Y-159481852D01*
X142532724Y-159620376D01*
X142394767Y-159920582D01*
X141354080Y-159920582D01*
X141354080Y-114890258D01*
X142394767Y-114890258D01*
X142532724Y-115190464D01*
X142881967Y-115366302D01*
X143258804Y-115470627D01*
X143648753Y-115499429D01*
X144036828Y-115451604D01*
X144408116Y-115328988D01*
X144667276Y-115190464D01*
X144805233Y-114890258D01*
X143600000Y-113685025D01*
X142394767Y-114890258D01*
X141354080Y-114890258D01*
X141354080Y-113554173D01*
X141605991Y-113554173D01*
X141653816Y-113942248D01*
X141776432Y-114313536D01*
X141914956Y-114572696D01*
X142215162Y-114710653D01*
X143420395Y-113505420D01*
X142215162Y-112300187D01*
X141914956Y-112438144D01*
X141739118Y-112787387D01*
X141634793Y-113164224D01*
X141605991Y-113554173D01*
X141354080Y-113554173D01*
X141354080Y-112120582D01*
X142394767Y-112120582D01*
X143600000Y-113325815D01*
X144805233Y-112120582D01*
X144667276Y-111820376D01*
X144318033Y-111644538D01*
X143941196Y-111540213D01*
X143551247Y-111511411D01*
X143163172Y-111559236D01*
X142791884Y-111681852D01*
X142532724Y-111820376D01*
X142394767Y-112120582D01*
X141354080Y-112120582D01*
X141354080Y-109201660D01*
X145183365Y-109201660D01*
X145264025Y-109453288D01*
X145532329Y-109581687D01*
X145820526Y-109655275D01*
X146117543Y-109671224D01*
X146411963Y-109628921D01*
X146692474Y-109529992D01*
X146835975Y-109453288D01*
X146916635Y-109201660D01*
X146050000Y-108335025D01*
X145183365Y-109201660D01*
X141354080Y-109201660D01*
X141354080Y-108222963D01*
X144534196Y-108222963D01*
X144576499Y-108517383D01*
X144675428Y-108797894D01*
X144752132Y-108941395D01*
X145003760Y-109022055D01*
X145870395Y-108155420D01*
X146229605Y-108155420D01*
X147096240Y-109022055D01*
X147347868Y-108941395D01*
X147476267Y-108673091D01*
X147549855Y-108384894D01*
X147565804Y-108087877D01*
X147523501Y-107793457D01*
X147424572Y-107512946D01*
X147347868Y-107369445D01*
X147096240Y-107288785D01*
X146229605Y-108155420D01*
X145870395Y-108155420D01*
X145003760Y-107288785D01*
X144752132Y-107369445D01*
X144623733Y-107637749D01*
X144550145Y-107925946D01*
X144534196Y-108222963D01*
X141354080Y-108222963D01*
X141354080Y-107109180D01*
X145183365Y-107109180D01*
X146050000Y-107975815D01*
X146916635Y-107109180D01*
X146835975Y-106857552D01*
X146567671Y-106729153D01*
X146279474Y-106655565D01*
X145982457Y-106639616D01*
X145688037Y-106681919D01*
X145407526Y-106780848D01*
X145264025Y-106857552D01*
X145183365Y-107109180D01*
X141354080Y-107109180D01*
X141354080Y-102803801D01*
X142932162Y-101225720D01*
X144529537Y-101225720D01*
X144534913Y-101243442D01*
X144722716Y-101594798D01*
X144975457Y-101902763D01*
X145283422Y-102155504D01*
X145634778Y-102343307D01*
X146016021Y-102458956D01*
X146313142Y-102488220D01*
X149286858Y-102488220D01*
X149583979Y-102458956D01*
X149965222Y-102343307D01*
X150316578Y-102155504D01*
X150624543Y-101902763D01*
X150877284Y-101594798D01*
X151065087Y-101243442D01*
X151180736Y-100862199D01*
X151219786Y-100465720D01*
X151180736Y-100069241D01*
X151065087Y-99687998D01*
X150877284Y-99336642D01*
X150624543Y-99028677D01*
X150316578Y-98775936D01*
X149965222Y-98588133D01*
X149583979Y-98472484D01*
X149286858Y-98443220D01*
X146313142Y-98443220D01*
X146016021Y-98472484D01*
X145634778Y-98588133D01*
X145283422Y-98775936D01*
X144975457Y-99028677D01*
X144722716Y-99336642D01*
X144534913Y-99687998D01*
X144529537Y-99705720D01*
X142654682Y-99705720D01*
X142617359Y-99702044D01*
X142580037Y-99705720D01*
X142580027Y-99705720D01*
X142468374Y-99716717D01*
X142325113Y-99760174D01*
X142193083Y-99830746D01*
X142109443Y-99899388D01*
X142077359Y-99925719D01*
X142053561Y-99954717D01*
X140083078Y-101925201D01*
X140054080Y-101948999D01*
X140030282Y-101977997D01*
X140030281Y-101977998D01*
X139959106Y-102064724D01*
X139888534Y-102196754D01*
X139845078Y-102340015D01*
X139830404Y-102489000D01*
X137348500Y-102489000D01*
X137348500Y-95765720D01*
X144380214Y-95765720D01*
X144419264Y-96162199D01*
X144534913Y-96543442D01*
X144722716Y-96894798D01*
X144975457Y-97202763D01*
X145283422Y-97455504D01*
X145634778Y-97643307D01*
X146016021Y-97758956D01*
X146313142Y-97788220D01*
X149286858Y-97788220D01*
X149583979Y-97758956D01*
X149965222Y-97643307D01*
X150316578Y-97455504D01*
X150624543Y-97202763D01*
X150877284Y-96894798D01*
X151065087Y-96543442D01*
X151180736Y-96162199D01*
X151219786Y-95765720D01*
X151180736Y-95369241D01*
X151065087Y-94987998D01*
X150877284Y-94636642D01*
X150624543Y-94328677D01*
X150316578Y-94075936D01*
X149965222Y-93888133D01*
X149583979Y-93772484D01*
X149286858Y-93743220D01*
X146313142Y-93743220D01*
X146016021Y-93772484D01*
X145634778Y-93888133D01*
X145283422Y-94075936D01*
X144975457Y-94328677D01*
X144722716Y-94636642D01*
X144534913Y-94987998D01*
X144419264Y-95369241D01*
X144380214Y-95765720D01*
X137348500Y-95765720D01*
X137348500Y-91065720D01*
X144380214Y-91065720D01*
X144419264Y-91462199D01*
X144534913Y-91843442D01*
X144722716Y-92194798D01*
X144975457Y-92502763D01*
X145283422Y-92755504D01*
X145634778Y-92943307D01*
X146016021Y-93058956D01*
X146313142Y-93088220D01*
X149286858Y-93088220D01*
X149583979Y-93058956D01*
X149965222Y-92943307D01*
X150316578Y-92755504D01*
X150624543Y-92502763D01*
X150877284Y-92194798D01*
X151065087Y-91843442D01*
X151180736Y-91462199D01*
X151219786Y-91065720D01*
X151180736Y-90669241D01*
X151065087Y-90287998D01*
X150877284Y-89936642D01*
X150624543Y-89628677D01*
X150316578Y-89375936D01*
X149965222Y-89188133D01*
X149583979Y-89072484D01*
X149286858Y-89043220D01*
X148560000Y-89043220D01*
X148560000Y-84298172D01*
X148650000Y-84298172D01*
X148774482Y-84285912D01*
X148894180Y-84249602D01*
X149004494Y-84190637D01*
X149101185Y-84111285D01*
X149180537Y-84014594D01*
X149239502Y-83904280D01*
X149275812Y-83784582D01*
X149288072Y-83660100D01*
X149288072Y-81960100D01*
X149275812Y-81835618D01*
X149239502Y-81715920D01*
X149180537Y-81605606D01*
X149101185Y-81508915D01*
X149004494Y-81429563D01*
X148894180Y-81370598D01*
X148774482Y-81334288D01*
X148650000Y-81322028D01*
X146950000Y-81322028D01*
X146825518Y-81334288D01*
X146705820Y-81370598D01*
X146595506Y-81429563D01*
X146498815Y-81508915D01*
X146419463Y-81605606D01*
X146360498Y-81715920D01*
X146324188Y-81835618D01*
X146311928Y-81960100D01*
X146311928Y-83660100D01*
X146324188Y-83784582D01*
X146360498Y-83904280D01*
X146419463Y-84014594D01*
X146498815Y-84111285D01*
X146595506Y-84190637D01*
X146705820Y-84249602D01*
X146825518Y-84285912D01*
X146950000Y-84298172D01*
X147040000Y-84298172D01*
X147040001Y-89043220D01*
X146313142Y-89043220D01*
X146016021Y-89072484D01*
X145634778Y-89188133D01*
X145283422Y-89375936D01*
X144975457Y-89628677D01*
X144722716Y-89936642D01*
X144534913Y-90287998D01*
X144419264Y-90669241D01*
X144380214Y-91065720D01*
X137348500Y-91065720D01*
X137348500Y-78995822D01*
X137352176Y-78958499D01*
X137348500Y-78921176D01*
X137348500Y-78921167D01*
X137337503Y-78809514D01*
X137294046Y-78666253D01*
X137292576Y-78663503D01*
X137223474Y-78534223D01*
X137152299Y-78447497D01*
X137128501Y-78418499D01*
X137099504Y-78394702D01*
X135230708Y-76525906D01*
X135244236Y-76481309D01*
X135271943Y-76200000D01*
X135244236Y-75918691D01*
X135162182Y-75648192D01*
X135028932Y-75398899D01*
X134849608Y-75180392D01*
X134631101Y-75001068D01*
X134381808Y-74867818D01*
X134111309Y-74785764D01*
X133900492Y-74765000D01*
X133759508Y-74765000D01*
X133548691Y-74785764D01*
X133278192Y-74867818D01*
X133028899Y-75001068D01*
X132810392Y-75180392D01*
X132631068Y-75398899D01*
X132497818Y-75648192D01*
X132415764Y-75918691D01*
X132388057Y-76200000D01*
X132415764Y-76481309D01*
X132497818Y-76751808D01*
X132631068Y-77001101D01*
X132810392Y-77219608D01*
X133028899Y-77398932D01*
X133278192Y-77532182D01*
X133548691Y-77614236D01*
X133759508Y-77635000D01*
X133900492Y-77635000D01*
X134111309Y-77614236D01*
X134155906Y-77600708D01*
X135828500Y-79273302D01*
X135828501Y-105217116D01*
X127789317Y-113256302D01*
X127766184Y-113068592D01*
X127643568Y-112697304D01*
X127505044Y-112438144D01*
X127204838Y-112300187D01*
X125999605Y-113505420D01*
X127204838Y-114710653D01*
X127487140Y-114580924D01*
X127487141Y-160229917D01*
X127204838Y-160100187D01*
X125999605Y-161305420D01*
X127204838Y-162510653D01*
X127487141Y-162380923D01*
X127487141Y-165142348D01*
X127395000Y-165142348D01*
X127270518Y-165154608D01*
X127150820Y-165190918D01*
X127040506Y-165249883D01*
X126943815Y-165329235D01*
X126864463Y-165425926D01*
X126805498Y-165536240D01*
X126769188Y-165655938D01*
X126756928Y-165780420D01*
X126756928Y-167530420D01*
X126769188Y-167654902D01*
X126805498Y-167774600D01*
X126864463Y-167884914D01*
X126943815Y-167981605D01*
X127040506Y-168060957D01*
X127150820Y-168119922D01*
X127270518Y-168156232D01*
X127395000Y-168168492D01*
X129145000Y-168168492D01*
X129160825Y-168166933D01*
X128357339Y-168970420D01*
X126885542Y-168970420D01*
X124005880Y-166090759D01*
X124005880Y-162690258D01*
X124614767Y-162690258D01*
X124752724Y-162990464D01*
X125101967Y-163166302D01*
X125478804Y-163270627D01*
X125868753Y-163299429D01*
X126256828Y-163251604D01*
X126628116Y-163128988D01*
X126887276Y-162990464D01*
X127025233Y-162690258D01*
X125820000Y-161485025D01*
X124614767Y-162690258D01*
X124005880Y-162690258D01*
X124005880Y-162131212D01*
X124134956Y-162372696D01*
X124435162Y-162510653D01*
X125640395Y-161305420D01*
X124435162Y-160100187D01*
X124134956Y-160238144D01*
X124005880Y-160494510D01*
X124005880Y-159920582D01*
X124614767Y-159920582D01*
X125820000Y-161125815D01*
X127025233Y-159920582D01*
X126887276Y-159620376D01*
X126538033Y-159444538D01*
X126161196Y-159340213D01*
X125771247Y-159311411D01*
X125383172Y-159359236D01*
X125011884Y-159481852D01*
X124752724Y-159620376D01*
X124614767Y-159920582D01*
X124005880Y-159920582D01*
X124005880Y-114890258D01*
X124614767Y-114890258D01*
X124752724Y-115190464D01*
X125101967Y-115366302D01*
X125478804Y-115470627D01*
X125868753Y-115499429D01*
X126256828Y-115451604D01*
X126628116Y-115328988D01*
X126887276Y-115190464D01*
X127025233Y-114890258D01*
X125820000Y-113685025D01*
X124614767Y-114890258D01*
X124005880Y-114890258D01*
X124005880Y-114331212D01*
X124134956Y-114572696D01*
X124435162Y-114710653D01*
X125640395Y-113505420D01*
X124435162Y-112300187D01*
X124134956Y-112438144D01*
X124005880Y-112694510D01*
X124005880Y-112120582D01*
X124614767Y-112120582D01*
X125820000Y-113325815D01*
X127025233Y-112120582D01*
X126887276Y-111820376D01*
X126538033Y-111644538D01*
X126161196Y-111540213D01*
X125771247Y-111511411D01*
X125383172Y-111559236D01*
X125011884Y-111681852D01*
X124752724Y-111820376D01*
X124614767Y-112120582D01*
X124005880Y-112120582D01*
X124005880Y-109201660D01*
X127403365Y-109201660D01*
X127484025Y-109453288D01*
X127752329Y-109581687D01*
X128040526Y-109655275D01*
X128337543Y-109671224D01*
X128631963Y-109628921D01*
X128912474Y-109529992D01*
X129055975Y-109453288D01*
X129136635Y-109201660D01*
X128270000Y-108335025D01*
X127403365Y-109201660D01*
X124005880Y-109201660D01*
X124005880Y-108222963D01*
X126754196Y-108222963D01*
X126796499Y-108517383D01*
X126895428Y-108797894D01*
X126972132Y-108941395D01*
X127223760Y-109022055D01*
X128090395Y-108155420D01*
X128449605Y-108155420D01*
X129316240Y-109022055D01*
X129567868Y-108941395D01*
X129696267Y-108673091D01*
X129769855Y-108384894D01*
X129785804Y-108087877D01*
X129743501Y-107793457D01*
X129644572Y-107512946D01*
X129567868Y-107369445D01*
X129316240Y-107288785D01*
X128449605Y-108155420D01*
X128090395Y-108155420D01*
X127223760Y-107288785D01*
X126972132Y-107369445D01*
X126843733Y-107637749D01*
X126770145Y-107925946D01*
X126754196Y-108222963D01*
X124005880Y-108222963D01*
X124005880Y-107109180D01*
X127403365Y-107109180D01*
X128270000Y-107975815D01*
X129136635Y-107109180D01*
X129055975Y-106857552D01*
X128787671Y-106729153D01*
X128499474Y-106655565D01*
X128202457Y-106639616D01*
X127908037Y-106681919D01*
X127627526Y-106780848D01*
X127484025Y-106857552D01*
X127403365Y-107109180D01*
X124005880Y-107109180D01*
X124005880Y-102803801D01*
X125583962Y-101225720D01*
X126749537Y-101225720D01*
X126754913Y-101243442D01*
X126942716Y-101594798D01*
X127195457Y-101902763D01*
X127503422Y-102155504D01*
X127854778Y-102343307D01*
X128236021Y-102458956D01*
X128533142Y-102488220D01*
X131506858Y-102488220D01*
X131803979Y-102458956D01*
X132185222Y-102343307D01*
X132536578Y-102155504D01*
X132844543Y-101902763D01*
X133097284Y-101594798D01*
X133285087Y-101243442D01*
X133400736Y-100862199D01*
X133439786Y-100465720D01*
X133400736Y-100069241D01*
X133285087Y-99687998D01*
X133097284Y-99336642D01*
X132844543Y-99028677D01*
X132536578Y-98775936D01*
X132185222Y-98588133D01*
X131803979Y-98472484D01*
X131506858Y-98443220D01*
X128533142Y-98443220D01*
X128236021Y-98472484D01*
X127854778Y-98588133D01*
X127503422Y-98775936D01*
X127195457Y-99028677D01*
X126942716Y-99336642D01*
X126754913Y-99687998D01*
X126749537Y-99705720D01*
X125306482Y-99705720D01*
X125269159Y-99702044D01*
X125231837Y-99705720D01*
X125231827Y-99705720D01*
X125120174Y-99716717D01*
X124976913Y-99760174D01*
X124844883Y-99830746D01*
X124761243Y-99899388D01*
X124729159Y-99925719D01*
X124705361Y-99954717D01*
X122734878Y-101925201D01*
X122705880Y-101948999D01*
X122682082Y-101977997D01*
X122682081Y-101977998D01*
X122610906Y-102064724D01*
X122540334Y-102196754D01*
X122496878Y-102340015D01*
X122482204Y-102489000D01*
X120005501Y-102489000D01*
X120005501Y-78967822D01*
X120009177Y-78930499D01*
X120005501Y-78893176D01*
X120005501Y-78893167D01*
X119994504Y-78781514D01*
X119951047Y-78638253D01*
X119895441Y-78534223D01*
X119880475Y-78506223D01*
X119809300Y-78419497D01*
X119785502Y-78390499D01*
X119756504Y-78366701D01*
X117915709Y-76525906D01*
X117929237Y-76481309D01*
X117956944Y-76200000D01*
X117929237Y-75918691D01*
X117847183Y-75648192D01*
X117713933Y-75398899D01*
X117534609Y-75180392D01*
X117316102Y-75001068D01*
X117066809Y-74867818D01*
X116796310Y-74785764D01*
X116585493Y-74765000D01*
X116444509Y-74765000D01*
X116233692Y-74785764D01*
X115963193Y-74867818D01*
X115713900Y-75001068D01*
X115495393Y-75180392D01*
X115316069Y-75398899D01*
X115182819Y-75648192D01*
X115100765Y-75918691D01*
X115073058Y-76200000D01*
X115100765Y-76481309D01*
X115182819Y-76751808D01*
X115316069Y-77001101D01*
X115495393Y-77219608D01*
X115713900Y-77398932D01*
X115963193Y-77532182D01*
X116233692Y-77614236D01*
X116444509Y-77635000D01*
X116585493Y-77635000D01*
X116796310Y-77614236D01*
X116840907Y-77600708D01*
X118485502Y-79245303D01*
X118485501Y-111157475D01*
X118360838Y-111100187D01*
X117155605Y-112305420D01*
X118360838Y-113510653D01*
X118485501Y-113453365D01*
X118485501Y-116888297D01*
X118060309Y-117313490D01*
X118017141Y-117348917D01*
X117993343Y-117377915D01*
X110421139Y-124950120D01*
X110392141Y-124973918D01*
X110368343Y-125002916D01*
X110368342Y-125002917D01*
X110297167Y-125089643D01*
X110226595Y-125221673D01*
X110183139Y-125364934D01*
X110168465Y-125513919D01*
X110172142Y-125551252D01*
X110172141Y-160197289D01*
X109960838Y-160100187D01*
X108755605Y-161305420D01*
X109960838Y-162510653D01*
X110172141Y-162413551D01*
X110172141Y-165142348D01*
X110151000Y-165142348D01*
X110026518Y-165154608D01*
X109906820Y-165190918D01*
X109796506Y-165249883D01*
X109699815Y-165329235D01*
X109620463Y-165425926D01*
X109561498Y-165536240D01*
X109525188Y-165655938D01*
X109512928Y-165780420D01*
X109512928Y-167530420D01*
X109525188Y-167654902D01*
X109561498Y-167774600D01*
X109620463Y-167884914D01*
X109699815Y-167981605D01*
X109796506Y-168060957D01*
X109906820Y-168119922D01*
X110026518Y-168156232D01*
X110151000Y-168168492D01*
X111844268Y-168168492D01*
X110737540Y-169275220D01*
X109390022Y-169275220D01*
X106170000Y-166055199D01*
X106170000Y-162690258D01*
X107370767Y-162690258D01*
X107508724Y-162990464D01*
X107857967Y-163166302D01*
X108234804Y-163270627D01*
X108624753Y-163299429D01*
X109012828Y-163251604D01*
X109384116Y-163128988D01*
X109643276Y-162990464D01*
X109781233Y-162690258D01*
X108576000Y-161485025D01*
X107370767Y-162690258D01*
X106170000Y-162690258D01*
X106170000Y-161354173D01*
X106581991Y-161354173D01*
X106629816Y-161742248D01*
X106752432Y-162113536D01*
X106890956Y-162372696D01*
X107191162Y-162510653D01*
X108396395Y-161305420D01*
X107191162Y-160100187D01*
X106890956Y-160238144D01*
X106715118Y-160587387D01*
X106610793Y-160964224D01*
X106581991Y-161354173D01*
X106170000Y-161354173D01*
X106170000Y-159920582D01*
X107370767Y-159920582D01*
X108576000Y-161125815D01*
X109781233Y-159920582D01*
X109643276Y-159620376D01*
X109294033Y-159444538D01*
X108917196Y-159340213D01*
X108527247Y-159311411D01*
X108139172Y-159359236D01*
X107767884Y-159481852D01*
X107508724Y-159620376D01*
X107370767Y-159920582D01*
X106170000Y-159920582D01*
X106170000Y-114890258D01*
X107370767Y-114890258D01*
X107508724Y-115190464D01*
X107857967Y-115366302D01*
X108234804Y-115470627D01*
X108624753Y-115499429D01*
X109012828Y-115451604D01*
X109384116Y-115328988D01*
X109643276Y-115190464D01*
X109781233Y-114890258D01*
X108576000Y-113685025D01*
X107370767Y-114890258D01*
X106170000Y-114890258D01*
X106170000Y-113554173D01*
X106581991Y-113554173D01*
X106629816Y-113942248D01*
X106752432Y-114313536D01*
X106890956Y-114572696D01*
X107191162Y-114710653D01*
X108396395Y-113505420D01*
X108755605Y-113505420D01*
X109960838Y-114710653D01*
X110261044Y-114572696D01*
X110436882Y-114223453D01*
X110541207Y-113846616D01*
X110552755Y-113690258D01*
X115770767Y-113690258D01*
X115908724Y-113990464D01*
X116257967Y-114166302D01*
X116634804Y-114270627D01*
X117024753Y-114299429D01*
X117412828Y-114251604D01*
X117784116Y-114128988D01*
X118043276Y-113990464D01*
X118181233Y-113690258D01*
X116976000Y-112485025D01*
X115770767Y-113690258D01*
X110552755Y-113690258D01*
X110570009Y-113456667D01*
X110522184Y-113068592D01*
X110399568Y-112697304D01*
X110261044Y-112438144D01*
X110078317Y-112354173D01*
X114981991Y-112354173D01*
X115029816Y-112742248D01*
X115152432Y-113113536D01*
X115290956Y-113372696D01*
X115591162Y-113510653D01*
X116796395Y-112305420D01*
X115591162Y-111100187D01*
X115290956Y-111238144D01*
X115115118Y-111587387D01*
X115010793Y-111964224D01*
X114981991Y-112354173D01*
X110078317Y-112354173D01*
X109960838Y-112300187D01*
X108755605Y-113505420D01*
X108396395Y-113505420D01*
X107191162Y-112300187D01*
X106890956Y-112438144D01*
X106715118Y-112787387D01*
X106610793Y-113164224D01*
X106581991Y-113554173D01*
X106170000Y-113554173D01*
X106170000Y-112120582D01*
X107370767Y-112120582D01*
X108576000Y-113325815D01*
X109781233Y-112120582D01*
X109643276Y-111820376D01*
X109294033Y-111644538D01*
X108917196Y-111540213D01*
X108527247Y-111511411D01*
X108139172Y-111559236D01*
X107767884Y-111681852D01*
X107508724Y-111820376D01*
X107370767Y-112120582D01*
X106170000Y-112120582D01*
X106170000Y-110920582D01*
X115770767Y-110920582D01*
X116976000Y-112125815D01*
X118181233Y-110920582D01*
X118043276Y-110620376D01*
X117694033Y-110444538D01*
X117317196Y-110340213D01*
X116927247Y-110311411D01*
X116539172Y-110359236D01*
X116167884Y-110481852D01*
X115908724Y-110620376D01*
X115770767Y-110920582D01*
X106170000Y-110920582D01*
X106170000Y-109201660D01*
X110159365Y-109201660D01*
X110240025Y-109453288D01*
X110508329Y-109581687D01*
X110796526Y-109655275D01*
X111093543Y-109671224D01*
X111387963Y-109628921D01*
X111668474Y-109529992D01*
X111811975Y-109453288D01*
X111892635Y-109201660D01*
X111026000Y-108335025D01*
X110159365Y-109201660D01*
X106170000Y-109201660D01*
X106170000Y-108222963D01*
X109510196Y-108222963D01*
X109552499Y-108517383D01*
X109651428Y-108797894D01*
X109728132Y-108941395D01*
X109979760Y-109022055D01*
X110846395Y-108155420D01*
X111205605Y-108155420D01*
X112072240Y-109022055D01*
X112323868Y-108941395D01*
X112452267Y-108673091D01*
X112525855Y-108384894D01*
X112541804Y-108087877D01*
X112499501Y-107793457D01*
X112400572Y-107512946D01*
X112323868Y-107369445D01*
X112072240Y-107288785D01*
X111205605Y-108155420D01*
X110846395Y-108155420D01*
X109979760Y-107288785D01*
X109728132Y-107369445D01*
X109599733Y-107637749D01*
X109526145Y-107925946D01*
X109510196Y-108222963D01*
X106170000Y-108222963D01*
X106170000Y-107109180D01*
X110159365Y-107109180D01*
X111026000Y-107975815D01*
X111892635Y-107109180D01*
X111811975Y-106857552D01*
X111543671Y-106729153D01*
X111255474Y-106655565D01*
X110958457Y-106639616D01*
X110664037Y-106681919D01*
X110383526Y-106780848D01*
X110240025Y-106857552D01*
X110159365Y-107109180D01*
X106170000Y-107109180D01*
X106170000Y-102803801D01*
X107748082Y-101225720D01*
X109434538Y-101225720D01*
X109439914Y-101243442D01*
X109627717Y-101594798D01*
X109880458Y-101902763D01*
X110188423Y-102155504D01*
X110539779Y-102343307D01*
X110921022Y-102458956D01*
X111218143Y-102488220D01*
X114191859Y-102488220D01*
X114488980Y-102458956D01*
X114870223Y-102343307D01*
X115221579Y-102155504D01*
X115529544Y-101902763D01*
X115782285Y-101594798D01*
X115970088Y-101243442D01*
X116085737Y-100862199D01*
X116124787Y-100465720D01*
X116085737Y-100069241D01*
X115970088Y-99687998D01*
X115782285Y-99336642D01*
X115529544Y-99028677D01*
X115221579Y-98775936D01*
X114870223Y-98588133D01*
X114488980Y-98472484D01*
X114191859Y-98443220D01*
X111218143Y-98443220D01*
X110921022Y-98472484D01*
X110539779Y-98588133D01*
X110188423Y-98775936D01*
X109880458Y-99028677D01*
X109627717Y-99336642D01*
X109439914Y-99687998D01*
X109434538Y-99705720D01*
X107470602Y-99705720D01*
X107433279Y-99702044D01*
X107395957Y-99705720D01*
X107395947Y-99705720D01*
X107284294Y-99716717D01*
X107141033Y-99760174D01*
X107009003Y-99830746D01*
X106925363Y-99899388D01*
X106893279Y-99925719D01*
X106869481Y-99954717D01*
X104898998Y-101925201D01*
X104870000Y-101948999D01*
X104846202Y-101977997D01*
X104846201Y-101977998D01*
X104775026Y-102064724D01*
X104704454Y-102196754D01*
X104660998Y-102340015D01*
X104646324Y-102489000D01*
X104545000Y-102489000D01*
X104545000Y-70199039D01*
X107513097Y-70199039D01*
X107553755Y-70333087D01*
X107673964Y-70587420D01*
X107841482Y-70813414D01*
X108049870Y-71002385D01*
X108291120Y-71147070D01*
X108555961Y-71241909D01*
X108778001Y-71120624D01*
X108778001Y-69977000D01*
X107635086Y-69977000D01*
X107513097Y-70199039D01*
X104545000Y-70199039D01*
X104545000Y-57505600D01*
X104915564Y-57505600D01*
X104919241Y-57542932D01*
X104919240Y-64112917D01*
X104915564Y-64150240D01*
X104919240Y-64187562D01*
X104919240Y-64187572D01*
X104930237Y-64299225D01*
X104967177Y-64421001D01*
X104973694Y-64442486D01*
X105044266Y-64574516D01*
X105082426Y-64621014D01*
X105139239Y-64690241D01*
X105168243Y-64714044D01*
X107475201Y-67021003D01*
X107489773Y-67038759D01*
X107463058Y-67310000D01*
X107490765Y-67591309D01*
X107572819Y-67861808D01*
X107706069Y-68111101D01*
X107885393Y-68329608D01*
X108103900Y-68508932D01*
X108241683Y-68582579D01*
X108049870Y-68697615D01*
X107841482Y-68886586D01*
X107673964Y-69112580D01*
X107553755Y-69366913D01*
X107513097Y-69500961D01*
X107635086Y-69723000D01*
X108778001Y-69723000D01*
X108778001Y-69703000D01*
X109032001Y-69703000D01*
X109032001Y-69723000D01*
X109052001Y-69723000D01*
X109052001Y-69977000D01*
X109032001Y-69977000D01*
X109032001Y-71120624D01*
X109254041Y-71241909D01*
X109518882Y-71147070D01*
X109760132Y-71002385D01*
X109968520Y-70813414D01*
X110136038Y-70587420D01*
X110256247Y-70333087D01*
X110283721Y-70242507D01*
X110283721Y-70957597D01*
X106745583Y-74495736D01*
X106716579Y-74519539D01*
X106661451Y-74586714D01*
X106621606Y-74635264D01*
X106552260Y-74765000D01*
X106551034Y-74767294D01*
X106507577Y-74910555D01*
X106496580Y-75022208D01*
X106496580Y-75022218D01*
X106492904Y-75059540D01*
X106496580Y-75096862D01*
X106496581Y-91667466D01*
X106492904Y-91704799D01*
X106496581Y-91742132D01*
X106499451Y-91771266D01*
X106507578Y-91853784D01*
X106551034Y-91997045D01*
X106621606Y-92129075D01*
X106675544Y-92194798D01*
X106716580Y-92244800D01*
X106745578Y-92268598D01*
X109448644Y-94971665D01*
X109439914Y-94987998D01*
X109324265Y-95369241D01*
X109285215Y-95765720D01*
X109324265Y-96162199D01*
X109439914Y-96543442D01*
X109627717Y-96894798D01*
X109880458Y-97202763D01*
X110188423Y-97455504D01*
X110539779Y-97643307D01*
X110921022Y-97758956D01*
X111218143Y-97788220D01*
X114191859Y-97788220D01*
X114488980Y-97758956D01*
X114870223Y-97643307D01*
X115221579Y-97455504D01*
X115529544Y-97202763D01*
X115782285Y-96894798D01*
X115970088Y-96543442D01*
X116085737Y-96162199D01*
X116124787Y-95765720D01*
X116085737Y-95369241D01*
X115970088Y-94987998D01*
X115782285Y-94636642D01*
X115529544Y-94328677D01*
X115221579Y-94075936D01*
X114870223Y-93888133D01*
X114488980Y-93772484D01*
X114191859Y-93743220D01*
X111218143Y-93743220D01*
X110921022Y-93772484D01*
X110539779Y-93888133D01*
X110523446Y-93896863D01*
X108016580Y-91389998D01*
X108016580Y-91065720D01*
X109285215Y-91065720D01*
X109324265Y-91462199D01*
X109439914Y-91843442D01*
X109627717Y-92194798D01*
X109880458Y-92502763D01*
X110188423Y-92755504D01*
X110539779Y-92943307D01*
X110921022Y-93058956D01*
X111218143Y-93088220D01*
X114191859Y-93088220D01*
X114488980Y-93058956D01*
X114870223Y-92943307D01*
X115221579Y-92755504D01*
X115529544Y-92502763D01*
X115782285Y-92194798D01*
X115970088Y-91843442D01*
X116085737Y-91462199D01*
X116124787Y-91065720D01*
X116085737Y-90669241D01*
X115970088Y-90287998D01*
X115782285Y-89936642D01*
X115529544Y-89628677D01*
X115221579Y-89375936D01*
X114870223Y-89188133D01*
X114488980Y-89072484D01*
X114191859Y-89043220D01*
X113465001Y-89043220D01*
X113465001Y-84298172D01*
X113555001Y-84298172D01*
X113679483Y-84285912D01*
X113799181Y-84249602D01*
X113909495Y-84190637D01*
X114006186Y-84111285D01*
X114085538Y-84014594D01*
X114144503Y-83904280D01*
X114180813Y-83784582D01*
X114193073Y-83660100D01*
X114193073Y-81960100D01*
X114180813Y-81835618D01*
X114144503Y-81715920D01*
X114085538Y-81605606D01*
X114006186Y-81508915D01*
X113909495Y-81429563D01*
X113799181Y-81370598D01*
X113679483Y-81334288D01*
X113555001Y-81322028D01*
X111855001Y-81322028D01*
X111730519Y-81334288D01*
X111610821Y-81370598D01*
X111500507Y-81429563D01*
X111403816Y-81508915D01*
X111324464Y-81605606D01*
X111265499Y-81715920D01*
X111229189Y-81835618D01*
X111216929Y-81960100D01*
X111216929Y-83660100D01*
X111229189Y-83784582D01*
X111265499Y-83904280D01*
X111324464Y-84014594D01*
X111403816Y-84111285D01*
X111500507Y-84190637D01*
X111610821Y-84249602D01*
X111730519Y-84285912D01*
X111855001Y-84298172D01*
X111945001Y-84298172D01*
X111945002Y-89043220D01*
X111218143Y-89043220D01*
X110921022Y-89072484D01*
X110539779Y-89188133D01*
X110188423Y-89375936D01*
X109880458Y-89628677D01*
X109627717Y-89936642D01*
X109439914Y-90287998D01*
X109324265Y-90669241D01*
X109285215Y-91065720D01*
X108016580Y-91065720D01*
X108016580Y-77338917D01*
X108215274Y-77471680D01*
X108476427Y-77579853D01*
X108753666Y-77635000D01*
X109036336Y-77635000D01*
X109313575Y-77579853D01*
X109574728Y-77471680D01*
X109809760Y-77314637D01*
X110009638Y-77114759D01*
X110166681Y-76879727D01*
X110274854Y-76618574D01*
X110330001Y-76341335D01*
X110330001Y-76058665D01*
X110293689Y-75876113D01*
X113033003Y-73136800D01*
X113062001Y-73113002D01*
X113156974Y-72997277D01*
X113227546Y-72865248D01*
X113271003Y-72721987D01*
X113282000Y-72610334D01*
X113282000Y-72610325D01*
X113285676Y-72573002D01*
X113282000Y-72535679D01*
X113282000Y-70141947D01*
X113328855Y-70199039D01*
X113368840Y-70247761D01*
X113397838Y-70271559D01*
X121071100Y-77944822D01*
X121071101Y-88926988D01*
X121067424Y-88964320D01*
X121082098Y-89113305D01*
X121125554Y-89256566D01*
X121196126Y-89388596D01*
X121267301Y-89475322D01*
X121291100Y-89504321D01*
X121320098Y-89528119D01*
X126763643Y-94971665D01*
X126754913Y-94987998D01*
X126639264Y-95369241D01*
X126600214Y-95765720D01*
X126639264Y-96162199D01*
X126754913Y-96543442D01*
X126942716Y-96894798D01*
X127195457Y-97202763D01*
X127503422Y-97455504D01*
X127854778Y-97643307D01*
X128236021Y-97758956D01*
X128533142Y-97788220D01*
X131506858Y-97788220D01*
X131803979Y-97758956D01*
X132185222Y-97643307D01*
X132536578Y-97455504D01*
X132844543Y-97202763D01*
X133097284Y-96894798D01*
X133285087Y-96543442D01*
X133400736Y-96162199D01*
X133439786Y-95765720D01*
X133400736Y-95369241D01*
X133285087Y-94987998D01*
X133097284Y-94636642D01*
X132844543Y-94328677D01*
X132536578Y-94075936D01*
X132185222Y-93888133D01*
X131803979Y-93772484D01*
X131506858Y-93743220D01*
X128533142Y-93743220D01*
X128236021Y-93772484D01*
X127854778Y-93888133D01*
X127838445Y-93896863D01*
X125007302Y-91065720D01*
X126600214Y-91065720D01*
X126639264Y-91462199D01*
X126754913Y-91843442D01*
X126942716Y-92194798D01*
X127195457Y-92502763D01*
X127503422Y-92755504D01*
X127854778Y-92943307D01*
X128236021Y-93058956D01*
X128533142Y-93088220D01*
X131506858Y-93088220D01*
X131803979Y-93058956D01*
X132185222Y-92943307D01*
X132536578Y-92755504D01*
X132844543Y-92502763D01*
X133097284Y-92194798D01*
X133285087Y-91843442D01*
X133400736Y-91462199D01*
X133439786Y-91065720D01*
X133400736Y-90669241D01*
X133285087Y-90287998D01*
X133097284Y-89936642D01*
X132844543Y-89628677D01*
X132536578Y-89375936D01*
X132185222Y-89188133D01*
X131803979Y-89072484D01*
X131506858Y-89043220D01*
X130780000Y-89043220D01*
X130780000Y-84298172D01*
X130870000Y-84298172D01*
X130994482Y-84285912D01*
X131114180Y-84249602D01*
X131224494Y-84190637D01*
X131321185Y-84111285D01*
X131400537Y-84014594D01*
X131459502Y-83904280D01*
X131495812Y-83784582D01*
X131508072Y-83660100D01*
X131508072Y-81960100D01*
X131495812Y-81835618D01*
X131459502Y-81715920D01*
X131400537Y-81605606D01*
X131321185Y-81508915D01*
X131224494Y-81429563D01*
X131114180Y-81370598D01*
X130994482Y-81334288D01*
X130870000Y-81322028D01*
X129170000Y-81322028D01*
X129045518Y-81334288D01*
X128925820Y-81370598D01*
X128815506Y-81429563D01*
X128718815Y-81508915D01*
X128639463Y-81605606D01*
X128580498Y-81715920D01*
X128544188Y-81835618D01*
X128531928Y-81960100D01*
X128531928Y-83660100D01*
X128544188Y-83784582D01*
X128580498Y-83904280D01*
X128639463Y-84014594D01*
X128718815Y-84111285D01*
X128815506Y-84190637D01*
X128925820Y-84249602D01*
X129045518Y-84285912D01*
X129170000Y-84298172D01*
X129260001Y-84298172D01*
X129260000Y-89043220D01*
X128533142Y-89043220D01*
X128236021Y-89072484D01*
X127854778Y-89188133D01*
X127503422Y-89375936D01*
X127195457Y-89628677D01*
X126942716Y-89936642D01*
X126754913Y-90287998D01*
X126639264Y-90669241D01*
X126600214Y-91065720D01*
X125007302Y-91065720D01*
X122591100Y-88649519D01*
X122591100Y-77667353D01*
X122594777Y-77630020D01*
X122580103Y-77481034D01*
X122536646Y-77337773D01*
X122466074Y-77205744D01*
X122394899Y-77119017D01*
X122371101Y-77090019D01*
X122342104Y-77066222D01*
X116560881Y-71285000D01*
X116595493Y-71285000D01*
X116806310Y-71264236D01*
X117076809Y-71182182D01*
X117326102Y-71048932D01*
X117544609Y-70869608D01*
X117723933Y-70651101D01*
X117745902Y-70610000D01*
X123627678Y-70610000D01*
X123665000Y-70613676D01*
X123702322Y-70610000D01*
X123702333Y-70610000D01*
X123813986Y-70599003D01*
X123957247Y-70555546D01*
X124089276Y-70484974D01*
X124205001Y-70390001D01*
X124228804Y-70360997D01*
X127119005Y-67470797D01*
X127193889Y-67493513D01*
X127412050Y-67515000D01*
X127557950Y-67515000D01*
X127776111Y-67493513D01*
X128056034Y-67408599D01*
X128314014Y-67270706D01*
X128540134Y-67085134D01*
X128725706Y-66859014D01*
X128755000Y-66804209D01*
X128784294Y-66859014D01*
X128969866Y-67085134D01*
X129195986Y-67270706D01*
X129453966Y-67408599D01*
X129733889Y-67493513D01*
X129952050Y-67515000D01*
X130097950Y-67515000D01*
X130316111Y-67493513D01*
X130596034Y-67408599D01*
X130854014Y-67270706D01*
X131080134Y-67085134D01*
X131265706Y-66859014D01*
X131300201Y-66794477D01*
X131369822Y-66911355D01*
X131564731Y-67127588D01*
X131798080Y-67301641D01*
X132060901Y-67426825D01*
X132208110Y-67471476D01*
X132438000Y-67350155D01*
X132438000Y-66157000D01*
X132418000Y-66157000D01*
X132418000Y-65903000D01*
X132438000Y-65903000D01*
X132438000Y-65883000D01*
X132692000Y-65883000D01*
X132692000Y-65903000D01*
X132712000Y-65903000D01*
X132712000Y-66157000D01*
X132692000Y-66157000D01*
X132692000Y-67350155D01*
X132921890Y-67471476D01*
X133069099Y-67426825D01*
X133331920Y-67301641D01*
X133565269Y-67127588D01*
X133760178Y-66911355D01*
X133829799Y-66794477D01*
X133864294Y-66859014D01*
X134049866Y-67085134D01*
X134159824Y-67175374D01*
X126533887Y-74801312D01*
X126351335Y-74765000D01*
X126068665Y-74765000D01*
X125791426Y-74820147D01*
X125530273Y-74928320D01*
X125295241Y-75085363D01*
X125095363Y-75285241D01*
X124938320Y-75520273D01*
X124830147Y-75781426D01*
X124775000Y-76058665D01*
X124775000Y-76341335D01*
X124830147Y-76618574D01*
X124938320Y-76879727D01*
X125095363Y-77114759D01*
X125295241Y-77314637D01*
X125530273Y-77471680D01*
X125791426Y-77579853D01*
X126068665Y-77635000D01*
X126351335Y-77635000D01*
X126628574Y-77579853D01*
X126889727Y-77471680D01*
X127124759Y-77314637D01*
X127324637Y-77114759D01*
X127481680Y-76879727D01*
X127589853Y-76618574D01*
X127645000Y-76341335D01*
X127645000Y-76058665D01*
X127608688Y-75876113D01*
X135100000Y-68384801D01*
X142591312Y-75876114D01*
X142555000Y-76058665D01*
X142555000Y-76341335D01*
X142610147Y-76618574D01*
X142718320Y-76879727D01*
X142875363Y-77114759D01*
X143075241Y-77314637D01*
X143310273Y-77471680D01*
X143571426Y-77579853D01*
X143848665Y-77635000D01*
X144131335Y-77635000D01*
X144408574Y-77579853D01*
X144669727Y-77471680D01*
X144904759Y-77314637D01*
X145104637Y-77114759D01*
X145261680Y-76879727D01*
X145369853Y-76618574D01*
X145425000Y-76341335D01*
X145425000Y-76058665D01*
X145388688Y-75876113D01*
X148212003Y-73052799D01*
X148241001Y-73029001D01*
X148335974Y-72913276D01*
X148406546Y-72781247D01*
X148450003Y-72637986D01*
X148461000Y-72526333D01*
X148464677Y-72489000D01*
X148461000Y-72451667D01*
X148461000Y-66354801D01*
X150192506Y-64623295D01*
X150178057Y-64770000D01*
X150205764Y-65051309D01*
X150287818Y-65321808D01*
X150421068Y-65571101D01*
X150600392Y-65789608D01*
X150818899Y-65968932D01*
X150951858Y-66040000D01*
X150818899Y-66111068D01*
X150600392Y-66290392D01*
X150421068Y-66508899D01*
X150287818Y-66758192D01*
X150205764Y-67028691D01*
X150178057Y-67310000D01*
X150205764Y-67591309D01*
X150287818Y-67861808D01*
X150421068Y-68111101D01*
X150600392Y-68329608D01*
X150818899Y-68508932D01*
X150951858Y-68580000D01*
X150818899Y-68651068D01*
X150600392Y-68830392D01*
X150421068Y-69048899D01*
X150287818Y-69298192D01*
X150205764Y-69568691D01*
X150178057Y-69850000D01*
X150205764Y-70131309D01*
X150287818Y-70401808D01*
X150421068Y-70651101D01*
X150600392Y-70869608D01*
X150818899Y-71048932D01*
X151068192Y-71182182D01*
X151338691Y-71264236D01*
X151549508Y-71285000D01*
X151690492Y-71285000D01*
X151901309Y-71264236D01*
X152171808Y-71182182D01*
X152421101Y-71048932D01*
X152639608Y-70869608D01*
X152818932Y-70651101D01*
X152952182Y-70401808D01*
X153034236Y-70131309D01*
X153061943Y-69850000D01*
X153034236Y-69568691D01*
X152952182Y-69298192D01*
X152818932Y-69048899D01*
X152639608Y-68830392D01*
X152421101Y-68651068D01*
X152288142Y-68580000D01*
X152421101Y-68508932D01*
X152639608Y-68329608D01*
X152818932Y-68111101D01*
X152952182Y-67861808D01*
X153034236Y-67591309D01*
X153061943Y-67310000D01*
X153034236Y-67028691D01*
X152952182Y-66758192D01*
X152818932Y-66508899D01*
X152639608Y-66290392D01*
X152421101Y-66111068D01*
X152288142Y-66040000D01*
X152421101Y-65968932D01*
X152639608Y-65789608D01*
X152818932Y-65571101D01*
X152952182Y-65321808D01*
X153034236Y-65051309D01*
X153061943Y-64770000D01*
X153034236Y-64488691D01*
X152952182Y-64218192D01*
X152818932Y-63968899D01*
X152639608Y-63750392D01*
X152421101Y-63571068D01*
X152288142Y-63500000D01*
X152421101Y-63428932D01*
X152639608Y-63249608D01*
X152818932Y-63031101D01*
X152952182Y-62781808D01*
X153034236Y-62511309D01*
X153061943Y-62230000D01*
X153034236Y-61948691D01*
X153020708Y-61904094D01*
X155197004Y-59727798D01*
X155226001Y-59704001D01*
X155320974Y-59588276D01*
X155391546Y-59456247D01*
X155435003Y-59312986D01*
X155446000Y-59201333D01*
X155446000Y-59201325D01*
X155449676Y-59164000D01*
X155446000Y-59126675D01*
X155446000Y-48424325D01*
X155449676Y-48387000D01*
X155446000Y-48349675D01*
X155446000Y-48349667D01*
X155435003Y-48238014D01*
X155391546Y-48094753D01*
X155320974Y-47962724D01*
X155226001Y-47846999D01*
X155197003Y-47823201D01*
X153471804Y-46098003D01*
X153448001Y-46068999D01*
X153332276Y-45974026D01*
X153200247Y-45903454D01*
X153056986Y-45859997D01*
X152945333Y-45849000D01*
X152945322Y-45849000D01*
X152908000Y-45845324D01*
X152870678Y-45849000D01*
X146948323Y-45849000D01*
X146911000Y-45845324D01*
X146873677Y-45849000D01*
X146873667Y-45849000D01*
X146762014Y-45859997D01*
X146618753Y-45903454D01*
X146486724Y-45974026D01*
X146370999Y-46068999D01*
X146347201Y-46097997D01*
X144313886Y-48131312D01*
X144131335Y-48095000D01*
X143848665Y-48095000D01*
X143571426Y-48150147D01*
X143310273Y-48258320D01*
X143075241Y-48415363D01*
X142875363Y-48615241D01*
X142718320Y-48850273D01*
X142610147Y-49111426D01*
X142555000Y-49388665D01*
X142555000Y-49671335D01*
X142610147Y-49948574D01*
X142718320Y-50209727D01*
X142875363Y-50444759D01*
X143075241Y-50644637D01*
X143310273Y-50801680D01*
X143571426Y-50909853D01*
X143848665Y-50965000D01*
X144131335Y-50965000D01*
X144408574Y-50909853D01*
X144669727Y-50801680D01*
X144904759Y-50644637D01*
X145104637Y-50444759D01*
X145261680Y-50209727D01*
X145369853Y-49948574D01*
X145425000Y-49671335D01*
X145425000Y-49388665D01*
X145388688Y-49206114D01*
X147225802Y-47369000D01*
X152593199Y-47369000D01*
X153926001Y-48701803D01*
X153926000Y-58849198D01*
X151945906Y-60829292D01*
X151901309Y-60815764D01*
X151690492Y-60795000D01*
X151549508Y-60795000D01*
X151338691Y-60815764D01*
X151068192Y-60897818D01*
X150818899Y-61031068D01*
X150600392Y-61210392D01*
X150421068Y-61428899D01*
X150287818Y-61678192D01*
X150205764Y-61948691D01*
X150178057Y-62230000D01*
X150201222Y-62465195D01*
X150171000Y-62489998D01*
X150147202Y-62518996D01*
X147190003Y-65476196D01*
X147160999Y-65499999D01*
X147105871Y-65567174D01*
X147066026Y-65615724D01*
X146996218Y-65746325D01*
X146995454Y-65747754D01*
X146951997Y-65891015D01*
X146941000Y-66002668D01*
X146941000Y-66002678D01*
X146937324Y-66040000D01*
X146941000Y-66077323D01*
X146941001Y-72174197D01*
X144313887Y-74801312D01*
X144131335Y-74765000D01*
X143848665Y-74765000D01*
X143666114Y-74801312D01*
X139063841Y-70199039D01*
X142608096Y-70199039D01*
X142648754Y-70333087D01*
X142768963Y-70587420D01*
X142936481Y-70813414D01*
X143144869Y-71002385D01*
X143386119Y-71147070D01*
X143650960Y-71241909D01*
X143873000Y-71120624D01*
X143873000Y-69977000D01*
X144127000Y-69977000D01*
X144127000Y-71120624D01*
X144349040Y-71241909D01*
X144613881Y-71147070D01*
X144855131Y-71002385D01*
X145063519Y-70813414D01*
X145231037Y-70587420D01*
X145351246Y-70333087D01*
X145391904Y-70199039D01*
X145269915Y-69977000D01*
X144127000Y-69977000D01*
X143873000Y-69977000D01*
X142730085Y-69977000D01*
X142608096Y-70199039D01*
X139063841Y-70199039D01*
X136044683Y-67179882D01*
X136160134Y-67085134D01*
X136345706Y-66859014D01*
X136483599Y-66601034D01*
X136568513Y-66321111D01*
X136597185Y-66030000D01*
X136568513Y-65738889D01*
X136483599Y-65458966D01*
X136345706Y-65200986D01*
X136160134Y-64974866D01*
X135934014Y-64789294D01*
X135676034Y-64651401D01*
X135396111Y-64566487D01*
X135177950Y-64545000D01*
X135032050Y-64545000D01*
X134813889Y-64566487D01*
X134533966Y-64651401D01*
X134275986Y-64789294D01*
X134049866Y-64974866D01*
X133864294Y-65200986D01*
X133829799Y-65265523D01*
X133760178Y-65148645D01*
X133565269Y-64932412D01*
X133331920Y-64758359D01*
X133069099Y-64633175D01*
X132921890Y-64588524D01*
X132692002Y-64709844D01*
X132692002Y-64545000D01*
X132584802Y-64545000D01*
X132747883Y-64381920D01*
X139997119Y-64381920D01*
X142599292Y-66984094D01*
X142585764Y-67028691D01*
X142558057Y-67310000D01*
X142585764Y-67591309D01*
X142667818Y-67861808D01*
X142801068Y-68111101D01*
X142980392Y-68329608D01*
X143198899Y-68508932D01*
X143336682Y-68582579D01*
X143144869Y-68697615D01*
X142936481Y-68886586D01*
X142768963Y-69112580D01*
X142648754Y-69366913D01*
X142608096Y-69500961D01*
X142730085Y-69723000D01*
X143873000Y-69723000D01*
X143873000Y-69703000D01*
X144127000Y-69703000D01*
X144127000Y-69723000D01*
X145269915Y-69723000D01*
X145391904Y-69500961D01*
X145351246Y-69366913D01*
X145231037Y-69112580D01*
X145063519Y-68886586D01*
X144855131Y-68697615D01*
X144663318Y-68582579D01*
X144801101Y-68508932D01*
X145019608Y-68329608D01*
X145198932Y-68111101D01*
X145332182Y-67861808D01*
X145414236Y-67591309D01*
X145441943Y-67310000D01*
X145414236Y-67028691D01*
X145400708Y-66984093D01*
X148671003Y-63713799D01*
X148700001Y-63690001D01*
X148794974Y-63574276D01*
X148865546Y-63442247D01*
X148909003Y-63298986D01*
X148920000Y-63187333D01*
X148923677Y-63150000D01*
X148920000Y-63112667D01*
X148920000Y-58312087D01*
X149034482Y-58300812D01*
X149154180Y-58264502D01*
X149264494Y-58205537D01*
X149361185Y-58126185D01*
X149440537Y-58029494D01*
X149499502Y-57919180D01*
X149535812Y-57799482D01*
X149548072Y-57675000D01*
X149548072Y-56625000D01*
X149539588Y-56538860D01*
X149584276Y-56514974D01*
X149700001Y-56420001D01*
X149723804Y-56390997D01*
X152121004Y-53993798D01*
X152150001Y-53970001D01*
X152244974Y-53854276D01*
X152315546Y-53722247D01*
X152359003Y-53578986D01*
X152370000Y-53467333D01*
X152370000Y-53467324D01*
X152373676Y-53430001D01*
X152370000Y-53392678D01*
X152370000Y-50750901D01*
X152411101Y-50728932D01*
X152629608Y-50549608D01*
X152808932Y-50331101D01*
X152942182Y-50081808D01*
X153024236Y-49811309D01*
X153051943Y-49530000D01*
X153024236Y-49248691D01*
X152942182Y-48978192D01*
X152808932Y-48728899D01*
X152629608Y-48510392D01*
X152411101Y-48331068D01*
X152161808Y-48197818D01*
X151891309Y-48115764D01*
X151680492Y-48095000D01*
X151539508Y-48095000D01*
X151328691Y-48115764D01*
X151058192Y-48197818D01*
X150808899Y-48331068D01*
X150590392Y-48510392D01*
X150411068Y-48728899D01*
X150277818Y-48978192D01*
X150195764Y-49248691D01*
X150168057Y-49530000D01*
X150195764Y-49811309D01*
X150277818Y-50081808D01*
X150411068Y-50331101D01*
X150590392Y-50549608D01*
X150808899Y-50728932D01*
X150850001Y-50750901D01*
X150850000Y-53115198D01*
X149482201Y-54482998D01*
X149378164Y-54482998D01*
X149503964Y-54304190D01*
X149495272Y-54242663D01*
X149402275Y-54033118D01*
X149270184Y-53845742D01*
X149104076Y-53687736D01*
X148910334Y-53565172D01*
X148696404Y-53482761D01*
X148470507Y-53443669D01*
X148287000Y-53603402D01*
X148287000Y-54483000D01*
X148307000Y-54483000D01*
X148307000Y-54720000D01*
X147878021Y-54720000D01*
X147707600Y-54736785D01*
X147706891Y-54737000D01*
X146941837Y-54737000D01*
X146816036Y-54915810D01*
X146824728Y-54977337D01*
X146888042Y-55120000D01*
X145500227Y-55120000D01*
X145462904Y-55116324D01*
X145425581Y-55120000D01*
X145425572Y-55120000D01*
X145313919Y-55130997D01*
X145170658Y-55174454D01*
X145038628Y-55245026D01*
X145021014Y-55259482D01*
X144922904Y-55339999D01*
X144899106Y-55368997D01*
X143488998Y-56779106D01*
X143460000Y-56802904D01*
X143436202Y-56831902D01*
X143436201Y-56831903D01*
X143365026Y-56918629D01*
X143294454Y-57050659D01*
X143284069Y-57084895D01*
X143250998Y-57193919D01*
X143240001Y-57305572D01*
X143236324Y-57342905D01*
X143240001Y-57380237D01*
X143240000Y-60791928D01*
X143200000Y-60791928D01*
X143075518Y-60804188D01*
X142955820Y-60840498D01*
X142845506Y-60899463D01*
X142748815Y-60978815D01*
X142669463Y-61075506D01*
X142610498Y-61185820D01*
X142574188Y-61305518D01*
X142561928Y-61430000D01*
X142561928Y-63030000D01*
X142574188Y-63154482D01*
X142610498Y-63274180D01*
X142669463Y-63384494D01*
X142748815Y-63481185D01*
X142845506Y-63560537D01*
X142955820Y-63619502D01*
X143075518Y-63655812D01*
X143093482Y-63657581D01*
X142980392Y-63750392D01*
X142801068Y-63968899D01*
X142667818Y-64218192D01*
X142585764Y-64488691D01*
X142558057Y-64770000D01*
X142560598Y-64795796D01*
X140875724Y-63110923D01*
X140851921Y-63081919D01*
X140736196Y-62986946D01*
X140604167Y-62916374D01*
X140460906Y-62872917D01*
X140349253Y-62861920D01*
X140349242Y-62861920D01*
X140311920Y-62858244D01*
X140274598Y-62861920D01*
X132470402Y-62861920D01*
X132433079Y-62858244D01*
X132395756Y-62861920D01*
X132395747Y-62861920D01*
X132284094Y-62872917D01*
X132140833Y-62916374D01*
X132008804Y-62986946D01*
X132000602Y-62993677D01*
X131922076Y-63058121D01*
X131922072Y-63058125D01*
X131893079Y-63081919D01*
X131869285Y-63110912D01*
X130390995Y-64589203D01*
X130316111Y-64566487D01*
X130097950Y-64545000D01*
X129952050Y-64545000D01*
X129733889Y-64566487D01*
X129453966Y-64651401D01*
X129195986Y-64789294D01*
X128969866Y-64974866D01*
X128784294Y-65200986D01*
X128755000Y-65255791D01*
X128725706Y-65200986D01*
X128540134Y-64974866D01*
X128470226Y-64917494D01*
X131801004Y-61586717D01*
X131830001Y-61562920D01*
X131924974Y-61447195D01*
X131995546Y-61315166D01*
X132039003Y-61171905D01*
X132050000Y-61060252D01*
X132050000Y-61060251D01*
X132053677Y-61022919D01*
X132050000Y-60985586D01*
X132050000Y-56862287D01*
X132059180Y-56859502D01*
X132169494Y-56800537D01*
X132266185Y-56721185D01*
X132345537Y-56624494D01*
X132404502Y-56514180D01*
X132440812Y-56394482D01*
X132453072Y-56270000D01*
X132453072Y-54770000D01*
X132440812Y-54645518D01*
X132404502Y-54525820D01*
X132345537Y-54415506D01*
X132266185Y-54318815D01*
X132248365Y-54304190D01*
X146816036Y-54304190D01*
X146941837Y-54483000D01*
X148033000Y-54483000D01*
X148033000Y-53603402D01*
X147849493Y-53443669D01*
X147623596Y-53482761D01*
X147409666Y-53565172D01*
X147215924Y-53687736D01*
X147049816Y-53845742D01*
X146917725Y-54033118D01*
X146824728Y-54242663D01*
X146816036Y-54304190D01*
X132248365Y-54304190D01*
X132169494Y-54239463D01*
X132059180Y-54180498D01*
X131939482Y-54144188D01*
X131815000Y-54131928D01*
X130780000Y-54131928D01*
X130780000Y-53654801D01*
X133504094Y-50930708D01*
X133548691Y-50944236D01*
X133759508Y-50965000D01*
X133900492Y-50965000D01*
X134111309Y-50944236D01*
X134381808Y-50862182D01*
X134631101Y-50728932D01*
X134849608Y-50549608D01*
X135028932Y-50331101D01*
X135162182Y-50081808D01*
X135244236Y-49811309D01*
X135271943Y-49530000D01*
X135244236Y-49248691D01*
X135162182Y-48978192D01*
X135028932Y-48728899D01*
X134849608Y-48510392D01*
X134631101Y-48331068D01*
X134381808Y-48197818D01*
X134111309Y-48115764D01*
X133900492Y-48095000D01*
X133759508Y-48095000D01*
X133548691Y-48115764D01*
X133278192Y-48197818D01*
X133028899Y-48331068D01*
X132810392Y-48510392D01*
X132631068Y-48728899D01*
X132497818Y-48978192D01*
X132415764Y-49248691D01*
X132388057Y-49530000D01*
X132415764Y-49811309D01*
X132429292Y-49855906D01*
X129508998Y-52776201D01*
X129480000Y-52799999D01*
X129456202Y-52828997D01*
X129456201Y-52828998D01*
X129385026Y-52915724D01*
X129314454Y-53047754D01*
X129270998Y-53191015D01*
X129256324Y-53340000D01*
X129260001Y-53377332D01*
X129260001Y-54248043D01*
X129117337Y-54184728D01*
X129055810Y-54176036D01*
X128877000Y-54301837D01*
X128877000Y-55066891D01*
X128876785Y-55067600D01*
X128860000Y-55238021D01*
X128860000Y-55801978D01*
X128876785Y-55972399D01*
X128877000Y-55973108D01*
X128877000Y-56738163D01*
X129055810Y-56863964D01*
X129117337Y-56855272D01*
X129260000Y-56791957D01*
X129260000Y-56919078D01*
X122169079Y-64010000D01*
X117745902Y-64010000D01*
X117723933Y-63968899D01*
X117544609Y-63750392D01*
X117326102Y-63571068D01*
X117193143Y-63500000D01*
X117326102Y-63428932D01*
X117544609Y-63249608D01*
X117723933Y-63031101D01*
X117857183Y-62781808D01*
X117939237Y-62511309D01*
X117966944Y-62230000D01*
X117939237Y-61948691D01*
X117857183Y-61678192D01*
X117723933Y-61428899D01*
X117544609Y-61210392D01*
X117326102Y-61031068D01*
X117275001Y-61003754D01*
X117275001Y-55830507D01*
X127583669Y-55830507D01*
X127622761Y-56056404D01*
X127705172Y-56270334D01*
X127827736Y-56464076D01*
X127985742Y-56630184D01*
X128173118Y-56762275D01*
X128382663Y-56855272D01*
X128444190Y-56863964D01*
X128623000Y-56738163D01*
X128623000Y-55647000D01*
X127743402Y-55647000D01*
X127583669Y-55830507D01*
X117275001Y-55830507D01*
X117275001Y-55209493D01*
X127583669Y-55209493D01*
X127743402Y-55393000D01*
X128623000Y-55393000D01*
X128623000Y-54301837D01*
X128444190Y-54176036D01*
X128382663Y-54184728D01*
X128173118Y-54277725D01*
X127985742Y-54409816D01*
X127827736Y-54575924D01*
X127705172Y-54769666D01*
X127622761Y-54983596D01*
X127583669Y-55209493D01*
X117275001Y-55209493D01*
X117275001Y-50748043D01*
X117429760Y-50644637D01*
X117629638Y-50444759D01*
X117733044Y-50290000D01*
X124991957Y-50290000D01*
X125095363Y-50444759D01*
X125295241Y-50644637D01*
X125530273Y-50801680D01*
X125791426Y-50909853D01*
X126068665Y-50965000D01*
X126351335Y-50965000D01*
X126628574Y-50909853D01*
X126889727Y-50801680D01*
X127124759Y-50644637D01*
X127324637Y-50444759D01*
X127481680Y-50209727D01*
X127589853Y-49948574D01*
X127645000Y-49671335D01*
X127645000Y-49388665D01*
X127589853Y-49111426D01*
X127481680Y-48850273D01*
X127324637Y-48615241D01*
X127124759Y-48415363D01*
X126889727Y-48258320D01*
X126628574Y-48150147D01*
X126351335Y-48095000D01*
X126068665Y-48095000D01*
X125791426Y-48150147D01*
X125530273Y-48258320D01*
X125295241Y-48415363D01*
X125095363Y-48615241D01*
X124991957Y-48770000D01*
X117733044Y-48770000D01*
X117629638Y-48615241D01*
X117429760Y-48415363D01*
X117194728Y-48258320D01*
X116933575Y-48150147D01*
X116656336Y-48095000D01*
X116373666Y-48095000D01*
X116096427Y-48150147D01*
X115835274Y-48258320D01*
X115600242Y-48415363D01*
X115400364Y-48615241D01*
X115243321Y-48850273D01*
X115135148Y-49111426D01*
X115080001Y-49388665D01*
X115080001Y-49671335D01*
X115135148Y-49948574D01*
X115243321Y-50209727D01*
X115400364Y-50444759D01*
X115600242Y-50644637D01*
X115755001Y-50748043D01*
X115755002Y-61014444D01*
X115723900Y-61031068D01*
X115505393Y-61210392D01*
X115326069Y-61428899D01*
X115304100Y-61470000D01*
X114210333Y-61470000D01*
X114173000Y-61466323D01*
X114135667Y-61470000D01*
X114024014Y-61480997D01*
X113880753Y-61524454D01*
X113748724Y-61595026D01*
X113632999Y-61689999D01*
X113609201Y-61718997D01*
X112011003Y-63317196D01*
X111981999Y-63340999D01*
X111946304Y-63384494D01*
X111887026Y-63456724D01*
X111824193Y-63574276D01*
X111816454Y-63588754D01*
X111772997Y-63732015D01*
X111762000Y-63843668D01*
X111762000Y-63843678D01*
X111758324Y-63881000D01*
X111762000Y-63918322D01*
X111762000Y-66658452D01*
X111749266Y-66616472D01*
X111678694Y-66484443D01*
X111653936Y-66454275D01*
X111607519Y-66397715D01*
X111607515Y-66397711D01*
X111583721Y-66368718D01*
X111554729Y-66344925D01*
X110305709Y-65095906D01*
X110319237Y-65051309D01*
X110346944Y-64770000D01*
X110319237Y-64488691D01*
X110237183Y-64218192D01*
X110103933Y-63968899D01*
X109924609Y-63750392D01*
X109811519Y-63657581D01*
X109829483Y-63655812D01*
X109949181Y-63619502D01*
X110059495Y-63560537D01*
X110156186Y-63481185D01*
X110235538Y-63384494D01*
X110294503Y-63274180D01*
X110330813Y-63154482D01*
X110343073Y-63030000D01*
X110343073Y-61430000D01*
X110330813Y-61305518D01*
X110294503Y-61185820D01*
X110235538Y-61075506D01*
X110156186Y-60978815D01*
X110059495Y-60899463D01*
X109949181Y-60840498D01*
X109829483Y-60804188D01*
X109705001Y-60791928D01*
X109665001Y-60791928D01*
X109665001Y-59409801D01*
X111204107Y-57870695D01*
X111234817Y-57914258D01*
X111400925Y-58072264D01*
X111594667Y-58194828D01*
X111808597Y-58277239D01*
X112034494Y-58316331D01*
X112218001Y-58156598D01*
X112218001Y-57277000D01*
X112472001Y-57277000D01*
X112472001Y-58156598D01*
X112655508Y-58316331D01*
X112881405Y-58277239D01*
X113095335Y-58194828D01*
X113289077Y-58072264D01*
X113455185Y-57914258D01*
X113587276Y-57726882D01*
X113680273Y-57517337D01*
X113688965Y-57455810D01*
X113563164Y-57277000D01*
X112472001Y-57277000D01*
X112218001Y-57277000D01*
X112198001Y-57277000D01*
X112198001Y-57040000D01*
X112626980Y-57040000D01*
X112797401Y-57023215D01*
X112798110Y-57023000D01*
X113563164Y-57023000D01*
X113688965Y-56844190D01*
X113680273Y-56782663D01*
X113598066Y-56597431D01*
X113637248Y-56585546D01*
X113769277Y-56514974D01*
X113885002Y-56420001D01*
X113908805Y-56390997D01*
X115446003Y-54853800D01*
X115475001Y-54830002D01*
X115523425Y-54770997D01*
X115569974Y-54714278D01*
X115640546Y-54582248D01*
X115677321Y-54461014D01*
X115684003Y-54438987D01*
X115695000Y-54327334D01*
X115695000Y-54327325D01*
X115698676Y-54290002D01*
X115695000Y-54252679D01*
X115695000Y-52107322D01*
X115698676Y-52069999D01*
X115695000Y-52032676D01*
X115695000Y-52032667D01*
X115684003Y-51921014D01*
X115640546Y-51777753D01*
X115569974Y-51645724D01*
X115556811Y-51629685D01*
X115498799Y-51558996D01*
X115498795Y-51558992D01*
X115475001Y-51529999D01*
X115446009Y-51506206D01*
X112958804Y-49019003D01*
X112935001Y-48989999D01*
X112819276Y-48895026D01*
X112687247Y-48824454D01*
X112543986Y-48780997D01*
X112432333Y-48770000D01*
X112432322Y-48770000D01*
X112395000Y-48766324D01*
X112357678Y-48770000D01*
X110115902Y-48770000D01*
X110093933Y-48728899D01*
X109914609Y-48510392D01*
X109696102Y-48331068D01*
X109446809Y-48197818D01*
X109176310Y-48115764D01*
X108965493Y-48095000D01*
X108824509Y-48095000D01*
X108613692Y-48115764D01*
X108343193Y-48197818D01*
X108093900Y-48331068D01*
X107875393Y-48510392D01*
X107696069Y-48728899D01*
X107562819Y-48978192D01*
X107480765Y-49248691D01*
X107453058Y-49530000D01*
X107480765Y-49811309D01*
X107562819Y-50081808D01*
X107696069Y-50331101D01*
X107875393Y-50549608D01*
X108093900Y-50728932D01*
X108343193Y-50862182D01*
X108613692Y-50944236D01*
X108824509Y-50965000D01*
X108965493Y-50965000D01*
X109176310Y-50944236D01*
X109446809Y-50862182D01*
X109696102Y-50728932D01*
X109914609Y-50549608D01*
X110093933Y-50331101D01*
X110115902Y-50290000D01*
X112080199Y-50290000D01*
X114175000Y-52384803D01*
X114175001Y-53975198D01*
X113733073Y-54417126D01*
X113733073Y-54085000D01*
X113720813Y-53960518D01*
X113684503Y-53840820D01*
X113625538Y-53730506D01*
X113546186Y-53633815D01*
X113449495Y-53554463D01*
X113339181Y-53495498D01*
X113219483Y-53459188D01*
X113095001Y-53446928D01*
X111595001Y-53446928D01*
X111470519Y-53459188D01*
X111350821Y-53495498D01*
X111240507Y-53554463D01*
X111143816Y-53633815D01*
X111064464Y-53730506D01*
X111005499Y-53840820D01*
X111002714Y-53850000D01*
X108612165Y-53850000D01*
X108574840Y-53846324D01*
X108537515Y-53850000D01*
X108537507Y-53850000D01*
X108425854Y-53860997D01*
X108282593Y-53904454D01*
X108150564Y-53975026D01*
X108034839Y-54069999D01*
X108011041Y-54098997D01*
X105168238Y-56941801D01*
X105139240Y-56965599D01*
X105115442Y-56994597D01*
X105115441Y-56994598D01*
X105044266Y-57081324D01*
X104973694Y-57213354D01*
X104954388Y-57277000D01*
X104930238Y-57356614D01*
X104927652Y-57382866D01*
X104915564Y-57505600D01*
X104545000Y-57505600D01*
X104545000Y-38439005D01*
X109962054Y-38439005D01*
X109962054Y-38726195D01*
X110018082Y-39007867D01*
X110127985Y-39273196D01*
X110287540Y-39511986D01*
X110490614Y-39715060D01*
X110729404Y-39874615D01*
X110994733Y-39984518D01*
X111276405Y-40040546D01*
X111563595Y-40040546D01*
X111845267Y-39984518D01*
X112110596Y-39874615D01*
X112349386Y-39715060D01*
X112552460Y-39511986D01*
X112712015Y-39273196D01*
X112821918Y-39007867D01*
X112877946Y-38726195D01*
X112877946Y-38439005D01*
X148452854Y-38439005D01*
X148452854Y-38726195D01*
X148508882Y-39007867D01*
X148618785Y-39273196D01*
X148778340Y-39511986D01*
X148981414Y-39715060D01*
X149220204Y-39874615D01*
X149485533Y-39984518D01*
X149767205Y-40040546D01*
X150054395Y-40040546D01*
X150336067Y-39984518D01*
X150601396Y-39874615D01*
X150840186Y-39715060D01*
X151043260Y-39511986D01*
X151202815Y-39273196D01*
X151312718Y-39007867D01*
X151368746Y-38726195D01*
X151368746Y-38439005D01*
X151312718Y-38157333D01*
X151202815Y-37892004D01*
X151043260Y-37653214D01*
X150840186Y-37450140D01*
X150601396Y-37290585D01*
X150336067Y-37180682D01*
X150054395Y-37124654D01*
X149767205Y-37124654D01*
X149485533Y-37180682D01*
X149220204Y-37290585D01*
X148981414Y-37450140D01*
X148778340Y-37653214D01*
X148618785Y-37892004D01*
X148508882Y-38157333D01*
X148452854Y-38439005D01*
X112877946Y-38439005D01*
X112821918Y-38157333D01*
X112712015Y-37892004D01*
X112552460Y-37653214D01*
X112349386Y-37450140D01*
X112110596Y-37290585D01*
X111845267Y-37180682D01*
X111563595Y-37124654D01*
X111276405Y-37124654D01*
X110994733Y-37180682D01*
X110729404Y-37290585D01*
X110490614Y-37450140D01*
X110287540Y-37653214D01*
X110127985Y-37892004D01*
X110018082Y-38157333D01*
X109962054Y-38439005D01*
X104545000Y-38439005D01*
X104545000Y-33760000D01*
X155965000Y-33760000D01*
X155965001Y-179773346D01*
X155965001Y-179773346D01*
G37*
X155965001Y-179773346D02*
X155923115Y-179672224D01*
X155763560Y-179433434D01*
X155560486Y-179230360D01*
X155321696Y-179070805D01*
X155056367Y-178960902D01*
X154774695Y-178904874D01*
X154487505Y-178904874D01*
X154205833Y-178960902D01*
X153940504Y-179070805D01*
X153701714Y-179230360D01*
X153498640Y-179433434D01*
X153339085Y-179672224D01*
X153229182Y-179937553D01*
X153173154Y-180219225D01*
X153173154Y-180506415D01*
X153229182Y-180788087D01*
X153339085Y-181053416D01*
X153498640Y-181292206D01*
X153701714Y-181495280D01*
X153940504Y-181654835D01*
X153971853Y-181667820D01*
X106480347Y-181667820D01*
X106511696Y-181654835D01*
X106750486Y-181495280D01*
X106953560Y-181292206D01*
X107113115Y-181053416D01*
X107223018Y-180788087D01*
X107279046Y-180506415D01*
X107279046Y-180219225D01*
X107223018Y-179937553D01*
X107113115Y-179672224D01*
X106953560Y-179433434D01*
X106750486Y-179230360D01*
X106511696Y-179070805D01*
X106246367Y-178960902D01*
X105964695Y-178904874D01*
X105677505Y-178904874D01*
X105395833Y-178960902D01*
X105130504Y-179070805D01*
X104891714Y-179230360D01*
X104688640Y-179433434D01*
X104545000Y-179648406D01*
X104545000Y-102489000D01*
X104646324Y-102489000D01*
X104650001Y-102526333D01*
X104650000Y-166332678D01*
X104646324Y-166370000D01*
X104650000Y-166407322D01*
X104650000Y-166407332D01*
X104660997Y-166518985D01*
X104702383Y-166655420D01*
X104704454Y-166662246D01*
X104775026Y-166794276D01*
X104783339Y-166804405D01*
X104869999Y-166910001D01*
X104899003Y-166933804D01*
X108511421Y-170546223D01*
X108535219Y-170575221D01*
X108650944Y-170670194D01*
X108782973Y-170740766D01*
X108926234Y-170784223D01*
X109037887Y-170795220D01*
X109037897Y-170795220D01*
X109075220Y-170798896D01*
X109112543Y-170795220D01*
X111015019Y-170795220D01*
X111052341Y-170798896D01*
X111089663Y-170795220D01*
X111089674Y-170795220D01*
X111201327Y-170784223D01*
X111344588Y-170740766D01*
X111476617Y-170670194D01*
X111592342Y-170575221D01*
X111616145Y-170546217D01*
X114063928Y-168098435D01*
X114085549Y-168107391D01*
X114377278Y-168165420D01*
X114674722Y-168165420D01*
X114966451Y-168107391D01*
X115241253Y-167993564D01*
X115488569Y-167828313D01*
X115698893Y-167617989D01*
X115864144Y-167370673D01*
X115977971Y-167095871D01*
X116036000Y-166804142D01*
X116036000Y-166506698D01*
X115977971Y-166214969D01*
X115864144Y-165940167D01*
X115698893Y-165692851D01*
X115488569Y-165482527D01*
X115241253Y-165317276D01*
X114966451Y-165203449D01*
X114674722Y-165145420D01*
X114377278Y-165145420D01*
X114085549Y-165203449D01*
X113810747Y-165317276D01*
X113563431Y-165482527D01*
X113353107Y-165692851D01*
X113187856Y-165940167D01*
X113074029Y-166214969D01*
X113016000Y-166506698D01*
X113016000Y-166804142D01*
X113047957Y-166964802D01*
X112539072Y-167473687D01*
X112539072Y-165780420D01*
X112526812Y-165655938D01*
X112490502Y-165536240D01*
X112431537Y-165425926D01*
X112352185Y-165329235D01*
X112255494Y-165249883D01*
X112145180Y-165190918D01*
X112025482Y-165154608D01*
X111901000Y-165142348D01*
X111692141Y-165142348D01*
X111692141Y-163890258D01*
X115770767Y-163890258D01*
X115908724Y-164190464D01*
X116257967Y-164366302D01*
X116634804Y-164470627D01*
X117024753Y-164499429D01*
X117412828Y-164451604D01*
X117784116Y-164328988D01*
X118043276Y-164190464D01*
X118181233Y-163890258D01*
X116976000Y-162685025D01*
X115770767Y-163890258D01*
X111692141Y-163890258D01*
X111692141Y-162554173D01*
X114981991Y-162554173D01*
X115029816Y-162942248D01*
X115152432Y-163313536D01*
X115290956Y-163572696D01*
X115591162Y-163710653D01*
X116796395Y-162505420D01*
X117155605Y-162505420D01*
X118360838Y-163710653D01*
X118661044Y-163572696D01*
X118836882Y-163223453D01*
X118941207Y-162846616D01*
X118970009Y-162456667D01*
X118922184Y-162068592D01*
X118799568Y-161697304D01*
X118661044Y-161438144D01*
X118360838Y-161300187D01*
X117155605Y-162505420D01*
X116796395Y-162505420D01*
X115591162Y-161300187D01*
X115290956Y-161438144D01*
X115115118Y-161787387D01*
X115010793Y-162164224D01*
X114981991Y-162554173D01*
X111692141Y-162554173D01*
X111692141Y-161120582D01*
X115770767Y-161120582D01*
X116976000Y-162325815D01*
X118181233Y-161120582D01*
X118043276Y-160820376D01*
X117694033Y-160644538D01*
X117317196Y-160540213D01*
X116927247Y-160511411D01*
X116539172Y-160559236D01*
X116167884Y-160681852D01*
X115908724Y-160820376D01*
X115770767Y-161120582D01*
X111692141Y-161120582D01*
X111692141Y-125828720D01*
X119056520Y-118464342D01*
X119099683Y-118428919D01*
X119123485Y-118399916D01*
X119756505Y-117766897D01*
X119785502Y-117743100D01*
X119880475Y-117627375D01*
X119951047Y-117495346D01*
X119994504Y-117352085D01*
X120005501Y-117240432D01*
X120005501Y-117240431D01*
X120009178Y-117203099D01*
X120005501Y-117165766D01*
X120005501Y-102489000D01*
X122482204Y-102489000D01*
X122485881Y-102526333D01*
X122485880Y-166368238D01*
X122482204Y-166405560D01*
X122485880Y-166442882D01*
X122485880Y-166442892D01*
X122496877Y-166554545D01*
X122538801Y-166692752D01*
X122540334Y-166697806D01*
X122610906Y-166829836D01*
X122650751Y-166878386D01*
X122705879Y-166945561D01*
X122734883Y-166969364D01*
X126006941Y-170241423D01*
X126030739Y-170270421D01*
X126059737Y-170294219D01*
X126146463Y-170365394D01*
X126278493Y-170435966D01*
X126421754Y-170479423D01*
X126533407Y-170490420D01*
X126533416Y-170490420D01*
X126570739Y-170494096D01*
X126608062Y-170490420D01*
X128634818Y-170490420D01*
X128672140Y-170494096D01*
X128709462Y-170490420D01*
X128709473Y-170490420D01*
X128821126Y-170479423D01*
X128964387Y-170435966D01*
X129096416Y-170365394D01*
X129212141Y-170270421D01*
X129235944Y-170241417D01*
X131363264Y-168114097D01*
X131621278Y-168165420D01*
X131918722Y-168165420D01*
X132210451Y-168107391D01*
X132485253Y-167993564D01*
X132732569Y-167828313D01*
X132942893Y-167617989D01*
X133108144Y-167370673D01*
X133221971Y-167095871D01*
X133280000Y-166804142D01*
X133280000Y-166506698D01*
X133221971Y-166214969D01*
X133108144Y-165940167D01*
X132942893Y-165692851D01*
X132732569Y-165482527D01*
X132485253Y-165317276D01*
X132210451Y-165203449D01*
X131918722Y-165145420D01*
X131621278Y-165145420D01*
X131329549Y-165203449D01*
X131054747Y-165317276D01*
X130807431Y-165482527D01*
X130597107Y-165692851D01*
X130431856Y-165940167D01*
X130318029Y-166214969D01*
X130260000Y-166506698D01*
X130260000Y-166804142D01*
X130303737Y-167024021D01*
X129781513Y-167546245D01*
X129783072Y-167530420D01*
X129783072Y-165780420D01*
X129770812Y-165655938D01*
X129734502Y-165536240D01*
X129675537Y-165425926D01*
X129596185Y-165329235D01*
X129499494Y-165249883D01*
X129389180Y-165190918D01*
X129269482Y-165154608D01*
X129145000Y-165142348D01*
X129007140Y-165142348D01*
X129007140Y-163890258D01*
X133014767Y-163890258D01*
X133152724Y-164190464D01*
X133501967Y-164366302D01*
X133878804Y-164470627D01*
X134268753Y-164499429D01*
X134656828Y-164451604D01*
X135028116Y-164328988D01*
X135287276Y-164190464D01*
X135425233Y-163890258D01*
X134220000Y-162685025D01*
X133014767Y-163890258D01*
X129007140Y-163890258D01*
X129007140Y-162554173D01*
X132225991Y-162554173D01*
X132273816Y-162942248D01*
X132396432Y-163313536D01*
X132534956Y-163572696D01*
X132835162Y-163710653D01*
X134040395Y-162505420D01*
X134399605Y-162505420D01*
X135604838Y-163710653D01*
X135905044Y-163572696D01*
X136080882Y-163223453D01*
X136185207Y-162846616D01*
X136214009Y-162456667D01*
X136166184Y-162068592D01*
X136043568Y-161697304D01*
X135905044Y-161438144D01*
X135604838Y-161300187D01*
X134399605Y-162505420D01*
X134040395Y-162505420D01*
X132835162Y-161300187D01*
X132534956Y-161438144D01*
X132359118Y-161787387D01*
X132254793Y-162164224D01*
X132225991Y-162554173D01*
X129007140Y-162554173D01*
X129007140Y-161120582D01*
X133014767Y-161120582D01*
X134220000Y-162325815D01*
X135425233Y-161120582D01*
X135287276Y-160820376D01*
X134938033Y-160644538D01*
X134561196Y-160540213D01*
X134171247Y-160511411D01*
X133783172Y-160559236D01*
X133411884Y-160681852D01*
X133152724Y-160820376D01*
X133014767Y-161120582D01*
X129007140Y-161120582D01*
X129007140Y-114188081D01*
X129504963Y-113690258D01*
X133014767Y-113690258D01*
X133152724Y-113990464D01*
X133501967Y-114166302D01*
X133878804Y-114270627D01*
X134268753Y-114299429D01*
X134656828Y-114251604D01*
X135028116Y-114128988D01*
X135287276Y-113990464D01*
X135425233Y-113690258D01*
X134220000Y-112485025D01*
X133014767Y-113690258D01*
X129504963Y-113690258D01*
X130841048Y-112354173D01*
X132225991Y-112354173D01*
X132273816Y-112742248D01*
X132396432Y-113113536D01*
X132534956Y-113372696D01*
X132835162Y-113510653D01*
X134040395Y-112305420D01*
X134399605Y-112305420D01*
X135604838Y-113510653D01*
X135905044Y-113372696D01*
X136080882Y-113023453D01*
X136185207Y-112646616D01*
X136214009Y-112256667D01*
X136166184Y-111868592D01*
X136043568Y-111497304D01*
X135905044Y-111238144D01*
X135604838Y-111100187D01*
X134399605Y-112305420D01*
X134040395Y-112305420D01*
X132835162Y-111100187D01*
X132534956Y-111238144D01*
X132359118Y-111587387D01*
X132254793Y-111964224D01*
X132225991Y-112354173D01*
X130841048Y-112354173D01*
X132274639Y-110920582D01*
X133014767Y-110920582D01*
X134220000Y-112125815D01*
X135425233Y-110920582D01*
X135287276Y-110620376D01*
X134938033Y-110444538D01*
X134561196Y-110340213D01*
X134171247Y-110311411D01*
X133783172Y-110359236D01*
X133411884Y-110481852D01*
X133152724Y-110620376D01*
X133014767Y-110920582D01*
X132274639Y-110920582D01*
X137099508Y-106095715D01*
X137128501Y-106071921D01*
X137152295Y-106042928D01*
X137152299Y-106042924D01*
X137223473Y-105956197D01*
X137227547Y-105948576D01*
X137294046Y-105824167D01*
X137337503Y-105680906D01*
X137348500Y-105569253D01*
X137348500Y-105569244D01*
X137352176Y-105531921D01*
X137348500Y-105494598D01*
X137348500Y-102489000D01*
X139830404Y-102489000D01*
X139834081Y-102526333D01*
X139834080Y-165956758D01*
X139830404Y-165994080D01*
X139834080Y-166031402D01*
X139834080Y-166031412D01*
X139845077Y-166143065D01*
X139871795Y-166231144D01*
X139888534Y-166286326D01*
X139959106Y-166418356D01*
X139998951Y-166466906D01*
X140054079Y-166534081D01*
X140083083Y-166557884D01*
X143649781Y-170124583D01*
X143673579Y-170153581D01*
X143702577Y-170177379D01*
X143789303Y-170248554D01*
X143874736Y-170294219D01*
X143921333Y-170319126D01*
X144064594Y-170362583D01*
X144176247Y-170373580D01*
X144176257Y-170373580D01*
X144213580Y-170377256D01*
X144250902Y-170373580D01*
X146531658Y-170373580D01*
X146568980Y-170377256D01*
X146606302Y-170373580D01*
X146606313Y-170373580D01*
X146717966Y-170362583D01*
X146861227Y-170319126D01*
X146993256Y-170248554D01*
X147108981Y-170153581D01*
X147132784Y-170124577D01*
X149143264Y-168114097D01*
X149401278Y-168165420D01*
X149698722Y-168165420D01*
X149990451Y-168107391D01*
X150265253Y-167993564D01*
X150512569Y-167828313D01*
X150722893Y-167617989D01*
X150888144Y-167370673D01*
X151001971Y-167095871D01*
X151060000Y-166804142D01*
X151060000Y-166506698D01*
X151001971Y-166214969D01*
X150888144Y-165940167D01*
X150722893Y-165692851D01*
X150512569Y-165482527D01*
X150265253Y-165317276D01*
X149990451Y-165203449D01*
X149698722Y-165145420D01*
X149401278Y-165145420D01*
X149109549Y-165203449D01*
X148834747Y-165317276D01*
X148587431Y-165482527D01*
X148377107Y-165692851D01*
X148211856Y-165940167D01*
X148098029Y-166214969D01*
X148040000Y-166506698D01*
X148040000Y-166804142D01*
X148083737Y-167024021D01*
X147561513Y-167546245D01*
X147563072Y-167530420D01*
X147563072Y-165780420D01*
X147550812Y-165655938D01*
X147514502Y-165536240D01*
X147455537Y-165425926D01*
X147376185Y-165329235D01*
X147279494Y-165249883D01*
X147169180Y-165190918D01*
X147049482Y-165154608D01*
X146925000Y-165142348D01*
X146787140Y-165142348D01*
X146787140Y-163890258D01*
X150794767Y-163890258D01*
X150932724Y-164190464D01*
X151281967Y-164366302D01*
X151658804Y-164470627D01*
X152048753Y-164499429D01*
X152436828Y-164451604D01*
X152808116Y-164328988D01*
X153067276Y-164190464D01*
X153205233Y-163890258D01*
X152000000Y-162685025D01*
X150794767Y-163890258D01*
X146787140Y-163890258D01*
X146787140Y-162554173D01*
X150005991Y-162554173D01*
X150053816Y-162942248D01*
X150176432Y-163313536D01*
X150314956Y-163572696D01*
X150615162Y-163710653D01*
X151820395Y-162505420D01*
X152179605Y-162505420D01*
X153384838Y-163710653D01*
X153685044Y-163572696D01*
X153860882Y-163223453D01*
X153965207Y-162846616D01*
X153994009Y-162456667D01*
X153946184Y-162068592D01*
X153823568Y-161697304D01*
X153685044Y-161438144D01*
X153384838Y-161300187D01*
X152179605Y-162505420D01*
X151820395Y-162505420D01*
X150615162Y-161300187D01*
X150314956Y-161438144D01*
X150139118Y-161787387D01*
X150034793Y-162164224D01*
X150005991Y-162554173D01*
X146787140Y-162554173D01*
X146787140Y-161120582D01*
X150794767Y-161120582D01*
X152000000Y-162325815D01*
X153205233Y-161120582D01*
X153067276Y-160820376D01*
X152718033Y-160644538D01*
X152341196Y-160540213D01*
X151951247Y-160511411D01*
X151563172Y-160559236D01*
X151191884Y-160681852D01*
X150932724Y-160820376D01*
X150794767Y-161120582D01*
X146787140Y-161120582D01*
X146787140Y-113690258D01*
X150794767Y-113690258D01*
X150932724Y-113990464D01*
X151281967Y-114166302D01*
X151658804Y-114270627D01*
X152048753Y-114299429D01*
X152436828Y-114251604D01*
X152808116Y-114128988D01*
X153067276Y-113990464D01*
X153205233Y-113690258D01*
X152000000Y-112485025D01*
X150794767Y-113690258D01*
X146787140Y-113690258D01*
X146787140Y-113139061D01*
X147572028Y-112354173D01*
X150005991Y-112354173D01*
X150053816Y-112742248D01*
X150176432Y-113113536D01*
X150314956Y-113372696D01*
X150615162Y-113510653D01*
X151820395Y-112305420D01*
X152179605Y-112305420D01*
X153384838Y-113510653D01*
X153685044Y-113372696D01*
X153860882Y-113023453D01*
X153965207Y-112646616D01*
X153994009Y-112256667D01*
X153946184Y-111868592D01*
X153823568Y-111497304D01*
X153685044Y-111238144D01*
X153384838Y-111100187D01*
X152179605Y-112305420D01*
X151820395Y-112305420D01*
X150615162Y-111100187D01*
X150314956Y-111238144D01*
X150139118Y-111587387D01*
X150034793Y-111964224D01*
X150005991Y-112354173D01*
X147572028Y-112354173D01*
X149005619Y-110920582D01*
X150794767Y-110920582D01*
X152000000Y-112125815D01*
X153205233Y-110920582D01*
X153067276Y-110620376D01*
X152718033Y-110444538D01*
X152341196Y-110340213D01*
X151951247Y-110311411D01*
X151563172Y-110359236D01*
X151191884Y-110481852D01*
X150932724Y-110620376D01*
X150794767Y-110920582D01*
X149005619Y-110920582D01*
X153838108Y-106088095D01*
X153867101Y-106064301D01*
X153890895Y-106035308D01*
X153890899Y-106035304D01*
X153962073Y-105948577D01*
X153962074Y-105948576D01*
X154032646Y-105816547D01*
X154076103Y-105673286D01*
X154087100Y-105561633D01*
X154087100Y-105561624D01*
X154090776Y-105524301D01*
X154087100Y-105486978D01*
X154087100Y-77951825D01*
X154090776Y-77914500D01*
X154087100Y-77877175D01*
X154087100Y-77877167D01*
X154076103Y-77765514D01*
X154032646Y-77622253D01*
X153962074Y-77490224D01*
X153867101Y-77374499D01*
X153838104Y-77350702D01*
X153011313Y-76523912D01*
X153024236Y-76481309D01*
X153051943Y-76200000D01*
X153024236Y-75918691D01*
X152942182Y-75648192D01*
X152808932Y-75398899D01*
X152629608Y-75180392D01*
X152411101Y-75001068D01*
X152161808Y-74867818D01*
X151891309Y-74785764D01*
X151680492Y-74765000D01*
X151539508Y-74765000D01*
X151328691Y-74785764D01*
X151058192Y-74867818D01*
X150808899Y-75001068D01*
X150590392Y-75180392D01*
X150411068Y-75398899D01*
X150277818Y-75648192D01*
X150195764Y-75918691D01*
X150168057Y-76200000D01*
X150195764Y-76481309D01*
X150277818Y-76751808D01*
X150411068Y-77001101D01*
X150590392Y-77219608D01*
X150808899Y-77398932D01*
X151058192Y-77532182D01*
X151328691Y-77614236D01*
X151539508Y-77635000D01*
X151680492Y-77635000D01*
X151891309Y-77614236D01*
X151937901Y-77600103D01*
X152567100Y-78229302D01*
X152567101Y-105209496D01*
X145516143Y-112260456D01*
X145487139Y-112284259D01*
X145432011Y-112351434D01*
X145392166Y-112399984D01*
X145328406Y-112519269D01*
X145285044Y-112438144D01*
X144984838Y-112300187D01*
X143779605Y-113505420D01*
X144984838Y-114710653D01*
X145267140Y-114580924D01*
X145267141Y-160229917D01*
X144984838Y-160100187D01*
X143779605Y-161305420D01*
X144984838Y-162510653D01*
X145267141Y-162380923D01*
X145267141Y-165142348D01*
X145175000Y-165142348D01*
X145050518Y-165154608D01*
X144930820Y-165190918D01*
X144820506Y-165249883D01*
X144723815Y-165329235D01*
X144644463Y-165425926D01*
X144585498Y-165536240D01*
X144549188Y-165655938D01*
X144536928Y-165780420D01*
X144536928Y-167530420D01*
X144549188Y-167654902D01*
X144585498Y-167774600D01*
X144644463Y-167884914D01*
X144723815Y-167981605D01*
X144820506Y-168060957D01*
X144930820Y-168119922D01*
X145050518Y-168156232D01*
X145175000Y-168168492D01*
X146925000Y-168168492D01*
X146940825Y-168166933D01*
X146254179Y-168853580D01*
X144528382Y-168853580D01*
X141354080Y-165679279D01*
X141354080Y-162690258D01*
X142394767Y-162690258D01*
X142532724Y-162990464D01*
X142881967Y-163166302D01*
X143258804Y-163270627D01*
X143648753Y-163299429D01*
X144036828Y-163251604D01*
X144408116Y-163128988D01*
X144667276Y-162990464D01*
X144805233Y-162690258D01*
X143600000Y-161485025D01*
X142394767Y-162690258D01*
X141354080Y-162690258D01*
X141354080Y-161354173D01*
X141605991Y-161354173D01*
X141653816Y-161742248D01*
X141776432Y-162113536D01*
X141914956Y-162372696D01*
X142215162Y-162510653D01*
X143420395Y-161305420D01*
X142215162Y-160100187D01*
X141914956Y-160238144D01*
X141739118Y-160587387D01*
X141634793Y-160964224D01*
X141605991Y-161354173D01*
X141354080Y-161354173D01*
X141354080Y-159920582D01*
X142394767Y-159920582D01*
X143600000Y-161125815D01*
X144805233Y-159920582D01*
X144667276Y-159620376D01*
X144318033Y-159444538D01*
X143941196Y-159340213D01*
X143551247Y-159311411D01*
X143163172Y-159359236D01*
X142791884Y-159481852D01*
X142532724Y-159620376D01*
X142394767Y-159920582D01*
X141354080Y-159920582D01*
X141354080Y-114890258D01*
X142394767Y-114890258D01*
X142532724Y-115190464D01*
X142881967Y-115366302D01*
X143258804Y-115470627D01*
X143648753Y-115499429D01*
X144036828Y-115451604D01*
X144408116Y-115328988D01*
X144667276Y-115190464D01*
X144805233Y-114890258D01*
X143600000Y-113685025D01*
X142394767Y-114890258D01*
X141354080Y-114890258D01*
X141354080Y-113554173D01*
X141605991Y-113554173D01*
X141653816Y-113942248D01*
X141776432Y-114313536D01*
X141914956Y-114572696D01*
X142215162Y-114710653D01*
X143420395Y-113505420D01*
X142215162Y-112300187D01*
X141914956Y-112438144D01*
X141739118Y-112787387D01*
X141634793Y-113164224D01*
X141605991Y-113554173D01*
X141354080Y-113554173D01*
X141354080Y-112120582D01*
X142394767Y-112120582D01*
X143600000Y-113325815D01*
X144805233Y-112120582D01*
X144667276Y-111820376D01*
X144318033Y-111644538D01*
X143941196Y-111540213D01*
X143551247Y-111511411D01*
X143163172Y-111559236D01*
X142791884Y-111681852D01*
X142532724Y-111820376D01*
X142394767Y-112120582D01*
X141354080Y-112120582D01*
X141354080Y-109201660D01*
X145183365Y-109201660D01*
X145264025Y-109453288D01*
X145532329Y-109581687D01*
X145820526Y-109655275D01*
X146117543Y-109671224D01*
X146411963Y-109628921D01*
X146692474Y-109529992D01*
X146835975Y-109453288D01*
X146916635Y-109201660D01*
X146050000Y-108335025D01*
X145183365Y-109201660D01*
X141354080Y-109201660D01*
X141354080Y-108222963D01*
X144534196Y-108222963D01*
X144576499Y-108517383D01*
X144675428Y-108797894D01*
X144752132Y-108941395D01*
X145003760Y-109022055D01*
X145870395Y-108155420D01*
X146229605Y-108155420D01*
X147096240Y-109022055D01*
X147347868Y-108941395D01*
X147476267Y-108673091D01*
X147549855Y-108384894D01*
X147565804Y-108087877D01*
X147523501Y-107793457D01*
X147424572Y-107512946D01*
X147347868Y-107369445D01*
X147096240Y-107288785D01*
X146229605Y-108155420D01*
X145870395Y-108155420D01*
X145003760Y-107288785D01*
X144752132Y-107369445D01*
X144623733Y-107637749D01*
X144550145Y-107925946D01*
X144534196Y-108222963D01*
X141354080Y-108222963D01*
X141354080Y-107109180D01*
X145183365Y-107109180D01*
X146050000Y-107975815D01*
X146916635Y-107109180D01*
X146835975Y-106857552D01*
X146567671Y-106729153D01*
X146279474Y-106655565D01*
X145982457Y-106639616D01*
X145688037Y-106681919D01*
X145407526Y-106780848D01*
X145264025Y-106857552D01*
X145183365Y-107109180D01*
X141354080Y-107109180D01*
X141354080Y-102803801D01*
X142932162Y-101225720D01*
X144529537Y-101225720D01*
X144534913Y-101243442D01*
X144722716Y-101594798D01*
X144975457Y-101902763D01*
X145283422Y-102155504D01*
X145634778Y-102343307D01*
X146016021Y-102458956D01*
X146313142Y-102488220D01*
X149286858Y-102488220D01*
X149583979Y-102458956D01*
X149965222Y-102343307D01*
X150316578Y-102155504D01*
X150624543Y-101902763D01*
X150877284Y-101594798D01*
X151065087Y-101243442D01*
X151180736Y-100862199D01*
X151219786Y-100465720D01*
X151180736Y-100069241D01*
X151065087Y-99687998D01*
X150877284Y-99336642D01*
X150624543Y-99028677D01*
X150316578Y-98775936D01*
X149965222Y-98588133D01*
X149583979Y-98472484D01*
X149286858Y-98443220D01*
X146313142Y-98443220D01*
X146016021Y-98472484D01*
X145634778Y-98588133D01*
X145283422Y-98775936D01*
X144975457Y-99028677D01*
X144722716Y-99336642D01*
X144534913Y-99687998D01*
X144529537Y-99705720D01*
X142654682Y-99705720D01*
X142617359Y-99702044D01*
X142580037Y-99705720D01*
X142580027Y-99705720D01*
X142468374Y-99716717D01*
X142325113Y-99760174D01*
X142193083Y-99830746D01*
X142109443Y-99899388D01*
X142077359Y-99925719D01*
X142053561Y-99954717D01*
X140083078Y-101925201D01*
X140054080Y-101948999D01*
X140030282Y-101977997D01*
X140030281Y-101977998D01*
X139959106Y-102064724D01*
X139888534Y-102196754D01*
X139845078Y-102340015D01*
X139830404Y-102489000D01*
X137348500Y-102489000D01*
X137348500Y-95765720D01*
X144380214Y-95765720D01*
X144419264Y-96162199D01*
X144534913Y-96543442D01*
X144722716Y-96894798D01*
X144975457Y-97202763D01*
X145283422Y-97455504D01*
X145634778Y-97643307D01*
X146016021Y-97758956D01*
X146313142Y-97788220D01*
X149286858Y-97788220D01*
X149583979Y-97758956D01*
X149965222Y-97643307D01*
X150316578Y-97455504D01*
X150624543Y-97202763D01*
X150877284Y-96894798D01*
X151065087Y-96543442D01*
X151180736Y-96162199D01*
X151219786Y-95765720D01*
X151180736Y-95369241D01*
X151065087Y-94987998D01*
X150877284Y-94636642D01*
X150624543Y-94328677D01*
X150316578Y-94075936D01*
X149965222Y-93888133D01*
X149583979Y-93772484D01*
X149286858Y-93743220D01*
X146313142Y-93743220D01*
X146016021Y-93772484D01*
X145634778Y-93888133D01*
X145283422Y-94075936D01*
X144975457Y-94328677D01*
X144722716Y-94636642D01*
X144534913Y-94987998D01*
X144419264Y-95369241D01*
X144380214Y-95765720D01*
X137348500Y-95765720D01*
X137348500Y-91065720D01*
X144380214Y-91065720D01*
X144419264Y-91462199D01*
X144534913Y-91843442D01*
X144722716Y-92194798D01*
X144975457Y-92502763D01*
X145283422Y-92755504D01*
X145634778Y-92943307D01*
X146016021Y-93058956D01*
X146313142Y-93088220D01*
X149286858Y-93088220D01*
X149583979Y-93058956D01*
X149965222Y-92943307D01*
X150316578Y-92755504D01*
X150624543Y-92502763D01*
X150877284Y-92194798D01*
X151065087Y-91843442D01*
X151180736Y-91462199D01*
X151219786Y-91065720D01*
X151180736Y-90669241D01*
X151065087Y-90287998D01*
X150877284Y-89936642D01*
X150624543Y-89628677D01*
X150316578Y-89375936D01*
X149965222Y-89188133D01*
X149583979Y-89072484D01*
X149286858Y-89043220D01*
X148560000Y-89043220D01*
X148560000Y-84298172D01*
X148650000Y-84298172D01*
X148774482Y-84285912D01*
X148894180Y-84249602D01*
X149004494Y-84190637D01*
X149101185Y-84111285D01*
X149180537Y-84014594D01*
X149239502Y-83904280D01*
X149275812Y-83784582D01*
X149288072Y-83660100D01*
X149288072Y-81960100D01*
X149275812Y-81835618D01*
X149239502Y-81715920D01*
X149180537Y-81605606D01*
X149101185Y-81508915D01*
X149004494Y-81429563D01*
X148894180Y-81370598D01*
X148774482Y-81334288D01*
X148650000Y-81322028D01*
X146950000Y-81322028D01*
X146825518Y-81334288D01*
X146705820Y-81370598D01*
X146595506Y-81429563D01*
X146498815Y-81508915D01*
X146419463Y-81605606D01*
X146360498Y-81715920D01*
X146324188Y-81835618D01*
X146311928Y-81960100D01*
X146311928Y-83660100D01*
X146324188Y-83784582D01*
X146360498Y-83904280D01*
X146419463Y-84014594D01*
X146498815Y-84111285D01*
X146595506Y-84190637D01*
X146705820Y-84249602D01*
X146825518Y-84285912D01*
X146950000Y-84298172D01*
X147040000Y-84298172D01*
X147040001Y-89043220D01*
X146313142Y-89043220D01*
X146016021Y-89072484D01*
X145634778Y-89188133D01*
X145283422Y-89375936D01*
X144975457Y-89628677D01*
X144722716Y-89936642D01*
X144534913Y-90287998D01*
X144419264Y-90669241D01*
X144380214Y-91065720D01*
X137348500Y-91065720D01*
X137348500Y-78995822D01*
X137352176Y-78958499D01*
X137348500Y-78921176D01*
X137348500Y-78921167D01*
X137337503Y-78809514D01*
X137294046Y-78666253D01*
X137292576Y-78663503D01*
X137223474Y-78534223D01*
X137152299Y-78447497D01*
X137128501Y-78418499D01*
X137099504Y-78394702D01*
X135230708Y-76525906D01*
X135244236Y-76481309D01*
X135271943Y-76200000D01*
X135244236Y-75918691D01*
X135162182Y-75648192D01*
X135028932Y-75398899D01*
X134849608Y-75180392D01*
X134631101Y-75001068D01*
X134381808Y-74867818D01*
X134111309Y-74785764D01*
X133900492Y-74765000D01*
X133759508Y-74765000D01*
X133548691Y-74785764D01*
X133278192Y-74867818D01*
X133028899Y-75001068D01*
X132810392Y-75180392D01*
X132631068Y-75398899D01*
X132497818Y-75648192D01*
X132415764Y-75918691D01*
X132388057Y-76200000D01*
X132415764Y-76481309D01*
X132497818Y-76751808D01*
X132631068Y-77001101D01*
X132810392Y-77219608D01*
X133028899Y-77398932D01*
X133278192Y-77532182D01*
X133548691Y-77614236D01*
X133759508Y-77635000D01*
X133900492Y-77635000D01*
X134111309Y-77614236D01*
X134155906Y-77600708D01*
X135828500Y-79273302D01*
X135828501Y-105217116D01*
X127789317Y-113256302D01*
X127766184Y-113068592D01*
X127643568Y-112697304D01*
X127505044Y-112438144D01*
X127204838Y-112300187D01*
X125999605Y-113505420D01*
X127204838Y-114710653D01*
X127487140Y-114580924D01*
X127487141Y-160229917D01*
X127204838Y-160100187D01*
X125999605Y-161305420D01*
X127204838Y-162510653D01*
X127487141Y-162380923D01*
X127487141Y-165142348D01*
X127395000Y-165142348D01*
X127270518Y-165154608D01*
X127150820Y-165190918D01*
X127040506Y-165249883D01*
X126943815Y-165329235D01*
X126864463Y-165425926D01*
X126805498Y-165536240D01*
X126769188Y-165655938D01*
X126756928Y-165780420D01*
X126756928Y-167530420D01*
X126769188Y-167654902D01*
X126805498Y-167774600D01*
X126864463Y-167884914D01*
X126943815Y-167981605D01*
X127040506Y-168060957D01*
X127150820Y-168119922D01*
X127270518Y-168156232D01*
X127395000Y-168168492D01*
X129145000Y-168168492D01*
X129160825Y-168166933D01*
X128357339Y-168970420D01*
X126885542Y-168970420D01*
X124005880Y-166090759D01*
X124005880Y-162690258D01*
X124614767Y-162690258D01*
X124752724Y-162990464D01*
X125101967Y-163166302D01*
X125478804Y-163270627D01*
X125868753Y-163299429D01*
X126256828Y-163251604D01*
X126628116Y-163128988D01*
X126887276Y-162990464D01*
X127025233Y-162690258D01*
X125820000Y-161485025D01*
X124614767Y-162690258D01*
X124005880Y-162690258D01*
X124005880Y-162131212D01*
X124134956Y-162372696D01*
X124435162Y-162510653D01*
X125640395Y-161305420D01*
X124435162Y-160100187D01*
X124134956Y-160238144D01*
X124005880Y-160494510D01*
X124005880Y-159920582D01*
X124614767Y-159920582D01*
X125820000Y-161125815D01*
X127025233Y-159920582D01*
X126887276Y-159620376D01*
X126538033Y-159444538D01*
X126161196Y-159340213D01*
X125771247Y-159311411D01*
X125383172Y-159359236D01*
X125011884Y-159481852D01*
X124752724Y-159620376D01*
X124614767Y-159920582D01*
X124005880Y-159920582D01*
X124005880Y-114890258D01*
X124614767Y-114890258D01*
X124752724Y-115190464D01*
X125101967Y-115366302D01*
X125478804Y-115470627D01*
X125868753Y-115499429D01*
X126256828Y-115451604D01*
X126628116Y-115328988D01*
X126887276Y-115190464D01*
X127025233Y-114890258D01*
X125820000Y-113685025D01*
X124614767Y-114890258D01*
X124005880Y-114890258D01*
X124005880Y-114331212D01*
X124134956Y-114572696D01*
X124435162Y-114710653D01*
X125640395Y-113505420D01*
X124435162Y-112300187D01*
X124134956Y-112438144D01*
X124005880Y-112694510D01*
X124005880Y-112120582D01*
X124614767Y-112120582D01*
X125820000Y-113325815D01*
X127025233Y-112120582D01*
X126887276Y-111820376D01*
X126538033Y-111644538D01*
X126161196Y-111540213D01*
X125771247Y-111511411D01*
X125383172Y-111559236D01*
X125011884Y-111681852D01*
X124752724Y-111820376D01*
X124614767Y-112120582D01*
X124005880Y-112120582D01*
X124005880Y-109201660D01*
X127403365Y-109201660D01*
X127484025Y-109453288D01*
X127752329Y-109581687D01*
X128040526Y-109655275D01*
X128337543Y-109671224D01*
X128631963Y-109628921D01*
X128912474Y-109529992D01*
X129055975Y-109453288D01*
X129136635Y-109201660D01*
X128270000Y-108335025D01*
X127403365Y-109201660D01*
X124005880Y-109201660D01*
X124005880Y-108222963D01*
X126754196Y-108222963D01*
X126796499Y-108517383D01*
X126895428Y-108797894D01*
X126972132Y-108941395D01*
X127223760Y-109022055D01*
X128090395Y-108155420D01*
X128449605Y-108155420D01*
X129316240Y-109022055D01*
X129567868Y-108941395D01*
X129696267Y-108673091D01*
X129769855Y-108384894D01*
X129785804Y-108087877D01*
X129743501Y-107793457D01*
X129644572Y-107512946D01*
X129567868Y-107369445D01*
X129316240Y-107288785D01*
X128449605Y-108155420D01*
X128090395Y-108155420D01*
X127223760Y-107288785D01*
X126972132Y-107369445D01*
X126843733Y-107637749D01*
X126770145Y-107925946D01*
X126754196Y-108222963D01*
X124005880Y-108222963D01*
X124005880Y-107109180D01*
X127403365Y-107109180D01*
X128270000Y-107975815D01*
X129136635Y-107109180D01*
X129055975Y-106857552D01*
X128787671Y-106729153D01*
X128499474Y-106655565D01*
X128202457Y-106639616D01*
X127908037Y-106681919D01*
X127627526Y-106780848D01*
X127484025Y-106857552D01*
X127403365Y-107109180D01*
X124005880Y-107109180D01*
X124005880Y-102803801D01*
X125583962Y-101225720D01*
X126749537Y-101225720D01*
X126754913Y-101243442D01*
X126942716Y-101594798D01*
X127195457Y-101902763D01*
X127503422Y-102155504D01*
X127854778Y-102343307D01*
X128236021Y-102458956D01*
X128533142Y-102488220D01*
X131506858Y-102488220D01*
X131803979Y-102458956D01*
X132185222Y-102343307D01*
X132536578Y-102155504D01*
X132844543Y-101902763D01*
X133097284Y-101594798D01*
X133285087Y-101243442D01*
X133400736Y-100862199D01*
X133439786Y-100465720D01*
X133400736Y-100069241D01*
X133285087Y-99687998D01*
X133097284Y-99336642D01*
X132844543Y-99028677D01*
X132536578Y-98775936D01*
X132185222Y-98588133D01*
X131803979Y-98472484D01*
X131506858Y-98443220D01*
X128533142Y-98443220D01*
X128236021Y-98472484D01*
X127854778Y-98588133D01*
X127503422Y-98775936D01*
X127195457Y-99028677D01*
X126942716Y-99336642D01*
X126754913Y-99687998D01*
X126749537Y-99705720D01*
X125306482Y-99705720D01*
X125269159Y-99702044D01*
X125231837Y-99705720D01*
X125231827Y-99705720D01*
X125120174Y-99716717D01*
X124976913Y-99760174D01*
X124844883Y-99830746D01*
X124761243Y-99899388D01*
X124729159Y-99925719D01*
X124705361Y-99954717D01*
X122734878Y-101925201D01*
X122705880Y-101948999D01*
X122682082Y-101977997D01*
X122682081Y-101977998D01*
X122610906Y-102064724D01*
X122540334Y-102196754D01*
X122496878Y-102340015D01*
X122482204Y-102489000D01*
X120005501Y-102489000D01*
X120005501Y-78967822D01*
X120009177Y-78930499D01*
X120005501Y-78893176D01*
X120005501Y-78893167D01*
X119994504Y-78781514D01*
X119951047Y-78638253D01*
X119895441Y-78534223D01*
X119880475Y-78506223D01*
X119809300Y-78419497D01*
X119785502Y-78390499D01*
X119756504Y-78366701D01*
X117915709Y-76525906D01*
X117929237Y-76481309D01*
X117956944Y-76200000D01*
X117929237Y-75918691D01*
X117847183Y-75648192D01*
X117713933Y-75398899D01*
X117534609Y-75180392D01*
X117316102Y-75001068D01*
X117066809Y-74867818D01*
X116796310Y-74785764D01*
X116585493Y-74765000D01*
X116444509Y-74765000D01*
X116233692Y-74785764D01*
X115963193Y-74867818D01*
X115713900Y-75001068D01*
X115495393Y-75180392D01*
X115316069Y-75398899D01*
X115182819Y-75648192D01*
X115100765Y-75918691D01*
X115073058Y-76200000D01*
X115100765Y-76481309D01*
X115182819Y-76751808D01*
X115316069Y-77001101D01*
X115495393Y-77219608D01*
X115713900Y-77398932D01*
X115963193Y-77532182D01*
X116233692Y-77614236D01*
X116444509Y-77635000D01*
X116585493Y-77635000D01*
X116796310Y-77614236D01*
X116840907Y-77600708D01*
X118485502Y-79245303D01*
X118485501Y-111157475D01*
X118360838Y-111100187D01*
X117155605Y-112305420D01*
X118360838Y-113510653D01*
X118485501Y-113453365D01*
X118485501Y-116888297D01*
X118060309Y-117313490D01*
X118017141Y-117348917D01*
X117993343Y-117377915D01*
X110421139Y-124950120D01*
X110392141Y-124973918D01*
X110368343Y-125002916D01*
X110368342Y-125002917D01*
X110297167Y-125089643D01*
X110226595Y-125221673D01*
X110183139Y-125364934D01*
X110168465Y-125513919D01*
X110172142Y-125551252D01*
X110172141Y-160197289D01*
X109960838Y-160100187D01*
X108755605Y-161305420D01*
X109960838Y-162510653D01*
X110172141Y-162413551D01*
X110172141Y-165142348D01*
X110151000Y-165142348D01*
X110026518Y-165154608D01*
X109906820Y-165190918D01*
X109796506Y-165249883D01*
X109699815Y-165329235D01*
X109620463Y-165425926D01*
X109561498Y-165536240D01*
X109525188Y-165655938D01*
X109512928Y-165780420D01*
X109512928Y-167530420D01*
X109525188Y-167654902D01*
X109561498Y-167774600D01*
X109620463Y-167884914D01*
X109699815Y-167981605D01*
X109796506Y-168060957D01*
X109906820Y-168119922D01*
X110026518Y-168156232D01*
X110151000Y-168168492D01*
X111844268Y-168168492D01*
X110737540Y-169275220D01*
X109390022Y-169275220D01*
X106170000Y-166055199D01*
X106170000Y-162690258D01*
X107370767Y-162690258D01*
X107508724Y-162990464D01*
X107857967Y-163166302D01*
X108234804Y-163270627D01*
X108624753Y-163299429D01*
X109012828Y-163251604D01*
X109384116Y-163128988D01*
X109643276Y-162990464D01*
X109781233Y-162690258D01*
X108576000Y-161485025D01*
X107370767Y-162690258D01*
X106170000Y-162690258D01*
X106170000Y-161354173D01*
X106581991Y-161354173D01*
X106629816Y-161742248D01*
X106752432Y-162113536D01*
X106890956Y-162372696D01*
X107191162Y-162510653D01*
X108396395Y-161305420D01*
X107191162Y-160100187D01*
X106890956Y-160238144D01*
X106715118Y-160587387D01*
X106610793Y-160964224D01*
X106581991Y-161354173D01*
X106170000Y-161354173D01*
X106170000Y-159920582D01*
X107370767Y-159920582D01*
X108576000Y-161125815D01*
X109781233Y-159920582D01*
X109643276Y-159620376D01*
X109294033Y-159444538D01*
X108917196Y-159340213D01*
X108527247Y-159311411D01*
X108139172Y-159359236D01*
X107767884Y-159481852D01*
X107508724Y-159620376D01*
X107370767Y-159920582D01*
X106170000Y-159920582D01*
X106170000Y-114890258D01*
X107370767Y-114890258D01*
X107508724Y-115190464D01*
X107857967Y-115366302D01*
X108234804Y-115470627D01*
X108624753Y-115499429D01*
X109012828Y-115451604D01*
X109384116Y-115328988D01*
X109643276Y-115190464D01*
X109781233Y-114890258D01*
X108576000Y-113685025D01*
X107370767Y-114890258D01*
X106170000Y-114890258D01*
X106170000Y-113554173D01*
X106581991Y-113554173D01*
X106629816Y-113942248D01*
X106752432Y-114313536D01*
X106890956Y-114572696D01*
X107191162Y-114710653D01*
X108396395Y-113505420D01*
X108755605Y-113505420D01*
X109960838Y-114710653D01*
X110261044Y-114572696D01*
X110436882Y-114223453D01*
X110541207Y-113846616D01*
X110552755Y-113690258D01*
X115770767Y-113690258D01*
X115908724Y-113990464D01*
X116257967Y-114166302D01*
X116634804Y-114270627D01*
X117024753Y-114299429D01*
X117412828Y-114251604D01*
X117784116Y-114128988D01*
X118043276Y-113990464D01*
X118181233Y-113690258D01*
X116976000Y-112485025D01*
X115770767Y-113690258D01*
X110552755Y-113690258D01*
X110570009Y-113456667D01*
X110522184Y-113068592D01*
X110399568Y-112697304D01*
X110261044Y-112438144D01*
X110078317Y-112354173D01*
X114981991Y-112354173D01*
X115029816Y-112742248D01*
X115152432Y-113113536D01*
X115290956Y-113372696D01*
X115591162Y-113510653D01*
X116796395Y-112305420D01*
X115591162Y-111100187D01*
X115290956Y-111238144D01*
X115115118Y-111587387D01*
X115010793Y-111964224D01*
X114981991Y-112354173D01*
X110078317Y-112354173D01*
X109960838Y-112300187D01*
X108755605Y-113505420D01*
X108396395Y-113505420D01*
X107191162Y-112300187D01*
X106890956Y-112438144D01*
X106715118Y-112787387D01*
X106610793Y-113164224D01*
X106581991Y-113554173D01*
X106170000Y-113554173D01*
X106170000Y-112120582D01*
X107370767Y-112120582D01*
X108576000Y-113325815D01*
X109781233Y-112120582D01*
X109643276Y-111820376D01*
X109294033Y-111644538D01*
X108917196Y-111540213D01*
X108527247Y-111511411D01*
X108139172Y-111559236D01*
X107767884Y-111681852D01*
X107508724Y-111820376D01*
X107370767Y-112120582D01*
X106170000Y-112120582D01*
X106170000Y-110920582D01*
X115770767Y-110920582D01*
X116976000Y-112125815D01*
X118181233Y-110920582D01*
X118043276Y-110620376D01*
X117694033Y-110444538D01*
X117317196Y-110340213D01*
X116927247Y-110311411D01*
X116539172Y-110359236D01*
X116167884Y-110481852D01*
X115908724Y-110620376D01*
X115770767Y-110920582D01*
X106170000Y-110920582D01*
X106170000Y-109201660D01*
X110159365Y-109201660D01*
X110240025Y-109453288D01*
X110508329Y-109581687D01*
X110796526Y-109655275D01*
X111093543Y-109671224D01*
X111387963Y-109628921D01*
X111668474Y-109529992D01*
X111811975Y-109453288D01*
X111892635Y-109201660D01*
X111026000Y-108335025D01*
X110159365Y-109201660D01*
X106170000Y-109201660D01*
X106170000Y-108222963D01*
X109510196Y-108222963D01*
X109552499Y-108517383D01*
X109651428Y-108797894D01*
X109728132Y-108941395D01*
X109979760Y-109022055D01*
X110846395Y-108155420D01*
X111205605Y-108155420D01*
X112072240Y-109022055D01*
X112323868Y-108941395D01*
X112452267Y-108673091D01*
X112525855Y-108384894D01*
X112541804Y-108087877D01*
X112499501Y-107793457D01*
X112400572Y-107512946D01*
X112323868Y-107369445D01*
X112072240Y-107288785D01*
X111205605Y-108155420D01*
X110846395Y-108155420D01*
X109979760Y-107288785D01*
X109728132Y-107369445D01*
X109599733Y-107637749D01*
X109526145Y-107925946D01*
X109510196Y-108222963D01*
X106170000Y-108222963D01*
X106170000Y-107109180D01*
X110159365Y-107109180D01*
X111026000Y-107975815D01*
X111892635Y-107109180D01*
X111811975Y-106857552D01*
X111543671Y-106729153D01*
X111255474Y-106655565D01*
X110958457Y-106639616D01*
X110664037Y-106681919D01*
X110383526Y-106780848D01*
X110240025Y-106857552D01*
X110159365Y-107109180D01*
X106170000Y-107109180D01*
X106170000Y-102803801D01*
X107748082Y-101225720D01*
X109434538Y-101225720D01*
X109439914Y-101243442D01*
X109627717Y-101594798D01*
X109880458Y-101902763D01*
X110188423Y-102155504D01*
X110539779Y-102343307D01*
X110921022Y-102458956D01*
X111218143Y-102488220D01*
X114191859Y-102488220D01*
X114488980Y-102458956D01*
X114870223Y-102343307D01*
X115221579Y-102155504D01*
X115529544Y-101902763D01*
X115782285Y-101594798D01*
X115970088Y-101243442D01*
X116085737Y-100862199D01*
X116124787Y-100465720D01*
X116085737Y-100069241D01*
X115970088Y-99687998D01*
X115782285Y-99336642D01*
X115529544Y-99028677D01*
X115221579Y-98775936D01*
X114870223Y-98588133D01*
X114488980Y-98472484D01*
X114191859Y-98443220D01*
X111218143Y-98443220D01*
X110921022Y-98472484D01*
X110539779Y-98588133D01*
X110188423Y-98775936D01*
X109880458Y-99028677D01*
X109627717Y-99336642D01*
X109439914Y-99687998D01*
X109434538Y-99705720D01*
X107470602Y-99705720D01*
X107433279Y-99702044D01*
X107395957Y-99705720D01*
X107395947Y-99705720D01*
X107284294Y-99716717D01*
X107141033Y-99760174D01*
X107009003Y-99830746D01*
X106925363Y-99899388D01*
X106893279Y-99925719D01*
X106869481Y-99954717D01*
X104898998Y-101925201D01*
X104870000Y-101948999D01*
X104846202Y-101977997D01*
X104846201Y-101977998D01*
X104775026Y-102064724D01*
X104704454Y-102196754D01*
X104660998Y-102340015D01*
X104646324Y-102489000D01*
X104545000Y-102489000D01*
X104545000Y-70199039D01*
X107513097Y-70199039D01*
X107553755Y-70333087D01*
X107673964Y-70587420D01*
X107841482Y-70813414D01*
X108049870Y-71002385D01*
X108291120Y-71147070D01*
X108555961Y-71241909D01*
X108778001Y-71120624D01*
X108778001Y-69977000D01*
X107635086Y-69977000D01*
X107513097Y-70199039D01*
X104545000Y-70199039D01*
X104545000Y-57505600D01*
X104915564Y-57505600D01*
X104919241Y-57542932D01*
X104919240Y-64112917D01*
X104915564Y-64150240D01*
X104919240Y-64187562D01*
X104919240Y-64187572D01*
X104930237Y-64299225D01*
X104967177Y-64421001D01*
X104973694Y-64442486D01*
X105044266Y-64574516D01*
X105082426Y-64621014D01*
X105139239Y-64690241D01*
X105168243Y-64714044D01*
X107475201Y-67021003D01*
X107489773Y-67038759D01*
X107463058Y-67310000D01*
X107490765Y-67591309D01*
X107572819Y-67861808D01*
X107706069Y-68111101D01*
X107885393Y-68329608D01*
X108103900Y-68508932D01*
X108241683Y-68582579D01*
X108049870Y-68697615D01*
X107841482Y-68886586D01*
X107673964Y-69112580D01*
X107553755Y-69366913D01*
X107513097Y-69500961D01*
X107635086Y-69723000D01*
X108778001Y-69723000D01*
X108778001Y-69703000D01*
X109032001Y-69703000D01*
X109032001Y-69723000D01*
X109052001Y-69723000D01*
X109052001Y-69977000D01*
X109032001Y-69977000D01*
X109032001Y-71120624D01*
X109254041Y-71241909D01*
X109518882Y-71147070D01*
X109760132Y-71002385D01*
X109968520Y-70813414D01*
X110136038Y-70587420D01*
X110256247Y-70333087D01*
X110283721Y-70242507D01*
X110283721Y-70957597D01*
X106745583Y-74495736D01*
X106716579Y-74519539D01*
X106661451Y-74586714D01*
X106621606Y-74635264D01*
X106552260Y-74765000D01*
X106551034Y-74767294D01*
X106507577Y-74910555D01*
X106496580Y-75022208D01*
X106496580Y-75022218D01*
X106492904Y-75059540D01*
X106496580Y-75096862D01*
X106496581Y-91667466D01*
X106492904Y-91704799D01*
X106496581Y-91742132D01*
X106499451Y-91771266D01*
X106507578Y-91853784D01*
X106551034Y-91997045D01*
X106621606Y-92129075D01*
X106675544Y-92194798D01*
X106716580Y-92244800D01*
X106745578Y-92268598D01*
X109448644Y-94971665D01*
X109439914Y-94987998D01*
X109324265Y-95369241D01*
X109285215Y-95765720D01*
X109324265Y-96162199D01*
X109439914Y-96543442D01*
X109627717Y-96894798D01*
X109880458Y-97202763D01*
X110188423Y-97455504D01*
X110539779Y-97643307D01*
X110921022Y-97758956D01*
X111218143Y-97788220D01*
X114191859Y-97788220D01*
X114488980Y-97758956D01*
X114870223Y-97643307D01*
X115221579Y-97455504D01*
X115529544Y-97202763D01*
X115782285Y-96894798D01*
X115970088Y-96543442D01*
X116085737Y-96162199D01*
X116124787Y-95765720D01*
X116085737Y-95369241D01*
X115970088Y-94987998D01*
X115782285Y-94636642D01*
X115529544Y-94328677D01*
X115221579Y-94075936D01*
X114870223Y-93888133D01*
X114488980Y-93772484D01*
X114191859Y-93743220D01*
X111218143Y-93743220D01*
X110921022Y-93772484D01*
X110539779Y-93888133D01*
X110523446Y-93896863D01*
X108016580Y-91389998D01*
X108016580Y-91065720D01*
X109285215Y-91065720D01*
X109324265Y-91462199D01*
X109439914Y-91843442D01*
X109627717Y-92194798D01*
X109880458Y-92502763D01*
X110188423Y-92755504D01*
X110539779Y-92943307D01*
X110921022Y-93058956D01*
X111218143Y-93088220D01*
X114191859Y-93088220D01*
X114488980Y-93058956D01*
X114870223Y-92943307D01*
X115221579Y-92755504D01*
X115529544Y-92502763D01*
X115782285Y-92194798D01*
X115970088Y-91843442D01*
X116085737Y-91462199D01*
X116124787Y-91065720D01*
X116085737Y-90669241D01*
X115970088Y-90287998D01*
X115782285Y-89936642D01*
X115529544Y-89628677D01*
X115221579Y-89375936D01*
X114870223Y-89188133D01*
X114488980Y-89072484D01*
X114191859Y-89043220D01*
X113465001Y-89043220D01*
X113465001Y-84298172D01*
X113555001Y-84298172D01*
X113679483Y-84285912D01*
X113799181Y-84249602D01*
X113909495Y-84190637D01*
X114006186Y-84111285D01*
X114085538Y-84014594D01*
X114144503Y-83904280D01*
X114180813Y-83784582D01*
X114193073Y-83660100D01*
X114193073Y-81960100D01*
X114180813Y-81835618D01*
X114144503Y-81715920D01*
X114085538Y-81605606D01*
X114006186Y-81508915D01*
X113909495Y-81429563D01*
X113799181Y-81370598D01*
X113679483Y-81334288D01*
X113555001Y-81322028D01*
X111855001Y-81322028D01*
X111730519Y-81334288D01*
X111610821Y-81370598D01*
X111500507Y-81429563D01*
X111403816Y-81508915D01*
X111324464Y-81605606D01*
X111265499Y-81715920D01*
X111229189Y-81835618D01*
X111216929Y-81960100D01*
X111216929Y-83660100D01*
X111229189Y-83784582D01*
X111265499Y-83904280D01*
X111324464Y-84014594D01*
X111403816Y-84111285D01*
X111500507Y-84190637D01*
X111610821Y-84249602D01*
X111730519Y-84285912D01*
X111855001Y-84298172D01*
X111945001Y-84298172D01*
X111945002Y-89043220D01*
X111218143Y-89043220D01*
X110921022Y-89072484D01*
X110539779Y-89188133D01*
X110188423Y-89375936D01*
X109880458Y-89628677D01*
X109627717Y-89936642D01*
X109439914Y-90287998D01*
X109324265Y-90669241D01*
X109285215Y-91065720D01*
X108016580Y-91065720D01*
X108016580Y-77338917D01*
X108215274Y-77471680D01*
X108476427Y-77579853D01*
X108753666Y-77635000D01*
X109036336Y-77635000D01*
X109313575Y-77579853D01*
X109574728Y-77471680D01*
X109809760Y-77314637D01*
X110009638Y-77114759D01*
X110166681Y-76879727D01*
X110274854Y-76618574D01*
X110330001Y-76341335D01*
X110330001Y-76058665D01*
X110293689Y-75876113D01*
X113033003Y-73136800D01*
X113062001Y-73113002D01*
X113156974Y-72997277D01*
X113227546Y-72865248D01*
X113271003Y-72721987D01*
X113282000Y-72610334D01*
X113282000Y-72610325D01*
X113285676Y-72573002D01*
X113282000Y-72535679D01*
X113282000Y-70141947D01*
X113328855Y-70199039D01*
X113368840Y-70247761D01*
X113397838Y-70271559D01*
X121071100Y-77944822D01*
X121071101Y-88926988D01*
X121067424Y-88964320D01*
X121082098Y-89113305D01*
X121125554Y-89256566D01*
X121196126Y-89388596D01*
X121267301Y-89475322D01*
X121291100Y-89504321D01*
X121320098Y-89528119D01*
X126763643Y-94971665D01*
X126754913Y-94987998D01*
X126639264Y-95369241D01*
X126600214Y-95765720D01*
X126639264Y-96162199D01*
X126754913Y-96543442D01*
X126942716Y-96894798D01*
X127195457Y-97202763D01*
X127503422Y-97455504D01*
X127854778Y-97643307D01*
X128236021Y-97758956D01*
X128533142Y-97788220D01*
X131506858Y-97788220D01*
X131803979Y-97758956D01*
X132185222Y-97643307D01*
X132536578Y-97455504D01*
X132844543Y-97202763D01*
X133097284Y-96894798D01*
X133285087Y-96543442D01*
X133400736Y-96162199D01*
X133439786Y-95765720D01*
X133400736Y-95369241D01*
X133285087Y-94987998D01*
X133097284Y-94636642D01*
X132844543Y-94328677D01*
X132536578Y-94075936D01*
X132185222Y-93888133D01*
X131803979Y-93772484D01*
X131506858Y-93743220D01*
X128533142Y-93743220D01*
X128236021Y-93772484D01*
X127854778Y-93888133D01*
X127838445Y-93896863D01*
X125007302Y-91065720D01*
X126600214Y-91065720D01*
X126639264Y-91462199D01*
X126754913Y-91843442D01*
X126942716Y-92194798D01*
X127195457Y-92502763D01*
X127503422Y-92755504D01*
X127854778Y-92943307D01*
X128236021Y-93058956D01*
X128533142Y-93088220D01*
X131506858Y-93088220D01*
X131803979Y-93058956D01*
X132185222Y-92943307D01*
X132536578Y-92755504D01*
X132844543Y-92502763D01*
X133097284Y-92194798D01*
X133285087Y-91843442D01*
X133400736Y-91462199D01*
X133439786Y-91065720D01*
X133400736Y-90669241D01*
X133285087Y-90287998D01*
X133097284Y-89936642D01*
X132844543Y-89628677D01*
X132536578Y-89375936D01*
X132185222Y-89188133D01*
X131803979Y-89072484D01*
X131506858Y-89043220D01*
X130780000Y-89043220D01*
X130780000Y-84298172D01*
X130870000Y-84298172D01*
X130994482Y-84285912D01*
X131114180Y-84249602D01*
X131224494Y-84190637D01*
X131321185Y-84111285D01*
X131400537Y-84014594D01*
X131459502Y-83904280D01*
X131495812Y-83784582D01*
X131508072Y-83660100D01*
X131508072Y-81960100D01*
X131495812Y-81835618D01*
X131459502Y-81715920D01*
X131400537Y-81605606D01*
X131321185Y-81508915D01*
X131224494Y-81429563D01*
X131114180Y-81370598D01*
X130994482Y-81334288D01*
X130870000Y-81322028D01*
X129170000Y-81322028D01*
X129045518Y-81334288D01*
X128925820Y-81370598D01*
X128815506Y-81429563D01*
X128718815Y-81508915D01*
X128639463Y-81605606D01*
X128580498Y-81715920D01*
X128544188Y-81835618D01*
X128531928Y-81960100D01*
X128531928Y-83660100D01*
X128544188Y-83784582D01*
X128580498Y-83904280D01*
X128639463Y-84014594D01*
X128718815Y-84111285D01*
X128815506Y-84190637D01*
X128925820Y-84249602D01*
X129045518Y-84285912D01*
X129170000Y-84298172D01*
X129260001Y-84298172D01*
X129260000Y-89043220D01*
X128533142Y-89043220D01*
X128236021Y-89072484D01*
X127854778Y-89188133D01*
X127503422Y-89375936D01*
X127195457Y-89628677D01*
X126942716Y-89936642D01*
X126754913Y-90287998D01*
X126639264Y-90669241D01*
X126600214Y-91065720D01*
X125007302Y-91065720D01*
X122591100Y-88649519D01*
X122591100Y-77667353D01*
X122594777Y-77630020D01*
X122580103Y-77481034D01*
X122536646Y-77337773D01*
X122466074Y-77205744D01*
X122394899Y-77119017D01*
X122371101Y-77090019D01*
X122342104Y-77066222D01*
X116560881Y-71285000D01*
X116595493Y-71285000D01*
X116806310Y-71264236D01*
X117076809Y-71182182D01*
X117326102Y-71048932D01*
X117544609Y-70869608D01*
X117723933Y-70651101D01*
X117745902Y-70610000D01*
X123627678Y-70610000D01*
X123665000Y-70613676D01*
X123702322Y-70610000D01*
X123702333Y-70610000D01*
X123813986Y-70599003D01*
X123957247Y-70555546D01*
X124089276Y-70484974D01*
X124205001Y-70390001D01*
X124228804Y-70360997D01*
X127119005Y-67470797D01*
X127193889Y-67493513D01*
X127412050Y-67515000D01*
X127557950Y-67515000D01*
X127776111Y-67493513D01*
X128056034Y-67408599D01*
X128314014Y-67270706D01*
X128540134Y-67085134D01*
X128725706Y-66859014D01*
X128755000Y-66804209D01*
X128784294Y-66859014D01*
X128969866Y-67085134D01*
X129195986Y-67270706D01*
X129453966Y-67408599D01*
X129733889Y-67493513D01*
X129952050Y-67515000D01*
X130097950Y-67515000D01*
X130316111Y-67493513D01*
X130596034Y-67408599D01*
X130854014Y-67270706D01*
X131080134Y-67085134D01*
X131265706Y-66859014D01*
X131300201Y-66794477D01*
X131369822Y-66911355D01*
X131564731Y-67127588D01*
X131798080Y-67301641D01*
X132060901Y-67426825D01*
X132208110Y-67471476D01*
X132438000Y-67350155D01*
X132438000Y-66157000D01*
X132418000Y-66157000D01*
X132418000Y-65903000D01*
X132438000Y-65903000D01*
X132438000Y-65883000D01*
X132692000Y-65883000D01*
X132692000Y-65903000D01*
X132712000Y-65903000D01*
X132712000Y-66157000D01*
X132692000Y-66157000D01*
X132692000Y-67350155D01*
X132921890Y-67471476D01*
X133069099Y-67426825D01*
X133331920Y-67301641D01*
X133565269Y-67127588D01*
X133760178Y-66911355D01*
X133829799Y-66794477D01*
X133864294Y-66859014D01*
X134049866Y-67085134D01*
X134159824Y-67175374D01*
X126533887Y-74801312D01*
X126351335Y-74765000D01*
X126068665Y-74765000D01*
X125791426Y-74820147D01*
X125530273Y-74928320D01*
X125295241Y-75085363D01*
X125095363Y-75285241D01*
X124938320Y-75520273D01*
X124830147Y-75781426D01*
X124775000Y-76058665D01*
X124775000Y-76341335D01*
X124830147Y-76618574D01*
X124938320Y-76879727D01*
X125095363Y-77114759D01*
X125295241Y-77314637D01*
X125530273Y-77471680D01*
X125791426Y-77579853D01*
X126068665Y-77635000D01*
X126351335Y-77635000D01*
X126628574Y-77579853D01*
X126889727Y-77471680D01*
X127124759Y-77314637D01*
X127324637Y-77114759D01*
X127481680Y-76879727D01*
X127589853Y-76618574D01*
X127645000Y-76341335D01*
X127645000Y-76058665D01*
X127608688Y-75876113D01*
X135100000Y-68384801D01*
X142591312Y-75876114D01*
X142555000Y-76058665D01*
X142555000Y-76341335D01*
X142610147Y-76618574D01*
X142718320Y-76879727D01*
X142875363Y-77114759D01*
X143075241Y-77314637D01*
X143310273Y-77471680D01*
X143571426Y-77579853D01*
X143848665Y-77635000D01*
X144131335Y-77635000D01*
X144408574Y-77579853D01*
X144669727Y-77471680D01*
X144904759Y-77314637D01*
X145104637Y-77114759D01*
X145261680Y-76879727D01*
X145369853Y-76618574D01*
X145425000Y-76341335D01*
X145425000Y-76058665D01*
X145388688Y-75876113D01*
X148212003Y-73052799D01*
X148241001Y-73029001D01*
X148335974Y-72913276D01*
X148406546Y-72781247D01*
X148450003Y-72637986D01*
X148461000Y-72526333D01*
X148464677Y-72489000D01*
X148461000Y-72451667D01*
X148461000Y-66354801D01*
X150192506Y-64623295D01*
X150178057Y-64770000D01*
X150205764Y-65051309D01*
X150287818Y-65321808D01*
X150421068Y-65571101D01*
X150600392Y-65789608D01*
X150818899Y-65968932D01*
X150951858Y-66040000D01*
X150818899Y-66111068D01*
X150600392Y-66290392D01*
X150421068Y-66508899D01*
X150287818Y-66758192D01*
X150205764Y-67028691D01*
X150178057Y-67310000D01*
X150205764Y-67591309D01*
X150287818Y-67861808D01*
X150421068Y-68111101D01*
X150600392Y-68329608D01*
X150818899Y-68508932D01*
X150951858Y-68580000D01*
X150818899Y-68651068D01*
X150600392Y-68830392D01*
X150421068Y-69048899D01*
X150287818Y-69298192D01*
X150205764Y-69568691D01*
X150178057Y-69850000D01*
X150205764Y-70131309D01*
X150287818Y-70401808D01*
X150421068Y-70651101D01*
X150600392Y-70869608D01*
X150818899Y-71048932D01*
X151068192Y-71182182D01*
X151338691Y-71264236D01*
X151549508Y-71285000D01*
X151690492Y-71285000D01*
X151901309Y-71264236D01*
X152171808Y-71182182D01*
X152421101Y-71048932D01*
X152639608Y-70869608D01*
X152818932Y-70651101D01*
X152952182Y-70401808D01*
X153034236Y-70131309D01*
X153061943Y-69850000D01*
X153034236Y-69568691D01*
X152952182Y-69298192D01*
X152818932Y-69048899D01*
X152639608Y-68830392D01*
X152421101Y-68651068D01*
X152288142Y-68580000D01*
X152421101Y-68508932D01*
X152639608Y-68329608D01*
X152818932Y-68111101D01*
X152952182Y-67861808D01*
X153034236Y-67591309D01*
X153061943Y-67310000D01*
X153034236Y-67028691D01*
X152952182Y-66758192D01*
X152818932Y-66508899D01*
X152639608Y-66290392D01*
X152421101Y-66111068D01*
X152288142Y-66040000D01*
X152421101Y-65968932D01*
X152639608Y-65789608D01*
X152818932Y-65571101D01*
X152952182Y-65321808D01*
X153034236Y-65051309D01*
X153061943Y-64770000D01*
X153034236Y-64488691D01*
X152952182Y-64218192D01*
X152818932Y-63968899D01*
X152639608Y-63750392D01*
X152421101Y-63571068D01*
X152288142Y-63500000D01*
X152421101Y-63428932D01*
X152639608Y-63249608D01*
X152818932Y-63031101D01*
X152952182Y-62781808D01*
X153034236Y-62511309D01*
X153061943Y-62230000D01*
X153034236Y-61948691D01*
X153020708Y-61904094D01*
X155197004Y-59727798D01*
X155226001Y-59704001D01*
X155320974Y-59588276D01*
X155391546Y-59456247D01*
X155435003Y-59312986D01*
X155446000Y-59201333D01*
X155446000Y-59201325D01*
X155449676Y-59164000D01*
X155446000Y-59126675D01*
X155446000Y-48424325D01*
X155449676Y-48387000D01*
X155446000Y-48349675D01*
X155446000Y-48349667D01*
X155435003Y-48238014D01*
X155391546Y-48094753D01*
X155320974Y-47962724D01*
X155226001Y-47846999D01*
X155197003Y-47823201D01*
X153471804Y-46098003D01*
X153448001Y-46068999D01*
X153332276Y-45974026D01*
X153200247Y-45903454D01*
X153056986Y-45859997D01*
X152945333Y-45849000D01*
X152945322Y-45849000D01*
X152908000Y-45845324D01*
X152870678Y-45849000D01*
X146948323Y-45849000D01*
X146911000Y-45845324D01*
X146873677Y-45849000D01*
X146873667Y-45849000D01*
X146762014Y-45859997D01*
X146618753Y-45903454D01*
X146486724Y-45974026D01*
X146370999Y-46068999D01*
X146347201Y-46097997D01*
X144313886Y-48131312D01*
X144131335Y-48095000D01*
X143848665Y-48095000D01*
X143571426Y-48150147D01*
X143310273Y-48258320D01*
X143075241Y-48415363D01*
X142875363Y-48615241D01*
X142718320Y-48850273D01*
X142610147Y-49111426D01*
X142555000Y-49388665D01*
X142555000Y-49671335D01*
X142610147Y-49948574D01*
X142718320Y-50209727D01*
X142875363Y-50444759D01*
X143075241Y-50644637D01*
X143310273Y-50801680D01*
X143571426Y-50909853D01*
X143848665Y-50965000D01*
X144131335Y-50965000D01*
X144408574Y-50909853D01*
X144669727Y-50801680D01*
X144904759Y-50644637D01*
X145104637Y-50444759D01*
X145261680Y-50209727D01*
X145369853Y-49948574D01*
X145425000Y-49671335D01*
X145425000Y-49388665D01*
X145388688Y-49206114D01*
X147225802Y-47369000D01*
X152593199Y-47369000D01*
X153926001Y-48701803D01*
X153926000Y-58849198D01*
X151945906Y-60829292D01*
X151901309Y-60815764D01*
X151690492Y-60795000D01*
X151549508Y-60795000D01*
X151338691Y-60815764D01*
X151068192Y-60897818D01*
X150818899Y-61031068D01*
X150600392Y-61210392D01*
X150421068Y-61428899D01*
X150287818Y-61678192D01*
X150205764Y-61948691D01*
X150178057Y-62230000D01*
X150201222Y-62465195D01*
X150171000Y-62489998D01*
X150147202Y-62518996D01*
X147190003Y-65476196D01*
X147160999Y-65499999D01*
X147105871Y-65567174D01*
X147066026Y-65615724D01*
X146996218Y-65746325D01*
X146995454Y-65747754D01*
X146951997Y-65891015D01*
X146941000Y-66002668D01*
X146941000Y-66002678D01*
X146937324Y-66040000D01*
X146941000Y-66077323D01*
X146941001Y-72174197D01*
X144313887Y-74801312D01*
X144131335Y-74765000D01*
X143848665Y-74765000D01*
X143666114Y-74801312D01*
X139063841Y-70199039D01*
X142608096Y-70199039D01*
X142648754Y-70333087D01*
X142768963Y-70587420D01*
X142936481Y-70813414D01*
X143144869Y-71002385D01*
X143386119Y-71147070D01*
X143650960Y-71241909D01*
X143873000Y-71120624D01*
X143873000Y-69977000D01*
X144127000Y-69977000D01*
X144127000Y-71120624D01*
X144349040Y-71241909D01*
X144613881Y-71147070D01*
X144855131Y-71002385D01*
X145063519Y-70813414D01*
X145231037Y-70587420D01*
X145351246Y-70333087D01*
X145391904Y-70199039D01*
X145269915Y-69977000D01*
X144127000Y-69977000D01*
X143873000Y-69977000D01*
X142730085Y-69977000D01*
X142608096Y-70199039D01*
X139063841Y-70199039D01*
X136044683Y-67179882D01*
X136160134Y-67085134D01*
X136345706Y-66859014D01*
X136483599Y-66601034D01*
X136568513Y-66321111D01*
X136597185Y-66030000D01*
X136568513Y-65738889D01*
X136483599Y-65458966D01*
X136345706Y-65200986D01*
X136160134Y-64974866D01*
X135934014Y-64789294D01*
X135676034Y-64651401D01*
X135396111Y-64566487D01*
X135177950Y-64545000D01*
X135032050Y-64545000D01*
X134813889Y-64566487D01*
X134533966Y-64651401D01*
X134275986Y-64789294D01*
X134049866Y-64974866D01*
X133864294Y-65200986D01*
X133829799Y-65265523D01*
X133760178Y-65148645D01*
X133565269Y-64932412D01*
X133331920Y-64758359D01*
X133069099Y-64633175D01*
X132921890Y-64588524D01*
X132692002Y-64709844D01*
X132692002Y-64545000D01*
X132584802Y-64545000D01*
X132747883Y-64381920D01*
X139997119Y-64381920D01*
X142599292Y-66984094D01*
X142585764Y-67028691D01*
X142558057Y-67310000D01*
X142585764Y-67591309D01*
X142667818Y-67861808D01*
X142801068Y-68111101D01*
X142980392Y-68329608D01*
X143198899Y-68508932D01*
X143336682Y-68582579D01*
X143144869Y-68697615D01*
X142936481Y-68886586D01*
X142768963Y-69112580D01*
X142648754Y-69366913D01*
X142608096Y-69500961D01*
X142730085Y-69723000D01*
X143873000Y-69723000D01*
X143873000Y-69703000D01*
X144127000Y-69703000D01*
X144127000Y-69723000D01*
X145269915Y-69723000D01*
X145391904Y-69500961D01*
X145351246Y-69366913D01*
X145231037Y-69112580D01*
X145063519Y-68886586D01*
X144855131Y-68697615D01*
X144663318Y-68582579D01*
X144801101Y-68508932D01*
X145019608Y-68329608D01*
X145198932Y-68111101D01*
X145332182Y-67861808D01*
X145414236Y-67591309D01*
X145441943Y-67310000D01*
X145414236Y-67028691D01*
X145400708Y-66984093D01*
X148671003Y-63713799D01*
X148700001Y-63690001D01*
X148794974Y-63574276D01*
X148865546Y-63442247D01*
X148909003Y-63298986D01*
X148920000Y-63187333D01*
X148923677Y-63150000D01*
X148920000Y-63112667D01*
X148920000Y-58312087D01*
X149034482Y-58300812D01*
X149154180Y-58264502D01*
X149264494Y-58205537D01*
X149361185Y-58126185D01*
X149440537Y-58029494D01*
X149499502Y-57919180D01*
X149535812Y-57799482D01*
X149548072Y-57675000D01*
X149548072Y-56625000D01*
X149539588Y-56538860D01*
X149584276Y-56514974D01*
X149700001Y-56420001D01*
X149723804Y-56390997D01*
X152121004Y-53993798D01*
X152150001Y-53970001D01*
X152244974Y-53854276D01*
X152315546Y-53722247D01*
X152359003Y-53578986D01*
X152370000Y-53467333D01*
X152370000Y-53467324D01*
X152373676Y-53430001D01*
X152370000Y-53392678D01*
X152370000Y-50750901D01*
X152411101Y-50728932D01*
X152629608Y-50549608D01*
X152808932Y-50331101D01*
X152942182Y-50081808D01*
X153024236Y-49811309D01*
X153051943Y-49530000D01*
X153024236Y-49248691D01*
X152942182Y-48978192D01*
X152808932Y-48728899D01*
X152629608Y-48510392D01*
X152411101Y-48331068D01*
X152161808Y-48197818D01*
X151891309Y-48115764D01*
X151680492Y-48095000D01*
X151539508Y-48095000D01*
X151328691Y-48115764D01*
X151058192Y-48197818D01*
X150808899Y-48331068D01*
X150590392Y-48510392D01*
X150411068Y-48728899D01*
X150277818Y-48978192D01*
X150195764Y-49248691D01*
X150168057Y-49530000D01*
X150195764Y-49811309D01*
X150277818Y-50081808D01*
X150411068Y-50331101D01*
X150590392Y-50549608D01*
X150808899Y-50728932D01*
X150850001Y-50750901D01*
X150850000Y-53115198D01*
X149482201Y-54482998D01*
X149378164Y-54482998D01*
X149503964Y-54304190D01*
X149495272Y-54242663D01*
X149402275Y-54033118D01*
X149270184Y-53845742D01*
X149104076Y-53687736D01*
X148910334Y-53565172D01*
X148696404Y-53482761D01*
X148470507Y-53443669D01*
X148287000Y-53603402D01*
X148287000Y-54483000D01*
X148307000Y-54483000D01*
X148307000Y-54720000D01*
X147878021Y-54720000D01*
X147707600Y-54736785D01*
X147706891Y-54737000D01*
X146941837Y-54737000D01*
X146816036Y-54915810D01*
X146824728Y-54977337D01*
X146888042Y-55120000D01*
X145500227Y-55120000D01*
X145462904Y-55116324D01*
X145425581Y-55120000D01*
X145425572Y-55120000D01*
X145313919Y-55130997D01*
X145170658Y-55174454D01*
X145038628Y-55245026D01*
X145021014Y-55259482D01*
X144922904Y-55339999D01*
X144899106Y-55368997D01*
X143488998Y-56779106D01*
X143460000Y-56802904D01*
X143436202Y-56831902D01*
X143436201Y-56831903D01*
X143365026Y-56918629D01*
X143294454Y-57050659D01*
X143284069Y-57084895D01*
X143250998Y-57193919D01*
X143240001Y-57305572D01*
X143236324Y-57342905D01*
X143240001Y-57380237D01*
X143240000Y-60791928D01*
X143200000Y-60791928D01*
X143075518Y-60804188D01*
X142955820Y-60840498D01*
X142845506Y-60899463D01*
X142748815Y-60978815D01*
X142669463Y-61075506D01*
X142610498Y-61185820D01*
X142574188Y-61305518D01*
X142561928Y-61430000D01*
X142561928Y-63030000D01*
X142574188Y-63154482D01*
X142610498Y-63274180D01*
X142669463Y-63384494D01*
X142748815Y-63481185D01*
X142845506Y-63560537D01*
X142955820Y-63619502D01*
X143075518Y-63655812D01*
X143093482Y-63657581D01*
X142980392Y-63750392D01*
X142801068Y-63968899D01*
X142667818Y-64218192D01*
X142585764Y-64488691D01*
X142558057Y-64770000D01*
X142560598Y-64795796D01*
X140875724Y-63110923D01*
X140851921Y-63081919D01*
X140736196Y-62986946D01*
X140604167Y-62916374D01*
X140460906Y-62872917D01*
X140349253Y-62861920D01*
X140349242Y-62861920D01*
X140311920Y-62858244D01*
X140274598Y-62861920D01*
X132470402Y-62861920D01*
X132433079Y-62858244D01*
X132395756Y-62861920D01*
X132395747Y-62861920D01*
X132284094Y-62872917D01*
X132140833Y-62916374D01*
X132008804Y-62986946D01*
X132000602Y-62993677D01*
X131922076Y-63058121D01*
X131922072Y-63058125D01*
X131893079Y-63081919D01*
X131869285Y-63110912D01*
X130390995Y-64589203D01*
X130316111Y-64566487D01*
X130097950Y-64545000D01*
X129952050Y-64545000D01*
X129733889Y-64566487D01*
X129453966Y-64651401D01*
X129195986Y-64789294D01*
X128969866Y-64974866D01*
X128784294Y-65200986D01*
X128755000Y-65255791D01*
X128725706Y-65200986D01*
X128540134Y-64974866D01*
X128470226Y-64917494D01*
X131801004Y-61586717D01*
X131830001Y-61562920D01*
X131924974Y-61447195D01*
X131995546Y-61315166D01*
X132039003Y-61171905D01*
X132050000Y-61060252D01*
X132050000Y-61060251D01*
X132053677Y-61022919D01*
X132050000Y-60985586D01*
X132050000Y-56862287D01*
X132059180Y-56859502D01*
X132169494Y-56800537D01*
X132266185Y-56721185D01*
X132345537Y-56624494D01*
X132404502Y-56514180D01*
X132440812Y-56394482D01*
X132453072Y-56270000D01*
X132453072Y-54770000D01*
X132440812Y-54645518D01*
X132404502Y-54525820D01*
X132345537Y-54415506D01*
X132266185Y-54318815D01*
X132248365Y-54304190D01*
X146816036Y-54304190D01*
X146941837Y-54483000D01*
X148033000Y-54483000D01*
X148033000Y-53603402D01*
X147849493Y-53443669D01*
X147623596Y-53482761D01*
X147409666Y-53565172D01*
X147215924Y-53687736D01*
X147049816Y-53845742D01*
X146917725Y-54033118D01*
X146824728Y-54242663D01*
X146816036Y-54304190D01*
X132248365Y-54304190D01*
X132169494Y-54239463D01*
X132059180Y-54180498D01*
X131939482Y-54144188D01*
X131815000Y-54131928D01*
X130780000Y-54131928D01*
X130780000Y-53654801D01*
X133504094Y-50930708D01*
X133548691Y-50944236D01*
X133759508Y-50965000D01*
X133900492Y-50965000D01*
X134111309Y-50944236D01*
X134381808Y-50862182D01*
X134631101Y-50728932D01*
X134849608Y-50549608D01*
X135028932Y-50331101D01*
X135162182Y-50081808D01*
X135244236Y-49811309D01*
X135271943Y-49530000D01*
X135244236Y-49248691D01*
X135162182Y-48978192D01*
X135028932Y-48728899D01*
X134849608Y-48510392D01*
X134631101Y-48331068D01*
X134381808Y-48197818D01*
X134111309Y-48115764D01*
X133900492Y-48095000D01*
X133759508Y-48095000D01*
X133548691Y-48115764D01*
X133278192Y-48197818D01*
X133028899Y-48331068D01*
X132810392Y-48510392D01*
X132631068Y-48728899D01*
X132497818Y-48978192D01*
X132415764Y-49248691D01*
X132388057Y-49530000D01*
X132415764Y-49811309D01*
X132429292Y-49855906D01*
X129508998Y-52776201D01*
X129480000Y-52799999D01*
X129456202Y-52828997D01*
X129456201Y-52828998D01*
X129385026Y-52915724D01*
X129314454Y-53047754D01*
X129270998Y-53191015D01*
X129256324Y-53340000D01*
X129260001Y-53377332D01*
X129260001Y-54248043D01*
X129117337Y-54184728D01*
X129055810Y-54176036D01*
X128877000Y-54301837D01*
X128877000Y-55066891D01*
X128876785Y-55067600D01*
X128860000Y-55238021D01*
X128860000Y-55801978D01*
X128876785Y-55972399D01*
X128877000Y-55973108D01*
X128877000Y-56738163D01*
X129055810Y-56863964D01*
X129117337Y-56855272D01*
X129260000Y-56791957D01*
X129260000Y-56919078D01*
X122169079Y-64010000D01*
X117745902Y-64010000D01*
X117723933Y-63968899D01*
X117544609Y-63750392D01*
X117326102Y-63571068D01*
X117193143Y-63500000D01*
X117326102Y-63428932D01*
X117544609Y-63249608D01*
X117723933Y-63031101D01*
X117857183Y-62781808D01*
X117939237Y-62511309D01*
X117966944Y-62230000D01*
X117939237Y-61948691D01*
X117857183Y-61678192D01*
X117723933Y-61428899D01*
X117544609Y-61210392D01*
X117326102Y-61031068D01*
X117275001Y-61003754D01*
X117275001Y-55830507D01*
X127583669Y-55830507D01*
X127622761Y-56056404D01*
X127705172Y-56270334D01*
X127827736Y-56464076D01*
X127985742Y-56630184D01*
X128173118Y-56762275D01*
X128382663Y-56855272D01*
X128444190Y-56863964D01*
X128623000Y-56738163D01*
X128623000Y-55647000D01*
X127743402Y-55647000D01*
X127583669Y-55830507D01*
X117275001Y-55830507D01*
X117275001Y-55209493D01*
X127583669Y-55209493D01*
X127743402Y-55393000D01*
X128623000Y-55393000D01*
X128623000Y-54301837D01*
X128444190Y-54176036D01*
X128382663Y-54184728D01*
X128173118Y-54277725D01*
X127985742Y-54409816D01*
X127827736Y-54575924D01*
X127705172Y-54769666D01*
X127622761Y-54983596D01*
X127583669Y-55209493D01*
X117275001Y-55209493D01*
X117275001Y-50748043D01*
X117429760Y-50644637D01*
X117629638Y-50444759D01*
X117733044Y-50290000D01*
X124991957Y-50290000D01*
X125095363Y-50444759D01*
X125295241Y-50644637D01*
X125530273Y-50801680D01*
X125791426Y-50909853D01*
X126068665Y-50965000D01*
X126351335Y-50965000D01*
X126628574Y-50909853D01*
X126889727Y-50801680D01*
X127124759Y-50644637D01*
X127324637Y-50444759D01*
X127481680Y-50209727D01*
X127589853Y-49948574D01*
X127645000Y-49671335D01*
X127645000Y-49388665D01*
X127589853Y-49111426D01*
X127481680Y-48850273D01*
X127324637Y-48615241D01*
X127124759Y-48415363D01*
X126889727Y-48258320D01*
X126628574Y-48150147D01*
X126351335Y-48095000D01*
X126068665Y-48095000D01*
X125791426Y-48150147D01*
X125530273Y-48258320D01*
X125295241Y-48415363D01*
X125095363Y-48615241D01*
X124991957Y-48770000D01*
X117733044Y-48770000D01*
X117629638Y-48615241D01*
X117429760Y-48415363D01*
X117194728Y-48258320D01*
X116933575Y-48150147D01*
X116656336Y-48095000D01*
X116373666Y-48095000D01*
X116096427Y-48150147D01*
X115835274Y-48258320D01*
X115600242Y-48415363D01*
X115400364Y-48615241D01*
X115243321Y-48850273D01*
X115135148Y-49111426D01*
X115080001Y-49388665D01*
X115080001Y-49671335D01*
X115135148Y-49948574D01*
X115243321Y-50209727D01*
X115400364Y-50444759D01*
X115600242Y-50644637D01*
X115755001Y-50748043D01*
X115755002Y-61014444D01*
X115723900Y-61031068D01*
X115505393Y-61210392D01*
X115326069Y-61428899D01*
X115304100Y-61470000D01*
X114210333Y-61470000D01*
X114173000Y-61466323D01*
X114135667Y-61470000D01*
X114024014Y-61480997D01*
X113880753Y-61524454D01*
X113748724Y-61595026D01*
X113632999Y-61689999D01*
X113609201Y-61718997D01*
X112011003Y-63317196D01*
X111981999Y-63340999D01*
X111946304Y-63384494D01*
X111887026Y-63456724D01*
X111824193Y-63574276D01*
X111816454Y-63588754D01*
X111772997Y-63732015D01*
X111762000Y-63843668D01*
X111762000Y-63843678D01*
X111758324Y-63881000D01*
X111762000Y-63918322D01*
X111762000Y-66658452D01*
X111749266Y-66616472D01*
X111678694Y-66484443D01*
X111653936Y-66454275D01*
X111607519Y-66397715D01*
X111607515Y-66397711D01*
X111583721Y-66368718D01*
X111554729Y-66344925D01*
X110305709Y-65095906D01*
X110319237Y-65051309D01*
X110346944Y-64770000D01*
X110319237Y-64488691D01*
X110237183Y-64218192D01*
X110103933Y-63968899D01*
X109924609Y-63750392D01*
X109811519Y-63657581D01*
X109829483Y-63655812D01*
X109949181Y-63619502D01*
X110059495Y-63560537D01*
X110156186Y-63481185D01*
X110235538Y-63384494D01*
X110294503Y-63274180D01*
X110330813Y-63154482D01*
X110343073Y-63030000D01*
X110343073Y-61430000D01*
X110330813Y-61305518D01*
X110294503Y-61185820D01*
X110235538Y-61075506D01*
X110156186Y-60978815D01*
X110059495Y-60899463D01*
X109949181Y-60840498D01*
X109829483Y-60804188D01*
X109705001Y-60791928D01*
X109665001Y-60791928D01*
X109665001Y-59409801D01*
X111204107Y-57870695D01*
X111234817Y-57914258D01*
X111400925Y-58072264D01*
X111594667Y-58194828D01*
X111808597Y-58277239D01*
X112034494Y-58316331D01*
X112218001Y-58156598D01*
X112218001Y-57277000D01*
X112472001Y-57277000D01*
X112472001Y-58156598D01*
X112655508Y-58316331D01*
X112881405Y-58277239D01*
X113095335Y-58194828D01*
X113289077Y-58072264D01*
X113455185Y-57914258D01*
X113587276Y-57726882D01*
X113680273Y-57517337D01*
X113688965Y-57455810D01*
X113563164Y-57277000D01*
X112472001Y-57277000D01*
X112218001Y-57277000D01*
X112198001Y-57277000D01*
X112198001Y-57040000D01*
X112626980Y-57040000D01*
X112797401Y-57023215D01*
X112798110Y-57023000D01*
X113563164Y-57023000D01*
X113688965Y-56844190D01*
X113680273Y-56782663D01*
X113598066Y-56597431D01*
X113637248Y-56585546D01*
X113769277Y-56514974D01*
X113885002Y-56420001D01*
X113908805Y-56390997D01*
X115446003Y-54853800D01*
X115475001Y-54830002D01*
X115523425Y-54770997D01*
X115569974Y-54714278D01*
X115640546Y-54582248D01*
X115677321Y-54461014D01*
X115684003Y-54438987D01*
X115695000Y-54327334D01*
X115695000Y-54327325D01*
X115698676Y-54290002D01*
X115695000Y-54252679D01*
X115695000Y-52107322D01*
X115698676Y-52069999D01*
X115695000Y-52032676D01*
X115695000Y-52032667D01*
X115684003Y-51921014D01*
X115640546Y-51777753D01*
X115569974Y-51645724D01*
X115556811Y-51629685D01*
X115498799Y-51558996D01*
X115498795Y-51558992D01*
X115475001Y-51529999D01*
X115446009Y-51506206D01*
X112958804Y-49019003D01*
X112935001Y-48989999D01*
X112819276Y-48895026D01*
X112687247Y-48824454D01*
X112543986Y-48780997D01*
X112432333Y-48770000D01*
X112432322Y-48770000D01*
X112395000Y-48766324D01*
X112357678Y-48770000D01*
X110115902Y-48770000D01*
X110093933Y-48728899D01*
X109914609Y-48510392D01*
X109696102Y-48331068D01*
X109446809Y-48197818D01*
X109176310Y-48115764D01*
X108965493Y-48095000D01*
X108824509Y-48095000D01*
X108613692Y-48115764D01*
X108343193Y-48197818D01*
X108093900Y-48331068D01*
X107875393Y-48510392D01*
X107696069Y-48728899D01*
X107562819Y-48978192D01*
X107480765Y-49248691D01*
X107453058Y-49530000D01*
X107480765Y-49811309D01*
X107562819Y-50081808D01*
X107696069Y-50331101D01*
X107875393Y-50549608D01*
X108093900Y-50728932D01*
X108343193Y-50862182D01*
X108613692Y-50944236D01*
X108824509Y-50965000D01*
X108965493Y-50965000D01*
X109176310Y-50944236D01*
X109446809Y-50862182D01*
X109696102Y-50728932D01*
X109914609Y-50549608D01*
X110093933Y-50331101D01*
X110115902Y-50290000D01*
X112080199Y-50290000D01*
X114175000Y-52384803D01*
X114175001Y-53975198D01*
X113733073Y-54417126D01*
X113733073Y-54085000D01*
X113720813Y-53960518D01*
X113684503Y-53840820D01*
X113625538Y-53730506D01*
X113546186Y-53633815D01*
X113449495Y-53554463D01*
X113339181Y-53495498D01*
X113219483Y-53459188D01*
X113095001Y-53446928D01*
X111595001Y-53446928D01*
X111470519Y-53459188D01*
X111350821Y-53495498D01*
X111240507Y-53554463D01*
X111143816Y-53633815D01*
X111064464Y-53730506D01*
X111005499Y-53840820D01*
X111002714Y-53850000D01*
X108612165Y-53850000D01*
X108574840Y-53846324D01*
X108537515Y-53850000D01*
X108537507Y-53850000D01*
X108425854Y-53860997D01*
X108282593Y-53904454D01*
X108150564Y-53975026D01*
X108034839Y-54069999D01*
X108011041Y-54098997D01*
X105168238Y-56941801D01*
X105139240Y-56965599D01*
X105115442Y-56994597D01*
X105115441Y-56994598D01*
X105044266Y-57081324D01*
X104973694Y-57213354D01*
X104954388Y-57277000D01*
X104930238Y-57356614D01*
X104927652Y-57382866D01*
X104915564Y-57505600D01*
X104545000Y-57505600D01*
X104545000Y-38439005D01*
X109962054Y-38439005D01*
X109962054Y-38726195D01*
X110018082Y-39007867D01*
X110127985Y-39273196D01*
X110287540Y-39511986D01*
X110490614Y-39715060D01*
X110729404Y-39874615D01*
X110994733Y-39984518D01*
X111276405Y-40040546D01*
X111563595Y-40040546D01*
X111845267Y-39984518D01*
X112110596Y-39874615D01*
X112349386Y-39715060D01*
X112552460Y-39511986D01*
X112712015Y-39273196D01*
X112821918Y-39007867D01*
X112877946Y-38726195D01*
X112877946Y-38439005D01*
X148452854Y-38439005D01*
X148452854Y-38726195D01*
X148508882Y-39007867D01*
X148618785Y-39273196D01*
X148778340Y-39511986D01*
X148981414Y-39715060D01*
X149220204Y-39874615D01*
X149485533Y-39984518D01*
X149767205Y-40040546D01*
X150054395Y-40040546D01*
X150336067Y-39984518D01*
X150601396Y-39874615D01*
X150840186Y-39715060D01*
X151043260Y-39511986D01*
X151202815Y-39273196D01*
X151312718Y-39007867D01*
X151368746Y-38726195D01*
X151368746Y-38439005D01*
X151312718Y-38157333D01*
X151202815Y-37892004D01*
X151043260Y-37653214D01*
X150840186Y-37450140D01*
X150601396Y-37290585D01*
X150336067Y-37180682D01*
X150054395Y-37124654D01*
X149767205Y-37124654D01*
X149485533Y-37180682D01*
X149220204Y-37290585D01*
X148981414Y-37450140D01*
X148778340Y-37653214D01*
X148618785Y-37892004D01*
X148508882Y-38157333D01*
X148452854Y-38439005D01*
X112877946Y-38439005D01*
X112821918Y-38157333D01*
X112712015Y-37892004D01*
X112552460Y-37653214D01*
X112349386Y-37450140D01*
X112110596Y-37290585D01*
X111845267Y-37180682D01*
X111563595Y-37124654D01*
X111276405Y-37124654D01*
X110994733Y-37180682D01*
X110729404Y-37290585D01*
X110490614Y-37450140D01*
X110287540Y-37653214D01*
X110127985Y-37892004D01*
X110018082Y-38157333D01*
X109962054Y-38439005D01*
X104545000Y-38439005D01*
X104545000Y-33760000D01*
X155965000Y-33760000D01*
X155965001Y-179773346D01*
M02*
